<svg width="109" height="38" viewBox="0 0 109 38" fill="none" xmlns="http://www.w3.org/2000/svg">
<path d="M2.34645 32.7233C1.06383 29.9368 0.101866 6.84935 2.34645 4.36149C4.59104 1.87363 40.825 3.36635 59.7437 4.36149C78.6623 5.35663 103.673 3.8639 106.88 5.35663C110.086 6.84935 109.157 33.4199 107.361 36.2063C105.116 39.6893 65.1948 37.2014 55.7355 36.2063C46.2762 35.2111 3.94973 36.2063 2.34645 32.7233Z" fill="#214868"/>
<path d="M1.34645 29.7233C0.0638328 26.9368 -0.898134 3.84935 1.34645 1.36149C3.59104 -1.12637 39.825 0.366353 58.7437 1.36149C77.6623 2.35663 102.673 0.863904 105.88 2.35663C109.086 3.84935 108.157 30.4199 106.361 33.2063C104.116 36.6893 64.1948 34.2014 54.7355 33.2063C45.2762 32.2111 2.94973 33.2063 1.34645 29.7233Z" fill="#3387DC"/>
<path d="M47.5253 21.9775C47.5003 21.7575 47.4728 21.43 47.4428 20.995C47.4128 20.555 47.3853 20.0475 47.3603 19.4725C47.3353 18.8925 47.3103 18.285 47.2853 17.65C47.2653 17.01 47.2478 16.38 47.2328 15.76C47.2228 15.14 47.2178 14.5675 47.2178 14.0425C47.2178 13.6925 47.2203 13.3775 47.2253 13.0975C47.2353 12.8125 47.2478 12.575 47.2628 12.385C47.3128 12.38 47.4328 12.3725 47.6228 12.3625C47.8178 12.3475 48.0428 12.335 48.2978 12.325C48.5528 12.315 48.8003 12.3075 49.0403 12.3025C49.2853 12.2925 49.4828 12.2875 49.6328 12.2875C49.6228 12.5525 49.6178 12.8525 49.6178 13.1875C49.6178 13.5225 49.6178 13.84 49.6178 14.14C49.6178 14.515 49.6228 14.9025 49.6328 15.3025C49.6428 15.6975 49.6528 15.9775 49.6628 16.1425C49.7728 16.1325 49.8953 16.1225 50.0303 16.1125C50.1703 16.0975 50.3153 16.0875 50.4653 16.0825C50.6153 16.0725 50.7628 16.065 50.9078 16.06C51.0528 16.055 51.1878 16.05 51.3128 16.045C51.4428 16.04 51.5528 16.0375 51.6428 16.0375C51.6478 15.8775 51.6553 15.6425 51.6653 15.3325C51.6753 15.0175 51.6853 14.67 51.6953 14.29C51.7053 13.905 51.7153 13.53 51.7253 13.165C51.7353 12.795 51.7478 12.48 51.7628 12.22C51.8778 12.21 52.0178 12.205 52.1828 12.205C52.3478 12.2 52.5078 12.1975 52.6628 12.1975C52.9778 12.1975 53.2753 12.2025 53.5553 12.2125C53.8403 12.2225 54.0553 12.2375 54.2003 12.2575C54.1803 12.3975 54.1578 12.61 54.1328 12.895C54.1128 13.18 54.0903 13.515 54.0653 13.9C54.0453 14.285 54.0253 14.705 54.0053 15.16C53.9853 15.61 53.9653 16.075 53.9453 16.555C53.9303 17.03 53.9153 17.5 53.9003 17.965C53.8803 18.5 53.8628 19.025 53.8478 19.54C53.8378 20.05 53.8278 20.5125 53.8178 20.9275C53.8128 21.3425 53.8078 21.675 53.8028 21.925C53.6928 21.935 53.5178 21.945 53.2778 21.955C53.0428 21.965 52.7803 21.975 52.4903 21.985C52.2003 21.99 51.9153 21.9925 51.6353 21.9925C51.6353 21.6475 51.6328 21.305 51.6278 20.965C51.6278 20.625 51.6278 20.2925 51.6278 19.9675C51.6278 19.6375 51.6278 19.32 51.6278 19.015C51.6278 18.705 51.6278 18.41 51.6278 18.13C51.5278 18.135 51.4128 18.14 51.2828 18.145C51.1528 18.145 51.0178 18.1475 50.8778 18.1525C50.7428 18.1525 50.6053 18.155 50.4653 18.16C50.3253 18.16 50.1928 18.1625 50.0678 18.1675C49.9478 18.1675 49.8428 18.1675 49.7528 18.1675C49.7678 18.4325 49.7828 18.755 49.7978 19.135C49.8128 19.51 49.8278 19.8875 49.8428 20.2675C49.8578 20.6475 49.8703 20.985 49.8803 21.28C49.8953 21.57 49.9028 21.765 49.9028 21.865C49.7878 21.885 49.6228 21.9025 49.4078 21.9175C49.1978 21.9275 48.9703 21.9375 48.7253 21.9475C48.4853 21.9575 48.2553 21.965 48.0353 21.97C47.8203 21.975 47.6503 21.9775 47.5253 21.9775ZM58.6834 22.1275C58.0684 22.1275 57.5059 22.045 56.9959 21.88C56.4859 21.71 56.0784 21.4375 55.7734 21.0625C55.4734 20.6825 55.3234 20.18 55.3234 19.555C55.3234 18.93 55.4984 18.4275 55.8484 18.0475C56.2034 17.6625 56.6684 17.385 57.2434 17.215C57.8234 17.04 58.4459 16.9525 59.1109 16.9525C59.3709 16.9525 59.6209 16.9725 59.8609 17.0125C60.1009 17.0525 60.3109 17.1 60.4909 17.155C60.6759 17.21 60.8084 17.2625 60.8884 17.3125C60.8834 17.1825 60.8559 17.045 60.8059 16.9C60.7609 16.755 60.6959 16.6325 60.6109 16.5325C60.4609 16.3275 60.2559 16.1575 59.9959 16.0225C59.7409 15.8825 59.4034 15.8125 58.9834 15.8125C58.5584 15.8125 58.1834 15.91 57.8584 16.105C57.5334 16.295 57.2859 16.51 57.1159 16.75L55.2859 15.5725C55.5109 15.2525 55.8134 14.9725 56.1934 14.7325C56.5784 14.4925 57.0134 14.305 57.4984 14.17C57.9884 14.035 58.5009 13.9675 59.0359 13.9675C59.9209 13.9675 60.6384 14.1125 61.1884 14.4025C61.7384 14.6925 62.1459 15.0975 62.4109 15.6175C62.5359 15.8675 62.6384 16.1425 62.7184 16.4425C62.7984 16.7425 62.8534 17.0875 62.8834 17.4775C62.9034 17.8125 62.9184 18.125 62.9284 18.415C62.9384 18.705 62.9484 18.98 62.9584 19.24C62.9684 19.62 63.0109 19.8675 63.0859 19.9825C63.1609 20.0975 63.2684 20.155 63.4084 20.155C63.5384 20.155 63.6534 20.12 63.7534 20.05C63.8584 19.975 63.9259 19.8775 63.9559 19.7575L64.7359 21.25C64.6809 21.48 64.5259 21.6725 64.2709 21.8275C64.0159 21.9825 63.6934 22.06 63.3034 22.06C63.0184 22.06 62.7484 22.0125 62.4934 21.9175C62.2384 21.8175 62.0284 21.685 61.8634 21.52C61.6984 21.35 61.6009 21.1575 61.5709 20.9425C61.4909 21.1325 61.3234 21.32 61.0684 21.505C60.8134 21.685 60.4859 21.835 60.0859 21.955C59.6859 22.07 59.2184 22.1275 58.6834 22.1275ZM59.1859 20.365C59.4209 20.365 59.6609 20.33 59.9059 20.26C60.1559 20.185 60.3809 20.0925 60.5809 19.9825C60.7859 19.8725 60.9434 19.76 61.0534 19.645C61.0434 19.49 61.0334 19.33 61.0234 19.165C61.0184 19 61.0184 18.86 61.0234 18.745C60.9134 18.7 60.7034 18.6525 60.3934 18.6025C60.0884 18.5475 59.7684 18.52 59.4334 18.52C59.1284 18.52 58.8434 18.5525 58.5784 18.6175C58.3134 18.6825 58.0959 18.7825 57.9259 18.9175C57.7609 19.0525 57.6784 19.2275 57.6784 19.4425C57.6784 19.6725 57.7409 19.855 57.8659 19.99C57.9909 20.125 58.1659 20.2225 58.3909 20.2825C58.6159 20.3375 58.8809 20.365 59.1859 20.365ZM64.9753 25.36C65.0353 24.545 65.0878 23.6875 65.1328 22.7875C65.1828 21.8875 65.2228 20.995 65.2528 20.11C65.2828 19.225 65.3078 18.3925 65.3278 17.6125C65.3528 16.8325 65.3678 16.15 65.3728 15.565C65.3828 14.975 65.3878 14.53 65.3878 14.23C65.6978 14.13 66.0553 14.06 66.4603 14.02C66.8653 13.975 67.2578 13.9525 67.6378 13.9525C67.6528 14.1125 67.6653 14.3025 67.6753 14.5225C67.6853 14.7375 67.6903 14.935 67.6903 15.115C67.7853 14.99 67.9503 14.8375 68.1853 14.6575C68.4203 14.4725 68.7153 14.31 69.0703 14.17C69.4253 14.03 69.8328 13.96 70.2928 13.96C71.3078 13.96 72.0578 14.2825 72.5428 14.9275C73.0328 15.5675 73.2778 16.46 73.2778 17.605C73.2778 18.41 73.1253 19.105 72.8203 19.69C72.5153 20.275 72.1003 20.725 71.5753 21.04C71.0503 21.35 70.4503 21.505 69.7753 21.505C69.4703 21.505 69.1603 21.4675 68.8453 21.3925C68.5353 21.3125 68.2578 21.215 68.0128 21.1C67.7728 20.98 67.6078 20.865 67.5178 20.755C67.5178 20.875 67.5103 21.075 67.4953 21.355C67.4853 21.635 67.4728 21.9525 67.4578 22.3075C67.4428 22.6675 67.4228 23.0325 67.3978 23.4025C67.3778 23.7725 67.3578 24.1125 67.3378 24.4225C67.3178 24.7375 67.2978 24.9825 67.2778 25.1575C67.0128 25.2125 66.7303 25.2525 66.4303 25.2775C66.1353 25.3075 65.8578 25.3275 65.5978 25.3375C65.3378 25.3525 65.1303 25.36 64.9753 25.36ZM69.4153 19.18C69.7603 19.18 70.0503 19.11 70.2853 18.97C70.5203 18.83 70.6978 18.63 70.8178 18.37C70.9378 18.105 70.9978 17.79 70.9978 17.425C70.9978 16.935 70.8828 16.5575 70.6528 16.2925C70.4278 16.0275 70.0628 15.895 69.5578 15.895C69.2528 15.895 68.9753 15.9425 68.7253 16.0375C68.4753 16.1325 68.2628 16.2475 68.0878 16.3825C67.9178 16.5125 67.7878 16.635 67.6978 16.75C67.6978 16.82 67.6953 16.9325 67.6903 17.0875C67.6853 17.2375 67.6803 17.405 67.6753 17.59C67.6703 17.77 67.6653 17.94 67.6603 18.1C67.6553 18.26 67.6528 18.385 67.6528 18.475C67.7378 18.56 67.8553 18.6575 68.0053 18.7675C68.1553 18.8775 68.3453 18.975 68.5753 19.06C68.8053 19.14 69.0853 19.18 69.4153 19.18ZM79.2452 14.665C79.3702 14.62 79.5477 14.5875 79.7777 14.5675C80.0127 14.5425 80.2402 14.53 80.4602 14.53C80.6452 14.53 80.8502 14.5375 81.0752 14.5525C81.3002 14.5675 81.4827 14.585 81.6227 14.605C81.6877 15.01 81.7377 15.42 81.7727 15.835C81.8077 16.245 81.8252 16.65 81.8252 17.05C81.8252 17.785 81.7602 18.4775 81.6302 19.1275C81.5052 19.7775 81.2977 20.35 81.0077 20.845C80.7177 21.34 80.3302 21.7275 79.8452 22.0075C79.3602 22.2925 78.7627 22.435 78.0527 22.435C77.2977 22.435 76.6752 22.2875 76.1852 21.9925C75.6952 21.6925 75.3127 21.2775 75.0377 20.7475C74.7627 20.2125 74.5702 19.59 74.4602 18.88C74.3552 18.165 74.3027 17.395 74.3027 16.57C74.3027 16.205 74.3102 15.835 74.3252 15.46C74.3452 15.08 74.3702 14.7025 74.4002 14.3275C74.5302 14.3175 74.7002 14.31 74.9102 14.305C75.1252 14.295 75.3202 14.2925 75.4952 14.2975C75.7452 14.2975 75.9952 14.3125 76.2452 14.3425C76.5002 14.3675 76.7002 14.4025 76.8452 14.4475C76.8102 14.7875 76.7802 15.155 76.7552 15.55C76.7302 15.94 76.7177 16.3325 76.7177 16.7275C76.7177 17.3875 76.7602 17.9825 76.8452 18.5125C76.9352 19.0425 77.0827 19.4625 77.2877 19.7725C77.4927 20.0825 77.7702 20.2375 78.1202 20.2375C78.4502 20.2375 78.7127 20.0975 78.9077 19.8175C79.1077 19.5375 79.2502 19.1625 79.3352 18.6925C79.4252 18.2175 79.4702 17.6875 79.4702 17.1025C79.4702 16.6625 79.4477 16.23 79.4027 15.805C79.3627 15.375 79.3102 14.995 79.2452 14.665ZM86.2707 22.5925C85.6857 22.5925 85.1482 22.52 84.6582 22.375C84.1732 22.235 83.7607 22.07 83.4207 21.88C83.0857 21.685 82.8432 21.51 82.6932 21.355C82.7232 21.26 82.7807 21.1225 82.8657 20.9425C82.9557 20.7575 83.0607 20.5575 83.1807 20.3425C83.3007 20.1275 83.4207 19.9275 83.5407 19.7425C83.6607 19.5575 83.7682 19.42 83.8632 19.33C84.1032 19.535 84.3632 19.7375 84.6432 19.9375C84.9232 20.1325 85.2107 20.2925 85.5057 20.4175C85.8007 20.5425 86.0757 20.605 86.3307 20.605C86.5307 20.605 86.7107 20.58 86.8707 20.53C87.0307 20.475 87.1557 20.395 87.2457 20.29C87.3407 20.185 87.3882 20.055 87.3882 19.9C87.3882 19.72 87.3007 19.5475 87.1257 19.3825C86.9557 19.2125 86.7357 19.0525 86.4657 18.9025C86.1957 18.7525 85.9132 18.6175 85.6182 18.4975C85.2132 18.3325 84.8357 18.14 84.4857 17.92C84.1357 17.695 83.8532 17.42 83.6382 17.095C83.4232 16.765 83.3157 16.355 83.3157 15.865C83.3157 15.365 83.4632 14.945 83.7582 14.605C84.0532 14.265 84.4382 14.0075 84.9132 13.8325C85.3932 13.6575 85.9057 13.57 86.4507 13.57C86.9657 13.57 87.4882 13.6425 88.0182 13.7875C88.5482 13.9275 88.9807 14.13 89.3157 14.395C89.2857 14.49 89.2207 14.635 89.1207 14.83C89.0257 15.025 88.9082 15.235 88.7682 15.46C88.6332 15.68 88.4882 15.8825 88.3332 16.0675C88.1282 15.8925 87.8707 15.725 87.5607 15.565C87.2507 15.405 86.9257 15.325 86.5857 15.325C86.4157 15.325 86.2457 15.3425 86.0757 15.3775C85.9107 15.4125 85.7732 15.475 85.6632 15.565C85.5582 15.655 85.5057 15.7775 85.5057 15.9325C85.5057 16.0825 85.5632 16.2175 85.6782 16.3375C85.7932 16.4525 85.9607 16.565 86.1807 16.675C86.4057 16.785 86.6682 16.9 86.9682 17.02C87.2682 17.14 87.5732 17.2825 87.8832 17.4475C88.1932 17.6075 88.4782 17.8 88.7382 18.025C89.0032 18.25 89.2157 18.5125 89.3757 18.8125C89.5357 19.1075 89.6157 19.4475 89.6157 19.8325C89.6157 20.4475 89.4632 20.96 89.1582 21.37C88.8532 21.78 88.4457 22.085 87.9357 22.285C87.4307 22.49 86.8757 22.5925 86.2707 22.5925Z" fill="white"/>
<path d="M32 10H28V9C28 8.20435 27.6839 7.44129 27.1213 6.87868C26.5587 6.31607 25.7956 6 25 6H23C22.2044 6 21.4413 6.31607 20.8787 6.87868C20.3161 7.44129 20 8.20435 20 9V10H16C15.7348 10 15.4804 10.1054 15.2929 10.2929C15.1054 10.4804 15 10.7348 15 11C15 11.2652 15.1054 11.5196 15.2929 11.7071C15.4804 11.8946 15.7348 12 16 12H17V23C17 23.7956 17.3161 24.5587 17.8787 25.1213C18.4413 25.6839 19.2044 26 20 26H28C28.7956 26 29.5587 25.6839 30.1213 25.1213C30.6839 24.5587 31 23.7956 31 23V12H32C32.2652 12 32.5196 11.8946 32.7071 11.7071C32.8946 11.5196 33 11.2652 33 11C33 10.7348 32.8946 10.4804 32.7071 10.2929C32.5196 10.1054 32.2652 10 32 10ZM22 9C22 8.73478 22.1054 8.48043 22.2929 8.29289C22.4804 8.10536 22.7348 8 23 8H25C25.2652 8 25.5196 8.10536 25.7071 8.29289C25.8946 8.48043 26 8.73478 26 9V10H22V9ZM29 23C29 23.2652 28.8946 23.5196 28.7071 23.7071C28.5196 23.8946 28.2652 24 28 24H20C19.7348 24 19.4804 23.8946 19.2929 23.7071C19.1054 23.5196 19 23.2652 19 23V12H29V23Z" fill="white"/>
</svg>
