<svg width="151" height="38" viewBox="0 0 151 38" fill="none" xmlns="http://www.w3.org/2000/svg">
<path d="M2.87007 32.7233C1.08866 29.9368 -0.247408 6.84935 2.87007 4.36149C5.98755 1.87363 56.3125 3.36635 82.5884 4.36149C108.864 5.35663 143.602 3.8639 148.055 5.35663C152.509 6.84935 151.217 33.4199 148.724 36.2063C145.606 39.6893 90.1594 37.2014 77.0215 36.2063C63.8836 35.2111 5.09684 36.2063 2.87007 32.7233Z" fill="#214868"/>
<path d="M1.87007 29.7233C0.0886566 26.9368 -1.24741 3.84935 1.87007 1.36149C4.98755 -1.12637 55.3125 0.366353 81.5884 1.36149C107.864 2.35663 142.602 0.863904 147.055 2.35663C151.509 3.84935 150.217 30.4199 147.724 33.2063C144.606 36.6893 89.1594 34.2014 76.0215 33.2063C62.8836 32.2111 4.09684 33.2063 1.87007 29.7233Z" fill="#3387DC"/>
<path d="M35.2767 22.12C34.9017 22.12 34.5192 22.075 34.1292 21.985C33.7442 21.895 33.3692 21.7625 33.0042 21.5875C32.6442 21.4125 32.3142 21.1975 32.0142 20.9425C31.7142 20.6825 31.4617 20.385 31.2567 20.05C31.2867 20 31.3667 19.915 31.4967 19.795C31.6267 19.67 31.7767 19.535 31.9467 19.39C32.1167 19.24 32.2842 19.1025 32.4492 18.9775C32.6192 18.8525 32.7592 18.7625 32.8692 18.7075C33.0292 18.8925 33.1992 19.0775 33.3792 19.2625C33.5642 19.4475 33.7592 19.615 33.9642 19.765C34.1742 19.91 34.3992 20.0275 34.6392 20.1175C34.8792 20.2075 35.1342 20.2525 35.4042 20.2525C35.7142 20.2525 35.9592 20.195 36.1392 20.08C36.3242 19.965 36.4567 19.82 36.5367 19.645C36.6167 19.465 36.6567 19.2825 36.6567 19.0975C36.6567 18.9475 36.6192 18.805 36.5442 18.67C36.4692 18.535 36.3567 18.4075 36.2067 18.2875C36.0567 18.1625 35.8692 18.0425 35.6442 17.9275C35.4242 17.8075 35.1642 17.695 34.8642 17.59C34.2642 17.36 33.7217 17.1175 33.2367 16.8625C32.7517 16.6025 32.3642 16.29 32.0742 15.925C31.7892 15.56 31.6467 15.1025 31.6467 14.5525C31.6467 13.9675 31.8092 13.4775 32.1342 13.0825C32.4592 12.6875 32.8892 12.39 33.4242 12.19C33.9592 11.985 34.5342 11.8825 35.1492 11.8825C35.6142 11.8825 36.0642 11.935 36.4992 12.04C36.9392 12.14 37.3492 12.2925 37.7292 12.4975C38.1092 12.7025 38.4367 12.96 38.7117 13.27C38.6367 13.38 38.5192 13.5275 38.3592 13.7125C38.1992 13.8975 38.0292 14.0825 37.8492 14.2675C37.6692 14.4525 37.5167 14.6 37.3917 14.71C37.1917 14.515 36.9692 14.34 36.7242 14.185C36.4792 14.025 36.2217 13.9 35.9517 13.81C35.6817 13.715 35.4092 13.6675 35.1342 13.6675C34.8142 13.6675 34.5442 13.7375 34.3242 13.8775C34.1042 14.0125 33.9942 14.2175 33.9942 14.4925C33.9942 14.6175 34.0217 14.73 34.0767 14.83C34.1367 14.93 34.2192 15.02 34.3242 15.1C34.4292 15.18 34.5542 15.255 34.6992 15.325C34.8442 15.39 35.0067 15.4525 35.1867 15.5125C35.6967 15.6825 36.1817 15.86 36.6417 16.045C37.1067 16.23 37.5167 16.445 37.8717 16.69C38.2317 16.93 38.5142 17.225 38.7192 17.575C38.9242 17.925 39.0267 18.3525 39.0267 18.8575C39.0267 19.3325 38.9342 19.77 38.7492 20.17C38.5642 20.565 38.3042 20.91 37.9692 21.205C37.6392 21.495 37.2442 21.72 36.7842 21.88C36.3292 22.04 35.8267 22.12 35.2767 22.12ZM43.5442 22.1275C42.9292 22.1275 42.3667 22.045 41.8567 21.88C41.3467 21.71 40.9392 21.4375 40.6342 21.0625C40.3342 20.6825 40.1842 20.18 40.1842 19.555C40.1842 18.93 40.3592 18.4275 40.7092 18.0475C41.0642 17.6625 41.5292 17.385 42.1042 17.215C42.6842 17.04 43.3067 16.9525 43.9717 16.9525C44.2317 16.9525 44.4817 16.9725 44.7217 17.0125C44.9617 17.0525 45.1717 17.1 45.3517 17.155C45.5367 17.21 45.6692 17.2625 45.7492 17.3125C45.7442 17.1825 45.7167 17.045 45.6667 16.9C45.6217 16.755 45.5567 16.6325 45.4717 16.5325C45.3217 16.3275 45.1167 16.1575 44.8567 16.0225C44.6017 15.8825 44.2642 15.8125 43.8442 15.8125C43.4192 15.8125 43.0442 15.91 42.7192 16.105C42.3942 16.295 42.1467 16.51 41.9767 16.75L40.1467 15.5725C40.3717 15.2525 40.6742 14.9725 41.0542 14.7325C41.4392 14.4925 41.8742 14.305 42.3592 14.17C42.8492 14.035 43.3617 13.9675 43.8967 13.9675C44.7817 13.9675 45.4992 14.1125 46.0492 14.4025C46.5992 14.6925 47.0067 15.0975 47.2717 15.6175C47.3967 15.8675 47.4992 16.1425 47.5792 16.4425C47.6592 16.7425 47.7142 17.0875 47.7442 17.4775C47.7642 17.8125 47.7792 18.125 47.7892 18.415C47.7992 18.705 47.8092 18.98 47.8192 19.24C47.8292 19.62 47.8717 19.8675 47.9467 19.9825C48.0217 20.0975 48.1292 20.155 48.2692 20.155C48.3992 20.155 48.5142 20.12 48.6142 20.05C48.7192 19.975 48.7867 19.8775 48.8167 19.7575L49.5967 21.25C49.5417 21.48 49.3867 21.6725 49.1317 21.8275C48.8767 21.9825 48.5542 22.06 48.1642 22.06C47.8792 22.06 47.6092 22.0125 47.3542 21.9175C47.0992 21.8175 46.8892 21.685 46.7242 21.52C46.5592 21.35 46.4617 21.1575 46.4317 20.9425C46.3517 21.1325 46.1842 21.32 45.9292 21.505C45.6742 21.685 45.3467 21.835 44.9467 21.955C44.5467 22.07 44.0792 22.1275 43.5442 22.1275ZM44.0467 20.365C44.2817 20.365 44.5217 20.33 44.7667 20.26C45.0167 20.185 45.2417 20.0925 45.4417 19.9825C45.6467 19.8725 45.8042 19.76 45.9142 19.645C45.9042 19.49 45.8942 19.33 45.8842 19.165C45.8792 19 45.8792 18.86 45.8842 18.745C45.7742 18.7 45.5642 18.6525 45.2542 18.6025C44.9492 18.5475 44.6292 18.52 44.2942 18.52C43.9892 18.52 43.7042 18.5525 43.4392 18.6175C43.1742 18.6825 42.9567 18.7825 42.7867 18.9175C42.6217 19.0525 42.5392 19.2275 42.5392 19.4425C42.5392 19.6725 42.6017 19.855 42.7267 19.99C42.8517 20.125 43.0267 20.2225 43.2517 20.2825C43.4767 20.3375 43.7417 20.365 44.0467 20.365ZM52.7462 25.9525C51.9812 25.9525 51.2962 25.8375 50.6912 25.6075C50.0862 25.3775 49.5887 25.1325 49.1987 24.8725C49.2587 24.7075 49.3512 24.495 49.4762 24.235C49.6062 23.98 49.7387 23.73 49.8737 23.485C50.0087 23.245 50.1187 23.065 50.2037 22.945C50.3787 23.06 50.6062 23.1875 50.8862 23.3275C51.1712 23.4675 51.4812 23.59 51.8162 23.695C52.1512 23.8 52.4862 23.8525 52.8212 23.8525C53.1862 23.8525 53.4912 23.7575 53.7362 23.5675C53.9862 23.3775 54.1887 23.125 54.3437 22.81C54.4987 22.495 54.6112 22.1475 54.6812 21.7675C54.7562 21.3875 54.7962 21.005 54.8012 20.62C54.6912 20.81 54.5387 20.99 54.3437 21.16C54.1487 21.325 53.9212 21.46 53.6612 21.565C53.4062 21.665 53.1212 21.715 52.8062 21.715C52.0412 21.715 51.4437 21.5075 51.0137 21.0925C50.5887 20.6725 50.2912 20.105 50.1212 19.39C49.9562 18.675 49.8737 17.875 49.8737 16.99C49.8737 16.645 49.8812 16.285 49.8962 15.91C49.9112 15.535 49.9287 15.145 49.9487 14.74C50.0337 14.715 50.1612 14.7 50.3312 14.695C50.5012 14.685 50.6862 14.68 50.8862 14.68C51.1612 14.68 51.4312 14.6875 51.6962 14.7025C51.9612 14.7175 52.1412 14.735 52.2362 14.755C52.2212 14.84 52.1987 14.995 52.1687 15.22C52.1387 15.445 52.1112 15.7125 52.0862 16.0225C52.0662 16.3325 52.0562 16.65 52.0562 16.975C52.0562 17.29 52.0712 17.6025 52.1012 17.9125C52.1312 18.2175 52.1837 18.495 52.2587 18.745C52.3387 18.995 52.4512 19.195 52.5962 19.345C52.7412 19.495 52.9262 19.57 53.1512 19.57C53.4962 19.57 53.7762 19.445 53.9912 19.195C54.2062 18.945 54.3662 18.595 54.4712 18.145C54.5812 17.695 54.6462 17.1725 54.6662 16.5775C54.6712 16.3875 54.6762 16.2 54.6812 16.015C54.6862 15.825 54.6887 15.6475 54.6887 15.4825C54.6887 15.3175 54.6862 15.1775 54.6812 15.0625C54.6812 14.9425 54.6787 14.8625 54.6737 14.8225C54.7937 14.8125 54.9112 14.805 55.0262 14.8C55.1412 14.79 55.2562 14.785 55.3712 14.785C55.8312 14.785 56.2862 14.835 56.7362 14.935C56.7612 15.5 56.7737 16.145 56.7737 16.87C56.7737 17.33 56.7687 17.8225 56.7587 18.3475C56.7487 18.8675 56.7312 19.4 56.7062 19.945C56.6862 20.49 56.6612 21.035 56.6312 21.58C56.5862 22.435 56.4162 23.19 56.1212 23.845C55.8312 24.505 55.4062 25.02 54.8462 25.39C54.2862 25.765 53.5862 25.9525 52.7462 25.9525ZM61.3421 22.1275C60.7271 22.1275 60.1646 22.045 59.6546 21.88C59.1446 21.71 58.7371 21.4375 58.4321 21.0625C58.1321 20.6825 57.9821 20.18 57.9821 19.555C57.9821 18.93 58.1571 18.4275 58.5071 18.0475C58.8621 17.6625 59.3271 17.385 59.9021 17.215C60.4821 17.04 61.1046 16.9525 61.7696 16.9525C62.0296 16.9525 62.2796 16.9725 62.5196 17.0125C62.7596 17.0525 62.9696 17.1 63.1496 17.155C63.3346 17.21 63.4671 17.2625 63.5471 17.3125C63.5421 17.1825 63.5146 17.045 63.4646 16.9C63.4196 16.755 63.3546 16.6325 63.2696 16.5325C63.1196 16.3275 62.9146 16.1575 62.6546 16.0225C62.3996 15.8825 62.0621 15.8125 61.6421 15.8125C61.2171 15.8125 60.8421 15.91 60.5171 16.105C60.1921 16.295 59.9446 16.51 59.7746 16.75L57.9446 15.5725C58.1696 15.2525 58.4721 14.9725 58.8521 14.7325C59.2371 14.4925 59.6721 14.305 60.1571 14.17C60.6471 14.035 61.1596 13.9675 61.6946 13.9675C62.5796 13.9675 63.2971 14.1125 63.8471 14.4025C64.3971 14.6925 64.8046 15.0975 65.0696 15.6175C65.1946 15.8675 65.2971 16.1425 65.3771 16.4425C65.4571 16.7425 65.5121 17.0875 65.5421 17.4775C65.5621 17.8125 65.5771 18.125 65.5871 18.415C65.5971 18.705 65.6071 18.98 65.6171 19.24C65.6271 19.62 65.6696 19.8675 65.7446 19.9825C65.8196 20.0975 65.9271 20.155 66.0671 20.155C66.1971 20.155 66.3121 20.12 66.4121 20.05C66.5171 19.975 66.5846 19.8775 66.6146 19.7575L67.3946 21.25C67.3396 21.48 67.1846 21.6725 66.9296 21.8275C66.6746 21.9825 66.3521 22.06 65.9621 22.06C65.6771 22.06 65.4071 22.0125 65.1521 21.9175C64.8971 21.8175 64.6871 21.685 64.5221 21.52C64.3571 21.35 64.2596 21.1575 64.2296 20.9425C64.1496 21.1325 63.9821 21.32 63.7271 21.505C63.4721 21.685 63.1446 21.835 62.7446 21.955C62.3446 22.07 61.8771 22.1275 61.3421 22.1275ZM61.8446 20.365C62.0796 20.365 62.3196 20.33 62.5646 20.26C62.8146 20.185 63.0396 20.0925 63.2396 19.9825C63.4446 19.8725 63.6021 19.76 63.7121 19.645C63.7021 19.49 63.6921 19.33 63.6821 19.165C63.6771 19 63.6771 18.86 63.6821 18.745C63.5721 18.7 63.3621 18.6525 63.0521 18.6025C62.7471 18.5475 62.4271 18.52 62.0921 18.52C61.7871 18.52 61.5021 18.5525 61.2371 18.6175C60.9721 18.6825 60.7546 18.7825 60.5846 18.9175C60.4196 19.0525 60.3371 19.2275 60.3371 19.4425C60.3371 19.6725 60.3996 19.855 60.5246 19.99C60.6496 20.125 60.8246 20.2225 61.0496 20.2825C61.2746 20.3375 61.5396 20.365 61.8446 20.365ZM76.0433 22.12C75.6683 22.12 75.2858 22.075 74.8958 21.985C74.5108 21.895 74.1358 21.7625 73.7708 21.5875C73.4108 21.4125 73.0808 21.1975 72.7808 20.9425C72.4808 20.6825 72.2283 20.385 72.0233 20.05C72.0533 20 72.1333 19.915 72.2633 19.795C72.3933 19.67 72.5433 19.535 72.7133 19.39C72.8833 19.24 73.0508 19.1025 73.2158 18.9775C73.3858 18.8525 73.5258 18.7625 73.6358 18.7075C73.7958 18.8925 73.9658 19.0775 74.1458 19.2625C74.3308 19.4475 74.5258 19.615 74.7308 19.765C74.9408 19.91 75.1658 20.0275 75.4058 20.1175C75.6458 20.2075 75.9008 20.2525 76.1708 20.2525C76.4808 20.2525 76.7258 20.195 76.9058 20.08C77.0908 19.965 77.2233 19.82 77.3033 19.645C77.3833 19.465 77.4233 19.2825 77.4233 19.0975C77.4233 18.9475 77.3858 18.805 77.3108 18.67C77.2358 18.535 77.1233 18.4075 76.9733 18.2875C76.8233 18.1625 76.6358 18.0425 76.4108 17.9275C76.1908 17.8075 75.9308 17.695 75.6308 17.59C75.0308 17.36 74.4883 17.1175 74.0033 16.8625C73.5183 16.6025 73.1308 16.29 72.8408 15.925C72.5558 15.56 72.4133 15.1025 72.4133 14.5525C72.4133 13.9675 72.5758 13.4775 72.9008 13.0825C73.2258 12.6875 73.6558 12.39 74.1908 12.19C74.7258 11.985 75.3008 11.8825 75.9158 11.8825C76.3808 11.8825 76.8308 11.935 77.2658 12.04C77.7058 12.14 78.1158 12.2925 78.4958 12.4975C78.8758 12.7025 79.2033 12.96 79.4783 13.27C79.4033 13.38 79.2858 13.5275 79.1258 13.7125C78.9658 13.8975 78.7958 14.0825 78.6158 14.2675C78.4358 14.4525 78.2833 14.6 78.1583 14.71C77.9583 14.515 77.7358 14.34 77.4908 14.185C77.2458 14.025 76.9883 13.9 76.7183 13.81C76.4483 13.715 76.1758 13.6675 75.9008 13.6675C75.5808 13.6675 75.3108 13.7375 75.0908 13.8775C74.8708 14.0125 74.7608 14.2175 74.7608 14.4925C74.7608 14.6175 74.7883 14.73 74.8433 14.83C74.9033 14.93 74.9858 15.02 75.0908 15.1C75.1958 15.18 75.3208 15.255 75.4658 15.325C75.6108 15.39 75.7733 15.4525 75.9533 15.5125C76.4633 15.6825 76.9483 15.86 77.4083 16.045C77.8733 16.23 78.2833 16.445 78.6383 16.69C78.9983 16.93 79.2808 17.225 79.4858 17.575C79.6908 17.925 79.7933 18.3525 79.7933 18.8575C79.7933 19.3325 79.7008 19.77 79.5158 20.17C79.3308 20.565 79.0708 20.91 78.7358 21.205C78.4058 21.495 78.0108 21.72 77.5508 21.88C77.0958 22.04 76.5933 22.12 76.0433 22.12ZM88.3458 20.6575C88.2058 20.8275 88.0308 20.995 87.8208 21.16C87.6108 21.325 87.3583 21.475 87.0633 21.61C86.7733 21.74 86.4408 21.845 86.0658 21.925C85.6908 22 85.2708 22.0375 84.8058 22.0375C84.0508 22.0375 83.3808 21.895 82.7958 21.61C82.2108 21.32 81.7533 20.8925 81.4233 20.3275C81.0983 19.7575 80.9358 19.05 80.9358 18.205C80.9358 17.36 81.1058 16.625 81.4458 16C81.7858 15.37 82.2608 14.8825 82.8708 14.5375C83.4808 14.1875 84.1933 14.0125 85.0083 14.0125C86.0383 14.0125 86.8483 14.3 87.4383 14.875C88.0333 15.445 88.3433 16.235 88.3683 17.245C88.3733 17.43 88.3708 17.5975 88.3608 17.7475C88.3508 17.8975 88.3308 18.0575 88.3008 18.2275C88.2258 18.2225 88.0658 18.2175 87.8208 18.2125C87.5758 18.2075 87.2983 18.2025 86.9883 18.1975C86.6833 18.1875 86.3933 18.18 86.1183 18.175C85.8483 18.17 85.6483 18.1675 85.5183 18.1675C85.0833 18.1675 84.6608 18.1875 84.2508 18.2275C83.8458 18.2675 83.5058 18.31 83.2308 18.355C83.2308 18.445 83.2358 18.535 83.2458 18.625C83.2608 18.71 83.2808 18.7925 83.3058 18.8725C83.3708 19.0775 83.4833 19.2525 83.6433 19.3975C83.8083 19.5425 84.0033 19.655 84.2283 19.735C84.4583 19.81 84.7008 19.8475 84.9558 19.8475C85.1858 19.8475 85.3958 19.82 85.5858 19.765C85.7808 19.705 85.9583 19.6275 86.1183 19.5325C86.2783 19.4375 86.4233 19.335 86.5533 19.225C86.6883 19.11 86.8133 18.9975 86.9283 18.8875C86.9583 18.9125 87.0358 18.9875 87.1608 19.1125C87.2858 19.2325 87.4258 19.3825 87.5808 19.5625C87.7358 19.7375 87.8833 19.9225 88.0233 20.1175C88.1633 20.3125 88.2708 20.4925 88.3458 20.6575ZM83.3133 16.9525C83.5383 16.9175 83.8158 16.885 84.1458 16.855C84.4758 16.825 84.8583 16.81 85.2933 16.81C85.5283 16.81 85.7358 16.8125 85.9158 16.8175C86.1008 16.8225 86.2308 16.8275 86.3058 16.8325C86.3058 16.7275 86.2908 16.6125 86.2608 16.4875C86.2208 16.3175 86.1408 16.155 86.0208 16C85.9058 15.845 85.7558 15.72 85.5708 15.625C85.3908 15.53 85.1733 15.4825 84.9183 15.4825C84.5983 15.4825 84.3183 15.5525 84.0783 15.6925C83.8433 15.8325 83.6608 16.015 83.5308 16.24C83.4008 16.465 83.3283 16.7025 83.3133 16.9525ZM95.7051 21.0175C95.6101 21.2025 95.4601 21.4 95.2551 21.61C95.0551 21.815 94.7926 21.99 94.4676 22.135C94.1476 22.285 93.7576 22.36 93.2976 22.36C92.6926 22.36 92.1976 22.2325 91.8126 21.9775C91.4326 21.7225 91.1501 21.3825 90.9651 20.9575C90.7851 20.5325 90.6951 20.0675 90.6951 19.5625C90.6951 19.2875 90.6976 18.995 90.7026 18.685C90.7126 18.37 90.7226 18.06 90.7326 17.755C90.7426 17.445 90.7526 17.1525 90.7626 16.8775C90.7776 16.5975 90.7901 16.3525 90.8001 16.1425C90.8151 15.9325 90.8251 15.77 90.8301 15.655C90.4351 15.695 90.0701 15.74 89.7351 15.79C89.4001 15.835 89.1676 15.8725 89.0376 15.9025C88.9876 15.6225 88.9501 15.3375 88.9251 15.0475C88.9001 14.7575 88.8801 14.505 88.8651 14.29C88.8551 14.075 88.8501 13.9425 88.8501 13.8925C89.1401 13.8525 89.4501 13.8175 89.7801 13.7875C90.1101 13.7525 90.4576 13.7275 90.8226 13.7125C90.8176 13.5925 90.8126 13.405 90.8076 13.15C90.8026 12.895 90.7951 12.665 90.7851 12.46C90.7801 12.275 90.7701 12.09 90.7551 11.905C90.7401 11.715 90.7276 11.5625 90.7176 11.4475L92.9376 11.2525C92.9376 11.3125 92.9376 11.4525 92.9376 11.6725C92.9426 11.8925 92.9451 12.1575 92.9451 12.4675C92.9451 12.6225 92.9476 12.8025 92.9526 13.0075C92.9576 13.2075 92.9626 13.405 92.9676 13.6C93.1326 13.59 93.3251 13.58 93.5451 13.57C93.7651 13.56 93.9401 13.5525 94.0701 13.5475C94.2801 13.5375 94.4701 13.5325 94.6401 13.5325C94.8101 13.5275 94.9501 13.525 95.0601 13.525C95.1751 13.525 95.2526 13.5275 95.2926 13.5325C95.3226 13.7675 95.3426 14.0675 95.3526 14.4325C95.3626 14.7925 95.3676 15.1125 95.3676 15.3925C95.3176 15.3875 95.1551 15.39 94.8801 15.4C94.6051 15.405 94.3351 15.415 94.0701 15.43C93.8851 15.435 93.6801 15.445 93.4551 15.46C93.2301 15.475 93.0526 15.49 92.9226 15.505C92.9176 15.61 92.9101 15.755 92.9001 15.94C92.8951 16.12 92.8876 16.325 92.8776 16.555C92.8726 16.78 92.8651 17.015 92.8551 17.26C92.8501 17.5 92.8451 17.7325 92.8401 17.9575C92.8351 18.1825 92.8326 18.3825 92.8326 18.5575C92.8326 18.8875 92.8476 19.185 92.8776 19.45C92.9126 19.71 92.9851 19.9175 93.0951 20.0725C93.2101 20.2225 93.3851 20.2975 93.6201 20.2975C93.7751 20.2975 93.9076 20.2525 94.0176 20.1625C94.1276 20.0725 94.2176 19.9675 94.2876 19.8475C94.3626 19.7225 94.4276 19.6125 94.4826 19.5175C94.5476 19.6075 94.6376 19.7275 94.7526 19.8775C94.8726 20.0225 94.9976 20.175 95.1276 20.335C95.2626 20.495 95.3826 20.6375 95.4876 20.7625C95.5976 20.8875 95.6701 20.9725 95.7051 21.0175ZM101.591 14.665C101.716 14.62 101.894 14.5875 102.124 14.5675C102.359 14.5425 102.586 14.53 102.806 14.53C102.991 14.53 103.196 14.5375 103.421 14.5525C103.646 14.5675 103.829 14.585 103.969 14.605C104.034 15.01 104.084 15.42 104.119 15.835C104.154 16.245 104.171 16.65 104.171 17.05C104.171 17.785 104.106 18.4775 103.976 19.1275C103.851 19.7775 103.644 20.35 103.354 20.845C103.064 21.34 102.676 21.7275 102.191 22.0075C101.706 22.2925 101.109 22.435 100.399 22.435C99.6439 22.435 99.0214 22.2875 98.5314 21.9925C98.0414 21.6925 97.6589 21.2775 97.3839 20.7475C97.1089 20.2125 96.9164 19.59 96.8064 18.88C96.7014 18.165 96.6489 17.395 96.6489 16.57C96.6489 16.205 96.6564 15.835 96.6714 15.46C96.6914 15.08 96.7164 14.7025 96.7464 14.3275C96.8764 14.3175 97.0464 14.31 97.2564 14.305C97.4714 14.295 97.6664 14.2925 97.8414 14.2975C98.0914 14.2975 98.3414 14.3125 98.5914 14.3425C98.8464 14.3675 99.0464 14.4025 99.1914 14.4475C99.1564 14.7875 99.1264 15.155 99.1014 15.55C99.0764 15.94 99.0639 16.3325 99.0639 16.7275C99.0639 17.3875 99.1064 17.9825 99.1914 18.5125C99.2814 19.0425 99.4289 19.4625 99.6339 19.7725C99.8389 20.0825 100.116 20.2375 100.466 20.2375C100.796 20.2375 101.059 20.0975 101.254 19.8175C101.454 19.5375 101.596 19.1625 101.681 18.6925C101.771 18.2175 101.816 17.6875 101.816 17.1025C101.816 16.6625 101.794 16.23 101.749 15.805C101.709 15.375 101.656 14.995 101.591 14.665ZM109.389 20.29C109.389 21.185 109.322 21.9775 109.187 22.6675C109.057 23.3625 108.849 23.945 108.564 24.415C108.284 24.89 107.919 25.2475 107.469 25.4875C107.019 25.7325 106.474 25.855 105.834 25.855C105.294 25.855 104.777 25.76 104.282 25.57C103.787 25.38 103.359 25.115 102.999 24.775C102.639 24.435 102.392 24.045 102.257 23.605C102.462 23.46 102.709 23.3175 102.999 23.1775C103.289 23.0425 103.577 22.9225 103.862 22.8175C104.147 22.7125 104.384 22.6275 104.574 22.5625C104.644 22.7675 104.737 22.9625 104.852 23.1475C104.967 23.3325 105.107 23.4825 105.272 23.5975C105.437 23.7125 105.624 23.77 105.834 23.77C106.054 23.77 106.232 23.6675 106.367 23.4625C106.507 23.2625 106.614 23 106.689 22.675C106.764 22.35 106.817 22.005 106.847 21.64C106.877 21.27 106.892 20.92 106.892 20.59C106.892 20.19 106.874 19.7575 106.839 19.2925C106.804 18.8275 106.754 18.355 106.689 17.875C106.629 17.395 106.559 16.935 106.479 16.495C106.404 16.05 106.324 15.65 106.239 15.295L108.737 15.1675C108.792 15.3625 108.857 15.6525 108.932 16.0375C109.007 16.4175 109.079 16.85 109.149 17.335C109.219 17.815 109.277 18.3125 109.322 18.8275C109.367 19.3375 109.389 19.825 109.389 20.29ZM107.034 11.305C107.344 11.305 107.619 11.375 107.859 11.515C108.104 11.65 108.297 11.8275 108.437 12.0475C108.582 12.2675 108.654 12.51 108.654 12.775C108.654 13.05 108.577 13.305 108.422 13.54C108.267 13.77 108.064 13.955 107.814 14.095C107.564 14.235 107.297 14.305 107.012 14.305C106.747 14.305 106.494 14.2475 106.254 14.1325C106.014 14.0175 105.819 13.855 105.669 13.645C105.519 13.43 105.444 13.1825 105.444 12.9025C105.444 12.6025 105.514 12.3325 105.654 12.0925C105.794 11.8475 105.984 11.655 106.224 11.515C106.464 11.375 106.734 11.305 107.034 11.305ZM115.595 14.665C115.72 14.62 115.898 14.5875 116.128 14.5675C116.363 14.5425 116.59 14.53 116.81 14.53C116.995 14.53 117.2 14.5375 117.425 14.5525C117.65 14.5675 117.833 14.585 117.973 14.605C118.038 15.01 118.088 15.42 118.123 15.835C118.158 16.245 118.175 16.65 118.175 17.05C118.175 17.785 118.11 18.4775 117.98 19.1275C117.855 19.7775 117.648 20.35 117.358 20.845C117.068 21.34 116.68 21.7275 116.195 22.0075C115.71 22.2925 115.113 22.435 114.403 22.435C113.648 22.435 113.025 22.2875 112.535 21.9925C112.045 21.6925 111.663 21.2775 111.388 20.7475C111.113 20.2125 110.92 19.59 110.81 18.88C110.705 18.165 110.653 17.395 110.653 16.57C110.653 16.205 110.66 15.835 110.675 15.46C110.695 15.08 110.72 14.7025 110.75 14.3275C110.88 14.3175 111.05 14.31 111.26 14.305C111.475 14.295 111.67 14.2925 111.845 14.2975C112.095 14.2975 112.345 14.3125 112.595 14.3425C112.85 14.3675 113.05 14.4025 113.195 14.4475C113.16 14.7875 113.13 15.155 113.105 15.55C113.08 15.94 113.068 16.3325 113.068 16.7275C113.068 17.3875 113.11 17.9825 113.195 18.5125C113.285 19.0425 113.433 19.4625 113.638 19.7725C113.843 20.0825 114.12 20.2375 114.47 20.2375C114.8 20.2375 115.063 20.0975 115.258 19.8175C115.458 19.5375 115.6 19.1625 115.685 18.6925C115.775 18.2175 115.82 17.6875 115.82 17.1025C115.82 16.6625 115.798 16.23 115.753 15.805C115.713 15.375 115.66 14.995 115.595 14.665Z" fill="white"/>
</svg>
