<svg width="51" height="50" viewBox="0 0 51 50" fill="none" xmlns="http://www.w3.org/2000/svg">
<path d="M12.2863 46.8437C8.47546 44.7683 5.29026 41.515 3.18575 37.7008C1.05281 33.9147 -0.0278875 29.5676 0.000551483 25.2206C0.00055186 20.9016 1.10969 16.5826 3.24263 12.8245C5.40402 9.06635 8.58922 5.86916 12.4001 3.68161C16.211 1.49406 20.5906 0.34419 25.1693 0.0637375C29.7196 -0.216719 34.4405 0.400282 38.4505 2.47565C42.432 4.52298 45.7309 8.05671 47.9208 12.0672C50.1106 16.1058 51.2197 20.6772 50.9638 25.0804C50.7078 29.4835 49.0868 33.7464 46.8969 37.7569C44.6787 41.7674 41.8916 45.5255 38.1376 47.629C34.3837 49.7324 29.6912 50.1531 25.1124 49.9567C20.5337 49.7604 16.0972 48.891 12.2863 46.8437Z" fill="white"/>
<path d="M23.626 24.998L31.3111 17.1098C31.5283 16.8862 31.7005 16.6208 31.818 16.3287C31.9355 16.0366 31.996 15.7236 31.996 15.4074C31.996 15.0913 31.9355 14.7782 31.818 14.4862C31.7005 14.1941 31.5283 13.9287 31.3111 13.7051C31.094 13.4816 30.8362 13.3042 30.5525 13.1833C30.2688 13.0623 29.9647 13 29.6577 13C29.3506 13 29.0465 13.0623 28.7628 13.1833C28.4791 13.3042 28.2213 13.4816 28.0042 13.7051L18.6889 23.2956C18.4706 23.5185 18.2973 23.7837 18.1791 24.0759C18.0609 24.3681 18 24.6814 18 24.998C18 25.3145 18.0609 25.6279 18.1791 25.92C18.2973 26.2122 18.4706 26.4774 18.6889 26.7003L28.0042 36.2908C28.2207 36.5155 28.4783 36.6939 28.762 36.8156C29.0458 36.9373 29.3502 37 29.6577 37C29.9651 37 30.2695 36.9373 30.5533 36.8156C30.8371 36.6939 31.0946 36.5155 31.3111 36.2908C31.5294 36.0679 31.7027 35.8027 31.8209 35.5105C31.9391 35.2184 32 34.905 32 34.5885C32 34.272 31.9391 33.9586 31.8209 33.6664C31.7027 33.3742 31.5294 33.109 31.3111 32.8862L23.626 24.998Z" fill="black"/>
</svg>
