<svg width="21" height="18" viewBox="0 0 21 18" fill="none" xmlns="http://www.w3.org/2000/svg">
<path d="M18 0C17.2044 0 16.4413 0.316071 15.8787 0.87868C15.3161 1.44129 15 2.20435 15 3V15C15 15.7956 15.3161 16.5587 15.8787 17.1213C16.4413 17.6839 17.2044 18 18 18C18.7957 18 19.5587 17.6839 20.1213 17.1213C20.6839 16.5587 21 15.7956 21 15V3C21 2.20435 20.6839 1.44129 20.1213 0.87868C19.5587 0.316071 18.7957 0 18 0ZM19 15C19 15.2652 18.8946 15.5196 18.7071 15.7071C18.5196 15.8946 18.2652 16 18 16C17.7348 16 17.4804 15.8946 17.2929 15.7071C17.1054 15.5196 17 15.2652 17 15V3C17 2.73478 17.1054 2.48043 17.2929 2.29289C17.4804 2.10536 17.7348 2 18 2C18.2652 2 18.5196 2.10536 18.7071 2.29289C18.8946 2.48043 19 2.73478 19 3V15ZM11.63 2.63C11.23 2.3943 10.7743 2.27 10.31 2.27C9.84576 2.27 9.38997 2.3943 8.99001 2.63L2.32001 6.63C1.91647 6.87526 1.58288 7.22031 1.35139 7.63191C1.11989 8.0435 0.998291 8.50777 0.998291 8.98C0.998291 9.45223 1.11989 9.9165 1.35139 10.3281C1.58288 10.7397 1.91647 11.0847 2.32001 11.33L8.99001 15.33C9.3889 15.5688 9.8451 15.6949 10.31 15.6949C10.7749 15.6949 11.2311 15.5688 11.63 15.33C12.0403 15.0932 12.3822 14.7541 12.6223 14.3457C12.8624 13.9373 12.9926 13.4737 13 13V5C12.9995 4.51952 12.8726 4.04763 12.6322 3.63165C12.3917 3.21567 12.0461 2.87024 11.63 2.63ZM11 13C11.0029 13.1292 10.9711 13.2567 10.9077 13.3693C10.8444 13.4819 10.7519 13.5754 10.64 13.64C10.5449 13.6973 10.436 13.7276 10.325 13.7276C10.214 13.7276 10.1051 13.6973 10.01 13.64L3.35001 9.64C3.24265 9.57125 3.15432 9.4766 3.09313 9.36476C3.03195 9.25292 2.99988 9.12748 2.99988 9C2.99988 8.87252 3.03195 8.74708 3.09313 8.63524C3.15432 8.5234 3.24265 8.42875 3.35001 8.36L10.01 4.36C10.1067 4.30189 10.2172 4.27081 10.33 4.27C10.4384 4.26997 10.5451 4.2975 10.64 4.35C10.7534 4.41538 10.8469 4.51044 10.9103 4.62497C10.9738 4.7395 11.0048 4.86916 11 5V13Z" fill="#D0D05A"/>
</svg>
