<svg width="21" height="18" viewBox="0 0 21 18" fill="none" xmlns="http://www.w3.org/2000/svg">
<path d="M3 0C2.20435 0 1.44129 0.316071 0.87868 0.87868C0.316071 1.44129 0 2.20435 0 3V15C0 15.7956 0.316071 16.5587 0.87868 17.1213C1.44129 17.6839 2.20435 18 3 18C3.79565 18 4.55871 17.6839 5.12132 17.1213C5.68393 16.5587 6 15.7956 6 15V3C6 2.20435 5.68393 1.44129 5.12132 0.87868C4.55871 0.316071 3.79565 0 3 0ZM4 15C4 15.2652 3.89464 15.5196 3.70711 15.7071C3.51957 15.8946 3.26522 16 3 16C2.73478 16 2.48043 15.8946 2.29289 15.7071C2.10536 15.5196 2 15.2652 2 15V3C2 2.73478 2.10536 2.48043 2.29289 2.29289C2.48043 2.10536 2.73478 2 3 2C3.26522 2 3.51957 2.10536 3.70711 2.29289C3.89464 2.48043 4 2.73478 4 3V15ZM18.68 6.65L12 2.66C11.6 2.4243 11.1442 2.3 10.68 2.3C10.2158 2.3 9.75997 2.4243 9.36 2.66C8.95012 2.89892 8.60931 3.24018 8.37091 3.65036C8.13251 4.06054 8.00471 4.52559 8 5V13C7.99875 13.4822 8.12477 13.9561 8.36531 14.374C8.60586 14.7919 8.95242 15.1389 9.37 15.38C9.7689 15.6188 10.2251 15.7449 10.69 15.7449C11.1549 15.7449 11.6111 15.6188 12.01 15.38L18.68 11.38C19.0835 11.1347 19.4171 10.7897 19.6486 10.3781C19.8801 9.9665 20.0017 9.50223 20.0017 9.03C20.0017 8.55777 19.8801 8.0935 19.6486 7.68191C19.4171 7.27031 19.0835 6.92526 18.68 6.68V6.65ZM17.68 9.65L11.02 13.65C10.9249 13.7073 10.816 13.7376 10.705 13.7376C10.594 13.7376 10.4851 13.7073 10.39 13.65C10.271 13.5886 10.1714 13.4953 10.1025 13.3805C10.0336 13.2657 9.99813 13.1339 10 13V5C9.99707 4.87084 10.0289 4.74326 10.0923 4.63066C10.1556 4.51805 10.2481 4.42457 10.36 4.36C10.4549 4.3075 10.5616 4.27997 10.67 4.28C10.7828 4.28081 10.8933 4.31189 10.99 4.37L17.65 8.37C17.7574 8.43875 17.8457 8.5334 17.9069 8.64524C17.9681 8.75708 18.0001 8.88252 18.0001 9.01C18.0001 9.13748 17.9681 9.26291 17.9069 9.37475C17.8457 9.4866 17.7574 9.58125 17.65 9.65H17.68Z" fill="#D0D05A"/>
</svg>
