<svg width="30" height="30" viewBox="0 0 30 30" fill="none" xmlns="http://www.w3.org/2000/svg">
<path d="M20.0043 0.349539C18.4814 0.349544 14.2148 0.397222 8.68328 0.711625C6.34621 0.711625 1.47946 -0.455085 0.805846 0.349539C0.132232 1.15416 0.170338 9.06777 0.132233 10.4601C0.0814271 13.9186 0.548458 16.935 0.132233 24.0105C-0.220102 30 0.0706603 30 1.75114 30H10.7989C12.8185 30 16.9461 29.5351 18.6989 29.5351C20.4517 29.5351 26.9006 29.8046 28.5962 29.5351C29.9527 29.3195 29.7568 28.5795 29.968 27.1097C29.5549 19.3915 30.3491 18.4662 29.7965 2.18195C29.6822 -1.18666 21.6763 0.349533 20.0043 0.349539Z" fill="#214868"/>
<path fill-rule="evenodd" clip-rule="evenodd" d="M7.44188 15C7.44188 10.5291 11.159 6.90476 15.7442 6.90476C20.3294 6.90476 24.0465 10.5291 24.0465 15C24.0465 19.4708 20.3294 23.0952 15.7442 23.0952C14.1109 23.0952 12.5905 22.6363 11.3078 21.8439C11.0691 21.6964 10.7765 21.657 10.5058 21.7358L7.69356 22.5542L8.75239 20.1383C8.87754 19.8528 8.85208 19.5258 8.68415 19.262C7.89673 18.0247 7.44188 16.5656 7.44188 15ZM15.7442 5C10.0801 5 5.48839 9.47714 5.48839 15C5.48839 16.7505 5.95053 18.3984 6.76268 19.8311L5.0786 23.6733C4.92972 24.013 4.99571 24.406 5.24792 24.6816C5.50012 24.9573 5.89306 25.0659 6.25608 24.9601L10.6509 23.6814C12.1522 24.5204 13.892 25 15.7442 25C21.4083 25 26 20.5228 26 15C26 9.47714 21.4083 5 15.7442 5ZM17.9834 17.0784L16.6997 17.9601C16.0985 17.6262 15.4339 17.1601 14.7671 16.51C14.0741 15.8342 13.5602 15.1365 13.1813 14.4965L13.9971 13.8213C14.3471 13.5316 14.443 13.0432 14.2273 12.6479L13.1879 10.7431C13.0479 10.4866 12.7956 10.3065 12.5025 10.2538C12.2095 10.2012 11.9078 10.2819 11.6833 10.4729L11.3752 10.7352C10.6341 11.3658 10.1958 12.4022 10.5591 13.4515C10.9357 14.5393 11.7394 16.2514 13.3859 17.8568C15.1573 19.5841 16.9566 20.2643 18.0089 20.5284C18.8567 20.7412 19.659 20.456 20.2243 20.0068L20.8021 19.5478C21.0492 19.3515 21.1825 19.0499 21.1593 18.7399C21.1359 18.4299 20.9589 18.1504 20.685 17.9913L19.0458 17.0389C18.7147 16.8466 18.2986 16.8621 17.9834 17.0784Z" fill="#D0D05A"/>
</svg>
