<svg width="30" height="30" viewBox="0 0 30 30" fill="none" xmlns="http://www.w3.org/2000/svg">
<path d="M20.0043 0.349539C18.4814 0.349544 14.2148 0.397222 8.68328 0.711625C6.34621 0.711625 1.47946 -0.455085 0.805846 0.349539C0.132232 1.15416 0.170338 9.06777 0.132233 10.4601C0.0814271 13.9186 0.548458 16.935 0.132233 24.0105C-0.220102 30 0.0706603 30 1.75114 30H10.7989C12.8185 30 16.9461 29.5351 18.6989 29.5351C20.4517 29.5351 26.9006 29.8046 28.5962 29.5351C29.9527 29.3195 29.7568 28.5795 29.968 27.1097C29.5549 19.3915 30.3491 18.4662 29.7965 2.18195C29.6822 -1.18666 21.6763 0.349533 20.0043 0.349539Z" fill="#214868"/>
<path d="M18.1199 8.32003H19.9999V5.14003C19.0896 5.04538 18.175 4.99865 17.2599 5.00003C14.5399 5.00003 12.6799 6.66003 12.6799 9.70003V12.32H9.60986V15.88H12.6799V25H16.3599V15.88H19.4199L19.8799 12.32H16.3599V10.05C16.3599 9.00003 16.6399 8.32003 18.1199 8.32003Z" fill="#D0D05A"/>
</svg>
