<svg width="51" height="50" viewBox="0 0 51 50" fill="none" xmlns="http://www.w3.org/2000/svg">
<path d="M38.7137 3.15631C42.5245 5.23168 45.7097 8.48496 47.8142 12.2992C49.9472 16.0853 51.0279 20.4324 50.9995 24.7794C50.9995 29.0984 49.8903 33.4174 47.7574 37.1755C45.596 40.9336 42.4108 44.1308 38.5999 46.3184C34.7891 48.5059 30.4094 49.6558 25.8307 49.9363C21.2804 50.2167 16.5595 49.5997 12.5495 47.5243C8.56802 45.477 5.26906 41.9433 3.07924 37.9328C0.889411 33.8942 -0.219722 29.3228 0.0362313 24.9196C0.292185 20.5165 1.91323 16.2536 4.10305 12.2431C6.32132 8.23255 9.10837 4.47445 12.8624 2.37103C16.6163 0.26762 21.3088 -0.153062 25.8876 0.0432568C30.4663 0.239576 34.9028 1.10899 38.7137 3.15631Z" fill="white"/>
<path d="M27.374 25.002L19.6889 32.8902C19.4717 33.1138 19.2995 33.3792 19.182 33.6713C19.0645 33.9634 19.004 34.2764 19.004 34.5926C19.004 34.9087 19.0645 35.2218 19.182 35.5138C19.2995 35.8059 19.4717 36.0713 19.6889 36.2949C19.906 36.5184 20.1638 36.6958 20.4475 36.8167C20.7312 36.9377 21.0353 37 21.3423 37C21.6494 37 21.9535 36.9377 22.2372 36.8167C22.5209 36.6958 22.7787 36.5184 22.9958 36.2949L32.3111 26.7044C32.5294 26.4815 32.7027 26.2163 32.8209 25.9241C32.9391 25.6319 33 25.3186 33 25.002C33 24.6855 32.9391 24.3721 32.8209 24.08C32.7027 23.7878 32.5294 23.5226 32.3111 23.2997L22.9958 13.7092C22.7793 13.4845 22.5217 13.3061 22.238 13.1844C21.9542 13.0627 21.6498 13 21.3423 13C21.0349 13 20.7305 13.0627 20.4467 13.1844C20.1629 13.3061 19.9054 13.4845 19.6889 13.7092C19.4706 13.9321 19.2973 14.1973 19.1791 14.4895C19.0609 14.7816 19 15.095 19 15.4115C19 15.728 19.0609 16.0414 19.1791 16.3336C19.2973 16.6258 19.4706 16.891 19.6889 17.1138L27.374 25.002Z" fill="black"/>
</svg>
