<svg width="30" height="30" viewBox="0 0 30 30" fill="none" xmlns="http://www.w3.org/2000/svg">
<path d="M20.0043 0.349539C18.4814 0.349544 14.2148 0.397222 8.68328 0.711625C6.34621 0.711625 1.47946 -0.455085 0.805846 0.349539C0.132232 1.15416 0.170338 9.06777 0.132233 10.4601C0.0814271 13.9186 0.548458 16.935 0.132233 24.0105C-0.220102 30 0.0706603 30 1.75114 30H10.7989C12.8185 30 16.9461 29.5351 18.6989 29.5351C20.4517 29.5351 26.9006 29.8046 28.5962 29.5351C29.9527 29.3195 29.7568 28.5795 29.968 27.1097C29.5549 19.3915 30.3491 18.4662 29.7965 2.18195C29.6822 -1.18666 21.6763 0.349533 20.0043 0.349539Z" fill="#214868"/>
<path d="M25 8.79997C24.2483 9.12606 23.4534 9.34163 22.64 9.43997C23.4982 8.92729 24.1413 8.12075 24.45 7.16997C23.6436 7.65003 22.7608 7.98826 21.84 8.16997C21.2245 7.50254 20.405 7.05826 19.5098 6.90682C18.6147 6.75537 17.6945 6.90532 16.8938 7.33315C16.093 7.76099 15.4569 8.4425 15.0852 9.2708C14.7135 10.0991 14.6273 11.0274 14.84 11.91C13.2094 11.8275 11.6144 11.4029 10.1587 10.6638C8.70287 9.92474 7.41885 8.88766 6.39 7.61997C6.02914 8.25013 5.83952 8.96379 5.84 9.68997C5.83872 10.3643 6.00422 11.0286 6.32176 11.6235C6.63929 12.2185 7.09902 12.7257 7.66 13.1C7.00798 13.0822 6.36989 12.9073 5.8 12.59V12.64C5.80489 13.5849 6.13599 14.4991 6.73731 15.2279C7.33864 15.9568 8.17326 16.4556 9.1 16.64C8.74326 16.7485 8.37287 16.8058 8 16.81C7.74189 16.807 7.48442 16.7835 7.23 16.74C7.49391 17.5528 8.00462 18.2631 8.69107 18.7721C9.37753 19.2811 10.2056 19.5635 11.06 19.58C9.6172 20.7152 7.83588 21.3348 6 21.34C5.66574 21.3411 5.33174 21.321 5 21.28C6.87443 22.4902 9.05881 23.1327 11.29 23.13C12.8297 23.146 14.3571 22.855 15.7831 22.274C17.2091 21.6931 18.505 20.8338 19.5952 19.7465C20.6854 18.6591 21.548 17.3654 22.1326 15.9409C22.7172 14.5164 23.012 12.9897 23 11.45C23 11.28 23 11.1 23 10.92C23.7847 10.3348 24.4615 9.61739 25 8.79997Z" fill="#D0D05A"/>
</svg>
