<svg width="431" height="240" viewBox="0 0 431 240" fill="none" xmlns="http://www.w3.org/2000/svg">
<path d="M287.12 2.79631C265.262 2.79635 204.024 3.17777 124.631 5.693C91.0867 5.693 21.2346 -3.64068 11.5663 2.79631C1.89791 9.23332 2.44485 72.5422 1.89793 83.6811C1.16872 111.349 7.87199 135.48 1.89793 192.084C-3.15911 240 1.01418 240 25.134 240H154.996C183.983 240 243.226 236.281 268.384 236.281C293.542 236.281 386.102 238.436 410.44 236.281C429.91 234.556 427.098 228.636 430.129 216.877C424.2 155.132 435.599 147.729 427.668 17.4556C426.027 -9.49325 311.119 2.79627 287.12 2.79631Z" fill="#D0D05A"/>
</svg>
