<svg width="180" height="179" viewBox="0 0 180 179" fill="none" xmlns="http://www.w3.org/2000/svg">
<path d="M136.127 11.2542C149.527 18.6542 160.727 30.2542 168.127 43.8542C175.627 57.3542 179.427 72.8542 179.327 88.3542C179.327 103.754 175.427 119.154 167.927 132.554C160.327 145.954 149.127 157.354 135.727 165.154C122.327 172.954 106.927 177.054 90.8274 178.054C74.8274 179.054 58.2274 176.854 44.1274 169.454C30.1274 162.154 18.5274 149.554 10.8274 135.254C3.1274 120.854 -0.772601 104.554 0.127399 88.8542C1.0274 73.1542 6.7274 57.9542 14.4274 43.6542C22.2274 29.3542 32.0274 15.9542 45.2274 8.45423C58.4274 0.954233 74.9274 -0.545762 91.0274 0.154238C107.127 0.854238 122.727 3.95424 136.127 11.2542Z" fill="#CC328E"/>
</svg>
