<svg width="172" height="38" viewBox="0 0 172 38" fill="none" xmlns="http://www.w3.org/2000/svg">
<path d="M3.13188 32.7233C1.10107 29.9368 -0.422045 6.84935 3.13188 4.36149C6.68581 1.87363 64.0563 3.36635 94.0108 4.36149C123.965 5.35663 163.566 3.8639 168.643 5.35663C173.72 6.84935 172.248 33.4199 169.405 36.2063C165.851 39.6893 102.642 37.2014 87.6645 36.2063C72.6872 35.2111 5.6704 36.2063 3.13188 32.7233Z" fill="#214868"/>
<path d="M2.13188 29.7233C0.101069 26.9368 -1.42205 3.84935 2.13188 1.36149C5.68581 -1.12637 63.0563 0.366353 93.0108 1.36149C122.965 2.35663 162.566 0.863904 167.643 2.35663C172.72 3.84935 171.248 30.4199 168.405 33.2063C164.851 36.6893 101.642 34.2014 86.6645 33.2063C71.6872 32.2111 4.6704 33.2063 2.13188 29.7233Z" fill="#E43E99"/>
<path d="M24.2275 20.245C23.9775 20.56 23.67 20.8575 23.305 21.1375C22.945 21.4175 22.535 21.6475 22.075 21.8275C21.615 22.0025 21.1125 22.09 20.5675 22.09C19.8725 22.09 19.2575 21.9675 18.7225 21.7225C18.1875 21.4725 17.7375 21.12 17.3725 20.665C17.0075 20.21 16.73 19.675 16.54 19.06C16.355 18.44 16.2625 17.7625 16.2625 17.0275C16.2625 16.0725 16.4275 15.22 16.7575 14.47C17.0875 13.72 17.5675 13.13 18.1975 12.7C18.8275 12.27 19.5975 12.055 20.5075 12.055C21.2475 12.055 21.9325 12.2125 22.5625 12.5275C23.1975 12.8375 23.695 13.305 24.055 13.93C23.92 14.08 23.74 14.2475 23.515 14.4325C23.295 14.6125 23.07 14.7875 22.84 14.9575C22.615 15.1225 22.42 15.2575 22.255 15.3625C22.235 15.3075 22.185 15.215 22.105 15.085C22.03 14.955 21.925 14.8175 21.79 14.6725C21.655 14.5275 21.485 14.405 21.28 14.305C21.075 14.2 20.835 14.1475 20.56 14.1475C20.3 14.1475 20.065 14.2125 19.855 14.3425C19.645 14.4675 19.465 14.65 19.315 14.89C19.165 15.13 19.05 15.415 18.97 15.745C18.89 16.075 18.85 16.4425 18.85 16.8475C18.85 17.2325 18.885 17.595 18.955 17.935C19.025 18.275 19.1275 18.5775 19.2625 18.8425C19.3975 19.1025 19.57 19.305 19.78 19.45C19.995 19.595 20.2425 19.6675 20.5225 19.6675C20.7975 19.6675 21.055 19.6175 21.295 19.5175C21.535 19.4125 21.76 19.275 21.97 19.105C22.18 18.935 22.3725 18.7525 22.5475 18.5575C22.7275 18.6825 22.9275 18.8425 23.1475 19.0375C23.3675 19.2325 23.575 19.4375 23.77 19.6525C23.97 19.8675 24.1225 20.065 24.2275 20.245ZM32.3854 20.6575C32.2454 20.8275 32.0704 20.995 31.8604 21.16C31.6504 21.325 31.3979 21.475 31.1029 21.61C30.8129 21.74 30.4804 21.845 30.1054 21.925C29.7304 22 29.3104 22.0375 28.8454 22.0375C28.0904 22.0375 27.4204 21.895 26.8354 21.61C26.2504 21.32 25.7929 20.8925 25.4629 20.3275C25.1379 19.7575 24.9754 19.05 24.9754 18.205C24.9754 17.36 25.1454 16.625 25.4854 16C25.8254 15.37 26.3004 14.8825 26.9104 14.5375C27.5204 14.1875 28.2329 14.0125 29.0479 14.0125C30.0779 14.0125 30.8879 14.3 31.4779 14.875C32.0729 15.445 32.3829 16.235 32.4079 17.245C32.4129 17.43 32.4104 17.5975 32.4004 17.7475C32.3904 17.8975 32.3704 18.0575 32.3404 18.2275C32.2654 18.2225 32.1054 18.2175 31.8604 18.2125C31.6154 18.2075 31.3379 18.2025 31.0279 18.1975C30.7229 18.1875 30.4329 18.18 30.1579 18.175C29.8879 18.17 29.6879 18.1675 29.5579 18.1675C29.1229 18.1675 28.7004 18.1875 28.2904 18.2275C27.8854 18.2675 27.5454 18.31 27.2704 18.355C27.2704 18.445 27.2754 18.535 27.2854 18.625C27.3004 18.71 27.3204 18.7925 27.3454 18.8725C27.4104 19.0775 27.5229 19.2525 27.6829 19.3975C27.8479 19.5425 28.0429 19.655 28.2679 19.735C28.4979 19.81 28.7404 19.8475 28.9954 19.8475C29.2254 19.8475 29.4354 19.82 29.6254 19.765C29.8204 19.705 29.9979 19.6275 30.1579 19.5325C30.3179 19.4375 30.4629 19.335 30.5929 19.225C30.7279 19.11 30.8529 18.9975 30.9679 18.8875C30.9979 18.9125 31.0754 18.9875 31.2004 19.1125C31.3254 19.2325 31.4654 19.3825 31.6204 19.5625C31.7754 19.7375 31.9229 19.9225 32.0629 20.1175C32.2029 20.3125 32.3104 20.4925 32.3854 20.6575ZM27.3529 16.9525C27.5779 16.9175 27.8554 16.885 28.1854 16.855C28.5154 16.825 28.8979 16.81 29.3329 16.81C29.5679 16.81 29.7754 16.8125 29.9554 16.8175C30.1404 16.8225 30.2704 16.8275 30.3454 16.8325C30.3454 16.7275 30.3304 16.6125 30.3004 16.4875C30.2604 16.3175 30.1804 16.155 30.0604 16C29.9454 15.845 29.7954 15.72 29.6104 15.625C29.4304 15.53 29.2129 15.4825 28.9579 15.4825C28.6379 15.4825 28.3579 15.5525 28.1179 15.6925C27.8829 15.8325 27.7004 16.015 27.5704 16.24C27.4404 16.465 27.3679 16.7025 27.3529 16.9525ZM39.1446 22.39C39.0746 22.24 38.9646 22.0475 38.8146 21.8125C38.6696 21.5725 38.5021 21.32 38.3121 21.055C38.1271 20.785 37.9321 20.5225 37.7271 20.2675C37.5271 20.0125 37.3346 19.79 37.1496 19.6C36.9646 19.405 36.8046 19.2675 36.6696 19.1875C36.5996 19.2325 36.5121 19.2975 36.4071 19.3825C36.3021 19.4625 36.2046 19.54 36.1146 19.615C36.0246 19.69 35.9621 19.745 35.9271 19.78C35.9221 19.995 35.9146 20.22 35.9046 20.455C35.8946 20.69 35.8846 20.92 35.8746 21.145C35.8646 21.365 35.8521 21.5675 35.8371 21.7525C35.8271 21.9325 35.8171 22.075 35.8071 22.18C35.6221 22.2 35.4371 22.215 35.2521 22.225C35.0671 22.235 34.8821 22.24 34.6971 22.24C34.4571 22.24 34.2296 22.23 34.0146 22.21C33.7996 22.195 33.6121 22.18 33.4521 22.165C33.4571 22.045 33.4696 21.7825 33.4896 21.3775C33.5146 20.9675 33.5396 20.465 33.5646 19.87C33.5946 19.27 33.6246 18.62 33.6546 17.92C33.6896 17.215 33.7221 16.5075 33.7521 15.7975C33.7871 15.0825 33.8171 14.41 33.8421 13.78C33.8721 13.145 33.8946 12.5975 33.9096 12.1375C33.9246 11.6725 33.9321 11.3425 33.9321 11.1475C34.0921 11.1325 34.2571 11.12 34.4271 11.11C34.5971 11.1 34.7646 11.095 34.9296 11.095C35.1646 11.095 35.3921 11.1075 35.6121 11.1325C35.8371 11.1575 36.0446 11.1975 36.2346 11.2525C36.2346 11.6425 36.2296 12.07 36.2196 12.535C36.2146 13 36.2021 13.4725 36.1821 13.9525C36.1671 14.4325 36.1496 14.89 36.1296 15.325C36.1096 15.76 36.0896 16.1475 36.0696 16.4875C36.0546 16.8225 36.0396 17.0775 36.0246 17.2525C36.2796 16.9875 36.5771 16.7175 36.9171 16.4425C37.2571 16.1675 37.6096 15.9025 37.9746 15.6475C38.3396 15.3875 38.6921 15.145 39.0321 14.92C39.3771 14.69 39.6771 14.49 39.9321 14.32C40.0121 14.395 40.1121 14.5075 40.2321 14.6575C40.3521 14.8025 40.4746 14.965 40.5996 15.145C40.7296 15.32 40.8496 15.49 40.9596 15.655C41.0696 15.82 41.1571 15.9575 41.2221 16.0675C41.0221 16.1925 40.7871 16.3425 40.5171 16.5175C40.2471 16.6875 39.9696 16.865 39.6846 17.05C39.4046 17.235 39.1446 17.41 38.9046 17.575C38.6646 17.74 38.4771 17.8725 38.3421 17.9725C38.4721 18.0575 38.6296 18.1875 38.8146 18.3625C38.9996 18.5375 39.1996 18.7425 39.4146 18.9775C39.6346 19.2125 39.8571 19.47 40.0821 19.75C40.3071 20.025 40.5296 20.315 40.7496 20.62C40.9696 20.92 41.1696 21.2225 41.3496 21.5275C41.2746 21.5725 41.1396 21.6375 40.9446 21.7225C40.7496 21.8025 40.5321 21.89 40.2921 21.985C40.0521 22.08 39.8271 22.165 39.6171 22.24C39.4071 22.315 39.2496 22.365 39.1446 22.39ZM52.3033 22.0975C51.8133 22.0675 51.3283 22.0375 50.8483 22.0075C50.3683 21.9825 49.8808 21.9625 49.3858 21.9475C48.9858 21.9275 48.5783 21.9075 48.1633 21.8875C47.7483 21.8625 47.3383 21.84 46.9333 21.82C46.8983 20.98 46.8733 20.165 46.8583 19.375C46.8483 18.58 46.8433 17.835 46.8433 17.14C46.8433 16.025 46.8533 15.0775 46.8733 14.2975C46.8933 13.5175 46.9133 12.9575 46.9333 12.6175C47.8783 12.4425 48.7533 12.315 49.5583 12.235C50.3633 12.15 51.0358 12.0975 51.5758 12.0775C52.1208 12.0575 52.4608 12.0475 52.5958 12.0475C52.5958 12.3725 52.5858 12.6925 52.5658 13.0075C52.5458 13.3175 52.5208 13.645 52.4908 13.99L49.2808 14.2525C49.2758 14.3175 49.2708 14.42 49.2658 14.56C49.2608 14.695 49.2558 14.845 49.2508 15.01C49.2508 15.17 49.2508 15.32 49.2508 15.46C49.2508 15.6 49.2508 15.7025 49.2508 15.7675C49.3658 15.7675 49.5133 15.7675 49.6933 15.7675C49.8783 15.7625 50.0783 15.7575 50.2933 15.7525C50.5133 15.7475 50.7333 15.7425 50.9533 15.7375C51.1733 15.7325 51.3783 15.73 51.5683 15.73C51.7633 15.725 51.9283 15.72 52.0633 15.715L52.0333 17.77C51.9683 17.77 51.8408 17.7675 51.6508 17.7625C51.4608 17.7525 51.2408 17.7425 50.9908 17.7325C50.7458 17.7225 50.4983 17.715 50.2483 17.71C49.9983 17.7 49.7783 17.6925 49.5883 17.6875C49.3983 17.6825 49.2683 17.6825 49.1983 17.6875C49.1933 17.7375 49.1883 17.8225 49.1833 17.9425C49.1833 18.0575 49.1808 18.19 49.1758 18.34C49.1758 18.485 49.1758 18.6375 49.1758 18.7975C49.1758 18.9525 49.1733 19.0975 49.1683 19.2325C49.1683 19.3625 49.1683 19.4675 49.1683 19.5475C49.2333 19.5475 49.4083 19.5475 49.6933 19.5475C49.9783 19.5425 50.2708 19.54 50.5708 19.54C50.8208 19.54 51.0708 19.545 51.3208 19.555C51.5708 19.565 51.8033 19.5775 52.0183 19.5925C52.2333 19.6025 52.4083 19.6125 52.5433 19.6225C52.5433 19.8225 52.5333 20.0525 52.5133 20.3125C52.4933 20.5675 52.4708 20.82 52.4458 21.07C52.4258 21.32 52.4008 21.54 52.3708 21.73C52.3458 21.915 52.3233 22.0375 52.3033 22.0975ZM58.4835 13.8175C58.8385 13.8775 59.171 13.9475 59.481 14.0275C59.791 14.1075 60.0485 14.1775 60.2535 14.2375C60.4635 14.2975 60.591 14.3375 60.636 14.3575C60.536 14.7575 60.416 15.205 60.276 15.7C60.141 16.19 59.9885 16.705 59.8185 17.245C59.6535 17.78 59.4785 18.32 59.2935 18.865C59.1085 19.405 58.9185 19.9325 58.7235 20.4475C58.5335 20.9575 58.346 21.4275 58.161 21.8575C57.896 21.9025 57.571 21.925 57.186 21.925C56.996 21.925 56.811 21.9175 56.631 21.9025C56.456 21.8875 56.306 21.8725 56.181 21.8575C55.921 21.3125 55.6685 20.74 55.4235 20.14C55.1785 19.535 54.941 18.9125 54.711 18.2725C54.481 17.6325 54.2585 16.98 54.0435 16.315C53.8285 15.645 53.6185 14.975 53.4135 14.305C53.4885 14.29 53.611 14.265 53.781 14.23C53.956 14.19 54.146 14.145 54.351 14.095C54.561 14.045 54.766 13.995 54.966 13.945C55.166 13.89 55.331 13.845 55.461 13.81C55.536 14.11 55.6335 14.465 55.7535 14.875C55.8735 15.28 56.0035 15.705 56.1435 16.15C56.2885 16.59 56.431 17.0175 56.571 17.4325C56.711 17.8425 56.836 18.2075 56.946 18.5275C57.061 18.8475 57.1485 19.085 57.2085 19.24L57.1185 19.2775C57.2085 18.9925 57.301 18.695 57.396 18.385C57.491 18.07 57.586 17.74 57.681 17.395C57.776 17.045 57.8685 16.68 57.9585 16.3C58.0535 15.92 58.1435 15.5225 58.2285 15.1075C58.3185 14.6925 58.4035 14.2625 58.4835 13.8175ZM68.7721 20.6575C68.6321 20.8275 68.4571 20.995 68.2471 21.16C68.0371 21.325 67.7846 21.475 67.4896 21.61C67.1996 21.74 66.8671 21.845 66.4921 21.925C66.1171 22 65.6971 22.0375 65.2321 22.0375C64.4771 22.0375 63.8071 21.895 63.2221 21.61C62.6371 21.32 62.1796 20.8925 61.8496 20.3275C61.5246 19.7575 61.3621 19.05 61.3621 18.205C61.3621 17.36 61.5321 16.625 61.8721 16C62.2121 15.37 62.6871 14.8825 63.2971 14.5375C63.9071 14.1875 64.6196 14.0125 65.4346 14.0125C66.4646 14.0125 67.2746 14.3 67.8646 14.875C68.4596 15.445 68.7696 16.235 68.7946 17.245C68.7996 17.43 68.7971 17.5975 68.7871 17.7475C68.7771 17.8975 68.7571 18.0575 68.7271 18.2275C68.6521 18.2225 68.4921 18.2175 68.2471 18.2125C68.0021 18.2075 67.7246 18.2025 67.4146 18.1975C67.1096 18.1875 66.8196 18.18 66.5446 18.175C66.2746 18.17 66.0746 18.1675 65.9446 18.1675C65.5096 18.1675 65.0871 18.1875 64.6771 18.2275C64.2721 18.2675 63.9321 18.31 63.6571 18.355C63.6571 18.445 63.6621 18.535 63.6721 18.625C63.6871 18.71 63.7071 18.7925 63.7321 18.8725C63.7971 19.0775 63.9096 19.2525 64.0696 19.3975C64.2346 19.5425 64.4296 19.655 64.6546 19.735C64.8846 19.81 65.1271 19.8475 65.3821 19.8475C65.6121 19.8475 65.8221 19.82 66.0121 19.765C66.2071 19.705 66.3846 19.6275 66.5446 19.5325C66.7046 19.4375 66.8496 19.335 66.9796 19.225C67.1146 19.11 67.2396 18.9975 67.3546 18.8875C67.3846 18.9125 67.4621 18.9875 67.5871 19.1125C67.7121 19.2325 67.8521 19.3825 68.0071 19.5625C68.1621 19.7375 68.3096 19.9225 68.4496 20.1175C68.5896 20.3125 68.6971 20.4925 68.7721 20.6575ZM63.7396 16.9525C63.9646 16.9175 64.2421 16.885 64.5721 16.855C64.9021 16.825 65.2846 16.81 65.7196 16.81C65.9546 16.81 66.1621 16.8125 66.3421 16.8175C66.5271 16.8225 66.6571 16.8275 66.7321 16.8325C66.7321 16.7275 66.7171 16.6125 66.6871 16.4875C66.6471 16.3175 66.5671 16.155 66.4471 16C66.3321 15.845 66.1821 15.72 65.9971 15.625C65.8171 15.53 65.5996 15.4825 65.3446 15.4825C65.0246 15.4825 64.7446 15.5525 64.5046 15.6925C64.2696 15.8325 64.0871 16.015 63.9571 16.24C63.8271 16.465 63.7546 16.7025 63.7396 16.9525ZM72.3289 22.0975C72.1789 22.1025 71.9939 22.1025 71.7739 22.0975C71.5539 22.0975 71.3289 22.095 71.0989 22.09C70.9139 22.085 70.7014 22.0775 70.4614 22.0675C70.2214 22.0575 70.0539 22.0475 69.9589 22.0375C70.0039 21.6175 70.0414 21.1425 70.0714 20.6125C70.1064 20.0825 70.1339 19.495 70.1539 18.85C70.1739 18.205 70.1889 17.5 70.1989 16.735C70.2089 15.97 70.2139 15.1425 70.2139 14.2525C70.4039 14.2275 70.6289 14.2075 70.8889 14.1925C71.1489 14.1775 71.4114 14.17 71.6764 14.17C71.8614 14.17 72.0389 14.175 72.2089 14.185C72.3839 14.19 72.5389 14.205 72.6739 14.23C72.6739 14.275 72.6739 14.3675 72.6739 14.5075C72.6789 14.6425 72.6789 14.7925 72.6739 14.9575C72.6739 15.1175 72.6714 15.2625 72.6664 15.3925C72.7964 15.2025 73.0089 15.005 73.3039 14.8C73.5989 14.59 73.9414 14.4125 74.3314 14.2675C74.7214 14.1225 75.1239 14.05 75.5389 14.05C76.3039 14.05 76.8889 14.205 77.2939 14.515C77.6989 14.82 77.9764 15.28 78.1264 15.895C78.2764 16.505 78.3514 17.27 78.3514 18.19C78.3514 18.51 78.3414 18.885 78.3214 19.315C78.3064 19.74 78.2814 20.1875 78.2464 20.6575C78.2114 21.1275 78.1664 21.5825 78.1114 22.0225C78.0114 22.0325 77.8514 22.04 77.6314 22.045C77.4164 22.055 77.1889 22.06 76.9489 22.06C76.6939 22.06 76.4514 22.055 76.2214 22.045C75.9914 22.04 75.8214 22.0325 75.7114 22.0225C75.7664 21.7425 75.8264 21.3925 75.8914 20.9725C75.9564 20.5525 76.0114 20.105 76.0564 19.63C76.1014 19.15 76.1239 18.6925 76.1239 18.2575C76.1239 17.8375 76.0889 17.4725 76.0189 17.1625C75.9539 16.8525 75.8264 16.6125 75.6364 16.4425C75.4514 16.2675 75.1764 16.18 74.8114 16.18C74.5114 16.18 74.2239 16.2325 73.9489 16.3375C73.6739 16.4425 73.4239 16.5725 73.1989 16.7275C72.9739 16.8775 72.7814 17.025 72.6214 17.17C72.6164 17.96 72.5964 18.675 72.5614 19.315C72.5264 19.95 72.4889 20.5025 72.4489 20.9725C72.4089 21.4375 72.3689 21.8125 72.3289 22.0975ZM85.4624 21.0175C85.3674 21.2025 85.2174 21.4 85.0124 21.61C84.8124 21.815 84.5499 21.99 84.2249 22.135C83.9049 22.285 83.5149 22.36 83.0549 22.36C82.4499 22.36 81.9549 22.2325 81.5699 21.9775C81.1899 21.7225 80.9074 21.3825 80.7224 20.9575C80.5424 20.5325 80.4524 20.0675 80.4524 19.5625C80.4524 19.2875 80.4549 18.995 80.4599 18.685C80.4699 18.37 80.4799 18.06 80.4899 17.755C80.4999 17.445 80.5099 17.1525 80.5199 16.8775C80.5349 16.5975 80.5474 16.3525 80.5574 16.1425C80.5724 15.9325 80.5824 15.77 80.5874 15.655C80.1924 15.695 79.8274 15.74 79.4924 15.79C79.1574 15.835 78.9249 15.8725 78.7949 15.9025C78.7449 15.6225 78.7074 15.3375 78.6824 15.0475C78.6574 14.7575 78.6374 14.505 78.6224 14.29C78.6124 14.075 78.6074 13.9425 78.6074 13.8925C78.8974 13.8525 79.2074 13.8175 79.5374 13.7875C79.8674 13.7525 80.2149 13.7275 80.5799 13.7125C80.5749 13.5925 80.5699 13.405 80.5649 13.15C80.5599 12.895 80.5524 12.665 80.5424 12.46C80.5374 12.275 80.5274 12.09 80.5124 11.905C80.4974 11.715 80.4849 11.5625 80.4749 11.4475L82.6949 11.2525C82.6949 11.3125 82.6949 11.4525 82.6949 11.6725C82.6999 11.8925 82.7024 12.1575 82.7024 12.4675C82.7024 12.6225 82.7049 12.8025 82.7099 13.0075C82.7149 13.2075 82.7199 13.405 82.7249 13.6C82.8899 13.59 83.0824 13.58 83.3024 13.57C83.5224 13.56 83.6974 13.5525 83.8274 13.5475C84.0374 13.5375 84.2274 13.5325 84.3974 13.5325C84.5674 13.5275 84.7074 13.525 84.8174 13.525C84.9324 13.525 85.0099 13.5275 85.0499 13.5325C85.0799 13.7675 85.0999 14.0675 85.1099 14.4325C85.1199 14.7925 85.1249 15.1125 85.1249 15.3925C85.0749 15.3875 84.9124 15.39 84.6374 15.4C84.3624 15.405 84.0924 15.415 83.8274 15.43C83.6424 15.435 83.4374 15.445 83.2124 15.46C82.9874 15.475 82.8099 15.49 82.6799 15.505C82.6749 15.61 82.6674 15.755 82.6574 15.94C82.6524 16.12 82.6449 16.325 82.6349 16.555C82.6299 16.78 82.6224 17.015 82.6124 17.26C82.6074 17.5 82.6024 17.7325 82.5974 17.9575C82.5924 18.1825 82.5899 18.3825 82.5899 18.5575C82.5899 18.8875 82.6049 19.185 82.6349 19.45C82.6699 19.71 82.7424 19.9175 82.8524 20.0725C82.9674 20.2225 83.1424 20.2975 83.3774 20.2975C83.5324 20.2975 83.6649 20.2525 83.7749 20.1625C83.8849 20.0725 83.9749 19.9675 84.0449 19.8475C84.1199 19.7225 84.1849 19.6125 84.2399 19.5175C84.3049 19.6075 84.3949 19.7275 84.5099 19.8775C84.6299 20.0225 84.7549 20.175 84.8849 20.335C85.0199 20.495 85.1399 20.6375 85.2449 20.7625C85.3549 20.8875 85.4274 20.9725 85.4624 21.0175ZM91.193 21.82C91.208 21.545 91.223 21.1725 91.238 20.7025C91.253 20.2275 91.2655 19.695 91.2755 19.105C91.2855 18.51 91.2905 17.8975 91.2905 17.2675C91.2905 16.6375 91.2855 16.015 91.2755 15.4C91.2655 14.78 91.253 14.2075 91.238 13.6825C91.223 13.1575 91.208 12.7175 91.193 12.3625C91.338 12.3425 91.5655 12.32 91.8755 12.295C92.1855 12.27 92.508 12.2575 92.843 12.2575C93.003 12.2575 93.1905 12.2625 93.4055 12.2725C93.6205 12.2825 93.7655 12.295 93.8405 12.31C93.8505 12.57 93.853 12.9 93.848 13.3C93.848 13.7 93.8405 14.1475 93.8255 14.6425C93.8155 15.1375 93.8005 15.6625 93.7805 16.2175C93.7605 16.7675 93.738 17.32 93.713 17.875C93.698 18.17 93.6805 18.4575 93.6605 18.7375C93.6455 19.0125 93.628 19.2475 93.608 19.4425C94.003 19.4175 94.393 19.3975 94.778 19.3825C95.163 19.3675 95.548 19.355 95.933 19.345C96.323 19.335 96.713 19.33 97.103 19.33C97.123 19.46 97.1405 19.665 97.1555 19.945C97.1705 20.225 97.183 20.525 97.193 20.845C97.203 21.16 97.208 21.435 97.208 21.67C96.608 21.75 96.0005 21.81 95.3855 21.85C94.7755 21.885 94.1955 21.905 93.6455 21.91C93.1905 21.915 92.7505 21.91 92.3255 21.895C91.9055 21.875 91.528 21.85 91.193 21.82ZM101.49 22.1275C100.875 22.1275 100.313 22.045 99.8025 21.88C99.2925 21.71 98.885 21.4375 98.58 21.0625C98.28 20.6825 98.13 20.18 98.13 19.555C98.13 18.93 98.305 18.4275 98.655 18.0475C99.01 17.6625 99.475 17.385 100.05 17.215C100.63 17.04 101.253 16.9525 101.918 16.9525C102.178 16.9525 102.428 16.9725 102.668 17.0125C102.908 17.0525 103.118 17.1 103.298 17.155C103.483 17.21 103.615 17.2625 103.695 17.3125C103.69 17.1825 103.663 17.045 103.613 16.9C103.568 16.755 103.503 16.6325 103.418 16.5325C103.268 16.3275 103.063 16.1575 102.803 16.0225C102.548 15.8825 102.21 15.8125 101.79 15.8125C101.365 15.8125 100.99 15.91 100.665 16.105C100.34 16.295 100.093 16.51 99.9225 16.75L98.0925 15.5725C98.3175 15.2525 98.62 14.9725 99 14.7325C99.385 14.4925 99.82 14.305 100.305 14.17C100.795 14.035 101.308 13.9675 101.843 13.9675C102.728 13.9675 103.445 14.1125 103.995 14.4025C104.545 14.6925 104.953 15.0975 105.218 15.6175C105.343 15.8675 105.445 16.1425 105.525 16.4425C105.605 16.7425 105.66 17.0875 105.69 17.4775C105.71 17.8125 105.725 18.125 105.735 18.415C105.745 18.705 105.755 18.98 105.765 19.24C105.775 19.62 105.818 19.8675 105.893 19.9825C105.968 20.0975 106.075 20.155 106.215 20.155C106.345 20.155 106.46 20.12 106.56 20.05C106.665 19.975 106.733 19.8775 106.763 19.7575L107.543 21.25C107.488 21.48 107.333 21.6725 107.078 21.8275C106.823 21.9825 106.5 22.06 106.11 22.06C105.825 22.06 105.555 22.0125 105.3 21.9175C105.045 21.8175 104.835 21.685 104.67 21.52C104.505 21.35 104.408 21.1575 104.378 20.9425C104.298 21.1325 104.13 21.32 103.875 21.505C103.62 21.685 103.293 21.835 102.893 21.955C102.493 22.07 102.025 22.1275 101.49 22.1275ZM101.993 20.365C102.228 20.365 102.468 20.33 102.713 20.26C102.963 20.185 103.188 20.0925 103.388 19.9825C103.593 19.8725 103.75 19.76 103.86 19.645C103.85 19.49 103.84 19.33 103.83 19.165C103.825 19 103.825 18.86 103.83 18.745C103.72 18.7 103.51 18.6525 103.2 18.6025C102.895 18.5475 102.575 18.52 102.24 18.52C101.935 18.52 101.65 18.5525 101.385 18.6175C101.12 18.6825 100.903 18.7825 100.733 18.9175C100.568 19.0525 100.485 19.2275 100.485 19.4425C100.485 19.6725 100.548 19.855 100.673 19.99C100.798 20.125 100.973 20.2225 101.198 20.2825C101.423 20.3375 101.688 20.365 101.993 20.365ZM110.594 21.985C110.509 21.99 110.347 22 110.107 22.015C109.872 22.035 109.622 22.045 109.357 22.045C109.162 22.045 108.964 22.0375 108.764 22.0225C108.569 22.0125 108.377 21.9975 108.187 21.9775C108.212 21.8475 108.239 21.5825 108.269 21.1825C108.304 20.7775 108.337 20.3025 108.367 19.7575C108.402 19.2125 108.434 18.65 108.464 18.07C108.499 17.485 108.524 16.9375 108.539 16.4275C108.559 15.9175 108.569 15.5075 108.569 15.1975C108.669 15.1925 108.817 15.185 109.012 15.175C109.207 15.165 109.417 15.1575 109.642 15.1525C109.867 15.1425 110.082 15.135 110.287 15.13C110.492 15.12 110.654 15.115 110.774 15.115C110.799 15.27 110.819 15.52 110.834 15.865C110.849 16.21 110.857 16.595 110.857 17.02C110.857 17.475 110.849 17.9575 110.834 18.4675C110.824 18.9775 110.807 19.4725 110.782 19.9525C110.762 20.4275 110.734 20.8475 110.699 21.2125C110.664 21.5725 110.629 21.83 110.594 21.985ZM109.754 14.1475C109.304 14.1475 108.927 14.0175 108.622 13.7575C108.317 13.4925 108.164 13.145 108.164 12.715C108.164 12.42 108.237 12.1675 108.382 11.9575C108.527 11.7475 108.714 11.5875 108.944 11.4775C109.179 11.3625 109.427 11.305 109.687 11.305C110.102 11.305 110.444 11.44 110.714 11.71C110.989 11.98 111.127 12.3275 111.127 12.7525C111.127 13.1475 110.997 13.48 110.737 13.75C110.477 14.015 110.149 14.1475 109.754 14.1475ZM115.176 22.0975C115.026 22.1025 114.841 22.1025 114.621 22.0975C114.401 22.0975 114.176 22.095 113.946 22.09C113.761 22.085 113.548 22.0775 113.308 22.0675C113.068 22.0575 112.901 22.0475 112.806 22.0375C112.851 21.6175 112.888 21.1425 112.918 20.6125C112.953 20.0825 112.981 19.495 113.001 18.85C113.021 18.205 113.036 17.5 113.046 16.735C113.056 15.97 113.061 15.1425 113.061 14.2525C113.251 14.2275 113.476 14.2075 113.736 14.1925C113.996 14.1775 114.258 14.17 114.523 14.17C114.708 14.17 114.886 14.175 115.056 14.185C115.231 14.19 115.386 14.205 115.521 14.23C115.521 14.275 115.521 14.3675 115.521 14.5075C115.526 14.6425 115.526 14.7925 115.521 14.9575C115.521 15.1175 115.518 15.2625 115.513 15.3925C115.643 15.2025 115.856 15.005 116.151 14.8C116.446 14.59 116.788 14.4125 117.178 14.2675C117.568 14.1225 117.971 14.05 118.386 14.05C119.151 14.05 119.736 14.205 120.141 14.515C120.546 14.82 120.823 15.28 120.973 15.895C121.123 16.505 121.198 17.27 121.198 18.19C121.198 18.51 121.188 18.885 121.168 19.315C121.153 19.74 121.128 20.1875 121.093 20.6575C121.058 21.1275 121.013 21.5825 120.958 22.0225C120.858 22.0325 120.698 22.04 120.478 22.045C120.263 22.055 120.036 22.06 119.796 22.06C119.541 22.06 119.298 22.055 119.068 22.045C118.838 22.04 118.668 22.0325 118.558 22.0225C118.613 21.7425 118.673 21.3925 118.738 20.9725C118.803 20.5525 118.858 20.105 118.903 19.63C118.948 19.15 118.971 18.6925 118.971 18.2575C118.971 17.8375 118.936 17.4725 118.866 17.1625C118.801 16.8525 118.673 16.6125 118.483 16.4425C118.298 16.2675 118.023 16.18 117.658 16.18C117.358 16.18 117.071 16.2325 116.796 16.3375C116.521 16.4425 116.271 16.5725 116.046 16.7275C115.821 16.8775 115.628 17.025 115.468 17.17C115.463 17.96 115.443 18.675 115.408 19.315C115.373 19.95 115.336 20.5025 115.296 20.9725C115.256 21.4375 115.216 21.8125 115.176 22.0975ZM125.151 22.0975C125.001 22.1025 124.816 22.1025 124.596 22.0975C124.376 22.0975 124.151 22.095 123.921 22.09C123.736 22.085 123.524 22.0775 123.284 22.0675C123.044 22.0575 122.876 22.0475 122.781 22.0375C122.826 21.6175 122.864 21.1425 122.894 20.6125C122.929 20.0825 122.956 19.495 122.976 18.85C122.996 18.205 123.011 17.5 123.021 16.735C123.031 15.97 123.036 15.1425 123.036 14.2525C123.226 14.2275 123.451 14.2075 123.711 14.1925C123.971 14.1775 124.234 14.17 124.499 14.17C124.684 14.17 124.861 14.175 125.031 14.185C125.206 14.19 125.361 14.205 125.496 14.23C125.496 14.275 125.496 14.3675 125.496 14.5075C125.501 14.6425 125.501 14.7925 125.496 14.9575C125.496 15.1175 125.494 15.2625 125.489 15.3925C125.619 15.2025 125.831 15.005 126.126 14.8C126.421 14.59 126.764 14.4125 127.154 14.2675C127.544 14.1225 127.946 14.05 128.361 14.05C129.126 14.05 129.711 14.205 130.116 14.515C130.521 14.82 130.799 15.28 130.949 15.895C131.099 16.505 131.174 17.27 131.174 18.19C131.174 18.51 131.164 18.885 131.144 19.315C131.129 19.74 131.104 20.1875 131.069 20.6575C131.034 21.1275 130.989 21.5825 130.934 22.0225C130.834 22.0325 130.674 22.04 130.454 22.045C130.239 22.055 130.011 22.06 129.771 22.06C129.516 22.06 129.274 22.055 129.044 22.045C128.814 22.04 128.644 22.0325 128.534 22.0225C128.589 21.7425 128.649 21.3925 128.714 20.9725C128.779 20.5525 128.834 20.105 128.879 19.63C128.924 19.15 128.946 18.6925 128.946 18.2575C128.946 17.8375 128.911 17.4725 128.841 17.1625C128.776 16.8525 128.649 16.6125 128.459 16.4425C128.274 16.2675 127.999 16.18 127.634 16.18C127.334 16.18 127.046 16.2325 126.771 16.3375C126.496 16.4425 126.246 16.5725 126.021 16.7275C125.796 16.8775 125.604 17.025 125.444 17.17C125.439 17.96 125.419 18.675 125.384 19.315C125.349 19.95 125.311 20.5025 125.271 20.9725C125.231 21.4375 125.191 21.8125 125.151 22.0975ZM135.682 25.9525C134.917 25.9525 134.232 25.8375 133.627 25.6075C133.022 25.3775 132.525 25.1325 132.135 24.8725C132.195 24.7075 132.287 24.495 132.412 24.235C132.542 23.98 132.675 23.73 132.81 23.485C132.945 23.245 133.055 23.065 133.14 22.945C133.315 23.06 133.542 23.1875 133.822 23.3275C134.107 23.4675 134.417 23.59 134.752 23.695C135.087 23.8 135.422 23.8525 135.757 23.8525C136.122 23.8525 136.427 23.7575 136.672 23.5675C136.922 23.3775 137.125 23.125 137.28 22.81C137.435 22.495 137.547 22.1475 137.617 21.7675C137.692 21.3875 137.732 21.005 137.737 20.62C137.627 20.81 137.475 20.99 137.28 21.16C137.085 21.325 136.857 21.46 136.597 21.565C136.342 21.665 136.057 21.715 135.742 21.715C134.977 21.715 134.38 21.5075 133.95 21.0925C133.525 20.6725 133.227 20.105 133.057 19.39C132.892 18.675 132.81 17.875 132.81 16.99C132.81 16.645 132.817 16.285 132.832 15.91C132.847 15.535 132.865 15.145 132.885 14.74C132.97 14.715 133.097 14.7 133.267 14.695C133.437 14.685 133.622 14.68 133.822 14.68C134.097 14.68 134.367 14.6875 134.632 14.7025C134.897 14.7175 135.077 14.735 135.172 14.755C135.157 14.84 135.135 14.995 135.105 15.22C135.075 15.445 135.047 15.7125 135.022 16.0225C135.002 16.3325 134.992 16.65 134.992 16.975C134.992 17.29 135.007 17.6025 135.037 17.9125C135.067 18.2175 135.12 18.495 135.195 18.745C135.275 18.995 135.387 19.195 135.532 19.345C135.677 19.495 135.862 19.57 136.087 19.57C136.432 19.57 136.712 19.445 136.927 19.195C137.142 18.945 137.302 18.595 137.407 18.145C137.517 17.695 137.582 17.1725 137.602 16.5775C137.607 16.3875 137.612 16.2 137.617 16.015C137.622 15.825 137.625 15.6475 137.625 15.4825C137.625 15.3175 137.622 15.1775 137.617 15.0625C137.617 14.9425 137.615 14.8625 137.61 14.8225C137.73 14.8125 137.847 14.805 137.962 14.8C138.077 14.79 138.192 14.785 138.307 14.785C138.767 14.785 139.222 14.835 139.672 14.935C139.697 15.5 139.71 16.145 139.71 16.87C139.71 17.33 139.705 17.8225 139.695 18.3475C139.685 18.8675 139.667 19.4 139.642 19.945C139.622 20.49 139.597 21.035 139.567 21.58C139.522 22.435 139.352 23.19 139.057 23.845C138.767 24.505 138.342 25.02 137.782 25.39C137.222 25.765 136.522 25.9525 135.682 25.9525ZM144.278 22.1275C143.663 22.1275 143.101 22.045 142.591 21.88C142.081 21.71 141.673 21.4375 141.368 21.0625C141.068 20.6825 140.918 20.18 140.918 19.555C140.918 18.93 141.093 18.4275 141.443 18.0475C141.798 17.6625 142.263 17.385 142.838 17.215C143.418 17.04 144.041 16.9525 144.706 16.9525C144.966 16.9525 145.216 16.9725 145.456 17.0125C145.696 17.0525 145.906 17.1 146.086 17.155C146.271 17.21 146.403 17.2625 146.483 17.3125C146.478 17.1825 146.451 17.045 146.401 16.9C146.356 16.755 146.291 16.6325 146.206 16.5325C146.056 16.3275 145.851 16.1575 145.591 16.0225C145.336 15.8825 144.998 15.8125 144.578 15.8125C144.153 15.8125 143.778 15.91 143.453 16.105C143.128 16.295 142.881 16.51 142.711 16.75L140.881 15.5725C141.106 15.2525 141.408 14.9725 141.788 14.7325C142.173 14.4925 142.608 14.305 143.093 14.17C143.583 14.035 144.096 13.9675 144.631 13.9675C145.516 13.9675 146.233 14.1125 146.783 14.4025C147.333 14.6925 147.741 15.0975 148.006 15.6175C148.131 15.8675 148.233 16.1425 148.313 16.4425C148.393 16.7425 148.448 17.0875 148.478 17.4775C148.498 17.8125 148.513 18.125 148.523 18.415C148.533 18.705 148.543 18.98 148.553 19.24C148.563 19.62 148.606 19.8675 148.681 19.9825C148.756 20.0975 148.863 20.155 149.003 20.155C149.133 20.155 149.248 20.12 149.348 20.05C149.453 19.975 149.521 19.8775 149.551 19.7575L150.331 21.25C150.276 21.48 150.121 21.6725 149.866 21.8275C149.611 21.9825 149.288 22.06 148.898 22.06C148.613 22.06 148.343 22.0125 148.088 21.9175C147.833 21.8175 147.623 21.685 147.458 21.52C147.293 21.35 147.196 21.1575 147.166 20.9425C147.086 21.1325 146.918 21.32 146.663 21.505C146.408 21.685 146.081 21.835 145.681 21.955C145.281 22.07 144.813 22.1275 144.278 22.1275ZM144.781 20.365C145.016 20.365 145.256 20.33 145.501 20.26C145.751 20.185 145.976 20.0925 146.176 19.9825C146.381 19.8725 146.538 19.76 146.648 19.645C146.638 19.49 146.628 19.33 146.618 19.165C146.613 19 146.613 18.86 146.618 18.745C146.508 18.7 146.298 18.6525 145.988 18.6025C145.683 18.5475 145.363 18.52 145.028 18.52C144.723 18.52 144.438 18.5525 144.173 18.6175C143.908 18.6825 143.691 18.7825 143.521 18.9175C143.356 19.0525 143.273 19.2275 143.273 19.4425C143.273 19.6725 143.336 19.855 143.461 19.99C143.586 20.125 143.761 20.2225 143.986 20.2825C144.211 20.3375 144.476 20.365 144.781 20.365ZM153.51 18.7225C153.365 18.7225 153.163 18.72 152.903 18.715C152.643 18.705 152.38 18.6925 152.115 18.6775C151.855 18.6575 151.643 18.6375 151.478 18.6175C151.448 18.1475 151.42 17.6525 151.395 17.1325C151.37 16.6075 151.348 16.0775 151.328 15.5425C151.313 15.0025 151.3 14.465 151.29 13.93C151.28 13.395 151.273 12.8775 151.268 12.3775C151.268 11.8725 151.273 11.3975 151.283 10.9525L154.05 11.0725C154.025 11.2725 153.993 11.605 153.953 12.07C153.913 12.53 153.868 13.06 153.818 13.66C153.773 14.26 153.728 14.8775 153.683 15.5125C153.643 16.1475 153.605 16.7475 153.57 17.3125C153.54 17.8725 153.52 18.3425 153.51 18.7225ZM152.588 22.195C152.128 22.195 151.743 22.055 151.433 21.775C151.128 21.495 150.975 21.1375 150.975 20.7025C150.975 20.2725 151.13 19.935 151.44 19.69C151.755 19.44 152.128 19.315 152.558 19.315C152.993 19.315 153.363 19.445 153.668 19.705C153.978 19.965 154.133 20.2925 154.133 20.6875C154.133 21.1475 153.983 21.515 153.683 21.79C153.388 22.06 153.023 22.195 152.588 22.195Z" fill="white"/>
</svg>
