<svg width="151" height="38" viewBox="0 0 151 38" fill="none" xmlns="http://www.w3.org/2000/svg">
<path d="M2.87007 32.7233C1.08866 29.9368 -0.247408 6.84935 2.87007 4.36149C5.98755 1.87363 56.3125 3.36635 82.5884 4.36149C108.864 5.35663 143.602 3.8639 148.055 5.35663C152.509 6.84935 151.217 33.4199 148.724 36.2063C145.606 39.6893 90.1594 37.2014 77.0215 36.2063C63.8836 35.2111 5.09684 36.2063 2.87007 32.7233Z" fill="#214868"/>
<path d="M1.87007 29.7233C0.0886566 26.9368 -1.24741 3.84935 1.87007 1.36149C4.98755 -1.12637 55.3125 0.366353 81.5884 1.36149C107.864 2.35663 142.602 0.863904 147.055 2.35663C151.509 3.84935 150.217 30.4199 147.724 33.2063C144.606 36.6893 89.1594 34.2014 76.0215 33.2063C62.8836 32.2111 4.09684 33.2063 1.87007 29.7233Z" fill="#3387DC"/>
</svg>
