<svg width="180" height="38" viewBox="0 0 180 38" fill="none" xmlns="http://www.w3.org/2000/svg">
<path d="M3.23162 32.7233C1.1058 29.9368 -0.488574 6.84935 3.23162 4.36149C6.95181 1.87363 67.0063 3.36635 98.3622 4.36149C129.718 5.35663 171.172 3.8639 176.486 5.35663C181.801 6.84935 180.26 33.4199 177.283 36.2063C173.563 39.6893 107.397 37.2014 91.719 36.2063C76.041 35.2111 5.8889 36.2063 3.23162 32.7233Z" fill="#214868"/>
<path d="M2.23162 29.7233C0.105797 26.9368 -1.48857 3.84935 2.23162 1.36149C5.95181 -1.12637 66.0063 0.366353 97.3622 1.36149C128.718 2.35663 170.172 0.863904 175.486 2.35663C180.801 3.84935 179.26 30.4199 176.283 33.2063C172.563 36.6893 106.397 34.2014 90.719 33.2063C75.041 32.2111 4.8889 33.2063 2.23162 29.7233Z" fill="#3387DC"/>
<path d="M25 7C23.0222 7 21.0888 7.58649 19.4443 8.6853C17.7998 9.78412 16.5181 11.3459 15.7612 13.1732C15.0043 15.0004 14.8063 17.0111 15.1922 18.9509C15.578 20.8907 16.5304 22.6725 17.9289 24.0711C19.3275 25.4696 21.1093 26.422 23.0491 26.8079C24.9889 27.1937 26.9996 26.9957 28.8268 26.2388C30.6541 25.4819 32.2159 24.2002 33.3147 22.5557C34.4135 20.9112 35 18.9778 35 17C35 15.6868 34.7413 14.3864 34.2388 13.1732C33.7363 11.9599 32.9997 10.8575 32.0711 9.92893C31.1425 9.00035 30.0401 8.26375 28.8268 7.7612C27.6136 7.25866 26.3132 7 25 7ZM25 25C23.4178 25 21.871 24.5308 20.5554 23.6518C19.2398 22.7727 18.2145 21.5233 17.609 20.0615C17.0035 18.5997 16.845 16.9911 17.1537 15.4393C17.4624 13.8874 18.2243 12.462 19.3432 11.3431C20.462 10.2243 21.8874 9.4624 23.4393 9.15372C24.9911 8.84504 26.5997 9.00346 28.0615 9.60896C29.5233 10.2145 30.7727 11.2398 31.6518 12.5554C32.5308 13.871 33 15.4177 33 17C33 19.1217 32.1572 21.1566 30.6569 22.6569C29.1566 24.1571 27.1217 25 25 25ZM29 16H26V13C26 12.7348 25.8946 12.4804 25.7071 12.2929C25.5196 12.1054 25.2652 12 25 12C24.7348 12 24.4804 12.1054 24.2929 12.2929C24.1054 12.4804 24 12.7348 24 13V16H21C20.7348 16 20.4804 16.1054 20.2929 16.2929C20.1054 16.4804 20 16.7348 20 17C20 17.2652 20.1054 17.5196 20.2929 17.7071C20.4804 17.8946 20.7348 18 21 18H24V21C24 21.2652 24.1054 21.5196 24.2929 21.7071C24.4804 21.8946 24.7348 22 25 22C25.2652 22 25.5196 21.8946 25.7071 21.7071C25.8946 21.5196 26 21.2652 26 21V18H29C29.2652 18 29.5196 17.8946 29.7071 17.7071C29.8946 17.5196 30 17.2652 30 17C30 16.7348 29.8946 16.4804 29.7071 16.2929C29.5196 16.1054 29.2652 16 29 16Z" fill="white"/>
<path d="M53.3005 14.2225C53.2755 14.1125 53.253 13.9575 53.233 13.7575C53.218 13.5525 53.203 13.34 53.188 13.12C53.178 12.895 53.168 12.695 53.158 12.52C53.153 12.34 53.1505 12.2175 53.1505 12.1525C53.7105 12.1125 54.348 12.0775 55.063 12.0475C55.783 12.0125 56.5105 11.995 57.2455 11.995C57.8005 11.995 58.3405 12.0075 58.8655 12.0325C59.3955 12.0525 59.878 12.095 60.313 12.16C60.318 12.575 60.3055 12.9625 60.2755 13.3225C60.2455 13.6775 60.2105 13.945 60.1705 14.125C60.0755 14.125 59.938 14.125 59.758 14.125C59.578 14.12 59.378 14.1175 59.158 14.1175C58.943 14.1125 58.7305 14.11 58.5205 14.11C58.3105 14.105 58.128 14.1 57.973 14.095C57.978 14.28 57.988 14.555 58.003 14.92C58.018 15.28 58.0355 15.6925 58.0555 16.1575C58.0755 16.6225 58.098 17.11 58.123 17.62C58.148 18.13 58.1705 18.63 58.1905 19.12C58.2155 19.61 58.2355 20.06 58.2505 20.47C58.2705 20.875 58.2855 21.21 58.2955 21.475C58.3105 21.735 58.318 21.89 58.318 21.94C58.118 21.97 57.858 21.9975 57.538 22.0225C57.218 22.0475 56.898 22.0675 56.578 22.0825C56.263 22.0975 56.0055 22.105 55.8055 22.105C55.7905 21.81 55.7755 21.455 55.7605 21.04C55.7455 20.62 55.733 20.1675 55.723 19.6825C55.713 19.1925 55.703 18.6925 55.693 18.1825C55.683 17.6675 55.6755 17.165 55.6705 16.675C55.6655 16.185 55.663 15.735 55.663 15.325C55.663 15.095 55.663 14.88 55.663 14.68C55.663 14.48 55.6655 14.3 55.6705 14.14C55.5005 14.15 55.3155 14.16 55.1155 14.17C54.9155 14.175 54.7105 14.1825 54.5005 14.1925C54.2905 14.2025 54.083 14.21 53.878 14.215C53.673 14.22 53.4805 14.2225 53.3005 14.2225ZM64.2498 22.1275C63.6348 22.1275 63.0723 22.045 62.5623 21.88C62.0523 21.71 61.6448 21.4375 61.3398 21.0625C61.0398 20.6825 60.8898 20.18 60.8898 19.555C60.8898 18.93 61.0648 18.4275 61.4148 18.0475C61.7698 17.6625 62.2348 17.385 62.8098 17.215C63.3898 17.04 64.0123 16.9525 64.6773 16.9525C64.9373 16.9525 65.1873 16.9725 65.4273 17.0125C65.6673 17.0525 65.8773 17.1 66.0573 17.155C66.2423 17.21 66.3748 17.2625 66.4548 17.3125C66.4498 17.1825 66.4223 17.045 66.3723 16.9C66.3273 16.755 66.2623 16.6325 66.1773 16.5325C66.0273 16.3275 65.8223 16.1575 65.5623 16.0225C65.3073 15.8825 64.9698 15.8125 64.5498 15.8125C64.1248 15.8125 63.7498 15.91 63.4248 16.105C63.0998 16.295 62.8523 16.51 62.6823 16.75L60.8523 15.5725C61.0773 15.2525 61.3798 14.9725 61.7598 14.7325C62.1448 14.4925 62.5798 14.305 63.0648 14.17C63.5548 14.035 64.0673 13.9675 64.6023 13.9675C65.4873 13.9675 66.2048 14.1125 66.7548 14.4025C67.3048 14.6925 67.7123 15.0975 67.9773 15.6175C68.1023 15.8675 68.2048 16.1425 68.2848 16.4425C68.3648 16.7425 68.4198 17.0875 68.4498 17.4775C68.4698 17.8125 68.4848 18.125 68.4948 18.415C68.5048 18.705 68.5148 18.98 68.5248 19.24C68.5348 19.62 68.5773 19.8675 68.6523 19.9825C68.7273 20.0975 68.8348 20.155 68.9748 20.155C69.1048 20.155 69.2198 20.12 69.3198 20.05C69.4248 19.975 69.4923 19.8775 69.5223 19.7575L70.3023 21.25C70.2473 21.48 70.0923 21.6725 69.8373 21.8275C69.5823 21.9825 69.2598 22.06 68.8698 22.06C68.5848 22.06 68.3148 22.0125 68.0598 21.9175C67.8048 21.8175 67.5948 21.685 67.4298 21.52C67.2648 21.35 67.1673 21.1575 67.1373 20.9425C67.0573 21.1325 66.8898 21.32 66.6348 21.505C66.3798 21.685 66.0523 21.835 65.6523 21.955C65.2523 22.07 64.7848 22.1275 64.2498 22.1275ZM64.7523 20.365C64.9873 20.365 65.2273 20.33 65.4723 20.26C65.7223 20.185 65.9473 20.0925 66.1473 19.9825C66.3523 19.8725 66.5098 19.76 66.6198 19.645C66.6098 19.49 66.5998 19.33 66.5898 19.165C66.5848 19 66.5848 18.86 66.5898 18.745C66.4798 18.7 66.2698 18.6525 65.9598 18.6025C65.6548 18.5475 65.3348 18.52 64.9998 18.52C64.6948 18.52 64.4098 18.5525 64.1448 18.6175C63.8798 18.6825 63.6623 18.7825 63.4923 18.9175C63.3273 19.0525 63.2448 19.2275 63.2448 19.4425C63.2448 19.6725 63.3073 19.855 63.4323 19.99C63.5573 20.125 63.7323 20.2225 63.9573 20.2825C64.1823 20.3375 64.4473 20.365 64.7523 20.365ZM71.1417 22.06C71.1167 21.735 71.0917 21.32 71.0667 20.815C71.0467 20.31 71.0267 19.7625 71.0067 19.1725C70.9917 18.5775 70.9767 17.9875 70.9617 17.4025C70.9517 16.8175 70.9442 16.2775 70.9392 15.7825C70.9342 15.2825 70.9317 14.88 70.9317 14.575C71.0517 14.545 71.2117 14.515 71.4117 14.485C71.6117 14.45 71.8242 14.42 72.0492 14.395C72.2742 14.365 72.4867 14.3425 72.6867 14.3275C72.8917 14.3075 73.0567 14.2975 73.1817 14.2975C73.1867 14.3775 73.1917 14.48 73.1967 14.605C73.2017 14.725 73.2042 14.85 73.2042 14.98C73.2092 15.11 73.2117 15.2275 73.2117 15.3325C73.2117 15.4375 73.2117 15.5175 73.2117 15.5725C73.2417 15.4775 73.3117 15.355 73.4217 15.205C73.5317 15.055 73.6817 14.905 73.8717 14.755C74.0667 14.605 74.3017 14.48 74.5767 14.38C74.8517 14.275 75.1692 14.2225 75.5292 14.2225C75.8742 14.2225 76.1667 14.2875 76.4067 14.4175C76.6467 14.5475 76.8467 14.7175 77.0067 14.9275C77.1667 15.1375 77.2917 15.365 77.3817 15.61C77.4267 15.73 77.4617 15.8525 77.4867 15.9775C77.5167 16.1025 77.5392 16.225 77.5542 16.345C77.6642 15.98 77.8467 15.6325 78.1017 15.3025C78.3617 14.9675 78.6842 14.695 79.0692 14.485C79.4542 14.27 79.8967 14.1625 80.3967 14.1625C80.9967 14.1625 81.4892 14.27 81.8742 14.485C82.2642 14.7 82.5667 15.0175 82.7817 15.4375C82.9967 15.8575 83.1467 16.3725 83.2317 16.9825C83.3167 17.5925 83.3592 18.29 83.3592 19.075C83.3592 19.385 83.3517 19.71 83.3367 20.05C83.3267 20.39 83.3117 20.7325 83.2917 21.0775C83.2717 21.4225 83.2517 21.7575 83.2317 22.0825C83.0517 22.0925 82.8642 22.1 82.6692 22.105C82.4742 22.115 82.2792 22.12 82.0842 22.12C81.8892 22.12 81.6892 22.115 81.4842 22.105C81.2842 22.1 81.0817 22.09 80.8767 22.075C80.9767 21.33 81.0592 20.645 81.1242 20.02C81.1892 19.39 81.2217 18.8375 81.2217 18.3625C81.2217 17.6675 81.1417 17.1375 80.9817 16.7725C80.8267 16.4075 80.5592 16.225 80.1792 16.225C79.8342 16.225 79.5542 16.33 79.3392 16.54C79.1242 16.75 78.9567 17.04 78.8367 17.41C78.7167 17.78 78.6292 18.21 78.5742 18.7C78.5242 19.185 78.4892 19.705 78.4692 20.26C78.4592 20.54 78.4492 20.8325 78.4392 21.1375C78.4292 21.4425 78.4242 21.7525 78.4242 22.0675C78.3242 22.0725 78.1817 22.0775 77.9967 22.0825C77.8167 22.0925 77.6267 22.0975 77.4267 22.0975C77.1917 22.0975 76.9642 22.0925 76.7442 22.0825C76.5292 22.0775 76.3717 22.0675 76.2717 22.0525C76.2667 21.7125 76.2642 21.3925 76.2642 21.0925C76.2642 20.7925 76.2642 20.485 76.2642 20.17C76.2642 19.6 76.2492 19.075 76.2192 18.595C76.1942 18.11 76.1392 17.69 76.0542 17.335C75.9692 16.975 75.8417 16.695 75.6717 16.495C75.5067 16.295 75.2817 16.195 74.9967 16.195C74.8017 16.195 74.6117 16.2375 74.4267 16.3225C74.2417 16.4075 74.0717 16.5175 73.9167 16.6525C73.7667 16.7875 73.6392 16.9375 73.5342 17.1025C73.4342 17.2625 73.3642 17.4225 73.3242 17.5825C73.3542 18.3775 73.3867 19.1025 73.4217 19.7575C73.4567 20.4125 73.4892 20.9475 73.5192 21.3625C73.5492 21.7725 73.5692 22.02 73.5792 22.105C73.5242 22.11 73.4092 22.115 73.2342 22.12C73.0592 22.125 72.9067 22.1275 72.7767 22.1275C72.4617 22.1275 72.1467 22.12 71.8317 22.105C71.5167 22.09 71.2867 22.075 71.1417 22.06ZM84.9899 22.0525C84.9749 21.8775 84.9599 21.585 84.9449 21.175C84.9299 20.76 84.9124 20.2725 84.8924 19.7125C84.8724 19.1475 84.8524 18.5425 84.8324 17.8975C84.8124 17.2475 84.7949 16.5975 84.7799 15.9475C84.7649 15.2925 84.7499 14.6725 84.7349 14.0875C84.7199 13.5025 84.7074 12.985 84.6974 12.535C84.6874 12.085 84.6824 11.7475 84.6824 11.5225C84.7524 11.5075 84.9924 11.465 85.4024 11.395C85.8174 11.32 86.3249 11.2375 86.9249 11.1475C86.9249 11.4625 86.9274 11.8925 86.9324 12.4375C86.9424 12.9825 86.9574 13.5825 86.9774 14.2375C86.9974 14.8875 87.0249 15.535 87.0599 16.18C87.1699 16.065 87.3074 15.945 87.4724 15.82C87.6374 15.695 87.8249 15.58 88.0349 15.475C88.2449 15.365 88.4699 15.2775 88.7099 15.2125C88.9549 15.1425 89.2074 15.1075 89.4674 15.1075C90.0524 15.1075 90.5624 15.2425 90.9974 15.5125C91.4374 15.7825 91.7774 16.185 92.0174 16.72C92.2624 17.25 92.3849 17.905 92.3849 18.685C92.3849 19.7 92.1149 20.505 91.5749 21.1C91.0399 21.69 90.3149 21.985 89.3999 21.985C89.0399 21.985 88.7174 21.9375 88.4324 21.8425C88.1524 21.7425 87.9174 21.6275 87.7274 21.4975C87.5424 21.3625 87.4099 21.245 87.3299 21.145C87.3349 21.24 87.3399 21.36 87.3449 21.505C87.3549 21.65 87.3624 21.7825 87.3674 21.9025C87.3774 22.0225 87.3824 22.1025 87.3824 22.1425C86.9524 22.1475 86.5249 22.1425 86.0999 22.1275C85.6749 22.1125 85.3049 22.0875 84.9899 22.0525ZM87.2624 19.465C87.3424 19.515 87.4574 19.575 87.6074 19.645C87.7574 19.715 87.9324 19.7775 88.1324 19.8325C88.3324 19.8825 88.5399 19.9075 88.7549 19.9075C89.2749 19.9075 89.6524 19.79 89.8874 19.555C90.1224 19.315 90.2399 18.97 90.2399 18.52C90.2399 18.25 90.1974 18.0025 90.1124 17.7775C90.0274 17.5475 89.8949 17.365 89.7149 17.23C89.5349 17.095 89.2999 17.0275 89.0099 17.0275C88.6899 17.0275 88.4099 17.0825 88.1699 17.1925C87.9299 17.3025 87.7274 17.435 87.5624 17.59C87.4024 17.745 87.2749 17.885 87.1799 18.01C87.1799 18.05 87.1824 18.12 87.1874 18.22C87.1924 18.315 87.1974 18.425 87.2024 18.55C87.2124 18.675 87.2199 18.8 87.2249 18.925C87.2349 19.05 87.2424 19.16 87.2474 19.255C87.2524 19.35 87.2574 19.42 87.2624 19.465ZM96.784 22.1275C96.169 22.1275 95.6065 22.045 95.0965 21.88C94.5865 21.71 94.179 21.4375 93.874 21.0625C93.574 20.6825 93.424 20.18 93.424 19.555C93.424 18.93 93.599 18.4275 93.949 18.0475C94.304 17.6625 94.769 17.385 95.344 17.215C95.924 17.04 96.5465 16.9525 97.2115 16.9525C97.4715 16.9525 97.7215 16.9725 97.9615 17.0125C98.2015 17.0525 98.4115 17.1 98.5915 17.155C98.7765 17.21 98.909 17.2625 98.989 17.3125C98.984 17.1825 98.9565 17.045 98.9065 16.9C98.8615 16.755 98.7965 16.6325 98.7115 16.5325C98.5615 16.3275 98.3565 16.1575 98.0965 16.0225C97.8415 15.8825 97.504 15.8125 97.084 15.8125C96.659 15.8125 96.284 15.91 95.959 16.105C95.634 16.295 95.3865 16.51 95.2165 16.75L93.3865 15.5725C93.6115 15.2525 93.914 14.9725 94.294 14.7325C94.679 14.4925 95.114 14.305 95.599 14.17C96.089 14.035 96.6015 13.9675 97.1365 13.9675C98.0215 13.9675 98.739 14.1125 99.289 14.4025C99.839 14.6925 100.246 15.0975 100.511 15.6175C100.636 15.8675 100.739 16.1425 100.819 16.4425C100.899 16.7425 100.954 17.0875 100.984 17.4775C101.004 17.8125 101.019 18.125 101.029 18.415C101.039 18.705 101.049 18.98 101.059 19.24C101.069 19.62 101.111 19.8675 101.186 19.9825C101.261 20.0975 101.369 20.155 101.509 20.155C101.639 20.155 101.754 20.12 101.854 20.05C101.959 19.975 102.026 19.8775 102.056 19.7575L102.836 21.25C102.781 21.48 102.626 21.6725 102.371 21.8275C102.116 21.9825 101.794 22.06 101.404 22.06C101.119 22.06 100.849 22.0125 100.594 21.9175C100.339 21.8175 100.129 21.685 99.964 21.52C99.799 21.35 99.7015 21.1575 99.6715 20.9425C99.5915 21.1325 99.424 21.32 99.169 21.505C98.914 21.685 98.5865 21.835 98.1865 21.955C97.7865 22.07 97.319 22.1275 96.784 22.1275ZM97.2865 20.365C97.5215 20.365 97.7615 20.33 98.0065 20.26C98.2565 20.185 98.4815 20.0925 98.6815 19.9825C98.8865 19.8725 99.044 19.76 99.154 19.645C99.144 19.49 99.134 19.33 99.124 19.165C99.119 19 99.119 18.86 99.124 18.745C99.014 18.7 98.804 18.6525 98.494 18.6025C98.189 18.5475 97.869 18.52 97.534 18.52C97.229 18.52 96.944 18.5525 96.679 18.6175C96.414 18.6825 96.1965 18.7825 96.0265 18.9175C95.8615 19.0525 95.779 19.2275 95.779 19.4425C95.779 19.6725 95.8415 19.855 95.9665 19.99C96.0915 20.125 96.2665 20.2225 96.4915 20.2825C96.7165 20.3375 96.9815 20.365 97.2865 20.365ZM105.596 22.0825C105.481 22.1025 105.318 22.1175 105.108 22.1275C104.903 22.1375 104.691 22.1425 104.471 22.1425C104.211 22.1425 103.968 22.1325 103.743 22.1125C103.518 22.0975 103.353 22.07 103.248 22.03C103.288 21.73 103.323 21.34 103.353 20.86C103.388 20.375 103.416 19.8325 103.436 19.2325C103.461 18.6325 103.473 18.0025 103.473 17.3425C103.473 16.6675 103.461 15.98 103.436 15.28C103.416 14.58 103.388 13.905 103.353 13.255C103.318 12.6 103.286 12.0025 103.256 11.4625C103.291 11.4475 103.401 11.425 103.586 11.395C103.771 11.365 103.986 11.335 104.231 11.305C104.476 11.27 104.708 11.24 104.928 11.215C105.148 11.19 105.313 11.1775 105.423 11.1775C105.503 11.5525 105.573 12 105.633 12.52C105.693 13.04 105.743 13.61 105.783 14.23C105.823 14.845 105.851 15.49 105.866 16.165C106.036 15.975 106.251 15.805 106.511 15.655C106.771 15.5 107.053 15.38 107.358 15.295C107.668 15.205 107.976 15.16 108.281 15.16C108.891 15.16 109.358 15.2775 109.683 15.5125C110.008 15.7425 110.233 16.08 110.358 16.525C110.488 16.965 110.553 17.5025 110.553 18.1375C110.553 18.5375 110.536 18.9675 110.501 19.4275C110.471 19.8875 110.431 20.34 110.381 20.785C110.331 21.23 110.276 21.63 110.216 21.985C110.041 22.01 109.861 22.03 109.676 22.045C109.491 22.06 109.306 22.0675 109.121 22.0675C108.916 22.0675 108.713 22.0575 108.513 22.0375C108.318 22.0225 108.141 22 107.981 21.97C108.016 21.745 108.053 21.48 108.093 21.175C108.133 20.87 108.171 20.5575 108.206 20.2375C108.241 19.9125 108.268 19.605 108.288 19.315C108.313 19.02 108.326 18.77 108.326 18.565C108.326 18.27 108.296 18.02 108.236 17.815C108.181 17.61 108.088 17.455 107.958 17.35C107.833 17.24 107.663 17.185 107.448 17.185C107.263 17.185 107.088 17.22 106.923 17.29C106.758 17.355 106.606 17.44 106.466 17.545C106.331 17.645 106.211 17.75 106.106 17.86C106.001 17.965 105.918 18.0575 105.858 18.1375C105.858 18.6525 105.846 19.1675 105.821 19.6825C105.796 20.1925 105.763 20.6575 105.723 21.0775C105.683 21.4975 105.641 21.8325 105.596 22.0825ZM116.691 22.1875C116.661 21.6275 116.623 20.9425 116.578 20.1325C116.538 19.3175 116.493 18.4475 116.443 17.5225C116.398 16.5925 116.353 15.67 116.308 14.755C116.263 13.835 116.223 12.9925 116.188 12.2275C116.383 12.2075 116.633 12.1875 116.938 12.1675C117.243 12.1475 117.573 12.1275 117.928 12.1075C118.283 12.0875 118.631 12.07 118.971 12.055C119.311 12.04 119.613 12.0325 119.878 12.0325C120.263 12.0325 120.648 12.07 121.033 12.145C121.423 12.215 121.778 12.34 122.098 12.52C122.423 12.7 122.683 12.9575 122.878 13.2925C123.073 13.6225 123.171 14.05 123.171 14.575C123.171 15.09 123.038 15.575 122.773 16.03C122.513 16.485 122.166 16.815 121.731 17.02C121.846 17.235 121.973 17.495 122.113 17.8C122.253 18.105 122.393 18.4325 122.533 18.7825C122.678 19.1325 122.816 19.48 122.946 19.825C123.076 20.165 123.191 20.4775 123.291 20.7625C123.396 21.0475 123.473 21.28 123.523 21.46C123.378 21.55 123.183 21.635 122.938 21.715C122.698 21.795 122.451 21.8675 122.196 21.9325C121.941 21.9925 121.718 22.0425 121.528 22.0825C121.343 22.1225 121.231 22.1425 121.191 22.1425C121.151 21.9425 121.088 21.68 121.003 21.355C120.918 21.03 120.821 20.6775 120.711 20.2975C120.601 19.9175 120.488 19.545 120.373 19.18C120.263 18.81 120.161 18.48 120.066 18.19C119.971 17.9 119.896 17.685 119.841 17.545C119.726 17.57 119.608 17.5925 119.488 17.6125C119.373 17.6325 119.263 17.6475 119.158 17.6575C119.058 17.6675 118.966 17.675 118.881 17.68C118.901 17.795 118.921 17.985 118.941 18.25C118.966 18.51 118.991 18.8125 119.016 19.1575C119.041 19.5025 119.063 19.8575 119.083 20.2225C119.108 20.5825 119.128 20.9225 119.143 21.2425C119.163 21.5625 119.176 21.825 119.181 22.03C118.981 22.075 118.736 22.1075 118.446 22.1275C118.161 22.1525 117.863 22.1675 117.553 22.1725C117.248 22.1825 116.961 22.1875 116.691 22.1875ZM118.678 15.88C118.833 15.88 118.991 15.875 119.151 15.865C119.316 15.85 119.511 15.8225 119.736 15.7825C120.061 15.7275 120.321 15.6525 120.516 15.5575C120.711 15.4575 120.851 15.3325 120.936 15.1825C121.026 15.0275 121.071 14.8475 121.071 14.6425C121.071 14.3675 121.008 14.17 120.883 14.05C120.758 13.925 120.586 13.845 120.366 13.81C120.151 13.775 119.898 13.7575 119.608 13.7575C119.528 13.7575 119.433 13.7625 119.323 13.7725C119.213 13.7775 119.103 13.785 118.993 13.795C118.883 13.805 118.783 13.815 118.693 13.825C118.603 13.83 118.538 13.835 118.498 13.84C118.503 13.925 118.513 14.0375 118.528 14.1775C118.543 14.3175 118.558 14.4725 118.573 14.6425C118.588 14.8075 118.601 14.9725 118.611 15.1375C118.626 15.2975 118.638 15.445 118.648 15.58C118.663 15.71 118.673 15.81 118.678 15.88ZM127.129 21.985C127.044 21.99 126.881 22 126.641 22.015C126.406 22.035 126.156 22.045 125.891 22.045C125.696 22.045 125.499 22.0375 125.299 22.0225C125.104 22.0125 124.911 21.9975 124.721 21.9775C124.746 21.8475 124.774 21.5825 124.804 21.1825C124.839 20.7775 124.871 20.3025 124.901 19.7575C124.936 19.2125 124.969 18.65 124.999 18.07C125.034 17.485 125.059 16.9375 125.074 16.4275C125.094 15.9175 125.104 15.5075 125.104 15.1975C125.204 15.1925 125.351 15.185 125.546 15.175C125.741 15.165 125.951 15.1575 126.176 15.1525C126.401 15.1425 126.616 15.135 126.821 15.13C127.026 15.12 127.189 15.115 127.309 15.115C127.334 15.27 127.354 15.52 127.369 15.865C127.384 16.21 127.391 16.595 127.391 17.02C127.391 17.475 127.384 17.9575 127.369 18.4675C127.359 18.9775 127.341 19.4725 127.316 19.9525C127.296 20.4275 127.269 20.8475 127.234 21.2125C127.199 21.5725 127.164 21.83 127.129 21.985ZM126.289 14.1475C125.839 14.1475 125.461 14.0175 125.156 13.7575C124.851 13.4925 124.699 13.145 124.699 12.715C124.699 12.42 124.771 12.1675 124.916 11.9575C125.061 11.7475 125.249 11.5875 125.479 11.4775C125.714 11.3625 125.961 11.305 126.221 11.305C126.636 11.305 126.979 11.44 127.249 11.71C127.524 11.98 127.661 12.3275 127.661 12.7525C127.661 13.1475 127.531 13.48 127.271 13.75C127.011 14.015 126.684 14.1475 126.289 14.1475ZM133.334 21.6475C133.194 21.7975 132.931 21.9425 132.546 22.0825C132.166 22.2275 131.741 22.3 131.271 22.3C130.661 22.3 130.196 22.1575 129.876 21.8725C129.561 21.5875 129.349 21.185 129.239 20.665C129.129 20.14 129.074 19.53 129.074 18.835C129.074 18.29 129.079 17.7425 129.089 17.1925C129.099 16.6425 129.111 16.0975 129.126 15.5575C129.146 15.0175 129.166 14.495 129.186 13.99C129.211 13.48 129.234 12.9975 129.254 12.5425C129.279 12.0825 129.304 11.6625 129.329 11.2825C129.684 11.2575 130.011 11.245 130.311 11.245C130.506 11.245 130.699 11.25 130.889 11.26C131.079 11.27 131.289 11.285 131.519 11.305C131.494 11.74 131.464 12.2225 131.429 12.7525C131.399 13.2775 131.369 13.815 131.339 14.365C131.314 14.915 131.289 15.4475 131.264 15.9625C131.239 16.4775 131.219 16.945 131.204 17.365C131.194 17.78 131.189 18.1125 131.189 18.3625C131.189 18.6875 131.201 18.99 131.226 19.27C131.256 19.545 131.321 19.77 131.421 19.945C131.521 20.115 131.671 20.2 131.871 20.2C132.041 20.2 132.179 20.1625 132.284 20.0875C132.394 20.0075 132.484 19.9075 132.554 19.7875C132.589 19.8475 132.644 19.9675 132.719 20.1475C132.794 20.3225 132.876 20.5175 132.966 20.7325C133.056 20.9475 133.136 21.1425 133.206 21.3175C133.276 21.4875 133.319 21.5975 133.334 21.6475ZM136.533 21.985C136.448 21.99 136.285 22 136.045 22.015C135.81 22.035 135.56 22.045 135.295 22.045C135.1 22.045 134.903 22.0375 134.703 22.0225C134.508 22.0125 134.315 21.9975 134.125 21.9775C134.15 21.8475 134.178 21.5825 134.208 21.1825C134.243 20.7775 134.275 20.3025 134.305 19.7575C134.34 19.2125 134.373 18.65 134.403 18.07C134.438 17.485 134.463 16.9375 134.478 16.4275C134.498 15.9175 134.508 15.5075 134.508 15.1975C134.608 15.1925 134.755 15.185 134.95 15.175C135.145 15.165 135.355 15.1575 135.58 15.1525C135.805 15.1425 136.02 15.135 136.225 15.13C136.43 15.12 136.593 15.115 136.713 15.115C136.738 15.27 136.758 15.52 136.773 15.865C136.788 16.21 136.795 16.595 136.795 17.02C136.795 17.475 136.788 17.9575 136.773 18.4675C136.763 18.9775 136.745 19.4725 136.72 19.9525C136.7 20.4275 136.673 20.8475 136.638 21.2125C136.603 21.5725 136.568 21.83 136.533 21.985ZM135.693 14.1475C135.243 14.1475 134.865 14.0175 134.56 13.7575C134.255 13.4925 134.103 13.145 134.103 12.715C134.103 12.42 134.175 12.1675 134.32 11.9575C134.465 11.7475 134.653 11.5875 134.883 11.4775C135.118 11.3625 135.365 11.305 135.625 11.305C136.04 11.305 136.383 11.44 136.653 11.71C136.928 11.98 137.065 12.3275 137.065 12.7525C137.065 13.1475 136.935 13.48 136.675 13.75C136.415 14.015 136.088 14.1475 135.693 14.1475ZM141.583 22.5925C140.998 22.5925 140.461 22.52 139.971 22.375C139.486 22.235 139.073 22.07 138.733 21.88C138.398 21.685 138.156 21.51 138.006 21.355C138.036 21.26 138.093 21.1225 138.178 20.9425C138.268 20.7575 138.373 20.5575 138.493 20.3425C138.613 20.1275 138.733 19.9275 138.853 19.7425C138.973 19.5575 139.081 19.42 139.176 19.33C139.416 19.535 139.676 19.7375 139.956 19.9375C140.236 20.1325 140.523 20.2925 140.818 20.4175C141.113 20.5425 141.388 20.605 141.643 20.605C141.843 20.605 142.023 20.58 142.183 20.53C142.343 20.475 142.468 20.395 142.558 20.29C142.653 20.185 142.701 20.055 142.701 19.9C142.701 19.72 142.613 19.5475 142.438 19.3825C142.268 19.2125 142.048 19.0525 141.778 18.9025C141.508 18.7525 141.226 18.6175 140.931 18.4975C140.526 18.3325 140.148 18.14 139.798 17.92C139.448 17.695 139.166 17.42 138.951 17.095C138.736 16.765 138.628 16.355 138.628 15.865C138.628 15.365 138.776 14.945 139.071 14.605C139.366 14.265 139.751 14.0075 140.226 13.8325C140.706 13.6575 141.218 13.57 141.763 13.57C142.278 13.57 142.801 13.6425 143.331 13.7875C143.861 13.9275 144.293 14.13 144.628 14.395C144.598 14.49 144.533 14.635 144.433 14.83C144.338 15.025 144.221 15.235 144.081 15.46C143.946 15.68 143.801 15.8825 143.646 16.0675C143.441 15.8925 143.183 15.725 142.873 15.565C142.563 15.405 142.238 15.325 141.898 15.325C141.728 15.325 141.558 15.3425 141.388 15.3775C141.223 15.4125 141.086 15.475 140.976 15.565C140.871 15.655 140.818 15.7775 140.818 15.9325C140.818 16.0825 140.876 16.2175 140.991 16.3375C141.106 16.4525 141.273 16.565 141.493 16.675C141.718 16.785 141.981 16.9 142.281 17.02C142.581 17.14 142.886 17.2825 143.196 17.4475C143.506 17.6075 143.791 17.8 144.051 18.025C144.316 18.25 144.528 18.5125 144.688 18.8125C144.848 19.1075 144.928 19.4475 144.928 19.8325C144.928 20.4475 144.776 20.96 144.471 21.37C144.166 21.78 143.758 22.085 143.248 22.285C142.743 22.49 142.188 22.5925 141.583 22.5925ZM149.138 22.1275C148.523 22.1275 147.96 22.045 147.45 21.88C146.94 21.71 146.533 21.4375 146.228 21.0625C145.928 20.6825 145.778 20.18 145.778 19.555C145.778 18.93 145.953 18.4275 146.302 18.0475C146.658 17.6625 147.123 17.385 147.698 17.215C148.278 17.04 148.9 16.9525 149.565 16.9525C149.825 16.9525 150.075 16.9725 150.315 17.0125C150.555 17.0525 150.765 17.1 150.945 17.155C151.13 17.21 151.263 17.2625 151.343 17.3125C151.338 17.1825 151.31 17.045 151.26 16.9C151.215 16.755 151.15 16.6325 151.065 16.5325C150.915 16.3275 150.71 16.1575 150.45 16.0225C150.195 15.8825 149.858 15.8125 149.438 15.8125C149.013 15.8125 148.638 15.91 148.313 16.105C147.988 16.295 147.74 16.51 147.57 16.75L145.74 15.5725C145.965 15.2525 146.268 14.9725 146.648 14.7325C147.033 14.4925 147.468 14.305 147.953 14.17C148.443 14.035 148.955 13.9675 149.49 13.9675C150.375 13.9675 151.093 14.1125 151.643 14.4025C152.193 14.6925 152.6 15.0975 152.865 15.6175C152.99 15.8675 153.093 16.1425 153.173 16.4425C153.253 16.7425 153.308 17.0875 153.338 17.4775C153.358 17.8125 153.373 18.125 153.383 18.415C153.393 18.705 153.403 18.98 153.413 19.24C153.423 19.62 153.465 19.8675 153.54 19.9825C153.615 20.0975 153.723 20.155 153.863 20.155C153.993 20.155 154.108 20.12 154.208 20.05C154.313 19.975 154.38 19.8775 154.41 19.7575L155.19 21.25C155.135 21.48 154.98 21.6725 154.725 21.8275C154.47 21.9825 154.148 22.06 153.758 22.06C153.473 22.06 153.203 22.0125 152.948 21.9175C152.693 21.8175 152.483 21.685 152.318 21.52C152.153 21.35 152.055 21.1575 152.025 20.9425C151.945 21.1325 151.778 21.32 151.523 21.505C151.268 21.685 150.94 21.835 150.54 21.955C150.14 22.07 149.673 22.1275 149.138 22.1275ZM149.64 20.365C149.875 20.365 150.115 20.33 150.36 20.26C150.61 20.185 150.835 20.0925 151.035 19.9825C151.24 19.8725 151.398 19.76 151.508 19.645C151.498 19.49 151.488 19.33 151.478 19.165C151.473 19 151.473 18.86 151.478 18.745C151.368 18.7 151.158 18.6525 150.848 18.6025C150.543 18.5475 150.223 18.52 149.888 18.52C149.583 18.52 149.298 18.5525 149.033 18.6175C148.768 18.6825 148.55 18.7825 148.38 18.9175C148.215 19.0525 148.133 19.2275 148.133 19.4425C148.133 19.6725 148.195 19.855 148.32 19.99C148.445 20.125 148.62 20.2225 148.845 20.2825C149.07 20.3375 149.335 20.365 149.64 20.365ZM158.077 22.0975C157.927 22.1025 157.742 22.1025 157.522 22.0975C157.302 22.0975 157.077 22.095 156.847 22.09C156.662 22.085 156.449 22.0775 156.209 22.0675C155.969 22.0575 155.802 22.0475 155.707 22.0375C155.752 21.6175 155.789 21.1425 155.819 20.6125C155.854 20.0825 155.882 19.495 155.902 18.85C155.922 18.205 155.937 17.5 155.947 16.735C155.957 15.97 155.962 15.1425 155.962 14.2525C156.152 14.2275 156.377 14.2075 156.637 14.1925C156.897 14.1775 157.159 14.17 157.424 14.17C157.609 14.17 157.787 14.175 157.957 14.185C158.132 14.19 158.287 14.205 158.422 14.23C158.422 14.275 158.422 14.3675 158.422 14.5075C158.427 14.6425 158.427 14.7925 158.422 14.9575C158.422 15.1175 158.419 15.2625 158.414 15.3925C158.544 15.2025 158.757 15.005 159.052 14.8C159.347 14.59 159.689 14.4125 160.079 14.2675C160.469 14.1225 160.872 14.05 161.287 14.05C162.052 14.05 162.637 14.205 163.042 14.515C163.447 14.82 163.724 15.28 163.874 15.895C164.024 16.505 164.099 17.27 164.099 18.19C164.099 18.51 164.089 18.885 164.069 19.315C164.054 19.74 164.029 20.1875 163.994 20.6575C163.959 21.1275 163.914 21.5825 163.859 22.0225C163.759 22.0325 163.599 22.04 163.379 22.045C163.164 22.055 162.937 22.06 162.697 22.06C162.442 22.06 162.199 22.055 161.969 22.045C161.739 22.04 161.569 22.0325 161.459 22.0225C161.514 21.7425 161.574 21.3925 161.639 20.9725C161.704 20.5525 161.759 20.105 161.804 19.63C161.849 19.15 161.872 18.6925 161.872 18.2575C161.872 17.8375 161.837 17.4725 161.767 17.1625C161.702 16.8525 161.574 16.6125 161.384 16.4425C161.199 16.2675 160.924 16.18 160.559 16.18C160.259 16.18 159.972 16.2325 159.697 16.3375C159.422 16.4425 159.172 16.5725 158.947 16.7275C158.722 16.8775 158.529 17.025 158.369 17.17C158.364 17.96 158.344 18.675 158.309 19.315C158.274 19.95 158.237 20.5025 158.197 20.9725C158.157 21.4375 158.117 21.8125 158.077 22.0975Z" fill="white"/>
</svg>
