<svg width="218" height="38" viewBox="0 0 218 38" fill="none" xmlns="http://www.w3.org/2000/svg">
<path d="M3.70537 32.7233C1.12826 29.9368 -0.804584 6.84935 3.70537 4.36149C8.21533 1.87363 81.0188 3.36635 119.031 4.36149C157.044 5.35663 207.297 3.8639 213.74 5.35663C220.183 6.84935 218.315 33.4199 214.707 36.2063C210.197 39.6893 129.984 37.2014 110.978 36.2063C91.9715 35.2111 6.92676 36.2063 3.70537 32.7233Z" fill="#214868"/>
<path d="M2.70537 29.7233C0.128257 26.9368 -1.80458 3.84935 2.70537 1.36149C7.21533 -1.12637 80.0188 0.366353 118.031 1.36149C156.044 2.35663 206.297 0.863904 212.74 2.35663C219.183 3.84935 217.315 30.4199 213.707 33.2063C209.197 36.6893 128.984 34.2014 109.978 33.2063C90.9715 32.2111 5.92676 33.2063 2.70537 29.7233Z" fill="#3387DC"/>
<path d="M25 7C23.0222 7 21.0888 7.58649 19.4443 8.6853C17.7998 9.78412 16.5181 11.3459 15.7612 13.1732C15.0043 15.0004 14.8063 17.0111 15.1922 18.9509C15.578 20.8907 16.5304 22.6725 17.9289 24.0711C19.3275 25.4696 21.1093 26.422 23.0491 26.8079C24.9889 27.1937 26.9996 26.9957 28.8268 26.2388C30.6541 25.4819 32.2159 24.2002 33.3147 22.5557C34.4135 20.9112 35 18.9778 35 17C35 15.6868 34.7413 14.3864 34.2388 13.1732C33.7363 11.9599 32.9997 10.8575 32.0711 9.92893C31.1425 9.00035 30.0401 8.26375 28.8268 7.7612C27.6136 7.25866 26.3132 7 25 7V7ZM25 25C23.4178 25 21.871 24.5308 20.5554 23.6518C19.2398 22.7727 18.2145 21.5233 17.609 20.0615C17.0035 18.5997 16.845 16.9911 17.1537 15.4393C17.4624 13.8874 18.2243 12.462 19.3432 11.3431C20.462 10.2243 21.8874 9.4624 23.4393 9.15372C24.9911 8.84504 26.5997 9.00346 28.0615 9.60896C29.5233 10.2145 30.7727 11.2398 31.6518 12.5554C32.5308 13.871 33 15.4177 33 17C33 19.1217 32.1572 21.1566 30.6569 22.6569C29.1566 24.1571 27.1217 25 25 25V25ZM29 16H26V13C26 12.7348 25.8946 12.4804 25.7071 12.2929C25.5196 12.1054 25.2652 12 25 12C24.7348 12 24.4804 12.1054 24.2929 12.2929C24.1054 12.4804 24 12.7348 24 13V16H21C20.7348 16 20.4804 16.1054 20.2929 16.2929C20.1054 16.4804 20 16.7348 20 17C20 17.2652 20.1054 17.5196 20.2929 17.7071C20.4804 17.8946 20.7348 18 21 18H24V21C24 21.2652 24.1054 21.5196 24.2929 21.7071C24.4804 21.8946 24.7348 22 25 22C25.2652 22 25.5196 21.8946 25.7071 21.7071C25.8946 21.5196 26 21.2652 26 21V18H29C29.2652 18 29.5196 17.8946 29.7071 17.7071C29.8946 17.5196 30 17.2652 30 17C30 16.7348 29.8946 16.4804 29.7071 16.2929C29.5196 16.1054 29.2652 16 29 16Z" fill="white"/>
<path d="M48.2077 14.2225C48.1827 14.1125 48.1602 13.9575 48.1402 13.7575C48.1252 13.5525 48.1102 13.34 48.0952 13.12C48.0852 12.895 48.0752 12.695 48.0652 12.52C48.0602 12.34 48.0577 12.2175 48.0577 12.1525C48.6177 12.1125 49.2552 12.0775 49.9702 12.0475C50.6902 12.0125 51.4177 11.995 52.1527 11.995C52.7077 11.995 53.2477 12.0075 53.7727 12.0325C54.3027 12.0525 54.7852 12.095 55.2202 12.16C55.2252 12.575 55.2127 12.9625 55.1827 13.3225C55.1527 13.6775 55.1177 13.945 55.0777 14.125C54.9827 14.125 54.8452 14.125 54.6652 14.125C54.4852 14.12 54.2852 14.1175 54.0652 14.1175C53.8502 14.1125 53.6377 14.11 53.4277 14.11C53.2177 14.105 53.0352 14.1 52.8802 14.095C52.8852 14.28 52.8952 14.555 52.9102 14.92C52.9252 15.28 52.9427 15.6925 52.9627 16.1575C52.9827 16.6225 53.0052 17.11 53.0302 17.62C53.0552 18.13 53.0777 18.63 53.0977 19.12C53.1227 19.61 53.1427 20.06 53.1577 20.47C53.1777 20.875 53.1927 21.21 53.2027 21.475C53.2177 21.735 53.2252 21.89 53.2252 21.94C53.0252 21.97 52.7652 21.9975 52.4452 22.0225C52.1252 22.0475 51.8052 22.0675 51.4852 22.0825C51.1702 22.0975 50.9127 22.105 50.7127 22.105C50.6977 21.81 50.6827 21.455 50.6677 21.04C50.6527 20.62 50.6402 20.1675 50.6302 19.6825C50.6202 19.1925 50.6102 18.6925 50.6002 18.1825C50.5902 17.6675 50.5827 17.165 50.5777 16.675C50.5727 16.185 50.5702 15.735 50.5702 15.325C50.5702 15.095 50.5702 14.88 50.5702 14.68C50.5702 14.48 50.5727 14.3 50.5777 14.14C50.4077 14.15 50.2227 14.16 50.0227 14.17C49.8227 14.175 49.6177 14.1825 49.4077 14.1925C49.1977 14.2025 48.9902 14.21 48.7852 14.215C48.5802 14.22 48.3877 14.2225 48.2077 14.2225ZM59.157 22.1275C58.542 22.1275 57.9795 22.045 57.4695 21.88C56.9595 21.71 56.552 21.4375 56.247 21.0625C55.947 20.6825 55.797 20.18 55.797 19.555C55.797 18.93 55.972 18.4275 56.322 18.0475C56.677 17.6625 57.142 17.385 57.717 17.215C58.297 17.04 58.9195 16.9525 59.5845 16.9525C59.8445 16.9525 60.0945 16.9725 60.3345 17.0125C60.5745 17.0525 60.7845 17.1 60.9645 17.155C61.1495 17.21 61.282 17.2625 61.362 17.3125C61.357 17.1825 61.3295 17.045 61.2795 16.9C61.2345 16.755 61.1695 16.6325 61.0845 16.5325C60.9345 16.3275 60.7295 16.1575 60.4695 16.0225C60.2145 15.8825 59.877 15.8125 59.457 15.8125C59.032 15.8125 58.657 15.91 58.332 16.105C58.007 16.295 57.7595 16.51 57.5895 16.75L55.7595 15.5725C55.9845 15.2525 56.287 14.9725 56.667 14.7325C57.052 14.4925 57.487 14.305 57.972 14.17C58.462 14.035 58.9745 13.9675 59.5095 13.9675C60.3945 13.9675 61.112 14.1125 61.662 14.4025C62.212 14.6925 62.6195 15.0975 62.8845 15.6175C63.0095 15.8675 63.112 16.1425 63.192 16.4425C63.272 16.7425 63.327 17.0875 63.357 17.4775C63.377 17.8125 63.392 18.125 63.402 18.415C63.412 18.705 63.422 18.98 63.432 19.24C63.442 19.62 63.4845 19.8675 63.5595 19.9825C63.6345 20.0975 63.742 20.155 63.882 20.155C64.012 20.155 64.127 20.12 64.227 20.05C64.332 19.975 64.3995 19.8775 64.4295 19.7575L65.2095 21.25C65.1545 21.48 64.9995 21.6725 64.7445 21.8275C64.4895 21.9825 64.167 22.06 63.777 22.06C63.492 22.06 63.222 22.0125 62.967 21.9175C62.712 21.8175 62.502 21.685 62.337 21.52C62.172 21.35 62.0745 21.1575 62.0445 20.9425C61.9645 21.1325 61.797 21.32 61.542 21.505C61.287 21.685 60.9595 21.835 60.5595 21.955C60.1595 22.07 59.692 22.1275 59.157 22.1275ZM59.6595 20.365C59.8945 20.365 60.1345 20.33 60.3795 20.26C60.6295 20.185 60.8545 20.0925 61.0545 19.9825C61.2595 19.8725 61.417 19.76 61.527 19.645C61.517 19.49 61.507 19.33 61.497 19.165C61.492 19 61.492 18.86 61.497 18.745C61.387 18.7 61.177 18.6525 60.867 18.6025C60.562 18.5475 60.242 18.52 59.907 18.52C59.602 18.52 59.317 18.5525 59.052 18.6175C58.787 18.6825 58.5695 18.7825 58.3995 18.9175C58.2345 19.0525 58.152 19.2275 58.152 19.4425C58.152 19.6725 58.2145 19.855 58.3395 19.99C58.4645 20.125 58.6395 20.2225 58.8645 20.2825C59.0895 20.3375 59.3545 20.365 59.6595 20.365ZM66.0489 22.06C66.0239 21.735 65.9989 21.32 65.9739 20.815C65.9539 20.31 65.9339 19.7625 65.9139 19.1725C65.8989 18.5775 65.8839 17.9875 65.8689 17.4025C65.8589 16.8175 65.8514 16.2775 65.8464 15.7825C65.8414 15.2825 65.8389 14.88 65.8389 14.575C65.9589 14.545 66.1189 14.515 66.3189 14.485C66.5189 14.45 66.7314 14.42 66.9564 14.395C67.1814 14.365 67.3939 14.3425 67.5939 14.3275C67.7989 14.3075 67.9639 14.2975 68.0889 14.2975C68.0939 14.3775 68.0989 14.48 68.1039 14.605C68.1089 14.725 68.1114 14.85 68.1114 14.98C68.1164 15.11 68.1189 15.2275 68.1189 15.3325C68.1189 15.4375 68.1189 15.5175 68.1189 15.5725C68.1489 15.4775 68.2189 15.355 68.3289 15.205C68.4389 15.055 68.5889 14.905 68.7789 14.755C68.9739 14.605 69.2089 14.48 69.4839 14.38C69.7589 14.275 70.0764 14.2225 70.4364 14.2225C70.7814 14.2225 71.0739 14.2875 71.3139 14.4175C71.5539 14.5475 71.7539 14.7175 71.9139 14.9275C72.0739 15.1375 72.1989 15.365 72.2889 15.61C72.3339 15.73 72.3689 15.8525 72.3939 15.9775C72.4239 16.1025 72.4464 16.225 72.4614 16.345C72.5714 15.98 72.7539 15.6325 73.0089 15.3025C73.2689 14.9675 73.5914 14.695 73.9764 14.485C74.3614 14.27 74.8039 14.1625 75.3039 14.1625C75.9039 14.1625 76.3964 14.27 76.7814 14.485C77.1714 14.7 77.4739 15.0175 77.6889 15.4375C77.9039 15.8575 78.0539 16.3725 78.1389 16.9825C78.2239 17.5925 78.2664 18.29 78.2664 19.075C78.2664 19.385 78.2589 19.71 78.2439 20.05C78.2339 20.39 78.2189 20.7325 78.1989 21.0775C78.1789 21.4225 78.1589 21.7575 78.1389 22.0825C77.9589 22.0925 77.7714 22.1 77.5764 22.105C77.3814 22.115 77.1864 22.12 76.9914 22.12C76.7964 22.12 76.5964 22.115 76.3914 22.105C76.1914 22.1 75.9889 22.09 75.7839 22.075C75.8839 21.33 75.9664 20.645 76.0314 20.02C76.0964 19.39 76.1289 18.8375 76.1289 18.3625C76.1289 17.6675 76.0489 17.1375 75.8889 16.7725C75.7339 16.4075 75.4664 16.225 75.0864 16.225C74.7414 16.225 74.4614 16.33 74.2464 16.54C74.0314 16.75 73.8639 17.04 73.7439 17.41C73.6239 17.78 73.5364 18.21 73.4814 18.7C73.4314 19.185 73.3964 19.705 73.3764 20.26C73.3664 20.54 73.3564 20.8325 73.3464 21.1375C73.3364 21.4425 73.3314 21.7525 73.3314 22.0675C73.2314 22.0725 73.0889 22.0775 72.9039 22.0825C72.7239 22.0925 72.5339 22.0975 72.3339 22.0975C72.0989 22.0975 71.8714 22.0925 71.6514 22.0825C71.4364 22.0775 71.2789 22.0675 71.1789 22.0525C71.1739 21.7125 71.1714 21.3925 71.1714 21.0925C71.1714 20.7925 71.1714 20.485 71.1714 20.17C71.1714 19.6 71.1564 19.075 71.1264 18.595C71.1014 18.11 71.0464 17.69 70.9614 17.335C70.8764 16.975 70.7489 16.695 70.5789 16.495C70.4139 16.295 70.1889 16.195 69.9039 16.195C69.7089 16.195 69.5189 16.2375 69.3339 16.3225C69.1489 16.4075 68.9789 16.5175 68.8239 16.6525C68.6739 16.7875 68.5464 16.9375 68.4414 17.1025C68.3414 17.2625 68.2714 17.4225 68.2314 17.5825C68.2614 18.3775 68.2939 19.1025 68.3289 19.7575C68.3639 20.4125 68.3964 20.9475 68.4264 21.3625C68.4564 21.7725 68.4764 22.02 68.4864 22.105C68.4314 22.11 68.3164 22.115 68.1414 22.12C67.9664 22.125 67.8139 22.1275 67.6839 22.1275C67.3689 22.1275 67.0539 22.12 66.7389 22.105C66.4239 22.09 66.1939 22.075 66.0489 22.06ZM79.8971 22.0525C79.8821 21.8775 79.8671 21.585 79.8521 21.175C79.8371 20.76 79.8196 20.2725 79.7996 19.7125C79.7796 19.1475 79.7596 18.5425 79.7396 17.8975C79.7196 17.2475 79.7021 16.5975 79.6871 15.9475C79.6721 15.2925 79.6571 14.6725 79.6421 14.0875C79.6271 13.5025 79.6146 12.985 79.6046 12.535C79.5946 12.085 79.5896 11.7475 79.5896 11.5225C79.6596 11.5075 79.8996 11.465 80.3096 11.395C80.7246 11.32 81.2321 11.2375 81.8321 11.1475C81.8321 11.4625 81.8346 11.8925 81.8396 12.4375C81.8496 12.9825 81.8646 13.5825 81.8846 14.2375C81.9046 14.8875 81.9321 15.535 81.9671 16.18C82.0771 16.065 82.2146 15.945 82.3796 15.82C82.5446 15.695 82.7321 15.58 82.9421 15.475C83.1521 15.365 83.3771 15.2775 83.6171 15.2125C83.8621 15.1425 84.1146 15.1075 84.3746 15.1075C84.9596 15.1075 85.4696 15.2425 85.9046 15.5125C86.3446 15.7825 86.6846 16.185 86.9246 16.72C87.1696 17.25 87.2921 17.905 87.2921 18.685C87.2921 19.7 87.0221 20.505 86.4821 21.1C85.9471 21.69 85.2221 21.985 84.3071 21.985C83.9471 21.985 83.6246 21.9375 83.3396 21.8425C83.0596 21.7425 82.8246 21.6275 82.6346 21.4975C82.4496 21.3625 82.3171 21.245 82.2371 21.145C82.2421 21.24 82.2471 21.36 82.2521 21.505C82.2621 21.65 82.2696 21.7825 82.2746 21.9025C82.2846 22.0225 82.2896 22.1025 82.2896 22.1425C81.8596 22.1475 81.4321 22.1425 81.0071 22.1275C80.5821 22.1125 80.2121 22.0875 79.8971 22.0525ZM82.1696 19.465C82.2496 19.515 82.3646 19.575 82.5146 19.645C82.6646 19.715 82.8396 19.7775 83.0396 19.8325C83.2396 19.8825 83.4471 19.9075 83.6621 19.9075C84.1821 19.9075 84.5596 19.79 84.7946 19.555C85.0296 19.315 85.1471 18.97 85.1471 18.52C85.1471 18.25 85.1046 18.0025 85.0196 17.7775C84.9346 17.5475 84.8021 17.365 84.6221 17.23C84.4421 17.095 84.2071 17.0275 83.9171 17.0275C83.5971 17.0275 83.3171 17.0825 83.0771 17.1925C82.8371 17.3025 82.6346 17.435 82.4696 17.59C82.3096 17.745 82.1821 17.885 82.0871 18.01C82.0871 18.05 82.0896 18.12 82.0946 18.22C82.0996 18.315 82.1046 18.425 82.1096 18.55C82.1196 18.675 82.1271 18.8 82.1321 18.925C82.1421 19.05 82.1496 19.16 82.1546 19.255C82.1596 19.35 82.1646 19.42 82.1696 19.465ZM91.6912 22.1275C91.0762 22.1275 90.5137 22.045 90.0037 21.88C89.4937 21.71 89.0862 21.4375 88.7812 21.0625C88.4812 20.6825 88.3312 20.18 88.3312 19.555C88.3312 18.93 88.5062 18.4275 88.8562 18.0475C89.2112 17.6625 89.6762 17.385 90.2512 17.215C90.8312 17.04 91.4537 16.9525 92.1187 16.9525C92.3787 16.9525 92.6287 16.9725 92.8687 17.0125C93.1087 17.0525 93.3187 17.1 93.4987 17.155C93.6837 17.21 93.8162 17.2625 93.8962 17.3125C93.8912 17.1825 93.8637 17.045 93.8137 16.9C93.7687 16.755 93.7037 16.6325 93.6187 16.5325C93.4687 16.3275 93.2637 16.1575 93.0037 16.0225C92.7487 15.8825 92.4112 15.8125 91.9912 15.8125C91.5662 15.8125 91.1912 15.91 90.8662 16.105C90.5412 16.295 90.2937 16.51 90.1237 16.75L88.2937 15.5725C88.5187 15.2525 88.8212 14.9725 89.2012 14.7325C89.5862 14.4925 90.0212 14.305 90.5062 14.17C90.9962 14.035 91.5087 13.9675 92.0437 13.9675C92.9287 13.9675 93.6462 14.1125 94.1962 14.4025C94.7462 14.6925 95.1537 15.0975 95.4187 15.6175C95.5437 15.8675 95.6462 16.1425 95.7262 16.4425C95.8062 16.7425 95.8612 17.0875 95.8912 17.4775C95.9112 17.8125 95.9262 18.125 95.9362 18.415C95.9462 18.705 95.9562 18.98 95.9662 19.24C95.9762 19.62 96.0187 19.8675 96.0937 19.9825C96.1687 20.0975 96.2762 20.155 96.4162 20.155C96.5462 20.155 96.6612 20.12 96.7612 20.05C96.8662 19.975 96.9337 19.8775 96.9637 19.7575L97.7437 21.25C97.6887 21.48 97.5337 21.6725 97.2787 21.8275C97.0237 21.9825 96.7012 22.06 96.3112 22.06C96.0262 22.06 95.7562 22.0125 95.5012 21.9175C95.2462 21.8175 95.0362 21.685 94.8712 21.52C94.7062 21.35 94.6087 21.1575 94.5787 20.9425C94.4987 21.1325 94.3312 21.32 94.0762 21.505C93.8212 21.685 93.4937 21.835 93.0937 21.955C92.6937 22.07 92.2262 22.1275 91.6912 22.1275ZM92.1937 20.365C92.4287 20.365 92.6687 20.33 92.9137 20.26C93.1637 20.185 93.3887 20.0925 93.5887 19.9825C93.7937 19.8725 93.9512 19.76 94.0612 19.645C94.0512 19.49 94.0412 19.33 94.0312 19.165C94.0262 19 94.0262 18.86 94.0312 18.745C93.9212 18.7 93.7112 18.6525 93.4012 18.6025C93.0962 18.5475 92.7762 18.52 92.4412 18.52C92.1362 18.52 91.8512 18.5525 91.5862 18.6175C91.3212 18.6825 91.1037 18.7825 90.9337 18.9175C90.7687 19.0525 90.6862 19.2275 90.6862 19.4425C90.6862 19.6725 90.7487 19.855 90.8737 19.99C90.9987 20.125 91.1737 20.2225 91.3987 20.2825C91.6237 20.3375 91.8887 20.365 92.1937 20.365ZM100.503 22.0825C100.388 22.1025 100.226 22.1175 100.016 22.1275C99.8106 22.1375 99.5981 22.1425 99.3781 22.1425C99.1181 22.1425 98.8756 22.1325 98.6506 22.1125C98.4256 22.0975 98.2606 22.07 98.1556 22.03C98.1956 21.73 98.2306 21.34 98.2606 20.86C98.2956 20.375 98.3231 19.8325 98.3431 19.2325C98.3681 18.6325 98.3806 18.0025 98.3806 17.3425C98.3806 16.6675 98.3681 15.98 98.3431 15.28C98.3231 14.58 98.2956 13.905 98.2606 13.255C98.2256 12.6 98.1931 12.0025 98.1631 11.4625C98.1981 11.4475 98.3081 11.425 98.4931 11.395C98.6781 11.365 98.8931 11.335 99.1381 11.305C99.3831 11.27 99.6156 11.24 99.8356 11.215C100.056 11.19 100.221 11.1775 100.331 11.1775C100.411 11.5525 100.481 12 100.541 12.52C100.601 13.04 100.651 13.61 100.691 14.23C100.731 14.845 100.758 15.49 100.773 16.165C100.943 15.975 101.158 15.805 101.418 15.655C101.678 15.5 101.961 15.38 102.266 15.295C102.576 15.205 102.883 15.16 103.188 15.16C103.798 15.16 104.266 15.2775 104.591 15.5125C104.916 15.7425 105.141 16.08 105.266 16.525C105.396 16.965 105.461 17.5025 105.461 18.1375C105.461 18.5375 105.443 18.9675 105.408 19.4275C105.378 19.8875 105.338 20.34 105.288 20.785C105.238 21.23 105.183 21.63 105.123 21.985C104.948 22.01 104.768 22.03 104.583 22.045C104.398 22.06 104.213 22.0675 104.028 22.0675C103.823 22.0675 103.621 22.0575 103.421 22.0375C103.226 22.0225 103.048 22 102.888 21.97C102.923 21.745 102.961 21.48 103.001 21.175C103.041 20.87 103.078 20.5575 103.113 20.2375C103.148 19.9125 103.176 19.605 103.196 19.315C103.221 19.02 103.233 18.77 103.233 18.565C103.233 18.27 103.203 18.02 103.143 17.815C103.088 17.61 102.996 17.455 102.866 17.35C102.741 17.24 102.571 17.185 102.356 17.185C102.171 17.185 101.996 17.22 101.831 17.29C101.666 17.355 101.513 17.44 101.373 17.545C101.238 17.645 101.118 17.75 101.013 17.86C100.908 17.965 100.826 18.0575 100.766 18.1375C100.766 18.6525 100.753 19.1675 100.728 19.6825C100.703 20.1925 100.671 20.6575 100.631 21.0775C100.591 21.4975 100.548 21.8325 100.503 22.0825ZM111.35 21.82C111.365 21.545 111.38 21.1725 111.395 20.7025C111.41 20.2275 111.423 19.695 111.433 19.105C111.443 18.51 111.448 17.8975 111.448 17.2675C111.448 16.6375 111.443 16.015 111.433 15.4C111.423 14.78 111.41 14.2075 111.395 13.6825C111.38 13.1575 111.365 12.7175 111.35 12.3625C111.495 12.3425 111.723 12.32 112.033 12.295C112.343 12.27 112.665 12.2575 113 12.2575C113.16 12.2575 113.348 12.2625 113.563 12.2725C113.778 12.2825 113.923 12.295 113.998 12.31C114.008 12.57 114.01 12.9 114.005 13.3C114.005 13.7 113.998 14.1475 113.983 14.6425C113.973 15.1375 113.958 15.6625 113.938 16.2175C113.918 16.7675 113.895 17.32 113.87 17.875C113.855 18.17 113.838 18.4575 113.818 18.7375C113.803 19.0125 113.785 19.2475 113.765 19.4425C114.16 19.4175 114.55 19.3975 114.935 19.3825C115.32 19.3675 115.705 19.355 116.09 19.345C116.48 19.335 116.87 19.33 117.26 19.33C117.28 19.46 117.298 19.665 117.313 19.945C117.328 20.225 117.34 20.525 117.35 20.845C117.36 21.16 117.365 21.435 117.365 21.67C116.765 21.75 116.158 21.81 115.543 21.85C114.933 21.885 114.353 21.905 113.803 21.91C113.348 21.915 112.908 21.91 112.483 21.895C112.063 21.875 111.685 21.85 111.35 21.82ZM122.322 22.165C120.997 22.165 120 21.815 119.33 21.115C118.66 20.41 118.325 19.3875 118.325 18.0475C118.325 17.1525 118.497 16.41 118.842 15.82C119.187 15.225 119.665 14.7775 120.275 14.4775C120.89 14.1775 121.6 14.0275 122.405 14.0275C123.225 14.0275 123.905 14.215 124.445 14.59C124.99 14.965 125.397 15.4825 125.667 16.1425C125.937 16.8025 126.072 17.565 126.072 18.43C126.072 19.185 125.927 19.8425 125.637 20.4025C125.347 20.9625 124.922 21.3975 124.362 21.7075C123.807 22.0125 123.127 22.165 122.322 22.165ZM122.24 20.0125C122.515 20.0125 122.757 19.965 122.967 19.87C123.182 19.775 123.362 19.64 123.507 19.465C123.657 19.285 123.77 19.075 123.845 18.835C123.92 18.595 123.957 18.3325 123.957 18.0475C123.957 17.6025 123.892 17.21 123.762 16.87C123.637 16.525 123.45 16.2575 123.2 16.0675C122.955 15.8725 122.65 15.775 122.285 15.775C121.89 15.775 121.567 15.875 121.317 16.075C121.067 16.275 120.882 16.5375 120.762 16.8625C120.647 17.1825 120.59 17.525 120.59 17.89C120.59 18.505 120.73 19.0125 121.01 19.4125C121.295 19.8125 121.705 20.0125 122.24 20.0125ZM132.5 22.39C132.43 22.24 132.32 22.0475 132.17 21.8125C132.025 21.5725 131.858 21.32 131.668 21.055C131.483 20.785 131.288 20.5225 131.083 20.2675C130.883 20.0125 130.69 19.79 130.505 19.6C130.32 19.405 130.16 19.2675 130.025 19.1875C129.955 19.2325 129.868 19.2975 129.763 19.3825C129.658 19.4625 129.56 19.54 129.47 19.615C129.38 19.69 129.318 19.745 129.283 19.78C129.278 19.995 129.27 20.22 129.26 20.455C129.25 20.69 129.24 20.92 129.23 21.145C129.22 21.365 129.208 21.5675 129.193 21.7525C129.183 21.9325 129.173 22.075 129.163 22.18C128.978 22.2 128.793 22.215 128.608 22.225C128.423 22.235 128.238 22.24 128.053 22.24C127.813 22.24 127.585 22.23 127.37 22.21C127.155 22.195 126.968 22.18 126.808 22.165C126.813 22.045 126.825 21.7825 126.845 21.3775C126.87 20.9675 126.895 20.465 126.92 19.87C126.95 19.27 126.98 18.62 127.01 17.92C127.045 17.215 127.078 16.5075 127.108 15.7975C127.143 15.0825 127.173 14.41 127.198 13.78C127.228 13.145 127.25 12.5975 127.265 12.1375C127.28 11.6725 127.288 11.3425 127.288 11.1475C127.448 11.1325 127.613 11.12 127.783 11.11C127.953 11.1 128.12 11.095 128.285 11.095C128.52 11.095 128.748 11.1075 128.968 11.1325C129.193 11.1575 129.4 11.1975 129.59 11.2525C129.59 11.6425 129.585 12.07 129.575 12.535C129.57 13 129.558 13.4725 129.538 13.9525C129.523 14.4325 129.505 14.89 129.485 15.325C129.465 15.76 129.445 16.1475 129.425 16.4875C129.41 16.8225 129.395 17.0775 129.38 17.2525C129.635 16.9875 129.933 16.7175 130.273 16.4425C130.613 16.1675 130.965 15.9025 131.33 15.6475C131.695 15.3875 132.048 15.145 132.388 14.92C132.733 14.69 133.033 14.49 133.288 14.32C133.368 14.395 133.468 14.5075 133.588 14.6575C133.708 14.8025 133.83 14.965 133.955 15.145C134.085 15.32 134.205 15.49 134.315 15.655C134.425 15.82 134.513 15.9575 134.578 16.0675C134.378 16.1925 134.143 16.3425 133.873 16.5175C133.603 16.6875 133.325 16.865 133.04 17.05C132.76 17.235 132.5 17.41 132.26 17.575C132.02 17.74 131.833 17.8725 131.698 17.9725C131.828 18.0575 131.985 18.1875 132.17 18.3625C132.355 18.5375 132.555 18.7425 132.77 18.9775C132.99 19.2125 133.213 19.47 133.438 19.75C133.663 20.025 133.885 20.315 134.105 20.62C134.325 20.92 134.525 21.2225 134.705 21.5275C134.63 21.5725 134.495 21.6375 134.3 21.7225C134.105 21.8025 133.888 21.89 133.648 21.985C133.408 22.08 133.183 22.165 132.973 22.24C132.763 22.315 132.605 22.365 132.5 22.39ZM138.244 22.1275C137.629 22.1275 137.066 22.045 136.556 21.88C136.046 21.71 135.639 21.4375 135.334 21.0625C135.034 20.6825 134.884 20.18 134.884 19.555C134.884 18.93 135.059 18.4275 135.409 18.0475C135.764 17.6625 136.229 17.385 136.804 17.215C137.384 17.04 138.006 16.9525 138.671 16.9525C138.931 16.9525 139.181 16.9725 139.421 17.0125C139.661 17.0525 139.871 17.1 140.051 17.155C140.236 17.21 140.369 17.2625 140.449 17.3125C140.444 17.1825 140.416 17.045 140.366 16.9C140.321 16.755 140.256 16.6325 140.171 16.5325C140.021 16.3275 139.816 16.1575 139.556 16.0225C139.301 15.8825 138.964 15.8125 138.544 15.8125C138.119 15.8125 137.744 15.91 137.419 16.105C137.094 16.295 136.846 16.51 136.676 16.75L134.846 15.5725C135.071 15.2525 135.374 14.9725 135.754 14.7325C136.139 14.4925 136.574 14.305 137.059 14.17C137.549 14.035 138.061 13.9675 138.596 13.9675C139.481 13.9675 140.199 14.1125 140.749 14.4025C141.299 14.6925 141.706 15.0975 141.971 15.6175C142.096 15.8675 142.199 16.1425 142.279 16.4425C142.359 16.7425 142.414 17.0875 142.444 17.4775C142.464 17.8125 142.479 18.125 142.489 18.415C142.499 18.705 142.509 18.98 142.519 19.24C142.529 19.62 142.571 19.8675 142.646 19.9825C142.721 20.0975 142.829 20.155 142.969 20.155C143.099 20.155 143.214 20.12 143.314 20.05C143.419 19.975 143.486 19.8775 143.516 19.7575L144.296 21.25C144.241 21.48 144.086 21.6725 143.831 21.8275C143.576 21.9825 143.254 22.06 142.864 22.06C142.579 22.06 142.309 22.0125 142.054 21.9175C141.799 21.8175 141.589 21.685 141.424 21.52C141.259 21.35 141.161 21.1575 141.131 20.9425C141.051 21.1325 140.884 21.32 140.629 21.505C140.374 21.685 140.046 21.835 139.646 21.955C139.246 22.07 138.779 22.1275 138.244 22.1275ZM138.746 20.365C138.981 20.365 139.221 20.33 139.466 20.26C139.716 20.185 139.941 20.0925 140.141 19.9825C140.346 19.8725 140.504 19.76 140.614 19.645C140.604 19.49 140.594 19.33 140.584 19.165C140.579 19 140.579 18.86 140.584 18.745C140.474 18.7 140.264 18.6525 139.954 18.6025C139.649 18.5475 139.329 18.52 138.994 18.52C138.689 18.52 138.404 18.5525 138.139 18.6175C137.874 18.6825 137.656 18.7825 137.486 18.9175C137.321 19.0525 137.239 19.2275 137.239 19.4425C137.239 19.6725 137.301 19.855 137.426 19.99C137.551 20.125 137.726 20.2225 137.951 20.2825C138.176 20.3375 138.441 20.365 138.746 20.365ZM148.983 21.6475C148.843 21.7975 148.581 21.9425 148.196 22.0825C147.816 22.2275 147.391 22.3 146.921 22.3C146.311 22.3 145.846 22.1575 145.526 21.8725C145.211 21.5875 144.998 21.185 144.888 20.665C144.778 20.14 144.723 19.53 144.723 18.835C144.723 18.29 144.728 17.7425 144.738 17.1925C144.748 16.6425 144.761 16.0975 144.776 15.5575C144.796 15.0175 144.816 14.495 144.836 13.99C144.861 13.48 144.883 12.9975 144.903 12.5425C144.928 12.0825 144.953 11.6625 144.978 11.2825C145.333 11.2575 145.661 11.245 145.961 11.245C146.156 11.245 146.348 11.25 146.538 11.26C146.728 11.27 146.938 11.285 147.168 11.305C147.143 11.74 147.113 12.2225 147.078 12.7525C147.048 13.2775 147.018 13.815 146.988 14.365C146.963 14.915 146.938 15.4475 146.913 15.9625C146.888 16.4775 146.868 16.945 146.853 17.365C146.843 17.78 146.838 18.1125 146.838 18.3625C146.838 18.6875 146.851 18.99 146.876 19.27C146.906 19.545 146.971 19.77 147.071 19.945C147.171 20.115 147.321 20.2 147.521 20.2C147.691 20.2 147.828 20.1625 147.933 20.0875C148.043 20.0075 148.133 19.9075 148.203 19.7875C148.238 19.8475 148.293 19.9675 148.368 20.1475C148.443 20.3225 148.526 20.5175 148.616 20.7325C148.706 20.9475 148.786 21.1425 148.856 21.3175C148.926 21.4875 148.968 21.5975 148.983 21.6475ZM149.805 22.24C149.805 21.955 149.797 21.5775 149.782 21.1075C149.772 20.6325 149.757 20.1 149.737 19.51C149.717 18.92 149.692 18.3 149.662 17.65C149.632 17 149.602 16.3525 149.572 15.7075C149.542 15.0575 149.512 14.44 149.482 13.855C149.457 13.265 149.43 12.74 149.4 12.28C149.575 12.245 149.775 12.2225 150 12.2125C150.225 12.1975 150.437 12.19 150.637 12.19C150.872 12.19 151.092 12.2 151.297 12.22C151.507 12.235 151.67 12.2525 151.785 12.2725C151.79 12.4025 151.797 12.6125 151.807 12.9025C151.817 13.1875 151.83 13.5175 151.845 13.8925C151.86 14.2675 151.875 14.65 151.89 15.04C151.91 15.43 151.927 15.79 151.942 16.12C152.137 15.95 152.35 15.73 152.58 15.46C152.815 15.185 153.057 14.8725 153.307 14.5225C153.562 14.1725 153.812 13.7975 154.057 13.3975C154.302 12.9975 154.535 12.5825 154.755 12.1525C155.145 12.4525 155.53 12.7175 155.91 12.9475C156.295 13.1725 156.567 13.3275 156.727 13.4125C156.667 13.5525 156.55 13.7575 156.375 14.0275C156.2 14.2975 155.987 14.5975 155.737 14.9275C155.492 15.2575 155.222 15.5875 154.927 15.9175C154.632 16.2475 154.335 16.54 154.035 16.795C154.28 17.075 154.53 17.3825 154.785 17.7175C155.04 18.0475 155.282 18.3825 155.512 18.7225C155.747 19.0575 155.962 19.3775 156.157 19.6825C156.352 19.9875 156.515 20.255 156.645 20.485C156.78 20.715 156.87 20.885 156.915 20.995C156.79 21.08 156.602 21.19 156.352 21.325C156.102 21.46 155.835 21.5925 155.55 21.7225C155.27 21.8525 155.017 21.9525 154.792 22.0225C154.742 21.8975 154.657 21.72 154.537 21.49C154.417 21.255 154.277 20.9925 154.117 20.7025C153.957 20.4075 153.785 20.1075 153.6 19.8025C153.42 19.4975 153.24 19.2075 153.06 18.9325C152.88 18.6575 152.712 18.425 152.557 18.235C152.477 18.3 152.397 18.3575 152.317 18.4075C152.237 18.4525 152.162 18.495 152.092 18.535C152.117 18.84 152.142 19.1775 152.167 19.5475C152.192 19.9125 152.215 20.2675 152.235 20.6125C152.255 20.9575 152.27 21.255 152.28 21.505C152.295 21.755 152.302 21.915 152.302 21.985C152.212 21.99 152.032 22.005 151.762 22.03C151.492 22.055 151.182 22.085 150.832 22.12C150.487 22.16 150.145 22.2 149.805 22.24ZM161.331 22.165C160.006 22.165 159.009 21.815 158.339 21.115C157.669 20.41 157.334 19.3875 157.334 18.0475C157.334 17.1525 157.506 16.41 157.851 15.82C158.196 15.225 158.674 14.7775 159.284 14.4775C159.899 14.1775 160.609 14.0275 161.414 14.0275C162.234 14.0275 162.914 14.215 163.454 14.59C163.999 14.965 164.406 15.4825 164.676 16.1425C164.946 16.8025 165.081 17.565 165.081 18.43C165.081 19.185 164.936 19.8425 164.646 20.4025C164.356 20.9625 163.931 21.3975 163.371 21.7075C162.816 22.0125 162.136 22.165 161.331 22.165ZM161.249 20.0125C161.524 20.0125 161.766 19.965 161.976 19.87C162.191 19.775 162.371 19.64 162.516 19.465C162.666 19.285 162.779 19.075 162.854 18.835C162.929 18.595 162.966 18.3325 162.966 18.0475C162.966 17.6025 162.901 17.21 162.771 16.87C162.646 16.525 162.459 16.2575 162.209 16.0675C161.964 15.8725 161.659 15.775 161.294 15.775C160.899 15.775 160.576 15.875 160.326 16.075C160.076 16.275 159.891 16.5375 159.771 16.8625C159.656 17.1825 159.599 17.525 159.599 17.89C159.599 18.505 159.739 19.0125 160.019 19.4125C160.304 19.8125 160.714 20.0125 161.249 20.0125ZM168.673 22.0975C168.523 22.1025 168.338 22.1025 168.118 22.0975C167.898 22.0975 167.673 22.095 167.443 22.09C167.258 22.085 167.045 22.0775 166.805 22.0675C166.565 22.0575 166.398 22.0475 166.303 22.0375C166.348 21.6175 166.385 21.1425 166.415 20.6125C166.45 20.0825 166.478 19.495 166.498 18.85C166.518 18.205 166.533 17.5 166.543 16.735C166.553 15.97 166.558 15.1425 166.558 14.2525C166.748 14.2275 166.973 14.2075 167.233 14.1925C167.493 14.1775 167.755 14.17 168.02 14.17C168.205 14.17 168.383 14.175 168.553 14.185C168.728 14.19 168.883 14.205 169.018 14.23C169.018 14.275 169.018 14.3675 169.018 14.5075C169.023 14.6425 169.023 14.7925 169.018 14.9575C169.018 15.1175 169.015 15.2625 169.01 15.3925C169.14 15.2025 169.353 15.005 169.648 14.8C169.943 14.59 170.285 14.4125 170.675 14.2675C171.065 14.1225 171.468 14.05 171.883 14.05C172.648 14.05 173.233 14.205 173.638 14.515C174.043 14.82 174.32 15.28 174.47 15.895C174.62 16.505 174.695 17.27 174.695 18.19C174.695 18.51 174.685 18.885 174.665 19.315C174.65 19.74 174.625 20.1875 174.59 20.6575C174.555 21.1275 174.51 21.5825 174.455 22.0225C174.355 22.0325 174.195 22.04 173.975 22.045C173.76 22.055 173.533 22.06 173.293 22.06C173.038 22.06 172.795 22.055 172.565 22.045C172.335 22.04 172.165 22.0325 172.055 22.0225C172.11 21.7425 172.17 21.3925 172.235 20.9725C172.3 20.5525 172.355 20.105 172.4 19.63C172.445 19.15 172.468 18.6925 172.468 18.2575C172.468 17.8375 172.433 17.4725 172.363 17.1625C172.298 16.8525 172.17 16.6125 171.98 16.4425C171.795 16.2675 171.52 16.18 171.155 16.18C170.855 16.18 170.568 16.2325 170.293 16.3375C170.018 16.4425 169.768 16.5725 169.543 16.7275C169.318 16.8775 169.125 17.025 168.965 17.17C168.96 17.96 168.94 18.675 168.905 19.315C168.87 19.95 168.833 20.5025 168.793 20.9725C168.753 21.4375 168.713 21.8125 168.673 22.0975ZM181.806 21.0175C181.711 21.2025 181.561 21.4 181.356 21.61C181.156 21.815 180.894 21.99 180.569 22.135C180.249 22.285 179.859 22.36 179.399 22.36C178.794 22.36 178.299 22.2325 177.914 21.9775C177.534 21.7225 177.251 21.3825 177.066 20.9575C176.886 20.5325 176.796 20.0675 176.796 19.5625C176.796 19.2875 176.799 18.995 176.804 18.685C176.814 18.37 176.824 18.06 176.834 17.755C176.844 17.445 176.854 17.1525 176.864 16.8775C176.879 16.5975 176.891 16.3525 176.901 16.1425C176.916 15.9325 176.926 15.77 176.931 15.655C176.536 15.695 176.171 15.74 175.836 15.79C175.501 15.835 175.269 15.8725 175.139 15.9025C175.089 15.6225 175.051 15.3375 175.026 15.0475C175.001 14.7575 174.981 14.505 174.966 14.29C174.956 14.075 174.951 13.9425 174.951 13.8925C175.241 13.8525 175.551 13.8175 175.881 13.7875C176.211 13.7525 176.559 13.7275 176.924 13.7125C176.919 13.5925 176.914 13.405 176.909 13.15C176.904 12.895 176.896 12.665 176.886 12.46C176.881 12.275 176.871 12.09 176.856 11.905C176.841 11.715 176.829 11.5625 176.819 11.4475L179.039 11.2525C179.039 11.3125 179.039 11.4525 179.039 11.6725C179.044 11.8925 179.046 12.1575 179.046 12.4675C179.046 12.6225 179.049 12.8025 179.054 13.0075C179.059 13.2075 179.064 13.405 179.069 13.6C179.234 13.59 179.426 13.58 179.646 13.57C179.866 13.56 180.041 13.5525 180.171 13.5475C180.381 13.5375 180.571 13.5325 180.741 13.5325C180.911 13.5275 181.051 13.525 181.161 13.525C181.276 13.525 181.354 13.5275 181.394 13.5325C181.424 13.7675 181.444 14.0675 181.454 14.4325C181.464 14.7925 181.469 15.1125 181.469 15.3925C181.419 15.3875 181.256 15.39 180.981 15.4C180.706 15.405 180.436 15.415 180.171 15.43C179.986 15.435 179.781 15.445 179.556 15.46C179.331 15.475 179.154 15.49 179.024 15.505C179.019 15.61 179.011 15.755 179.001 15.94C178.996 16.12 178.989 16.325 178.979 16.555C178.974 16.78 178.966 17.015 178.956 17.26C178.951 17.5 178.946 17.7325 178.941 17.9575C178.936 18.1825 178.934 18.3825 178.934 18.5575C178.934 18.8875 178.949 19.185 178.979 19.45C179.014 19.71 179.086 19.9175 179.196 20.0725C179.311 20.2225 179.486 20.2975 179.721 20.2975C179.876 20.2975 180.009 20.2525 180.119 20.1625C180.229 20.0725 180.319 19.9675 180.389 19.8475C180.464 19.7225 180.529 19.6125 180.584 19.5175C180.649 19.6075 180.739 19.7275 180.854 19.8775C180.974 20.0225 181.099 20.175 181.229 20.335C181.364 20.495 181.484 20.6375 181.589 20.7625C181.699 20.8875 181.771 20.9725 181.806 21.0175ZM189.52 20.6575C189.38 20.8275 189.205 20.995 188.995 21.16C188.785 21.325 188.533 21.475 188.238 21.61C187.948 21.74 187.615 21.845 187.24 21.925C186.865 22 186.445 22.0375 185.98 22.0375C185.225 22.0375 184.555 21.895 183.97 21.61C183.385 21.32 182.928 20.8925 182.598 20.3275C182.273 19.7575 182.11 19.05 182.11 18.205C182.11 17.36 182.28 16.625 182.62 16C182.96 15.37 183.435 14.8825 184.045 14.5375C184.655 14.1875 185.368 14.0125 186.183 14.0125C187.213 14.0125 188.023 14.3 188.613 14.875C189.208 15.445 189.518 16.235 189.543 17.245C189.548 17.43 189.545 17.5975 189.535 17.7475C189.525 17.8975 189.505 18.0575 189.475 18.2275C189.4 18.2225 189.24 18.2175 188.995 18.2125C188.75 18.2075 188.473 18.2025 188.163 18.1975C187.858 18.1875 187.568 18.18 187.293 18.175C187.023 18.17 186.823 18.1675 186.693 18.1675C186.258 18.1675 185.835 18.1875 185.425 18.2275C185.02 18.2675 184.68 18.31 184.405 18.355C184.405 18.445 184.41 18.535 184.42 18.625C184.435 18.71 184.455 18.7925 184.48 18.8725C184.545 19.0775 184.658 19.2525 184.818 19.3975C184.983 19.5425 185.178 19.655 185.403 19.735C185.633 19.81 185.875 19.8475 186.13 19.8475C186.36 19.8475 186.57 19.82 186.76 19.765C186.955 19.705 187.133 19.6275 187.293 19.5325C187.453 19.4375 187.598 19.335 187.728 19.225C187.863 19.11 187.988 18.9975 188.103 18.8875C188.133 18.9125 188.21 18.9875 188.335 19.1125C188.46 19.2325 188.6 19.3825 188.755 19.5625C188.91 19.7375 189.058 19.9225 189.198 20.1175C189.338 20.3125 189.445 20.4925 189.52 20.6575ZM184.488 16.9525C184.713 16.9175 184.99 16.885 185.32 16.855C185.65 16.825 186.033 16.81 186.468 16.81C186.703 16.81 186.91 16.8125 187.09 16.8175C187.275 16.8225 187.405 16.8275 187.48 16.8325C187.48 16.7275 187.465 16.6125 187.435 16.4875C187.395 16.3175 187.315 16.155 187.195 16C187.08 15.845 186.93 15.72 186.745 15.625C186.565 15.53 186.348 15.4825 186.093 15.4825C185.773 15.4825 185.493 15.5525 185.253 15.6925C185.018 15.8325 184.835 16.015 184.705 16.24C184.575 16.465 184.503 16.7025 184.488 16.9525ZM193.077 22.0975C192.927 22.1025 192.742 22.1025 192.522 22.0975C192.302 22.0975 192.077 22.095 191.847 22.09C191.662 22.085 191.449 22.0775 191.209 22.0675C190.969 22.0575 190.802 22.0475 190.707 22.0375C190.752 21.6175 190.789 21.1425 190.819 20.6125C190.854 20.0825 190.882 19.495 190.902 18.85C190.922 18.205 190.937 17.5 190.947 16.735C190.957 15.97 190.962 15.1425 190.962 14.2525C191.152 14.2275 191.377 14.2075 191.637 14.1925C191.897 14.1775 192.159 14.17 192.424 14.17C192.609 14.17 192.787 14.175 192.957 14.185C193.132 14.19 193.287 14.205 193.422 14.23C193.422 14.275 193.422 14.3675 193.422 14.5075C193.427 14.6425 193.427 14.7925 193.422 14.9575C193.422 15.1175 193.419 15.2625 193.414 15.3925C193.544 15.2025 193.757 15.005 194.052 14.8C194.347 14.59 194.689 14.4125 195.079 14.2675C195.469 14.1225 195.872 14.05 196.287 14.05C197.052 14.05 197.637 14.205 198.042 14.515C198.447 14.82 198.724 15.28 198.874 15.895C199.024 16.505 199.099 17.27 199.099 18.19C199.099 18.51 199.089 18.885 199.069 19.315C199.054 19.74 199.029 20.1875 198.994 20.6575C198.959 21.1275 198.914 21.5825 198.859 22.0225C198.759 22.0325 198.599 22.04 198.379 22.045C198.164 22.055 197.937 22.06 197.697 22.06C197.442 22.06 197.199 22.055 196.969 22.045C196.739 22.04 196.569 22.0325 196.459 22.0225C196.514 21.7425 196.574 21.3925 196.639 20.9725C196.704 20.5525 196.759 20.105 196.804 19.63C196.849 19.15 196.872 18.6925 196.872 18.2575C196.872 17.8375 196.837 17.4725 196.767 17.1625C196.702 16.8525 196.574 16.6125 196.384 16.4425C196.199 16.2675 195.924 16.18 195.559 16.18C195.259 16.18 194.972 16.2325 194.697 16.3375C194.422 16.4425 194.172 16.5725 193.947 16.7275C193.722 16.8775 193.529 17.025 193.369 17.17C193.364 17.96 193.344 18.675 193.309 19.315C193.274 19.95 193.237 20.5025 193.197 20.9725C193.157 21.4375 193.117 21.8125 193.077 22.0975Z" fill="white"/>
</svg>
