<svg width="200" height="38" viewBox="0 0 200 38" fill="none" xmlns="http://www.w3.org/2000/svg">
<path d="M3.48096 32.7233C1.11762 29.9368 -0.654895 6.84935 3.48096 4.36149C7.61682 1.87363 74.3813 3.36635 109.241 4.36149C144.1 5.35663 190.185 3.8639 196.094 5.35663C202.002 6.84935 200.289 33.4199 196.98 36.2063C192.844 39.6893 119.285 37.2014 101.855 36.2063C84.4255 35.2111 6.43514 36.2063 3.48096 32.7233Z" fill="#214868"/>
<path d="M2.48096 29.7233C0.117618 26.9368 -1.65489 3.84935 2.48096 1.36149C6.61682 -1.12637 73.3813 0.366353 108.241 1.36149C143.1 2.35663 189.185 0.863904 195.094 2.35663C201.002 3.84935 199.289 30.4199 195.98 33.2063C191.844 36.6893 118.285 34.2014 100.855 33.2063C83.4255 32.2111 5.43514 33.2063 2.48096 29.7233Z" fill="#3387DC"/>
<path d="M25 7C23.0222 7 21.0888 7.58649 19.4443 8.6853C17.7998 9.78412 16.5181 11.3459 15.7612 13.1732C15.0043 15.0004 14.8063 17.0111 15.1922 18.9509C15.578 20.8907 16.5304 22.6725 17.9289 24.0711C19.3275 25.4696 21.1093 26.422 23.0491 26.8079C24.9889 27.1937 26.9996 26.9957 28.8268 26.2388C30.6541 25.4819 32.2159 24.2002 33.3147 22.5557C34.4135 20.9112 35 18.9778 35 17C35 15.6868 34.7413 14.3864 34.2388 13.1732C33.7363 11.9599 32.9997 10.8575 32.0711 9.92893C31.1425 9.00035 30.0401 8.26375 28.8268 7.7612C27.6136 7.25866 26.3132 7 25 7V7ZM25 25C23.4178 25 21.871 24.5308 20.5554 23.6518C19.2398 22.7727 18.2145 21.5233 17.609 20.0615C17.0035 18.5997 16.845 16.9911 17.1537 15.4393C17.4624 13.8874 18.2243 12.462 19.3432 11.3431C20.462 10.2243 21.8874 9.4624 23.4393 9.15372C24.9911 8.84504 26.5997 9.00346 28.0615 9.60896C29.5233 10.2145 30.7727 11.2398 31.6518 12.5554C32.5308 13.871 33 15.4177 33 17C33 19.1217 32.1572 21.1566 30.6569 22.6569C29.1566 24.1571 27.1217 25 25 25V25ZM29 16H26V13C26 12.7348 25.8946 12.4804 25.7071 12.2929C25.5196 12.1054 25.2652 12 25 12C24.7348 12 24.4804 12.1054 24.2929 12.2929C24.1054 12.4804 24 12.7348 24 13V16H21C20.7348 16 20.4804 16.1054 20.2929 16.2929C20.1054 16.4804 20 16.7348 20 17C20 17.2652 20.1054 17.5196 20.2929 17.7071C20.4804 17.8946 20.7348 18 21 18H24V21C24 21.2652 24.1054 21.5196 24.2929 21.7071C24.4804 21.8946 24.7348 22 25 22C25.2652 22 25.5196 21.8946 25.7071 21.7071C25.8946 21.5196 26 21.2652 26 21V18H29C29.2652 18 29.5196 17.8946 29.7071 17.7071C29.8946 17.5196 30 17.2652 30 17C30 16.7348 29.8946 16.4804 29.7071 16.2929C29.5196 16.1054 29.2652 16 29 16Z" fill="white"/>
<path d="M43.6921 14.2225C43.6671 14.1125 43.6446 13.9575 43.6246 13.7575C43.6096 13.5525 43.5946 13.34 43.5796 13.12C43.5696 12.895 43.5596 12.695 43.5496 12.52C43.5446 12.34 43.5421 12.2175 43.5421 12.1525C44.1021 12.1125 44.7396 12.0775 45.4546 12.0475C46.1746 12.0125 46.9021 11.995 47.6371 11.995C48.1921 11.995 48.7321 12.0075 49.2571 12.0325C49.7871 12.0525 50.2696 12.095 50.7046 12.16C50.7096 12.575 50.6971 12.9625 50.6671 13.3225C50.6371 13.6775 50.6021 13.945 50.5621 14.125C50.4671 14.125 50.3296 14.125 50.1496 14.125C49.9696 14.12 49.7696 14.1175 49.5496 14.1175C49.3346 14.1125 49.1221 14.11 48.9121 14.11C48.7021 14.105 48.5196 14.1 48.3646 14.095C48.3696 14.28 48.3796 14.555 48.3946 14.92C48.4096 15.28 48.4271 15.6925 48.4471 16.1575C48.4671 16.6225 48.4896 17.11 48.5146 17.62C48.5396 18.13 48.5621 18.63 48.5821 19.12C48.6071 19.61 48.6271 20.06 48.6421 20.47C48.6621 20.875 48.6771 21.21 48.6871 21.475C48.7021 21.735 48.7096 21.89 48.7096 21.94C48.5096 21.97 48.2496 21.9975 47.9296 22.0225C47.6096 22.0475 47.2896 22.0675 46.9696 22.0825C46.6546 22.0975 46.3971 22.105 46.1971 22.105C46.1821 21.81 46.1671 21.455 46.1521 21.04C46.1371 20.62 46.1246 20.1675 46.1146 19.6825C46.1046 19.1925 46.0946 18.6925 46.0846 18.1825C46.0746 17.6675 46.0671 17.165 46.0621 16.675C46.0571 16.185 46.0546 15.735 46.0546 15.325C46.0546 15.095 46.0546 14.88 46.0546 14.68C46.0546 14.48 46.0571 14.3 46.0621 14.14C45.8921 14.15 45.7071 14.16 45.5071 14.17C45.3071 14.175 45.1021 14.1825 44.8921 14.1925C44.6821 14.2025 44.4746 14.21 44.2696 14.215C44.0646 14.22 43.8721 14.2225 43.6921 14.2225ZM54.6414 22.1275C54.0264 22.1275 53.4639 22.045 52.9539 21.88C52.4439 21.71 52.0364 21.4375 51.7314 21.0625C51.4314 20.6825 51.2814 20.18 51.2814 19.555C51.2814 18.93 51.4564 18.4275 51.8064 18.0475C52.1614 17.6625 52.6264 17.385 53.2014 17.215C53.7814 17.04 54.4039 16.9525 55.0689 16.9525C55.3289 16.9525 55.5789 16.9725 55.8189 17.0125C56.0589 17.0525 56.2689 17.1 56.4489 17.155C56.6339 17.21 56.7664 17.2625 56.8464 17.3125C56.8414 17.1825 56.8139 17.045 56.7639 16.9C56.7189 16.755 56.6539 16.6325 56.5689 16.5325C56.4189 16.3275 56.2139 16.1575 55.9539 16.0225C55.6989 15.8825 55.3614 15.8125 54.9414 15.8125C54.5164 15.8125 54.1414 15.91 53.8164 16.105C53.4914 16.295 53.2439 16.51 53.0739 16.75L51.2439 15.5725C51.4689 15.2525 51.7714 14.9725 52.1514 14.7325C52.5364 14.4925 52.9714 14.305 53.4564 14.17C53.9464 14.035 54.4589 13.9675 54.9939 13.9675C55.8789 13.9675 56.5964 14.1125 57.1464 14.4025C57.6964 14.6925 58.1039 15.0975 58.3689 15.6175C58.4939 15.8675 58.5964 16.1425 58.6764 16.4425C58.7564 16.7425 58.8114 17.0875 58.8414 17.4775C58.8614 17.8125 58.8764 18.125 58.8864 18.415C58.8964 18.705 58.9064 18.98 58.9164 19.24C58.9264 19.62 58.9689 19.8675 59.0439 19.9825C59.1189 20.0975 59.2264 20.155 59.3664 20.155C59.4964 20.155 59.6114 20.12 59.7114 20.05C59.8164 19.975 59.8839 19.8775 59.9139 19.7575L60.6939 21.25C60.6389 21.48 60.4839 21.6725 60.2289 21.8275C59.9739 21.9825 59.6514 22.06 59.2614 22.06C58.9764 22.06 58.7064 22.0125 58.4514 21.9175C58.1964 21.8175 57.9864 21.685 57.8214 21.52C57.6564 21.35 57.5589 21.1575 57.5289 20.9425C57.4489 21.1325 57.2814 21.32 57.0264 21.505C56.7714 21.685 56.4439 21.835 56.0439 21.955C55.6439 22.07 55.1764 22.1275 54.6414 22.1275ZM55.1439 20.365C55.3789 20.365 55.6189 20.33 55.8639 20.26C56.1139 20.185 56.3389 20.0925 56.5389 19.9825C56.7439 19.8725 56.9014 19.76 57.0114 19.645C57.0014 19.49 56.9914 19.33 56.9814 19.165C56.9764 19 56.9764 18.86 56.9814 18.745C56.8714 18.7 56.6614 18.6525 56.3514 18.6025C56.0464 18.5475 55.7264 18.52 55.3914 18.52C55.0864 18.52 54.8014 18.5525 54.5364 18.6175C54.2714 18.6825 54.0539 18.7825 53.8839 18.9175C53.7189 19.0525 53.6364 19.2275 53.6364 19.4425C53.6364 19.6725 53.6989 19.855 53.8239 19.99C53.9489 20.125 54.1239 20.2225 54.3489 20.2825C54.5739 20.3375 54.8389 20.365 55.1439 20.365ZM61.5333 22.06C61.5083 21.735 61.4833 21.32 61.4583 20.815C61.4383 20.31 61.4183 19.7625 61.3983 19.1725C61.3833 18.5775 61.3683 17.9875 61.3533 17.4025C61.3433 16.8175 61.3358 16.2775 61.3308 15.7825C61.3258 15.2825 61.3233 14.88 61.3233 14.575C61.4433 14.545 61.6033 14.515 61.8033 14.485C62.0033 14.45 62.2158 14.42 62.4408 14.395C62.6658 14.365 62.8783 14.3425 63.0783 14.3275C63.2833 14.3075 63.4483 14.2975 63.5733 14.2975C63.5783 14.3775 63.5833 14.48 63.5883 14.605C63.5933 14.725 63.5958 14.85 63.5958 14.98C63.6008 15.11 63.6033 15.2275 63.6033 15.3325C63.6033 15.4375 63.6033 15.5175 63.6033 15.5725C63.6333 15.4775 63.7033 15.355 63.8133 15.205C63.9233 15.055 64.0733 14.905 64.2633 14.755C64.4583 14.605 64.6933 14.48 64.9683 14.38C65.2433 14.275 65.5608 14.2225 65.9208 14.2225C66.2658 14.2225 66.5583 14.2875 66.7983 14.4175C67.0383 14.5475 67.2383 14.7175 67.3983 14.9275C67.5583 15.1375 67.6833 15.365 67.7733 15.61C67.8183 15.73 67.8533 15.8525 67.8783 15.9775C67.9083 16.1025 67.9308 16.225 67.9458 16.345C68.0558 15.98 68.2383 15.6325 68.4933 15.3025C68.7533 14.9675 69.0758 14.695 69.4608 14.485C69.8458 14.27 70.2883 14.1625 70.7883 14.1625C71.3883 14.1625 71.8808 14.27 72.2658 14.485C72.6558 14.7 72.9583 15.0175 73.1733 15.4375C73.3883 15.8575 73.5383 16.3725 73.6233 16.9825C73.7083 17.5925 73.7508 18.29 73.7508 19.075C73.7508 19.385 73.7433 19.71 73.7283 20.05C73.7183 20.39 73.7033 20.7325 73.6833 21.0775C73.6633 21.4225 73.6433 21.7575 73.6233 22.0825C73.4433 22.0925 73.2558 22.1 73.0608 22.105C72.8658 22.115 72.6708 22.12 72.4758 22.12C72.2808 22.12 72.0808 22.115 71.8758 22.105C71.6758 22.1 71.4733 22.09 71.2683 22.075C71.3683 21.33 71.4508 20.645 71.5158 20.02C71.5808 19.39 71.6133 18.8375 71.6133 18.3625C71.6133 17.6675 71.5333 17.1375 71.3733 16.7725C71.2183 16.4075 70.9508 16.225 70.5708 16.225C70.2258 16.225 69.9458 16.33 69.7308 16.54C69.5158 16.75 69.3483 17.04 69.2283 17.41C69.1083 17.78 69.0208 18.21 68.9658 18.7C68.9158 19.185 68.8808 19.705 68.8608 20.26C68.8508 20.54 68.8408 20.8325 68.8308 21.1375C68.8208 21.4425 68.8158 21.7525 68.8158 22.0675C68.7158 22.0725 68.5733 22.0775 68.3883 22.0825C68.2083 22.0925 68.0183 22.0975 67.8183 22.0975C67.5833 22.0975 67.3558 22.0925 67.1358 22.0825C66.9208 22.0775 66.7633 22.0675 66.6633 22.0525C66.6583 21.7125 66.6558 21.3925 66.6558 21.0925C66.6558 20.7925 66.6558 20.485 66.6558 20.17C66.6558 19.6 66.6408 19.075 66.6108 18.595C66.5858 18.11 66.5308 17.69 66.4458 17.335C66.3608 16.975 66.2333 16.695 66.0633 16.495C65.8983 16.295 65.6733 16.195 65.3883 16.195C65.1933 16.195 65.0033 16.2375 64.8183 16.3225C64.6333 16.4075 64.4633 16.5175 64.3083 16.6525C64.1583 16.7875 64.0308 16.9375 63.9258 17.1025C63.8258 17.2625 63.7558 17.4225 63.7158 17.5825C63.7458 18.3775 63.7783 19.1025 63.8133 19.7575C63.8483 20.4125 63.8808 20.9475 63.9108 21.3625C63.9408 21.7725 63.9608 22.02 63.9708 22.105C63.9158 22.11 63.8008 22.115 63.6258 22.12C63.4508 22.125 63.2983 22.1275 63.1683 22.1275C62.8533 22.1275 62.5383 22.12 62.2233 22.105C61.9083 22.09 61.6783 22.075 61.5333 22.06ZM75.3815 22.0525C75.3665 21.8775 75.3515 21.585 75.3365 21.175C75.3215 20.76 75.304 20.2725 75.284 19.7125C75.264 19.1475 75.244 18.5425 75.224 17.8975C75.204 17.2475 75.1865 16.5975 75.1715 15.9475C75.1565 15.2925 75.1415 14.6725 75.1265 14.0875C75.1115 13.5025 75.099 12.985 75.089 12.535C75.079 12.085 75.074 11.7475 75.074 11.5225C75.144 11.5075 75.384 11.465 75.794 11.395C76.209 11.32 76.7165 11.2375 77.3165 11.1475C77.3165 11.4625 77.319 11.8925 77.324 12.4375C77.334 12.9825 77.349 13.5825 77.369 14.2375C77.389 14.8875 77.4165 15.535 77.4515 16.18C77.5615 16.065 77.699 15.945 77.864 15.82C78.029 15.695 78.2165 15.58 78.4265 15.475C78.6365 15.365 78.8615 15.2775 79.1015 15.2125C79.3465 15.1425 79.599 15.1075 79.859 15.1075C80.444 15.1075 80.954 15.2425 81.389 15.5125C81.829 15.7825 82.169 16.185 82.409 16.72C82.654 17.25 82.7765 17.905 82.7765 18.685C82.7765 19.7 82.5065 20.505 81.9665 21.1C81.4315 21.69 80.7065 21.985 79.7915 21.985C79.4315 21.985 79.109 21.9375 78.824 21.8425C78.544 21.7425 78.309 21.6275 78.119 21.4975C77.934 21.3625 77.8015 21.245 77.7215 21.145C77.7265 21.24 77.7315 21.36 77.7365 21.505C77.7465 21.65 77.754 21.7825 77.759 21.9025C77.769 22.0225 77.774 22.1025 77.774 22.1425C77.344 22.1475 76.9165 22.1425 76.4915 22.1275C76.0665 22.1125 75.6965 22.0875 75.3815 22.0525ZM77.654 19.465C77.734 19.515 77.849 19.575 77.999 19.645C78.149 19.715 78.324 19.7775 78.524 19.8325C78.724 19.8825 78.9315 19.9075 79.1465 19.9075C79.6665 19.9075 80.044 19.79 80.279 19.555C80.514 19.315 80.6315 18.97 80.6315 18.52C80.6315 18.25 80.589 18.0025 80.504 17.7775C80.419 17.5475 80.2865 17.365 80.1065 17.23C79.9265 17.095 79.6915 17.0275 79.4015 17.0275C79.0815 17.0275 78.8015 17.0825 78.5615 17.1925C78.3215 17.3025 78.119 17.435 77.954 17.59C77.794 17.745 77.6665 17.885 77.5715 18.01C77.5715 18.05 77.574 18.12 77.579 18.22C77.584 18.315 77.589 18.425 77.594 18.55C77.604 18.675 77.6115 18.8 77.6165 18.925C77.6265 19.05 77.634 19.16 77.639 19.255C77.644 19.35 77.649 19.42 77.654 19.465ZM87.1756 22.1275C86.5606 22.1275 85.9981 22.045 85.4881 21.88C84.9781 21.71 84.5706 21.4375 84.2656 21.0625C83.9656 20.6825 83.8156 20.18 83.8156 19.555C83.8156 18.93 83.9906 18.4275 84.3406 18.0475C84.6956 17.6625 85.1606 17.385 85.7356 17.215C86.3156 17.04 86.9381 16.9525 87.6031 16.9525C87.8631 16.9525 88.1131 16.9725 88.3531 17.0125C88.5931 17.0525 88.8031 17.1 88.9831 17.155C89.1681 17.21 89.3006 17.2625 89.3806 17.3125C89.3756 17.1825 89.3481 17.045 89.2981 16.9C89.2531 16.755 89.1881 16.6325 89.1031 16.5325C88.9531 16.3275 88.7481 16.1575 88.4881 16.0225C88.2331 15.8825 87.8956 15.8125 87.4756 15.8125C87.0506 15.8125 86.6756 15.91 86.3506 16.105C86.0256 16.295 85.7781 16.51 85.6081 16.75L83.7781 15.5725C84.0031 15.2525 84.3056 14.9725 84.6856 14.7325C85.0706 14.4925 85.5056 14.305 85.9906 14.17C86.4806 14.035 86.9931 13.9675 87.5281 13.9675C88.4131 13.9675 89.1306 14.1125 89.6806 14.4025C90.2306 14.6925 90.6381 15.0975 90.9031 15.6175C91.0281 15.8675 91.1306 16.1425 91.2106 16.4425C91.2906 16.7425 91.3456 17.0875 91.3756 17.4775C91.3956 17.8125 91.4106 18.125 91.4206 18.415C91.4306 18.705 91.4406 18.98 91.4506 19.24C91.4606 19.62 91.5031 19.8675 91.5781 19.9825C91.6531 20.0975 91.7606 20.155 91.9006 20.155C92.0306 20.155 92.1456 20.12 92.2456 20.05C92.3506 19.975 92.4181 19.8775 92.4481 19.7575L93.2281 21.25C93.1731 21.48 93.0181 21.6725 92.7631 21.8275C92.5081 21.9825 92.1856 22.06 91.7956 22.06C91.5106 22.06 91.2406 22.0125 90.9856 21.9175C90.7306 21.8175 90.5206 21.685 90.3556 21.52C90.1906 21.35 90.0931 21.1575 90.0631 20.9425C89.9831 21.1325 89.8156 21.32 89.5606 21.505C89.3056 21.685 88.9781 21.835 88.5781 21.955C88.1781 22.07 87.7106 22.1275 87.1756 22.1275ZM87.6781 20.365C87.9131 20.365 88.1531 20.33 88.3981 20.26C88.6481 20.185 88.8731 20.0925 89.0731 19.9825C89.2781 19.8725 89.4356 19.76 89.5456 19.645C89.5356 19.49 89.5256 19.33 89.5156 19.165C89.5106 19 89.5106 18.86 89.5156 18.745C89.4056 18.7 89.1956 18.6525 88.8856 18.6025C88.5806 18.5475 88.2606 18.52 87.9256 18.52C87.6206 18.52 87.3356 18.5525 87.0706 18.6175C86.8056 18.6825 86.5881 18.7825 86.4181 18.9175C86.2531 19.0525 86.1706 19.2275 86.1706 19.4425C86.1706 19.6725 86.2331 19.855 86.3581 19.99C86.4831 20.125 86.6581 20.2225 86.8831 20.2825C87.1081 20.3375 87.3731 20.365 87.6781 20.365ZM95.9875 22.0825C95.8725 22.1025 95.71 22.1175 95.5 22.1275C95.295 22.1375 95.0825 22.1425 94.8625 22.1425C94.6025 22.1425 94.36 22.1325 94.135 22.1125C93.91 22.0975 93.745 22.07 93.64 22.03C93.68 21.73 93.715 21.34 93.745 20.86C93.78 20.375 93.8075 19.8325 93.8275 19.2325C93.8525 18.6325 93.865 18.0025 93.865 17.3425C93.865 16.6675 93.8525 15.98 93.8275 15.28C93.8075 14.58 93.78 13.905 93.745 13.255C93.71 12.6 93.6775 12.0025 93.6475 11.4625C93.6825 11.4475 93.7925 11.425 93.9775 11.395C94.1625 11.365 94.3775 11.335 94.6225 11.305C94.8675 11.27 95.1 11.24 95.32 11.215C95.54 11.19 95.705 11.1775 95.815 11.1775C95.895 11.5525 95.965 12 96.025 12.52C96.085 13.04 96.135 13.61 96.175 14.23C96.215 14.845 96.2425 15.49 96.2575 16.165C96.4275 15.975 96.6425 15.805 96.9025 15.655C97.1625 15.5 97.445 15.38 97.75 15.295C98.06 15.205 98.3675 15.16 98.6725 15.16C99.2825 15.16 99.75 15.2775 100.075 15.5125C100.4 15.7425 100.625 16.08 100.75 16.525C100.88 16.965 100.945 17.5025 100.945 18.1375C100.945 18.5375 100.928 18.9675 100.893 19.4275C100.863 19.8875 100.823 20.34 100.772 20.785C100.723 21.23 100.668 21.63 100.608 21.985C100.433 22.01 100.253 22.03 100.068 22.045C99.8825 22.06 99.6975 22.0675 99.5125 22.0675C99.3075 22.0675 99.105 22.0575 98.905 22.0375C98.71 22.0225 98.5325 22 98.3725 21.97C98.4075 21.745 98.445 21.48 98.485 21.175C98.525 20.87 98.5625 20.5575 98.5975 20.2375C98.6325 19.9125 98.66 19.605 98.68 19.315C98.705 19.02 98.7175 18.77 98.7175 18.565C98.7175 18.27 98.6875 18.02 98.6275 17.815C98.5725 17.61 98.48 17.455 98.35 17.35C98.225 17.24 98.055 17.185 97.84 17.185C97.655 17.185 97.48 17.22 97.315 17.29C97.15 17.355 96.9975 17.44 96.8575 17.545C96.7225 17.645 96.6025 17.75 96.4975 17.86C96.3925 17.965 96.31 18.0575 96.25 18.1375C96.25 18.6525 96.2375 19.1675 96.2125 19.6825C96.1875 20.1925 96.155 20.6575 96.115 21.0775C96.075 21.4975 96.0325 21.8325 95.9875 22.0825ZM106.835 21.82C106.85 21.545 106.865 21.1725 106.88 20.7025C106.895 20.2275 106.907 19.695 106.917 19.105C106.927 18.51 106.932 17.8975 106.932 17.2675C106.932 16.6375 106.927 16.015 106.917 15.4C106.907 14.78 106.895 14.2075 106.88 13.6825C106.865 13.1575 106.85 12.7175 106.835 12.3625C106.98 12.3425 107.207 12.32 107.517 12.295C107.827 12.27 108.15 12.2575 108.485 12.2575C108.645 12.2575 108.832 12.2625 109.047 12.2725C109.262 12.2825 109.407 12.295 109.482 12.31C109.492 12.57 109.495 12.9 109.49 13.3C109.49 13.7 109.482 14.1475 109.467 14.6425C109.457 15.1375 109.442 15.6625 109.422 16.2175C109.402 16.7675 109.38 17.32 109.355 17.875C109.34 18.17 109.322 18.4575 109.302 18.7375C109.287 19.0125 109.27 19.2475 109.25 19.4425C109.645 19.4175 110.035 19.3975 110.42 19.3825C110.805 19.3675 111.19 19.355 111.575 19.345C111.965 19.335 112.355 19.33 112.745 19.33C112.765 19.46 112.782 19.665 112.797 19.945C112.812 20.225 112.825 20.525 112.835 20.845C112.845 21.16 112.85 21.435 112.85 21.67C112.25 21.75 111.642 21.81 111.027 21.85C110.417 21.885 109.837 21.905 109.287 21.91C108.832 21.915 108.392 21.91 107.967 21.895C107.547 21.875 107.17 21.85 106.835 21.82ZM117.807 22.165C116.482 22.165 115.484 21.815 114.814 21.115C114.144 20.41 113.809 19.3875 113.809 18.0475C113.809 17.1525 113.982 16.41 114.327 15.82C114.672 15.225 115.149 14.7775 115.759 14.4775C116.374 14.1775 117.084 14.0275 117.889 14.0275C118.709 14.0275 119.389 14.215 119.929 14.59C120.474 14.965 120.882 15.4825 121.152 16.1425C121.422 16.8025 121.557 17.565 121.557 18.43C121.557 19.185 121.412 19.8425 121.122 20.4025C120.832 20.9625 120.407 21.3975 119.847 21.7075C119.292 22.0125 118.612 22.165 117.807 22.165ZM117.724 20.0125C117.999 20.0125 118.242 19.965 118.452 19.87C118.667 19.775 118.847 19.64 118.992 19.465C119.142 19.285 119.254 19.075 119.329 18.835C119.404 18.595 119.442 18.3325 119.442 18.0475C119.442 17.6025 119.377 17.21 119.247 16.87C119.122 16.525 118.934 16.2575 118.684 16.0675C118.439 15.8725 118.134 15.775 117.769 15.775C117.374 15.775 117.052 15.875 116.802 16.075C116.552 16.275 116.367 16.5375 116.247 16.8625C116.132 17.1825 116.074 17.525 116.074 17.89C116.074 18.505 116.214 19.0125 116.494 19.4125C116.779 19.8125 117.189 20.0125 117.724 20.0125ZM129.416 20.41C129.266 20.67 129.038 20.9275 128.733 21.1825C128.428 21.4375 128.051 21.65 127.601 21.82C127.151 21.99 126.633 22.075 126.048 22.075C125.288 22.075 124.631 21.8875 124.076 21.5125C123.521 21.1325 123.091 20.63 122.786 20.005C122.486 19.375 122.336 18.685 122.336 17.935C122.336 17.145 122.491 16.4375 122.801 15.8125C123.116 15.1875 123.558 14.6925 124.128 14.3275C124.698 13.9625 125.373 13.78 126.153 13.78C126.618 13.78 127.046 13.8525 127.436 13.9975C127.826 14.1425 128.168 14.3475 128.463 14.6125C128.763 14.8775 129.011 15.1875 129.206 15.5425L127.571 16.4575C127.556 16.4175 127.521 16.355 127.466 16.27C127.416 16.185 127.341 16.095 127.241 16C127.141 15.905 127.008 15.825 126.843 15.76C126.683 15.695 126.483 15.6625 126.243 15.6625C125.883 15.6625 125.578 15.74 125.328 15.895C125.078 16.05 124.888 16.27 124.758 16.555C124.633 16.84 124.571 17.175 124.571 17.56C124.571 17.88 124.618 18.2025 124.713 18.5275C124.808 18.8475 124.968 19.115 125.193 19.33C125.418 19.545 125.728 19.6525 126.123 19.6525C126.358 19.6525 126.576 19.6125 126.776 19.5325C126.976 19.4525 127.148 19.3575 127.293 19.2475C127.443 19.1325 127.563 19.025 127.653 18.925C127.743 18.825 127.798 18.7575 127.818 18.7225L129.416 20.41ZM133.611 22.1275C132.996 22.1275 132.434 22.045 131.924 21.88C131.414 21.71 131.006 21.4375 130.701 21.0625C130.401 20.6825 130.251 20.18 130.251 19.555C130.251 18.93 130.426 18.4275 130.776 18.0475C131.131 17.6625 131.596 17.385 132.171 17.215C132.751 17.04 133.374 16.9525 134.039 16.9525C134.299 16.9525 134.549 16.9725 134.789 17.0125C135.029 17.0525 135.239 17.1 135.419 17.155C135.604 17.21 135.736 17.2625 135.816 17.3125C135.811 17.1825 135.784 17.045 135.734 16.9C135.689 16.755 135.624 16.6325 135.539 16.5325C135.389 16.3275 135.184 16.1575 134.924 16.0225C134.669 15.8825 134.331 15.8125 133.911 15.8125C133.486 15.8125 133.111 15.91 132.786 16.105C132.461 16.295 132.214 16.51 132.044 16.75L130.214 15.5725C130.439 15.2525 130.741 14.9725 131.121 14.7325C131.506 14.4925 131.941 14.305 132.426 14.17C132.916 14.035 133.429 13.9675 133.964 13.9675C134.849 13.9675 135.566 14.1125 136.116 14.4025C136.666 14.6925 137.074 15.0975 137.339 15.6175C137.464 15.8675 137.566 16.1425 137.646 16.4425C137.726 16.7425 137.781 17.0875 137.811 17.4775C137.831 17.8125 137.846 18.125 137.856 18.415C137.866 18.705 137.876 18.98 137.886 19.24C137.896 19.62 137.939 19.8675 138.014 19.9825C138.089 20.0975 138.196 20.155 138.336 20.155C138.466 20.155 138.581 20.12 138.681 20.05C138.786 19.975 138.854 19.8775 138.884 19.7575L139.664 21.25C139.609 21.48 139.454 21.6725 139.199 21.8275C138.944 21.9825 138.621 22.06 138.231 22.06C137.946 22.06 137.676 22.0125 137.421 21.9175C137.166 21.8175 136.956 21.685 136.791 21.52C136.626 21.35 136.529 21.1575 136.499 20.9425C136.419 21.1325 136.251 21.32 135.996 21.505C135.741 21.685 135.414 21.835 135.014 21.955C134.614 22.07 134.146 22.1275 133.611 22.1275ZM134.114 20.365C134.349 20.365 134.589 20.33 134.834 20.26C135.084 20.185 135.309 20.0925 135.509 19.9825C135.714 19.8725 135.871 19.76 135.981 19.645C135.971 19.49 135.961 19.33 135.951 19.165C135.946 19 135.946 18.86 135.951 18.745C135.841 18.7 135.631 18.6525 135.321 18.6025C135.016 18.5475 134.696 18.52 134.361 18.52C134.056 18.52 133.771 18.5525 133.506 18.6175C133.241 18.6825 133.024 18.7825 132.854 18.9175C132.689 19.0525 132.606 19.2275 132.606 19.4425C132.606 19.6725 132.669 19.855 132.794 19.99C132.919 20.125 133.094 20.2225 133.319 20.2825C133.544 20.3375 133.809 20.365 134.114 20.365ZM144.351 21.6475C144.211 21.7975 143.948 21.9425 143.563 22.0825C143.183 22.2275 142.758 22.3 142.288 22.3C141.678 22.3 141.213 22.1575 140.893 21.8725C140.578 21.5875 140.366 21.185 140.256 20.665C140.146 20.14 140.091 19.53 140.091 18.835C140.091 18.29 140.096 17.7425 140.106 17.1925C140.116 16.6425 140.128 16.0975 140.143 15.5575C140.163 15.0175 140.183 14.495 140.203 13.99C140.228 13.48 140.251 12.9975 140.271 12.5425C140.296 12.0825 140.321 11.6625 140.346 11.2825C140.701 11.2575 141.028 11.245 141.328 11.245C141.523 11.245 141.716 11.25 141.906 11.26C142.096 11.27 142.306 11.285 142.536 11.305C142.511 11.74 142.481 12.2225 142.446 12.7525C142.416 13.2775 142.386 13.815 142.356 14.365C142.331 14.915 142.306 15.4475 142.281 15.9625C142.256 16.4775 142.236 16.945 142.221 17.365C142.211 17.78 142.206 18.1125 142.206 18.3625C142.206 18.6875 142.218 18.99 142.243 19.27C142.273 19.545 142.338 19.77 142.438 19.945C142.538 20.115 142.688 20.2 142.888 20.2C143.058 20.2 143.196 20.1625 143.301 20.0875C143.411 20.0075 143.501 19.9075 143.571 19.7875C143.606 19.8475 143.661 19.9675 143.736 20.1475C143.811 20.3225 143.893 20.5175 143.983 20.7325C144.073 20.9475 144.153 21.1425 144.223 21.3175C144.293 21.4875 144.336 21.5975 144.351 21.6475ZM150.46 22.0975C149.97 22.0675 149.485 22.0375 149.005 22.0075C148.525 21.9825 148.037 21.9625 147.542 21.9475C147.142 21.9275 146.735 21.9075 146.32 21.8875C145.905 21.8625 145.495 21.84 145.09 21.82C145.055 20.98 145.03 20.165 145.015 19.375C145.005 18.58 145 17.835 145 17.14C145 16.025 145.01 15.0775 145.03 14.2975C145.05 13.5175 145.07 12.9575 145.09 12.6175C146.035 12.4425 146.91 12.315 147.715 12.235C148.52 12.15 149.192 12.0975 149.732 12.0775C150.277 12.0575 150.617 12.0475 150.752 12.0475C150.752 12.3725 150.742 12.6925 150.722 13.0075C150.702 13.3175 150.677 13.645 150.647 13.99L147.437 14.2525C147.432 14.3175 147.427 14.42 147.422 14.56C147.417 14.695 147.412 14.845 147.407 15.01C147.407 15.17 147.407 15.32 147.407 15.46C147.407 15.6 147.407 15.7025 147.407 15.7675C147.522 15.7675 147.67 15.7675 147.85 15.7675C148.035 15.7625 148.235 15.7575 148.45 15.7525C148.67 15.7475 148.89 15.7425 149.11 15.7375C149.33 15.7325 149.535 15.73 149.725 15.73C149.92 15.725 150.085 15.72 150.22 15.715L150.19 17.77C150.125 17.77 149.997 17.7675 149.807 17.7625C149.617 17.7525 149.397 17.7425 149.147 17.7325C148.902 17.7225 148.655 17.715 148.405 17.71C148.155 17.7 147.935 17.6925 147.745 17.6875C147.555 17.6825 147.425 17.6825 147.355 17.6875C147.35 17.7375 147.345 17.8225 147.34 17.9425C147.34 18.0575 147.337 18.19 147.332 18.34C147.332 18.485 147.332 18.6375 147.332 18.7975C147.332 18.9525 147.33 19.0975 147.325 19.2325C147.325 19.3625 147.325 19.4675 147.325 19.5475C147.39 19.5475 147.565 19.5475 147.85 19.5475C148.135 19.5425 148.427 19.54 148.727 19.54C148.977 19.54 149.227 19.545 149.477 19.555C149.727 19.565 149.96 19.5775 150.175 19.5925C150.39 19.6025 150.565 19.6125 150.7 19.6225C150.7 19.8225 150.69 20.0525 150.67 20.3125C150.65 20.5675 150.627 20.82 150.602 21.07C150.582 21.32 150.557 21.54 150.527 21.73C150.502 21.915 150.48 22.0375 150.46 22.0975ZM156.64 13.8175C156.995 13.8775 157.327 13.9475 157.637 14.0275C157.947 14.1075 158.205 14.1775 158.41 14.2375C158.62 14.2975 158.747 14.3375 158.792 14.3575C158.692 14.7575 158.572 15.205 158.432 15.7C158.297 16.19 158.145 16.705 157.975 17.245C157.81 17.78 157.635 18.32 157.45 18.865C157.265 19.405 157.075 19.9325 156.88 20.4475C156.69 20.9575 156.502 21.4275 156.317 21.8575C156.052 21.9025 155.727 21.925 155.342 21.925C155.152 21.925 154.967 21.9175 154.787 21.9025C154.612 21.8875 154.462 21.8725 154.337 21.8575C154.077 21.3125 153.825 20.74 153.58 20.14C153.335 19.535 153.097 18.9125 152.867 18.2725C152.637 17.6325 152.415 16.98 152.2 16.315C151.985 15.645 151.775 14.975 151.57 14.305C151.645 14.29 151.767 14.265 151.937 14.23C152.112 14.19 152.302 14.145 152.507 14.095C152.717 14.045 152.922 13.995 153.122 13.945C153.322 13.89 153.487 13.845 153.617 13.81C153.692 14.11 153.79 14.465 153.91 14.875C154.03 15.28 154.16 15.705 154.3 16.15C154.445 16.59 154.587 17.0175 154.727 17.4325C154.867 17.8425 154.992 18.2075 155.102 18.5275C155.217 18.8475 155.305 19.085 155.365 19.24L155.275 19.2775C155.365 18.9925 155.457 18.695 155.552 18.385C155.647 18.07 155.742 17.74 155.837 17.395C155.932 17.045 156.025 16.68 156.115 16.3C156.21 15.92 156.3 15.5225 156.385 15.1075C156.475 14.6925 156.56 14.2625 156.64 13.8175ZM166.928 20.6575C166.788 20.8275 166.613 20.995 166.403 21.16C166.193 21.325 165.941 21.475 165.646 21.61C165.356 21.74 165.023 21.845 164.648 21.925C164.273 22 163.853 22.0375 163.388 22.0375C162.633 22.0375 161.963 21.895 161.378 21.61C160.793 21.32 160.336 20.8925 160.006 20.3275C159.681 19.7575 159.518 19.05 159.518 18.205C159.518 17.36 159.688 16.625 160.028 16C160.368 15.37 160.843 14.8825 161.453 14.5375C162.063 14.1875 162.776 14.0125 163.591 14.0125C164.621 14.0125 165.431 14.3 166.021 14.875C166.616 15.445 166.926 16.235 166.951 17.245C166.956 17.43 166.953 17.5975 166.943 17.7475C166.933 17.8975 166.913 18.0575 166.883 18.2275C166.808 18.2225 166.648 18.2175 166.403 18.2125C166.158 18.2075 165.881 18.2025 165.571 18.1975C165.266 18.1875 164.976 18.18 164.701 18.175C164.431 18.17 164.231 18.1675 164.101 18.1675C163.666 18.1675 163.243 18.1875 162.833 18.2275C162.428 18.2675 162.088 18.31 161.813 18.355C161.813 18.445 161.818 18.535 161.828 18.625C161.843 18.71 161.863 18.7925 161.888 18.8725C161.953 19.0775 162.066 19.2525 162.226 19.3975C162.391 19.5425 162.586 19.655 162.811 19.735C163.041 19.81 163.283 19.8475 163.538 19.8475C163.768 19.8475 163.978 19.82 164.168 19.765C164.363 19.705 164.541 19.6275 164.701 19.5325C164.861 19.4375 165.006 19.335 165.136 19.225C165.271 19.11 165.396 18.9975 165.511 18.8875C165.541 18.9125 165.618 18.9875 165.743 19.1125C165.868 19.2325 166.008 19.3825 166.163 19.5625C166.318 19.7375 166.466 19.9225 166.606 20.1175C166.746 20.3125 166.853 20.4925 166.928 20.6575ZM161.896 16.9525C162.121 16.9175 162.398 16.885 162.728 16.855C163.058 16.825 163.441 16.81 163.876 16.81C164.111 16.81 164.318 16.8125 164.498 16.8175C164.683 16.8225 164.813 16.8275 164.888 16.8325C164.888 16.7275 164.873 16.6125 164.843 16.4875C164.803 16.3175 164.723 16.155 164.603 16C164.488 15.845 164.338 15.72 164.153 15.625C163.973 15.53 163.756 15.4825 163.501 15.4825C163.181 15.4825 162.901 15.5525 162.661 15.6925C162.426 15.8325 162.243 16.015 162.113 16.24C161.983 16.465 161.911 16.7025 161.896 16.9525ZM170.485 22.0975C170.335 22.1025 170.15 22.1025 169.93 22.0975C169.71 22.0975 169.485 22.095 169.255 22.09C169.07 22.085 168.858 22.0775 168.618 22.0675C168.378 22.0575 168.21 22.0475 168.115 22.0375C168.16 21.6175 168.198 21.1425 168.228 20.6125C168.263 20.0825 168.29 19.495 168.31 18.85C168.33 18.205 168.345 17.5 168.355 16.735C168.365 15.97 168.37 15.1425 168.37 14.2525C168.56 14.2275 168.785 14.2075 169.045 14.1925C169.305 14.1775 169.568 14.17 169.833 14.17C170.018 14.17 170.195 14.175 170.365 14.185C170.54 14.19 170.695 14.205 170.83 14.23C170.83 14.275 170.83 14.3675 170.83 14.5075C170.835 14.6425 170.835 14.7925 170.83 14.9575C170.83 15.1175 170.828 15.2625 170.823 15.3925C170.953 15.2025 171.165 15.005 171.46 14.8C171.755 14.59 172.098 14.4125 172.488 14.2675C172.878 14.1225 173.28 14.05 173.695 14.05C174.46 14.05 175.045 14.205 175.45 14.515C175.855 14.82 176.133 15.28 176.283 15.895C176.433 16.505 176.508 17.27 176.508 18.19C176.508 18.51 176.498 18.885 176.478 19.315C176.463 19.74 176.438 20.1875 176.403 20.6575C176.368 21.1275 176.323 21.5825 176.268 22.0225C176.168 22.0325 176.008 22.04 175.788 22.045C175.573 22.055 175.345 22.06 175.105 22.06C174.85 22.06 174.608 22.055 174.378 22.045C174.148 22.04 173.978 22.0325 173.868 22.0225C173.923 21.7425 173.983 21.3925 174.048 20.9725C174.113 20.5525 174.168 20.105 174.213 19.63C174.258 19.15 174.28 18.6925 174.28 18.2575C174.28 17.8375 174.245 17.4725 174.175 17.1625C174.11 16.8525 173.983 16.6125 173.793 16.4425C173.608 16.2675 173.333 16.18 172.968 16.18C172.668 16.18 172.38 16.2325 172.105 16.3375C171.83 16.4425 171.58 16.5725 171.355 16.7275C171.13 16.8775 170.938 17.025 170.778 17.17C170.773 17.96 170.753 18.675 170.718 19.315C170.683 19.95 170.645 20.5025 170.605 20.9725C170.565 21.4375 170.525 21.8125 170.485 22.0975ZM183.619 21.0175C183.524 21.2025 183.374 21.4 183.169 21.61C182.969 21.815 182.706 21.99 182.381 22.135C182.061 22.285 181.671 22.36 181.211 22.36C180.606 22.36 180.111 22.2325 179.726 21.9775C179.346 21.7225 179.064 21.3825 178.879 20.9575C178.699 20.5325 178.609 20.0675 178.609 19.5625C178.609 19.2875 178.611 18.995 178.616 18.685C178.626 18.37 178.636 18.06 178.646 17.755C178.656 17.445 178.666 17.1525 178.676 16.8775C178.691 16.5975 178.704 16.3525 178.714 16.1425C178.729 15.9325 178.739 15.77 178.744 15.655C178.349 15.695 177.984 15.74 177.649 15.79C177.314 15.835 177.081 15.8725 176.951 15.9025C176.901 15.6225 176.864 15.3375 176.839 15.0475C176.814 14.7575 176.794 14.505 176.779 14.29C176.769 14.075 176.764 13.9425 176.764 13.8925C177.054 13.8525 177.364 13.8175 177.694 13.7875C178.024 13.7525 178.371 13.7275 178.736 13.7125C178.731 13.5925 178.726 13.405 178.721 13.15C178.716 12.895 178.709 12.665 178.699 12.46C178.694 12.275 178.684 12.09 178.669 11.905C178.654 11.715 178.641 11.5625 178.631 11.4475L180.851 11.2525C180.851 11.3125 180.851 11.4525 180.851 11.6725C180.856 11.8925 180.859 12.1575 180.859 12.4675C180.859 12.6225 180.861 12.8025 180.866 13.0075C180.871 13.2075 180.876 13.405 180.881 13.6C181.046 13.59 181.239 13.58 181.459 13.57C181.679 13.56 181.854 13.5525 181.984 13.5475C182.194 13.5375 182.384 13.5325 182.554 13.5325C182.724 13.5275 182.864 13.525 182.974 13.525C183.089 13.525 183.166 13.5275 183.206 13.5325C183.236 13.7675 183.256 14.0675 183.266 14.4325C183.276 14.7925 183.281 15.1125 183.281 15.3925C183.231 15.3875 183.069 15.39 182.794 15.4C182.519 15.405 182.249 15.415 181.984 15.43C181.799 15.435 181.594 15.445 181.369 15.46C181.144 15.475 180.966 15.49 180.836 15.505C180.831 15.61 180.824 15.755 180.814 15.94C180.809 16.12 180.801 16.325 180.791 16.555C180.786 16.78 180.779 17.015 180.769 17.26C180.764 17.5 180.759 17.7325 180.754 17.9575C180.749 18.1825 180.746 18.3825 180.746 18.5575C180.746 18.8875 180.761 19.185 180.791 19.45C180.826 19.71 180.899 19.9175 181.009 20.0725C181.124 20.2225 181.299 20.2975 181.534 20.2975C181.689 20.2975 181.821 20.2525 181.931 20.1625C182.041 20.0725 182.131 19.9675 182.201 19.8475C182.276 19.7225 182.341 19.6125 182.396 19.5175C182.461 19.6075 182.551 19.7275 182.666 19.8775C182.786 20.0225 182.911 20.175 183.041 20.335C183.176 20.495 183.296 20.6375 183.401 20.7625C183.511 20.8875 183.584 20.9725 183.619 21.0175Z" fill="white"/>
</svg>
