<svg width="200" height="38" viewBox="0 0 200 38" fill="none" xmlns="http://www.w3.org/2000/svg">
<path d="M3.48096 32.7233C1.11762 29.9368 -0.654895 6.84935 3.48096 4.36149C7.61682 1.87363 74.3813 3.36635 109.241 4.36149C144.1 5.35663 190.185 3.8639 196.094 5.35663C202.002 6.84935 200.289 33.4199 196.98 36.2063C192.844 39.6893 119.285 37.2014 101.855 36.2063C84.4255 35.2111 6.43514 36.2063 3.48096 32.7233Z" fill="#214868"/>
<path d="M2.48096 29.7233C0.117618 26.9368 -1.65489 3.84935 2.48096 1.36149C6.61682 -1.12637 73.3813 0.366353 108.241 1.36149C143.1 2.35663 189.185 0.863904 195.094 2.35663C201.002 3.84935 199.289 30.4199 195.98 33.2063C191.844 36.6893 118.285 34.2014 100.855 33.2063C83.4255 32.2111 5.43514 33.2063 2.48096 29.7233Z" fill="#3387DC"/>
<path d="M23 7C21.0222 7 19.0888 7.58649 17.4443 8.6853C15.7998 9.78412 14.5181 11.3459 13.7612 13.1732C13.0043 15.0004 12.8063 17.0111 13.1922 18.9509C13.578 20.8907 14.5304 22.6725 15.9289 24.0711C17.3275 25.4696 19.1093 26.422 21.0491 26.8079C22.9889 27.1937 24.9996 26.9957 26.8268 26.2388C28.6541 25.4819 30.2159 24.2002 31.3147 22.5557C32.4135 20.9112 33 18.9778 33 17C33 15.6868 32.7413 14.3864 32.2388 13.1732C31.7363 11.9599 30.9997 10.8575 30.0711 9.92893C29.1425 9.00035 28.0401 8.26375 26.8268 7.7612C25.6136 7.25866 24.3132 7 23 7V7ZM23 25C21.4178 25 19.871 24.5308 18.5554 23.6518C17.2398 22.7727 16.2145 21.5233 15.609 20.0615C15.0035 18.5997 14.845 16.9911 15.1537 15.4393C15.4624 13.8874 16.2243 12.462 17.3432 11.3431C18.462 10.2243 19.8874 9.4624 21.4393 9.15372C22.9911 8.84504 24.5997 9.00346 26.0615 9.60896C27.5233 10.2145 28.7727 11.2398 29.6518 12.5554C30.5308 13.871 31 15.4177 31 17C31 19.1217 30.1572 21.1566 28.6569 22.6569C27.1566 24.1571 25.1217 25 23 25V25ZM27 16H24V13C24 12.7348 23.8946 12.4804 23.7071 12.2929C23.5196 12.1054 23.2652 12 23 12C22.7348 12 22.4804 12.1054 22.2929 12.2929C22.1054 12.4804 22 12.7348 22 13V16H19C18.7348 16 18.4804 16.1054 18.2929 16.2929C18.1054 16.4804 18 16.7348 18 17C18 17.2652 18.1054 17.5196 18.2929 17.7071C18.4804 17.8946 18.7348 18 19 18H22V21C22 21.2652 22.1054 21.5196 22.2929 21.7071C22.4804 21.8946 22.7348 22 23 22C23.2652 22 23.5196 21.8946 23.7071 21.7071C23.8946 21.5196 24 21.2652 24 21V18H27C27.2652 18 27.5196 17.8946 27.7071 17.7071C27.8946 17.5196 28 17.2652 28 17C28 16.7348 27.8946 16.4804 27.7071 16.2929C27.5196 16.1054 27.2652 16 27 16Z" fill="white"/>
<path d="M37.6101 14.2225C37.5851 14.1125 37.5626 13.9575 37.5426 13.7575C37.5276 13.5525 37.5126 13.34 37.4976 13.12C37.4876 12.895 37.4776 12.695 37.4676 12.52C37.4626 12.34 37.4601 12.2175 37.4601 12.1525C38.0201 12.1125 38.6576 12.0775 39.3726 12.0475C40.0926 12.0125 40.8201 11.995 41.5551 11.995C42.1101 11.995 42.6501 12.0075 43.1751 12.0325C43.7051 12.0525 44.1876 12.095 44.6226 12.16C44.6276 12.575 44.6151 12.9625 44.5851 13.3225C44.5551 13.6775 44.5201 13.945 44.4801 14.125C44.3851 14.125 44.2476 14.125 44.0676 14.125C43.8876 14.12 43.6876 14.1175 43.4676 14.1175C43.2526 14.1125 43.0401 14.11 42.8301 14.11C42.6201 14.105 42.4376 14.1 42.2826 14.095C42.2876 14.28 42.2976 14.555 42.3126 14.92C42.3276 15.28 42.3451 15.6925 42.3651 16.1575C42.3851 16.6225 42.4076 17.11 42.4326 17.62C42.4576 18.13 42.4801 18.63 42.5001 19.12C42.5251 19.61 42.5451 20.06 42.5601 20.47C42.5801 20.875 42.5951 21.21 42.6051 21.475C42.6201 21.735 42.6276 21.89 42.6276 21.94C42.4276 21.97 42.1676 21.9975 41.8476 22.0225C41.5276 22.0475 41.2076 22.0675 40.8876 22.0825C40.5726 22.0975 40.3151 22.105 40.1151 22.105C40.1001 21.81 40.0851 21.455 40.0701 21.04C40.0551 20.62 40.0426 20.1675 40.0326 19.6825C40.0226 19.1925 40.0126 18.6925 40.0026 18.1825C39.9926 17.6675 39.9851 17.165 39.9801 16.675C39.9751 16.185 39.9726 15.735 39.9726 15.325C39.9726 15.095 39.9726 14.88 39.9726 14.68C39.9726 14.48 39.9751 14.3 39.9801 14.14C39.8101 14.15 39.6251 14.16 39.4251 14.17C39.2251 14.175 39.0201 14.1825 38.8101 14.1925C38.6001 14.2025 38.3926 14.21 38.1876 14.215C37.9826 14.22 37.7901 14.2225 37.6101 14.2225ZM48.5594 22.1275C47.9444 22.1275 47.3819 22.045 46.8719 21.88C46.3619 21.71 45.9544 21.4375 45.6494 21.0625C45.3494 20.6825 45.1994 20.18 45.1994 19.555C45.1994 18.93 45.3744 18.4275 45.7244 18.0475C46.0794 17.6625 46.5444 17.385 47.1194 17.215C47.6994 17.04 48.3219 16.9525 48.9869 16.9525C49.2469 16.9525 49.4969 16.9725 49.7369 17.0125C49.9769 17.0525 50.1869 17.1 50.3669 17.155C50.5519 17.21 50.6844 17.2625 50.7644 17.3125C50.7594 17.1825 50.7319 17.045 50.6819 16.9C50.6369 16.755 50.5719 16.6325 50.4869 16.5325C50.3369 16.3275 50.1319 16.1575 49.8719 16.0225C49.6169 15.8825 49.2794 15.8125 48.8594 15.8125C48.4344 15.8125 48.0594 15.91 47.7344 16.105C47.4094 16.295 47.1619 16.51 46.9919 16.75L45.1619 15.5725C45.3869 15.2525 45.6894 14.9725 46.0694 14.7325C46.4544 14.4925 46.8894 14.305 47.3744 14.17C47.8644 14.035 48.3769 13.9675 48.9119 13.9675C49.7969 13.9675 50.5144 14.1125 51.0644 14.4025C51.6144 14.6925 52.0219 15.0975 52.2869 15.6175C52.4119 15.8675 52.5144 16.1425 52.5944 16.4425C52.6744 16.7425 52.7294 17.0875 52.7594 17.4775C52.7794 17.8125 52.7944 18.125 52.8044 18.415C52.8144 18.705 52.8244 18.98 52.8344 19.24C52.8444 19.62 52.8869 19.8675 52.9619 19.9825C53.0369 20.0975 53.1444 20.155 53.2844 20.155C53.4144 20.155 53.5294 20.12 53.6294 20.05C53.7344 19.975 53.8019 19.8775 53.8319 19.7575L54.6119 21.25C54.5569 21.48 54.4019 21.6725 54.1469 21.8275C53.8919 21.9825 53.5694 22.06 53.1794 22.06C52.8944 22.06 52.6244 22.0125 52.3694 21.9175C52.1144 21.8175 51.9044 21.685 51.7394 21.52C51.5744 21.35 51.4769 21.1575 51.4469 20.9425C51.3669 21.1325 51.1994 21.32 50.9444 21.505C50.6894 21.685 50.3619 21.835 49.9619 21.955C49.5619 22.07 49.0944 22.1275 48.5594 22.1275ZM49.0619 20.365C49.2969 20.365 49.5369 20.33 49.7819 20.26C50.0319 20.185 50.2569 20.0925 50.4569 19.9825C50.6619 19.8725 50.8194 19.76 50.9294 19.645C50.9194 19.49 50.9094 19.33 50.8994 19.165C50.8944 19 50.8944 18.86 50.8994 18.745C50.7894 18.7 50.5794 18.6525 50.2694 18.6025C49.9644 18.5475 49.6444 18.52 49.3094 18.52C49.0044 18.52 48.7194 18.5525 48.4544 18.6175C48.1894 18.6825 47.9719 18.7825 47.8019 18.9175C47.6369 19.0525 47.5544 19.2275 47.5544 19.4425C47.5544 19.6725 47.6169 19.855 47.7419 19.99C47.8669 20.125 48.0419 20.2225 48.2669 20.2825C48.4919 20.3375 48.7569 20.365 49.0619 20.365ZM55.4513 22.06C55.4263 21.735 55.4013 21.32 55.3763 20.815C55.3563 20.31 55.3363 19.7625 55.3163 19.1725C55.3013 18.5775 55.2863 17.9875 55.2713 17.4025C55.2613 16.8175 55.2538 16.2775 55.2488 15.7825C55.2438 15.2825 55.2413 14.88 55.2413 14.575C55.3613 14.545 55.5213 14.515 55.7213 14.485C55.9213 14.45 56.1338 14.42 56.3588 14.395C56.5838 14.365 56.7963 14.3425 56.9963 14.3275C57.2013 14.3075 57.3663 14.2975 57.4913 14.2975C57.4963 14.3775 57.5013 14.48 57.5063 14.605C57.5113 14.725 57.5138 14.85 57.5138 14.98C57.5188 15.11 57.5213 15.2275 57.5213 15.3325C57.5213 15.4375 57.5213 15.5175 57.5213 15.5725C57.5513 15.4775 57.6213 15.355 57.7313 15.205C57.8413 15.055 57.9913 14.905 58.1813 14.755C58.3763 14.605 58.6113 14.48 58.8863 14.38C59.1613 14.275 59.4788 14.2225 59.8388 14.2225C60.1838 14.2225 60.4763 14.2875 60.7163 14.4175C60.9563 14.5475 61.1563 14.7175 61.3163 14.9275C61.4763 15.1375 61.6013 15.365 61.6913 15.61C61.7363 15.73 61.7713 15.8525 61.7963 15.9775C61.8263 16.1025 61.8488 16.225 61.8638 16.345C61.9738 15.98 62.1563 15.6325 62.4113 15.3025C62.6713 14.9675 62.9938 14.695 63.3788 14.485C63.7638 14.27 64.2063 14.1625 64.7063 14.1625C65.3063 14.1625 65.7988 14.27 66.1838 14.485C66.5738 14.7 66.8763 15.0175 67.0913 15.4375C67.3063 15.8575 67.4563 16.3725 67.5413 16.9825C67.6263 17.5925 67.6688 18.29 67.6688 19.075C67.6688 19.385 67.6613 19.71 67.6463 20.05C67.6363 20.39 67.6213 20.7325 67.6013 21.0775C67.5813 21.4225 67.5613 21.7575 67.5413 22.0825C67.3613 22.0925 67.1738 22.1 66.9788 22.105C66.7838 22.115 66.5888 22.12 66.3938 22.12C66.1988 22.12 65.9988 22.115 65.7938 22.105C65.5938 22.1 65.3913 22.09 65.1863 22.075C65.2863 21.33 65.3688 20.645 65.4338 20.02C65.4988 19.39 65.5313 18.8375 65.5313 18.3625C65.5313 17.6675 65.4513 17.1375 65.2913 16.7725C65.1363 16.4075 64.8688 16.225 64.4888 16.225C64.1438 16.225 63.8638 16.33 63.6488 16.54C63.4338 16.75 63.2663 17.04 63.1463 17.41C63.0263 17.78 62.9388 18.21 62.8838 18.7C62.8338 19.185 62.7988 19.705 62.7788 20.26C62.7688 20.54 62.7588 20.8325 62.7488 21.1375C62.7388 21.4425 62.7338 21.7525 62.7338 22.0675C62.6338 22.0725 62.4913 22.0775 62.3063 22.0825C62.1263 22.0925 61.9363 22.0975 61.7363 22.0975C61.5013 22.0975 61.2738 22.0925 61.0538 22.0825C60.8388 22.0775 60.6813 22.0675 60.5813 22.0525C60.5763 21.7125 60.5738 21.3925 60.5738 21.0925C60.5738 20.7925 60.5738 20.485 60.5738 20.17C60.5738 19.6 60.5588 19.075 60.5288 18.595C60.5038 18.11 60.4488 17.69 60.3638 17.335C60.2788 16.975 60.1513 16.695 59.9813 16.495C59.8163 16.295 59.5913 16.195 59.3063 16.195C59.1113 16.195 58.9213 16.2375 58.7363 16.3225C58.5513 16.4075 58.3813 16.5175 58.2263 16.6525C58.0763 16.7875 57.9488 16.9375 57.8438 17.1025C57.7438 17.2625 57.6738 17.4225 57.6338 17.5825C57.6638 18.3775 57.6963 19.1025 57.7313 19.7575C57.7663 20.4125 57.7988 20.9475 57.8288 21.3625C57.8588 21.7725 57.8788 22.02 57.8888 22.105C57.8338 22.11 57.7188 22.115 57.5438 22.12C57.3688 22.125 57.2163 22.1275 57.0863 22.1275C56.7713 22.1275 56.4563 22.12 56.1413 22.105C55.8263 22.09 55.5963 22.075 55.4513 22.06ZM69.2995 22.0525C69.2845 21.8775 69.2695 21.585 69.2545 21.175C69.2395 20.76 69.222 20.2725 69.202 19.7125C69.182 19.1475 69.162 18.5425 69.142 17.8975C69.122 17.2475 69.1045 16.5975 69.0895 15.9475C69.0745 15.2925 69.0595 14.6725 69.0445 14.0875C69.0295 13.5025 69.017 12.985 69.007 12.535C68.997 12.085 68.992 11.7475 68.992 11.5225C69.062 11.5075 69.302 11.465 69.712 11.395C70.127 11.32 70.6345 11.2375 71.2345 11.1475C71.2345 11.4625 71.237 11.8925 71.242 12.4375C71.252 12.9825 71.267 13.5825 71.287 14.2375C71.307 14.8875 71.3345 15.535 71.3695 16.18C71.4795 16.065 71.617 15.945 71.782 15.82C71.947 15.695 72.1345 15.58 72.3445 15.475C72.5545 15.365 72.7795 15.2775 73.0195 15.2125C73.2645 15.1425 73.517 15.1075 73.777 15.1075C74.362 15.1075 74.872 15.2425 75.307 15.5125C75.747 15.7825 76.087 16.185 76.327 16.72C76.572 17.25 76.6945 17.905 76.6945 18.685C76.6945 19.7 76.4245 20.505 75.8845 21.1C75.3495 21.69 74.6245 21.985 73.7095 21.985C73.3495 21.985 73.027 21.9375 72.742 21.8425C72.462 21.7425 72.227 21.6275 72.037 21.4975C71.852 21.3625 71.7195 21.245 71.6395 21.145C71.6445 21.24 71.6495 21.36 71.6545 21.505C71.6645 21.65 71.672 21.7825 71.677 21.9025C71.687 22.0225 71.692 22.1025 71.692 22.1425C71.262 22.1475 70.8345 22.1425 70.4095 22.1275C69.9845 22.1125 69.6145 22.0875 69.2995 22.0525ZM71.572 19.465C71.652 19.515 71.767 19.575 71.917 19.645C72.067 19.715 72.242 19.7775 72.442 19.8325C72.642 19.8825 72.8495 19.9075 73.0645 19.9075C73.5845 19.9075 73.962 19.79 74.197 19.555C74.432 19.315 74.5495 18.97 74.5495 18.52C74.5495 18.25 74.507 18.0025 74.422 17.7775C74.337 17.5475 74.2045 17.365 74.0245 17.23C73.8445 17.095 73.6095 17.0275 73.3195 17.0275C72.9995 17.0275 72.7195 17.0825 72.4795 17.1925C72.2395 17.3025 72.037 17.435 71.872 17.59C71.712 17.745 71.5845 17.885 71.4895 18.01C71.4895 18.05 71.492 18.12 71.497 18.22C71.502 18.315 71.507 18.425 71.512 18.55C71.522 18.675 71.5295 18.8 71.5345 18.925C71.5445 19.05 71.552 19.16 71.557 19.255C71.562 19.35 71.567 19.42 71.572 19.465ZM81.0936 22.1275C80.4786 22.1275 79.9161 22.045 79.4061 21.88C78.8961 21.71 78.4886 21.4375 78.1836 21.0625C77.8836 20.6825 77.7336 20.18 77.7336 19.555C77.7336 18.93 77.9086 18.4275 78.2586 18.0475C78.6136 17.6625 79.0786 17.385 79.6536 17.215C80.2336 17.04 80.8561 16.9525 81.5211 16.9525C81.7811 16.9525 82.0311 16.9725 82.2711 17.0125C82.5111 17.0525 82.7211 17.1 82.9011 17.155C83.0861 17.21 83.2186 17.2625 83.2986 17.3125C83.2936 17.1825 83.2661 17.045 83.2161 16.9C83.1711 16.755 83.1061 16.6325 83.0211 16.5325C82.8711 16.3275 82.6661 16.1575 82.4061 16.0225C82.1511 15.8825 81.8136 15.8125 81.3936 15.8125C80.9686 15.8125 80.5936 15.91 80.2686 16.105C79.9436 16.295 79.6961 16.51 79.5261 16.75L77.6961 15.5725C77.9211 15.2525 78.2236 14.9725 78.6036 14.7325C78.9886 14.4925 79.4236 14.305 79.9086 14.17C80.3986 14.035 80.9111 13.9675 81.4461 13.9675C82.3311 13.9675 83.0486 14.1125 83.5986 14.4025C84.1486 14.6925 84.5561 15.0975 84.8211 15.6175C84.9461 15.8675 85.0486 16.1425 85.1286 16.4425C85.2086 16.7425 85.2636 17.0875 85.2936 17.4775C85.3136 17.8125 85.3286 18.125 85.3386 18.415C85.3486 18.705 85.3586 18.98 85.3686 19.24C85.3786 19.62 85.4211 19.8675 85.4961 19.9825C85.5711 20.0975 85.6786 20.155 85.8186 20.155C85.9486 20.155 86.0636 20.12 86.1636 20.05C86.2686 19.975 86.3361 19.8775 86.3661 19.7575L87.1461 21.25C87.0911 21.48 86.9361 21.6725 86.6811 21.8275C86.4261 21.9825 86.1036 22.06 85.7136 22.06C85.4286 22.06 85.1586 22.0125 84.9036 21.9175C84.6486 21.8175 84.4386 21.685 84.2736 21.52C84.1086 21.35 84.0111 21.1575 83.9811 20.9425C83.9011 21.1325 83.7336 21.32 83.4786 21.505C83.2236 21.685 82.8961 21.835 82.4961 21.955C82.0961 22.07 81.6286 22.1275 81.0936 22.1275ZM81.5961 20.365C81.8311 20.365 82.0711 20.33 82.3161 20.26C82.5661 20.185 82.7911 20.0925 82.9911 19.9825C83.1961 19.8725 83.3536 19.76 83.4636 19.645C83.4536 19.49 83.4436 19.33 83.4336 19.165C83.4286 19 83.4286 18.86 83.4336 18.745C83.3236 18.7 83.1136 18.6525 82.8036 18.6025C82.4986 18.5475 82.1786 18.52 81.8436 18.52C81.5386 18.52 81.2536 18.5525 80.9886 18.6175C80.7236 18.6825 80.5061 18.7825 80.3361 18.9175C80.1711 19.0525 80.0886 19.2275 80.0886 19.4425C80.0886 19.6725 80.1511 19.855 80.2761 19.99C80.4011 20.125 80.5761 20.2225 80.8011 20.2825C81.0261 20.3375 81.2911 20.365 81.5961 20.365ZM89.9055 22.0825C89.7905 22.1025 89.628 22.1175 89.418 22.1275C89.213 22.1375 89.0005 22.1425 88.7805 22.1425C88.5205 22.1425 88.278 22.1325 88.053 22.1125C87.828 22.0975 87.663 22.07 87.558 22.03C87.598 21.73 87.633 21.34 87.663 20.86C87.698 20.375 87.7255 19.8325 87.7455 19.2325C87.7705 18.6325 87.783 18.0025 87.783 17.3425C87.783 16.6675 87.7705 15.98 87.7455 15.28C87.7255 14.58 87.698 13.905 87.663 13.255C87.628 12.6 87.5955 12.0025 87.5655 11.4625C87.6005 11.4475 87.7105 11.425 87.8955 11.395C88.0805 11.365 88.2955 11.335 88.5405 11.305C88.7855 11.27 89.018 11.24 89.238 11.215C89.458 11.19 89.623 11.1775 89.733 11.1775C89.813 11.5525 89.883 12 89.943 12.52C90.003 13.04 90.053 13.61 90.093 14.23C90.133 14.845 90.1605 15.49 90.1755 16.165C90.3455 15.975 90.5605 15.805 90.8205 15.655C91.0805 15.5 91.363 15.38 91.668 15.295C91.978 15.205 92.2855 15.16 92.5905 15.16C93.2005 15.16 93.668 15.2775 93.993 15.5125C94.318 15.7425 94.543 16.08 94.668 16.525C94.798 16.965 94.863 17.5025 94.863 18.1375C94.863 18.5375 94.8455 18.9675 94.8105 19.4275C94.7805 19.8875 94.7405 20.34 94.6905 20.785C94.6405 21.23 94.5855 21.63 94.5255 21.985C94.3505 22.01 94.1705 22.03 93.9855 22.045C93.8005 22.06 93.6155 22.0675 93.4305 22.0675C93.2255 22.0675 93.023 22.0575 92.823 22.0375C92.628 22.0225 92.4505 22 92.2905 21.97C92.3255 21.745 92.363 21.48 92.403 21.175C92.443 20.87 92.4805 20.5575 92.5155 20.2375C92.5505 19.9125 92.578 19.605 92.598 19.315C92.623 19.02 92.6355 18.77 92.6355 18.565C92.6355 18.27 92.6055 18.02 92.5455 17.815C92.4905 17.61 92.398 17.455 92.268 17.35C92.143 17.24 91.973 17.185 91.758 17.185C91.573 17.185 91.398 17.22 91.233 17.29C91.068 17.355 90.9155 17.44 90.7755 17.545C90.6405 17.645 90.5205 17.75 90.4155 17.86C90.3105 17.965 90.228 18.0575 90.168 18.1375C90.168 18.6525 90.1555 19.1675 90.1305 19.6825C90.1055 20.1925 90.073 20.6575 90.033 21.0775C89.993 21.4975 89.9505 21.8325 89.9055 22.0825ZM100.753 21.82C100.768 21.545 100.783 21.1725 100.798 20.7025C100.813 20.2275 100.825 19.695 100.835 19.105C100.845 18.51 100.85 17.8975 100.85 17.2675C100.85 16.6375 100.845 16.015 100.835 15.4C100.825 14.78 100.813 14.2075 100.798 13.6825C100.783 13.1575 100.768 12.7175 100.753 12.3625C100.898 12.3425 101.125 12.32 101.435 12.295C101.745 12.27 102.068 12.2575 102.403 12.2575C102.563 12.2575 102.75 12.2625 102.965 12.2725C103.18 12.2825 103.325 12.295 103.4 12.31C103.41 12.57 103.413 12.9 103.408 13.3C103.408 13.7 103.4 14.1475 103.385 14.6425C103.375 15.1375 103.36 15.6625 103.34 16.2175C103.32 16.7675 103.298 17.32 103.273 17.875C103.258 18.17 103.24 18.4575 103.22 18.7375C103.205 19.0125 103.188 19.2475 103.168 19.4425C103.563 19.4175 103.953 19.3975 104.338 19.3825C104.723 19.3675 105.108 19.355 105.493 19.345C105.883 19.335 106.273 19.33 106.663 19.33C106.683 19.46 106.7 19.665 106.715 19.945C106.73 20.225 106.743 20.525 106.753 20.845C106.763 21.16 106.768 21.435 106.768 21.67C106.168 21.75 105.56 21.81 104.945 21.85C104.335 21.885 103.755 21.905 103.205 21.91C102.75 21.915 102.31 21.91 101.885 21.895C101.465 21.875 101.088 21.85 100.753 21.82ZM111.725 22.165C110.4 22.165 109.402 21.815 108.732 21.115C108.062 20.41 107.727 19.3875 107.727 18.0475C107.727 17.1525 107.9 16.41 108.245 15.82C108.59 15.225 109.067 14.7775 109.677 14.4775C110.292 14.1775 111.002 14.0275 111.807 14.0275C112.627 14.0275 113.307 14.215 113.847 14.59C114.392 14.965 114.8 15.4825 115.07 16.1425C115.34 16.8025 115.475 17.565 115.475 18.43C115.475 19.185 115.33 19.8425 115.04 20.4025C114.75 20.9625 114.325 21.3975 113.765 21.7075C113.21 22.0125 112.53 22.165 111.725 22.165ZM111.642 20.0125C111.917 20.0125 112.16 19.965 112.37 19.87C112.585 19.775 112.765 19.64 112.91 19.465C113.06 19.285 113.172 19.075 113.247 18.835C113.322 18.595 113.36 18.3325 113.36 18.0475C113.36 17.6025 113.295 17.21 113.165 16.87C113.04 16.525 112.852 16.2575 112.602 16.0675C112.357 15.8725 112.052 15.775 111.687 15.775C111.292 15.775 110.97 15.875 110.72 16.075C110.47 16.275 110.285 16.5375 110.165 16.8625C110.05 17.1825 109.992 17.525 109.992 17.89C109.992 18.505 110.132 19.0125 110.412 19.4125C110.697 19.8125 111.107 20.0125 111.642 20.0125ZM123.334 20.41C123.184 20.67 122.956 20.9275 122.651 21.1825C122.346 21.4375 121.969 21.65 121.519 21.82C121.069 21.99 120.551 22.075 119.966 22.075C119.206 22.075 118.549 21.8875 117.994 21.5125C117.439 21.1325 117.009 20.63 116.704 20.005C116.404 19.375 116.254 18.685 116.254 17.935C116.254 17.145 116.409 16.4375 116.719 15.8125C117.034 15.1875 117.476 14.6925 118.046 14.3275C118.616 13.9625 119.291 13.78 120.071 13.78C120.536 13.78 120.964 13.8525 121.354 13.9975C121.744 14.1425 122.086 14.3475 122.381 14.6125C122.681 14.8775 122.929 15.1875 123.124 15.5425L121.489 16.4575C121.474 16.4175 121.439 16.355 121.384 16.27C121.334 16.185 121.259 16.095 121.159 16C121.059 15.905 120.926 15.825 120.761 15.76C120.601 15.695 120.401 15.6625 120.161 15.6625C119.801 15.6625 119.496 15.74 119.246 15.895C118.996 16.05 118.806 16.27 118.676 16.555C118.551 16.84 118.489 17.175 118.489 17.56C118.489 17.88 118.536 18.2025 118.631 18.5275C118.726 18.8475 118.886 19.115 119.111 19.33C119.336 19.545 119.646 19.6525 120.041 19.6525C120.276 19.6525 120.494 19.6125 120.694 19.5325C120.894 19.4525 121.066 19.3575 121.211 19.2475C121.361 19.1325 121.481 19.025 121.571 18.925C121.661 18.825 121.716 18.7575 121.736 18.7225L123.334 20.41ZM127.529 22.1275C126.914 22.1275 126.352 22.045 125.842 21.88C125.332 21.71 124.924 21.4375 124.619 21.0625C124.319 20.6825 124.169 20.18 124.169 19.555C124.169 18.93 124.344 18.4275 124.694 18.0475C125.049 17.6625 125.514 17.385 126.089 17.215C126.669 17.04 127.292 16.9525 127.957 16.9525C128.217 16.9525 128.467 16.9725 128.707 17.0125C128.947 17.0525 129.157 17.1 129.337 17.155C129.522 17.21 129.654 17.2625 129.734 17.3125C129.729 17.1825 129.702 17.045 129.652 16.9C129.607 16.755 129.542 16.6325 129.457 16.5325C129.307 16.3275 129.102 16.1575 128.842 16.0225C128.587 15.8825 128.249 15.8125 127.829 15.8125C127.404 15.8125 127.029 15.91 126.704 16.105C126.379 16.295 126.132 16.51 125.962 16.75L124.132 15.5725C124.357 15.2525 124.659 14.9725 125.039 14.7325C125.424 14.4925 125.859 14.305 126.344 14.17C126.834 14.035 127.347 13.9675 127.882 13.9675C128.767 13.9675 129.484 14.1125 130.034 14.4025C130.584 14.6925 130.992 15.0975 131.257 15.6175C131.382 15.8675 131.484 16.1425 131.564 16.4425C131.644 16.7425 131.699 17.0875 131.729 17.4775C131.749 17.8125 131.764 18.125 131.774 18.415C131.784 18.705 131.794 18.98 131.804 19.24C131.814 19.62 131.857 19.8675 131.932 19.9825C132.007 20.0975 132.114 20.155 132.254 20.155C132.384 20.155 132.499 20.12 132.599 20.05C132.704 19.975 132.772 19.8775 132.802 19.7575L133.582 21.25C133.527 21.48 133.372 21.6725 133.117 21.8275C132.862 21.9825 132.539 22.06 132.149 22.06C131.864 22.06 131.594 22.0125 131.339 21.9175C131.084 21.8175 130.874 21.685 130.709 21.52C130.544 21.35 130.447 21.1575 130.417 20.9425C130.337 21.1325 130.169 21.32 129.914 21.505C129.659 21.685 129.332 21.835 128.932 21.955C128.532 22.07 128.064 22.1275 127.529 22.1275ZM128.032 20.365C128.267 20.365 128.507 20.33 128.752 20.26C129.002 20.185 129.227 20.0925 129.427 19.9825C129.632 19.8725 129.789 19.76 129.899 19.645C129.889 19.49 129.879 19.33 129.869 19.165C129.864 19 129.864 18.86 129.869 18.745C129.759 18.7 129.549 18.6525 129.239 18.6025C128.934 18.5475 128.614 18.52 128.279 18.52C127.974 18.52 127.689 18.5525 127.424 18.6175C127.159 18.6825 126.942 18.7825 126.772 18.9175C126.607 19.0525 126.524 19.2275 126.524 19.4425C126.524 19.6725 126.587 19.855 126.712 19.99C126.837 20.125 127.012 20.2225 127.237 20.2825C127.462 20.3375 127.727 20.365 128.032 20.365ZM138.269 21.6475C138.129 21.7975 137.866 21.9425 137.481 22.0825C137.101 22.2275 136.676 22.3 136.206 22.3C135.596 22.3 135.131 22.1575 134.811 21.8725C134.496 21.5875 134.284 21.185 134.174 20.665C134.064 20.14 134.009 19.53 134.009 18.835C134.009 18.29 134.014 17.7425 134.024 17.1925C134.034 16.6425 134.046 16.0975 134.061 15.5575C134.081 15.0175 134.101 14.495 134.121 13.99C134.146 13.48 134.169 12.9975 134.189 12.5425C134.214 12.0825 134.239 11.6625 134.264 11.2825C134.619 11.2575 134.946 11.245 135.246 11.245C135.441 11.245 135.634 11.25 135.824 11.26C136.014 11.27 136.224 11.285 136.454 11.305C136.429 11.74 136.399 12.2225 136.364 12.7525C136.334 13.2775 136.304 13.815 136.274 14.365C136.249 14.915 136.224 15.4475 136.199 15.9625C136.174 16.4775 136.154 16.945 136.139 17.365C136.129 17.78 136.124 18.1125 136.124 18.3625C136.124 18.6875 136.136 18.99 136.161 19.27C136.191 19.545 136.256 19.77 136.356 19.945C136.456 20.115 136.606 20.2 136.806 20.2C136.976 20.2 137.114 20.1625 137.219 20.0875C137.329 20.0075 137.419 19.9075 137.489 19.7875C137.524 19.8475 137.579 19.9675 137.654 20.1475C137.729 20.3225 137.811 20.5175 137.901 20.7325C137.991 20.9475 138.071 21.1425 138.141 21.3175C138.211 21.4875 138.254 21.5975 138.269 21.6475ZM139.233 22.1875C139.203 21.6275 139.165 20.9425 139.12 20.1325C139.08 19.3175 139.035 18.4475 138.985 17.5225C138.94 16.5925 138.895 15.67 138.85 14.755C138.805 13.835 138.765 12.9925 138.73 12.2275C138.925 12.2075 139.175 12.1875 139.48 12.1675C139.785 12.1475 140.115 12.1275 140.47 12.1075C140.825 12.0875 141.173 12.07 141.513 12.055C141.853 12.04 142.155 12.0325 142.42 12.0325C142.805 12.0325 143.19 12.07 143.575 12.145C143.965 12.215 144.32 12.34 144.64 12.52C144.965 12.7 145.225 12.9575 145.42 13.2925C145.615 13.6225 145.713 14.05 145.713 14.575C145.713 15.09 145.58 15.575 145.315 16.03C145.055 16.485 144.708 16.815 144.273 17.02C144.388 17.235 144.515 17.495 144.655 17.8C144.795 18.105 144.935 18.4325 145.075 18.7825C145.22 19.1325 145.358 19.48 145.488 19.825C145.618 20.165 145.733 20.4775 145.833 20.7625C145.938 21.0475 146.015 21.28 146.065 21.46C145.92 21.55 145.725 21.635 145.48 21.715C145.24 21.795 144.993 21.8675 144.738 21.9325C144.483 21.9925 144.26 22.0425 144.07 22.0825C143.885 22.1225 143.773 22.1425 143.733 22.1425C143.693 21.9425 143.63 21.68 143.545 21.355C143.46 21.03 143.363 20.6775 143.253 20.2975C143.143 19.9175 143.03 19.545 142.915 19.18C142.805 18.81 142.703 18.48 142.608 18.19C142.513 17.9 142.438 17.685 142.382 17.545C142.267 17.57 142.15 17.5925 142.03 17.6125C141.915 17.6325 141.805 17.6475 141.7 17.6575C141.6 17.6675 141.508 17.675 141.423 17.68C141.443 17.795 141.463 17.985 141.483 18.25C141.508 18.51 141.533 18.8125 141.558 19.1575C141.583 19.5025 141.605 19.8575 141.625 20.2225C141.65 20.5825 141.67 20.9225 141.685 21.2425C141.705 21.5625 141.718 21.825 141.723 22.03C141.523 22.075 141.278 22.1075 140.988 22.1275C140.703 22.1525 140.405 22.1675 140.095 22.1725C139.79 22.1825 139.503 22.1875 139.233 22.1875ZM141.22 15.88C141.375 15.88 141.533 15.875 141.693 15.865C141.858 15.85 142.053 15.8225 142.278 15.7825C142.603 15.7275 142.863 15.6525 143.058 15.5575C143.253 15.4575 143.393 15.3325 143.478 15.1825C143.568 15.0275 143.613 14.8475 143.613 14.6425C143.613 14.3675 143.55 14.17 143.425 14.05C143.3 13.925 143.128 13.845 142.908 13.81C142.693 13.775 142.44 13.7575 142.15 13.7575C142.07 13.7575 141.975 13.7625 141.865 13.7725C141.755 13.7775 141.645 13.785 141.535 13.795C141.425 13.805 141.325 13.815 141.235 13.825C141.145 13.83 141.08 13.835 141.04 13.84C141.045 13.925 141.055 14.0375 141.07 14.1775C141.085 14.3175 141.1 14.4725 141.115 14.6425C141.13 14.8075 141.143 14.9725 141.153 15.1375C141.168 15.2975 141.18 15.445 141.19 15.58C141.205 15.71 141.215 15.81 141.22 15.88ZM154.02 20.6575C153.88 20.8275 153.705 20.995 153.495 21.16C153.285 21.325 153.033 21.475 152.738 21.61C152.448 21.74 152.115 21.845 151.74 21.925C151.365 22 150.945 22.0375 150.48 22.0375C149.725 22.0375 149.055 21.895 148.47 21.61C147.885 21.32 147.428 20.8925 147.098 20.3275C146.773 19.7575 146.61 19.05 146.61 18.205C146.61 17.36 146.78 16.625 147.12 16C147.46 15.37 147.935 14.8825 148.545 14.5375C149.155 14.1875 149.868 14.0125 150.683 14.0125C151.713 14.0125 152.523 14.3 153.113 14.875C153.708 15.445 154.018 16.235 154.043 17.245C154.048 17.43 154.045 17.5975 154.035 17.7475C154.025 17.8975 154.005 18.0575 153.975 18.2275C153.9 18.2225 153.74 18.2175 153.495 18.2125C153.25 18.2075 152.973 18.2025 152.663 18.1975C152.358 18.1875 152.068 18.18 151.793 18.175C151.523 18.17 151.323 18.1675 151.193 18.1675C150.758 18.1675 150.335 18.1875 149.925 18.2275C149.52 18.2675 149.18 18.31 148.905 18.355C148.905 18.445 148.91 18.535 148.92 18.625C148.935 18.71 148.955 18.7925 148.98 18.8725C149.045 19.0775 149.158 19.2525 149.318 19.3975C149.483 19.5425 149.678 19.655 149.903 19.735C150.133 19.81 150.375 19.8475 150.63 19.8475C150.86 19.8475 151.07 19.82 151.26 19.765C151.455 19.705 151.633 19.6275 151.793 19.5325C151.953 19.4375 152.098 19.335 152.228 19.225C152.363 19.11 152.488 18.9975 152.603 18.8875C152.633 18.9125 152.71 18.9875 152.835 19.1125C152.96 19.2325 153.1 19.3825 153.255 19.5625C153.41 19.7375 153.558 19.9225 153.698 20.1175C153.838 20.3125 153.945 20.4925 154.02 20.6575ZM148.988 16.9525C149.213 16.9175 149.49 16.885 149.82 16.855C150.15 16.825 150.533 16.81 150.968 16.81C151.203 16.81 151.41 16.8125 151.59 16.8175C151.775 16.8225 151.905 16.8275 151.98 16.8325C151.98 16.7275 151.965 16.6125 151.935 16.4875C151.895 16.3175 151.815 16.155 151.695 16C151.58 15.845 151.43 15.72 151.245 15.625C151.065 15.53 150.848 15.4825 150.593 15.4825C150.273 15.4825 149.993 15.5525 149.753 15.6925C149.518 15.8325 149.335 16.015 149.205 16.24C149.075 16.465 149.003 16.7025 148.988 16.9525ZM159.654 13.8175C160.009 13.8775 160.342 13.9475 160.652 14.0275C160.962 14.1075 161.219 14.1775 161.424 14.2375C161.634 14.2975 161.762 14.3375 161.807 14.3575C161.707 14.7575 161.587 15.205 161.447 15.7C161.312 16.19 161.159 16.705 160.989 17.245C160.824 17.78 160.649 18.32 160.464 18.865C160.279 19.405 160.089 19.9325 159.894 20.4475C159.704 20.9575 159.517 21.4275 159.332 21.8575C159.067 21.9025 158.742 21.925 158.357 21.925C158.167 21.925 157.982 21.9175 157.802 21.9025C157.627 21.8875 157.477 21.8725 157.352 21.8575C157.092 21.3125 156.839 20.74 156.594 20.14C156.349 19.535 156.112 18.9125 155.882 18.2725C155.652 17.6325 155.429 16.98 155.214 16.315C154.999 15.645 154.789 14.975 154.584 14.305C154.659 14.29 154.782 14.265 154.952 14.23C155.127 14.19 155.317 14.145 155.522 14.095C155.732 14.045 155.937 13.995 156.137 13.945C156.337 13.89 156.502 13.845 156.632 13.81C156.707 14.11 156.804 14.465 156.924 14.875C157.044 15.28 157.174 15.705 157.314 16.15C157.459 16.59 157.602 17.0175 157.742 17.4325C157.882 17.8425 158.007 18.2075 158.117 18.5275C158.232 18.8475 158.319 19.085 158.379 19.24L158.289 19.2775C158.379 18.9925 158.472 18.695 158.567 18.385C158.662 18.07 158.757 17.74 158.852 17.395C158.947 17.045 159.039 16.68 159.129 16.3C159.224 15.92 159.314 15.5225 159.399 15.1075C159.489 14.6925 159.574 14.2625 159.654 13.8175ZM165.301 21.985C165.216 21.99 165.053 22 164.813 22.015C164.578 22.035 164.328 22.045 164.063 22.045C163.868 22.045 163.671 22.0375 163.471 22.0225C163.276 22.0125 163.083 21.9975 162.893 21.9775C162.918 21.8475 162.946 21.5825 162.976 21.1825C163.011 20.7775 163.043 20.3025 163.073 19.7575C163.108 19.2125 163.141 18.65 163.171 18.07C163.206 17.485 163.231 16.9375 163.246 16.4275C163.266 15.9175 163.276 15.5075 163.276 15.1975C163.376 15.1925 163.523 15.185 163.718 15.175C163.913 15.165 164.123 15.1575 164.348 15.1525C164.573 15.1425 164.788 15.135 164.993 15.13C165.198 15.12 165.361 15.115 165.481 15.115C165.506 15.27 165.526 15.52 165.541 15.865C165.556 16.21 165.563 16.595 165.563 17.02C165.563 17.475 165.556 17.9575 165.541 18.4675C165.531 18.9775 165.513 19.4725 165.488 19.9525C165.468 20.4275 165.441 20.8475 165.406 21.2125C165.371 21.5725 165.336 21.83 165.301 21.985ZM164.461 14.1475C164.011 14.1475 163.633 14.0175 163.328 13.7575C163.023 13.4925 162.871 13.145 162.871 12.715C162.871 12.42 162.943 12.1675 163.088 11.9575C163.233 11.7475 163.421 11.5875 163.651 11.4775C163.886 11.3625 164.133 11.305 164.393 11.305C164.808 11.305 165.151 11.44 165.421 11.71C165.696 11.98 165.833 12.3275 165.833 12.7525C165.833 13.1475 165.703 13.48 165.443 13.75C165.183 14.015 164.856 14.1475 164.461 14.1475ZM174.689 20.6575C174.549 20.8275 174.374 20.995 174.164 21.16C173.954 21.325 173.702 21.475 173.407 21.61C173.117 21.74 172.784 21.845 172.409 21.925C172.034 22 171.614 22.0375 171.149 22.0375C170.394 22.0375 169.724 21.895 169.139 21.61C168.554 21.32 168.097 20.8925 167.767 20.3275C167.442 19.7575 167.279 19.05 167.279 18.205C167.279 17.36 167.449 16.625 167.789 16C168.129 15.37 168.604 14.8825 169.214 14.5375C169.824 14.1875 170.537 14.0125 171.352 14.0125C172.382 14.0125 173.192 14.3 173.782 14.875C174.377 15.445 174.687 16.235 174.712 17.245C174.717 17.43 174.714 17.5975 174.704 17.7475C174.694 17.8975 174.674 18.0575 174.644 18.2275C174.569 18.2225 174.409 18.2175 174.164 18.2125C173.919 18.2075 173.642 18.2025 173.332 18.1975C173.027 18.1875 172.737 18.18 172.462 18.175C172.192 18.17 171.992 18.1675 171.862 18.1675C171.427 18.1675 171.004 18.1875 170.594 18.2275C170.189 18.2675 169.849 18.31 169.574 18.355C169.574 18.445 169.579 18.535 169.589 18.625C169.604 18.71 169.624 18.7925 169.649 18.8725C169.714 19.0775 169.827 19.2525 169.987 19.3975C170.152 19.5425 170.347 19.655 170.572 19.735C170.802 19.81 171.044 19.8475 171.299 19.8475C171.529 19.8475 171.739 19.82 171.929 19.765C172.124 19.705 172.302 19.6275 172.462 19.5325C172.622 19.4375 172.767 19.335 172.897 19.225C173.032 19.11 173.157 18.9975 173.272 18.8875C173.302 18.9125 173.379 18.9875 173.504 19.1125C173.629 19.2325 173.769 19.3825 173.924 19.5625C174.079 19.7375 174.227 19.9225 174.367 20.1175C174.507 20.3125 174.614 20.4925 174.689 20.6575ZM169.657 16.9525C169.882 16.9175 170.159 16.885 170.489 16.855C170.819 16.825 171.202 16.81 171.637 16.81C171.872 16.81 172.079 16.8125 172.259 16.8175C172.444 16.8225 172.574 16.8275 172.649 16.8325C172.649 16.7275 172.634 16.6125 172.604 16.4875C172.564 16.3175 172.484 16.155 172.364 16C172.249 15.845 172.099 15.72 171.914 15.625C171.734 15.53 171.517 15.4825 171.262 15.4825C170.942 15.4825 170.662 15.5525 170.422 15.6925C170.187 15.8325 170.004 16.015 169.874 16.24C169.744 16.465 169.672 16.7025 169.657 16.9525ZM178.881 21.9475C178.326 21.9475 177.869 21.8225 177.509 21.5725C177.149 21.3175 176.866 20.9725 176.661 20.5375C176.461 20.0975 176.319 19.5925 176.234 19.0225C176.154 18.4525 176.114 17.85 176.114 17.215C176.114 16.7 176.131 16.175 176.166 15.64C176.206 15.1 176.254 14.57 176.309 14.05C176.624 14.05 176.981 14.06 177.381 14.08C177.786 14.1 178.151 14.1225 178.476 14.1475C178.421 14.7525 178.379 15.3275 178.349 15.8725C178.319 16.4175 178.304 16.915 178.304 17.365C178.304 17.845 178.329 18.2625 178.379 18.6175C178.429 18.9725 178.514 19.2475 178.634 19.4425C178.754 19.6325 178.919 19.7275 179.129 19.7275C179.314 19.7275 179.471 19.645 179.601 19.48C179.736 19.31 179.846 19.0775 179.931 18.7825C180.016 18.4825 180.079 18.135 180.119 17.74C180.164 17.34 180.186 16.9125 180.186 16.4575C180.186 16.1175 180.184 15.7475 180.179 15.3475C180.174 14.9475 180.164 14.5625 180.149 14.1925C180.294 14.1925 180.494 14.195 180.749 14.2C181.004 14.2 181.259 14.2025 181.514 14.2075C181.774 14.2125 181.984 14.22 182.144 14.23C182.144 14.415 182.144 14.6 182.144 14.785C182.144 14.97 182.144 15.1525 182.144 15.3325C182.144 16.0575 182.151 16.7075 182.166 17.2825C182.186 17.8575 182.226 18.3475 182.286 18.7525C182.351 19.1525 182.449 19.4575 182.579 19.6675C182.709 19.8775 182.886 19.9825 183.111 19.9825C183.321 19.9825 183.496 19.8925 183.636 19.7125C183.776 19.5275 183.889 19.27 183.974 18.94C184.064 18.61 184.126 18.225 184.161 17.785C184.201 17.34 184.221 16.8625 184.221 16.3525C184.221 16.1425 184.221 15.92 184.221 15.685C184.221 15.445 184.219 15.1975 184.214 14.9425C184.209 14.6875 184.201 14.4375 184.191 14.1925C184.336 14.1925 184.494 14.1925 184.664 14.1925C184.834 14.1925 185.006 14.1925 185.181 14.1925C185.341 14.1925 185.531 14.1975 185.751 14.2075C185.976 14.2175 186.151 14.2275 186.276 14.2375C186.291 14.4425 186.306 14.69 186.321 14.98C186.336 15.265 186.349 15.55 186.359 15.835C186.369 16.115 186.374 16.3525 186.374 16.5475C186.374 17.1725 186.336 17.7575 186.261 18.3025C186.186 18.8475 186.071 19.34 185.916 19.78C185.761 20.22 185.559 20.5975 185.309 20.9125C185.064 21.2275 184.766 21.47 184.416 21.64C184.071 21.805 183.669 21.8875 183.209 21.8875C182.809 21.8875 182.474 21.82 182.204 21.685C181.934 21.55 181.716 21.3775 181.551 21.1675C181.386 20.9525 181.259 20.7275 181.169 20.4925C181.084 20.2575 181.024 20.0375 180.989 19.8325C180.959 19.6275 180.939 19.4675 180.929 19.3525L181.386 19.4275C181.381 19.6325 181.329 19.8775 181.229 20.1625C181.134 20.4475 180.986 20.7275 180.786 21.0025C180.586 21.2725 180.329 21.4975 180.014 21.6775C179.704 21.8575 179.326 21.9475 178.881 21.9475Z" fill="white"/>
</svg>
