<svg width="200" height="38" viewBox="0 0 200 38" fill="none" xmlns="http://www.w3.org/2000/svg">
<path d="M3.48096 32.7233C1.11762 29.9368 -0.654895 6.84935 3.48096 4.36149C7.61682 1.87363 74.3813 3.36635 109.241 4.36149C144.1 5.35663 190.185 3.8639 196.094 5.35663C202.002 6.84935 200.289 33.4199 196.98 36.2063C192.844 39.6893 119.285 37.2014 101.855 36.2063C84.4255 35.2111 6.43514 36.2063 3.48096 32.7233Z" fill="#214868"/>
<path d="M2.48096 29.7233C0.117618 26.9368 -1.65489 3.84935 2.48096 1.36149C6.61682 -1.12637 73.3813 0.366353 108.241 1.36149C143.1 2.35663 189.185 0.863904 195.094 2.35663C201.002 3.84935 199.289 30.4199 195.98 33.2063C191.844 36.6893 118.285 34.2014 100.855 33.2063C83.4255 32.2111 5.43514 33.2063 2.48096 29.7233Z" fill="#3387DC"/>
<path d="M25 7C23.0222 7 21.0888 7.58649 19.4443 8.6853C17.7998 9.78412 16.5181 11.3459 15.7612 13.1732C15.0043 15.0004 14.8063 17.0111 15.1922 18.9509C15.578 20.8907 16.5304 22.6725 17.9289 24.0711C19.3275 25.4696 21.1093 26.422 23.0491 26.8079C24.9889 27.1937 26.9996 26.9957 28.8268 26.2388C30.6541 25.4819 32.2159 24.2002 33.3147 22.5557C34.4135 20.9112 35 18.9778 35 17C35 15.6868 34.7413 14.3864 34.2388 13.1732C33.7363 11.9599 32.9997 10.8575 32.0711 9.92893C31.1425 9.00035 30.0401 8.26375 28.8268 7.7612C27.6136 7.25866 26.3132 7 25 7ZM25 25C23.4178 25 21.871 24.5308 20.5554 23.6518C19.2398 22.7727 18.2145 21.5233 17.609 20.0615C17.0035 18.5997 16.845 16.9911 17.1537 15.4393C17.4624 13.8874 18.2243 12.462 19.3432 11.3431C20.462 10.2243 21.8874 9.4624 23.4393 9.15372C24.9911 8.84504 26.5997 9.00346 28.0615 9.60896C29.5233 10.2145 30.7727 11.2398 31.6518 12.5554C32.5308 13.871 33 15.4177 33 17C33 19.1217 32.1572 21.1566 30.6569 22.6569C29.1566 24.1571 27.1217 25 25 25ZM29 16H26V13C26 12.7348 25.8946 12.4804 25.7071 12.2929C25.5196 12.1054 25.2652 12 25 12C24.7348 12 24.4804 12.1054 24.2929 12.2929C24.1054 12.4804 24 12.7348 24 13V16H21C20.7348 16 20.4804 16.1054 20.2929 16.2929C20.1054 16.4804 20 16.7348 20 17C20 17.2652 20.1054 17.5196 20.2929 17.7071C20.4804 17.8946 20.7348 18 21 18H24V21C24 21.2652 24.1054 21.5196 24.2929 21.7071C24.4804 21.8946 24.7348 22 25 22C25.2652 22 25.5196 21.8946 25.7071 21.7071C25.8946 21.5196 26 21.2652 26 21V18H29C29.2652 18 29.5196 17.8946 29.7071 17.7071C29.8946 17.5196 30 17.2652 30 17C30 16.7348 29.8946 16.4804 29.7071 16.2929C29.5196 16.1054 29.2652 16 29 16Z" fill="white"/>
<path d="M43.5603 14.2225C43.5353 14.1125 43.5128 13.9575 43.4928 13.7575C43.4778 13.5525 43.4628 13.34 43.4478 13.12C43.4378 12.895 43.4278 12.695 43.4178 12.52C43.4128 12.34 43.4103 12.2175 43.4103 12.1525C43.9703 12.1125 44.6078 12.0775 45.3228 12.0475C46.0428 12.0125 46.7703 11.995 47.5053 11.995C48.0603 11.995 48.6003 12.0075 49.1253 12.0325C49.6553 12.0525 50.1378 12.095 50.5728 12.16C50.5778 12.575 50.5653 12.9625 50.5353 13.3225C50.5053 13.6775 50.4703 13.945 50.4303 14.125C50.3353 14.125 50.1978 14.125 50.0178 14.125C49.8378 14.12 49.6378 14.1175 49.4178 14.1175C49.2028 14.1125 48.9903 14.11 48.7803 14.11C48.5703 14.105 48.3878 14.1 48.2328 14.095C48.2378 14.28 48.2478 14.555 48.2628 14.92C48.2778 15.28 48.2953 15.6925 48.3153 16.1575C48.3353 16.6225 48.3578 17.11 48.3828 17.62C48.4078 18.13 48.4303 18.63 48.4503 19.12C48.4753 19.61 48.4953 20.06 48.5103 20.47C48.5303 20.875 48.5453 21.21 48.5553 21.475C48.5703 21.735 48.5778 21.89 48.5778 21.94C48.3778 21.97 48.1178 21.9975 47.7978 22.0225C47.4778 22.0475 47.1578 22.0675 46.8378 22.0825C46.5228 22.0975 46.2653 22.105 46.0653 22.105C46.0503 21.81 46.0353 21.455 46.0203 21.04C46.0053 20.62 45.9928 20.1675 45.9828 19.6825C45.9728 19.1925 45.9628 18.6925 45.9528 18.1825C45.9428 17.6675 45.9353 17.165 45.9303 16.675C45.9253 16.185 45.9228 15.735 45.9228 15.325C45.9228 15.095 45.9228 14.88 45.9228 14.68C45.9228 14.48 45.9253 14.3 45.9303 14.14C45.7603 14.15 45.5753 14.16 45.3753 14.17C45.1753 14.175 44.9703 14.1825 44.7603 14.1925C44.5503 14.2025 44.3428 14.21 44.1378 14.215C43.9328 14.22 43.7403 14.2225 43.5603 14.2225ZM54.5096 22.1275C53.8946 22.1275 53.3321 22.045 52.8221 21.88C52.3121 21.71 51.9046 21.4375 51.5996 21.0625C51.2996 20.6825 51.1496 20.18 51.1496 19.555C51.1496 18.93 51.3246 18.4275 51.6746 18.0475C52.0296 17.6625 52.4946 17.385 53.0696 17.215C53.6496 17.04 54.2721 16.9525 54.9371 16.9525C55.1971 16.9525 55.4471 16.9725 55.6871 17.0125C55.9271 17.0525 56.1371 17.1 56.3171 17.155C56.5021 17.21 56.6346 17.2625 56.7146 17.3125C56.7096 17.1825 56.6821 17.045 56.6321 16.9C56.5871 16.755 56.5221 16.6325 56.4371 16.5325C56.2871 16.3275 56.0821 16.1575 55.8221 16.0225C55.5671 15.8825 55.2296 15.8125 54.8096 15.8125C54.3846 15.8125 54.0096 15.91 53.6846 16.105C53.3596 16.295 53.1121 16.51 52.9421 16.75L51.1121 15.5725C51.3371 15.2525 51.6396 14.9725 52.0196 14.7325C52.4046 14.4925 52.8396 14.305 53.3246 14.17C53.8146 14.035 54.3271 13.9675 54.8621 13.9675C55.7471 13.9675 56.4646 14.1125 57.0146 14.4025C57.5646 14.6925 57.9721 15.0975 58.2371 15.6175C58.3621 15.8675 58.4646 16.1425 58.5446 16.4425C58.6246 16.7425 58.6796 17.0875 58.7096 17.4775C58.7296 17.8125 58.7446 18.125 58.7546 18.415C58.7646 18.705 58.7746 18.98 58.7846 19.24C58.7946 19.62 58.8371 19.8675 58.9121 19.9825C58.9871 20.0975 59.0946 20.155 59.2346 20.155C59.3646 20.155 59.4796 20.12 59.5796 20.05C59.6846 19.975 59.7521 19.8775 59.7821 19.7575L60.5621 21.25C60.5071 21.48 60.3521 21.6725 60.0971 21.8275C59.8421 21.9825 59.5196 22.06 59.1296 22.06C58.8446 22.06 58.5746 22.0125 58.3196 21.9175C58.0646 21.8175 57.8546 21.685 57.6896 21.52C57.5246 21.35 57.4271 21.1575 57.3971 20.9425C57.3171 21.1325 57.1496 21.32 56.8946 21.505C56.6396 21.685 56.3121 21.835 55.9121 21.955C55.5121 22.07 55.0446 22.1275 54.5096 22.1275ZM55.0121 20.365C55.2471 20.365 55.4871 20.33 55.7321 20.26C55.9821 20.185 56.2071 20.0925 56.4071 19.9825C56.6121 19.8725 56.7696 19.76 56.8796 19.645C56.8696 19.49 56.8596 19.33 56.8496 19.165C56.8446 19 56.8446 18.86 56.8496 18.745C56.7396 18.7 56.5296 18.6525 56.2196 18.6025C55.9146 18.5475 55.5946 18.52 55.2596 18.52C54.9546 18.52 54.6696 18.5525 54.4046 18.6175C54.1396 18.6825 53.9221 18.7825 53.7521 18.9175C53.5871 19.0525 53.5046 19.2275 53.5046 19.4425C53.5046 19.6725 53.5671 19.855 53.6921 19.99C53.8171 20.125 53.9921 20.2225 54.2171 20.2825C54.4421 20.3375 54.7071 20.365 55.0121 20.365ZM61.4015 22.06C61.3765 21.735 61.3515 21.32 61.3265 20.815C61.3065 20.31 61.2865 19.7625 61.2665 19.1725C61.2515 18.5775 61.2365 17.9875 61.2215 17.4025C61.2115 16.8175 61.204 16.2775 61.199 15.7825C61.194 15.2825 61.1915 14.88 61.1915 14.575C61.3115 14.545 61.4715 14.515 61.6715 14.485C61.8715 14.45 62.084 14.42 62.309 14.395C62.534 14.365 62.7465 14.3425 62.9465 14.3275C63.1515 14.3075 63.3165 14.2975 63.4415 14.2975C63.4465 14.3775 63.4515 14.48 63.4565 14.605C63.4615 14.725 63.464 14.85 63.464 14.98C63.469 15.11 63.4715 15.2275 63.4715 15.3325C63.4715 15.4375 63.4715 15.5175 63.4715 15.5725C63.5015 15.4775 63.5715 15.355 63.6815 15.205C63.7915 15.055 63.9415 14.905 64.1315 14.755C64.3265 14.605 64.5615 14.48 64.8365 14.38C65.1115 14.275 65.429 14.2225 65.789 14.2225C66.134 14.2225 66.4265 14.2875 66.6665 14.4175C66.9065 14.5475 67.1065 14.7175 67.2665 14.9275C67.4265 15.1375 67.5515 15.365 67.6415 15.61C67.6865 15.73 67.7215 15.8525 67.7465 15.9775C67.7765 16.1025 67.799 16.225 67.814 16.345C67.924 15.98 68.1065 15.6325 68.3615 15.3025C68.6215 14.9675 68.944 14.695 69.329 14.485C69.714 14.27 70.1565 14.1625 70.6565 14.1625C71.2565 14.1625 71.749 14.27 72.134 14.485C72.524 14.7 72.8265 15.0175 73.0415 15.4375C73.2565 15.8575 73.4065 16.3725 73.4915 16.9825C73.5765 17.5925 73.619 18.29 73.619 19.075C73.619 19.385 73.6115 19.71 73.5965 20.05C73.5865 20.39 73.5715 20.7325 73.5515 21.0775C73.5315 21.4225 73.5115 21.7575 73.4915 22.0825C73.3115 22.0925 73.124 22.1 72.929 22.105C72.734 22.115 72.539 22.12 72.344 22.12C72.149 22.12 71.949 22.115 71.744 22.105C71.544 22.1 71.3415 22.09 71.1365 22.075C71.2365 21.33 71.319 20.645 71.384 20.02C71.449 19.39 71.4815 18.8375 71.4815 18.3625C71.4815 17.6675 71.4015 17.1375 71.2415 16.7725C71.0865 16.4075 70.819 16.225 70.439 16.225C70.094 16.225 69.814 16.33 69.599 16.54C69.384 16.75 69.2165 17.04 69.0965 17.41C68.9765 17.78 68.889 18.21 68.834 18.7C68.784 19.185 68.749 19.705 68.729 20.26C68.719 20.54 68.709 20.8325 68.699 21.1375C68.689 21.4425 68.684 21.7525 68.684 22.0675C68.584 22.0725 68.4415 22.0775 68.2565 22.0825C68.0765 22.0925 67.8865 22.0975 67.6865 22.0975C67.4515 22.0975 67.224 22.0925 67.004 22.0825C66.789 22.0775 66.6315 22.0675 66.5315 22.0525C66.5265 21.7125 66.524 21.3925 66.524 21.0925C66.524 20.7925 66.524 20.485 66.524 20.17C66.524 19.6 66.509 19.075 66.479 18.595C66.454 18.11 66.399 17.69 66.314 17.335C66.229 16.975 66.1015 16.695 65.9315 16.495C65.7665 16.295 65.5415 16.195 65.2565 16.195C65.0615 16.195 64.8715 16.2375 64.6865 16.3225C64.5015 16.4075 64.3315 16.5175 64.1765 16.6525C64.0265 16.7875 63.899 16.9375 63.794 17.1025C63.694 17.2625 63.624 17.4225 63.584 17.5825C63.614 18.3775 63.6465 19.1025 63.6815 19.7575C63.7165 20.4125 63.749 20.9475 63.779 21.3625C63.809 21.7725 63.829 22.02 63.839 22.105C63.784 22.11 63.669 22.115 63.494 22.12C63.319 22.125 63.1665 22.1275 63.0365 22.1275C62.7215 22.1275 62.4065 22.12 62.0915 22.105C61.7765 22.09 61.5465 22.075 61.4015 22.06ZM75.2496 22.0525C75.2346 21.8775 75.2196 21.585 75.2046 21.175C75.1896 20.76 75.1721 20.2725 75.1521 19.7125C75.1321 19.1475 75.1121 18.5425 75.0921 17.8975C75.0721 17.2475 75.0546 16.5975 75.0396 15.9475C75.0246 15.2925 75.0096 14.6725 74.9946 14.0875C74.9796 13.5025 74.9671 12.985 74.9571 12.535C74.9471 12.085 74.9421 11.7475 74.9421 11.5225C75.0121 11.5075 75.2521 11.465 75.6621 11.395C76.0771 11.32 76.5846 11.2375 77.1846 11.1475C77.1846 11.4625 77.1871 11.8925 77.1921 12.4375C77.2021 12.9825 77.2171 13.5825 77.2371 14.2375C77.2571 14.8875 77.2846 15.535 77.3196 16.18C77.4296 16.065 77.5671 15.945 77.7321 15.82C77.8971 15.695 78.0846 15.58 78.2946 15.475C78.5046 15.365 78.7296 15.2775 78.9696 15.2125C79.2146 15.1425 79.4671 15.1075 79.7271 15.1075C80.3121 15.1075 80.8221 15.2425 81.2571 15.5125C81.6971 15.7825 82.0371 16.185 82.2771 16.72C82.5221 17.25 82.6446 17.905 82.6446 18.685C82.6446 19.7 82.3746 20.505 81.8346 21.1C81.2996 21.69 80.5746 21.985 79.6596 21.985C79.2996 21.985 78.9771 21.9375 78.6921 21.8425C78.4121 21.7425 78.1771 21.6275 77.9871 21.4975C77.8021 21.3625 77.6696 21.245 77.5896 21.145C77.5946 21.24 77.5996 21.36 77.6046 21.505C77.6146 21.65 77.6221 21.7825 77.6271 21.9025C77.6371 22.0225 77.6421 22.1025 77.6421 22.1425C77.2121 22.1475 76.7846 22.1425 76.3596 22.1275C75.9346 22.1125 75.5646 22.0875 75.2496 22.0525ZM77.5221 19.465C77.6021 19.515 77.7171 19.575 77.8671 19.645C78.0171 19.715 78.1921 19.7775 78.3921 19.8325C78.5921 19.8825 78.7996 19.9075 79.0146 19.9075C79.5346 19.9075 79.9121 19.79 80.1471 19.555C80.3821 19.315 80.4996 18.97 80.4996 18.52C80.4996 18.25 80.4571 18.0025 80.3721 17.7775C80.2871 17.5475 80.1546 17.365 79.9746 17.23C79.7946 17.095 79.5596 17.0275 79.2696 17.0275C78.9496 17.0275 78.6696 17.0825 78.4296 17.1925C78.1896 17.3025 77.9871 17.435 77.8221 17.59C77.6621 17.745 77.5346 17.885 77.4396 18.01C77.4396 18.05 77.4421 18.12 77.4471 18.22C77.4521 18.315 77.4571 18.425 77.4621 18.55C77.4721 18.675 77.4796 18.8 77.4846 18.925C77.4946 19.05 77.5021 19.16 77.5071 19.255C77.5121 19.35 77.5171 19.42 77.5221 19.465ZM87.0438 22.1275C86.4288 22.1275 85.8663 22.045 85.3563 21.88C84.8463 21.71 84.4388 21.4375 84.1338 21.0625C83.8338 20.6825 83.6838 20.18 83.6838 19.555C83.6838 18.93 83.8588 18.4275 84.2087 18.0475C84.5638 17.6625 85.0288 17.385 85.6038 17.215C86.1838 17.04 86.8063 16.9525 87.4713 16.9525C87.7313 16.9525 87.9813 16.9725 88.2213 17.0125C88.4613 17.0525 88.6713 17.1 88.8513 17.155C89.0363 17.21 89.1688 17.2625 89.2488 17.3125C89.2438 17.1825 89.2163 17.045 89.1663 16.9C89.1213 16.755 89.0563 16.6325 88.9713 16.5325C88.8213 16.3275 88.6163 16.1575 88.3563 16.0225C88.1013 15.8825 87.7638 15.8125 87.3438 15.8125C86.9188 15.8125 86.5438 15.91 86.2188 16.105C85.8938 16.295 85.6463 16.51 85.4763 16.75L83.6463 15.5725C83.8713 15.2525 84.1738 14.9725 84.5538 14.7325C84.9388 14.4925 85.3738 14.305 85.8588 14.17C86.3488 14.035 86.8613 13.9675 87.3963 13.9675C88.2813 13.9675 88.9988 14.1125 89.5488 14.4025C90.0988 14.6925 90.5063 15.0975 90.7713 15.6175C90.8963 15.8675 90.9988 16.1425 91.0788 16.4425C91.1588 16.7425 91.2138 17.0875 91.2438 17.4775C91.2638 17.8125 91.2788 18.125 91.2888 18.415C91.2988 18.705 91.3088 18.98 91.3188 19.24C91.3288 19.62 91.3713 19.8675 91.4463 19.9825C91.5213 20.0975 91.6288 20.155 91.7688 20.155C91.8988 20.155 92.0138 20.12 92.1138 20.05C92.2188 19.975 92.2863 19.8775 92.3163 19.7575L93.0963 21.25C93.0413 21.48 92.8863 21.6725 92.6313 21.8275C92.3763 21.9825 92.0538 22.06 91.6638 22.06C91.3788 22.06 91.1088 22.0125 90.8538 21.9175C90.5988 21.8175 90.3888 21.685 90.2238 21.52C90.0588 21.35 89.9613 21.1575 89.9313 20.9425C89.8513 21.1325 89.6838 21.32 89.4288 21.505C89.1738 21.685 88.8463 21.835 88.4463 21.955C88.0463 22.07 87.5788 22.1275 87.0438 22.1275ZM87.5463 20.365C87.7813 20.365 88.0213 20.33 88.2663 20.26C88.5163 20.185 88.7413 20.0925 88.9413 19.9825C89.1463 19.8725 89.3038 19.76 89.4138 19.645C89.4038 19.49 89.3938 19.33 89.3838 19.165C89.3788 19 89.3788 18.86 89.3838 18.745C89.2738 18.7 89.0638 18.6525 88.7538 18.6025C88.4488 18.5475 88.1288 18.52 87.7938 18.52C87.4888 18.52 87.2038 18.5525 86.9388 18.6175C86.6738 18.6825 86.4563 18.7825 86.2863 18.9175C86.1213 19.0525 86.0388 19.2275 86.0388 19.4425C86.0388 19.6725 86.1013 19.855 86.2263 19.99C86.3513 20.125 86.5263 20.2225 86.7513 20.2825C86.9763 20.3375 87.2413 20.365 87.5463 20.365ZM95.8557 22.0825C95.7407 22.1025 95.5782 22.1175 95.3682 22.1275C95.1632 22.1375 94.9507 22.1425 94.7307 22.1425C94.4707 22.1425 94.2282 22.1325 94.0032 22.1125C93.7782 22.0975 93.6132 22.07 93.5082 22.03C93.5482 21.73 93.5832 21.34 93.6132 20.86C93.6482 20.375 93.6757 19.8325 93.6957 19.2325C93.7207 18.6325 93.7332 18.0025 93.7332 17.3425C93.7332 16.6675 93.7207 15.98 93.6957 15.28C93.6757 14.58 93.6482 13.905 93.6132 13.255C93.5782 12.6 93.5457 12.0025 93.5157 11.4625C93.5507 11.4475 93.6607 11.425 93.8457 11.395C94.0307 11.365 94.2457 11.335 94.4907 11.305C94.7357 11.27 94.9682 11.24 95.1882 11.215C95.4082 11.19 95.5732 11.1775 95.6832 11.1775C95.7632 11.5525 95.8332 12 95.8932 12.52C95.9532 13.04 96.0032 13.61 96.0432 14.23C96.0832 14.845 96.1107 15.49 96.1257 16.165C96.2957 15.975 96.5107 15.805 96.7707 15.655C97.0307 15.5 97.3132 15.38 97.6182 15.295C97.9282 15.205 98.2357 15.16 98.5407 15.16C99.1507 15.16 99.6182 15.2775 99.9432 15.5125C100.268 15.7425 100.493 16.08 100.618 16.525C100.748 16.965 100.813 17.5025 100.813 18.1375C100.813 18.5375 100.796 18.9675 100.761 19.4275C100.731 19.8875 100.691 20.34 100.641 20.785C100.591 21.23 100.536 21.63 100.476 21.985C100.301 22.01 100.121 22.03 99.9357 22.045C99.7507 22.06 99.5657 22.0675 99.3807 22.0675C99.1757 22.0675 98.9732 22.0575 98.7732 22.0375C98.5782 22.0225 98.4007 22 98.2407 21.97C98.2757 21.745 98.3132 21.48 98.3532 21.175C98.3932 20.87 98.4307 20.5575 98.4657 20.2375C98.5007 19.9125 98.5282 19.605 98.5482 19.315C98.5732 19.02 98.5857 18.77 98.5857 18.565C98.5857 18.27 98.5557 18.02 98.4957 17.815C98.4407 17.61 98.3482 17.455 98.2182 17.35C98.0932 17.24 97.9232 17.185 97.7082 17.185C97.5232 17.185 97.3482 17.22 97.1832 17.29C97.0182 17.355 96.8657 17.44 96.7257 17.545C96.5907 17.645 96.4707 17.75 96.3657 17.86C96.2607 17.965 96.1782 18.0575 96.1182 18.1375C96.1182 18.6525 96.1057 19.1675 96.0807 19.6825C96.0557 20.1925 96.0232 20.6575 95.9832 21.0775C95.9432 21.4975 95.9007 21.8325 95.8557 22.0825ZM106.703 21.82C106.718 21.545 106.733 21.1725 106.748 20.7025C106.763 20.2275 106.775 19.695 106.785 19.105C106.795 18.51 106.8 17.8975 106.8 17.2675C106.8 16.6375 106.795 16.015 106.785 15.4C106.775 14.78 106.763 14.2075 106.748 13.6825C106.733 13.1575 106.718 12.7175 106.703 12.3625C106.848 12.3425 107.075 12.32 107.385 12.295C107.695 12.27 108.018 12.2575 108.353 12.2575C108.513 12.2575 108.7 12.2625 108.915 12.2725C109.13 12.2825 109.275 12.295 109.35 12.31C109.36 12.57 109.363 12.9 109.358 13.3C109.358 13.7 109.35 14.1475 109.335 14.6425C109.325 15.1375 109.31 15.6625 109.29 16.2175C109.27 16.7675 109.248 17.32 109.223 17.875C109.208 18.17 109.19 18.4575 109.17 18.7375C109.155 19.0125 109.138 19.2475 109.118 19.4425C109.513 19.4175 109.903 19.3975 110.288 19.3825C110.673 19.3675 111.058 19.355 111.443 19.345C111.833 19.335 112.223 19.33 112.613 19.33C112.633 19.46 112.65 19.665 112.665 19.945C112.68 20.225 112.693 20.525 112.703 20.845C112.713 21.16 112.718 21.435 112.718 21.67C112.118 21.75 111.51 21.81 110.895 21.85C110.285 21.885 109.705 21.905 109.155 21.91C108.7 21.915 108.26 21.91 107.835 21.895C107.415 21.875 107.038 21.85 106.703 21.82ZM117.675 22.165C116.35 22.165 115.352 21.815 114.682 21.115C114.012 20.41 113.677 19.3875 113.677 18.0475C113.677 17.1525 113.85 16.41 114.195 15.82C114.54 15.225 115.017 14.7775 115.627 14.4775C116.242 14.1775 116.952 14.0275 117.757 14.0275C118.577 14.0275 119.257 14.215 119.797 14.59C120.342 14.965 120.75 15.4825 121.02 16.1425C121.29 16.8025 121.425 17.565 121.425 18.43C121.425 19.185 121.28 19.8425 120.99 20.4025C120.7 20.9625 120.275 21.3975 119.715 21.7075C119.16 22.0125 118.48 22.165 117.675 22.165ZM117.592 20.0125C117.867 20.0125 118.11 19.965 118.32 19.87C118.535 19.775 118.715 19.64 118.86 19.465C119.01 19.285 119.122 19.075 119.197 18.835C119.272 18.595 119.31 18.3325 119.31 18.0475C119.31 17.6025 119.245 17.21 119.115 16.87C118.99 16.525 118.802 16.2575 118.552 16.0675C118.307 15.8725 118.002 15.775 117.637 15.775C117.242 15.775 116.92 15.875 116.67 16.075C116.42 16.275 116.235 16.5375 116.115 16.8625C116 17.1825 115.942 17.525 115.942 17.89C115.942 18.505 116.082 19.0125 116.362 19.4125C116.647 19.8125 117.057 20.0125 117.592 20.0125ZM127.853 22.39C127.783 22.24 127.673 22.0475 127.523 21.8125C127.378 21.5725 127.21 21.32 127.02 21.055C126.835 20.785 126.64 20.5225 126.435 20.2675C126.235 20.0125 126.043 19.79 125.858 19.6C125.673 19.405 125.513 19.2675 125.378 19.1875C125.308 19.2325 125.22 19.2975 125.115 19.3825C125.01 19.4625 124.913 19.54 124.823 19.615C124.733 19.69 124.67 19.745 124.635 19.78C124.63 19.995 124.623 20.22 124.613 20.455C124.603 20.69 124.593 20.92 124.583 21.145C124.573 21.365 124.56 21.5675 124.545 21.7525C124.535 21.9325 124.525 22.075 124.515 22.18C124.33 22.2 124.145 22.215 123.96 22.225C123.775 22.235 123.59 22.24 123.405 22.24C123.165 22.24 122.938 22.23 122.723 22.21C122.508 22.195 122.32 22.18 122.16 22.165C122.165 22.045 122.178 21.7825 122.198 21.3775C122.223 20.9675 122.248 20.465 122.273 19.87C122.303 19.27 122.333 18.62 122.363 17.92C122.398 17.215 122.43 16.5075 122.46 15.7975C122.495 15.0825 122.525 14.41 122.55 13.78C122.58 13.145 122.603 12.5975 122.618 12.1375C122.633 11.6725 122.64 11.3425 122.64 11.1475C122.8 11.1325 122.965 11.12 123.135 11.11C123.305 11.1 123.473 11.095 123.638 11.095C123.873 11.095 124.1 11.1075 124.32 11.1325C124.545 11.1575 124.753 11.1975 124.943 11.2525C124.943 11.6425 124.938 12.07 124.928 12.535C124.923 13 124.91 13.4725 124.89 13.9525C124.875 14.4325 124.858 14.89 124.838 15.325C124.818 15.76 124.798 16.1475 124.778 16.4875C124.763 16.8225 124.748 17.0775 124.733 17.2525C124.988 16.9875 125.285 16.7175 125.625 16.4425C125.965 16.1675 126.318 15.9025 126.683 15.6475C127.048 15.3875 127.4 15.145 127.74 14.92C128.085 14.69 128.385 14.49 128.64 14.32C128.72 14.395 128.82 14.5075 128.94 14.6575C129.06 14.8025 129.183 14.965 129.308 15.145C129.438 15.32 129.558 15.49 129.668 15.655C129.778 15.82 129.865 15.9575 129.93 16.0675C129.73 16.1925 129.495 16.3425 129.225 16.5175C128.955 16.6875 128.678 16.865 128.393 17.05C128.113 17.235 127.853 17.41 127.613 17.575C127.373 17.74 127.185 17.8725 127.05 17.9725C127.18 18.0575 127.338 18.1875 127.523 18.3625C127.708 18.5375 127.908 18.7425 128.123 18.9775C128.343 19.2125 128.565 19.47 128.79 19.75C129.015 20.025 129.238 20.315 129.458 20.62C129.678 20.92 129.878 21.2225 130.058 21.5275C129.983 21.5725 129.848 21.6375 129.653 21.7225C129.458 21.8025 129.24 21.89 129 21.985C128.76 22.08 128.535 22.165 128.325 22.24C128.115 22.315 127.958 22.365 127.853 22.39ZM133.596 22.1275C132.981 22.1275 132.419 22.045 131.909 21.88C131.399 21.71 130.991 21.4375 130.686 21.0625C130.386 20.6825 130.236 20.18 130.236 19.555C130.236 18.93 130.411 18.4275 130.761 18.0475C131.116 17.6625 131.581 17.385 132.156 17.215C132.736 17.04 133.359 16.9525 134.024 16.9525C134.284 16.9525 134.534 16.9725 134.774 17.0125C135.014 17.0525 135.224 17.1 135.404 17.155C135.589 17.21 135.721 17.2625 135.801 17.3125C135.796 17.1825 135.769 17.045 135.719 16.9C135.674 16.755 135.609 16.6325 135.524 16.5325C135.374 16.3275 135.169 16.1575 134.909 16.0225C134.654 15.8825 134.316 15.8125 133.896 15.8125C133.471 15.8125 133.096 15.91 132.771 16.105C132.446 16.295 132.199 16.51 132.029 16.75L130.199 15.5725C130.424 15.2525 130.726 14.9725 131.106 14.7325C131.491 14.4925 131.926 14.305 132.411 14.17C132.901 14.035 133.414 13.9675 133.949 13.9675C134.834 13.9675 135.551 14.1125 136.101 14.4025C136.651 14.6925 137.059 15.0975 137.324 15.6175C137.449 15.8675 137.551 16.1425 137.631 16.4425C137.711 16.7425 137.766 17.0875 137.796 17.4775C137.816 17.8125 137.831 18.125 137.841 18.415C137.851 18.705 137.861 18.98 137.871 19.24C137.881 19.62 137.924 19.8675 137.999 19.9825C138.074 20.0975 138.181 20.155 138.321 20.155C138.451 20.155 138.566 20.12 138.666 20.05C138.771 19.975 138.839 19.8775 138.869 19.7575L139.649 21.25C139.594 21.48 139.439 21.6725 139.184 21.8275C138.929 21.9825 138.606 22.06 138.216 22.06C137.931 22.06 137.661 22.0125 137.406 21.9175C137.151 21.8175 136.941 21.685 136.776 21.52C136.611 21.35 136.514 21.1575 136.484 20.9425C136.404 21.1325 136.236 21.32 135.981 21.505C135.726 21.685 135.399 21.835 134.999 21.955C134.599 22.07 134.131 22.1275 133.596 22.1275ZM134.099 20.365C134.334 20.365 134.574 20.33 134.819 20.26C135.069 20.185 135.294 20.0925 135.494 19.9825C135.699 19.8725 135.856 19.76 135.966 19.645C135.956 19.49 135.946 19.33 135.936 19.165C135.931 19 135.931 18.86 135.936 18.745C135.826 18.7 135.616 18.6525 135.306 18.6025C135.001 18.5475 134.681 18.52 134.346 18.52C134.041 18.52 133.756 18.5525 133.491 18.6175C133.226 18.6825 133.009 18.7825 132.839 18.9175C132.674 19.0525 132.591 19.2275 132.591 19.4425C132.591 19.6725 132.654 19.855 132.779 19.99C132.904 20.125 133.079 20.2225 133.304 20.2825C133.529 20.3375 133.794 20.365 134.099 20.365ZM144.336 21.6475C144.196 21.7975 143.933 21.9425 143.548 22.0825C143.168 22.2275 142.743 22.3 142.273 22.3C141.663 22.3 141.198 22.1575 140.878 21.8725C140.563 21.5875 140.351 21.185 140.241 20.665C140.131 20.14 140.076 19.53 140.076 18.835C140.076 18.29 140.081 17.7425 140.091 17.1925C140.101 16.6425 140.113 16.0975 140.128 15.5575C140.148 15.0175 140.168 14.495 140.188 13.99C140.213 13.48 140.236 12.9975 140.256 12.5425C140.281 12.0825 140.306 11.6625 140.331 11.2825C140.686 11.2575 141.013 11.245 141.313 11.245C141.508 11.245 141.701 11.25 141.891 11.26C142.081 11.27 142.291 11.285 142.521 11.305C142.496 11.74 142.466 12.2225 142.431 12.7525C142.401 13.2775 142.371 13.815 142.341 14.365C142.316 14.915 142.291 15.4475 142.266 15.9625C142.241 16.4775 142.221 16.945 142.206 17.365C142.196 17.78 142.191 18.1125 142.191 18.3625C142.191 18.6875 142.203 18.99 142.228 19.27C142.258 19.545 142.323 19.77 142.423 19.945C142.523 20.115 142.673 20.2 142.873 20.2C143.043 20.2 143.181 20.1625 143.286 20.0875C143.396 20.0075 143.486 19.9075 143.556 19.7875C143.591 19.8475 143.646 19.9675 143.721 20.1475C143.796 20.3225 143.878 20.5175 143.968 20.7325C144.058 20.9475 144.138 21.1425 144.208 21.3175C144.278 21.4875 144.321 21.5975 144.336 21.6475ZM145.105 22C145.105 21.615 145.107 21.1325 145.112 20.5525C145.117 19.9725 145.125 19.34 145.135 18.655C145.145 17.965 145.157 17.26 145.172 16.54C145.187 15.82 145.205 15.125 145.225 14.455C145.245 13.785 145.27 13.1825 145.3 12.6475C145.54 12.6225 145.822 12.6025 146.147 12.5875C146.477 12.5725 146.8 12.5625 147.115 12.5575C147.435 12.5475 147.705 12.5425 147.925 12.5425C148.145 12.5375 148.267 12.535 148.292 12.535C148.302 12.555 148.337 12.675 148.397 12.895C148.462 13.115 148.542 13.4 148.637 13.75C148.737 14.1 148.845 14.485 148.96 14.905C149.075 15.325 149.19 15.7525 149.305 16.1875C149.425 16.6225 149.537 17.035 149.642 17.425C149.747 17.81 149.832 18.1425 149.897 18.4225C149.967 18.7025 150.012 18.895 150.032 19L149.755 19.0375C149.805 18.8975 149.88 18.6675 149.98 18.3475C150.08 18.0275 150.192 17.6575 150.317 17.2375C150.447 16.8125 150.577 16.3675 150.707 15.9025C150.842 15.4325 150.972 14.9775 151.097 14.5375C151.222 14.0975 151.33 13.705 151.42 13.36C151.515 13.01 151.582 12.745 151.622 12.565C151.832 12.565 152.1 12.57 152.425 12.58C152.755 12.59 153.087 12.605 153.422 12.625C153.757 12.645 154.035 12.675 154.255 12.715C154.355 13.165 154.425 13.7475 154.465 14.4625C154.505 15.1725 154.525 15.925 154.525 16.72C154.525 17.36 154.515 18.01 154.495 18.67C154.48 19.325 154.457 19.94 154.427 20.515C154.397 21.09 154.365 21.575 154.33 21.97C154.085 21.97 153.82 21.965 153.535 21.955C153.25 21.945 152.977 21.9325 152.717 21.9175C152.462 21.8975 152.26 21.8825 152.11 21.8725C152.135 21.5475 152.157 21.13 152.177 20.62C152.202 20.11 152.222 19.5825 152.237 19.0375C152.252 18.7025 152.262 18.365 152.267 18.025C152.277 17.685 152.285 17.375 152.29 17.095C152.3 16.815 152.307 16.5975 152.312 16.4425C152.257 16.6375 152.18 16.8925 152.08 17.2075C151.985 17.5175 151.875 17.86 151.75 18.235C151.63 18.61 151.502 18.99 151.367 19.375C151.237 19.755 151.11 20.1175 150.985 20.4625C150.865 20.8075 150.757 21.105 150.662 21.355C150.572 21.605 150.502 21.78 150.452 21.88C150.382 21.885 150.275 21.89 150.13 21.895C149.99 21.895 149.882 21.895 149.807 21.895C149.672 21.895 149.532 21.89 149.387 21.88C149.247 21.865 149.092 21.8475 148.922 21.8275C148.907 21.7625 148.875 21.6275 148.825 21.4225C148.78 21.2175 148.72 20.965 148.645 20.665C148.57 20.365 148.487 20.0375 148.397 19.6825C148.312 19.3225 148.225 18.9575 148.135 18.5875C148.045 18.2125 147.955 17.85 147.865 17.5C147.775 17.15 147.692 16.8325 147.617 16.5475C147.547 16.2625 147.487 16.0325 147.437 15.8575C147.442 16.3325 147.445 16.8375 147.445 17.3725C147.45 17.9075 147.452 18.4325 147.452 18.9475C147.452 19.4625 147.452 19.9375 147.452 20.3725C147.457 20.8025 147.46 21.16 147.46 21.445C147.46 21.73 147.46 21.9025 147.46 21.9625C147.285 21.9675 147.062 21.975 146.792 21.985C146.522 21.99 146.24 21.995 145.945 22C145.65 22 145.37 22 145.105 22ZM160.809 14.665C160.934 14.62 161.111 14.5875 161.341 14.5675C161.576 14.5425 161.804 14.53 162.024 14.53C162.209 14.53 162.414 14.5375 162.639 14.5525C162.864 14.5675 163.046 14.585 163.186 14.605C163.251 15.01 163.301 15.42 163.336 15.835C163.371 16.245 163.389 16.65 163.389 17.05C163.389 17.785 163.324 18.4775 163.194 19.1275C163.069 19.7775 162.861 20.35 162.571 20.845C162.281 21.34 161.894 21.7275 161.409 22.0075C160.924 22.2925 160.326 22.435 159.616 22.435C158.861 22.435 158.239 22.2875 157.749 21.9925C157.259 21.6925 156.876 21.2775 156.601 20.7475C156.326 20.2125 156.134 19.59 156.024 18.88C155.919 18.165 155.866 17.395 155.866 16.57C155.866 16.205 155.874 15.835 155.889 15.46C155.909 15.08 155.934 14.7025 155.964 14.3275C156.094 14.3175 156.264 14.31 156.474 14.305C156.689 14.295 156.884 14.2925 157.059 14.2975C157.309 14.2975 157.559 14.3125 157.809 14.3425C158.064 14.3675 158.264 14.4025 158.409 14.4475C158.374 14.7875 158.344 15.155 158.319 15.55C158.294 15.94 158.281 16.3325 158.281 16.7275C158.281 17.3875 158.324 17.9825 158.409 18.5125C158.499 19.0425 158.646 19.4625 158.851 19.7725C159.056 20.0825 159.334 20.2375 159.684 20.2375C160.014 20.2375 160.276 20.0975 160.471 19.8175C160.671 19.5375 160.814 19.1625 160.899 18.6925C160.989 18.2175 161.034 17.6875 161.034 17.1025C161.034 16.6625 161.011 16.23 160.966 15.805C160.926 15.375 160.874 14.995 160.809 14.665ZM167.834 22.5925C167.249 22.5925 166.712 22.52 166.222 22.375C165.737 22.235 165.324 22.07 164.984 21.88C164.649 21.685 164.407 21.51 164.257 21.355C164.287 21.26 164.344 21.1225 164.429 20.9425C164.519 20.7575 164.624 20.5575 164.744 20.3425C164.864 20.1275 164.984 19.9275 165.104 19.7425C165.224 19.5575 165.332 19.42 165.427 19.33C165.667 19.535 165.927 19.7375 166.207 19.9375C166.487 20.1325 166.774 20.2925 167.069 20.4175C167.364 20.5425 167.639 20.605 167.894 20.605C168.094 20.605 168.274 20.58 168.434 20.53C168.594 20.475 168.719 20.395 168.809 20.29C168.904 20.185 168.952 20.055 168.952 19.9C168.952 19.72 168.864 19.5475 168.689 19.3825C168.519 19.2125 168.299 19.0525 168.029 18.9025C167.759 18.7525 167.477 18.6175 167.182 18.4975C166.777 18.3325 166.399 18.14 166.049 17.92C165.699 17.695 165.417 17.42 165.202 17.095C164.987 16.765 164.879 16.355 164.879 15.865C164.879 15.365 165.027 14.945 165.322 14.605C165.617 14.265 166.002 14.0075 166.477 13.8325C166.957 13.6575 167.469 13.57 168.014 13.57C168.529 13.57 169.052 13.6425 169.582 13.7875C170.112 13.9275 170.544 14.13 170.879 14.395C170.849 14.49 170.784 14.635 170.684 14.83C170.589 15.025 170.472 15.235 170.332 15.46C170.197 15.68 170.052 15.8825 169.897 16.0675C169.692 15.8925 169.434 15.725 169.124 15.565C168.814 15.405 168.489 15.325 168.149 15.325C167.979 15.325 167.809 15.3425 167.639 15.3775C167.474 15.4125 167.337 15.475 167.227 15.565C167.122 15.655 167.069 15.7775 167.069 15.9325C167.069 16.0825 167.127 16.2175 167.242 16.3375C167.357 16.4525 167.524 16.565 167.744 16.675C167.969 16.785 168.232 16.9 168.532 17.02C168.832 17.14 169.137 17.2825 169.447 17.4475C169.757 17.6075 170.042 17.8 170.302 18.025C170.567 18.25 170.779 18.5125 170.939 18.8125C171.099 19.1075 171.179 19.4475 171.179 19.8325C171.179 20.4475 171.027 20.96 170.722 21.37C170.417 21.78 170.009 22.085 169.499 22.285C168.994 22.49 168.439 22.5925 167.834 22.5925ZM174.781 21.985C174.696 21.99 174.533 22 174.293 22.015C174.058 22.035 173.808 22.045 173.543 22.045C173.348 22.045 173.151 22.0375 172.951 22.0225C172.756 22.0125 172.563 21.9975 172.373 21.9775C172.398 21.8475 172.426 21.5825 172.456 21.1825C172.491 20.7775 172.523 20.3025 172.553 19.7575C172.588 19.2125 172.621 18.65 172.651 18.07C172.686 17.485 172.711 16.9375 172.726 16.4275C172.746 15.9175 172.756 15.5075 172.756 15.1975C172.856 15.1925 173.003 15.185 173.198 15.175C173.393 15.165 173.603 15.1575 173.828 15.1525C174.053 15.1425 174.268 15.135 174.473 15.13C174.678 15.12 174.841 15.115 174.961 15.115C174.986 15.27 175.006 15.52 175.021 15.865C175.036 16.21 175.043 16.595 175.043 17.02C175.043 17.475 175.036 17.9575 175.021 18.4675C175.011 18.9775 174.993 19.4725 174.968 19.9525C174.948 20.4275 174.921 20.8475 174.886 21.2125C174.851 21.5725 174.816 21.83 174.781 21.985ZM173.941 14.1475C173.491 14.1475 173.113 14.0175 172.808 13.7575C172.503 13.4925 172.351 13.145 172.351 12.715C172.351 12.42 172.423 12.1675 172.568 11.9575C172.713 11.7475 172.901 11.5875 173.131 11.4775C173.366 11.3625 173.613 11.305 173.873 11.305C174.288 11.305 174.631 11.44 174.901 11.71C175.176 11.98 175.313 12.3275 175.313 12.7525C175.313 13.1475 175.183 13.48 174.923 13.75C174.663 14.015 174.336 14.1475 173.941 14.1475ZM183.63 20.41C183.48 20.67 183.252 20.9275 182.947 21.1825C182.642 21.4375 182.265 21.65 181.815 21.82C181.365 21.99 180.847 22.075 180.262 22.075C179.502 22.075 178.845 21.8875 178.29 21.5125C177.735 21.1325 177.305 20.63 177 20.005C176.7 19.375 176.55 18.685 176.55 17.935C176.55 17.145 176.705 16.4375 177.015 15.8125C177.33 15.1875 177.772 14.6925 178.342 14.3275C178.912 13.9625 179.587 13.78 180.367 13.78C180.832 13.78 181.26 13.8525 181.65 13.9975C182.04 14.1425 182.382 14.3475 182.677 14.6125C182.977 14.8775 183.225 15.1875 183.42 15.5425L181.785 16.4575C181.77 16.4175 181.735 16.355 181.68 16.27C181.63 16.185 181.555 16.095 181.455 16C181.355 15.905 181.222 15.825 181.057 15.76C180.897 15.695 180.697 15.6625 180.457 15.6625C180.097 15.6625 179.792 15.74 179.542 15.895C179.292 16.05 179.102 16.27 178.972 16.555C178.847 16.84 178.785 17.175 178.785 17.56C178.785 17.88 178.832 18.2025 178.927 18.5275C179.022 18.8475 179.182 19.115 179.407 19.33C179.632 19.545 179.942 19.6525 180.337 19.6525C180.572 19.6525 180.79 19.6125 180.99 19.5325C181.19 19.4525 181.362 19.3575 181.507 19.2475C181.657 19.1325 181.777 19.025 181.867 18.925C181.957 18.825 182.012 18.7575 182.032 18.7225L183.63 20.41Z" fill="white"/>
</svg>
