<svg width="200" height="38" viewBox="0 0 200 38" fill="none" xmlns="http://www.w3.org/2000/svg">
<path d="M3.48096 32.7233C1.11762 29.9368 -0.654895 6.84935 3.48096 4.36149C7.61682 1.87363 74.3813 3.36635 109.241 4.36149C144.1 5.35663 190.185 3.8639 196.094 5.35663C202.002 6.84935 200.289 33.4199 196.98 36.2063C192.844 39.6893 119.285 37.2014 101.855 36.2063C84.4255 35.2111 6.43514 36.2063 3.48096 32.7233Z" fill="#214868"/>
<path d="M2.48096 29.7233C0.117618 26.9368 -1.65489 3.84935 2.48096 1.36149C6.61682 -1.12637 73.3813 0.366353 108.241 1.36149C143.1 2.35663 189.185 0.863904 195.094 2.35663C201.002 3.84935 199.289 30.4199 195.98 33.2063C191.844 36.6893 118.285 34.2014 100.855 33.2063C83.4255 32.2111 5.43514 33.2063 2.48096 29.7233Z" fill="#3387DC"/>
<path d="M25 7C23.0222 7 21.0888 7.58649 19.4443 8.6853C17.7998 9.78412 16.5181 11.3459 15.7612 13.1732C15.0043 15.0004 14.8063 17.0111 15.1922 18.9509C15.578 20.8907 16.5304 22.6725 17.9289 24.0711C19.3275 25.4696 21.1093 26.422 23.0491 26.8079C24.9889 27.1937 26.9996 26.9957 28.8268 26.2388C30.6541 25.4819 32.2159 24.2002 33.3147 22.5557C34.4135 20.9112 35 18.9778 35 17C35 15.6868 34.7413 14.3864 34.2388 13.1732C33.7363 11.9599 32.9997 10.8575 32.0711 9.92893C31.1425 9.00035 30.0401 8.26375 28.8268 7.7612C27.6136 7.25866 26.3132 7 25 7ZM25 25C23.4178 25 21.871 24.5308 20.5554 23.6518C19.2398 22.7727 18.2145 21.5233 17.609 20.0615C17.0035 18.5997 16.845 16.9911 17.1537 15.4393C17.4624 13.8874 18.2243 12.462 19.3432 11.3431C20.462 10.2243 21.8874 9.4624 23.4393 9.15372C24.9911 8.84504 26.5997 9.00346 28.0615 9.60896C29.5233 10.2145 30.7727 11.2398 31.6518 12.5554C32.5308 13.871 33 15.4177 33 17C33 19.1217 32.1572 21.1566 30.6569 22.6569C29.1566 24.1571 27.1217 25 25 25ZM29 16H26V13C26 12.7348 25.8946 12.4804 25.7071 12.2929C25.5196 12.1054 25.2652 12 25 12C24.7348 12 24.4804 12.1054 24.2929 12.2929C24.1054 12.4804 24 12.7348 24 13V16H21C20.7348 16 20.4804 16.1054 20.2929 16.2929C20.1054 16.4804 20 16.7348 20 17C20 17.2652 20.1054 17.5196 20.2929 17.7071C20.4804 17.8946 20.7348 18 21 18H24V21C24 21.2652 24.1054 21.5196 24.2929 21.7071C24.4804 21.8946 24.7348 22 25 22C25.2652 22 25.5196 21.8946 25.7071 21.7071C25.8946 21.5196 26 21.2652 26 21V18H29C29.2652 18 29.5196 17.8946 29.7071 17.7071C29.8946 17.5196 30 17.2652 30 17C30 16.7348 29.8946 16.4804 29.7071 16.2929C29.5196 16.1054 29.2652 16 29 16Z" fill="white"/>
<path d="M43.6775 14.2225C43.6525 14.1125 43.63 13.9575 43.61 13.7575C43.595 13.5525 43.58 13.34 43.565 13.12C43.555 12.895 43.545 12.695 43.535 12.52C43.53 12.34 43.5275 12.2175 43.5275 12.1525C44.0875 12.1125 44.725 12.0775 45.44 12.0475C46.16 12.0125 46.8875 11.995 47.6225 11.995C48.1775 11.995 48.7175 12.0075 49.2425 12.0325C49.7725 12.0525 50.255 12.095 50.69 12.16C50.695 12.575 50.6825 12.9625 50.6525 13.3225C50.6225 13.6775 50.5875 13.945 50.5475 14.125C50.4525 14.125 50.315 14.125 50.135 14.125C49.955 14.12 49.755 14.1175 49.535 14.1175C49.32 14.1125 49.1075 14.11 48.8975 14.11C48.6875 14.105 48.505 14.1 48.35 14.095C48.355 14.28 48.365 14.555 48.38 14.92C48.395 15.28 48.4125 15.6925 48.4325 16.1575C48.4525 16.6225 48.475 17.11 48.5 17.62C48.525 18.13 48.5475 18.63 48.5675 19.12C48.5925 19.61 48.6125 20.06 48.6275 20.47C48.6475 20.875 48.6625 21.21 48.6725 21.475C48.6875 21.735 48.695 21.89 48.695 21.94C48.495 21.97 48.235 21.9975 47.915 22.0225C47.595 22.0475 47.275 22.0675 46.955 22.0825C46.64 22.0975 46.3825 22.105 46.1825 22.105C46.1675 21.81 46.1525 21.455 46.1375 21.04C46.1225 20.62 46.11 20.1675 46.1 19.6825C46.09 19.1925 46.08 18.6925 46.07 18.1825C46.06 17.6675 46.0525 17.165 46.0475 16.675C46.0425 16.185 46.04 15.735 46.04 15.325C46.04 15.095 46.04 14.88 46.04 14.68C46.04 14.48 46.0425 14.3 46.0475 14.14C45.8775 14.15 45.6925 14.16 45.4925 14.17C45.2925 14.175 45.0875 14.1825 44.8775 14.1925C44.6675 14.2025 44.46 14.21 44.255 14.215C44.05 14.22 43.8575 14.2225 43.6775 14.2225ZM54.6268 22.1275C54.0118 22.1275 53.4493 22.045 52.9393 21.88C52.4293 21.71 52.0218 21.4375 51.7168 21.0625C51.4168 20.6825 51.2668 20.18 51.2668 19.555C51.2668 18.93 51.4418 18.4275 51.7918 18.0475C52.1468 17.6625 52.6118 17.385 53.1868 17.215C53.7668 17.04 54.3893 16.9525 55.0543 16.9525C55.3143 16.9525 55.5643 16.9725 55.8043 17.0125C56.0443 17.0525 56.2543 17.1 56.4343 17.155C56.6193 17.21 56.7518 17.2625 56.8318 17.3125C56.8268 17.1825 56.7993 17.045 56.7493 16.9C56.7043 16.755 56.6393 16.6325 56.5543 16.5325C56.4043 16.3275 56.1993 16.1575 55.9393 16.0225C55.6843 15.8825 55.3468 15.8125 54.9268 15.8125C54.5018 15.8125 54.1268 15.91 53.8018 16.105C53.4768 16.295 53.2293 16.51 53.0593 16.75L51.2293 15.5725C51.4543 15.2525 51.7568 14.9725 52.1368 14.7325C52.5218 14.4925 52.9568 14.305 53.4418 14.17C53.9318 14.035 54.4443 13.9675 54.9793 13.9675C55.8643 13.9675 56.5818 14.1125 57.1318 14.4025C57.6818 14.6925 58.0893 15.0975 58.3543 15.6175C58.4793 15.8675 58.5818 16.1425 58.6618 16.4425C58.7418 16.7425 58.7968 17.0875 58.8268 17.4775C58.8468 17.8125 58.8618 18.125 58.8718 18.415C58.8818 18.705 58.8918 18.98 58.9018 19.24C58.9118 19.62 58.9543 19.8675 59.0293 19.9825C59.1043 20.0975 59.2118 20.155 59.3518 20.155C59.4818 20.155 59.5968 20.12 59.6968 20.05C59.8018 19.975 59.8693 19.8775 59.8993 19.7575L60.6793 21.25C60.6243 21.48 60.4693 21.6725 60.2143 21.8275C59.9593 21.9825 59.6368 22.06 59.2468 22.06C58.9618 22.06 58.6918 22.0125 58.4368 21.9175C58.1818 21.8175 57.9718 21.685 57.8068 21.52C57.6418 21.35 57.5443 21.1575 57.5143 20.9425C57.4343 21.1325 57.2668 21.32 57.0118 21.505C56.7568 21.685 56.4293 21.835 56.0293 21.955C55.6293 22.07 55.1618 22.1275 54.6268 22.1275ZM55.1293 20.365C55.3643 20.365 55.6043 20.33 55.8493 20.26C56.0993 20.185 56.3243 20.0925 56.5243 19.9825C56.7293 19.8725 56.8868 19.76 56.9968 19.645C56.9868 19.49 56.9768 19.33 56.9668 19.165C56.9618 19 56.9618 18.86 56.9668 18.745C56.8568 18.7 56.6468 18.6525 56.3368 18.6025C56.0318 18.5475 55.7118 18.52 55.3768 18.52C55.0718 18.52 54.7868 18.5525 54.5218 18.6175C54.2568 18.6825 54.0393 18.7825 53.8693 18.9175C53.7043 19.0525 53.6218 19.2275 53.6218 19.4425C53.6218 19.6725 53.6843 19.855 53.8093 19.99C53.9343 20.125 54.1093 20.2225 54.3343 20.2825C54.5593 20.3375 54.8243 20.365 55.1293 20.365ZM61.5187 22.06C61.4937 21.735 61.4687 21.32 61.4437 20.815C61.4237 20.31 61.4037 19.7625 61.3837 19.1725C61.3687 18.5775 61.3537 17.9875 61.3387 17.4025C61.3287 16.8175 61.3212 16.2775 61.3162 15.7825C61.3112 15.2825 61.3087 14.88 61.3087 14.575C61.4287 14.545 61.5887 14.515 61.7887 14.485C61.9887 14.45 62.2012 14.42 62.4262 14.395C62.6512 14.365 62.8637 14.3425 63.0637 14.3275C63.2687 14.3075 63.4337 14.2975 63.5587 14.2975C63.5637 14.3775 63.5687 14.48 63.5737 14.605C63.5787 14.725 63.5812 14.85 63.5812 14.98C63.5862 15.11 63.5887 15.2275 63.5887 15.3325C63.5887 15.4375 63.5887 15.5175 63.5887 15.5725C63.6187 15.4775 63.6887 15.355 63.7987 15.205C63.9087 15.055 64.0587 14.905 64.2487 14.755C64.4437 14.605 64.6787 14.48 64.9537 14.38C65.2287 14.275 65.5462 14.2225 65.9062 14.2225C66.2512 14.2225 66.5437 14.2875 66.7837 14.4175C67.0237 14.5475 67.2237 14.7175 67.3837 14.9275C67.5437 15.1375 67.6687 15.365 67.7587 15.61C67.8037 15.73 67.8387 15.8525 67.8637 15.9775C67.8937 16.1025 67.9162 16.225 67.9312 16.345C68.0412 15.98 68.2237 15.6325 68.4787 15.3025C68.7387 14.9675 69.0612 14.695 69.4462 14.485C69.8312 14.27 70.2737 14.1625 70.7737 14.1625C71.3737 14.1625 71.8662 14.27 72.2512 14.485C72.6412 14.7 72.9437 15.0175 73.1587 15.4375C73.3737 15.8575 73.5237 16.3725 73.6087 16.9825C73.6937 17.5925 73.7362 18.29 73.7362 19.075C73.7362 19.385 73.7287 19.71 73.7137 20.05C73.7037 20.39 73.6887 20.7325 73.6687 21.0775C73.6487 21.4225 73.6287 21.7575 73.6087 22.0825C73.4287 22.0925 73.2412 22.1 73.0462 22.105C72.8512 22.115 72.6562 22.12 72.4612 22.12C72.2662 22.12 72.0662 22.115 71.8612 22.105C71.6612 22.1 71.4587 22.09 71.2537 22.075C71.3537 21.33 71.4362 20.645 71.5012 20.02C71.5662 19.39 71.5987 18.8375 71.5987 18.3625C71.5987 17.6675 71.5187 17.1375 71.3587 16.7725C71.2037 16.4075 70.9362 16.225 70.5562 16.225C70.2112 16.225 69.9312 16.33 69.7162 16.54C69.5012 16.75 69.3337 17.04 69.2137 17.41C69.0937 17.78 69.0062 18.21 68.9512 18.7C68.9012 19.185 68.8662 19.705 68.8462 20.26C68.8362 20.54 68.8262 20.8325 68.8162 21.1375C68.8062 21.4425 68.8012 21.7525 68.8012 22.0675C68.7012 22.0725 68.5587 22.0775 68.3737 22.0825C68.1937 22.0925 68.0037 22.0975 67.8037 22.0975C67.5687 22.0975 67.3412 22.0925 67.1212 22.0825C66.9062 22.0775 66.7487 22.0675 66.6487 22.0525C66.6437 21.7125 66.6412 21.3925 66.6412 21.0925C66.6412 20.7925 66.6412 20.485 66.6412 20.17C66.6412 19.6 66.6262 19.075 66.5962 18.595C66.5712 18.11 66.5162 17.69 66.4312 17.335C66.3462 16.975 66.2187 16.695 66.0487 16.495C65.8837 16.295 65.6587 16.195 65.3737 16.195C65.1787 16.195 64.9887 16.2375 64.8037 16.3225C64.6187 16.4075 64.4487 16.5175 64.2937 16.6525C64.1437 16.7875 64.0162 16.9375 63.9112 17.1025C63.8112 17.2625 63.7412 17.4225 63.7012 17.5825C63.7312 18.3775 63.7637 19.1025 63.7987 19.7575C63.8337 20.4125 63.8662 20.9475 63.8962 21.3625C63.9262 21.7725 63.9462 22.02 63.9562 22.105C63.9012 22.11 63.7862 22.115 63.6112 22.12C63.4362 22.125 63.2837 22.1275 63.1537 22.1275C62.8387 22.1275 62.5237 22.12 62.2087 22.105C61.8937 22.09 61.6637 22.075 61.5187 22.06ZM75.3668 22.0525C75.3518 21.8775 75.3368 21.585 75.3218 21.175C75.3068 20.76 75.2893 20.2725 75.2693 19.7125C75.2493 19.1475 75.2293 18.5425 75.2093 17.8975C75.1893 17.2475 75.1718 16.5975 75.1568 15.9475C75.1418 15.2925 75.1268 14.6725 75.1118 14.0875C75.0968 13.5025 75.0843 12.985 75.0743 12.535C75.0643 12.085 75.0593 11.7475 75.0593 11.5225C75.1293 11.5075 75.3693 11.465 75.7793 11.395C76.1943 11.32 76.7018 11.2375 77.3018 11.1475C77.3018 11.4625 77.3043 11.8925 77.3093 12.4375C77.3193 12.9825 77.3343 13.5825 77.3543 14.2375C77.3743 14.8875 77.4018 15.535 77.4368 16.18C77.5468 16.065 77.6843 15.945 77.8493 15.82C78.0143 15.695 78.2018 15.58 78.4118 15.475C78.6218 15.365 78.8468 15.2775 79.0868 15.2125C79.3318 15.1425 79.5843 15.1075 79.8443 15.1075C80.4293 15.1075 80.9393 15.2425 81.3743 15.5125C81.8143 15.7825 82.1543 16.185 82.3943 16.72C82.6393 17.25 82.7618 17.905 82.7618 18.685C82.7618 19.7 82.4918 20.505 81.9518 21.1C81.4168 21.69 80.6918 21.985 79.7768 21.985C79.4168 21.985 79.0943 21.9375 78.8093 21.8425C78.5293 21.7425 78.2943 21.6275 78.1043 21.4975C77.9193 21.3625 77.7868 21.245 77.7068 21.145C77.7118 21.24 77.7168 21.36 77.7218 21.505C77.7318 21.65 77.7393 21.7825 77.7443 21.9025C77.7543 22.0225 77.7593 22.1025 77.7593 22.1425C77.3293 22.1475 76.9018 22.1425 76.4768 22.1275C76.0518 22.1125 75.6818 22.0875 75.3668 22.0525ZM77.6393 19.465C77.7193 19.515 77.8343 19.575 77.9843 19.645C78.1343 19.715 78.3093 19.7775 78.5093 19.8325C78.7093 19.8825 78.9168 19.9075 79.1318 19.9075C79.6518 19.9075 80.0293 19.79 80.2643 19.555C80.4993 19.315 80.6168 18.97 80.6168 18.52C80.6168 18.25 80.5743 18.0025 80.4893 17.7775C80.4043 17.5475 80.2718 17.365 80.0918 17.23C79.9118 17.095 79.6768 17.0275 79.3868 17.0275C79.0668 17.0275 78.7868 17.0825 78.5468 17.1925C78.3068 17.3025 78.1043 17.435 77.9393 17.59C77.7793 17.745 77.6518 17.885 77.5568 18.01C77.5568 18.05 77.5593 18.12 77.5643 18.22C77.5693 18.315 77.5743 18.425 77.5793 18.55C77.5893 18.675 77.5968 18.8 77.6018 18.925C77.6118 19.05 77.6193 19.16 77.6243 19.255C77.6293 19.35 77.6343 19.42 77.6393 19.465ZM87.1609 22.1275C86.5459 22.1275 85.9834 22.045 85.4734 21.88C84.9634 21.71 84.5559 21.4375 84.2509 21.0625C83.9509 20.6825 83.8009 20.18 83.8009 19.555C83.8009 18.93 83.9759 18.4275 84.3259 18.0475C84.6809 17.6625 85.1459 17.385 85.7209 17.215C86.3009 17.04 86.9234 16.9525 87.5884 16.9525C87.8484 16.9525 88.0984 16.9725 88.3384 17.0125C88.5784 17.0525 88.7884 17.1 88.9684 17.155C89.1534 17.21 89.2859 17.2625 89.3659 17.3125C89.3609 17.1825 89.3334 17.045 89.2834 16.9C89.2384 16.755 89.1734 16.6325 89.0884 16.5325C88.9384 16.3275 88.7334 16.1575 88.4734 16.0225C88.2184 15.8825 87.8809 15.8125 87.4609 15.8125C87.0359 15.8125 86.6609 15.91 86.3359 16.105C86.0109 16.295 85.7634 16.51 85.5934 16.75L83.7634 15.5725C83.9884 15.2525 84.2909 14.9725 84.6709 14.7325C85.0559 14.4925 85.4909 14.305 85.9759 14.17C86.4659 14.035 86.9784 13.9675 87.5134 13.9675C88.3984 13.9675 89.1159 14.1125 89.6659 14.4025C90.2159 14.6925 90.6234 15.0975 90.8884 15.6175C91.0134 15.8675 91.1159 16.1425 91.1959 16.4425C91.2759 16.7425 91.3309 17.0875 91.3609 17.4775C91.3809 17.8125 91.3959 18.125 91.4059 18.415C91.4159 18.705 91.4259 18.98 91.4359 19.24C91.4459 19.62 91.4884 19.8675 91.5634 19.9825C91.6384 20.0975 91.7459 20.155 91.8859 20.155C92.0159 20.155 92.1309 20.12 92.2309 20.05C92.3359 19.975 92.4034 19.8775 92.4334 19.7575L93.2134 21.25C93.1584 21.48 93.0034 21.6725 92.7484 21.8275C92.4934 21.9825 92.1709 22.06 91.7809 22.06C91.4959 22.06 91.2259 22.0125 90.9709 21.9175C90.7159 21.8175 90.5059 21.685 90.3409 21.52C90.1759 21.35 90.0784 21.1575 90.0484 20.9425C89.9684 21.1325 89.8009 21.32 89.5459 21.505C89.2909 21.685 88.9634 21.835 88.5634 21.955C88.1634 22.07 87.6959 22.1275 87.1609 22.1275ZM87.6634 20.365C87.8984 20.365 88.1384 20.33 88.3834 20.26C88.6334 20.185 88.8584 20.0925 89.0584 19.9825C89.2634 19.8725 89.4209 19.76 89.5309 19.645C89.5209 19.49 89.5109 19.33 89.5009 19.165C89.4959 19 89.4959 18.86 89.5009 18.745C89.3909 18.7 89.1809 18.6525 88.8709 18.6025C88.5659 18.5475 88.2459 18.52 87.9109 18.52C87.6059 18.52 87.3209 18.5525 87.0559 18.6175C86.7909 18.6825 86.5734 18.7825 86.4034 18.9175C86.2384 19.0525 86.1559 19.2275 86.1559 19.4425C86.1559 19.6725 86.2184 19.855 86.3434 19.99C86.4684 20.125 86.6434 20.2225 86.8684 20.2825C87.0934 20.3375 87.3584 20.365 87.6634 20.365ZM95.9729 22.0825C95.8579 22.1025 95.6954 22.1175 95.4854 22.1275C95.2804 22.1375 95.0679 22.1425 94.8479 22.1425C94.5879 22.1425 94.3454 22.1325 94.1204 22.1125C93.8954 22.0975 93.7304 22.07 93.6254 22.03C93.6654 21.73 93.7004 21.34 93.7304 20.86C93.7654 20.375 93.7929 19.8325 93.8129 19.2325C93.8379 18.6325 93.8504 18.0025 93.8504 17.3425C93.8504 16.6675 93.8379 15.98 93.8129 15.28C93.7929 14.58 93.7654 13.905 93.7304 13.255C93.6954 12.6 93.6629 12.0025 93.6329 11.4625C93.6679 11.4475 93.7779 11.425 93.9629 11.395C94.1479 11.365 94.3629 11.335 94.6079 11.305C94.8529 11.27 95.0854 11.24 95.3054 11.215C95.5254 11.19 95.6904 11.1775 95.8004 11.1775C95.8804 11.5525 95.9504 12 96.0104 12.52C96.0704 13.04 96.1204 13.61 96.1604 14.23C96.2004 14.845 96.2279 15.49 96.2429 16.165C96.4129 15.975 96.6279 15.805 96.8879 15.655C97.1479 15.5 97.4304 15.38 97.7354 15.295C98.0454 15.205 98.3529 15.16 98.6579 15.16C99.2679 15.16 99.7354 15.2775 100.06 15.5125C100.385 15.7425 100.61 16.08 100.735 16.525C100.865 16.965 100.93 17.5025 100.93 18.1375C100.93 18.5375 100.913 18.9675 100.878 19.4275C100.848 19.8875 100.808 20.34 100.758 20.785C100.708 21.23 100.653 21.63 100.593 21.985C100.418 22.01 100.238 22.03 100.053 22.045C99.8679 22.06 99.6829 22.0675 99.4979 22.0675C99.2929 22.0675 99.0904 22.0575 98.8904 22.0375C98.6954 22.0225 98.5179 22 98.3579 21.97C98.3929 21.745 98.4304 21.48 98.4704 21.175C98.5104 20.87 98.5479 20.5575 98.5829 20.2375C98.6179 19.9125 98.6454 19.605 98.6654 19.315C98.6904 19.02 98.7029 18.77 98.7029 18.565C98.7029 18.27 98.6729 18.02 98.6129 17.815C98.5579 17.61 98.4654 17.455 98.3354 17.35C98.2104 17.24 98.0404 17.185 97.8254 17.185C97.6404 17.185 97.4654 17.22 97.3004 17.29C97.1354 17.355 96.9829 17.44 96.8429 17.545C96.7079 17.645 96.5879 17.75 96.4829 17.86C96.3779 17.965 96.2954 18.0575 96.2354 18.1375C96.2354 18.6525 96.2229 19.1675 96.1979 19.6825C96.1729 20.1925 96.1404 20.6575 96.1004 21.0775C96.0604 21.4975 96.0179 21.8325 95.9729 22.0825ZM106.82 21.82C106.835 21.545 106.85 21.1725 106.865 20.7025C106.88 20.2275 106.892 19.695 106.902 19.105C106.912 18.51 106.917 17.8975 106.917 17.2675C106.917 16.6375 106.912 16.015 106.902 15.4C106.892 14.78 106.88 14.2075 106.865 13.6825C106.85 13.1575 106.835 12.7175 106.82 12.3625C106.965 12.3425 107.192 12.32 107.502 12.295C107.812 12.27 108.135 12.2575 108.47 12.2575C108.63 12.2575 108.817 12.2625 109.032 12.2725C109.247 12.2825 109.392 12.295 109.467 12.31C109.477 12.57 109.48 12.9 109.475 13.3C109.475 13.7 109.467 14.1475 109.452 14.6425C109.442 15.1375 109.427 15.6625 109.407 16.2175C109.387 16.7675 109.365 17.32 109.34 17.875C109.325 18.17 109.307 18.4575 109.287 18.7375C109.272 19.0125 109.255 19.2475 109.235 19.4425C109.63 19.4175 110.02 19.3975 110.405 19.3825C110.79 19.3675 111.175 19.355 111.56 19.345C111.95 19.335 112.34 19.33 112.73 19.33C112.75 19.46 112.767 19.665 112.782 19.945C112.797 20.225 112.81 20.525 112.82 20.845C112.83 21.16 112.835 21.435 112.835 21.67C112.235 21.75 111.627 21.81 111.012 21.85C110.402 21.885 109.822 21.905 109.272 21.91C108.817 21.915 108.377 21.91 107.952 21.895C107.532 21.875 107.155 21.85 106.82 21.82ZM117.792 22.165C116.467 22.165 115.469 21.815 114.799 21.115C114.129 20.41 113.794 19.3875 113.794 18.0475C113.794 17.1525 113.967 16.41 114.312 15.82C114.657 15.225 115.134 14.7775 115.744 14.4775C116.359 14.1775 117.069 14.0275 117.874 14.0275C118.694 14.0275 119.374 14.215 119.914 14.59C120.459 14.965 120.867 15.4825 121.137 16.1425C121.407 16.8025 121.542 17.565 121.542 18.43C121.542 19.185 121.397 19.8425 121.107 20.4025C120.817 20.9625 120.392 21.3975 119.832 21.7075C119.277 22.0125 118.597 22.165 117.792 22.165ZM117.709 20.0125C117.984 20.0125 118.227 19.965 118.437 19.87C118.652 19.775 118.832 19.64 118.977 19.465C119.127 19.285 119.239 19.075 119.314 18.835C119.389 18.595 119.427 18.3325 119.427 18.0475C119.427 17.6025 119.362 17.21 119.232 16.87C119.107 16.525 118.919 16.2575 118.669 16.0675C118.424 15.8725 118.119 15.775 117.754 15.775C117.359 15.775 117.037 15.875 116.787 16.075C116.537 16.275 116.352 16.5375 116.232 16.8625C116.117 17.1825 116.059 17.525 116.059 17.89C116.059 18.505 116.199 19.0125 116.479 19.4125C116.764 19.8125 117.174 20.0125 117.709 20.0125ZM129.401 20.41C129.251 20.67 129.024 20.9275 128.719 21.1825C128.414 21.4375 128.036 21.65 127.586 21.82C127.136 21.99 126.619 22.075 126.034 22.075C125.274 22.075 124.616 21.8875 124.061 21.5125C123.506 21.1325 123.076 20.63 122.771 20.005C122.471 19.375 122.321 18.685 122.321 17.935C122.321 17.145 122.476 16.4375 122.786 15.8125C123.101 15.1875 123.544 14.6925 124.114 14.3275C124.684 13.9625 125.359 13.78 126.139 13.78C126.604 13.78 127.031 13.8525 127.421 13.9975C127.811 14.1425 128.154 14.3475 128.449 14.6125C128.749 14.8775 128.996 15.1875 129.191 15.5425L127.556 16.4575C127.541 16.4175 127.506 16.355 127.451 16.27C127.401 16.185 127.326 16.095 127.226 16C127.126 15.905 126.994 15.825 126.829 15.76C126.669 15.695 126.469 15.6625 126.229 15.6625C125.869 15.6625 125.564 15.74 125.314 15.895C125.064 16.05 124.874 16.27 124.744 16.555C124.619 16.84 124.556 17.175 124.556 17.56C124.556 17.88 124.604 18.2025 124.699 18.5275C124.794 18.8475 124.954 19.115 125.179 19.33C125.404 19.545 125.714 19.6525 126.109 19.6525C126.344 19.6525 126.561 19.6125 126.761 19.5325C126.961 19.4525 127.134 19.3575 127.279 19.2475C127.429 19.1325 127.549 19.025 127.639 18.925C127.729 18.825 127.784 18.7575 127.804 18.7225L129.401 20.41ZM133.596 22.1275C132.981 22.1275 132.419 22.045 131.909 21.88C131.399 21.71 130.991 21.4375 130.686 21.0625C130.386 20.6825 130.236 20.18 130.236 19.555C130.236 18.93 130.411 18.4275 130.761 18.0475C131.116 17.6625 131.581 17.385 132.156 17.215C132.736 17.04 133.359 16.9525 134.024 16.9525C134.284 16.9525 134.534 16.9725 134.774 17.0125C135.014 17.0525 135.224 17.1 135.404 17.155C135.589 17.21 135.721 17.2625 135.801 17.3125C135.796 17.1825 135.769 17.045 135.719 16.9C135.674 16.755 135.609 16.6325 135.524 16.5325C135.374 16.3275 135.169 16.1575 134.909 16.0225C134.654 15.8825 134.316 15.8125 133.896 15.8125C133.471 15.8125 133.096 15.91 132.771 16.105C132.446 16.295 132.199 16.51 132.029 16.75L130.199 15.5725C130.424 15.2525 130.726 14.9725 131.106 14.7325C131.491 14.4925 131.926 14.305 132.411 14.17C132.901 14.035 133.414 13.9675 133.949 13.9675C134.834 13.9675 135.551 14.1125 136.101 14.4025C136.651 14.6925 137.059 15.0975 137.324 15.6175C137.449 15.8675 137.551 16.1425 137.631 16.4425C137.711 16.7425 137.766 17.0875 137.796 17.4775C137.816 17.8125 137.831 18.125 137.841 18.415C137.851 18.705 137.861 18.98 137.871 19.24C137.881 19.62 137.924 19.8675 137.999 19.9825C138.074 20.0975 138.181 20.155 138.321 20.155C138.451 20.155 138.566 20.12 138.666 20.05C138.771 19.975 138.839 19.8775 138.869 19.7575L139.649 21.25C139.594 21.48 139.439 21.6725 139.184 21.8275C138.929 21.9825 138.606 22.06 138.216 22.06C137.931 22.06 137.661 22.0125 137.406 21.9175C137.151 21.8175 136.941 21.685 136.776 21.52C136.611 21.35 136.514 21.1575 136.484 20.9425C136.404 21.1325 136.236 21.32 135.981 21.505C135.726 21.685 135.399 21.835 134.999 21.955C134.599 22.07 134.131 22.1275 133.596 22.1275ZM134.099 20.365C134.334 20.365 134.574 20.33 134.819 20.26C135.069 20.185 135.294 20.0925 135.494 19.9825C135.699 19.8725 135.856 19.76 135.966 19.645C135.956 19.49 135.946 19.33 135.936 19.165C135.931 19 135.931 18.86 135.936 18.745C135.826 18.7 135.616 18.6525 135.306 18.6025C135.001 18.5475 134.681 18.52 134.346 18.52C134.041 18.52 133.756 18.5525 133.491 18.6175C133.226 18.6825 133.009 18.7825 132.839 18.9175C132.674 19.0525 132.591 19.2275 132.591 19.4425C132.591 19.6725 132.654 19.855 132.779 19.99C132.904 20.125 133.079 20.2225 133.304 20.2825C133.529 20.3375 133.794 20.365 134.099 20.365ZM144.336 21.6475C144.196 21.7975 143.933 21.9425 143.548 22.0825C143.168 22.2275 142.743 22.3 142.273 22.3C141.663 22.3 141.198 22.1575 140.878 21.8725C140.563 21.5875 140.351 21.185 140.241 20.665C140.131 20.14 140.076 19.53 140.076 18.835C140.076 18.29 140.081 17.7425 140.091 17.1925C140.101 16.6425 140.113 16.0975 140.128 15.5575C140.148 15.0175 140.168 14.495 140.188 13.99C140.213 13.48 140.236 12.9975 140.256 12.5425C140.281 12.0825 140.306 11.6625 140.331 11.2825C140.686 11.2575 141.013 11.245 141.313 11.245C141.508 11.245 141.701 11.25 141.891 11.26C142.081 11.27 142.291 11.285 142.521 11.305C142.496 11.74 142.466 12.2225 142.431 12.7525C142.401 13.2775 142.371 13.815 142.341 14.365C142.316 14.915 142.291 15.4475 142.266 15.9625C142.241 16.4775 142.221 16.945 142.206 17.365C142.196 17.78 142.191 18.1125 142.191 18.3625C142.191 18.6875 142.203 18.99 142.228 19.27C142.258 19.545 142.323 19.77 142.423 19.945C142.523 20.115 142.673 20.2 142.873 20.2C143.043 20.2 143.181 20.1625 143.286 20.0875C143.396 20.0075 143.486 19.9075 143.556 19.7875C143.591 19.8475 143.646 19.9675 143.721 20.1475C143.796 20.3225 143.878 20.5175 143.968 20.7325C144.058 20.9475 144.138 21.1425 144.208 21.3175C144.278 21.4875 144.321 21.5975 144.336 21.6475ZM145.105 22C145.105 21.615 145.107 21.1325 145.112 20.5525C145.117 19.9725 145.125 19.34 145.135 18.655C145.145 17.965 145.157 17.26 145.172 16.54C145.187 15.82 145.205 15.125 145.225 14.455C145.245 13.785 145.27 13.1825 145.3 12.6475C145.54 12.6225 145.822 12.6025 146.147 12.5875C146.477 12.5725 146.8 12.5625 147.115 12.5575C147.435 12.5475 147.705 12.5425 147.925 12.5425C148.145 12.5375 148.267 12.535 148.292 12.535C148.302 12.555 148.337 12.675 148.397 12.895C148.462 13.115 148.542 13.4 148.637 13.75C148.737 14.1 148.845 14.485 148.96 14.905C149.075 15.325 149.19 15.7525 149.305 16.1875C149.425 16.6225 149.537 17.035 149.642 17.425C149.747 17.81 149.832 18.1425 149.897 18.4225C149.967 18.7025 150.012 18.895 150.032 19L149.755 19.0375C149.805 18.8975 149.88 18.6675 149.98 18.3475C150.08 18.0275 150.192 17.6575 150.317 17.2375C150.447 16.8125 150.577 16.3675 150.707 15.9025C150.842 15.4325 150.972 14.9775 151.097 14.5375C151.222 14.0975 151.33 13.705 151.42 13.36C151.515 13.01 151.582 12.745 151.622 12.565C151.832 12.565 152.1 12.57 152.425 12.58C152.755 12.59 153.087 12.605 153.422 12.625C153.757 12.645 154.035 12.675 154.255 12.715C154.355 13.165 154.425 13.7475 154.465 14.4625C154.505 15.1725 154.525 15.925 154.525 16.72C154.525 17.36 154.515 18.01 154.495 18.67C154.48 19.325 154.457 19.94 154.427 20.515C154.397 21.09 154.365 21.575 154.33 21.97C154.085 21.97 153.82 21.965 153.535 21.955C153.25 21.945 152.977 21.9325 152.717 21.9175C152.462 21.8975 152.26 21.8825 152.11 21.8725C152.135 21.5475 152.157 21.13 152.177 20.62C152.202 20.11 152.222 19.5825 152.237 19.0375C152.252 18.7025 152.262 18.365 152.267 18.025C152.277 17.685 152.285 17.375 152.29 17.095C152.3 16.815 152.307 16.5975 152.312 16.4425C152.257 16.6375 152.18 16.8925 152.08 17.2075C151.985 17.5175 151.875 17.86 151.75 18.235C151.63 18.61 151.502 18.99 151.367 19.375C151.237 19.755 151.11 20.1175 150.985 20.4625C150.865 20.8075 150.757 21.105 150.662 21.355C150.572 21.605 150.502 21.78 150.452 21.88C150.382 21.885 150.275 21.89 150.13 21.895C149.99 21.895 149.882 21.895 149.807 21.895C149.672 21.895 149.532 21.89 149.387 21.88C149.247 21.865 149.092 21.8475 148.922 21.8275C148.907 21.7625 148.875 21.6275 148.825 21.4225C148.78 21.2175 148.72 20.965 148.645 20.665C148.57 20.365 148.487 20.0375 148.397 19.6825C148.312 19.3225 148.225 18.9575 148.135 18.5875C148.045 18.2125 147.955 17.85 147.865 17.5C147.775 17.15 147.692 16.8325 147.617 16.5475C147.547 16.2625 147.487 16.0325 147.437 15.8575C147.442 16.3325 147.445 16.8375 147.445 17.3725C147.45 17.9075 147.452 18.4325 147.452 18.9475C147.452 19.4625 147.452 19.9375 147.452 20.3725C147.457 20.8025 147.46 21.16 147.46 21.445C147.46 21.73 147.46 21.9025 147.46 21.9625C147.285 21.9675 147.062 21.975 146.792 21.985C146.522 21.99 146.24 21.995 145.945 22C145.65 22 145.37 22 145.105 22ZM160.809 14.665C160.934 14.62 161.111 14.5875 161.341 14.5675C161.576 14.5425 161.804 14.53 162.024 14.53C162.209 14.53 162.414 14.5375 162.639 14.5525C162.864 14.5675 163.046 14.585 163.186 14.605C163.251 15.01 163.301 15.42 163.336 15.835C163.371 16.245 163.389 16.65 163.389 17.05C163.389 17.785 163.324 18.4775 163.194 19.1275C163.069 19.7775 162.861 20.35 162.571 20.845C162.281 21.34 161.894 21.7275 161.409 22.0075C160.924 22.2925 160.326 22.435 159.616 22.435C158.861 22.435 158.239 22.2875 157.749 21.9925C157.259 21.6925 156.876 21.2775 156.601 20.7475C156.326 20.2125 156.134 19.59 156.024 18.88C155.919 18.165 155.866 17.395 155.866 16.57C155.866 16.205 155.874 15.835 155.889 15.46C155.909 15.08 155.934 14.7025 155.964 14.3275C156.094 14.3175 156.264 14.31 156.474 14.305C156.689 14.295 156.884 14.2925 157.059 14.2975C157.309 14.2975 157.559 14.3125 157.809 14.3425C158.064 14.3675 158.264 14.4025 158.409 14.4475C158.374 14.7875 158.344 15.155 158.319 15.55C158.294 15.94 158.281 16.3325 158.281 16.7275C158.281 17.3875 158.324 17.9825 158.409 18.5125C158.499 19.0425 158.646 19.4625 158.851 19.7725C159.056 20.0825 159.334 20.2375 159.684 20.2375C160.014 20.2375 160.276 20.0975 160.471 19.8175C160.671 19.5375 160.814 19.1625 160.899 18.6925C160.989 18.2175 161.034 17.6875 161.034 17.1025C161.034 16.6625 161.011 16.23 160.966 15.805C160.926 15.375 160.874 14.995 160.809 14.665ZM167.834 22.5925C167.249 22.5925 166.712 22.52 166.222 22.375C165.737 22.235 165.324 22.07 164.984 21.88C164.649 21.685 164.407 21.51 164.257 21.355C164.287 21.26 164.344 21.1225 164.429 20.9425C164.519 20.7575 164.624 20.5575 164.744 20.3425C164.864 20.1275 164.984 19.9275 165.104 19.7425C165.224 19.5575 165.332 19.42 165.427 19.33C165.667 19.535 165.927 19.7375 166.207 19.9375C166.487 20.1325 166.774 20.2925 167.069 20.4175C167.364 20.5425 167.639 20.605 167.894 20.605C168.094 20.605 168.274 20.58 168.434 20.53C168.594 20.475 168.719 20.395 168.809 20.29C168.904 20.185 168.952 20.055 168.952 19.9C168.952 19.72 168.864 19.5475 168.689 19.3825C168.519 19.2125 168.299 19.0525 168.029 18.9025C167.759 18.7525 167.477 18.6175 167.182 18.4975C166.777 18.3325 166.399 18.14 166.049 17.92C165.699 17.695 165.417 17.42 165.202 17.095C164.987 16.765 164.879 16.355 164.879 15.865C164.879 15.365 165.027 14.945 165.322 14.605C165.617 14.265 166.002 14.0075 166.477 13.8325C166.957 13.6575 167.469 13.57 168.014 13.57C168.529 13.57 169.052 13.6425 169.582 13.7875C170.112 13.9275 170.544 14.13 170.879 14.395C170.849 14.49 170.784 14.635 170.684 14.83C170.589 15.025 170.472 15.235 170.332 15.46C170.197 15.68 170.052 15.8825 169.897 16.0675C169.692 15.8925 169.434 15.725 169.124 15.565C168.814 15.405 168.489 15.325 168.149 15.325C167.979 15.325 167.809 15.3425 167.639 15.3775C167.474 15.4125 167.337 15.475 167.227 15.565C167.122 15.655 167.069 15.7775 167.069 15.9325C167.069 16.0825 167.127 16.2175 167.242 16.3375C167.357 16.4525 167.524 16.565 167.744 16.675C167.969 16.785 168.232 16.9 168.532 17.02C168.832 17.14 169.137 17.2825 169.447 17.4475C169.757 17.6075 170.042 17.8 170.302 18.025C170.567 18.25 170.779 18.5125 170.939 18.8125C171.099 19.1075 171.179 19.4475 171.179 19.8325C171.179 20.4475 171.027 20.96 170.722 21.37C170.417 21.78 170.009 22.085 169.499 22.285C168.994 22.49 168.439 22.5925 167.834 22.5925ZM174.781 21.985C174.696 21.99 174.533 22 174.293 22.015C174.058 22.035 173.808 22.045 173.543 22.045C173.348 22.045 173.151 22.0375 172.951 22.0225C172.756 22.0125 172.563 21.9975 172.373 21.9775C172.398 21.8475 172.426 21.5825 172.456 21.1825C172.491 20.7775 172.523 20.3025 172.553 19.7575C172.588 19.2125 172.621 18.65 172.651 18.07C172.686 17.485 172.711 16.9375 172.726 16.4275C172.746 15.9175 172.756 15.5075 172.756 15.1975C172.856 15.1925 173.003 15.185 173.198 15.175C173.393 15.165 173.603 15.1575 173.828 15.1525C174.053 15.1425 174.268 15.135 174.473 15.13C174.678 15.12 174.841 15.115 174.961 15.115C174.986 15.27 175.006 15.52 175.021 15.865C175.036 16.21 175.043 16.595 175.043 17.02C175.043 17.475 175.036 17.9575 175.021 18.4675C175.011 18.9775 174.993 19.4725 174.968 19.9525C174.948 20.4275 174.921 20.8475 174.886 21.2125C174.851 21.5725 174.816 21.83 174.781 21.985ZM173.941 14.1475C173.491 14.1475 173.113 14.0175 172.808 13.7575C172.503 13.4925 172.351 13.145 172.351 12.715C172.351 12.42 172.423 12.1675 172.568 11.9575C172.713 11.7475 172.901 11.5875 173.131 11.4775C173.366 11.3625 173.613 11.305 173.873 11.305C174.288 11.305 174.631 11.44 174.901 11.71C175.176 11.98 175.313 12.3275 175.313 12.7525C175.313 13.1475 175.183 13.48 174.923 13.75C174.663 14.015 174.336 14.1475 173.941 14.1475ZM183.63 20.41C183.48 20.67 183.252 20.9275 182.947 21.1825C182.642 21.4375 182.265 21.65 181.815 21.82C181.365 21.99 180.847 22.075 180.262 22.075C179.502 22.075 178.845 21.8875 178.29 21.5125C177.735 21.1325 177.305 20.63 177 20.005C176.7 19.375 176.55 18.685 176.55 17.935C176.55 17.145 176.705 16.4375 177.015 15.8125C177.33 15.1875 177.772 14.6925 178.342 14.3275C178.912 13.9625 179.587 13.78 180.367 13.78C180.832 13.78 181.26 13.8525 181.65 13.9975C182.04 14.1425 182.382 14.3475 182.677 14.6125C182.977 14.8775 183.225 15.1875 183.42 15.5425L181.785 16.4575C181.77 16.4175 181.735 16.355 181.68 16.27C181.63 16.185 181.555 16.095 181.455 16C181.355 15.905 181.222 15.825 181.057 15.76C180.897 15.695 180.697 15.6625 180.457 15.6625C180.097 15.6625 179.792 15.74 179.542 15.895C179.292 16.05 179.102 16.27 178.972 16.555C178.847 16.84 178.785 17.175 178.785 17.56C178.785 17.88 178.832 18.2025 178.927 18.5275C179.022 18.8475 179.182 19.115 179.407 19.33C179.632 19.545 179.942 19.6525 180.337 19.6525C180.572 19.6525 180.79 19.6125 180.99 19.5325C181.19 19.4525 181.362 19.3575 181.507 19.2475C181.657 19.1325 181.777 19.025 181.867 18.925C181.957 18.825 182.012 18.7575 182.032 18.7225L183.63 20.41Z" fill="white"/>
</svg>
