<svg width="97" height="38" viewBox="0 0 97 38" fill="none" xmlns="http://www.w3.org/2000/svg">
<path d="M2.19685 32.7233C1.05674 29.9368 0.201659 6.84935 2.19685 4.36149C4.19203 1.87363 36.4 3.36635 53.2166 4.36149C70.0331 5.35663 92.2652 3.8639 95.1155 5.35663C97.9658 6.84935 97.1392 33.4199 95.543 36.2063C93.5479 39.6893 58.062 37.2014 49.6538 36.2063C41.2455 35.2111 3.62198 36.2063 2.19685 32.7233Z" fill="#214868"/>
<path d="M1.19685 29.7233C0.0567402 26.9368 -0.798341 3.84935 1.19685 1.36149C3.19203 -1.12637 35.4 0.366353 52.2166 1.36149C69.0331 2.35663 91.2652 0.863904 94.1155 2.35663C96.9658 3.84935 96.1392 30.4199 94.543 33.2063C92.5479 36.6893 57.062 34.2014 48.6538 33.2063C40.2455 32.2111 2.62198 33.2063 1.19685 29.7233Z" fill="#3387DC"/>
<path d="M21.7489 22.1125C21.6239 22.1125 21.4514 22.1075 21.2314 22.0975C21.0114 22.0925 20.7739 22.085 20.5189 22.075C20.2689 22.07 20.0239 22.0625 19.7839 22.0525C19.5489 22.0425 19.3539 22.0325 19.1989 22.0225C19.2539 21.7125 19.3289 21.3175 19.4239 20.8375C19.5239 20.3575 19.6389 19.825 19.7689 19.24C19.8989 18.655 20.0364 18.045 20.1814 17.41C20.3264 16.77 20.4764 16.135 20.6314 15.505C20.7864 14.875 20.9364 14.2775 21.0814 13.7125C21.2264 13.1475 21.3614 12.645 21.4864 12.205C21.9914 12.14 22.4889 12.0875 22.9789 12.0475C23.4739 12.0025 23.9539 11.98 24.4189 11.98C24.6839 11.98 24.9489 11.9875 25.2139 12.0025C25.4789 12.0175 25.7414 12.0425 26.0014 12.0775C26.0964 12.5175 26.1939 13.0225 26.2939 13.5925C26.3939 14.1625 26.4939 14.835 26.5939 15.61C26.6989 16.38 26.8014 17.2875 26.9014 18.3325C27.0064 19.3725 27.1114 20.585 27.2164 21.97C27.0514 21.99 26.8164 22.0125 26.5114 22.0375C26.2064 22.0625 25.8864 22.08 25.5514 22.09C25.2214 22.105 24.9264 22.1125 24.6664 22.1125C24.6564 21.9675 24.6464 21.8025 24.6364 21.6175C24.6314 21.4325 24.6239 21.235 24.6139 21.025C24.6039 20.815 24.5939 20.6025 24.5839 20.3875C24.5789 20.1725 24.5739 19.965 24.5689 19.765C24.5639 19.565 24.5589 19.38 24.5539 19.21C24.3939 19.215 24.2214 19.2225 24.0364 19.2325C23.8514 19.2375 23.6639 19.2475 23.4739 19.2625C23.2889 19.2725 23.1139 19.285 22.9489 19.3C22.7839 19.31 22.6389 19.3225 22.5139 19.3375C22.3889 19.3525 22.2989 19.365 22.2439 19.375C22.1689 19.715 22.0989 20.0575 22.0339 20.4025C21.9689 20.7475 21.9114 21.07 21.8614 21.37C21.8114 21.665 21.7739 21.9125 21.7489 22.1125ZM22.5514 17.2975C22.6664 17.2775 22.8464 17.255 23.0914 17.23C23.3364 17.205 23.5914 17.185 23.8564 17.17C24.1214 17.155 24.3364 17.145 24.5014 17.14C24.4914 17.035 24.4789 16.8375 24.4639 16.5475C24.4539 16.2525 24.4389 15.9325 24.4189 15.5875C24.3989 15.2375 24.3789 14.9175 24.3589 14.6275C24.3439 14.3325 24.3289 14.13 24.3139 14.02C24.2339 14.02 24.1139 14.025 23.9539 14.035C23.7939 14.045 23.6389 14.055 23.4889 14.065C23.3389 14.075 23.2339 14.085 23.1739 14.095C23.1439 14.24 23.1014 14.4425 23.0464 14.7025C22.9964 14.9575 22.9414 15.2425 22.8814 15.5575C22.8214 15.8725 22.7614 16.1825 22.7014 16.4875C22.6464 16.7875 22.5964 17.0575 22.5514 17.2975ZM33.9679 22.39C33.8979 22.24 33.7879 22.0475 33.6379 21.8125C33.4929 21.5725 33.3254 21.32 33.1354 21.055C32.9504 20.785 32.7554 20.5225 32.5504 20.2675C32.3504 20.0125 32.1579 19.79 31.9729 19.6C31.7879 19.405 31.6279 19.2675 31.4929 19.1875C31.4229 19.2325 31.3354 19.2975 31.2304 19.3825C31.1254 19.4625 31.0279 19.54 30.9379 19.615C30.8479 19.69 30.7854 19.745 30.7504 19.78C30.7454 19.995 30.7379 20.22 30.7279 20.455C30.7179 20.69 30.7079 20.92 30.6979 21.145C30.6879 21.365 30.6754 21.5675 30.6604 21.7525C30.6504 21.9325 30.6404 22.075 30.6304 22.18C30.4454 22.2 30.2604 22.215 30.0754 22.225C29.8904 22.235 29.7054 22.24 29.5204 22.24C29.2804 22.24 29.0529 22.23 28.8379 22.21C28.6229 22.195 28.4354 22.18 28.2754 22.165C28.2804 22.045 28.2929 21.7825 28.3129 21.3775C28.3379 20.9675 28.3629 20.465 28.3879 19.87C28.4179 19.27 28.4479 18.62 28.4779 17.92C28.5129 17.215 28.5454 16.5075 28.5754 15.7975C28.6104 15.0825 28.6404 14.41 28.6654 13.78C28.6954 13.145 28.7179 12.5975 28.7329 12.1375C28.7479 11.6725 28.7554 11.3425 28.7554 11.1475C28.9154 11.1325 29.0804 11.12 29.2504 11.11C29.4204 11.1 29.5879 11.095 29.7529 11.095C29.9879 11.095 30.2154 11.1075 30.4354 11.1325C30.6604 11.1575 30.8679 11.1975 31.0579 11.2525C31.0579 11.6425 31.0529 12.07 31.0429 12.535C31.0379 13 31.0254 13.4725 31.0054 13.9525C30.9904 14.4325 30.9729 14.89 30.9529 15.325C30.9329 15.76 30.9129 16.1475 30.8929 16.4875C30.8779 16.8225 30.8629 17.0775 30.8479 17.2525C31.1029 16.9875 31.4004 16.7175 31.7404 16.4425C32.0804 16.1675 32.4329 15.9025 32.7979 15.6475C33.1629 15.3875 33.5154 15.145 33.8554 14.92C34.2004 14.69 34.5004 14.49 34.7554 14.32C34.8354 14.395 34.9354 14.5075 35.0554 14.6575C35.1754 14.8025 35.2979 14.965 35.4229 15.145C35.5529 15.32 35.6729 15.49 35.7829 15.655C35.8929 15.82 35.9804 15.9575 36.0454 16.0675C35.8454 16.1925 35.6104 16.3425 35.3404 16.5175C35.0704 16.6875 34.7929 16.865 34.5079 17.05C34.2279 17.235 33.9679 17.41 33.7279 17.575C33.4879 17.74 33.3004 17.8725 33.1654 17.9725C33.2954 18.0575 33.4529 18.1875 33.6379 18.3625C33.8229 18.5375 34.0229 18.7425 34.2379 18.9775C34.4579 19.2125 34.6804 19.47 34.9054 19.75C35.1304 20.025 35.3529 20.315 35.5729 20.62C35.7929 20.92 35.9929 21.2225 36.1729 21.5275C36.0979 21.5725 35.9629 21.6375 35.7679 21.7225C35.5729 21.8025 35.3554 21.89 35.1154 21.985C34.8754 22.08 34.6504 22.165 34.4404 22.24C34.2304 22.315 34.0729 22.365 33.9679 22.39ZM42.8443 21.0175C42.7493 21.2025 42.5993 21.4 42.3943 21.61C42.1943 21.815 41.9318 21.99 41.6068 22.135C41.2868 22.285 40.8968 22.36 40.4368 22.36C39.8318 22.36 39.3368 22.2325 38.9518 21.9775C38.5718 21.7225 38.2893 21.3825 38.1043 20.9575C37.9243 20.5325 37.8343 20.0675 37.8343 19.5625C37.8343 19.2875 37.8368 18.995 37.8418 18.685C37.8518 18.37 37.8618 18.06 37.8718 17.755C37.8818 17.445 37.8918 17.1525 37.9018 16.8775C37.9168 16.5975 37.9293 16.3525 37.9393 16.1425C37.9543 15.9325 37.9643 15.77 37.9693 15.655C37.5743 15.695 37.2093 15.74 36.8743 15.79C36.5393 15.835 36.3068 15.8725 36.1768 15.9025C36.1268 15.6225 36.0893 15.3375 36.0643 15.0475C36.0393 14.7575 36.0193 14.505 36.0043 14.29C35.9943 14.075 35.9893 13.9425 35.9893 13.8925C36.2793 13.8525 36.5893 13.8175 36.9193 13.7875C37.2493 13.7525 37.5968 13.7275 37.9618 13.7125C37.9568 13.5925 37.9518 13.405 37.9468 13.15C37.9418 12.895 37.9343 12.665 37.9243 12.46C37.9193 12.275 37.9093 12.09 37.8943 11.905C37.8793 11.715 37.8668 11.5625 37.8568 11.4475L40.0768 11.2525C40.0768 11.3125 40.0768 11.4525 40.0768 11.6725C40.0818 11.8925 40.0843 12.1575 40.0843 12.4675C40.0843 12.6225 40.0868 12.8025 40.0918 13.0075C40.0968 13.2075 40.1018 13.405 40.1068 13.6C40.2718 13.59 40.4643 13.58 40.6843 13.57C40.9043 13.56 41.0793 13.5525 41.2093 13.5475C41.4193 13.5375 41.6093 13.5325 41.7793 13.5325C41.9493 13.5275 42.0893 13.525 42.1993 13.525C42.3143 13.525 42.3918 13.5275 42.4318 13.5325C42.4618 13.7675 42.4818 14.0675 42.4918 14.4325C42.5018 14.7925 42.5068 15.1125 42.5068 15.3925C42.4568 15.3875 42.2943 15.39 42.0193 15.4C41.7443 15.405 41.4743 15.415 41.2093 15.43C41.0243 15.435 40.8193 15.445 40.5943 15.46C40.3693 15.475 40.1918 15.49 40.0618 15.505C40.0568 15.61 40.0493 15.755 40.0393 15.94C40.0343 16.12 40.0268 16.325 40.0168 16.555C40.0118 16.78 40.0043 17.015 39.9943 17.26C39.9893 17.5 39.9843 17.7325 39.9793 17.9575C39.9743 18.1825 39.9718 18.3825 39.9718 18.5575C39.9718 18.8875 39.9868 19.185 40.0168 19.45C40.0518 19.71 40.1243 19.9175 40.2343 20.0725C40.3493 20.2225 40.5243 20.2975 40.7593 20.2975C40.9143 20.2975 41.0468 20.2525 41.1568 20.1625C41.2668 20.0725 41.3568 19.9675 41.4268 19.8475C41.5018 19.7225 41.5668 19.6125 41.6218 19.5175C41.6868 19.6075 41.7768 19.7275 41.8918 19.8775C42.0118 20.0225 42.1368 20.175 42.2668 20.335C42.4018 20.495 42.5218 20.6375 42.6268 20.7625C42.7368 20.8875 42.8093 20.9725 42.8443 21.0175ZM46.0622 21.985C45.9772 21.99 45.8147 22 45.5747 22.015C45.3397 22.035 45.0897 22.045 44.8247 22.045C44.6297 22.045 44.4322 22.0375 44.2322 22.0225C44.0372 22.0125 43.8447 21.9975 43.6547 21.9775C43.6797 21.8475 43.7072 21.5825 43.7372 21.1825C43.7722 20.7775 43.8047 20.3025 43.8347 19.7575C43.8697 19.2125 43.9022 18.65 43.9322 18.07C43.9672 17.485 43.9922 16.9375 44.0072 16.4275C44.0272 15.9175 44.0372 15.5075 44.0372 15.1975C44.1372 15.1925 44.2847 15.185 44.4797 15.175C44.6747 15.165 44.8847 15.1575 45.1097 15.1525C45.3347 15.1425 45.5497 15.135 45.7547 15.13C45.9597 15.12 46.1222 15.115 46.2422 15.115C46.2672 15.27 46.2872 15.52 46.3022 15.865C46.3172 16.21 46.3247 16.595 46.3247 17.02C46.3247 17.475 46.3172 17.9575 46.3022 18.4675C46.2922 18.9775 46.2747 19.4725 46.2497 19.9525C46.2297 20.4275 46.2022 20.8475 46.1672 21.2125C46.1322 21.5725 46.0972 21.83 46.0622 21.985ZM45.2222 14.1475C44.7722 14.1475 44.3947 14.0175 44.0897 13.7575C43.7847 13.4925 43.6322 13.145 43.6322 12.715C43.6322 12.42 43.7047 12.1675 43.8497 11.9575C43.9947 11.7475 44.1822 11.5875 44.4122 11.4775C44.6472 11.3625 44.8947 11.305 45.1547 11.305C45.5697 11.305 45.9122 11.44 46.1822 11.71C46.4572 11.98 46.5947 12.3275 46.5947 12.7525C46.5947 13.1475 46.4647 13.48 46.2047 13.75C45.9447 14.015 45.6172 14.1475 45.2222 14.1475ZM49.2675 22.0825C49.2575 22.0025 49.2325 21.845 49.1925 21.61C49.1575 21.375 49.115 21.0925 49.065 20.7625C49.02 20.4275 48.97 20.0725 48.915 19.6975C48.865 19.3175 48.82 18.945 48.78 18.58C48.67 18.6 48.5175 18.6375 48.3225 18.6925C48.1275 18.7475 47.9525 18.8025 47.7975 18.8575C47.7225 18.6175 47.6625 18.3075 47.6175 17.9275C47.5775 17.5475 47.555 17.1825 47.55 16.8325C47.595 16.8175 47.6675 16.7975 47.7675 16.7725C47.8675 16.7425 47.9725 16.7125 48.0825 16.6825C48.1975 16.6525 48.305 16.6275 48.405 16.6075C48.505 16.5825 48.5775 16.565 48.6225 16.555C48.5975 16.335 48.575 16.11 48.555 15.88C48.535 15.65 48.525 15.43 48.525 15.22C48.525 14.62 48.635 14.0625 48.855 13.5475C49.075 13.0275 49.41 12.6075 49.86 12.2875C50.315 11.9625 50.8825 11.8 51.5625 11.8C51.9875 11.8 52.35 11.8475 52.65 11.9425C52.955 12.0375 53.2075 12.1575 53.4075 12.3025C53.6125 12.4425 53.775 12.585 53.895 12.73C54.02 12.875 54.11 13 54.165 13.105C54.065 13.295 53.9325 13.52 53.7675 13.78C53.6075 14.04 53.4525 14.2825 53.3025 14.5075C53.1575 14.7325 53.05 14.8925 52.98 14.9875C52.925 14.9025 52.855 14.81 52.77 14.71C52.69 14.61 52.6 14.515 52.5 14.425C52.4 14.33 52.29 14.255 52.17 14.2C52.05 14.14 51.92 14.11 51.78 14.11C51.545 14.11 51.355 14.1675 51.21 14.2825C51.065 14.3975 50.96 14.555 50.895 14.755C50.835 14.95 50.805 15.1675 50.805 15.4075C50.805 15.5275 50.81 15.66 50.82 15.805C50.835 15.95 50.8575 16.085 50.8875 16.21C51.0425 16.205 51.245 16.2025 51.495 16.2025C51.745 16.1975 51.99 16.1975 52.23 16.2025C52.47 16.2075 52.6475 16.215 52.7625 16.225C52.7975 16.485 52.82 16.7975 52.83 17.1625C52.84 17.5225 52.845 17.8475 52.845 18.1375C52.8 18.1375 52.6725 18.1425 52.4625 18.1525C52.2575 18.1575 52.03 18.1675 51.78 18.1825C51.535 18.1975 51.3275 18.215 51.1575 18.235C51.1825 18.385 51.2175 18.5975 51.2625 18.8725C51.3125 19.1475 51.365 19.4475 51.42 19.7725C51.48 20.0925 51.5375 20.405 51.5925 20.71C51.6475 21.015 51.6975 21.28 51.7425 21.505C51.7875 21.73 51.8175 21.875 51.8325 21.94C51.6375 21.975 51.385 22.0025 51.075 22.0225C50.77 22.0425 50.455 22.055 50.13 22.06C49.81 22.07 49.5225 22.0775 49.2675 22.0825ZM60.3937 22.39C60.3237 22.24 60.2137 22.0475 60.0637 21.8125C59.9187 21.5725 59.7512 21.32 59.5612 21.055C59.3762 20.785 59.1812 20.5225 58.9762 20.2675C58.7762 20.0125 58.5837 19.79 58.3987 19.6C58.2137 19.405 58.0537 19.2675 57.9187 19.1875C57.8487 19.2325 57.7612 19.2975 57.6562 19.3825C57.5512 19.4625 57.4537 19.54 57.3637 19.615C57.2737 19.69 57.2112 19.745 57.1762 19.78C57.1712 19.995 57.1637 20.22 57.1537 20.455C57.1437 20.69 57.1337 20.92 57.1237 21.145C57.1137 21.365 57.1012 21.5675 57.0862 21.7525C57.0762 21.9325 57.0662 22.075 57.0562 22.18C56.8712 22.2 56.6862 22.215 56.5012 22.225C56.3162 22.235 56.1312 22.24 55.9462 22.24C55.7062 22.24 55.4787 22.23 55.2637 22.21C55.0487 22.195 54.8612 22.18 54.7012 22.165C54.7062 22.045 54.7187 21.7825 54.7387 21.3775C54.7637 20.9675 54.7887 20.465 54.8137 19.87C54.8437 19.27 54.8737 18.62 54.9037 17.92C54.9387 17.215 54.9712 16.5075 55.0012 15.7975C55.0362 15.0825 55.0662 14.41 55.0912 13.78C55.1212 13.145 55.1437 12.5975 55.1587 12.1375C55.1737 11.6725 55.1812 11.3425 55.1812 11.1475C55.3412 11.1325 55.5062 11.12 55.6762 11.11C55.8462 11.1 56.0137 11.095 56.1787 11.095C56.4137 11.095 56.6412 11.1075 56.8612 11.1325C57.0862 11.1575 57.2937 11.1975 57.4837 11.2525C57.4837 11.6425 57.4787 12.07 57.4687 12.535C57.4637 13 57.4512 13.4725 57.4312 13.9525C57.4162 14.4325 57.3987 14.89 57.3787 15.325C57.3587 15.76 57.3387 16.1475 57.3187 16.4875C57.3037 16.8225 57.2887 17.0775 57.2737 17.2525C57.5287 16.9875 57.8262 16.7175 58.1662 16.4425C58.5062 16.1675 58.8587 15.9025 59.2237 15.6475C59.5887 15.3875 59.9412 15.145 60.2812 14.92C60.6262 14.69 60.9262 14.49 61.1812 14.32C61.2612 14.395 61.3612 14.5075 61.4812 14.6575C61.6012 14.8025 61.7237 14.965 61.8487 15.145C61.9787 15.32 62.0987 15.49 62.2087 15.655C62.3187 15.82 62.4062 15.9575 62.4712 16.0675C62.2712 16.1925 62.0362 16.3425 61.7662 16.5175C61.4962 16.6875 61.2187 16.865 60.9337 17.05C60.6537 17.235 60.3937 17.41 60.1537 17.575C59.9137 17.74 59.7262 17.8725 59.5912 17.9725C59.7212 18.0575 59.8787 18.1875 60.0637 18.3625C60.2487 18.5375 60.4487 18.7425 60.6637 18.9775C60.8837 19.2125 61.1062 19.47 61.3312 19.75C61.5562 20.025 61.7787 20.315 61.9987 20.62C62.2187 20.92 62.4187 21.2225 62.5987 21.5275C62.5237 21.5725 62.3887 21.6375 62.1937 21.7225C61.9987 21.8025 61.7812 21.89 61.5412 21.985C61.3012 22.08 61.0762 22.165 60.8662 22.24C60.6562 22.315 60.4987 22.365 60.3937 22.39ZM66.1375 22.1275C65.5225 22.1275 64.96 22.045 64.45 21.88C63.94 21.71 63.5325 21.4375 63.2275 21.0625C62.9275 20.6825 62.7775 20.18 62.7775 19.555C62.7775 18.93 62.9525 18.4275 63.3025 18.0475C63.6575 17.6625 64.1225 17.385 64.6975 17.215C65.2775 17.04 65.9 16.9525 66.565 16.9525C66.825 16.9525 67.075 16.9725 67.315 17.0125C67.555 17.0525 67.765 17.1 67.945 17.155C68.13 17.21 68.2625 17.2625 68.3425 17.3125C68.3375 17.1825 68.31 17.045 68.26 16.9C68.215 16.755 68.15 16.6325 68.065 16.5325C67.915 16.3275 67.71 16.1575 67.45 16.0225C67.195 15.8825 66.8575 15.8125 66.4375 15.8125C66.0125 15.8125 65.6375 15.91 65.3125 16.105C64.9875 16.295 64.74 16.51 64.57 16.75L62.74 15.5725C62.965 15.2525 63.2675 14.9725 63.6475 14.7325C64.0325 14.4925 64.4675 14.305 64.9525 14.17C65.4425 14.035 65.955 13.9675 66.49 13.9675C67.375 13.9675 68.0925 14.1125 68.6425 14.4025C69.1925 14.6925 69.6 15.0975 69.865 15.6175C69.99 15.8675 70.0925 16.1425 70.1725 16.4425C70.2525 16.7425 70.3075 17.0875 70.3375 17.4775C70.3575 17.8125 70.3725 18.125 70.3825 18.415C70.3925 18.705 70.4025 18.98 70.4125 19.24C70.4225 19.62 70.465 19.8675 70.54 19.9825C70.615 20.0975 70.7225 20.155 70.8625 20.155C70.9925 20.155 71.1075 20.12 71.2075 20.05C71.3125 19.975 71.38 19.8775 71.41 19.7575L72.19 21.25C72.135 21.48 71.98 21.6725 71.725 21.8275C71.47 21.9825 71.1475 22.06 70.7575 22.06C70.4725 22.06 70.2025 22.0125 69.9475 21.9175C69.6925 21.8175 69.4825 21.685 69.3175 21.52C69.1525 21.35 69.055 21.1575 69.025 20.9425C68.945 21.1325 68.7775 21.32 68.5225 21.505C68.2675 21.685 67.94 21.835 67.54 21.955C67.14 22.07 66.6725 22.1275 66.1375 22.1275ZM66.64 20.365C66.875 20.365 67.115 20.33 67.36 20.26C67.61 20.185 67.835 20.0925 68.035 19.9825C68.24 19.8725 68.3975 19.76 68.5075 19.645C68.4975 19.49 68.4875 19.33 68.4775 19.165C68.4725 19 68.4725 18.86 68.4775 18.745C68.3675 18.7 68.1575 18.6525 67.8475 18.6025C67.5425 18.5475 67.2225 18.52 66.8875 18.52C66.5825 18.52 66.2975 18.5525 66.0325 18.6175C65.7675 18.6825 65.55 18.7825 65.38 18.9175C65.215 19.0525 65.1325 19.2275 65.1325 19.4425C65.1325 19.6725 65.195 19.855 65.32 19.99C65.445 20.125 65.62 20.2225 65.845 20.2825C66.07 20.3375 66.335 20.365 66.64 20.365ZM75.0769 22.0975C74.9269 22.1025 74.7419 22.1025 74.5219 22.0975C74.3019 22.0975 74.0769 22.095 73.8469 22.09C73.6619 22.085 73.4494 22.0775 73.2094 22.0675C72.9694 22.0575 72.8019 22.0475 72.7069 22.0375C72.7519 21.6175 72.7894 21.1425 72.8194 20.6125C72.8544 20.0825 72.8819 19.495 72.9019 18.85C72.9219 18.205 72.9369 17.5 72.9469 16.735C72.9569 15.97 72.9619 15.1425 72.9619 14.2525C73.1519 14.2275 73.3769 14.2075 73.6369 14.1925C73.8969 14.1775 74.1594 14.17 74.4244 14.17C74.6094 14.17 74.7869 14.175 74.9569 14.185C75.1319 14.19 75.2869 14.205 75.4219 14.23C75.4219 14.275 75.4219 14.3675 75.4219 14.5075C75.4269 14.6425 75.4269 14.7925 75.4219 14.9575C75.4219 15.1175 75.4194 15.2625 75.4144 15.3925C75.5444 15.2025 75.7569 15.005 76.0519 14.8C76.3469 14.59 76.6894 14.4125 77.0794 14.2675C77.4694 14.1225 77.8719 14.05 78.2869 14.05C79.0519 14.05 79.6369 14.205 80.0419 14.515C80.4469 14.82 80.7244 15.28 80.8744 15.895C81.0244 16.505 81.0994 17.27 81.0994 18.19C81.0994 18.51 81.0894 18.885 81.0694 19.315C81.0544 19.74 81.0294 20.1875 80.9944 20.6575C80.9594 21.1275 80.9144 21.5825 80.8594 22.0225C80.7594 22.0325 80.5994 22.04 80.3794 22.045C80.1644 22.055 79.9369 22.06 79.6969 22.06C79.4419 22.06 79.1994 22.055 78.9694 22.045C78.7394 22.04 78.5694 22.0325 78.4594 22.0225C78.5144 21.7425 78.5744 21.3925 78.6394 20.9725C78.7044 20.5525 78.7594 20.105 78.8044 19.63C78.8494 19.15 78.8719 18.6925 78.8719 18.2575C78.8719 17.8375 78.8369 17.4725 78.7669 17.1625C78.7019 16.8525 78.5744 16.6125 78.3844 16.4425C78.1994 16.2675 77.9244 16.18 77.5594 16.18C77.2594 16.18 76.9719 16.2325 76.6969 16.3375C76.4219 16.4425 76.1719 16.5725 75.9469 16.7275C75.7219 16.8775 75.5294 17.025 75.3694 17.17C75.3644 17.96 75.3444 18.675 75.3094 19.315C75.2744 19.95 75.2369 20.5025 75.1969 20.9725C75.1569 21.4375 75.1169 21.8125 75.0769 22.0975Z" fill="white"/>
</svg>
