<svg width="151" height="38" viewBox="0 0 151 38" fill="none" xmlns="http://www.w3.org/2000/svg">
<path d="M2.87007 32.7233C1.08866 29.9368 -0.247408 6.84935 2.87007 4.36149C5.98755 1.87363 56.3125 3.36635 82.5884 4.36149C108.864 5.35663 143.602 3.8639 148.055 5.35663C152.509 6.84935 151.217 33.4199 148.724 36.2063C145.606 39.6893 90.1594 37.2014 77.0215 36.2063C63.8836 35.2111 5.09684 36.2063 2.87007 32.7233Z" fill="#214868"/>
<path d="M1.87007 29.7233C0.0886566 26.9368 -1.24741 3.84935 1.87007 1.36149C4.98755 -1.12637 55.3125 0.366353 81.5884 1.36149C107.864 2.35663 142.602 0.863904 147.055 2.35663C151.509 3.84935 150.217 30.4199 147.724 33.2063C144.606 36.6893 89.1594 34.2014 76.0215 33.2063C62.8836 32.2111 4.09684 33.2063 1.87007 29.7233Z" fill="#B2BEC8"/>
<path d="M42.8746 21.8275C42.8746 21.6325 42.8771 21.32 42.8821 20.89C42.8871 20.46 42.8946 19.9625 42.9046 19.3975C42.9196 18.8275 42.9346 18.2275 42.9496 17.5975C42.9646 16.9675 42.9771 16.35 42.9871 15.745C43.0021 15.14 43.0146 14.5875 43.0246 14.0875C43.0396 13.5875 43.0496 13.1825 43.0546 12.8725C43.0596 12.5625 43.0621 12.3925 43.0621 12.3625C43.3421 12.3425 43.6721 12.32 44.0521 12.295C44.4371 12.27 44.8396 12.25 45.2596 12.235C45.6846 12.215 46.0971 12.205 46.4971 12.205C47.0821 12.205 47.5996 12.28 48.0496 12.43C48.5046 12.58 48.8621 12.8225 49.1221 13.1575C49.3821 13.4925 49.5121 13.9325 49.5121 14.4775C49.5121 14.8775 49.4196 15.2275 49.2346 15.5275C49.0496 15.8275 48.8246 16.07 48.5596 16.255C48.2946 16.44 48.0396 16.5575 47.7946 16.6075C47.8196 16.6075 47.8446 16.6075 47.8696 16.6075C47.8996 16.6075 47.9371 16.6075 47.9821 16.6075C48.4271 16.6375 48.8171 16.7475 49.1521 16.9375C49.4921 17.1225 49.7571 17.3725 49.9471 17.6875C50.1371 18.0025 50.2321 18.365 50.2321 18.775C50.2321 19.445 50.1021 19.99 49.8421 20.41C49.5821 20.825 49.2121 21.1475 48.7321 21.3775C48.2521 21.6075 47.6796 21.765 47.0146 21.85C46.3546 21.935 45.6271 21.9775 44.8321 21.9775C44.4571 21.9775 44.0971 21.965 43.7521 21.94C43.4071 21.915 43.1146 21.8775 42.8746 21.8275ZM45.3421 19.75C45.3871 19.755 45.4421 19.7575 45.5071 19.7575C45.5721 19.7575 45.6446 19.7575 45.7246 19.7575C45.9946 19.7575 46.2646 19.74 46.5346 19.705C46.8046 19.67 47.0496 19.6125 47.2696 19.5325C47.4946 19.4525 47.6746 19.3425 47.8096 19.2025C47.9446 19.0575 48.0121 18.8775 48.0121 18.6625C48.0121 18.5125 47.9796 18.38 47.9146 18.265C47.8546 18.15 47.7596 18.055 47.6296 17.98C47.4996 17.9 47.3296 17.8425 47.1196 17.8075C46.9146 17.7675 46.6671 17.7475 46.3771 17.7475C46.2921 17.7475 46.1871 17.75 46.0621 17.755C45.9371 17.755 45.8071 17.76 45.6721 17.77C45.5421 17.775 45.4196 17.785 45.3046 17.8L45.3421 19.75ZM45.2746 15.9025C45.5396 15.9025 45.7521 15.895 45.9121 15.88C46.0721 15.865 46.2121 15.8375 46.3321 15.7975C46.6221 15.7525 46.8871 15.6475 47.1271 15.4825C47.3721 15.3125 47.4946 15.085 47.4946 14.8C47.4946 14.505 47.3921 14.285 47.1871 14.14C46.9821 13.99 46.7196 13.915 46.3996 13.915C46.2146 13.915 46.0121 13.9275 45.7921 13.9525C45.5771 13.9725 45.3896 13.995 45.2296 14.02L45.2746 15.9025ZM54.7083 22.1275C54.0933 22.1275 53.5308 22.045 53.0208 21.88C52.5108 21.71 52.1033 21.4375 51.7983 21.0625C51.4983 20.6825 51.3483 20.18 51.3483 19.555C51.3483 18.93 51.5233 18.4275 51.8733 18.0475C52.2283 17.6625 52.6933 17.385 53.2683 17.215C53.8483 17.04 54.4708 16.9525 55.1358 16.9525C55.3958 16.9525 55.6458 16.9725 55.8858 17.0125C56.1258 17.0525 56.3358 17.1 56.5158 17.155C56.7008 17.21 56.8333 17.2625 56.9133 17.3125C56.9083 17.1825 56.8808 17.045 56.8308 16.9C56.7858 16.755 56.7208 16.6325 56.6358 16.5325C56.4858 16.3275 56.2808 16.1575 56.0208 16.0225C55.7658 15.8825 55.4283 15.8125 55.0083 15.8125C54.5833 15.8125 54.2083 15.91 53.8833 16.105C53.5583 16.295 53.3108 16.51 53.1408 16.75L51.3108 15.5725C51.5358 15.2525 51.8383 14.9725 52.2183 14.7325C52.6033 14.4925 53.0383 14.305 53.5233 14.17C54.0133 14.035 54.5258 13.9675 55.0608 13.9675C55.9458 13.9675 56.6633 14.1125 57.2133 14.4025C57.7633 14.6925 58.1708 15.0975 58.4358 15.6175C58.5608 15.8675 58.6633 16.1425 58.7433 16.4425C58.8233 16.7425 58.8783 17.0875 58.9083 17.4775C58.9283 17.8125 58.9433 18.125 58.9533 18.415C58.9633 18.705 58.9733 18.98 58.9833 19.24C58.9933 19.62 59.0358 19.8675 59.1108 19.9825C59.1858 20.0975 59.2933 20.155 59.4333 20.155C59.5633 20.155 59.6783 20.12 59.7783 20.05C59.8833 19.975 59.9508 19.8775 59.9808 19.7575L60.7608 21.25C60.7058 21.48 60.5508 21.6725 60.2958 21.8275C60.0408 21.9825 59.7183 22.06 59.3283 22.06C59.0433 22.06 58.7733 22.0125 58.5183 21.9175C58.2633 21.8175 58.0533 21.685 57.8883 21.52C57.7233 21.35 57.6258 21.1575 57.5958 20.9425C57.5158 21.1325 57.3483 21.32 57.0933 21.505C56.8383 21.685 56.5108 21.835 56.1108 21.955C55.7108 22.07 55.2433 22.1275 54.7083 22.1275ZM55.2108 20.365C55.4458 20.365 55.6858 20.33 55.9308 20.26C56.1808 20.185 56.4058 20.0925 56.6058 19.9825C56.8108 19.8725 56.9683 19.76 57.0783 19.645C57.0683 19.49 57.0583 19.33 57.0483 19.165C57.0433 19 57.0433 18.86 57.0483 18.745C56.9383 18.7 56.7283 18.6525 56.4183 18.6025C56.1133 18.5475 55.7933 18.52 55.4583 18.52C55.1533 18.52 54.8683 18.5525 54.6033 18.6175C54.3383 18.6825 54.1208 18.7825 53.9508 18.9175C53.7858 19.0525 53.7033 19.2275 53.7033 19.4425C53.7033 19.6725 53.7658 19.855 53.8908 19.99C54.0158 20.125 54.1908 20.2225 54.4158 20.2825C54.6408 20.3375 54.9058 20.365 55.2108 20.365ZM66.4248 21.0175C66.3298 21.2025 66.1798 21.4 65.9748 21.61C65.7748 21.815 65.5123 21.99 65.1873 22.135C64.8673 22.285 64.4773 22.36 64.0173 22.36C63.4123 22.36 62.9173 22.2325 62.5323 21.9775C62.1523 21.7225 61.8698 21.3825 61.6848 20.9575C61.5048 20.5325 61.4148 20.0675 61.4148 19.5625C61.4148 19.2875 61.4173 18.995 61.4223 18.685C61.4323 18.37 61.4423 18.06 61.4523 17.755C61.4623 17.445 61.4723 17.1525 61.4823 16.8775C61.4973 16.5975 61.5098 16.3525 61.5198 16.1425C61.5348 15.9325 61.5448 15.77 61.5498 15.655C61.1548 15.695 60.7898 15.74 60.4548 15.79C60.1198 15.835 59.8873 15.8725 59.7573 15.9025C59.7073 15.6225 59.6698 15.3375 59.6448 15.0475C59.6198 14.7575 59.5998 14.505 59.5848 14.29C59.5748 14.075 59.5698 13.9425 59.5698 13.8925C59.8598 13.8525 60.1698 13.8175 60.4998 13.7875C60.8298 13.7525 61.1773 13.7275 61.5423 13.7125C61.5373 13.5925 61.5323 13.405 61.5273 13.15C61.5223 12.895 61.5148 12.665 61.5048 12.46C61.4998 12.275 61.4898 12.09 61.4748 11.905C61.4598 11.715 61.4473 11.5625 61.4373 11.4475L63.6573 11.2525C63.6573 11.3125 63.6573 11.4525 63.6573 11.6725C63.6623 11.8925 63.6648 12.1575 63.6648 12.4675C63.6648 12.6225 63.6673 12.8025 63.6723 13.0075C63.6773 13.2075 63.6823 13.405 63.6873 13.6C63.8523 13.59 64.0448 13.58 64.2648 13.57C64.4848 13.56 64.6598 13.5525 64.7898 13.5475C64.9998 13.5375 65.1898 13.5325 65.3598 13.5325C65.5298 13.5275 65.6698 13.525 65.7798 13.525C65.8948 13.525 65.9723 13.5275 66.0123 13.5325C66.0423 13.7675 66.0623 14.0675 66.0723 14.4325C66.0823 14.7925 66.0873 15.1125 66.0873 15.3925C66.0373 15.3875 65.8748 15.39 65.5998 15.4C65.3248 15.405 65.0548 15.415 64.7898 15.43C64.6048 15.435 64.3998 15.445 64.1748 15.46C63.9498 15.475 63.7723 15.49 63.6423 15.505C63.6373 15.61 63.6298 15.755 63.6198 15.94C63.6148 16.12 63.6073 16.325 63.5973 16.555C63.5923 16.78 63.5848 17.015 63.5748 17.26C63.5698 17.5 63.5648 17.7325 63.5598 17.9575C63.5548 18.1825 63.5523 18.3825 63.5523 18.5575C63.5523 18.8875 63.5673 19.185 63.5973 19.45C63.6323 19.71 63.7048 19.9175 63.8148 20.0725C63.9298 20.2225 64.1048 20.2975 64.3398 20.2975C64.4948 20.2975 64.6273 20.2525 64.7373 20.1625C64.8473 20.0725 64.9373 19.9675 65.0073 19.8475C65.0823 19.7225 65.1473 19.6125 65.2023 19.5175C65.2673 19.6075 65.3573 19.7275 65.4723 19.8775C65.5923 20.0225 65.7173 20.175 65.8473 20.335C65.9823 20.495 66.1023 20.6375 66.2073 20.7625C66.3173 20.8875 66.3898 20.9725 66.4248 21.0175ZM70.3382 22.1275C69.7232 22.1275 69.1607 22.045 68.6507 21.88C68.1407 21.71 67.7332 21.4375 67.4282 21.0625C67.1282 20.6825 66.9782 20.18 66.9782 19.555C66.9782 18.93 67.1532 18.4275 67.5032 18.0475C67.8582 17.6625 68.3232 17.385 68.8982 17.215C69.4782 17.04 70.1007 16.9525 70.7657 16.9525C71.0257 16.9525 71.2757 16.9725 71.5157 17.0125C71.7557 17.0525 71.9657 17.1 72.1457 17.155C72.3307 17.21 72.4632 17.2625 72.5432 17.3125C72.5382 17.1825 72.5107 17.045 72.4607 16.9C72.4157 16.755 72.3507 16.6325 72.2657 16.5325C72.1157 16.3275 71.9107 16.1575 71.6507 16.0225C71.3957 15.8825 71.0582 15.8125 70.6382 15.8125C70.2132 15.8125 69.8382 15.91 69.5132 16.105C69.1882 16.295 68.9407 16.51 68.7707 16.75L66.9407 15.5725C67.1657 15.2525 67.4682 14.9725 67.8482 14.7325C68.2332 14.4925 68.6682 14.305 69.1532 14.17C69.6432 14.035 70.1557 13.9675 70.6907 13.9675C71.5757 13.9675 72.2932 14.1125 72.8432 14.4025C73.3932 14.6925 73.8007 15.0975 74.0657 15.6175C74.1907 15.8675 74.2932 16.1425 74.3732 16.4425C74.4532 16.7425 74.5082 17.0875 74.5382 17.4775C74.5582 17.8125 74.5732 18.125 74.5832 18.415C74.5932 18.705 74.6032 18.98 74.6132 19.24C74.6232 19.62 74.6657 19.8675 74.7407 19.9825C74.8157 20.0975 74.9232 20.155 75.0632 20.155C75.1932 20.155 75.3082 20.12 75.4082 20.05C75.5132 19.975 75.5807 19.8775 75.6107 19.7575L76.3907 21.25C76.3357 21.48 76.1807 21.6725 75.9257 21.8275C75.6707 21.9825 75.3482 22.06 74.9582 22.06C74.6732 22.06 74.4032 22.0125 74.1482 21.9175C73.8932 21.8175 73.6832 21.685 73.5182 21.52C73.3532 21.35 73.2557 21.1575 73.2257 20.9425C73.1457 21.1325 72.9782 21.32 72.7232 21.505C72.4682 21.685 72.1407 21.835 71.7407 21.955C71.3407 22.07 70.8732 22.1275 70.3382 22.1275ZM70.8407 20.365C71.0757 20.365 71.3157 20.33 71.5607 20.26C71.8107 20.185 72.0357 20.0925 72.2357 19.9825C72.4407 19.8725 72.5982 19.76 72.7082 19.645C72.6982 19.49 72.6882 19.33 72.6782 19.165C72.6732 19 72.6732 18.86 72.6782 18.745C72.5682 18.7 72.3582 18.6525 72.0482 18.6025C71.7432 18.5475 71.4232 18.52 71.0882 18.52C70.7832 18.52 70.4982 18.5525 70.2332 18.6175C69.9682 18.6825 69.7507 18.7825 69.5807 18.9175C69.4157 19.0525 69.3332 19.2275 69.3332 19.4425C69.3332 19.6725 69.3957 19.855 69.5207 19.99C69.6457 20.125 69.8207 20.2225 70.0457 20.2825C70.2707 20.3375 70.5357 20.365 70.8407 20.365ZM81.0776 21.6475C80.9376 21.7975 80.6751 21.9425 80.2901 22.0825C79.9101 22.2275 79.4851 22.3 79.0151 22.3C78.4051 22.3 77.9401 22.1575 77.6201 21.8725C77.3051 21.5875 77.0926 21.185 76.9826 20.665C76.8726 20.14 76.8176 19.53 76.8176 18.835C76.8176 18.29 76.8226 17.7425 76.8326 17.1925C76.8426 16.6425 76.8551 16.0975 76.8701 15.5575C76.8901 15.0175 76.9101 14.495 76.9301 13.99C76.9551 13.48 76.9776 12.9975 76.9976 12.5425C77.0226 12.0825 77.0476 11.6625 77.0726 11.2825C77.4276 11.2575 77.7551 11.245 78.0551 11.245C78.2501 11.245 78.4426 11.25 78.6326 11.26C78.8226 11.27 79.0326 11.285 79.2626 11.305C79.2376 11.74 79.2076 12.2225 79.1726 12.7525C79.1426 13.2775 79.1126 13.815 79.0826 14.365C79.0576 14.915 79.0326 15.4475 79.0076 15.9625C78.9826 16.4775 78.9626 16.945 78.9476 17.365C78.9376 17.78 78.9326 18.1125 78.9326 18.3625C78.9326 18.6875 78.9451 18.99 78.9701 19.27C79.0001 19.545 79.0651 19.77 79.1651 19.945C79.2651 20.115 79.4151 20.2 79.6151 20.2C79.7851 20.2 79.9226 20.1625 80.0276 20.0875C80.1376 20.0075 80.2276 19.9075 80.2976 19.7875C80.3326 19.8475 80.3876 19.9675 80.4626 20.1475C80.5376 20.3225 80.6201 20.5175 80.7101 20.7325C80.8001 20.9475 80.8801 21.1425 80.9501 21.3175C81.0201 21.4875 81.0626 21.5975 81.0776 21.6475ZM87.3141 22.39C87.2441 22.24 87.1341 22.0475 86.9841 21.8125C86.8391 21.5725 86.6716 21.32 86.4816 21.055C86.2966 20.785 86.1016 20.5225 85.8966 20.2675C85.6966 20.0125 85.5041 19.79 85.3191 19.6C85.1341 19.405 84.9741 19.2675 84.8391 19.1875C84.7691 19.2325 84.6816 19.2975 84.5766 19.3825C84.4716 19.4625 84.3741 19.54 84.2841 19.615C84.1941 19.69 84.1316 19.745 84.0966 19.78C84.0916 19.995 84.0841 20.22 84.0741 20.455C84.0641 20.69 84.0541 20.92 84.0441 21.145C84.0341 21.365 84.0216 21.5675 84.0066 21.7525C83.9966 21.9325 83.9866 22.075 83.9766 22.18C83.7916 22.2 83.6066 22.215 83.4216 22.225C83.2366 22.235 83.0516 22.24 82.8666 22.24C82.6266 22.24 82.3991 22.23 82.1841 22.21C81.9691 22.195 81.7816 22.18 81.6216 22.165C81.6266 22.045 81.6391 21.7825 81.6591 21.3775C81.6841 20.9675 81.7091 20.465 81.7341 19.87C81.7641 19.27 81.7941 18.62 81.8241 17.92C81.8591 17.215 81.8916 16.5075 81.9216 15.7975C81.9566 15.0825 81.9866 14.41 82.0116 13.78C82.0416 13.145 82.0641 12.5975 82.0791 12.1375C82.0941 11.6725 82.1016 11.3425 82.1016 11.1475C82.2616 11.1325 82.4266 11.12 82.5966 11.11C82.7666 11.1 82.9341 11.095 83.0991 11.095C83.3341 11.095 83.5616 11.1075 83.7816 11.1325C84.0066 11.1575 84.2141 11.1975 84.4041 11.2525C84.4041 11.6425 84.3991 12.07 84.3891 12.535C84.3841 13 84.3716 13.4725 84.3516 13.9525C84.3366 14.4325 84.3191 14.89 84.2991 15.325C84.2791 15.76 84.2591 16.1475 84.2391 16.4875C84.2241 16.8225 84.2091 17.0775 84.1941 17.2525C84.4491 16.9875 84.7466 16.7175 85.0866 16.4425C85.4266 16.1675 85.7791 15.9025 86.1441 15.6475C86.5091 15.3875 86.8616 15.145 87.2016 14.92C87.5466 14.69 87.8466 14.49 88.1016 14.32C88.1816 14.395 88.2816 14.5075 88.4016 14.6575C88.5216 14.8025 88.6441 14.965 88.7691 15.145C88.8991 15.32 89.0191 15.49 89.1291 15.655C89.2391 15.82 89.3266 15.9575 89.3916 16.0675C89.1916 16.1925 88.9566 16.3425 88.6866 16.5175C88.4166 16.6875 88.1391 16.865 87.8541 17.05C87.5741 17.235 87.3141 17.41 87.0741 17.575C86.8341 17.74 86.6466 17.8725 86.5116 17.9725C86.6416 18.0575 86.7991 18.1875 86.9841 18.3625C87.1691 18.5375 87.3691 18.7425 87.5841 18.9775C87.8041 19.2125 88.0266 19.47 88.2516 19.75C88.4766 20.025 88.6991 20.315 88.9191 20.62C89.1391 20.92 89.3391 21.2225 89.5191 21.5275C89.4441 21.5725 89.3091 21.6375 89.1141 21.7225C88.9191 21.8025 88.7016 21.89 88.4616 21.985C88.2216 22.08 87.9966 22.165 87.7866 22.24C87.5766 22.315 87.4191 22.365 87.3141 22.39ZM93.0579 22.1275C92.4429 22.1275 91.8804 22.045 91.3704 21.88C90.8604 21.71 90.4529 21.4375 90.1479 21.0625C89.8479 20.6825 89.6979 20.18 89.6979 19.555C89.6979 18.93 89.8729 18.4275 90.2229 18.0475C90.5779 17.6625 91.0429 17.385 91.6179 17.215C92.1979 17.04 92.8204 16.9525 93.4854 16.9525C93.7454 16.9525 93.9954 16.9725 94.2354 17.0125C94.4754 17.0525 94.6854 17.1 94.8654 17.155C95.0504 17.21 95.1829 17.2625 95.2629 17.3125C95.2579 17.1825 95.2304 17.045 95.1804 16.9C95.1354 16.755 95.0704 16.6325 94.9854 16.5325C94.8354 16.3275 94.6304 16.1575 94.3704 16.0225C94.1154 15.8825 93.7779 15.8125 93.3579 15.8125C92.9329 15.8125 92.5579 15.91 92.2329 16.105C91.9079 16.295 91.6604 16.51 91.4904 16.75L89.6604 15.5725C89.8854 15.2525 90.1879 14.9725 90.5679 14.7325C90.9529 14.4925 91.3879 14.305 91.8729 14.17C92.3629 14.035 92.8754 13.9675 93.4104 13.9675C94.2954 13.9675 95.0129 14.1125 95.5629 14.4025C96.1129 14.6925 96.5204 15.0975 96.7854 15.6175C96.9104 15.8675 97.0129 16.1425 97.0929 16.4425C97.1729 16.7425 97.2279 17.0875 97.2579 17.4775C97.2779 17.8125 97.2929 18.125 97.3029 18.415C97.3129 18.705 97.3229 18.98 97.3329 19.24C97.3429 19.62 97.3854 19.8675 97.4604 19.9825C97.5354 20.0975 97.6429 20.155 97.7829 20.155C97.9129 20.155 98.0279 20.12 98.1279 20.05C98.2329 19.975 98.3004 19.8775 98.3304 19.7575L99.1104 21.25C99.0554 21.48 98.9004 21.6725 98.6454 21.8275C98.3904 21.9825 98.0679 22.06 97.6779 22.06C97.3929 22.06 97.1229 22.0125 96.8679 21.9175C96.6129 21.8175 96.4029 21.685 96.2379 21.52C96.0729 21.35 95.9754 21.1575 95.9454 20.9425C95.8654 21.1325 95.6979 21.32 95.4429 21.505C95.1879 21.685 94.8604 21.835 94.4604 21.955C94.0604 22.07 93.5929 22.1275 93.0579 22.1275ZM93.5604 20.365C93.7954 20.365 94.0354 20.33 94.2804 20.26C94.5304 20.185 94.7554 20.0925 94.9554 19.9825C95.1604 19.8725 95.3179 19.76 95.4279 19.645C95.4179 19.49 95.4079 19.33 95.3979 19.165C95.3929 19 95.3929 18.86 95.3979 18.745C95.2879 18.7 95.0779 18.6525 94.7679 18.6025C94.4629 18.5475 94.1429 18.52 93.8079 18.52C93.5029 18.52 93.2179 18.5525 92.9529 18.6175C92.6879 18.6825 92.4704 18.7825 92.3004 18.9175C92.1354 19.0525 92.0529 19.2275 92.0529 19.4425C92.0529 19.6725 92.1154 19.855 92.2404 19.99C92.3654 20.125 92.5404 20.2225 92.7654 20.2825C92.9904 20.3375 93.2554 20.365 93.5604 20.365ZM101.997 22.0975C101.847 22.1025 101.662 22.1025 101.442 22.0975C101.222 22.0975 100.997 22.095 100.767 22.09C100.582 22.085 100.37 22.0775 100.13 22.0675C99.8898 22.0575 99.7223 22.0475 99.6273 22.0375C99.6723 21.6175 99.7098 21.1425 99.7398 20.6125C99.7748 20.0825 99.8023 19.495 99.8223 18.85C99.8423 18.205 99.8573 17.5 99.8673 16.735C99.8773 15.97 99.8823 15.1425 99.8823 14.2525C100.072 14.2275 100.297 14.2075 100.557 14.1925C100.817 14.1775 101.08 14.17 101.345 14.17C101.53 14.17 101.707 14.175 101.877 14.185C102.052 14.19 102.207 14.205 102.342 14.23C102.342 14.275 102.342 14.3675 102.342 14.5075C102.347 14.6425 102.347 14.7925 102.342 14.9575C102.342 15.1175 102.34 15.2625 102.335 15.3925C102.465 15.2025 102.677 15.005 102.972 14.8C103.267 14.59 103.61 14.4125 104 14.2675C104.39 14.1225 104.792 14.05 105.207 14.05C105.972 14.05 106.557 14.205 106.962 14.515C107.367 14.82 107.645 15.28 107.795 15.895C107.945 16.505 108.02 17.27 108.02 18.19C108.02 18.51 108.01 18.885 107.99 19.315C107.975 19.74 107.95 20.1875 107.915 20.6575C107.88 21.1275 107.835 21.5825 107.78 22.0225C107.68 22.0325 107.52 22.04 107.3 22.045C107.085 22.055 106.857 22.06 106.617 22.06C106.362 22.06 106.12 22.055 105.89 22.045C105.66 22.04 105.49 22.0325 105.38 22.0225C105.435 21.7425 105.495 21.3925 105.56 20.9725C105.625 20.5525 105.68 20.105 105.725 19.63C105.77 19.15 105.792 18.6925 105.792 18.2575C105.792 17.8375 105.757 17.4725 105.687 17.1625C105.622 16.8525 105.495 16.6125 105.305 16.4425C105.12 16.2675 104.845 16.18 104.48 16.18C104.18 16.18 103.892 16.2325 103.617 16.3375C103.342 16.4425 103.092 16.5725 102.867 16.7275C102.642 16.8775 102.45 17.025 102.29 17.17C102.285 17.96 102.265 18.675 102.23 19.315C102.195 19.95 102.157 20.5025 102.117 20.9725C102.077 21.4375 102.037 21.8125 101.997 22.0975Z" fill="white"/>
</svg>
