<svg width="130" height="38" viewBox="0 0 130 38" fill="none" xmlns="http://www.w3.org/2000/svg">
<path d="M2.60826 32.7233C1.07624 29.9368 -0.0727711 6.84935 2.60826 4.36149C5.2893 1.87363 48.5688 3.36635 71.166 4.36149C93.7633 5.35663 123.638 3.8639 127.468 5.35663C131.298 6.84935 130.187 33.4199 128.042 36.2063C125.361 39.6893 77.6771 37.2014 66.3785 36.2063C55.0799 35.2111 4.52328 36.2063 2.60826 32.7233Z" fill="#214868"/>
<path d="M1.60826 29.7233C0.0762447 26.9368 -1.07277 3.84935 1.60826 1.36149C4.2893 -1.12637 47.5688 0.366353 70.166 1.36149C92.7633 2.35663 122.638 0.863904 126.468 2.35663C130.298 3.84935 129.187 30.4199 127.042 33.2063C124.361 36.6893 76.6771 34.2014 65.3785 33.2063C54.0799 32.2111 3.52328 33.2063 1.60826 29.7233Z" fill="#3387DC"/>
<path d="M18 20.9999H22.24C22.3716 21.0007 22.5021 20.9755 22.6239 20.9257C22.7457 20.8759 22.8566 20.8026 22.95 20.7099L29.87 13.7799L32.71 10.9999C32.8037 10.907 32.8781 10.7964 32.9289 10.6745C32.9797 10.5527 33.0058 10.422 33.0058 10.2899C33.0058 10.1579 32.9797 10.0272 32.9289 9.90536C32.8781 9.7835 32.8037 9.6729 32.71 9.57994L28.47 5.28994C28.377 5.19621 28.2664 5.12182 28.1446 5.07105C28.0227 5.02028 27.892 4.99414 27.76 4.99414C27.628 4.99414 27.4973 5.02028 27.3754 5.07105C27.2536 5.12182 27.143 5.19621 27.05 5.28994L24.23 8.11994L17.29 15.0499C17.1973 15.1434 17.124 15.2542 17.0742 15.376C17.0245 15.4979 16.9992 15.6283 17 15.7599V19.9999C17 20.2652 17.1054 20.5195 17.2929 20.707C17.4804 20.8946 17.7348 20.9999 18 20.9999ZM27.76 7.40994L30.59 10.2399L29.17 11.6599L26.34 8.82994L27.76 7.40994ZM19 16.1699L24.93 10.2399L27.76 13.0699L21.83 18.9999H19V16.1699ZM34 22.9999H16C15.7348 22.9999 15.4804 23.1053 15.2929 23.2928C15.1054 23.4804 15 23.7347 15 23.9999C15 24.2652 15.1054 24.5195 15.2929 24.707C15.4804 24.8946 15.7348 24.9999 16 24.9999H34C34.2652 24.9999 34.5196 24.8946 34.7071 24.707C34.8946 24.5195 35 24.2652 35 23.9999C35 23.7347 34.8946 23.4804 34.7071 23.2928C34.5196 23.1053 34.2652 22.9999 34 22.9999Z" fill="white"/>
<path d="M50.313 22.0975C49.823 22.0675 49.338 22.0375 48.858 22.0075C48.378 21.9825 47.8905 21.9625 47.3955 21.9475C46.9955 21.9275 46.588 21.9075 46.173 21.8875C45.758 21.8625 45.348 21.84 44.943 21.82C44.908 20.98 44.883 20.165 44.868 19.375C44.858 18.58 44.853 17.835 44.853 17.14C44.853 16.025 44.863 15.0775 44.883 14.2975C44.903 13.5175 44.923 12.9575 44.943 12.6175C45.888 12.4425 46.763 12.315 47.568 12.235C48.373 12.15 49.0455 12.0975 49.5855 12.0775C50.1305 12.0575 50.4705 12.0475 50.6055 12.0475C50.6055 12.3725 50.5955 12.6925 50.5755 13.0075C50.5555 13.3175 50.5305 13.645 50.5005 13.99L47.2905 14.2525C47.2855 14.3175 47.2805 14.42 47.2755 14.56C47.2705 14.695 47.2655 14.845 47.2605 15.01C47.2605 15.17 47.2605 15.32 47.2605 15.46C47.2605 15.6 47.2605 15.7025 47.2605 15.7675C47.3755 15.7675 47.523 15.7675 47.703 15.7675C47.888 15.7625 48.088 15.7575 48.303 15.7525C48.523 15.7475 48.743 15.7425 48.963 15.7375C49.183 15.7325 49.388 15.73 49.578 15.73C49.773 15.725 49.938 15.72 50.073 15.715L50.043 17.77C49.978 17.77 49.8505 17.7675 49.6605 17.7625C49.4705 17.7525 49.2505 17.7425 49.0005 17.7325C48.7555 17.7225 48.508 17.715 48.258 17.71C48.008 17.7 47.788 17.6925 47.598 17.6875C47.408 17.6825 47.278 17.6825 47.208 17.6875C47.203 17.7375 47.198 17.8225 47.193 17.9425C47.193 18.0575 47.1905 18.19 47.1855 18.34C47.1855 18.485 47.1855 18.6375 47.1855 18.7975C47.1855 18.9525 47.183 19.0975 47.178 19.2325C47.178 19.3625 47.178 19.4675 47.178 19.5475C47.243 19.5475 47.418 19.5475 47.703 19.5475C47.988 19.5425 48.2805 19.54 48.5805 19.54C48.8305 19.54 49.0805 19.545 49.3305 19.555C49.5805 19.565 49.813 19.5775 50.028 19.5925C50.243 19.6025 50.418 19.6125 50.553 19.6225C50.553 19.8225 50.543 20.0525 50.523 20.3125C50.503 20.5675 50.4805 20.82 50.4555 21.07C50.4355 21.32 50.4105 21.54 50.3805 21.73C50.3555 21.915 50.333 22.0375 50.313 22.0975ZM57.2808 21.9775C57.2708 21.9075 57.2633 21.8075 57.2583 21.6775C57.2533 21.5475 57.2483 21.415 57.2433 21.28C57.2433 21.14 57.2433 21.0275 57.2433 20.9425C57.1833 21.0275 57.0883 21.13 56.9583 21.25C56.8333 21.365 56.6708 21.48 56.4708 21.595C56.2708 21.71 56.0283 21.8075 55.7433 21.8875C55.4583 21.9625 55.1258 22 54.7458 22C54.1158 22 53.5733 21.8475 53.1183 21.5425C52.6633 21.2375 52.3133 20.8225 52.0683 20.2975C51.8233 19.7675 51.7008 19.1725 51.7008 18.5125C51.7008 17.8625 51.8233 17.2575 52.0683 16.6975C52.3183 16.1325 52.6908 15.6775 53.1858 15.3325C53.6808 14.9825 54.3033 14.8075 55.0533 14.8075C55.4283 14.8075 55.7683 14.85 56.0733 14.935C56.3833 15.02 56.6458 15.1275 56.8608 15.2575C57.0758 15.3825 57.2283 15.51 57.3183 15.64C57.3333 15.365 57.3533 15.05 57.3783 14.695C57.4033 14.335 57.4308 13.9675 57.4608 13.5925C57.4958 13.2125 57.5283 12.8525 57.5583 12.5125C57.5883 12.1725 57.6133 11.8825 57.6333 11.6425C57.6583 11.3975 57.6758 11.235 57.6858 11.155C57.9758 11.155 58.3008 11.1725 58.6608 11.2075C59.0258 11.2375 59.3483 11.29 59.6283 11.365C59.5433 12.51 59.4758 13.655 59.4258 14.8C59.3758 15.94 59.3408 17.1075 59.3208 18.3025C59.3058 19.4925 59.2983 20.74 59.2983 22.045C59.1833 22.045 58.9933 22.0425 58.7283 22.0375C58.4683 22.0325 58.2008 22.025 57.9258 22.015C57.6508 22.005 57.4358 21.9925 57.2808 21.9775ZM55.3683 19.8175C55.5883 19.8175 55.7908 19.7925 55.9758 19.7425C56.1608 19.6925 56.3308 19.625 56.4858 19.54C56.6408 19.45 56.7758 19.355 56.8908 19.255C57.0108 19.15 57.1108 19.045 57.1908 18.94C57.1908 18.84 57.1908 18.7175 57.1908 18.5725C57.1908 18.4225 57.1908 18.2725 57.1908 18.1225C57.1958 17.9725 57.1983 17.83 57.1983 17.695C57.2033 17.56 57.2083 17.455 57.2133 17.38C57.1033 17.275 56.9508 17.1725 56.7558 17.0725C56.5608 16.9725 56.3458 16.8925 56.1108 16.8325C55.8808 16.7675 55.6458 16.735 55.4058 16.735C54.9158 16.735 54.5333 16.8825 54.2583 17.1775C53.9883 17.4675 53.8533 17.845 53.8533 18.31C53.8533 18.8 53.9833 19.175 54.2433 19.435C54.5083 19.69 54.8833 19.8175 55.3683 19.8175ZM63.5456 21.985C63.4606 21.99 63.2981 22 63.0581 22.015C62.8231 22.035 62.5731 22.045 62.3081 22.045C62.1131 22.045 61.9156 22.0375 61.7156 22.0225C61.5206 22.0125 61.3281 21.9975 61.1381 21.9775C61.1631 21.8475 61.1906 21.5825 61.2206 21.1825C61.2556 20.7775 61.2881 20.3025 61.3181 19.7575C61.3531 19.2125 61.3856 18.65 61.4156 18.07C61.4506 17.485 61.4756 16.9375 61.4906 16.4275C61.5106 15.9175 61.5206 15.5075 61.5206 15.1975C61.6206 15.1925 61.7681 15.185 61.9631 15.175C62.1581 15.165 62.3681 15.1575 62.5931 15.1525C62.8181 15.1425 63.0331 15.135 63.2381 15.13C63.4431 15.12 63.6056 15.115 63.7256 15.115C63.7506 15.27 63.7706 15.52 63.7856 15.865C63.8006 16.21 63.8081 16.595 63.8081 17.02C63.8081 17.475 63.8006 17.9575 63.7856 18.4675C63.7756 18.9775 63.7581 19.4725 63.7331 19.9525C63.7131 20.4275 63.6856 20.8475 63.6506 21.2125C63.6156 21.5725 63.5806 21.83 63.5456 21.985ZM62.7056 14.1475C62.2556 14.1475 61.8781 14.0175 61.5731 13.7575C61.2681 13.4925 61.1156 13.145 61.1156 12.715C61.1156 12.42 61.1881 12.1675 61.3331 11.9575C61.4781 11.7475 61.6656 11.5875 61.8956 11.4775C62.1306 11.3625 62.3781 11.305 62.6381 11.305C63.0531 11.305 63.3956 11.44 63.6656 11.71C63.9406 11.98 64.0781 12.3275 64.0781 12.7525C64.0781 13.1475 63.9481 13.48 63.6881 13.75C63.4281 14.015 63.1006 14.1475 62.7056 14.1475ZM71.3579 21.0175C71.2629 21.2025 71.1129 21.4 70.9079 21.61C70.7079 21.815 70.4454 21.99 70.1204 22.135C69.8004 22.285 69.4104 22.36 68.9504 22.36C68.3454 22.36 67.8504 22.2325 67.4654 21.9775C67.0854 21.7225 66.8029 21.3825 66.6179 20.9575C66.4379 20.5325 66.3479 20.0675 66.3479 19.5625C66.3479 19.2875 66.3504 18.995 66.3554 18.685C66.3654 18.37 66.3754 18.06 66.3854 17.755C66.3954 17.445 66.4054 17.1525 66.4154 16.8775C66.4304 16.5975 66.4429 16.3525 66.4529 16.1425C66.4679 15.9325 66.4779 15.77 66.4829 15.655C66.0879 15.695 65.7229 15.74 65.3879 15.79C65.0529 15.835 64.8204 15.8725 64.6904 15.9025C64.6404 15.6225 64.6029 15.3375 64.5779 15.0475C64.5529 14.7575 64.5329 14.505 64.5179 14.29C64.5079 14.075 64.5029 13.9425 64.5029 13.8925C64.7929 13.8525 65.1029 13.8175 65.4329 13.7875C65.7629 13.7525 66.1104 13.7275 66.4754 13.7125C66.4704 13.5925 66.4654 13.405 66.4604 13.15C66.4554 12.895 66.4479 12.665 66.4379 12.46C66.4329 12.275 66.4229 12.09 66.4079 11.905C66.3929 11.715 66.3804 11.5625 66.3704 11.4475L68.5904 11.2525C68.5904 11.3125 68.5904 11.4525 68.5904 11.6725C68.5954 11.8925 68.5979 12.1575 68.5979 12.4675C68.5979 12.6225 68.6004 12.8025 68.6054 13.0075C68.6104 13.2075 68.6154 13.405 68.6204 13.6C68.7854 13.59 68.9779 13.58 69.1979 13.57C69.4179 13.56 69.5929 13.5525 69.7229 13.5475C69.9329 13.5375 70.1229 13.5325 70.2929 13.5325C70.4629 13.5275 70.6029 13.525 70.7129 13.525C70.8279 13.525 70.9054 13.5275 70.9454 13.5325C70.9754 13.7675 70.9954 14.0675 71.0054 14.4325C71.0154 14.7925 71.0204 15.1125 71.0204 15.3925C70.9704 15.3875 70.8079 15.39 70.5329 15.4C70.2579 15.405 69.9879 15.415 69.7229 15.43C69.5379 15.435 69.3329 15.445 69.1079 15.46C68.8829 15.475 68.7054 15.49 68.5754 15.505C68.5704 15.61 68.5629 15.755 68.5529 15.94C68.5479 16.12 68.5404 16.325 68.5304 16.555C68.5254 16.78 68.5179 17.015 68.5079 17.26C68.5029 17.5 68.4979 17.7325 68.4929 17.9575C68.4879 18.1825 68.4854 18.3825 68.4854 18.5575C68.4854 18.8875 68.5004 19.185 68.5304 19.45C68.5654 19.71 68.6379 19.9175 68.7479 20.0725C68.8629 20.2225 69.0379 20.2975 69.2729 20.2975C69.4279 20.2975 69.5604 20.2525 69.6704 20.1625C69.7804 20.0725 69.8704 19.9675 69.9404 19.8475C70.0154 19.7225 70.0804 19.6125 70.1354 19.5175C70.2004 19.6075 70.2904 19.7275 70.4054 19.8775C70.5254 20.0225 70.6504 20.175 70.7804 20.335C70.9154 20.495 71.0354 20.6375 71.1404 20.7625C71.2504 20.8875 71.3229 20.9725 71.3579 21.0175ZM76.886 22.0675C76.886 21.9425 76.8885 21.705 76.8935 21.355C76.8985 21.005 76.906 20.58 76.916 20.08C76.926 19.58 76.9385 19.04 76.9535 18.46C76.9735 17.88 76.991 17.2925 77.006 16.6975C77.026 16.1025 77.046 15.535 77.066 14.995C77.086 14.45 77.1085 13.97 77.1335 13.555C77.1585 13.135 77.181 12.815 77.201 12.595C77.651 12.505 78.121 12.4375 78.611 12.3925C79.106 12.3475 79.6235 12.325 80.1635 12.325C80.8235 12.325 81.401 12.4175 81.896 12.6025C82.396 12.7875 82.7835 13.0775 83.0585 13.4725C83.3385 13.8675 83.4785 14.3775 83.4785 15.0025C83.4785 15.6375 83.3635 16.1875 83.1335 16.6525C82.9085 17.1175 82.5635 17.475 82.0985 17.725C81.6385 17.975 81.0585 18.1 80.3585 18.1C80.2185 18.1 80.051 18.09 79.856 18.07C79.666 18.045 79.5185 18.0175 79.4135 17.9875C79.4085 18.1225 79.401 18.3625 79.391 18.7075C79.386 19.0525 79.376 19.4375 79.361 19.8625C79.351 20.2875 79.341 20.705 79.331 21.115C79.321 21.525 79.316 21.8625 79.316 22.1275C79.196 22.1275 79.0285 22.1275 78.8135 22.1275C78.5985 22.1275 78.366 22.1225 78.116 22.1125C77.871 22.1075 77.6385 22.1 77.4185 22.09C77.1985 22.085 77.021 22.0775 76.886 22.0675ZM79.3685 16.0375C79.4735 16.0575 79.5935 16.075 79.7285 16.09C79.8685 16.1 80.0035 16.105 80.1335 16.105C80.3735 16.105 80.596 16.0675 80.801 15.9925C81.006 15.9125 81.171 15.7925 81.296 15.6325C81.421 15.4675 81.4835 15.2575 81.4835 15.0025C81.4835 14.6325 81.376 14.3825 81.161 14.2525C80.946 14.1175 80.6585 14.05 80.2985 14.05C80.1585 14.05 80.011 14.0575 79.856 14.0725C79.701 14.0825 79.5385 14.0975 79.3685 14.1175C79.3685 14.1475 79.3685 14.2225 79.3685 14.3425C79.3685 14.4625 79.3685 14.6075 79.3685 14.7775C79.3685 14.9425 79.3685 15.11 79.3685 15.28C79.3685 15.45 79.3685 15.605 79.3685 15.745C79.3685 15.885 79.3685 15.9825 79.3685 16.0375ZM86.6193 15.28C86.7343 15.055 86.9093 14.84 87.1443 14.635C87.3843 14.43 87.6668 14.2625 87.9918 14.1325C88.3218 14.0025 88.6718 13.9375 89.0418 13.9375C89.2668 13.9375 89.4943 13.96 89.7243 14.005C89.9543 14.05 90.1218 14.11 90.2268 14.185L89.7618 16.57C89.6518 16.525 89.5093 16.475 89.3343 16.42C89.1593 16.365 88.9593 16.3375 88.7343 16.3375C88.5043 16.3375 88.2793 16.3775 88.0593 16.4575C87.8443 16.5325 87.6443 16.64 87.4593 16.78C87.2743 16.92 87.1118 17.0875 86.9718 17.2825C87.0218 17.5725 87.0768 17.9425 87.1368 18.3925C87.2018 18.8425 87.2618 19.305 87.3168 19.78C87.3718 20.255 87.4168 20.6875 87.4518 21.0775C87.4868 21.4675 87.5043 21.7525 87.5043 21.9325C87.1543 21.9775 86.7493 22.0075 86.2893 22.0225C85.8293 22.0375 85.3868 22.0425 84.9618 22.0375C84.9618 21.6175 84.9493 21.14 84.9243 20.605C84.9043 20.07 84.8743 19.5125 84.8343 18.9325C84.7943 18.3475 84.7443 17.7725 84.6843 17.2075C84.6293 16.6375 84.5643 16.11 84.4893 15.625C84.4193 15.14 84.3443 14.7275 84.2643 14.3875C84.5043 14.3175 84.7693 14.2525 85.0593 14.1925C85.3493 14.1325 85.6118 14.085 85.8468 14.05C86.0818 14.01 86.2318 13.9875 86.2968 13.9825C86.3568 14.1225 86.4243 14.33 86.4993 14.605C86.5743 14.875 86.6143 15.1 86.6193 15.28ZM94.7402 22.165C93.4152 22.165 92.4177 21.815 91.7477 21.115C91.0777 20.41 90.7427 19.3875 90.7427 18.0475C90.7427 17.1525 90.9152 16.41 91.2602 15.82C91.6052 15.225 92.0827 14.7775 92.6927 14.4775C93.3077 14.1775 94.0177 14.0275 94.8227 14.0275C95.6427 14.0275 96.3227 14.215 96.8627 14.59C97.4077 14.965 97.8152 15.4825 98.0852 16.1425C98.3552 16.8025 98.4902 17.565 98.4902 18.43C98.4902 19.185 98.3452 19.8425 98.0552 20.4025C97.7652 20.9625 97.3402 21.3975 96.7802 21.7075C96.2252 22.0125 95.5452 22.165 94.7402 22.165ZM94.6577 20.0125C94.9327 20.0125 95.1752 19.965 95.3852 19.87C95.6002 19.775 95.7802 19.64 95.9252 19.465C96.0752 19.285 96.1877 19.075 96.2627 18.835C96.3377 18.595 96.3752 18.3325 96.3752 18.0475C96.3752 17.6025 96.3102 17.21 96.1802 16.87C96.0552 16.525 95.8677 16.2575 95.6177 16.0675C95.3727 15.8725 95.0677 15.775 94.7027 15.775C94.3077 15.775 93.9852 15.875 93.7352 16.075C93.4852 16.275 93.3002 16.5375 93.1802 16.8625C93.0652 17.1825 93.0077 17.525 93.0077 17.89C93.0077 18.505 93.1477 19.0125 93.4277 19.4125C93.7127 19.8125 94.1227 20.0125 94.6577 20.0125ZM99.4418 18.655C99.4268 18.59 99.4068 18.4775 99.3818 18.3175C99.3568 18.1575 99.3293 17.98 99.2993 17.785C99.2693 17.585 99.2418 17.39 99.2168 17.2C99.1918 17.01 99.1743 16.855 99.1643 16.735C99.6143 16.62 100.117 16.5125 100.672 16.4125C101.227 16.3075 101.802 16.2225 102.397 16.1575C102.992 16.0875 103.572 16.0525 104.137 16.0525C104.867 16.0525 105.522 16.065 106.102 16.09C106.682 16.11 107.277 16.145 107.887 16.195C107.887 16.25 107.869 16.3775 107.834 16.5775C107.799 16.7775 107.757 17.005 107.707 17.26C107.657 17.51 107.609 17.74 107.564 17.95C107.519 18.155 107.487 18.29 107.467 18.355C107.192 18.3 106.904 18.25 106.604 18.205C106.309 18.155 105.992 18.115 105.652 18.085C105.317 18.055 104.954 18.03 104.564 18.01C104.174 17.99 103.749 17.98 103.289 17.98C102.944 17.98 102.577 18.005 102.187 18.055C101.797 18.105 101.417 18.1675 101.047 18.2425C100.682 18.3125 100.357 18.385 100.072 18.46C99.7868 18.535 99.5768 18.6 99.4418 18.655ZM107.572 22.1125C107.492 22.1125 107.359 22.105 107.174 22.09C106.989 22.075 106.789 22.0575 106.574 22.0375C106.364 22.0175 106.172 21.9975 105.997 21.9775C105.827 21.9575 105.709 21.945 105.644 21.94C105.659 21.81 105.674 21.58 105.689 21.25C105.709 20.92 105.729 20.5375 105.749 20.1025C105.769 19.6625 105.787 19.205 105.802 18.73C105.817 18.255 105.829 17.8 105.839 17.365C105.854 16.93 105.862 16.555 105.862 16.24C105.962 16.235 106.102 16.2325 106.282 16.2325C106.462 16.2275 106.654 16.2225 106.859 16.2175C107.069 16.2125 107.267 16.2075 107.452 16.2025C107.637 16.1975 107.782 16.195 107.887 16.195C107.887 16.48 107.882 16.8575 107.872 17.3275C107.862 17.7975 107.839 18.31 107.804 18.865C107.779 19.31 107.754 19.75 107.729 20.185C107.704 20.62 107.679 21.0075 107.654 21.3475C107.629 21.6875 107.602 21.9425 107.572 22.1125ZM107.062 15.2875C106.707 15.2875 106.412 15.1575 106.177 14.8975C105.942 14.6325 105.824 14.3175 105.824 13.9525C105.824 13.5775 105.949 13.265 106.199 13.015C106.449 12.76 106.744 12.6325 107.084 12.6325C107.454 12.6325 107.754 12.7575 107.984 13.0075C108.219 13.2525 108.337 13.605 108.337 14.065C108.337 14.485 108.204 14.795 107.939 14.995C107.679 15.19 107.387 15.2875 107.062 15.2875ZM101.317 21.9925C101.272 21.7675 101.209 21.43 101.129 20.98C101.054 20.53 100.972 20.025 100.882 19.465C100.792 18.905 100.707 18.3425 100.627 17.7775C100.547 17.2075 100.479 16.6875 100.424 16.2175C100.374 15.7425 100.349 15.375 100.349 15.115C100.349 14.425 100.454 13.805 100.664 13.255C100.874 12.7 101.194 12.26 101.624 11.935C102.059 11.61 102.607 11.4475 103.267 11.4475C103.637 11.4475 103.957 11.49 104.227 11.575C104.497 11.66 104.722 11.765 104.902 11.89C105.087 12.01 105.227 12.125 105.322 12.235C105.422 12.34 105.484 12.4175 105.509 12.4675C105.474 12.5325 105.417 12.655 105.337 12.835C105.262 13.015 105.179 13.2125 105.089 13.4275C104.999 13.6375 104.917 13.83 104.842 14.005C104.767 14.18 104.717 14.29 104.692 14.335C104.672 14.305 104.632 14.2525 104.572 14.1775C104.512 14.1025 104.429 14.0225 104.324 13.9375C104.219 13.8475 104.094 13.7725 103.949 13.7125C103.804 13.6475 103.642 13.615 103.462 13.615C103.257 13.615 103.094 13.6775 102.974 13.8025C102.859 13.9275 102.777 14.09 102.727 14.29C102.677 14.49 102.652 14.7075 102.652 14.9425C102.652 15.2325 102.677 15.6275 102.727 16.1275C102.777 16.6225 102.839 17.1625 102.914 17.7475C102.989 18.3325 103.067 18.905 103.147 19.465C103.232 20.025 103.309 20.5175 103.379 20.9425C103.449 21.3625 103.499 21.655 103.529 21.82C103.429 21.83 103.274 21.845 103.064 21.865C102.854 21.885 102.629 21.905 102.389 21.925C102.149 21.94 101.929 21.955 101.729 21.97C101.534 21.985 101.397 21.9925 101.317 21.9925ZM114.019 21.6475C113.879 21.7975 113.616 21.9425 113.231 22.0825C112.851 22.2275 112.426 22.3 111.956 22.3C111.346 22.3 110.881 22.1575 110.561 21.8725C110.246 21.5875 110.034 21.185 109.924 20.665C109.814 20.14 109.759 19.53 109.759 18.835C109.759 18.29 109.764 17.7425 109.774 17.1925C109.784 16.6425 109.796 16.0975 109.811 15.5575C109.831 15.0175 109.851 14.495 109.871 13.99C109.896 13.48 109.919 12.9975 109.939 12.5425C109.964 12.0825 109.989 11.6625 110.014 11.2825C110.369 11.2575 110.696 11.245 110.996 11.245C111.191 11.245 111.384 11.25 111.574 11.26C111.764 11.27 111.974 11.285 112.204 11.305C112.179 11.74 112.149 12.2225 112.114 12.7525C112.084 13.2775 112.054 13.815 112.024 14.365C111.999 14.915 111.974 15.4475 111.949 15.9625C111.924 16.4775 111.904 16.945 111.889 17.365C111.879 17.78 111.874 18.1125 111.874 18.3625C111.874 18.6875 111.886 18.99 111.911 19.27C111.941 19.545 112.006 19.77 112.106 19.945C112.206 20.115 112.356 20.2 112.556 20.2C112.726 20.2 112.864 20.1625 112.969 20.0875C113.079 20.0075 113.169 19.9075 113.239 19.7875C113.274 19.8475 113.329 19.9675 113.404 20.1475C113.479 20.3225 113.561 20.5175 113.651 20.7325C113.741 20.9475 113.821 21.1425 113.891 21.3175C113.961 21.4875 114.004 21.5975 114.019 21.6475Z" fill="white"/>
</svg>
