<svg width="151" height="38" viewBox="0 0 151 38" fill="none" xmlns="http://www.w3.org/2000/svg">
<path d="M2.87007 32.7233C1.08866 29.9368 -0.247408 6.84935 2.87007 4.36149C5.98755 1.87363 56.3125 3.36635 82.5884 4.36149C108.864 5.35663 143.602 3.8639 148.055 5.35663C152.509 6.84935 151.217 33.4199 148.724 36.2063C145.606 39.6893 90.1594 37.2014 77.0215 36.2063C63.8836 35.2111 5.09684 36.2063 2.87007 32.7233Z" fill="#214868"/>
<path d="M1.87007 29.7233C0.0886566 26.9368 -1.24741 3.84935 1.87007 1.36149C4.98755 -1.12637 55.3125 0.366353 81.5884 1.36149C107.864 2.35663 142.602 0.863904 147.055 2.35663C151.509 3.84935 150.217 30.4199 147.724 33.2063C144.606 36.6893 89.1594 34.2014 76.0215 33.2063C62.8836 32.2111 4.09684 33.2063 1.87007 29.7233Z" fill="#3387DC"/>
<path d="M54.1976 21.9775C54.1726 21.7575 54.1451 21.43 54.1151 20.995C54.0851 20.555 54.0576 20.0475 54.0326 19.4725C54.0076 18.8925 53.9826 18.285 53.9576 17.65C53.9376 17.01 53.9201 16.38 53.9051 15.76C53.8951 15.14 53.8901 14.5675 53.8901 14.0425C53.8901 13.6925 53.8926 13.3775 53.8976 13.0975C53.9076 12.8125 53.9201 12.575 53.9351 12.385C53.9851 12.38 54.1051 12.3725 54.2951 12.3625C54.4901 12.3475 54.7151 12.335 54.9701 12.325C55.2251 12.315 55.4726 12.3075 55.7126 12.3025C55.9576 12.2925 56.1551 12.2875 56.3051 12.2875C56.2951 12.5525 56.2901 12.8525 56.2901 13.1875C56.2901 13.5225 56.2901 13.84 56.2901 14.14C56.2901 14.515 56.2951 14.9025 56.3051 15.3025C56.3151 15.6975 56.3251 15.9775 56.3351 16.1425C56.4451 16.1325 56.5676 16.1225 56.7026 16.1125C56.8426 16.0975 56.9876 16.0875 57.1376 16.0825C57.2876 16.0725 57.4351 16.065 57.5801 16.06C57.7251 16.055 57.8601 16.05 57.9851 16.045C58.1151 16.04 58.2251 16.0375 58.3151 16.0375C58.3201 15.8775 58.3276 15.6425 58.3376 15.3325C58.3476 15.0175 58.3576 14.67 58.3676 14.29C58.3776 13.905 58.3876 13.53 58.3976 13.165C58.4076 12.795 58.4201 12.48 58.4351 12.22C58.5501 12.21 58.6901 12.205 58.8551 12.205C59.0201 12.2 59.1801 12.1975 59.3351 12.1975C59.6501 12.1975 59.9476 12.2025 60.2276 12.2125C60.5126 12.2225 60.7276 12.2375 60.8726 12.2575C60.8526 12.3975 60.8301 12.61 60.8051 12.895C60.7851 13.18 60.7626 13.515 60.7376 13.9C60.7176 14.285 60.6976 14.705 60.6776 15.16C60.6576 15.61 60.6376 16.075 60.6176 16.555C60.6026 17.03 60.5876 17.5 60.5726 17.965C60.5526 18.5 60.5351 19.025 60.5201 19.54C60.5101 20.05 60.5001 20.5125 60.4901 20.9275C60.4851 21.3425 60.4801 21.675 60.4751 21.925C60.3651 21.935 60.1901 21.945 59.9501 21.955C59.7151 21.965 59.4526 21.975 59.1626 21.985C58.8726 21.99 58.5876 21.9925 58.3076 21.9925C58.3076 21.6475 58.3051 21.305 58.3001 20.965C58.3001 20.625 58.3001 20.2925 58.3001 19.9675C58.3001 19.6375 58.3001 19.32 58.3001 19.015C58.3001 18.705 58.3001 18.41 58.3001 18.13C58.2001 18.135 58.0851 18.14 57.9551 18.145C57.8251 18.145 57.6901 18.1475 57.5501 18.1525C57.4151 18.1525 57.2776 18.155 57.1376 18.16C56.9976 18.16 56.8651 18.1625 56.7401 18.1675C56.6201 18.1675 56.5151 18.1675 56.4251 18.1675C56.4401 18.4325 56.4551 18.755 56.4701 19.135C56.4851 19.51 56.5001 19.8875 56.5151 20.2675C56.5301 20.6475 56.5426 20.985 56.5526 21.28C56.5676 21.57 56.5751 21.765 56.5751 21.865C56.4601 21.885 56.2951 21.9025 56.0801 21.9175C55.8701 21.9275 55.6426 21.9375 55.3976 21.9475C55.1576 21.9575 54.9276 21.965 54.7076 21.97C54.4926 21.975 54.3226 21.9775 54.1976 21.9775ZM65.3558 22.1275C64.7408 22.1275 64.1783 22.045 63.6683 21.88C63.1583 21.71 62.7508 21.4375 62.4458 21.0625C62.1458 20.6825 61.9958 20.18 61.9958 19.555C61.9958 18.93 62.1708 18.4275 62.5208 18.0475C62.8758 17.6625 63.3408 17.385 63.9158 17.215C64.4958 17.04 65.1183 16.9525 65.7833 16.9525C66.0433 16.9525 66.2933 16.9725 66.5333 17.0125C66.7733 17.0525 66.9833 17.1 67.1633 17.155C67.3483 17.21 67.4808 17.2625 67.5608 17.3125C67.5558 17.1825 67.5283 17.045 67.4783 16.9C67.4333 16.755 67.3683 16.6325 67.2833 16.5325C67.1333 16.3275 66.9283 16.1575 66.6683 16.0225C66.4133 15.8825 66.0758 15.8125 65.6558 15.8125C65.2308 15.8125 64.8558 15.91 64.5308 16.105C64.2058 16.295 63.9583 16.51 63.7883 16.75L61.9583 15.5725C62.1833 15.2525 62.4858 14.9725 62.8658 14.7325C63.2508 14.4925 63.6858 14.305 64.1708 14.17C64.6608 14.035 65.1733 13.9675 65.7083 13.9675C66.5933 13.9675 67.3108 14.1125 67.8608 14.4025C68.4108 14.6925 68.8183 15.0975 69.0833 15.6175C69.2083 15.8675 69.3108 16.1425 69.3908 16.4425C69.4708 16.7425 69.5258 17.0875 69.5558 17.4775C69.5758 17.8125 69.5908 18.125 69.6008 18.415C69.6108 18.705 69.6208 18.98 69.6308 19.24C69.6408 19.62 69.6833 19.8675 69.7583 19.9825C69.8333 20.0975 69.9408 20.155 70.0808 20.155C70.2108 20.155 70.3258 20.12 70.4258 20.05C70.5308 19.975 70.5983 19.8775 70.6283 19.7575L71.4083 21.25C71.3533 21.48 71.1983 21.6725 70.9433 21.8275C70.6883 21.9825 70.3658 22.06 69.9758 22.06C69.6908 22.06 69.4208 22.0125 69.1658 21.9175C68.9108 21.8175 68.7008 21.685 68.5358 21.52C68.3708 21.35 68.2733 21.1575 68.2433 20.9425C68.1633 21.1325 67.9958 21.32 67.7408 21.505C67.4858 21.685 67.1583 21.835 66.7583 21.955C66.3583 22.07 65.8908 22.1275 65.3558 22.1275ZM65.8583 20.365C66.0933 20.365 66.3333 20.33 66.5783 20.26C66.8283 20.185 67.0533 20.0925 67.2533 19.9825C67.4583 19.8725 67.6158 19.76 67.7258 19.645C67.7158 19.49 67.7058 19.33 67.6958 19.165C67.6908 19 67.6908 18.86 67.6958 18.745C67.5858 18.7 67.3758 18.6525 67.0658 18.6025C66.7608 18.5475 66.4408 18.52 66.1058 18.52C65.8008 18.52 65.5158 18.5525 65.2508 18.6175C64.9858 18.6825 64.7683 18.7825 64.5983 18.9175C64.4333 19.0525 64.3508 19.2275 64.3508 19.4425C64.3508 19.6725 64.4133 19.855 64.5383 19.99C64.6633 20.125 64.8383 20.2225 65.0633 20.2825C65.2883 20.3375 65.5533 20.365 65.8583 20.365ZM71.6477 25.36C71.7077 24.545 71.7602 23.6875 71.8052 22.7875C71.8552 21.8875 71.8952 20.995 71.9252 20.11C71.9552 19.225 71.9802 18.3925 72.0002 17.6125C72.0252 16.8325 72.0402 16.15 72.0452 15.565C72.0552 14.975 72.0602 14.53 72.0602 14.23C72.3702 14.13 72.7277 14.06 73.1327 14.02C73.5377 13.975 73.9302 13.9525 74.3102 13.9525C74.3252 14.1125 74.3377 14.3025 74.3477 14.5225C74.3577 14.7375 74.3627 14.935 74.3627 15.115C74.4577 14.99 74.6227 14.8375 74.8577 14.6575C75.0927 14.4725 75.3877 14.31 75.7427 14.17C76.0977 14.03 76.5052 13.96 76.9652 13.96C77.9802 13.96 78.7302 14.2825 79.2152 14.9275C79.7052 15.5675 79.9502 16.46 79.9502 17.605C79.9502 18.41 79.7977 19.105 79.4927 19.69C79.1877 20.275 78.7727 20.725 78.2477 21.04C77.7227 21.35 77.1227 21.505 76.4477 21.505C76.1427 21.505 75.8327 21.4675 75.5177 21.3925C75.2077 21.3125 74.9302 21.215 74.6852 21.1C74.4452 20.98 74.2802 20.865 74.1902 20.755C74.1902 20.875 74.1827 21.075 74.1677 21.355C74.1577 21.635 74.1452 21.9525 74.1302 22.3075C74.1152 22.6675 74.0952 23.0325 74.0702 23.4025C74.0502 23.7725 74.0302 24.1125 74.0102 24.4225C73.9902 24.7375 73.9702 24.9825 73.9502 25.1575C73.6852 25.2125 73.4027 25.2525 73.1027 25.2775C72.8077 25.3075 72.5302 25.3275 72.2702 25.3375C72.0102 25.3525 71.8027 25.36 71.6477 25.36ZM76.0877 19.18C76.4327 19.18 76.7227 19.11 76.9577 18.97C77.1927 18.83 77.3702 18.63 77.4902 18.37C77.6102 18.105 77.6702 17.79 77.6702 17.425C77.6702 16.935 77.5552 16.5575 77.3252 16.2925C77.1002 16.0275 76.7352 15.895 76.2302 15.895C75.9252 15.895 75.6477 15.9425 75.3977 16.0375C75.1477 16.1325 74.9352 16.2475 74.7602 16.3825C74.5902 16.5125 74.4602 16.635 74.3702 16.75C74.3702 16.82 74.3677 16.9325 74.3627 17.0875C74.3577 17.2375 74.3527 17.405 74.3477 17.59C74.3427 17.77 74.3377 17.94 74.3327 18.1C74.3277 18.26 74.3252 18.385 74.3252 18.475C74.4102 18.56 74.5277 18.6575 74.6777 18.7675C74.8277 18.8775 75.0177 18.975 75.2477 19.06C75.4777 19.14 75.7577 19.18 76.0877 19.18ZM85.9176 14.665C86.0426 14.62 86.2201 14.5875 86.4501 14.5675C86.6851 14.5425 86.9126 14.53 87.1326 14.53C87.3176 14.53 87.5226 14.5375 87.7476 14.5525C87.9726 14.5675 88.1551 14.585 88.2951 14.605C88.3601 15.01 88.4101 15.42 88.4451 15.835C88.4801 16.245 88.4976 16.65 88.4976 17.05C88.4976 17.785 88.4326 18.4775 88.3026 19.1275C88.1776 19.7775 87.9701 20.35 87.6801 20.845C87.3901 21.34 87.0026 21.7275 86.5176 22.0075C86.0326 22.2925 85.4351 22.435 84.7251 22.435C83.9701 22.435 83.3476 22.2875 82.8576 21.9925C82.3676 21.6925 81.9851 21.2775 81.7101 20.7475C81.4351 20.2125 81.2426 19.59 81.1326 18.88C81.0276 18.165 80.9751 17.395 80.9751 16.57C80.9751 16.205 80.9826 15.835 80.9976 15.46C81.0176 15.08 81.0426 14.7025 81.0726 14.3275C81.2026 14.3175 81.3726 14.31 81.5826 14.305C81.7976 14.295 81.9926 14.2925 82.1676 14.2975C82.4176 14.2975 82.6676 14.3125 82.9176 14.3425C83.1726 14.3675 83.3726 14.4025 83.5176 14.4475C83.4826 14.7875 83.4526 15.155 83.4276 15.55C83.4026 15.94 83.3901 16.3325 83.3901 16.7275C83.3901 17.3875 83.4326 17.9825 83.5176 18.5125C83.6076 19.0425 83.7551 19.4625 83.9601 19.7725C84.1651 20.0825 84.4426 20.2375 84.7926 20.2375C85.1226 20.2375 85.3851 20.0975 85.5801 19.8175C85.7801 19.5375 85.9226 19.1625 86.0076 18.6925C86.0976 18.2175 86.1426 17.6875 86.1426 17.1025C86.1426 16.6625 86.1201 16.23 86.0751 15.805C86.0351 15.375 85.9826 14.995 85.9176 14.665ZM92.9431 22.5925C92.3581 22.5925 91.8206 22.52 91.3306 22.375C90.8456 22.235 90.4331 22.07 90.0931 21.88C89.7581 21.685 89.5156 21.51 89.3656 21.355C89.3956 21.26 89.4531 21.1225 89.5381 20.9425C89.6281 20.7575 89.7331 20.5575 89.8531 20.3425C89.9731 20.1275 90.0931 19.9275 90.2131 19.7425C90.3331 19.5575 90.4406 19.42 90.5356 19.33C90.7756 19.535 91.0356 19.7375 91.3156 19.9375C91.5956 20.1325 91.8831 20.2925 92.1781 20.4175C92.4731 20.5425 92.7481 20.605 93.0031 20.605C93.2031 20.605 93.3831 20.58 93.5431 20.53C93.7031 20.475 93.8281 20.395 93.9181 20.29C94.0131 20.185 94.0606 20.055 94.0606 19.9C94.0606 19.72 93.9731 19.5475 93.7981 19.3825C93.6281 19.2125 93.4081 19.0525 93.1381 18.9025C92.8681 18.7525 92.5856 18.6175 92.2906 18.4975C91.8856 18.3325 91.5081 18.14 91.1581 17.92C90.8081 17.695 90.5256 17.42 90.3106 17.095C90.0956 16.765 89.9881 16.355 89.9881 15.865C89.9881 15.365 90.1356 14.945 90.4306 14.605C90.7256 14.265 91.1106 14.0075 91.5856 13.8325C92.0656 13.6575 92.5781 13.57 93.1231 13.57C93.6381 13.57 94.1606 13.6425 94.6906 13.7875C95.2206 13.9275 95.6531 14.13 95.9881 14.395C95.9581 14.49 95.8931 14.635 95.7931 14.83C95.6981 15.025 95.5806 15.235 95.4406 15.46C95.3056 15.68 95.1606 15.8825 95.0056 16.0675C94.8006 15.8925 94.5431 15.725 94.2331 15.565C93.9231 15.405 93.5981 15.325 93.2581 15.325C93.0881 15.325 92.9181 15.3425 92.7481 15.3775C92.5831 15.4125 92.4456 15.475 92.3356 15.565C92.2306 15.655 92.1781 15.7775 92.1781 15.9325C92.1781 16.0825 92.2356 16.2175 92.3506 16.3375C92.4656 16.4525 92.6331 16.565 92.8531 16.675C93.0781 16.785 93.3406 16.9 93.6406 17.02C93.9406 17.14 94.2456 17.2825 94.5556 17.4475C94.8656 17.6075 95.1506 17.8 95.4106 18.025C95.6756 18.25 95.8881 18.5125 96.0481 18.8125C96.2081 19.1075 96.2881 19.4475 96.2881 19.8325C96.2881 20.4475 96.1356 20.96 95.8306 21.37C95.5256 21.78 95.1181 22.085 94.6081 22.285C94.1031 22.49 93.5481 22.5925 92.9431 22.5925Z" fill="white"/>
</svg>
