<svg width="78" height="22" viewBox="0 0 78 22" fill="none" xmlns="http://www.w3.org/2000/svg">
<path d="M0.972438 18.9847C0.0461014 17.3925 -0.648652 4.19963 0.972438 2.778C2.59353 1.35636 28.7625 2.20934 42.426 2.778C56.0894 3.34665 74.153 2.49366 76.4688 3.34664C78.7847 4.19963 78.1131 19.3828 76.8162 20.975C75.1951 22.9653 46.3629 21.5437 39.5312 20.975C32.6994 20.4064 2.13036 20.975 0.972438 18.9847Z" fill="#214868"/>
<path d="M0.972438 16.9847C0.0461014 15.3925 -0.648652 2.19963 0.972438 0.777996C2.59353 -0.643639 28.7625 0.209344 42.426 0.777996C56.0894 1.34665 74.153 0.493659 76.4688 1.34664C78.7847 2.19963 78.1131 17.3828 76.8162 18.975C75.1951 20.9653 46.3629 19.5437 39.5312 18.975C32.6994 18.4064 2.13036 18.975 0.972438 16.9847Z" fill="#01AB66"/>
<path d="M10.49 12.88C10.5 12.6967 10.51 12.4483 10.52 12.135C10.53 11.8183 10.5383 11.4633 10.545 11.07C10.5517 10.6733 10.555 10.265 10.555 9.845C10.555 9.425 10.5517 9.01 10.545 8.6C10.5383 8.18667 10.53 7.805 10.52 7.455C10.51 7.105 10.5 6.81167 10.49 6.575C10.5867 6.56167 10.7383 6.54667 10.945 6.53C11.1517 6.51333 11.3667 6.505 11.59 6.505C11.6967 6.505 11.8217 6.50833 11.965 6.515C12.1083 6.52167 12.205 6.53 12.255 6.54C12.2617 6.71333 12.2633 6.93333 12.26 7.2C12.26 7.46667 12.255 7.765 12.245 8.095C12.2383 8.425 12.2283 8.775 12.215 9.145C12.2017 9.51167 12.1867 9.88 12.17 10.25C12.16 10.4467 12.1483 10.6383 12.135 10.825C12.125 11.0083 12.1133 11.165 12.1 11.295C12.3633 11.2783 12.6233 11.265 12.88 11.255C13.1367 11.245 13.3933 11.2367 13.65 11.23C13.91 11.2233 14.17 11.22 14.43 11.22C14.4433 11.3067 14.455 11.4433 14.465 11.63C14.475 11.8167 14.4833 12.0167 14.49 12.23C14.4967 12.44 14.5 12.6233 14.5 12.78C14.1 12.8333 13.695 12.8733 13.285 12.9C12.8783 12.9233 12.4917 12.9367 12.125 12.94C11.8217 12.9433 11.5283 12.94 11.245 12.93C10.965 12.9167 10.7133 12.9 10.49 12.88ZM17.8047 13.11C16.9214 13.11 16.2564 12.8767 15.8097 12.41C15.363 11.94 15.1397 11.2583 15.1397 10.365C15.1397 9.76833 15.2547 9.27333 15.4847 8.88C15.7147 8.48333 16.033 8.185 16.4397 7.985C16.8497 7.785 17.323 7.685 17.8597 7.685C18.4064 7.685 18.8597 7.81 19.2197 8.06C19.583 8.31 19.8547 8.655 20.0347 9.095C20.2147 9.535 20.3047 10.0433 20.3047 10.62C20.3047 11.1233 20.208 11.5617 20.0147 11.935C19.8214 12.3083 19.538 12.5983 19.1647 12.805C18.7947 13.0083 18.3414 13.11 17.8047 13.11ZM17.7497 11.675C17.933 11.675 18.0947 11.6433 18.2347 11.58C18.378 11.5167 18.498 11.4267 18.5947 11.31C18.6947 11.19 18.7697 11.05 18.8197 10.89C18.8697 10.73 18.8947 10.555 18.8947 10.365C18.8947 10.0683 18.8514 9.80667 18.7647 9.58C18.6814 9.35 18.5564 9.17167 18.3897 9.045C18.2264 8.915 18.023 8.85 17.7797 8.85C17.5164 8.85 17.3014 8.91667 17.1347 9.05C16.968 9.18333 16.8447 9.35833 16.7647 9.575C16.688 9.78833 16.6497 10.0167 16.6497 10.26C16.6497 10.67 16.743 11.0083 16.9297 11.275C17.1197 11.5417 17.393 11.675 17.7497 11.675ZM25.5441 11.94C25.4441 12.1133 25.2924 12.285 25.0891 12.455C24.8857 12.625 24.6341 12.7667 24.3341 12.88C24.0341 12.9933 23.6891 13.05 23.2991 13.05C22.7924 13.05 22.3541 12.925 21.9841 12.675C21.6141 12.4217 21.3274 12.0867 21.1241 11.67C20.9241 11.25 20.8241 10.79 20.8241 10.29C20.8241 9.76333 20.9274 9.29167 21.1341 8.875C21.3441 8.45833 21.6391 8.12833 22.0191 7.885C22.3991 7.64167 22.8491 7.52 23.3691 7.52C23.6791 7.52 23.9641 7.56833 24.2241 7.665C24.4841 7.76167 24.7124 7.89833 24.9091 8.075C25.1091 8.25167 25.2741 8.45833 25.4041 8.695L24.3141 9.305C24.3041 9.27833 24.2807 9.23667 24.2441 9.18C24.2107 9.12333 24.1607 9.06333 24.0941 9C24.0274 8.93667 23.9391 8.88333 23.8291 8.84C23.7224 8.79667 23.5891 8.775 23.4291 8.775C23.1891 8.775 22.9857 8.82667 22.8191 8.93C22.6524 9.03333 22.5257 9.18 22.4391 9.37C22.3557 9.56 22.3141 9.78333 22.3141 10.04C22.3141 10.2533 22.3457 10.4683 22.4091 10.685C22.4724 10.8983 22.5791 11.0767 22.7291 11.22C22.8791 11.3633 23.0857 11.435 23.3491 11.435C23.5057 11.435 23.6507 11.4083 23.7841 11.355C23.9174 11.3017 24.0324 11.2383 24.1291 11.165C24.2291 11.0883 24.3091 11.0167 24.3691 10.95C24.4291 10.8833 24.4657 10.8383 24.4791 10.815L25.5441 11.94ZM28.341 13.085C27.931 13.085 27.556 13.03 27.216 12.92C26.876 12.8067 26.6043 12.625 26.401 12.375C26.201 12.1217 26.101 11.7867 26.101 11.37C26.101 10.9533 26.2177 10.6183 26.451 10.365C26.6877 10.1083 26.9977 9.92333 27.381 9.81C27.7677 9.69333 28.1827 9.635 28.626 9.635C28.7993 9.635 28.966 9.64833 29.126 9.675C29.286 9.70167 29.426 9.73333 29.546 9.77C29.6693 9.80667 29.7577 9.84167 29.811 9.875C29.8077 9.78833 29.7893 9.69667 29.756 9.6C29.726 9.50333 29.6827 9.42167 29.626 9.355C29.526 9.21833 29.3893 9.105 29.216 9.015C29.046 8.92167 28.821 8.875 28.541 8.875C28.2577 8.875 28.0077 8.94 27.791 9.07C27.5743 9.19667 27.4093 9.34 27.296 9.5L26.076 8.715C26.226 8.50167 26.4277 8.315 26.681 8.155C26.9377 7.995 27.2277 7.87 27.551 7.78C27.8777 7.69 28.2193 7.645 28.576 7.645C29.166 7.645 29.6443 7.74167 30.011 7.935C30.3777 8.12833 30.6493 8.39833 30.826 8.745C30.9093 8.91167 30.9777 9.095 31.031 9.295C31.0843 9.495 31.121 9.725 31.141 9.985C31.1543 10.2083 31.1643 10.4167 31.171 10.61C31.1777 10.8033 31.1843 10.9867 31.191 11.16C31.1977 11.4133 31.226 11.5783 31.276 11.655C31.326 11.7317 31.3977 11.77 31.491 11.77C31.5777 11.77 31.6543 11.7467 31.721 11.7C31.791 11.65 31.836 11.585 31.856 11.505L32.376 12.5C32.3393 12.6533 32.236 12.7817 32.066 12.885C31.896 12.9883 31.681 13.04 31.421 13.04C31.231 13.04 31.051 13.0083 30.881 12.945C30.711 12.8783 30.571 12.79 30.461 12.68C30.351 12.5667 30.286 12.4383 30.266 12.295C30.2127 12.4217 30.101 12.5467 29.931 12.67C29.761 12.79 29.5427 12.89 29.276 12.97C29.0093 13.0467 28.6977 13.085 28.341 13.085ZM28.676 11.91C28.8327 11.91 28.9927 11.8867 29.156 11.84C29.3227 11.79 29.4727 11.7283 29.606 11.655C29.7427 11.5817 29.8477 11.5067 29.921 11.43C29.9143 11.3267 29.9077 11.22 29.901 11.11C29.8977 11 29.8977 10.9067 29.901 10.83C29.8277 10.8 29.6877 10.7683 29.481 10.735C29.2777 10.6983 29.0643 10.68 28.841 10.68C28.6377 10.68 28.4477 10.7017 28.271 10.745C28.0943 10.7883 27.9493 10.855 27.836 10.945C27.726 11.035 27.671 11.1517 27.671 11.295C27.671 11.4483 27.7127 11.57 27.796 11.66C27.8793 11.75 27.996 11.815 28.146 11.855C28.296 11.8917 28.4727 11.91 28.676 11.91ZM35.5006 12.765C35.4073 12.865 35.2323 12.9617 34.9756 13.055C34.7223 13.1517 34.439 13.2 34.1256 13.2C33.719 13.2 33.409 13.105 33.1956 12.915C32.9856 12.725 32.844 12.4567 32.7706 12.11C32.6973 11.76 32.6606 11.3533 32.6606 10.89C32.6606 10.5267 32.664 10.1617 32.6706 9.795C32.6773 9.42833 32.6856 9.065 32.6956 8.705C32.709 8.345 32.7223 7.99667 32.7356 7.66C32.7523 7.32 32.7673 6.99833 32.7806 6.695C32.7973 6.38833 32.814 6.10833 32.8306 5.855C33.0673 5.83833 33.2856 5.83 33.4856 5.83C33.6156 5.83 33.744 5.83333 33.8706 5.84C33.9973 5.84667 34.1373 5.85667 34.2906 5.87C34.274 6.16 34.254 6.48167 34.2306 6.835C34.2106 7.185 34.1906 7.54333 34.1706 7.91C34.154 8.27667 34.1373 8.63167 34.1206 8.975C34.104 9.31833 34.0906 9.63 34.0806 9.91C34.074 10.1867 34.0706 10.4083 34.0706 10.575C34.0706 10.7917 34.079 10.9933 34.0956 11.18C34.1156 11.3633 34.159 11.5133 34.2256 11.63C34.2923 11.7433 34.3923 11.8 34.5256 11.8C34.639 11.8 34.7306 11.775 34.8006 11.725C34.874 11.6717 34.934 11.605 34.9806 11.525C35.004 11.565 35.0406 11.645 35.0906 11.765C35.1406 11.8817 35.1956 12.0117 35.2556 12.155C35.3156 12.2983 35.369 12.4283 35.4156 12.545C35.4623 12.6583 35.4906 12.7317 35.5006 12.765ZM36.1433 13.125C36.1233 12.7517 36.0983 12.295 36.0683 11.755C36.0416 11.2117 36.0116 10.6317 35.9783 10.015C35.9483 9.395 35.9183 8.78 35.8883 8.17C35.8583 7.55667 35.8316 6.995 35.8083 6.485C35.9383 6.47167 36.1049 6.45833 36.3083 6.445C36.5116 6.43167 36.7316 6.41833 36.9683 6.405C37.2049 6.39167 37.4366 6.38 37.6633 6.37C37.8899 6.36 38.0916 6.355 38.2683 6.355C38.5249 6.355 38.7816 6.38 39.0383 6.43C39.2983 6.47667 39.5349 6.56 39.7483 6.68C39.9649 6.8 40.1383 6.97167 40.2683 7.195C40.3983 7.415 40.4633 7.7 40.4633 8.05C40.4633 8.39333 40.3749 8.71667 40.1983 9.02C40.0249 9.32333 39.7933 9.54333 39.5033 9.68C39.5799 9.82333 39.6649 9.99667 39.7583 10.2C39.8516 10.4033 39.9449 10.6217 40.0383 10.855C40.1349 11.0883 40.2266 11.32 40.3133 11.55C40.3999 11.7767 40.4766 11.985 40.5433 12.175C40.6133 12.365 40.6649 12.52 40.6983 12.64C40.6016 12.7 40.4716 12.7567 40.3083 12.81C40.1483 12.8633 39.9833 12.9117 39.8133 12.955C39.6433 12.995 39.4949 13.0283 39.3683 13.055C39.2449 13.0817 39.1699 13.095 39.1433 13.095C39.1166 12.9617 39.0749 12.7867 39.0183 12.57C38.9616 12.3533 38.8966 12.1183 38.8233 11.865C38.7499 11.6117 38.6749 11.3633 38.5983 11.12C38.5249 10.8733 38.4566 10.6533 38.3933 10.46C38.3299 10.2667 38.2799 10.1233 38.2433 10.03C38.1666 10.0467 38.0883 10.0617 38.0083 10.075C37.9316 10.0883 37.8583 10.0983 37.7883 10.105C37.7216 10.1117 37.6599 10.1167 37.6033 10.12C37.6166 10.1967 37.6299 10.3233 37.6433 10.5C37.6599 10.6733 37.6766 10.875 37.6933 11.105C37.7099 11.335 37.7249 11.5717 37.7383 11.815C37.7549 12.055 37.7683 12.2817 37.7783 12.495C37.7916 12.7083 37.7999 12.8833 37.8033 13.02C37.6699 13.05 37.5066 13.0717 37.3133 13.085C37.1233 13.1017 36.9249 13.1117 36.7183 13.115C36.5149 13.1217 36.3233 13.125 36.1433 13.125ZM37.4683 8.92C37.5716 8.92 37.6766 8.91667 37.7833 8.91C37.8933 8.9 38.0233 8.88167 38.1733 8.855C38.3899 8.81833 38.5633 8.76833 38.6933 8.705C38.8233 8.63833 38.9166 8.555 38.9733 8.455C39.0333 8.35167 39.0633 8.23167 39.0633 8.095C39.0633 7.91167 39.0216 7.78 38.9383 7.7C38.8549 7.61667 38.7399 7.56333 38.5933 7.54C38.4499 7.51667 38.2816 7.505 38.0883 7.505C38.0349 7.505 37.9716 7.50833 37.8983 7.515C37.8249 7.51833 37.7516 7.52333 37.6783 7.53C37.6049 7.53667 37.5383 7.54333 37.4783 7.55C37.4183 7.55333 37.3749 7.55667 37.3483 7.56C37.3516 7.61667 37.3583 7.69167 37.3683 7.785C37.3783 7.87833 37.3883 7.98167 37.3983 8.095C37.4083 8.205 37.4166 8.315 37.4233 8.425C37.4333 8.53167 37.4416 8.63 37.4483 8.72C37.4583 8.80667 37.4649 8.87333 37.4683 8.92ZM46.0017 12.105C45.9084 12.2183 45.7917 12.33 45.6517 12.44C45.5117 12.55 45.3434 12.65 45.1467 12.74C44.9534 12.8267 44.7317 12.8967 44.4817 12.95C44.2317 13 43.9517 13.025 43.6417 13.025C43.1384 13.025 42.6917 12.93 42.3017 12.74C41.9117 12.5467 41.6067 12.2617 41.3867 11.885C41.1701 11.505 41.0617 11.0333 41.0617 10.47C41.0617 9.90667 41.1751 9.41667 41.4017 9C41.6284 8.58 41.9451 8.255 42.3517 8.025C42.7584 7.79167 43.2334 7.675 43.7767 7.675C44.4634 7.675 45.0034 7.86667 45.3967 8.25C45.7934 8.63 46.0001 9.15667 46.0167 9.83C46.0201 9.95333 46.0184 10.065 46.0117 10.165C46.0051 10.265 45.9917 10.3717 45.9717 10.485C45.9217 10.4817 45.8151 10.4783 45.6517 10.475C45.4884 10.4717 45.3034 10.4683 45.0967 10.465C44.8934 10.4583 44.7001 10.4533 44.5167 10.45C44.3367 10.4467 44.2034 10.445 44.1167 10.445C43.8267 10.445 43.5451 10.4583 43.2717 10.485C43.0017 10.5117 42.7751 10.54 42.5917 10.57C42.5917 10.63 42.5951 10.69 42.6017 10.75C42.6117 10.8067 42.6251 10.8617 42.6417 10.915C42.6851 11.0517 42.7601 11.1683 42.8667 11.265C42.9767 11.3617 43.1067 11.4367 43.2567 11.49C43.4101 11.54 43.5717 11.565 43.7417 11.565C43.8951 11.565 44.0351 11.5467 44.1617 11.51C44.2917 11.47 44.4101 11.4183 44.5167 11.355C44.6234 11.2917 44.7201 11.2233 44.8067 11.15C44.8967 11.0733 44.9801 10.9983 45.0567 10.925C45.0767 10.9417 45.1284 10.9917 45.2117 11.075C45.2951 11.155 45.3884 11.255 45.4917 11.375C45.5951 11.4917 45.6934 11.615 45.7867 11.745C45.8801 11.875 45.9517 11.995 46.0017 12.105ZM42.6467 9.635C42.7967 9.61167 42.9817 9.59 43.2017 9.57C43.4217 9.55 43.6767 9.54 43.9667 9.54C44.1234 9.54 44.2617 9.54167 44.3817 9.545C44.5051 9.54833 44.5917 9.55167 44.6417 9.555C44.6417 9.485 44.6317 9.40833 44.6117 9.325C44.5851 9.21167 44.5317 9.10333 44.4517 9C44.3751 8.89667 44.2751 8.81333 44.1517 8.75C44.0317 8.68667 43.8867 8.655 43.7167 8.655C43.5034 8.655 43.3167 8.70167 43.1567 8.795C43.0001 8.88833 42.8784 9.01 42.7917 9.16C42.7051 9.31 42.6567 9.46833 42.6467 9.635ZM49.7579 7.545C49.9946 7.585 50.2162 7.63167 50.4229 7.685C50.6296 7.73833 50.8012 7.785 50.9379 7.825C51.0779 7.865 51.1629 7.89167 51.1929 7.905C51.1262 8.17167 51.0462 8.47 50.9529 8.8C50.8629 9.12667 50.7612 9.47 50.6479 9.83C50.5379 10.1867 50.4212 10.5467 50.2979 10.91C50.1746 11.27 50.0479 11.6217 49.9179 11.965C49.7912 12.305 49.6662 12.6183 49.5429 12.905C49.3662 12.935 49.1496 12.95 48.8929 12.95C48.7662 12.95 48.6429 12.945 48.5229 12.935C48.4062 12.925 48.3062 12.915 48.2229 12.905C48.0496 12.5417 47.8812 12.16 47.7179 11.76C47.5546 11.3567 47.3962 10.9417 47.2429 10.515C47.0896 10.0883 46.9412 9.65333 46.7979 9.21C46.6546 8.76333 46.5146 8.31667 46.3779 7.87C46.4279 7.86 46.5096 7.84333 46.6229 7.82C46.7396 7.79333 46.8662 7.76333 47.0029 7.73C47.1429 7.69667 47.2796 7.66333 47.4129 7.63C47.5462 7.59333 47.6562 7.56333 47.7429 7.54C47.7929 7.74 47.8579 7.97667 47.9379 8.25C48.0179 8.52 48.1046 8.80333 48.1979 9.1C48.2946 9.39333 48.3896 9.67833 48.4829 9.955C48.5762 10.2283 48.6596 10.4717 48.7329 10.685C48.8096 10.8983 48.8679 11.0567 48.9079 11.16L48.8479 11.185C48.9079 10.995 48.9696 10.7967 49.0329 10.59C49.0962 10.38 49.1596 10.16 49.2229 9.93C49.2862 9.69667 49.3479 9.45333 49.4079 9.2C49.4712 8.94667 49.5312 8.68167 49.5879 8.405C49.6479 8.12833 49.7046 7.84167 49.7579 7.545ZM53.522 12.99C53.4653 12.9933 53.357 13 53.197 13.01C53.0403 13.0233 52.8736 13.03 52.697 13.03C52.567 13.03 52.4353 13.025 52.302 13.015C52.172 13.0083 52.0436 12.9983 51.917 12.985C51.9336 12.8983 51.952 12.7217 51.972 12.455C51.9953 12.185 52.017 11.8683 52.037 11.505C52.0603 11.1417 52.082 10.7667 52.102 10.38C52.1253 9.99 52.142 9.625 52.152 9.285C52.1653 8.945 52.172 8.67167 52.172 8.465C52.2386 8.46167 52.337 8.45667 52.467 8.45C52.597 8.44333 52.737 8.43833 52.887 8.435C53.037 8.42833 53.1803 8.42333 53.317 8.42C53.4536 8.41333 53.562 8.41 53.642 8.41C53.6586 8.51333 53.672 8.68 53.682 8.91C53.692 9.14 53.697 9.39667 53.697 9.68C53.697 9.98333 53.692 10.305 53.682 10.645C53.6753 10.985 53.6636 11.315 53.647 11.635C53.6336 11.9517 53.6153 12.2317 53.592 12.475C53.5686 12.715 53.5453 12.8867 53.522 12.99ZM52.962 7.765C52.662 7.765 52.4103 7.67833 52.207 7.505C52.0036 7.32833 51.902 7.09667 51.902 6.81C51.902 6.61333 51.9503 6.445 52.047 6.305C52.1436 6.165 52.2686 6.05833 52.422 5.985C52.5786 5.90833 52.7436 5.87 52.917 5.87C53.1936 5.87 53.422 5.96 53.602 6.14C53.7853 6.32 53.877 6.55167 53.877 6.835C53.877 7.09833 53.7903 7.32 53.617 7.5C53.4436 7.67667 53.2253 7.765 52.962 7.765ZM59.781 12.105C59.6877 12.2183 59.571 12.33 59.431 12.44C59.291 12.55 59.1227 12.65 58.926 12.74C58.7327 12.8267 58.511 12.8967 58.261 12.95C58.011 13 57.731 13.025 57.421 13.025C56.9177 13.025 56.471 12.93 56.081 12.74C55.691 12.5467 55.386 12.2617 55.166 11.885C54.9493 11.505 54.841 11.0333 54.841 10.47C54.841 9.90667 54.9543 9.41667 55.181 9C55.4077 8.58 55.7243 8.255 56.131 8.025C56.5377 7.79167 57.0127 7.675 57.556 7.675C58.2427 7.675 58.7827 7.86667 59.176 8.25C59.5727 8.63 59.7793 9.15667 59.796 9.83C59.7993 9.95333 59.7977 10.065 59.791 10.165C59.7843 10.265 59.771 10.3717 59.751 10.485C59.701 10.4817 59.5943 10.4783 59.431 10.475C59.2677 10.4717 59.0827 10.4683 58.876 10.465C58.6727 10.4583 58.4793 10.4533 58.296 10.45C58.116 10.4467 57.9827 10.445 57.896 10.445C57.606 10.445 57.3243 10.4583 57.051 10.485C56.781 10.5117 56.5543 10.54 56.371 10.57C56.371 10.63 56.3743 10.69 56.381 10.75C56.391 10.8067 56.4043 10.8617 56.421 10.915C56.4643 11.0517 56.5393 11.1683 56.646 11.265C56.756 11.3617 56.886 11.4367 57.036 11.49C57.1893 11.54 57.351 11.565 57.521 11.565C57.6743 11.565 57.8143 11.5467 57.941 11.51C58.071 11.47 58.1893 11.4183 58.296 11.355C58.4027 11.2917 58.4993 11.2233 58.586 11.15C58.676 11.0733 58.7593 10.9983 58.836 10.925C58.856 10.9417 58.9077 10.9917 58.991 11.075C59.0743 11.155 59.1677 11.255 59.271 11.375C59.3743 11.4917 59.4727 11.615 59.566 11.745C59.6593 11.875 59.731 11.995 59.781 12.105ZM56.426 9.635C56.576 9.61167 56.761 9.59 56.981 9.57C57.201 9.55 57.456 9.54 57.746 9.54C57.9027 9.54 58.041 9.54167 58.161 9.545C58.2843 9.54833 58.371 9.55167 58.421 9.555C58.421 9.485 58.411 9.40833 58.391 9.325C58.3643 9.21167 58.311 9.10333 58.231 9C58.1543 8.89667 58.0543 8.81333 57.931 8.75C57.811 8.68667 57.666 8.655 57.496 8.655C57.2827 8.655 57.096 8.70167 56.936 8.795C56.7793 8.88833 56.6577 9.01 56.571 9.16C56.4843 9.31 56.436 9.46833 56.426 9.635ZM62.5756 12.965C62.2056 12.965 61.9006 12.8817 61.6606 12.715C61.4206 12.545 61.2323 12.315 61.0956 12.025C60.9623 11.7317 60.8673 11.395 60.8106 11.015C60.7573 10.635 60.7306 10.2333 60.7306 9.81C60.7306 9.46667 60.7423 9.11667 60.7656 8.76C60.7923 8.4 60.824 8.04667 60.8606 7.7C61.0706 7.7 61.309 7.70667 61.5756 7.72C61.8456 7.73333 62.089 7.74833 62.3056 7.765C62.269 8.16833 62.2406 8.55167 62.2206 8.915C62.2006 9.27833 62.1906 9.61 62.1906 9.91C62.1906 10.23 62.2073 10.5083 62.2406 10.745C62.274 10.9817 62.3306 11.165 62.4106 11.295C62.4906 11.4217 62.6006 11.485 62.7406 11.485C62.864 11.485 62.969 11.43 63.0556 11.32C63.1456 11.2067 63.219 11.0517 63.2756 10.855C63.3323 10.655 63.374 10.4233 63.4006 10.16C63.4306 9.89333 63.4456 9.60833 63.4456 9.305C63.4456 9.07833 63.444 8.83167 63.4406 8.565C63.4373 8.29833 63.4306 8.04167 63.4206 7.795C63.5173 7.795 63.6506 7.79667 63.8206 7.8C63.9906 7.8 64.1606 7.80167 64.3306 7.805C64.504 7.80833 64.644 7.81333 64.7506 7.82C64.7506 7.94333 64.7506 8.06667 64.7506 8.19C64.7506 8.31333 64.7506 8.435 64.7506 8.555C64.7506 9.03833 64.7556 9.47167 64.7656 9.855C64.779 10.2383 64.8056 10.565 64.8456 10.835C64.889 11.1017 64.954 11.305 65.0406 11.445C65.1273 11.585 65.2456 11.655 65.3956 11.655C65.5356 11.655 65.6523 11.595 65.7456 11.475C65.839 11.3517 65.914 11.18 65.9706 10.96C66.0306 10.74 66.0723 10.4833 66.0956 10.19C66.1223 9.89333 66.1356 9.575 66.1356 9.235C66.1356 9.095 66.1356 8.94667 66.1356 8.79C66.1356 8.63 66.134 8.465 66.1306 8.295C66.1273 8.125 66.1223 7.95833 66.1156 7.795C66.2123 7.795 66.3173 7.795 66.4306 7.795C66.544 7.795 66.659 7.795 66.7756 7.795C66.8823 7.795 67.009 7.79833 67.1556 7.805C67.3056 7.81167 67.4223 7.81833 67.5056 7.825C67.5156 7.96167 67.5256 8.12667 67.5356 8.32C67.5456 8.51 67.554 8.7 67.5606 8.89C67.5673 9.07667 67.5706 9.235 67.5706 9.365C67.5706 9.78167 67.5456 10.1717 67.4956 10.535C67.4456 10.8983 67.369 11.2267 67.2656 11.52C67.1623 11.8133 67.0273 12.065 66.8606 12.275C66.6973 12.485 66.499 12.6467 66.2656 12.76C66.0356 12.87 65.7673 12.925 65.4606 12.925C65.194 12.925 64.9706 12.88 64.7906 12.79C64.6106 12.7 64.4656 12.585 64.3556 12.445C64.2456 12.3017 64.1606 12.1517 64.1006 11.995C64.044 11.8383 64.004 11.6917 63.9806 11.555C63.9606 11.4183 63.9473 11.3117 63.9406 11.235L64.2456 11.285C64.2423 11.4217 64.2073 11.585 64.1406 11.775C64.0773 11.965 63.979 12.1517 63.8456 12.335C63.7123 12.515 63.5406 12.665 63.3306 12.785C63.124 12.905 62.8723 12.965 62.5756 12.965Z" fill="white"/>
</svg>
