<svg width="71" height="22" viewBox="0 0 71 22" fill="none" xmlns="http://www.w3.org/2000/svg">
<path d="M0.885168 18.9847C0.0419641 17.3925 -0.59044 4.19963 0.885168 2.778C2.36078 1.35636 26.1813 2.20934 38.6185 2.778C51.0558 3.34665 67.4982 2.49366 69.6063 3.34664C71.7143 4.19963 71.1029 19.3828 69.9225 20.975C68.4469 22.9653 42.2021 21.5437 35.9835 20.975C29.7649 20.4064 1.93917 20.975 0.885168 18.9847Z" fill="#214868"/>
<path d="M0.885168 16.9847C0.0419641 15.3925 -0.59044 2.19963 0.885168 0.777996C2.36078 -0.643639 26.1813 0.209344 38.6185 0.777996C51.0558 1.34665 67.4982 0.493659 69.6063 1.34664C71.7143 2.19963 71.1029 17.3828 69.9225 18.975C68.4469 20.9653 42.2021 19.5437 35.9835 18.975C29.7649 18.4064 1.93917 18.975 0.885168 16.9847Z" fill="#01AB66"/>
<path d="M10.49 12.88C10.5 12.6967 10.51 12.4483 10.52 12.135C10.53 11.8183 10.5383 11.4633 10.545 11.07C10.5517 10.6733 10.555 10.265 10.555 9.845C10.555 9.425 10.5517 9.01 10.545 8.6C10.5383 8.18667 10.53 7.805 10.52 7.455C10.51 7.105 10.5 6.81167 10.49 6.575C10.5867 6.56167 10.7383 6.54667 10.945 6.53C11.1517 6.51333 11.3667 6.505 11.59 6.505C11.6967 6.505 11.8217 6.50833 11.965 6.515C12.1083 6.52167 12.205 6.53 12.255 6.54C12.2617 6.71333 12.2633 6.93333 12.26 7.2C12.26 7.46667 12.255 7.765 12.245 8.095C12.2383 8.425 12.2283 8.775 12.215 9.145C12.2017 9.51167 12.1867 9.88 12.17 10.25C12.16 10.4467 12.1483 10.6383 12.135 10.825C12.125 11.0083 12.1133 11.165 12.1 11.295C12.3633 11.2783 12.6233 11.265 12.88 11.255C13.1367 11.245 13.3933 11.2367 13.65 11.23C13.91 11.2233 14.17 11.22 14.43 11.22C14.4433 11.3067 14.455 11.4433 14.465 11.63C14.475 11.8167 14.4833 12.0167 14.49 12.23C14.4967 12.44 14.5 12.6233 14.5 12.78C14.1 12.8333 13.695 12.8733 13.285 12.9C12.8783 12.9233 12.4917 12.9367 12.125 12.94C11.8217 12.9433 11.5283 12.94 11.245 12.93C10.965 12.9167 10.7133 12.9 10.49 12.88ZM17.8047 13.11C16.9214 13.11 16.2564 12.8767 15.8097 12.41C15.363 11.94 15.1397 11.2583 15.1397 10.365C15.1397 9.76833 15.2547 9.27333 15.4847 8.88C15.7147 8.48333 16.033 8.185 16.4397 7.985C16.8497 7.785 17.323 7.685 17.8597 7.685C18.4064 7.685 18.8597 7.81 19.2197 8.06C19.583 8.31 19.8547 8.655 20.0347 9.095C20.2147 9.535 20.3047 10.0433 20.3047 10.62C20.3047 11.1233 20.208 11.5617 20.0147 11.935C19.8214 12.3083 19.538 12.5983 19.1647 12.805C18.7947 13.0083 18.3414 13.11 17.8047 13.11ZM17.7497 11.675C17.933 11.675 18.0947 11.6433 18.2347 11.58C18.378 11.5167 18.498 11.4267 18.5947 11.31C18.6947 11.19 18.7697 11.05 18.8197 10.89C18.8697 10.73 18.8947 10.555 18.8947 10.365C18.8947 10.0683 18.8514 9.80667 18.7647 9.58C18.6814 9.35 18.5564 9.17167 18.3897 9.045C18.2264 8.915 18.023 8.85 17.7797 8.85C17.5164 8.85 17.3014 8.91667 17.1347 9.05C16.968 9.18333 16.8447 9.35833 16.7647 9.575C16.688 9.78833 16.6497 10.0167 16.6497 10.26C16.6497 10.67 16.743 11.0083 16.9297 11.275C17.1197 11.5417 17.393 11.675 17.7497 11.675ZM25.5441 11.94C25.4441 12.1133 25.2924 12.285 25.0891 12.455C24.8857 12.625 24.6341 12.7667 24.3341 12.88C24.0341 12.9933 23.6891 13.05 23.2991 13.05C22.7924 13.05 22.3541 12.925 21.9841 12.675C21.6141 12.4217 21.3274 12.0867 21.1241 11.67C20.9241 11.25 20.8241 10.79 20.8241 10.29C20.8241 9.76333 20.9274 9.29167 21.1341 8.875C21.3441 8.45833 21.6391 8.12833 22.0191 7.885C22.3991 7.64167 22.8491 7.52 23.3691 7.52C23.6791 7.52 23.9641 7.56833 24.2241 7.665C24.4841 7.76167 24.7124 7.89833 24.9091 8.075C25.1091 8.25167 25.2741 8.45833 25.4041 8.695L24.3141 9.305C24.3041 9.27833 24.2807 9.23667 24.2441 9.18C24.2107 9.12333 24.1607 9.06333 24.0941 9C24.0274 8.93667 23.9391 8.88333 23.8291 8.84C23.7224 8.79667 23.5891 8.775 23.4291 8.775C23.1891 8.775 22.9857 8.82667 22.8191 8.93C22.6524 9.03333 22.5257 9.18 22.4391 9.37C22.3557 9.56 22.3141 9.78333 22.3141 10.04C22.3141 10.2533 22.3457 10.4683 22.4091 10.685C22.4724 10.8983 22.5791 11.0767 22.7291 11.22C22.8791 11.3633 23.0857 11.435 23.3491 11.435C23.5057 11.435 23.6507 11.4083 23.7841 11.355C23.9174 11.3017 24.0324 11.2383 24.1291 11.165C24.2291 11.0883 24.3091 11.0167 24.3691 10.95C24.4291 10.8833 24.4657 10.8383 24.4791 10.815L25.5441 11.94ZM28.341 13.085C27.931 13.085 27.556 13.03 27.216 12.92C26.876 12.8067 26.6043 12.625 26.401 12.375C26.201 12.1217 26.101 11.7867 26.101 11.37C26.101 10.9533 26.2177 10.6183 26.451 10.365C26.6877 10.1083 26.9977 9.92333 27.381 9.81C27.7677 9.69333 28.1827 9.635 28.626 9.635C28.7993 9.635 28.966 9.64833 29.126 9.675C29.286 9.70167 29.426 9.73333 29.546 9.77C29.6693 9.80667 29.7577 9.84167 29.811 9.875C29.8077 9.78833 29.7893 9.69667 29.756 9.6C29.726 9.50333 29.6827 9.42167 29.626 9.355C29.526 9.21833 29.3893 9.105 29.216 9.015C29.046 8.92167 28.821 8.875 28.541 8.875C28.2577 8.875 28.0077 8.94 27.791 9.07C27.5743 9.19667 27.4093 9.34 27.296 9.5L26.076 8.715C26.226 8.50167 26.4277 8.315 26.681 8.155C26.9377 7.995 27.2277 7.87 27.551 7.78C27.8777 7.69 28.2193 7.645 28.576 7.645C29.166 7.645 29.6443 7.74167 30.011 7.935C30.3777 8.12833 30.6493 8.39833 30.826 8.745C30.9093 8.91167 30.9777 9.095 31.031 9.295C31.0843 9.495 31.121 9.725 31.141 9.985C31.1543 10.2083 31.1643 10.4167 31.171 10.61C31.1777 10.8033 31.1843 10.9867 31.191 11.16C31.1977 11.4133 31.226 11.5783 31.276 11.655C31.326 11.7317 31.3977 11.77 31.491 11.77C31.5777 11.77 31.6543 11.7467 31.721 11.7C31.791 11.65 31.836 11.585 31.856 11.505L32.376 12.5C32.3393 12.6533 32.236 12.7817 32.066 12.885C31.896 12.9883 31.681 13.04 31.421 13.04C31.231 13.04 31.051 13.0083 30.881 12.945C30.711 12.8783 30.571 12.79 30.461 12.68C30.351 12.5667 30.286 12.4383 30.266 12.295C30.2127 12.4217 30.101 12.5467 29.931 12.67C29.761 12.79 29.5427 12.89 29.276 12.97C29.0093 13.0467 28.6977 13.085 28.341 13.085ZM28.676 11.91C28.8327 11.91 28.9927 11.8867 29.156 11.84C29.3227 11.79 29.4727 11.7283 29.606 11.655C29.7427 11.5817 29.8477 11.5067 29.921 11.43C29.9143 11.3267 29.9077 11.22 29.901 11.11C29.8977 11 29.8977 10.9067 29.901 10.83C29.8277 10.8 29.6877 10.7683 29.481 10.735C29.2777 10.6983 29.0643 10.68 28.841 10.68C28.6377 10.68 28.4477 10.7017 28.271 10.745C28.0943 10.7883 27.9493 10.855 27.836 10.945C27.726 11.035 27.671 11.1517 27.671 11.295C27.671 11.4483 27.7127 11.57 27.796 11.66C27.8793 11.75 27.996 11.815 28.146 11.855C28.296 11.8917 28.4727 11.91 28.676 11.91ZM35.5006 12.765C35.4073 12.865 35.2323 12.9617 34.9756 13.055C34.7223 13.1517 34.439 13.2 34.1256 13.2C33.719 13.2 33.409 13.105 33.1956 12.915C32.9856 12.725 32.844 12.4567 32.7706 12.11C32.6973 11.76 32.6606 11.3533 32.6606 10.89C32.6606 10.5267 32.664 10.1617 32.6706 9.795C32.6773 9.42833 32.6856 9.065 32.6956 8.705C32.709 8.345 32.7223 7.99667 32.7356 7.66C32.7523 7.32 32.7673 6.99833 32.7806 6.695C32.7973 6.38833 32.814 6.10833 32.8306 5.855C33.0673 5.83833 33.2856 5.83 33.4856 5.83C33.6156 5.83 33.744 5.83333 33.8706 5.84C33.9973 5.84667 34.1373 5.85667 34.2906 5.87C34.274 6.16 34.254 6.48167 34.2306 6.835C34.2106 7.185 34.1906 7.54333 34.1706 7.91C34.154 8.27667 34.1373 8.63167 34.1206 8.975C34.104 9.31833 34.0906 9.63 34.0806 9.91C34.074 10.1867 34.0706 10.4083 34.0706 10.575C34.0706 10.7917 34.079 10.9933 34.0956 11.18C34.1156 11.3633 34.159 11.5133 34.2256 11.63C34.2923 11.7433 34.3923 11.8 34.5256 11.8C34.639 11.8 34.7306 11.775 34.8006 11.725C34.874 11.6717 34.934 11.605 34.9806 11.525C35.004 11.565 35.0406 11.645 35.0906 11.765C35.1406 11.8817 35.1956 12.0117 35.2556 12.155C35.3156 12.2983 35.369 12.4283 35.4156 12.545C35.4623 12.6583 35.4906 12.7317 35.5006 12.765ZM37.7883 13.03C37.5849 13.0333 37.3699 13.0283 37.1433 13.015C36.9199 13.005 36.7133 12.9917 36.5233 12.975C36.3333 12.9583 36.1866 12.9433 36.0833 12.93C36.0833 12.8967 36.0833 12.805 36.0833 12.655C36.0833 12.505 36.0833 12.3133 36.0833 12.08C36.0833 11.8467 36.0833 11.5883 36.0833 11.305C36.0833 11.0183 36.0833 10.7217 36.0833 10.415C36.0866 10.1083 36.0883 9.80833 36.0883 9.515C36.0883 9.15167 36.0866 8.79167 36.0833 8.435C36.0799 8.075 36.0749 7.74167 36.0683 7.435C36.0616 7.125 36.0516 6.86833 36.0383 6.665C36.1049 6.665 36.2066 6.66833 36.3433 6.675C36.4799 6.68167 36.6299 6.69 36.7933 6.7C36.9599 6.71 37.1216 6.72333 37.2783 6.74C37.4349 6.75333 37.5683 6.76833 37.6783 6.785C37.8949 7.09833 38.1033 7.41833 38.3033 7.745C38.5066 8.06833 38.6983 8.395 38.8783 8.725C39.0616 9.05167 39.2333 9.37833 39.3933 9.705C39.5566 10.0317 39.7083 10.3533 39.8483 10.67L39.6433 6.755C39.7433 6.755 39.8649 6.76 40.0083 6.77C40.1549 6.78 40.3049 6.79167 40.4583 6.805C40.6149 6.81833 40.7583 6.835 40.8883 6.855C41.0216 6.875 41.1216 6.895 41.1883 6.915C41.1983 7.05833 41.2083 7.22333 41.2183 7.41C41.2316 7.59333 41.2416 7.79167 41.2483 8.005C41.2549 8.215 41.2616 8.43333 41.2683 8.66C41.2749 8.88333 41.2799 9.10833 41.2833 9.335C41.2866 9.55833 41.2883 9.77333 41.2883 9.98C41.2883 10.3167 41.2833 10.65 41.2733 10.98C41.2666 11.3067 41.2549 11.6117 41.2383 11.895C41.2249 12.175 41.2099 12.4117 41.1933 12.605C41.1766 12.795 41.1583 12.9217 41.1383 12.985C41.0449 12.9883 40.9449 12.9917 40.8383 12.995C40.7349 12.995 40.6299 12.995 40.5233 12.995C40.3666 12.995 40.2133 12.9917 40.0633 12.985C39.9166 12.9783 39.7933 12.9667 39.6933 12.95C39.6599 12.89 39.6033 12.7883 39.5233 12.645C39.4466 12.4983 39.3516 12.3217 39.2383 12.115C39.1249 11.905 39.0016 11.6767 38.8683 11.43C38.7349 11.1833 38.5983 10.9317 38.4583 10.675C38.3183 10.415 38.1799 10.1617 38.0433 9.915C37.9066 9.66833 37.7816 9.44167 37.6683 9.235C37.6783 9.32833 37.6883 9.47 37.6983 9.66C37.7083 9.85 37.7166 10.07 37.7233 10.32C37.7333 10.57 37.7416 10.83 37.7483 11.1C37.7549 11.3667 37.7616 11.6283 37.7683 11.885C37.7749 12.1383 37.7799 12.3667 37.7833 12.57C37.7866 12.77 37.7883 12.9233 37.7883 13.03ZM47.1345 12.105C47.0412 12.2183 46.9245 12.33 46.7845 12.44C46.6445 12.55 46.4762 12.65 46.2795 12.74C46.0862 12.8267 45.8645 12.8967 45.6145 12.95C45.3645 13 45.0845 13.025 44.7745 13.025C44.2712 13.025 43.8245 12.93 43.4345 12.74C43.0445 12.5467 42.7395 12.2617 42.5195 11.885C42.3029 11.505 42.1945 11.0333 42.1945 10.47C42.1945 9.90667 42.3079 9.41667 42.5345 9C42.7612 8.58 43.0779 8.255 43.4845 8.025C43.8912 7.79167 44.3662 7.675 44.9095 7.675C45.5962 7.675 46.1362 7.86667 46.5295 8.25C46.9262 8.63 47.1329 9.15667 47.1495 9.83C47.1529 9.95333 47.1512 10.065 47.1445 10.165C47.1379 10.265 47.1245 10.3717 47.1045 10.485C47.0545 10.4817 46.9479 10.4783 46.7845 10.475C46.6212 10.4717 46.4362 10.4683 46.2295 10.465C46.0262 10.4583 45.8329 10.4533 45.6495 10.45C45.4695 10.4467 45.3362 10.445 45.2495 10.445C44.9595 10.445 44.6779 10.4583 44.4045 10.485C44.1345 10.5117 43.9079 10.54 43.7245 10.57C43.7245 10.63 43.7279 10.69 43.7345 10.75C43.7445 10.8067 43.7579 10.8617 43.7745 10.915C43.8179 11.0517 43.8929 11.1683 43.9995 11.265C44.1095 11.3617 44.2395 11.4367 44.3895 11.49C44.5429 11.54 44.7045 11.565 44.8745 11.565C45.0279 11.565 45.1679 11.5467 45.2945 11.51C45.4245 11.47 45.5429 11.4183 45.6495 11.355C45.7562 11.2917 45.8529 11.2233 45.9395 11.15C46.0295 11.0733 46.1129 10.9983 46.1895 10.925C46.2095 10.9417 46.2612 10.9917 46.3445 11.075C46.4279 11.155 46.5212 11.255 46.6245 11.375C46.7279 11.4917 46.8262 11.615 46.9195 11.745C47.0129 11.875 47.0845 11.995 47.1345 12.105ZM43.7795 9.635C43.9295 9.61167 44.1145 9.59 44.3345 9.57C44.5545 9.55 44.8095 9.54 45.0995 9.54C45.2562 9.54 45.3945 9.54167 45.5145 9.545C45.6379 9.54833 45.7245 9.55167 45.7745 9.555C45.7745 9.485 45.7645 9.40833 45.7445 9.325C45.7179 9.21167 45.6645 9.10333 45.5845 9C45.5079 8.89667 45.4079 8.81333 45.2845 8.75C45.1645 8.68667 45.0195 8.655 44.8495 8.655C44.6362 8.655 44.4495 8.70167 44.2895 8.795C44.1329 8.88833 44.0112 9.01 43.9245 9.16C43.8379 9.31 43.7895 9.46833 43.7795 9.635ZM49.9291 12.965C49.5591 12.965 49.2541 12.8817 49.0141 12.715C48.7741 12.545 48.5858 12.315 48.4491 12.025C48.3158 11.7317 48.2208 11.395 48.1641 11.015C48.1108 10.635 48.0841 10.2333 48.0841 9.81C48.0841 9.46667 48.0958 9.11667 48.1191 8.76C48.1458 8.4 48.1775 8.04667 48.2141 7.7C48.4241 7.7 48.6625 7.70667 48.9291 7.72C49.1991 7.73333 49.4425 7.74833 49.6591 7.765C49.6225 8.16833 49.5941 8.55167 49.5741 8.915C49.5541 9.27833 49.5441 9.61 49.5441 9.91C49.5441 10.23 49.5608 10.5083 49.5941 10.745C49.6275 10.9817 49.6841 11.165 49.7641 11.295C49.8441 11.4217 49.9541 11.485 50.0941 11.485C50.2175 11.485 50.3225 11.43 50.4091 11.32C50.4991 11.2067 50.5725 11.0517 50.6291 10.855C50.6858 10.655 50.7275 10.4233 50.7541 10.16C50.7841 9.89333 50.7991 9.60833 50.7991 9.305C50.7991 9.07833 50.7975 8.83167 50.7941 8.565C50.7908 8.29833 50.7841 8.04167 50.7741 7.795C50.8708 7.795 51.0041 7.79667 51.1741 7.8C51.3441 7.8 51.5141 7.80167 51.6841 7.805C51.8575 7.80833 51.9975 7.81333 52.1041 7.82C52.1041 7.94333 52.1041 8.06667 52.1041 8.19C52.1041 8.31333 52.1041 8.435 52.1041 8.555C52.1041 9.03833 52.1091 9.47167 52.1191 9.855C52.1325 10.2383 52.1591 10.565 52.1991 10.835C52.2425 11.1017 52.3075 11.305 52.3941 11.445C52.4808 11.585 52.5991 11.655 52.7491 11.655C52.8891 11.655 53.0058 11.595 53.0991 11.475C53.1925 11.3517 53.2675 11.18 53.3241 10.96C53.3841 10.74 53.4258 10.4833 53.4491 10.19C53.4758 9.89333 53.4891 9.575 53.4891 9.235C53.4891 9.095 53.4891 8.94667 53.4891 8.79C53.4891 8.63 53.4875 8.465 53.4841 8.295C53.4808 8.125 53.4758 7.95833 53.4691 7.795C53.5658 7.795 53.6708 7.795 53.7841 7.795C53.8975 7.795 54.0125 7.795 54.1291 7.795C54.2358 7.795 54.3625 7.79833 54.5091 7.805C54.6591 7.81167 54.7758 7.81833 54.8591 7.825C54.8691 7.96167 54.8791 8.12667 54.8891 8.32C54.8991 8.51 54.9075 8.7 54.9141 8.89C54.9208 9.07667 54.9241 9.235 54.9241 9.365C54.9241 9.78167 54.8991 10.1717 54.8491 10.535C54.7991 10.8983 54.7225 11.2267 54.6191 11.52C54.5158 11.8133 54.3808 12.065 54.2141 12.275C54.0508 12.485 53.8525 12.6467 53.6191 12.76C53.3891 12.87 53.1208 12.925 52.8141 12.925C52.5475 12.925 52.3241 12.88 52.1441 12.79C51.9641 12.7 51.8191 12.585 51.7091 12.445C51.5991 12.3017 51.5141 12.1517 51.4541 11.995C51.3975 11.8383 51.3575 11.6917 51.3341 11.555C51.3141 11.4183 51.3008 11.3117 51.2941 11.235L51.5991 11.285C51.5958 11.4217 51.5608 11.585 51.4941 11.775C51.4308 11.965 51.3325 12.1517 51.1991 12.335C51.0658 12.515 50.8941 12.665 50.6841 12.785C50.4775 12.905 50.2258 12.965 49.9291 12.965ZM57.8068 13.395C57.4168 13.395 57.0585 13.3467 56.7318 13.25C56.4085 13.1567 56.1335 13.0467 55.9068 12.92C55.6835 12.79 55.5218 12.6733 55.4218 12.57C55.4418 12.5067 55.4801 12.415 55.5368 12.295C55.5968 12.1717 55.6668 12.0383 55.7468 11.895C55.8268 11.7517 55.9068 11.6183 55.9868 11.495C56.0668 11.3717 56.1385 11.28 56.2018 11.22C56.3618 11.3567 56.5351 11.4917 56.7218 11.625C56.9085 11.755 57.1001 11.8617 57.2968 11.945C57.4935 12.0283 57.6768 12.07 57.8468 12.07C57.9801 12.07 58.1001 12.0533 58.2068 12.02C58.3135 11.9833 58.3968 11.93 58.4568 11.86C58.5201 11.79 58.5518 11.7033 58.5518 11.6C58.5518 11.48 58.4935 11.365 58.3768 11.255C58.2635 11.1417 58.1168 11.035 57.9368 10.935C57.7568 10.835 57.5685 10.745 57.3718 10.665C57.1018 10.555 56.8501 10.4267 56.6168 10.28C56.3835 10.13 56.1951 9.94667 56.0518 9.73C55.9085 9.51 55.8368 9.23667 55.8368 8.91C55.8368 8.57667 55.9351 8.29667 56.1318 8.07C56.3285 7.84333 56.5851 7.67167 56.9018 7.555C57.2218 7.43833 57.5635 7.38 57.9268 7.38C58.2701 7.38 58.6185 7.42833 58.9718 7.525C59.3251 7.61833 59.6135 7.75333 59.8368 7.93C59.8168 7.99333 59.7735 8.09 59.7068 8.22C59.6435 8.35 59.5651 8.49 59.4718 8.64C59.3818 8.78667 59.2851 8.92167 59.1818 9.045C59.0451 8.92833 58.8735 8.81667 58.6668 8.71C58.4601 8.60333 58.2435 8.55 58.0168 8.55C57.9035 8.55 57.7901 8.56167 57.6768 8.585C57.5668 8.60833 57.4751 8.65 57.4018 8.71C57.3318 8.77 57.2968 8.85167 57.2968 8.955C57.2968 9.055 57.3351 9.145 57.4118 9.225C57.4885 9.30167 57.6001 9.37667 57.7468 9.45C57.8968 9.52333 58.0718 9.6 58.2718 9.68C58.4718 9.76 58.6751 9.855 58.8818 9.965C59.0885 10.0717 59.2785 10.2 59.4518 10.35C59.6285 10.5 59.7701 10.675 59.8768 10.875C59.9835 11.0717 60.0368 11.2983 60.0368 11.555C60.0368 11.965 59.9351 12.3067 59.7318 12.58C59.5285 12.8533 59.2568 13.0567 58.9168 13.19C58.5801 13.3267 58.2101 13.395 57.8068 13.395Z" fill="white"/>
</svg>
