<svg width="103" height="22" viewBox="0 0 103 22" fill="none" xmlns="http://www.w3.org/2000/svg">
<path d="M1.28412 18.9847C0.0608775 17.3925 -0.856554 4.19963 1.28412 2.778C3.42479 1.35636 37.9813 2.20934 56.024 2.778C74.0668 3.34665 97.92 2.49366 100.978 3.34664C104.036 4.19963 103.149 19.3828 101.437 20.975C99.2961 22.9653 61.2228 21.5437 52.2014 20.975C43.18 20.4064 2.81316 20.975 1.28412 18.9847Z" fill="#214868"/>
<path d="M1.28412 16.9847C0.0608775 15.3925 -0.856554 2.19963 1.28412 0.777996C3.42479 -0.643639 37.9813 0.209344 56.024 0.777996C74.0668 1.34665 97.92 0.493659 100.978 1.34664C104.036 2.19963 103.149 17.3828 101.437 18.975C99.2961 20.9653 61.2228 19.5437 52.2014 18.975C43.18 18.4064 2.81316 18.975 1.28412 16.9847Z" fill="#01AB66"/>
<path d="M13.6951 12.88C13.7051 12.6967 13.7151 12.4483 13.7251 12.135C13.7351 11.8183 13.7434 11.4633 13.7501 11.07C13.7567 10.6733 13.7601 10.265 13.7601 9.845C13.7601 9.425 13.7567 9.01 13.7501 8.6C13.7434 8.18667 13.7351 7.805 13.7251 7.455C13.7151 7.105 13.7051 6.81167 13.6951 6.575C13.7917 6.56167 13.9434 6.54667 14.1501 6.53C14.3567 6.51333 14.5717 6.505 14.7951 6.505C14.9017 6.505 15.0267 6.50833 15.1701 6.515C15.3134 6.52167 15.4101 6.53 15.4601 6.54C15.4667 6.71333 15.4684 6.93333 15.4651 7.2C15.4651 7.46667 15.4601 7.765 15.4501 8.095C15.4434 8.425 15.4334 8.775 15.4201 9.145C15.4067 9.51167 15.3917 9.88 15.3751 10.25C15.3651 10.4467 15.3534 10.6383 15.3401 10.825C15.3301 11.0083 15.3184 11.165 15.3051 11.295C15.5684 11.2783 15.8284 11.265 16.0851 11.255C16.3417 11.245 16.5984 11.2367 16.8551 11.23C17.1151 11.2233 17.3751 11.22 17.6351 11.22C17.6484 11.3067 17.6601 11.4433 17.6701 11.63C17.6801 11.8167 17.6884 12.0167 17.6951 12.23C17.7017 12.44 17.7051 12.6233 17.7051 12.78C17.3051 12.8333 16.9001 12.8733 16.4901 12.9C16.0834 12.9233 15.6967 12.9367 15.3301 12.94C15.0267 12.9433 14.7334 12.94 14.4501 12.93C14.1701 12.9167 13.9184 12.9 13.6951 12.88ZM21.0098 13.11C20.1264 13.11 19.4614 12.8767 19.0148 12.41C18.5681 11.94 18.3448 11.2583 18.3448 10.365C18.3448 9.76833 18.4598 9.27333 18.6898 8.88C18.9198 8.48333 19.2381 8.185 19.6448 7.985C20.0548 7.785 20.5281 7.685 21.0648 7.685C21.6114 7.685 22.0648 7.81 22.4248 8.06C22.7881 8.31 23.0598 8.655 23.2398 9.095C23.4198 9.535 23.5098 10.0433 23.5098 10.62C23.5098 11.1233 23.4131 11.5617 23.2198 11.935C23.0264 12.3083 22.7431 12.5983 22.3698 12.805C21.9998 13.0083 21.5464 13.11 21.0098 13.11ZM20.9548 11.675C21.1381 11.675 21.2998 11.6433 21.4398 11.58C21.5831 11.5167 21.7031 11.4267 21.7998 11.31C21.8998 11.19 21.9748 11.05 22.0248 10.89C22.0748 10.73 22.0998 10.555 22.0998 10.365C22.0998 10.0683 22.0564 9.80667 21.9698 9.58C21.8864 9.35 21.7614 9.17167 21.5948 9.045C21.4314 8.915 21.2281 8.85 20.9848 8.85C20.7214 8.85 20.5064 8.91667 20.3398 9.05C20.1731 9.18333 20.0498 9.35833 19.9698 9.575C19.8931 9.78833 19.8548 10.0167 19.8548 10.26C19.8548 10.67 19.9481 11.0083 20.1348 11.275C20.3248 11.5417 20.5981 11.675 20.9548 11.675ZM28.7491 11.94C28.6491 12.1133 28.4975 12.285 28.2941 12.455C28.0908 12.625 27.8391 12.7667 27.5391 12.88C27.2391 12.9933 26.8941 13.05 26.5041 13.05C25.9975 13.05 25.5591 12.925 25.1891 12.675C24.8191 12.4217 24.5325 12.0867 24.3291 11.67C24.1291 11.25 24.0291 10.79 24.0291 10.29C24.0291 9.76333 24.1325 9.29167 24.3391 8.875C24.5491 8.45833 24.8441 8.12833 25.2241 7.885C25.6041 7.64167 26.0541 7.52 26.5741 7.52C26.8841 7.52 27.1691 7.56833 27.4291 7.665C27.6891 7.76167 27.9175 7.89833 28.1141 8.075C28.3141 8.25167 28.4791 8.45833 28.6091 8.695L27.5191 9.305C27.5091 9.27833 27.4858 9.23667 27.4491 9.18C27.4158 9.12333 27.3658 9.06333 27.2991 9C27.2325 8.93667 27.1441 8.88333 27.0341 8.84C26.9275 8.79667 26.7941 8.775 26.6341 8.775C26.3941 8.775 26.1908 8.82667 26.0241 8.93C25.8575 9.03333 25.7308 9.18 25.6441 9.37C25.5608 9.56 25.5191 9.78333 25.5191 10.04C25.5191 10.2533 25.5508 10.4683 25.6141 10.685C25.6775 10.8983 25.7841 11.0767 25.9341 11.22C26.0841 11.3633 26.2908 11.435 26.5541 11.435C26.7108 11.435 26.8558 11.4083 26.9891 11.355C27.1225 11.3017 27.2375 11.2383 27.3341 11.165C27.4341 11.0883 27.5141 11.0167 27.5741 10.95C27.6341 10.8833 27.6708 10.8383 27.6841 10.815L28.7491 11.94ZM31.5461 13.085C31.1361 13.085 30.7611 13.03 30.4211 12.92C30.0811 12.8067 29.8094 12.625 29.6061 12.375C29.4061 12.1217 29.3061 11.7867 29.3061 11.37C29.3061 10.9533 29.4228 10.6183 29.6561 10.365C29.8928 10.1083 30.2028 9.92333 30.5861 9.81C30.9728 9.69333 31.3878 9.635 31.8311 9.635C32.0044 9.635 32.1711 9.64833 32.3311 9.675C32.4911 9.70167 32.6311 9.73333 32.7511 9.77C32.8744 9.80667 32.9628 9.84167 33.0161 9.875C33.0128 9.78833 32.9944 9.69667 32.9611 9.6C32.9311 9.50333 32.8878 9.42167 32.8311 9.355C32.7311 9.21833 32.5944 9.105 32.4211 9.015C32.2511 8.92167 32.0261 8.875 31.7461 8.875C31.4628 8.875 31.2128 8.94 30.9961 9.07C30.7794 9.19667 30.6144 9.34 30.5011 9.5L29.2811 8.715C29.4311 8.50167 29.6328 8.315 29.8861 8.155C30.1428 7.995 30.4328 7.87 30.7561 7.78C31.0828 7.69 31.4244 7.645 31.7811 7.645C32.3711 7.645 32.8494 7.74167 33.2161 7.935C33.5828 8.12833 33.8544 8.39833 34.0311 8.745C34.1144 8.91167 34.1828 9.095 34.2361 9.295C34.2894 9.495 34.3261 9.725 34.3461 9.985C34.3594 10.2083 34.3694 10.4167 34.3761 10.61C34.3828 10.8033 34.3894 10.9867 34.3961 11.16C34.4028 11.4133 34.4311 11.5783 34.4811 11.655C34.5311 11.7317 34.6028 11.77 34.6961 11.77C34.7828 11.77 34.8594 11.7467 34.9261 11.7C34.9961 11.65 35.0411 11.585 35.0611 11.505L35.5811 12.5C35.5444 12.6533 35.4411 12.7817 35.2711 12.885C35.1011 12.9883 34.8861 13.04 34.6261 13.04C34.4361 13.04 34.2561 13.0083 34.0861 12.945C33.9161 12.8783 33.7761 12.79 33.6661 12.68C33.5561 12.5667 33.4911 12.4383 33.4711 12.295C33.4178 12.4217 33.3061 12.5467 33.1361 12.67C32.9661 12.79 32.7478 12.89 32.4811 12.97C32.2144 13.0467 31.9028 13.085 31.5461 13.085ZM31.8811 11.91C32.0378 11.91 32.1978 11.8867 32.3611 11.84C32.5278 11.79 32.6778 11.7283 32.8111 11.655C32.9478 11.5817 33.0528 11.5067 33.1261 11.43C33.1194 11.3267 33.1128 11.22 33.1061 11.11C33.1028 11 33.1028 10.9067 33.1061 10.83C33.0328 10.8 32.8928 10.7683 32.6861 10.735C32.4828 10.6983 32.2694 10.68 32.0461 10.68C31.8428 10.68 31.6528 10.7017 31.4761 10.745C31.2994 10.7883 31.1544 10.855 31.0411 10.945C30.9311 11.035 30.8761 11.1517 30.8761 11.295C30.8761 11.4483 30.9178 11.57 31.0011 11.66C31.0844 11.75 31.2011 11.815 31.3511 11.855C31.5011 11.8917 31.6778 11.91 31.8811 11.91ZM38.7057 12.765C38.6124 12.865 38.4374 12.9617 38.1807 13.055C37.9274 13.1517 37.644 13.2 37.3307 13.2C36.924 13.2 36.614 13.105 36.4007 12.915C36.1907 12.725 36.049 12.4567 35.9757 12.11C35.9024 11.76 35.8657 11.3533 35.8657 10.89C35.8657 10.5267 35.869 10.1617 35.8757 9.795C35.8824 9.42833 35.8907 9.065 35.9007 8.705C35.914 8.345 35.9274 7.99667 35.9407 7.66C35.9574 7.32 35.9724 6.99833 35.9857 6.695C36.0024 6.38833 36.019 6.10833 36.0357 5.855C36.2724 5.83833 36.4907 5.83 36.6907 5.83C36.8207 5.83 36.949 5.83333 37.0757 5.84C37.2024 5.84667 37.3424 5.85667 37.4957 5.87C37.479 6.16 37.459 6.48167 37.4357 6.835C37.4157 7.185 37.3957 7.54333 37.3757 7.91C37.359 8.27667 37.3424 8.63167 37.3257 8.975C37.309 9.31833 37.2957 9.63 37.2857 9.91C37.279 10.1867 37.2757 10.4083 37.2757 10.575C37.2757 10.7917 37.284 10.9933 37.3007 11.18C37.3207 11.3633 37.364 11.5133 37.4307 11.63C37.4974 11.7433 37.5974 11.8 37.7307 11.8C37.844 11.8 37.9357 11.775 38.0057 11.725C38.079 11.6717 38.139 11.605 38.1857 11.525C38.209 11.565 38.2457 11.645 38.2957 11.765C38.3457 11.8817 38.4007 12.0117 38.4607 12.155C38.5207 12.2983 38.574 12.4283 38.6207 12.545C38.6674 12.6583 38.6957 12.7317 38.7057 12.765ZM39.2184 13C39.2184 12.7433 39.22 12.4217 39.2234 12.035C39.2267 11.6483 39.2317 11.2267 39.2384 10.77C39.245 10.31 39.2534 9.84 39.2634 9.36C39.2734 8.88 39.285 8.41667 39.2984 7.97C39.3117 7.52333 39.3284 7.12167 39.3484 6.765C39.5084 6.74833 39.6967 6.735 39.9134 6.725C40.1334 6.715 40.3484 6.70833 40.5584 6.705C40.7717 6.69833 40.9517 6.695 41.0984 6.695C41.245 6.69167 41.3267 6.69 41.3434 6.69C41.35 6.70333 41.3734 6.78333 41.4134 6.93C41.4567 7.07667 41.51 7.26667 41.5734 7.5C41.64 7.73333 41.7117 7.99 41.7884 8.27C41.865 8.55 41.9417 8.835 42.0184 9.125C42.0984 9.415 42.1734 9.69 42.2434 9.95C42.3134 10.2067 42.37 10.4283 42.4134 10.615C42.46 10.8017 42.49 10.93 42.5034 11L42.3184 11.025C42.3517 10.9317 42.4017 10.7783 42.4684 10.565C42.535 10.3517 42.61 10.105 42.6934 9.825C42.78 9.54167 42.8667 9.245 42.9534 8.935C43.0434 8.62167 43.13 8.31833 43.2134 8.025C43.2967 7.73167 43.3684 7.47 43.4284 7.24C43.4917 7.00667 43.5367 6.83 43.5634 6.71C43.7034 6.71 43.8817 6.71333 44.0984 6.72C44.3184 6.72667 44.54 6.73667 44.7634 6.75C44.9867 6.76333 45.1717 6.78333 45.3184 6.81C45.385 7.11 45.4317 7.49833 45.4584 7.975C45.485 8.44833 45.4984 8.95 45.4984 9.48C45.4984 9.90667 45.4917 10.34 45.4784 10.78C45.4684 11.2167 45.4534 11.6267 45.4334 12.01C45.4134 12.3933 45.3917 12.7167 45.3684 12.98C45.205 12.98 45.0284 12.9767 44.8384 12.97C44.6484 12.9633 44.4667 12.955 44.2934 12.945C44.1234 12.9317 43.9884 12.9217 43.8884 12.915C43.905 12.6983 43.92 12.42 43.9334 12.08C43.95 11.74 43.9634 11.3883 43.9734 11.025C43.9834 10.8017 43.99 10.5767 43.9934 10.35C44 10.1233 44.005 9.91667 44.0084 9.73C44.015 9.54333 44.02 9.39833 44.0234 9.295C43.9867 9.425 43.935 9.595 43.8684 9.805C43.805 10.0117 43.7317 10.24 43.6484 10.49C43.5684 10.74 43.4834 10.9933 43.3934 11.25C43.3067 11.5033 43.2217 11.745 43.1384 11.975C43.0584 12.205 42.9867 12.4033 42.9234 12.57C42.8634 12.7367 42.8167 12.8533 42.7834 12.92C42.7367 12.9233 42.665 12.9267 42.5684 12.93C42.475 12.93 42.4034 12.93 42.3534 12.93C42.2634 12.93 42.17 12.9267 42.0734 12.92C41.98 12.91 41.8767 12.8983 41.7634 12.885C41.7534 12.8417 41.7317 12.7517 41.6984 12.615C41.6684 12.4783 41.6284 12.31 41.5784 12.11C41.5284 11.91 41.4734 11.6917 41.4134 11.455C41.3567 11.215 41.2984 10.9717 41.2384 10.725C41.1784 10.475 41.1184 10.2333 41.0584 10C40.9984 9.76667 40.9434 9.555 40.8934 9.365C40.8467 9.175 40.8067 9.02167 40.7734 8.905C40.7767 9.22167 40.7784 9.55833 40.7784 9.915C40.7817 10.2717 40.7834 10.6217 40.7834 10.965C40.7834 11.3083 40.7834 11.625 40.7834 11.915C40.7867 12.2017 40.7884 12.44 40.7884 12.63C40.7884 12.82 40.7884 12.935 40.7884 12.975C40.6717 12.9783 40.5234 12.9833 40.3434 12.99C40.1634 12.9933 39.975 12.9967 39.7784 13C39.5817 13 39.395 13 39.2184 13ZM50.1026 13.065C49.7759 13.045 49.4526 13.025 49.1326 13.005C48.8126 12.9883 48.4876 12.975 48.1576 12.965C47.8909 12.9517 47.6192 12.9383 47.3426 12.925C47.0659 12.9083 46.7926 12.8933 46.5226 12.88C46.4992 12.32 46.4826 11.7767 46.4726 11.25C46.4659 10.72 46.4626 10.2233 46.4626 9.76C46.4626 9.01667 46.4692 8.385 46.4826 7.865C46.4959 7.345 46.5092 6.97167 46.5226 6.745C47.1526 6.62833 47.7359 6.54333 48.2726 6.49C48.8092 6.43333 49.2576 6.39833 49.6176 6.385C49.9809 6.37167 50.2076 6.365 50.2976 6.365C50.2976 6.58167 50.2909 6.795 50.2776 7.005C50.2642 7.21167 50.2476 7.43 50.2276 7.66L48.0876 7.835C48.0842 7.87833 48.0809 7.94667 48.0776 8.04C48.0742 8.13 48.0709 8.23 48.0676 8.34C48.0676 8.44667 48.0676 8.54667 48.0676 8.64C48.0676 8.73333 48.0676 8.80167 48.0676 8.845C48.1442 8.845 48.2426 8.845 48.3626 8.845C48.4859 8.84167 48.6192 8.83833 48.7626 8.835C48.9092 8.83167 49.0559 8.82833 49.2026 8.825C49.3492 8.82167 49.4859 8.82 49.6126 8.82C49.7426 8.81667 49.8526 8.81333 49.9426 8.81L49.9226 10.18C49.8792 10.18 49.7942 10.1783 49.6676 10.175C49.5409 10.1683 49.3942 10.1617 49.2276 10.155C49.0642 10.1483 48.8992 10.1433 48.7326 10.14C48.5659 10.1333 48.4192 10.1283 48.2926 10.125C48.1659 10.1217 48.0792 10.1217 48.0326 10.125C48.0292 10.1583 48.0259 10.215 48.0226 10.295C48.0226 10.3717 48.0209 10.46 48.0176 10.56C48.0176 10.6567 48.0176 10.7583 48.0176 10.865C48.0176 10.9683 48.0159 11.065 48.0126 11.155C48.0126 11.2417 48.0126 11.3117 48.0126 11.365C48.0559 11.365 48.1726 11.365 48.3626 11.365C48.5526 11.3617 48.7476 11.36 48.9476 11.36C49.1142 11.36 49.2809 11.3633 49.4476 11.37C49.6142 11.3767 49.7692 11.385 49.9126 11.395C50.0559 11.4017 50.1726 11.4083 50.2626 11.415C50.2626 11.5483 50.2559 11.7017 50.2426 11.875C50.2292 12.045 50.2142 12.2133 50.1976 12.38C50.1842 12.5467 50.1676 12.6933 50.1476 12.82C50.1309 12.9433 50.1159 13.025 50.1026 13.065ZM56.8489 13.155C56.2556 13.155 55.7889 13.0217 55.4489 12.755C55.1122 12.4883 54.8606 12.1083 54.6939 11.615C54.5406 11.1717 54.4439 10.6333 54.4039 10C54.3672 9.36333 54.3489 8.645 54.3489 7.845C54.3489 7.72167 54.3506 7.59333 54.3539 7.46C54.3572 7.32667 54.3606 7.19167 54.3639 7.055C54.3672 6.915 54.3706 6.78 54.3739 6.65C54.3806 6.52 54.3856 6.4 54.3889 6.29C54.5256 6.27333 54.6639 6.26167 54.8039 6.255C54.9439 6.245 55.0772 6.24 55.2039 6.24C55.3739 6.24 55.5422 6.245 55.7089 6.255C55.8756 6.265 56.0239 6.27667 56.1539 6.29C56.1339 6.54 56.1156 6.81167 56.0989 7.105C56.0822 7.39833 56.0689 7.69833 56.0589 8.005C56.0522 8.30833 56.0489 8.60333 56.0489 8.89C56.0489 9.22333 56.0589 9.52 56.0789 9.78C56.0989 10.0367 56.1306 10.2567 56.1739 10.44C56.2372 10.7133 56.3322 10.915 56.4589 11.045C56.5856 11.175 56.7489 11.24 56.9489 11.24C57.1689 11.24 57.3406 11.165 57.4639 11.015C57.5906 10.865 57.6789 10.6533 57.7289 10.38C57.7789 10.1067 57.8039 9.78833 57.8039 9.425C57.8039 9.29167 57.8006 9.12 57.7939 8.91C57.7906 8.69667 57.7856 8.46667 57.7789 8.22C57.7722 7.97 57.7639 7.72333 57.7539 7.48C57.7439 7.23667 57.7322 7.01667 57.7189 6.82C57.7056 6.62 57.6922 6.465 57.6789 6.355C57.8122 6.355 57.9656 6.36167 58.1389 6.375C58.3156 6.385 58.4889 6.39667 58.6589 6.41C58.8322 6.42333 58.9822 6.43833 59.1089 6.455C59.2356 6.47167 59.3172 6.485 59.3539 6.495C59.3839 6.67167 59.4072 6.865 59.4239 7.075C59.4406 7.28167 59.4539 7.49667 59.4639 7.72C59.4739 7.94333 59.4789 8.16667 59.4789 8.39C59.4789 9.05333 59.4439 9.67333 59.3739 10.25C59.3072 10.8267 59.1806 11.3333 58.9939 11.77C58.8072 12.2033 58.5406 12.5433 58.1939 12.79C57.8472 13.0333 57.3989 13.155 56.8489 13.155ZM60.2134 15.24C60.2534 14.6967 60.2884 14.125 60.3184 13.525C60.3517 12.925 60.3784 12.33 60.3984 11.74C60.4184 11.15 60.435 10.595 60.4484 10.075C60.465 9.555 60.475 9.1 60.4784 8.71C60.485 8.31667 60.4884 8.02 60.4884 7.82C60.695 7.75333 60.9334 7.70667 61.2034 7.68C61.4734 7.65 61.735 7.635 61.9884 7.635C61.9984 7.74167 62.0067 7.86833 62.0134 8.015C62.02 8.15833 62.0234 8.29 62.0234 8.41C62.0867 8.32667 62.1967 8.225 62.3534 8.105C62.51 7.98167 62.7067 7.87333 62.9434 7.78C63.18 7.68667 63.4517 7.64 63.7584 7.64C64.435 7.64 64.935 7.855 65.2584 8.285C65.585 8.71167 65.7484 9.30667 65.7484 10.07C65.7484 10.6067 65.6467 11.07 65.4434 11.46C65.24 11.85 64.9634 12.15 64.6134 12.36C64.2634 12.5667 63.8634 12.67 63.4134 12.67C63.21 12.67 63.0034 12.645 62.7934 12.595C62.5867 12.5417 62.4017 12.4767 62.2384 12.4C62.0784 12.32 61.9684 12.2433 61.9084 12.17C61.9084 12.25 61.9034 12.3833 61.8934 12.57C61.8867 12.7567 61.8784 12.9683 61.8684 13.205C61.8584 13.445 61.845 13.6883 61.8284 13.935C61.815 14.1817 61.8017 14.4083 61.7884 14.615C61.775 14.825 61.7617 14.9883 61.7484 15.105C61.5717 15.1417 61.3834 15.1683 61.1834 15.185C60.9867 15.205 60.8017 15.2183 60.6284 15.225C60.455 15.235 60.3167 15.24 60.2134 15.24ZM63.1734 11.12C63.4034 11.12 63.5967 11.0733 63.7534 10.98C63.91 10.8867 64.0284 10.7533 64.1084 10.58C64.1884 10.4033 64.2284 10.1933 64.2284 9.95C64.2284 9.62333 64.1517 9.37167 63.9984 9.195C63.8484 9.01833 63.605 8.93 63.2684 8.93C63.065 8.93 62.88 8.96167 62.7134 9.025C62.5467 9.08833 62.405 9.165 62.2884 9.255C62.175 9.34167 62.0884 9.42333 62.0284 9.5C62.0284 9.54667 62.0267 9.62167 62.0234 9.725C62.02 9.825 62.0167 9.93667 62.0134 10.06C62.01 10.18 62.0067 10.2933 62.0034 10.4C62 10.5067 61.9984 10.59 61.9984 10.65C62.055 10.7067 62.1334 10.7717 62.2334 10.845C62.3334 10.9183 62.46 10.9833 62.6134 11.04C62.7667 11.0933 62.9534 11.12 63.1734 11.12ZM70.0016 12.985C69.995 12.9383 69.99 12.8717 69.9866 12.785C69.9833 12.6983 69.98 12.61 69.9766 12.52C69.9766 12.4267 69.9766 12.3517 69.9766 12.295C69.9366 12.3517 69.8733 12.42 69.7866 12.5C69.7033 12.5767 69.595 12.6533 69.4616 12.73C69.3283 12.8067 69.1666 12.8717 68.9766 12.925C68.7866 12.975 68.565 13 68.3116 13C67.8916 13 67.53 12.8983 67.2266 12.695C66.9233 12.4917 66.69 12.215 66.5266 11.865C66.3633 11.5117 66.2816 11.115 66.2816 10.675C66.2816 10.2417 66.3633 9.83833 66.5266 9.465C66.6933 9.08833 66.9416 8.785 67.2716 8.555C67.6016 8.32167 68.0166 8.205 68.5166 8.205C68.7666 8.205 68.9933 8.23333 69.1966 8.29C69.4033 8.34667 69.5783 8.41833 69.7216 8.505C69.865 8.58833 69.9666 8.67333 70.0266 8.76C70.0366 8.57667 70.05 8.36667 70.0666 8.13C70.0833 7.89 70.1016 7.645 70.1216 7.395C70.145 7.14167 70.1666 6.90167 70.1866 6.675C70.2066 6.44833 70.2233 6.255 70.2366 6.095C70.2533 5.93167 70.265 5.82333 70.2716 5.77C70.465 5.77 70.6816 5.78167 70.9216 5.805C71.165 5.825 71.38 5.86 71.5666 5.91C71.51 6.67333 71.465 7.43667 71.4316 8.2C71.3983 8.96 71.375 9.73833 71.3616 10.535C71.3516 11.3283 71.3466 12.16 71.3466 13.03C71.27 13.03 71.1433 13.0283 70.9666 13.025C70.7933 13.0217 70.615 13.0167 70.4316 13.01C70.2483 13.0033 70.105 12.995 70.0016 12.985ZM68.7266 11.545C68.8733 11.545 69.0083 11.5283 69.1316 11.495C69.255 11.4617 69.3683 11.4167 69.4716 11.36C69.575 11.3 69.665 11.2367 69.7416 11.17C69.8216 11.1 69.8883 11.03 69.9416 10.96C69.9416 10.8933 69.9416 10.8117 69.9416 10.715C69.9416 10.615 69.9416 10.515 69.9416 10.415C69.945 10.315 69.9466 10.22 69.9466 10.13C69.95 10.04 69.9533 9.97 69.9566 9.92C69.8833 9.85 69.7816 9.78167 69.6516 9.715C69.5216 9.64833 69.3783 9.595 69.2216 9.555C69.0683 9.51167 68.9116 9.49 68.7516 9.49C68.425 9.49 68.17 9.58833 67.9866 9.785C67.8066 9.97833 67.7166 10.23 67.7166 10.54C67.7166 10.8667 67.8033 11.1167 67.9766 11.29C68.1533 11.46 68.4033 11.545 68.7266 11.545ZM74.5832 13.085C74.1732 13.085 73.7982 13.03 73.4582 12.92C73.1182 12.8067 72.8465 12.625 72.6432 12.375C72.4432 12.1217 72.3432 11.7867 72.3432 11.37C72.3432 10.9533 72.4599 10.6183 72.6932 10.365C72.9299 10.1083 73.2399 9.92333 73.6232 9.81C74.0099 9.69333 74.4249 9.635 74.8682 9.635C75.0415 9.635 75.2082 9.64833 75.3682 9.675C75.5282 9.70167 75.6682 9.73333 75.7882 9.77C75.9115 9.80667 75.9999 9.84167 76.0532 9.875C76.0499 9.78833 76.0315 9.69667 75.9982 9.6C75.9682 9.50333 75.9249 9.42167 75.8682 9.355C75.7682 9.21833 75.6315 9.105 75.4582 9.015C75.2882 8.92167 75.0632 8.875 74.7832 8.875C74.4999 8.875 74.2499 8.94 74.0332 9.07C73.8165 9.19667 73.6515 9.34 73.5382 9.5L72.3182 8.715C72.4682 8.50167 72.6699 8.315 72.9232 8.155C73.1799 7.995 73.4699 7.87 73.7932 7.78C74.1199 7.69 74.4615 7.645 74.8182 7.645C75.4082 7.645 75.8865 7.74167 76.2532 7.935C76.6199 8.12833 76.8915 8.39833 77.0682 8.745C77.1515 8.91167 77.2199 9.095 77.2732 9.295C77.3265 9.495 77.3632 9.725 77.3832 9.985C77.3965 10.2083 77.4065 10.4167 77.4132 10.61C77.4199 10.8033 77.4265 10.9867 77.4332 11.16C77.4399 11.4133 77.4682 11.5783 77.5182 11.655C77.5682 11.7317 77.6399 11.77 77.7332 11.77C77.8199 11.77 77.8965 11.7467 77.9632 11.7C78.0332 11.65 78.0782 11.585 78.0982 11.505L78.6182 12.5C78.5815 12.6533 78.4782 12.7817 78.3082 12.885C78.1382 12.9883 77.9232 13.04 77.6632 13.04C77.4732 13.04 77.2932 13.0083 77.1232 12.945C76.9532 12.8783 76.8132 12.79 76.7032 12.68C76.5932 12.5667 76.5282 12.4383 76.5082 12.295C76.4549 12.4217 76.3432 12.5467 76.1732 12.67C76.0032 12.79 75.7849 12.89 75.5182 12.97C75.2515 13.0467 74.9399 13.085 74.5832 13.085ZM74.9182 11.91C75.0749 11.91 75.2349 11.8867 75.3982 11.84C75.5649 11.79 75.7149 11.7283 75.8482 11.655C75.9849 11.5817 76.0899 11.5067 76.1632 11.43C76.1565 11.3267 76.1499 11.22 76.1432 11.11C76.1399 11 76.1399 10.9067 76.1432 10.83C76.0699 10.8 75.9299 10.7683 75.7232 10.735C75.5199 10.6983 75.3065 10.68 75.0832 10.68C74.8799 10.68 74.6899 10.7017 74.5132 10.745C74.3365 10.7883 74.1915 10.855 74.0782 10.945C73.9682 11.035 73.9132 11.1517 73.9132 11.295C73.9132 11.4483 73.9549 11.57 74.0382 11.66C74.1215 11.75 74.2382 11.815 74.3882 11.855C74.5382 11.8917 74.7149 11.91 74.9182 11.91ZM82.3942 12.345C82.3309 12.4683 82.2309 12.6 82.0942 12.74C81.9609 12.8767 81.7859 12.9933 81.5692 13.09C81.3559 13.19 81.0959 13.24 80.7892 13.24C80.3859 13.24 80.0559 13.155 79.7992 12.985C79.5459 12.815 79.3576 12.5883 79.2342 12.305C79.1142 12.0217 79.0542 11.7117 79.0542 11.375C79.0542 11.1917 79.0559 10.9967 79.0592 10.79C79.0659 10.58 79.0726 10.3733 79.0792 10.17C79.0859 9.96333 79.0926 9.76833 79.0992 9.585C79.1092 9.39833 79.1176 9.235 79.1242 9.095C79.1342 8.955 79.1409 8.84667 79.1442 8.77C78.8809 8.79667 78.6376 8.82667 78.4142 8.86C78.1909 8.89 78.0359 8.915 77.9492 8.935C77.9159 8.74833 77.8909 8.55833 77.8742 8.365C77.8576 8.17167 77.8442 8.00333 77.8342 7.86C77.8276 7.71667 77.8242 7.62833 77.8242 7.595C78.0176 7.56833 78.2242 7.545 78.4442 7.525C78.6642 7.50167 78.8959 7.485 79.1392 7.475C79.1359 7.395 79.1326 7.27 79.1292 7.1C79.1259 6.93 79.1209 6.77667 79.1142 6.64C79.1109 6.51667 79.1042 6.39333 79.0942 6.27C79.0842 6.14333 79.0759 6.04167 79.0692 5.965L80.5492 5.835C80.5492 5.875 80.5492 5.96833 80.5492 6.115C80.5526 6.26167 80.5542 6.43833 80.5542 6.645C80.5542 6.74833 80.5559 6.86833 80.5592 7.005C80.5626 7.13833 80.5659 7.27 80.5692 7.4C80.6792 7.39333 80.8076 7.38667 80.9542 7.38C81.1009 7.37333 81.2176 7.36833 81.3042 7.365C81.4442 7.35833 81.5709 7.355 81.6842 7.355C81.7976 7.35167 81.8909 7.35 81.9642 7.35C82.0409 7.35 82.0926 7.35167 82.1192 7.355C82.1392 7.51167 82.1526 7.71167 82.1592 7.955C82.1659 8.195 82.1692 8.40833 82.1692 8.595C82.1359 8.59167 82.0276 8.59333 81.8442 8.6C81.6609 8.60333 81.4809 8.61 81.3042 8.62C81.1809 8.62333 81.0442 8.63 80.8942 8.64C80.7442 8.65 80.6259 8.66 80.5392 8.67C80.5359 8.74 80.5309 8.83667 80.5242 8.96C80.5209 9.08 80.5159 9.21667 80.5092 9.37C80.5059 9.52 80.5009 9.67667 80.4942 9.84C80.4909 10 80.4876 10.155 80.4842 10.305C80.4809 10.455 80.4792 10.5883 80.4792 10.705C80.4792 10.925 80.4892 11.1233 80.5092 11.3C80.5326 11.4733 80.5809 11.6117 80.6542 11.715C80.7309 11.815 80.8476 11.865 81.0042 11.865C81.1076 11.865 81.1959 11.835 81.2692 11.775C81.3426 11.715 81.4026 11.645 81.4492 11.565C81.4992 11.4817 81.5426 11.4083 81.5792 11.345C81.6226 11.405 81.6826 11.485 81.7592 11.585C81.8392 11.6817 81.9226 11.7833 82.0092 11.89C82.0992 11.9967 82.1792 12.0917 82.2492 12.175C82.3226 12.2583 82.3709 12.315 82.3942 12.345ZM87.5369 12.105C87.4435 12.2183 87.3269 12.33 87.1869 12.44C87.0469 12.55 86.8785 12.65 86.6819 12.74C86.4885 12.8267 86.2669 12.8967 86.0169 12.95C85.7669 13 85.4869 13.025 85.1769 13.025C84.6735 13.025 84.2269 12.93 83.8369 12.74C83.4469 12.5467 83.1419 12.2617 82.9219 11.885C82.7052 11.505 82.5969 11.0333 82.5969 10.47C82.5969 9.90667 82.7102 9.41667 82.9369 9C83.1635 8.58 83.4802 8.255 83.8869 8.025C84.2935 7.79167 84.7685 7.675 85.3119 7.675C85.9985 7.675 86.5385 7.86667 86.9319 8.25C87.3285 8.63 87.5352 9.15667 87.5519 9.83C87.5552 9.95333 87.5535 10.065 87.5469 10.165C87.5402 10.265 87.5269 10.3717 87.5069 10.485C87.4569 10.4817 87.3502 10.4783 87.1869 10.475C87.0235 10.4717 86.8385 10.4683 86.6319 10.465C86.4285 10.4583 86.2352 10.4533 86.0519 10.45C85.8719 10.4467 85.7385 10.445 85.6519 10.445C85.3619 10.445 85.0802 10.4583 84.8069 10.485C84.5369 10.5117 84.3102 10.54 84.1269 10.57C84.1269 10.63 84.1302 10.69 84.1369 10.75C84.1469 10.8067 84.1602 10.8617 84.1769 10.915C84.2202 11.0517 84.2952 11.1683 84.4019 11.265C84.5119 11.3617 84.6419 11.4367 84.7919 11.49C84.9452 11.54 85.1069 11.565 85.2769 11.565C85.4302 11.565 85.5702 11.5467 85.6969 11.51C85.8269 11.47 85.9452 11.4183 86.0519 11.355C86.1585 11.2917 86.2552 11.2233 86.3419 11.15C86.4319 11.0733 86.5152 10.9983 86.5919 10.925C86.6119 10.9417 86.6635 10.9917 86.7469 11.075C86.8302 11.155 86.9235 11.255 87.0269 11.375C87.1302 11.4917 87.2285 11.615 87.3219 11.745C87.4152 11.875 87.4869 11.995 87.5369 12.105ZM84.1819 9.635C84.3319 9.61167 84.5169 9.59 84.7369 9.57C84.9569 9.55 85.2119 9.54 85.5019 9.54C85.6585 9.54 85.7969 9.54167 85.9169 9.545C86.0402 9.54833 86.1269 9.55167 86.1769 9.555C86.1769 9.485 86.1669 9.40833 86.1469 9.325C86.1202 9.21167 86.0669 9.10333 85.9869 9C85.9102 8.89667 85.8102 8.81333 85.6869 8.75C85.5669 8.68667 85.4219 8.655 85.2519 8.655C85.0385 8.655 84.8519 8.70167 84.6919 8.795C84.5352 8.88833 84.4135 9.01 84.3269 9.16C84.2402 9.31 84.1919 9.46833 84.1819 9.635Z" fill="white"/>
</svg>
