<svg width="78" height="22" viewBox="0 0 78 22" fill="none" xmlns="http://www.w3.org/2000/svg">
<path d="M0.972438 18.9847C0.0461014 17.3925 -0.648652 4.19963 0.972438 2.778C2.59353 1.35636 28.7625 2.20934 42.426 2.778C56.0894 3.34665 74.153 2.49366 76.4688 3.34664C78.7847 4.19963 78.1131 19.3828 76.8162 20.975C75.1951 22.9653 46.3629 21.5437 39.5312 20.975C32.6994 20.4064 2.13036 20.975 0.972438 18.9847Z" fill="#214868"/>
<path d="M0.972438 16.9847C0.0461014 15.3925 -0.648652 2.19963 0.972438 0.777996C2.59353 -0.643639 28.7625 0.209344 42.426 0.777996C56.0894 1.34665 74.153 0.493659 76.4688 1.34664C78.7847 2.19963 78.1131 17.3828 76.8162 18.975C75.1951 20.9653 46.3629 19.5437 39.5312 18.975C32.6994 18.4064 2.13036 18.975 0.972438 16.9847Z" fill="#01AB66"/>
<path d="M10.49 12.88C10.5 12.6967 10.51 12.4483 10.52 12.135C10.53 11.8183 10.5383 11.4633 10.545 11.07C10.5517 10.6733 10.555 10.265 10.555 9.845C10.555 9.425 10.5517 9.01 10.545 8.6C10.5383 8.18667 10.53 7.805 10.52 7.455C10.51 7.105 10.5 6.81167 10.49 6.575C10.5867 6.56167 10.7383 6.54667 10.945 6.53C11.1517 6.51333 11.3667 6.505 11.59 6.505C11.6967 6.505 11.8217 6.50833 11.965 6.515C12.1083 6.52167 12.205 6.53 12.255 6.54C12.2617 6.71333 12.2633 6.93333 12.26 7.2C12.26 7.46667 12.255 7.765 12.245 8.095C12.2383 8.425 12.2283 8.775 12.215 9.145C12.2017 9.51167 12.1867 9.88 12.17 10.25C12.16 10.4467 12.1483 10.6383 12.135 10.825C12.125 11.0083 12.1133 11.165 12.1 11.295C12.3633 11.2783 12.6233 11.265 12.88 11.255C13.1367 11.245 13.3933 11.2367 13.65 11.23C13.91 11.2233 14.17 11.22 14.43 11.22C14.4433 11.3067 14.455 11.4433 14.465 11.63C14.475 11.8167 14.4833 12.0167 14.49 12.23C14.4967 12.44 14.5 12.6233 14.5 12.78C14.1 12.8333 13.695 12.8733 13.285 12.9C12.8783 12.9233 12.4917 12.9367 12.125 12.94C11.8217 12.9433 11.5283 12.94 11.245 12.93C10.965 12.9167 10.7133 12.9 10.49 12.88ZM17.8047 13.11C16.9214 13.11 16.2564 12.8767 15.8097 12.41C15.363 11.94 15.1397 11.2583 15.1397 10.365C15.1397 9.76833 15.2547 9.27333 15.4847 8.88C15.7147 8.48333 16.033 8.185 16.4397 7.985C16.8497 7.785 17.323 7.685 17.8597 7.685C18.4064 7.685 18.8597 7.81 19.2197 8.06C19.583 8.31 19.8547 8.655 20.0347 9.095C20.2147 9.535 20.3047 10.0433 20.3047 10.62C20.3047 11.1233 20.208 11.5617 20.0147 11.935C19.8214 12.3083 19.538 12.5983 19.1647 12.805C18.7947 13.0083 18.3414 13.11 17.8047 13.11ZM17.7497 11.675C17.933 11.675 18.0947 11.6433 18.2347 11.58C18.378 11.5167 18.498 11.4267 18.5947 11.31C18.6947 11.19 18.7697 11.05 18.8197 10.89C18.8697 10.73 18.8947 10.555 18.8947 10.365C18.8947 10.0683 18.8514 9.80667 18.7647 9.58C18.6814 9.35 18.5564 9.17167 18.3897 9.045C18.2264 8.915 18.023 8.85 17.7797 8.85C17.5164 8.85 17.3014 8.91667 17.1347 9.05C16.968 9.18333 16.8447 9.35833 16.7647 9.575C16.688 9.78833 16.6497 10.0167 16.6497 10.26C16.6497 10.67 16.743 11.0083 16.9297 11.275C17.1197 11.5417 17.393 11.675 17.7497 11.675ZM25.5441 11.94C25.4441 12.1133 25.2924 12.285 25.0891 12.455C24.8857 12.625 24.6341 12.7667 24.3341 12.88C24.0341 12.9933 23.6891 13.05 23.2991 13.05C22.7924 13.05 22.3541 12.925 21.9841 12.675C21.6141 12.4217 21.3274 12.0867 21.1241 11.67C20.9241 11.25 20.8241 10.79 20.8241 10.29C20.8241 9.76333 20.9274 9.29167 21.1341 8.875C21.3441 8.45833 21.6391 8.12833 22.0191 7.885C22.3991 7.64167 22.8491 7.52 23.3691 7.52C23.6791 7.52 23.9641 7.56833 24.2241 7.665C24.4841 7.76167 24.7124 7.89833 24.9091 8.075C25.1091 8.25167 25.2741 8.45833 25.4041 8.695L24.3141 9.305C24.3041 9.27833 24.2807 9.23667 24.2441 9.18C24.2107 9.12333 24.1607 9.06333 24.0941 9C24.0274 8.93667 23.9391 8.88333 23.8291 8.84C23.7224 8.79667 23.5891 8.775 23.4291 8.775C23.1891 8.775 22.9857 8.82667 22.8191 8.93C22.6524 9.03333 22.5257 9.18 22.4391 9.37C22.3557 9.56 22.3141 9.78333 22.3141 10.04C22.3141 10.2533 22.3457 10.4683 22.4091 10.685C22.4724 10.8983 22.5791 11.0767 22.7291 11.22C22.8791 11.3633 23.0857 11.435 23.3491 11.435C23.5057 11.435 23.6507 11.4083 23.7841 11.355C23.9174 11.3017 24.0324 11.2383 24.1291 11.165C24.2291 11.0883 24.3091 11.0167 24.3691 10.95C24.4291 10.8833 24.4657 10.8383 24.4791 10.815L25.5441 11.94ZM28.341 13.085C27.931 13.085 27.556 13.03 27.216 12.92C26.876 12.8067 26.6043 12.625 26.401 12.375C26.201 12.1217 26.101 11.7867 26.101 11.37C26.101 10.9533 26.2177 10.6183 26.451 10.365C26.6877 10.1083 26.9977 9.92333 27.381 9.81C27.7677 9.69333 28.1827 9.635 28.626 9.635C28.7993 9.635 28.966 9.64833 29.126 9.675C29.286 9.70167 29.426 9.73333 29.546 9.77C29.6693 9.80667 29.7577 9.84167 29.811 9.875C29.8077 9.78833 29.7893 9.69667 29.756 9.6C29.726 9.50333 29.6827 9.42167 29.626 9.355C29.526 9.21833 29.3893 9.105 29.216 9.015C29.046 8.92167 28.821 8.875 28.541 8.875C28.2577 8.875 28.0077 8.94 27.791 9.07C27.5743 9.19667 27.4093 9.34 27.296 9.5L26.076 8.715C26.226 8.50167 26.4277 8.315 26.681 8.155C26.9377 7.995 27.2277 7.87 27.551 7.78C27.8777 7.69 28.2193 7.645 28.576 7.645C29.166 7.645 29.6443 7.74167 30.011 7.935C30.3777 8.12833 30.6493 8.39833 30.826 8.745C30.9093 8.91167 30.9777 9.095 31.031 9.295C31.0843 9.495 31.121 9.725 31.141 9.985C31.1543 10.2083 31.1643 10.4167 31.171 10.61C31.1777 10.8033 31.1843 10.9867 31.191 11.16C31.1977 11.4133 31.226 11.5783 31.276 11.655C31.326 11.7317 31.3977 11.77 31.491 11.77C31.5777 11.77 31.6543 11.7467 31.721 11.7C31.791 11.65 31.836 11.585 31.856 11.505L32.376 12.5C32.3393 12.6533 32.236 12.7817 32.066 12.885C31.896 12.9883 31.681 13.04 31.421 13.04C31.231 13.04 31.051 13.0083 30.881 12.945C30.711 12.8783 30.571 12.79 30.461 12.68C30.351 12.5667 30.286 12.4383 30.266 12.295C30.2127 12.4217 30.101 12.5467 29.931 12.67C29.761 12.79 29.5427 12.89 29.276 12.97C29.0093 13.0467 28.6977 13.085 28.341 13.085ZM28.676 11.91C28.8327 11.91 28.9927 11.8867 29.156 11.84C29.3227 11.79 29.4727 11.7283 29.606 11.655C29.7427 11.5817 29.8477 11.5067 29.921 11.43C29.9143 11.3267 29.9077 11.22 29.901 11.11C29.8977 11 29.8977 10.9067 29.901 10.83C29.8277 10.8 29.6877 10.7683 29.481 10.735C29.2777 10.6983 29.0643 10.68 28.841 10.68C28.6377 10.68 28.4477 10.7017 28.271 10.745C28.0943 10.7883 27.9493 10.855 27.836 10.945C27.726 11.035 27.671 11.1517 27.671 11.295C27.671 11.4483 27.7127 11.57 27.796 11.66C27.8793 11.75 27.996 11.815 28.146 11.855C28.296 11.8917 28.4727 11.91 28.676 11.91ZM35.5006 12.765C35.4073 12.865 35.2323 12.9617 34.9756 13.055C34.7223 13.1517 34.439 13.2 34.1256 13.2C33.719 13.2 33.409 13.105 33.1956 12.915C32.9856 12.725 32.844 12.4567 32.7706 12.11C32.6973 11.76 32.6606 11.3533 32.6606 10.89C32.6606 10.5267 32.664 10.1617 32.6706 9.795C32.6773 9.42833 32.6856 9.065 32.6956 8.705C32.709 8.345 32.7223 7.99667 32.7356 7.66C32.7523 7.32 32.7673 6.99833 32.7806 6.695C32.7973 6.38833 32.814 6.10833 32.8306 5.855C33.0673 5.83833 33.2856 5.83 33.4856 5.83C33.6156 5.83 33.744 5.83333 33.8706 5.84C33.9973 5.84667 34.1373 5.85667 34.2906 5.87C34.274 6.16 34.254 6.48167 34.2306 6.835C34.2106 7.185 34.1906 7.54333 34.1706 7.91C34.154 8.27667 34.1373 8.63167 34.1206 8.975C34.104 9.31833 34.0906 9.63 34.0806 9.91C34.074 10.1867 34.0706 10.4083 34.0706 10.575C34.0706 10.7917 34.079 10.9933 34.0956 11.18C34.1156 11.3633 34.159 11.5133 34.2256 11.63C34.2923 11.7433 34.3923 11.8 34.5256 11.8C34.639 11.8 34.7306 11.775 34.8006 11.725C34.874 11.6717 34.934 11.605 34.9806 11.525C35.004 11.565 35.0406 11.645 35.0906 11.765C35.1406 11.8817 35.1956 12.0117 35.2556 12.155C35.3156 12.2983 35.369 12.4283 35.4156 12.545C35.4623 12.6583 35.4906 12.7317 35.5006 12.765ZM38.4583 13.155C37.8649 13.155 37.3983 13.0217 37.0583 12.755C36.7216 12.4883 36.4699 12.1083 36.3033 11.615C36.1499 11.1717 36.0533 10.6333 36.0133 10C35.9766 9.36333 35.9583 8.645 35.9583 7.845C35.9583 7.72167 35.9599 7.59333 35.9633 7.46C35.9666 7.32667 35.9699 7.19167 35.9733 7.055C35.9766 6.915 35.9799 6.78 35.9833 6.65C35.9899 6.52 35.9949 6.4 35.9983 6.29C36.1349 6.27333 36.2733 6.26167 36.4133 6.255C36.5533 6.245 36.6866 6.24 36.8133 6.24C36.9833 6.24 37.1516 6.245 37.3183 6.255C37.4849 6.265 37.6333 6.27667 37.7633 6.29C37.7433 6.54 37.7249 6.81167 37.7083 7.105C37.6916 7.39833 37.6783 7.69833 37.6683 8.005C37.6616 8.30833 37.6583 8.60333 37.6583 8.89C37.6583 9.22333 37.6683 9.52 37.6883 9.78C37.7083 10.0367 37.7399 10.2567 37.7833 10.44C37.8466 10.7133 37.9416 10.915 38.0683 11.045C38.1949 11.175 38.3583 11.24 38.5583 11.24C38.7783 11.24 38.9499 11.165 39.0733 11.015C39.1999 10.865 39.2883 10.6533 39.3383 10.38C39.3883 10.1067 39.4133 9.78833 39.4133 9.425C39.4133 9.29167 39.4099 9.12 39.4033 8.91C39.3999 8.69667 39.3949 8.46667 39.3883 8.22C39.3816 7.97 39.3733 7.72333 39.3633 7.48C39.3533 7.23667 39.3416 7.01667 39.3283 6.82C39.3149 6.62 39.3016 6.465 39.2883 6.355C39.4216 6.355 39.5749 6.36167 39.7483 6.375C39.9249 6.385 40.0983 6.39667 40.2683 6.41C40.4416 6.42333 40.5916 6.43833 40.7183 6.455C40.8449 6.47167 40.9266 6.485 40.9633 6.495C40.9933 6.67167 41.0166 6.865 41.0333 7.075C41.0499 7.28167 41.0633 7.49667 41.0733 7.72C41.0833 7.94333 41.0883 8.16667 41.0883 8.39C41.0883 9.05333 41.0533 9.67333 40.9833 10.25C40.9166 10.8267 40.7899 11.3333 40.6033 11.77C40.4166 12.2033 40.1499 12.5433 39.8033 12.79C39.4566 13.0333 39.0083 13.155 38.4583 13.155ZM41.8227 15.24C41.8627 14.6967 41.8977 14.125 41.9277 13.525C41.9611 12.925 41.9877 12.33 42.0077 11.74C42.0277 11.15 42.0444 10.595 42.0577 10.075C42.0744 9.555 42.0844 9.1 42.0877 8.71C42.0944 8.31667 42.0977 8.02 42.0977 7.82C42.3044 7.75333 42.5427 7.70667 42.8127 7.68C43.0827 7.65 43.3444 7.635 43.5977 7.635C43.6077 7.74167 43.6161 7.86833 43.6227 8.015C43.6294 8.15833 43.6327 8.29 43.6327 8.41C43.6961 8.32667 43.8061 8.225 43.9627 8.105C44.1194 7.98167 44.3161 7.87333 44.5527 7.78C44.7894 7.68667 45.0611 7.64 45.3677 7.64C46.0444 7.64 46.5444 7.855 46.8677 8.285C47.1944 8.71167 47.3577 9.30667 47.3577 10.07C47.3577 10.6067 47.2561 11.07 47.0527 11.46C46.8494 11.85 46.5727 12.15 46.2227 12.36C45.8727 12.5667 45.4727 12.67 45.0227 12.67C44.8194 12.67 44.6127 12.645 44.4027 12.595C44.1961 12.5417 44.0111 12.4767 43.8477 12.4C43.6877 12.32 43.5777 12.2433 43.5177 12.17C43.5177 12.25 43.5127 12.3833 43.5027 12.57C43.4961 12.7567 43.4877 12.9683 43.4777 13.205C43.4677 13.445 43.4544 13.6883 43.4377 13.935C43.4244 14.1817 43.4111 14.4083 43.3977 14.615C43.3844 14.825 43.3711 14.9883 43.3577 15.105C43.1811 15.1417 42.9927 15.1683 42.7927 15.185C42.5961 15.205 42.4111 15.2183 42.2377 15.225C42.0644 15.235 41.9261 15.24 41.8227 15.24ZM44.7827 11.12C45.0127 11.12 45.2061 11.0733 45.3627 10.98C45.5194 10.8867 45.6377 10.7533 45.7177 10.58C45.7977 10.4033 45.8377 10.1933 45.8377 9.95C45.8377 9.62333 45.7611 9.37167 45.6077 9.195C45.4577 9.01833 45.2144 8.93 44.8777 8.93C44.6744 8.93 44.4894 8.96167 44.3227 9.025C44.1561 9.08833 44.0144 9.165 43.8977 9.255C43.7844 9.34167 43.6977 9.42333 43.6377 9.5C43.6377 9.54667 43.6361 9.62167 43.6327 9.725C43.6294 9.825 43.6261 9.93667 43.6227 10.06C43.6194 10.18 43.6161 10.2933 43.6127 10.4C43.6094 10.5067 43.6077 10.59 43.6077 10.65C43.6644 10.7067 43.7427 10.7717 43.8427 10.845C43.9427 10.9183 44.0694 10.9833 44.2227 11.04C44.3761 11.0933 44.5627 11.12 44.7827 11.12ZM51.611 12.985C51.6043 12.9383 51.5993 12.8717 51.596 12.785C51.5927 12.6983 51.5893 12.61 51.586 12.52C51.586 12.4267 51.586 12.3517 51.586 12.295C51.546 12.3517 51.4827 12.42 51.396 12.5C51.3127 12.5767 51.2043 12.6533 51.071 12.73C50.9377 12.8067 50.776 12.8717 50.586 12.925C50.396 12.975 50.1743 13 49.921 13C49.501 13 49.1393 12.8983 48.836 12.695C48.5327 12.4917 48.2993 12.215 48.136 11.865C47.9727 11.5117 47.891 11.115 47.891 10.675C47.891 10.2417 47.9727 9.83833 48.136 9.465C48.3027 9.08833 48.551 8.785 48.881 8.555C49.211 8.32167 49.626 8.205 50.126 8.205C50.376 8.205 50.6027 8.23333 50.806 8.29C51.0127 8.34667 51.1877 8.41833 51.331 8.505C51.4743 8.58833 51.576 8.67333 51.636 8.76C51.646 8.57667 51.6593 8.36667 51.676 8.13C51.6927 7.89 51.711 7.645 51.731 7.395C51.7543 7.14167 51.776 6.90167 51.796 6.675C51.816 6.44833 51.8327 6.255 51.846 6.095C51.8627 5.93167 51.8743 5.82333 51.881 5.77C52.0743 5.77 52.291 5.78167 52.531 5.805C52.7743 5.825 52.9893 5.86 53.176 5.91C53.1193 6.67333 53.0743 7.43667 53.041 8.2C53.0077 8.96 52.9843 9.73833 52.971 10.535C52.961 11.3283 52.956 12.16 52.956 13.03C52.8793 13.03 52.7527 13.0283 52.576 13.025C52.4027 13.0217 52.2243 13.0167 52.041 13.01C51.8577 13.0033 51.7143 12.995 51.611 12.985ZM50.336 11.545C50.4827 11.545 50.6177 11.5283 50.741 11.495C50.8643 11.4617 50.9777 11.4167 51.081 11.36C51.1843 11.3 51.2743 11.2367 51.351 11.17C51.431 11.1 51.4977 11.03 51.551 10.96C51.551 10.8933 51.551 10.8117 51.551 10.715C51.551 10.615 51.551 10.515 51.551 10.415C51.5543 10.315 51.556 10.22 51.556 10.13C51.5593 10.04 51.5627 9.97 51.566 9.92C51.4927 9.85 51.391 9.78167 51.261 9.715C51.131 9.64833 50.9877 9.595 50.831 9.555C50.6777 9.51167 50.521 9.49 50.361 9.49C50.0343 9.49 49.7793 9.58833 49.596 9.785C49.416 9.97833 49.326 10.23 49.326 10.54C49.326 10.8667 49.4127 11.1167 49.586 11.29C49.7627 11.46 50.0127 11.545 50.336 11.545ZM56.1926 13.085C55.7826 13.085 55.4076 13.03 55.0676 12.92C54.7276 12.8067 54.4559 12.625 54.2526 12.375C54.0526 12.1217 53.9526 11.7867 53.9526 11.37C53.9526 10.9533 54.0692 10.6183 54.3026 10.365C54.5392 10.1083 54.8492 9.92333 55.2326 9.81C55.6192 9.69333 56.0342 9.635 56.4776 9.635C56.6509 9.635 56.8176 9.64833 56.9776 9.675C57.1376 9.70167 57.2776 9.73333 57.3976 9.77C57.5209 9.80667 57.6092 9.84167 57.6626 9.875C57.6592 9.78833 57.6409 9.69667 57.6076 9.6C57.5776 9.50333 57.5342 9.42167 57.4776 9.355C57.3776 9.21833 57.2409 9.105 57.0676 9.015C56.8976 8.92167 56.6726 8.875 56.3926 8.875C56.1092 8.875 55.8592 8.94 55.6426 9.07C55.4259 9.19667 55.2609 9.34 55.1476 9.5L53.9276 8.715C54.0776 8.50167 54.2792 8.315 54.5326 8.155C54.7892 7.995 55.0792 7.87 55.4026 7.78C55.7292 7.69 56.0709 7.645 56.4276 7.645C57.0176 7.645 57.4959 7.74167 57.8626 7.935C58.2292 8.12833 58.5009 8.39833 58.6776 8.745C58.7609 8.91167 58.8292 9.095 58.8826 9.295C58.9359 9.495 58.9726 9.725 58.9926 9.985C59.0059 10.2083 59.0159 10.4167 59.0226 10.61C59.0292 10.8033 59.0359 10.9867 59.0426 11.16C59.0492 11.4133 59.0776 11.5783 59.1276 11.655C59.1776 11.7317 59.2492 11.77 59.3426 11.77C59.4292 11.77 59.5059 11.7467 59.5726 11.7C59.6426 11.65 59.6876 11.585 59.7076 11.505L60.2276 12.5C60.1909 12.6533 60.0876 12.7817 59.9176 12.885C59.7476 12.9883 59.5326 13.04 59.2726 13.04C59.0826 13.04 58.9026 13.0083 58.7326 12.945C58.5626 12.8783 58.4226 12.79 58.3126 12.68C58.2026 12.5667 58.1376 12.4383 58.1176 12.295C58.0642 12.4217 57.9526 12.5467 57.7826 12.67C57.6126 12.79 57.3942 12.89 57.1276 12.97C56.8609 13.0467 56.5492 13.085 56.1926 13.085ZM56.5276 11.91C56.6842 11.91 56.8442 11.8867 57.0076 11.84C57.1742 11.79 57.3242 11.7283 57.4576 11.655C57.5942 11.5817 57.6992 11.5067 57.7726 11.43C57.7659 11.3267 57.7592 11.22 57.7526 11.11C57.7492 11 57.7492 10.9067 57.7526 10.83C57.6792 10.8 57.5392 10.7683 57.3326 10.735C57.1292 10.6983 56.9159 10.68 56.6926 10.68C56.4892 10.68 56.2992 10.7017 56.1226 10.745C55.9459 10.7883 55.8009 10.855 55.6876 10.945C55.5776 11.035 55.5226 11.1517 55.5226 11.295C55.5226 11.4483 55.5642 11.57 55.6476 11.66C55.7309 11.75 55.8476 11.815 55.9976 11.855C56.1476 11.8917 56.3242 11.91 56.5276 11.91ZM64.0036 12.345C63.9403 12.4683 63.8403 12.6 63.7036 12.74C63.5703 12.8767 63.3953 12.9933 63.1786 13.09C62.9653 13.19 62.7053 13.24 62.3986 13.24C61.9953 13.24 61.6653 13.155 61.4086 12.985C61.1553 12.815 60.9669 12.5883 60.8436 12.305C60.7236 12.0217 60.6636 11.7117 60.6636 11.375C60.6636 11.1917 60.6653 10.9967 60.6686 10.79C60.6753 10.58 60.6819 10.3733 60.6886 10.17C60.6953 9.96333 60.7019 9.76833 60.7086 9.585C60.7186 9.39833 60.7269 9.235 60.7336 9.095C60.7436 8.955 60.7503 8.84667 60.7536 8.77C60.4903 8.79667 60.2469 8.82667 60.0236 8.86C59.8003 8.89 59.6453 8.915 59.5586 8.935C59.5253 8.74833 59.5003 8.55833 59.4836 8.365C59.4669 8.17167 59.4536 8.00333 59.4436 7.86C59.4369 7.71667 59.4336 7.62833 59.4336 7.595C59.6269 7.56833 59.8336 7.545 60.0536 7.525C60.2736 7.50167 60.5053 7.485 60.7486 7.475C60.7453 7.395 60.7419 7.27 60.7386 7.1C60.7353 6.93 60.7303 6.77667 60.7236 6.64C60.7203 6.51667 60.7136 6.39333 60.7036 6.27C60.6936 6.14333 60.6853 6.04167 60.6786 5.965L62.1586 5.835C62.1586 5.875 62.1586 5.96833 62.1586 6.115C62.1619 6.26167 62.1636 6.43833 62.1636 6.645C62.1636 6.74833 62.1653 6.86833 62.1686 7.005C62.1719 7.13833 62.1753 7.27 62.1786 7.4C62.2886 7.39333 62.4169 7.38667 62.5636 7.38C62.7103 7.37333 62.8269 7.36833 62.9136 7.365C63.0536 7.35833 63.1803 7.355 63.2936 7.355C63.4069 7.35167 63.5003 7.35 63.5736 7.35C63.6503 7.35 63.7019 7.35167 63.7286 7.355C63.7486 7.51167 63.7619 7.71167 63.7686 7.955C63.7753 8.195 63.7786 8.40833 63.7786 8.595C63.7453 8.59167 63.6369 8.59333 63.4536 8.6C63.2703 8.60333 63.0903 8.61 62.9136 8.62C62.7903 8.62333 62.6536 8.63 62.5036 8.64C62.3536 8.65 62.2353 8.66 62.1486 8.67C62.1453 8.74 62.1403 8.83667 62.1336 8.96C62.1303 9.08 62.1253 9.21667 62.1186 9.37C62.1153 9.52 62.1103 9.67667 62.1036 9.84C62.1003 10 62.0969 10.155 62.0936 10.305C62.0903 10.455 62.0886 10.5883 62.0886 10.705C62.0886 10.925 62.0986 11.1233 62.1186 11.3C62.1419 11.4733 62.1903 11.6117 62.2636 11.715C62.3403 11.815 62.4569 11.865 62.6136 11.865C62.7169 11.865 62.8053 11.835 62.8786 11.775C62.9519 11.715 63.0119 11.645 63.0586 11.565C63.1086 11.4817 63.1519 11.4083 63.1886 11.345C63.2319 11.405 63.2919 11.485 63.3686 11.585C63.4486 11.6817 63.5319 11.7833 63.6186 11.89C63.7086 11.9967 63.7886 12.0917 63.8586 12.175C63.9319 12.2583 63.9803 12.315 64.0036 12.345ZM69.1463 12.105C69.0529 12.2183 68.9363 12.33 68.7963 12.44C68.6563 12.55 68.4879 12.65 68.2913 12.74C68.0979 12.8267 67.8763 12.8967 67.6263 12.95C67.3763 13 67.0963 13.025 66.7863 13.025C66.2829 13.025 65.8363 12.93 65.4463 12.74C65.0563 12.5467 64.7513 12.2617 64.5312 11.885C64.3146 11.505 64.2063 11.0333 64.2063 10.47C64.2063 9.90667 64.3196 9.41667 64.5463 9C64.7729 8.58 65.0896 8.255 65.4963 8.025C65.9029 7.79167 66.3779 7.675 66.9213 7.675C67.6079 7.675 68.1479 7.86667 68.5413 8.25C68.9379 8.63 69.1446 9.15667 69.1612 9.83C69.1646 9.95333 69.1629 10.065 69.1563 10.165C69.1496 10.265 69.1363 10.3717 69.1163 10.485C69.0663 10.4817 68.9596 10.4783 68.7963 10.475C68.6329 10.4717 68.4479 10.4683 68.2413 10.465C68.0379 10.4583 67.8446 10.4533 67.6613 10.45C67.4813 10.4467 67.3479 10.445 67.2613 10.445C66.9713 10.445 66.6896 10.4583 66.4163 10.485C66.1463 10.5117 65.9196 10.54 65.7363 10.57C65.7363 10.63 65.7396 10.69 65.7463 10.75C65.7563 10.8067 65.7696 10.8617 65.7863 10.915C65.8296 11.0517 65.9046 11.1683 66.0113 11.265C66.1213 11.3617 66.2513 11.4367 66.4013 11.49C66.5546 11.54 66.7163 11.565 66.8863 11.565C67.0396 11.565 67.1796 11.5467 67.3063 11.51C67.4363 11.47 67.5546 11.4183 67.6613 11.355C67.7679 11.2917 67.8646 11.2233 67.9513 11.15C68.0413 11.0733 68.1246 10.9983 68.2013 10.925C68.2213 10.9417 68.2729 10.9917 68.3563 11.075C68.4396 11.155 68.5329 11.255 68.6363 11.375C68.7396 11.4917 68.8379 11.615 68.9312 11.745C69.0246 11.875 69.0963 11.995 69.1463 12.105ZM65.7913 9.635C65.9413 9.61167 66.1263 9.59 66.3463 9.57C66.5663 9.55 66.8213 9.54 67.1113 9.54C67.2679 9.54 67.4063 9.54167 67.5263 9.545C67.6496 9.54833 67.7363 9.55167 67.7863 9.555C67.7863 9.485 67.7763 9.40833 67.7563 9.325C67.7296 9.21167 67.6763 9.10333 67.5963 9C67.5196 8.89667 67.4196 8.81333 67.2963 8.75C67.1763 8.68667 67.0313 8.655 66.8613 8.655C66.6479 8.655 66.4613 8.70167 66.3013 8.795C66.1446 8.88833 66.0229 9.01 65.9363 9.16C65.8496 9.31 65.8013 9.46833 65.7913 9.635Z" fill="white"/>
</svg>
