<svg width="96" height="22" viewBox="0 0 96 22" fill="none" xmlns="http://www.w3.org/2000/svg">
<path d="M1.19685 18.9847C0.0567402 17.3925 -0.798341 4.19963 1.19685 2.778C3.19203 1.35636 35.4 2.20934 52.2166 2.778C69.0331 3.34665 91.2652 2.49366 94.1155 3.34664C96.9658 4.19963 96.1392 19.3828 94.543 20.975C92.5479 22.9653 57.062 21.5437 48.6538 20.975C40.2455 20.4064 2.62198 20.975 1.19685 18.9847Z" fill="#214868"/>
<path d="M1.19685 16.9847C0.0567402 15.3925 -0.798341 2.19963 1.19685 0.777996C3.19203 -0.643639 35.4 0.209344 52.2166 0.777996C69.0331 1.34665 91.2652 0.493659 94.1155 1.34664C96.9658 2.19963 96.1392 17.3828 94.543 18.975C92.5479 20.9653 57.062 19.5437 48.6538 18.975C40.2455 18.4064 2.62198 18.975 1.19685 16.9847Z" fill="#01AB66"/>
<path d="M12.7976 12.88C12.8076 12.6967 12.8176 12.4483 12.8276 12.135C12.8376 11.8183 12.846 11.4633 12.8526 11.07C12.8593 10.6733 12.8626 10.265 12.8626 9.845C12.8626 9.425 12.8593 9.01 12.8526 8.6C12.846 8.18667 12.8376 7.805 12.8276 7.455C12.8176 7.105 12.8076 6.81167 12.7976 6.575C12.8943 6.56167 13.046 6.54667 13.2526 6.53C13.4593 6.51333 13.6743 6.505 13.8976 6.505C14.0043 6.505 14.1293 6.50833 14.2726 6.515C14.416 6.52167 14.5126 6.53 14.5626 6.54C14.5693 6.71333 14.571 6.93333 14.5676 7.2C14.5676 7.46667 14.5626 7.765 14.5526 8.095C14.546 8.425 14.536 8.775 14.5226 9.145C14.5093 9.51167 14.4943 9.88 14.4776 10.25C14.4676 10.4467 14.456 10.6383 14.4426 10.825C14.4326 11.0083 14.421 11.165 14.4076 11.295C14.671 11.2783 14.931 11.265 15.1876 11.255C15.4443 11.245 15.701 11.2367 15.9576 11.23C16.2176 11.2233 16.4776 11.22 16.7376 11.22C16.751 11.3067 16.7626 11.4433 16.7726 11.63C16.7826 11.8167 16.791 12.0167 16.7976 12.23C16.8043 12.44 16.8076 12.6233 16.8076 12.78C16.4076 12.8333 16.0026 12.8733 15.5926 12.9C15.186 12.9233 14.7993 12.9367 14.4326 12.94C14.1293 12.9433 13.836 12.94 13.5526 12.93C13.2726 12.9167 13.021 12.9 12.7976 12.88ZM20.1123 13.11C19.229 13.11 18.564 12.8767 18.1173 12.41C17.6706 11.94 17.4473 11.2583 17.4473 10.365C17.4473 9.76833 17.5623 9.27333 17.7923 8.88C18.0223 8.48333 18.3406 8.185 18.7473 7.985C19.1573 7.785 19.6306 7.685 20.1673 7.685C20.714 7.685 21.1673 7.81 21.5273 8.06C21.8906 8.31 22.1623 8.655 22.3423 9.095C22.5223 9.535 22.6123 10.0433 22.6123 10.62C22.6123 11.1233 22.5156 11.5617 22.3223 11.935C22.129 12.3083 21.8456 12.5983 21.4723 12.805C21.1023 13.0083 20.649 13.11 20.1123 13.11ZM20.0573 11.675C20.2406 11.675 20.4023 11.6433 20.5423 11.58C20.6856 11.5167 20.8056 11.4267 20.9023 11.31C21.0023 11.19 21.0773 11.05 21.1273 10.89C21.1773 10.73 21.2023 10.555 21.2023 10.365C21.2023 10.0683 21.159 9.80667 21.0723 9.58C20.989 9.35 20.864 9.17167 20.6973 9.045C20.534 8.915 20.3306 8.85 20.0873 8.85C19.824 8.85 19.609 8.91667 19.4423 9.05C19.2756 9.18333 19.1523 9.35833 19.0723 9.575C18.9956 9.78833 18.9573 10.0167 18.9573 10.26C18.9573 10.67 19.0506 11.0083 19.2373 11.275C19.4273 11.5417 19.7006 11.675 20.0573 11.675ZM27.8517 11.94C27.7517 12.1133 27.6 12.285 27.3967 12.455C27.1933 12.625 26.9417 12.7667 26.6417 12.88C26.3417 12.9933 25.9967 13.05 25.6067 13.05C25.1 13.05 24.6617 12.925 24.2917 12.675C23.9217 12.4217 23.635 12.0867 23.4317 11.67C23.2317 11.25 23.1317 10.79 23.1317 10.29C23.1317 9.76333 23.235 9.29167 23.4417 8.875C23.6517 8.45833 23.9467 8.12833 24.3267 7.885C24.7067 7.64167 25.1567 7.52 25.6767 7.52C25.9867 7.52 26.2717 7.56833 26.5317 7.665C26.7917 7.76167 27.02 7.89833 27.2167 8.075C27.4167 8.25167 27.5817 8.45833 27.7117 8.695L26.6217 9.305C26.6117 9.27833 26.5883 9.23667 26.5517 9.18C26.5183 9.12333 26.4683 9.06333 26.4017 9C26.335 8.93667 26.2467 8.88333 26.1367 8.84C26.03 8.79667 25.8967 8.775 25.7367 8.775C25.4967 8.775 25.2933 8.82667 25.1267 8.93C24.96 9.03333 24.8333 9.18 24.7467 9.37C24.6633 9.56 24.6217 9.78333 24.6217 10.04C24.6217 10.2533 24.6533 10.4683 24.7167 10.685C24.78 10.8983 24.8867 11.0767 25.0367 11.22C25.1867 11.3633 25.3933 11.435 25.6567 11.435C25.8133 11.435 25.9583 11.4083 26.0917 11.355C26.225 11.3017 26.34 11.2383 26.4367 11.165C26.5367 11.0883 26.6167 11.0167 26.6767 10.95C26.7367 10.8833 26.7733 10.8383 26.7867 10.815L27.8517 11.94ZM30.6486 13.085C30.2386 13.085 29.8636 13.03 29.5236 12.92C29.1836 12.8067 28.912 12.625 28.7086 12.375C28.5086 12.1217 28.4086 11.7867 28.4086 11.37C28.4086 10.9533 28.5253 10.6183 28.7586 10.365C28.9953 10.1083 29.3053 9.92333 29.6886 9.81C30.0753 9.69333 30.4903 9.635 30.9336 9.635C31.107 9.635 31.2736 9.64833 31.4336 9.675C31.5936 9.70167 31.7336 9.73333 31.8536 9.77C31.977 9.80667 32.0653 9.84167 32.1186 9.875C32.1153 9.78833 32.097 9.69667 32.0636 9.6C32.0336 9.50333 31.9903 9.42167 31.9336 9.355C31.8336 9.21833 31.697 9.105 31.5236 9.015C31.3536 8.92167 31.1286 8.875 30.8486 8.875C30.5653 8.875 30.3153 8.94 30.0986 9.07C29.882 9.19667 29.717 9.34 29.6036 9.5L28.3836 8.715C28.5336 8.50167 28.7353 8.315 28.9886 8.155C29.2453 7.995 29.5353 7.87 29.8586 7.78C30.1853 7.69 30.527 7.645 30.8836 7.645C31.4736 7.645 31.952 7.74167 32.3186 7.935C32.6853 8.12833 32.957 8.39833 33.1336 8.745C33.217 8.91167 33.2853 9.095 33.3386 9.295C33.392 9.495 33.4286 9.725 33.4486 9.985C33.462 10.2083 33.472 10.4167 33.4786 10.61C33.4853 10.8033 33.492 10.9867 33.4986 11.16C33.5053 11.4133 33.5336 11.5783 33.5836 11.655C33.6336 11.7317 33.7053 11.77 33.7986 11.77C33.8853 11.77 33.962 11.7467 34.0286 11.7C34.0986 11.65 34.1436 11.585 34.1636 11.505L34.6836 12.5C34.647 12.6533 34.5436 12.7817 34.3736 12.885C34.2036 12.9883 33.9886 13.04 33.7286 13.04C33.5386 13.04 33.3586 13.0083 33.1886 12.945C33.0186 12.8783 32.8786 12.79 32.7686 12.68C32.6586 12.5667 32.5936 12.4383 32.5736 12.295C32.5203 12.4217 32.4086 12.5467 32.2386 12.67C32.0686 12.79 31.8503 12.89 31.5836 12.97C31.317 13.0467 31.0053 13.085 30.6486 13.085ZM30.9836 11.91C31.1403 11.91 31.3003 11.8867 31.4636 11.84C31.6303 11.79 31.7803 11.7283 31.9136 11.655C32.0503 11.5817 32.1553 11.5067 32.2286 11.43C32.222 11.3267 32.2153 11.22 32.2086 11.11C32.2053 11 32.2053 10.9067 32.2086 10.83C32.1353 10.8 31.9953 10.7683 31.7886 10.735C31.5853 10.6983 31.372 10.68 31.1486 10.68C30.9453 10.68 30.7553 10.7017 30.5786 10.745C30.402 10.7883 30.257 10.855 30.1436 10.945C30.0336 11.035 29.9786 11.1517 29.9786 11.295C29.9786 11.4483 30.0203 11.57 30.1036 11.66C30.187 11.75 30.3036 11.815 30.4536 11.855C30.6036 11.8917 30.7803 11.91 30.9836 11.91ZM37.8082 12.765C37.7149 12.865 37.5399 12.9617 37.2832 13.055C37.0299 13.1517 36.7466 13.2 36.4332 13.2C36.0266 13.2 35.7166 13.105 35.5032 12.915C35.2932 12.725 35.1516 12.4567 35.0782 12.11C35.0049 11.76 34.9682 11.3533 34.9682 10.89C34.9682 10.5267 34.9716 10.1617 34.9782 9.795C34.9849 9.42833 34.9932 9.065 35.0032 8.705C35.0166 8.345 35.0299 7.99667 35.0432 7.66C35.0599 7.32 35.0749 6.99833 35.0882 6.695C35.1049 6.38833 35.1216 6.10833 35.1382 5.855C35.3749 5.83833 35.5932 5.83 35.7932 5.83C35.9232 5.83 36.0516 5.83333 36.1782 5.84C36.3049 5.84667 36.4449 5.85667 36.5982 5.87C36.5816 6.16 36.5616 6.48167 36.5382 6.835C36.5182 7.185 36.4982 7.54333 36.4782 7.91C36.4616 8.27667 36.4449 8.63167 36.4282 8.975C36.4116 9.31833 36.3982 9.63 36.3882 9.91C36.3816 10.1867 36.3782 10.4083 36.3782 10.575C36.3782 10.7917 36.3866 10.9933 36.4032 11.18C36.4232 11.3633 36.4666 11.5133 36.5332 11.63C36.5999 11.7433 36.6999 11.8 36.8332 11.8C36.9466 11.8 37.0382 11.775 37.1082 11.725C37.1816 11.6717 37.2416 11.605 37.2882 11.525C37.3116 11.565 37.3482 11.645 37.3982 11.765C37.4482 11.8817 37.5032 12.0117 37.5632 12.155C37.6232 12.2983 37.6766 12.4283 37.7232 12.545C37.7699 12.6583 37.7982 12.7317 37.8082 12.765ZM38.3209 13C38.3209 12.7433 38.3226 12.4217 38.3259 12.035C38.3292 11.6483 38.3342 11.2267 38.3409 10.77C38.3476 10.31 38.3559 9.84 38.3659 9.36C38.3759 8.88 38.3876 8.41667 38.4009 7.97C38.4142 7.52333 38.4309 7.12167 38.4509 6.765C38.6109 6.74833 38.7992 6.735 39.0159 6.725C39.2359 6.715 39.4509 6.70833 39.6609 6.705C39.8742 6.69833 40.0542 6.695 40.2009 6.695C40.3476 6.69167 40.4292 6.69 40.4459 6.69C40.4526 6.70333 40.4759 6.78333 40.5159 6.93C40.5592 7.07667 40.6126 7.26667 40.6759 7.5C40.7426 7.73333 40.8142 7.99 40.8909 8.27C40.9676 8.55 41.0442 8.835 41.1209 9.125C41.2009 9.415 41.2759 9.69 41.3459 9.95C41.4159 10.2067 41.4726 10.4283 41.5159 10.615C41.5626 10.8017 41.5926 10.93 41.6059 11L41.4209 11.025C41.4542 10.9317 41.5042 10.7783 41.5709 10.565C41.6376 10.3517 41.7126 10.105 41.7959 9.825C41.8826 9.54167 41.9692 9.245 42.0559 8.935C42.1459 8.62167 42.2326 8.31833 42.3159 8.025C42.3992 7.73167 42.4709 7.47 42.5309 7.24C42.5942 7.00667 42.6392 6.83 42.6659 6.71C42.8059 6.71 42.9842 6.71333 43.2009 6.72C43.4209 6.72667 43.6426 6.73667 43.8659 6.75C44.0892 6.76333 44.2742 6.78333 44.4209 6.81C44.4876 7.11 44.5342 7.49833 44.5609 7.975C44.5876 8.44833 44.6009 8.95 44.6009 9.48C44.6009 9.90667 44.5942 10.34 44.5809 10.78C44.5709 11.2167 44.5559 11.6267 44.5359 12.01C44.5159 12.3933 44.4942 12.7167 44.4709 12.98C44.3076 12.98 44.1309 12.9767 43.9409 12.97C43.7509 12.9633 43.5692 12.955 43.3959 12.945C43.2259 12.9317 43.0909 12.9217 42.9909 12.915C43.0076 12.6983 43.0226 12.42 43.0359 12.08C43.0526 11.74 43.0659 11.3883 43.0759 11.025C43.0859 10.8017 43.0926 10.5767 43.0959 10.35C43.1026 10.1233 43.1076 9.91667 43.1109 9.73C43.1176 9.54333 43.1226 9.39833 43.1259 9.295C43.0892 9.425 43.0376 9.595 42.9709 9.805C42.9076 10.0117 42.8342 10.24 42.7509 10.49C42.6709 10.74 42.5859 10.9933 42.4959 11.25C42.4092 11.5033 42.3242 11.745 42.2409 11.975C42.1609 12.205 42.0892 12.4033 42.0259 12.57C41.9659 12.7367 41.9192 12.8533 41.8859 12.92C41.8392 12.9233 41.7676 12.9267 41.6709 12.93C41.5776 12.93 41.5059 12.93 41.4559 12.93C41.3659 12.93 41.2726 12.9267 41.1759 12.92C41.0826 12.91 40.9792 12.8983 40.8659 12.885C40.8559 12.8417 40.8342 12.7517 40.8009 12.615C40.7709 12.4783 40.7309 12.31 40.6809 12.11C40.6309 11.91 40.5759 11.6917 40.5159 11.455C40.4592 11.215 40.4009 10.9717 40.3409 10.725C40.2809 10.475 40.2209 10.2333 40.1609 10C40.1009 9.76667 40.0459 9.555 39.9959 9.365C39.9492 9.175 39.9092 9.02167 39.8759 8.905C39.8792 9.22167 39.8809 9.55833 39.8809 9.915C39.8842 10.2717 39.8859 10.6217 39.8859 10.965C39.8859 11.3083 39.8859 11.625 39.8859 11.915C39.8892 12.2017 39.8909 12.44 39.8909 12.63C39.8909 12.82 39.8909 12.935 39.8909 12.975C39.7742 12.9783 39.6259 12.9833 39.4459 12.99C39.2659 12.9933 39.0776 12.9967 38.8809 13C38.6842 13 38.4976 13 38.3209 13ZM49.2051 13.065C48.8785 13.045 48.5551 13.025 48.2351 13.005C47.9151 12.9883 47.5901 12.975 47.2601 12.965C46.9935 12.9517 46.7218 12.9383 46.4451 12.925C46.1685 12.9083 45.8951 12.8933 45.6251 12.88C45.6018 12.32 45.5851 11.7767 45.5751 11.25C45.5685 10.72 45.5651 10.2233 45.5651 9.76C45.5651 9.01667 45.5718 8.385 45.5851 7.865C45.5985 7.345 45.6118 6.97167 45.6251 6.745C46.2551 6.62833 46.8385 6.54333 47.3751 6.49C47.9118 6.43333 48.3601 6.39833 48.7201 6.385C49.0835 6.37167 49.3101 6.365 49.4001 6.365C49.4001 6.58167 49.3935 6.795 49.3801 7.005C49.3668 7.21167 49.3501 7.43 49.3301 7.66L47.1901 7.835C47.1868 7.87833 47.1835 7.94667 47.1801 8.04C47.1768 8.13 47.1735 8.23 47.1701 8.34C47.1701 8.44667 47.1701 8.54667 47.1701 8.64C47.1701 8.73333 47.1701 8.80167 47.1701 8.845C47.2468 8.845 47.3451 8.845 47.4651 8.845C47.5885 8.84167 47.7218 8.83833 47.8651 8.835C48.0118 8.83167 48.1585 8.82833 48.3051 8.825C48.4518 8.82167 48.5885 8.82 48.7151 8.82C48.8451 8.81667 48.9551 8.81333 49.0451 8.81L49.0251 10.18C48.9818 10.18 48.8968 10.1783 48.7701 10.175C48.6435 10.1683 48.4968 10.1617 48.3301 10.155C48.1668 10.1483 48.0018 10.1433 47.8351 10.14C47.6685 10.1333 47.5218 10.1283 47.3951 10.125C47.2685 10.1217 47.1818 10.1217 47.1351 10.125C47.1318 10.1583 47.1285 10.215 47.1251 10.295C47.1251 10.3717 47.1235 10.46 47.1201 10.56C47.1201 10.6567 47.1201 10.7583 47.1201 10.865C47.1201 10.9683 47.1185 11.065 47.1151 11.155C47.1151 11.2417 47.1151 11.3117 47.1151 11.365C47.1585 11.365 47.2751 11.365 47.4651 11.365C47.6551 11.3617 47.8501 11.36 48.0501 11.36C48.2168 11.36 48.3835 11.3633 48.5501 11.37C48.7168 11.3767 48.8718 11.385 49.0151 11.395C49.1585 11.4017 49.2751 11.4083 49.3651 11.415C49.3651 11.5483 49.3585 11.7017 49.3451 11.875C49.3318 12.045 49.3168 12.2133 49.3001 12.38C49.2868 12.5467 49.2701 12.6933 49.2501 12.82C49.2335 12.9433 49.2185 13.025 49.2051 13.065ZM53.6364 13.125C53.6164 12.7517 53.5914 12.295 53.5614 11.755C53.5348 11.2117 53.5048 10.6317 53.4714 10.015C53.4414 9.395 53.4114 8.78 53.3814 8.17C53.3514 7.55667 53.3248 6.995 53.3014 6.485C53.4314 6.47167 53.5981 6.45833 53.8014 6.445C54.0048 6.43167 54.2248 6.41833 54.4614 6.405C54.6981 6.39167 54.9298 6.38 55.1564 6.37C55.3831 6.36 55.5848 6.355 55.7614 6.355C56.0181 6.355 56.2748 6.38 56.5314 6.43C56.7914 6.47667 57.0281 6.56 57.2414 6.68C57.4581 6.8 57.6314 6.97167 57.7614 7.195C57.8914 7.415 57.9564 7.7 57.9564 8.05C57.9564 8.39333 57.8681 8.71667 57.6914 9.02C57.5181 9.32333 57.2864 9.54333 56.9964 9.68C57.0731 9.82333 57.1581 9.99667 57.2514 10.2C57.3448 10.4033 57.4381 10.6217 57.5314 10.855C57.6281 11.0883 57.7198 11.32 57.8064 11.55C57.8931 11.7767 57.9698 11.985 58.0364 12.175C58.1064 12.365 58.1581 12.52 58.1914 12.64C58.0948 12.7 57.9648 12.7567 57.8014 12.81C57.6414 12.8633 57.4764 12.9117 57.3064 12.955C57.1364 12.995 56.9881 13.0283 56.8614 13.055C56.7381 13.0817 56.6631 13.095 56.6364 13.095C56.6098 12.9617 56.5681 12.7867 56.5114 12.57C56.4548 12.3533 56.3898 12.1183 56.3164 11.865C56.2431 11.6117 56.1681 11.3633 56.0914 11.12C56.0181 10.8733 55.9498 10.6533 55.8864 10.46C55.8231 10.2667 55.7731 10.1233 55.7364 10.03C55.6598 10.0467 55.5814 10.0617 55.5014 10.075C55.4248 10.0883 55.3514 10.0983 55.2814 10.105C55.2148 10.1117 55.1531 10.1167 55.0964 10.12C55.1098 10.1967 55.1231 10.3233 55.1364 10.5C55.1531 10.6733 55.1698 10.875 55.1864 11.105C55.2031 11.335 55.2181 11.5717 55.2314 11.815C55.2481 12.055 55.2614 12.2817 55.2714 12.495C55.2848 12.7083 55.2931 12.8833 55.2964 13.02C55.1631 13.05 54.9998 13.0717 54.8064 13.085C54.6164 13.1017 54.4181 13.1117 54.2114 13.115C54.0081 13.1217 53.8164 13.125 53.6364 13.125ZM54.9614 8.92C55.0648 8.92 55.1698 8.91667 55.2764 8.91C55.3864 8.9 55.5164 8.88167 55.6664 8.855C55.8831 8.81833 56.0564 8.76833 56.1864 8.705C56.3164 8.63833 56.4098 8.555 56.4664 8.455C56.5264 8.35167 56.5564 8.23167 56.5564 8.095C56.5564 7.91167 56.5148 7.78 56.4314 7.7C56.3481 7.61667 56.2331 7.56333 56.0864 7.54C55.9431 7.51667 55.7748 7.505 55.5814 7.505C55.5281 7.505 55.4648 7.50833 55.3914 7.515C55.3181 7.51833 55.2448 7.52333 55.1714 7.53C55.0981 7.53667 55.0314 7.54333 54.9714 7.55C54.9114 7.55333 54.8681 7.55667 54.8414 7.56C54.8448 7.61667 54.8514 7.69167 54.8614 7.785C54.8714 7.87833 54.8814 7.98167 54.8914 8.095C54.9014 8.205 54.9098 8.315 54.9164 8.425C54.9264 8.53167 54.9348 8.63 54.9414 8.72C54.9514 8.80667 54.9581 8.87333 54.9614 8.92ZM63.4949 12.105C63.4015 12.2183 63.2849 12.33 63.1449 12.44C63.0049 12.55 62.8365 12.65 62.6399 12.74C62.4465 12.8267 62.2249 12.8967 61.9749 12.95C61.7249 13 61.4449 13.025 61.1349 13.025C60.6315 13.025 60.1849 12.93 59.7949 12.74C59.4049 12.5467 59.0999 12.2617 58.8799 11.885C58.6632 11.505 58.5549 11.0333 58.5549 10.47C58.5549 9.90667 58.6682 9.41667 58.8949 9C59.1215 8.58 59.4382 8.255 59.8449 8.025C60.2515 7.79167 60.7265 7.675 61.2699 7.675C61.9565 7.675 62.4965 7.86667 62.8899 8.25C63.2865 8.63 63.4932 9.15667 63.5099 9.83C63.5132 9.95333 63.5115 10.065 63.5049 10.165C63.4982 10.265 63.4849 10.3717 63.4649 10.485C63.4149 10.4817 63.3082 10.4783 63.1449 10.475C62.9815 10.4717 62.7965 10.4683 62.5899 10.465C62.3865 10.4583 62.1932 10.4533 62.0099 10.45C61.8299 10.4467 61.6965 10.445 61.6099 10.445C61.3199 10.445 61.0382 10.4583 60.7649 10.485C60.4949 10.5117 60.2682 10.54 60.0849 10.57C60.0849 10.63 60.0882 10.69 60.0949 10.75C60.1049 10.8067 60.1182 10.8617 60.1349 10.915C60.1782 11.0517 60.2532 11.1683 60.3599 11.265C60.4699 11.3617 60.5999 11.4367 60.7499 11.49C60.9032 11.54 61.0649 11.565 61.2349 11.565C61.3882 11.565 61.5282 11.5467 61.6549 11.51C61.7849 11.47 61.9032 11.4183 62.0099 11.355C62.1165 11.2917 62.2132 11.2233 62.2999 11.15C62.3899 11.0733 62.4732 10.9983 62.5499 10.925C62.5699 10.9417 62.6215 10.9917 62.7049 11.075C62.7882 11.155 62.8815 11.255 62.9849 11.375C63.0882 11.4917 63.1865 11.615 63.2799 11.745C63.3732 11.875 63.4449 11.995 63.4949 12.105ZM60.1399 9.635C60.2899 9.61167 60.4749 9.59 60.6949 9.57C60.9149 9.55 61.1699 9.54 61.4599 9.54C61.6165 9.54 61.7549 9.54167 61.8749 9.545C61.9982 9.54833 62.0849 9.55167 62.1349 9.555C62.1349 9.485 62.1249 9.40833 62.1049 9.325C62.0782 9.21167 62.0249 9.10333 61.9449 9C61.8682 8.89667 61.7682 8.81333 61.6449 8.75C61.5249 8.68667 61.3799 8.655 61.2099 8.655C60.9965 8.655 60.8099 8.70167 60.6499 8.795C60.4932 8.88833 60.3715 9.01 60.2849 9.16C60.1982 9.31 60.1499 9.46833 60.1399 9.635ZM67.2511 7.545C67.4877 7.585 67.7094 7.63167 67.9161 7.685C68.1227 7.73833 68.2944 7.785 68.4311 7.825C68.5711 7.865 68.6561 7.89167 68.6861 7.905C68.6194 8.17167 68.5394 8.47 68.4461 8.8C68.3561 9.12667 68.2544 9.47 68.1411 9.83C68.0311 10.1867 67.9144 10.5467 67.7911 10.91C67.6677 11.27 67.5411 11.6217 67.4111 11.965C67.2844 12.305 67.1594 12.6183 67.0361 12.905C66.8594 12.935 66.6427 12.95 66.3861 12.95C66.2594 12.95 66.1361 12.945 66.0161 12.935C65.8994 12.925 65.7994 12.915 65.7161 12.905C65.5427 12.5417 65.3744 12.16 65.2111 11.76C65.0477 11.3567 64.8894 10.9417 64.7361 10.515C64.5827 10.0883 64.4344 9.65333 64.2911 9.21C64.1477 8.76333 64.0077 8.31667 63.8711 7.87C63.9211 7.86 64.0027 7.84333 64.1161 7.82C64.2327 7.79333 64.3594 7.76333 64.4961 7.73C64.6361 7.69667 64.7727 7.66333 64.9061 7.63C65.0394 7.59333 65.1494 7.56333 65.2361 7.54C65.2861 7.74 65.3511 7.97667 65.4311 8.25C65.5111 8.52 65.5977 8.80333 65.6911 9.1C65.7877 9.39333 65.8827 9.67833 65.9761 9.955C66.0694 10.2283 66.1527 10.4717 66.2261 10.685C66.3027 10.8983 66.3611 11.0567 66.4011 11.16L66.3411 11.185C66.4011 10.995 66.4627 10.7967 66.5261 10.59C66.5894 10.38 66.6527 10.16 66.7161 9.93C66.7794 9.69667 66.8411 9.45333 66.9011 9.2C66.9644 8.94667 67.0244 8.68167 67.0811 8.405C67.1411 8.12833 67.1977 7.84167 67.2511 7.545ZM71.0151 12.99C70.9585 12.9933 70.8501 13 70.6901 13.01C70.5335 13.0233 70.3668 13.03 70.1901 13.03C70.0601 13.03 69.9285 13.025 69.7951 13.015C69.6651 13.0083 69.5368 12.9983 69.4101 12.985C69.4268 12.8983 69.4451 12.7217 69.4651 12.455C69.4885 12.185 69.5101 11.8683 69.5301 11.505C69.5535 11.1417 69.5751 10.7667 69.5951 10.38C69.6185 9.99 69.6351 9.625 69.6451 9.285C69.6585 8.945 69.6651 8.67167 69.6651 8.465C69.7318 8.46167 69.8301 8.45667 69.9601 8.45C70.0901 8.44333 70.2301 8.43833 70.3801 8.435C70.5301 8.42833 70.6735 8.42333 70.8101 8.42C70.9468 8.41333 71.0551 8.41 71.1351 8.41C71.1518 8.51333 71.1651 8.68 71.1751 8.91C71.1851 9.14 71.1901 9.39667 71.1901 9.68C71.1901 9.98333 71.1851 10.305 71.1751 10.645C71.1685 10.985 71.1568 11.315 71.1401 11.635C71.1268 11.9517 71.1085 12.2317 71.0851 12.475C71.0618 12.715 71.0385 12.8867 71.0151 12.99ZM70.4551 7.765C70.1551 7.765 69.9035 7.67833 69.7001 7.505C69.4968 7.32833 69.3951 7.09667 69.3951 6.81C69.3951 6.61333 69.4435 6.445 69.5401 6.305C69.6368 6.165 69.7618 6.05833 69.9151 5.985C70.0718 5.90833 70.2368 5.87 70.4101 5.87C70.6868 5.87 70.9151 5.96 71.0951 6.14C71.2785 6.32 71.3701 6.55167 71.3701 6.835C71.3701 7.09833 71.2835 7.32 71.1101 7.5C70.9368 7.67667 70.7185 7.765 70.4551 7.765ZM77.2742 12.105C77.1808 12.2183 77.0642 12.33 76.9242 12.44C76.7842 12.55 76.6158 12.65 76.4192 12.74C76.2258 12.8267 76.0042 12.8967 75.7542 12.95C75.5042 13 75.2242 13.025 74.9142 13.025C74.4108 13.025 73.9642 12.93 73.5742 12.74C73.1842 12.5467 72.8792 12.2617 72.6592 11.885C72.4425 11.505 72.3342 11.0333 72.3342 10.47C72.3342 9.90667 72.4475 9.41667 72.6742 9C72.9008 8.58 73.2175 8.255 73.6242 8.025C74.0308 7.79167 74.5058 7.675 75.0492 7.675C75.7358 7.675 76.2758 7.86667 76.6692 8.25C77.0658 8.63 77.2725 9.15667 77.2892 9.83C77.2925 9.95333 77.2908 10.065 77.2842 10.165C77.2775 10.265 77.2642 10.3717 77.2442 10.485C77.1942 10.4817 77.0875 10.4783 76.9242 10.475C76.7608 10.4717 76.5758 10.4683 76.3692 10.465C76.1658 10.4583 75.9725 10.4533 75.7892 10.45C75.6092 10.4467 75.4758 10.445 75.3892 10.445C75.0992 10.445 74.8175 10.4583 74.5442 10.485C74.2742 10.5117 74.0475 10.54 73.8642 10.57C73.8642 10.63 73.8675 10.69 73.8742 10.75C73.8842 10.8067 73.8975 10.8617 73.9142 10.915C73.9575 11.0517 74.0325 11.1683 74.1392 11.265C74.2492 11.3617 74.3792 11.4367 74.5292 11.49C74.6825 11.54 74.8442 11.565 75.0142 11.565C75.1675 11.565 75.3075 11.5467 75.4342 11.51C75.5642 11.47 75.6825 11.4183 75.7892 11.355C75.8958 11.2917 75.9925 11.2233 76.0792 11.15C76.1692 11.0733 76.2525 10.9983 76.3292 10.925C76.3492 10.9417 76.4008 10.9917 76.4842 11.075C76.5675 11.155 76.6608 11.255 76.7642 11.375C76.8675 11.4917 76.9658 11.615 77.0592 11.745C77.1525 11.875 77.2242 11.995 77.2742 12.105ZM73.9192 9.635C74.0692 9.61167 74.2542 9.59 74.4742 9.57C74.6942 9.55 74.9492 9.54 75.2392 9.54C75.3958 9.54 75.5342 9.54167 75.6542 9.545C75.7775 9.54833 75.8642 9.55167 75.9142 9.555C75.9142 9.485 75.9042 9.40833 75.8842 9.325C75.8575 9.21167 75.8042 9.10333 75.7242 9C75.6475 8.89667 75.5475 8.81333 75.4242 8.75C75.3042 8.68667 75.1592 8.655 74.9892 8.655C74.7758 8.655 74.5892 8.70167 74.4292 8.795C74.2725 8.88833 74.1508 9.01 74.0642 9.16C73.9775 9.31 73.9292 9.46833 73.9192 9.635ZM80.0688 12.965C79.6988 12.965 79.3938 12.8817 79.1538 12.715C78.9138 12.545 78.7255 12.315 78.5888 12.025C78.4555 11.7317 78.3605 11.395 78.3038 11.015C78.2505 10.635 78.2238 10.2333 78.2238 9.81C78.2238 9.46667 78.2355 9.11667 78.2588 8.76C78.2855 8.4 78.3171 8.04667 78.3538 7.7C78.5638 7.7 78.8021 7.70667 79.0688 7.72C79.3388 7.73333 79.5821 7.74833 79.7988 7.765C79.7621 8.16833 79.7338 8.55167 79.7138 8.915C79.6938 9.27833 79.6838 9.61 79.6838 9.91C79.6838 10.23 79.7005 10.5083 79.7338 10.745C79.7671 10.9817 79.8238 11.165 79.9038 11.295C79.9838 11.4217 80.0938 11.485 80.2338 11.485C80.3571 11.485 80.4621 11.43 80.5488 11.32C80.6388 11.2067 80.7121 11.0517 80.7688 10.855C80.8255 10.655 80.8671 10.4233 80.8938 10.16C80.9238 9.89333 80.9388 9.60833 80.9388 9.305C80.9388 9.07833 80.9371 8.83167 80.9338 8.565C80.9305 8.29833 80.9238 8.04167 80.9138 7.795C81.0105 7.795 81.1438 7.79667 81.3138 7.8C81.4838 7.8 81.6538 7.80167 81.8238 7.805C81.9971 7.80833 82.1371 7.81333 82.2438 7.82C82.2438 7.94333 82.2438 8.06667 82.2438 8.19C82.2438 8.31333 82.2438 8.435 82.2438 8.555C82.2438 9.03833 82.2488 9.47167 82.2588 9.855C82.2721 10.2383 82.2988 10.565 82.3388 10.835C82.3821 11.1017 82.4471 11.305 82.5338 11.445C82.6205 11.585 82.7388 11.655 82.8888 11.655C83.0288 11.655 83.1455 11.595 83.2388 11.475C83.3321 11.3517 83.4071 11.18 83.4638 10.96C83.5238 10.74 83.5655 10.4833 83.5888 10.19C83.6155 9.89333 83.6288 9.575 83.6288 9.235C83.6288 9.095 83.6288 8.94667 83.6288 8.79C83.6288 8.63 83.6271 8.465 83.6238 8.295C83.6205 8.125 83.6155 7.95833 83.6088 7.795C83.7055 7.795 83.8105 7.795 83.9238 7.795C84.0371 7.795 84.1521 7.795 84.2688 7.795C84.3755 7.795 84.5021 7.79833 84.6488 7.805C84.7988 7.81167 84.9155 7.81833 84.9988 7.825C85.0088 7.96167 85.0188 8.12667 85.0288 8.32C85.0388 8.51 85.0471 8.7 85.0538 8.89C85.0605 9.07667 85.0638 9.235 85.0638 9.365C85.0638 9.78167 85.0388 10.1717 84.9888 10.535C84.9388 10.8983 84.8621 11.2267 84.7588 11.52C84.6555 11.8133 84.5205 12.065 84.3538 12.275C84.1905 12.485 83.9921 12.6467 83.7588 12.76C83.5288 12.87 83.2605 12.925 82.9538 12.925C82.6871 12.925 82.4638 12.88 82.2838 12.79C82.1038 12.7 81.9588 12.585 81.8488 12.445C81.7388 12.3017 81.6538 12.1517 81.5938 11.995C81.5371 11.8383 81.4971 11.6917 81.4738 11.555C81.4538 11.4183 81.4405 11.3117 81.4338 11.235L81.7388 11.285C81.7355 11.4217 81.7005 11.585 81.6338 11.775C81.5705 11.965 81.4721 12.1517 81.3388 12.335C81.2055 12.515 81.0338 12.665 80.8238 12.785C80.6171 12.905 80.3655 12.965 80.0688 12.965Z" fill="white"/>
</svg>
