<svg width="151" height="38" viewBox="0 0 151 38" fill="none" xmlns="http://www.w3.org/2000/svg">
<path d="M2.87007 32.7233C1.08866 29.9368 -0.247408 6.84935 2.87007 4.36149C5.98755 1.87363 56.3125 3.36635 82.5884 4.36149C108.864 5.35663 143.602 3.8639 148.055 5.35663C152.509 6.84935 151.217 33.4199 148.724 36.2063C145.606 39.6893 90.1594 37.2014 77.0215 36.2063C63.8836 35.2111 5.09684 36.2063 2.87007 32.7233Z" fill="#214868"/>
<path d="M1.87007 29.7233C0.0886566 26.9368 -1.24741 3.84935 1.87007 1.36149C4.98755 -1.12637 55.3125 0.366353 81.5884 1.36149C107.864 2.35663 142.602 0.863904 147.055 2.35663C151.509 3.84935 150.217 30.4199 147.724 33.2063C144.606 36.6893 89.1594 34.2014 76.0215 33.2063C62.8836 32.2111 4.09684 33.2063 1.87007 29.7233Z" fill="#3387DC"/>
<path d="M55.7618 21.82C55.7768 21.545 55.7918 21.1725 55.8068 20.7025C55.8218 20.2275 55.8343 19.695 55.8443 19.105C55.8543 18.51 55.8593 17.8975 55.8593 17.2675C55.8593 16.6375 55.8543 16.015 55.8443 15.4C55.8343 14.78 55.8218 14.2075 55.8068 13.6825C55.7918 13.1575 55.7768 12.7175 55.7618 12.3625C55.9068 12.3425 56.1343 12.32 56.4443 12.295C56.7543 12.27 57.0768 12.2575 57.4118 12.2575C57.5718 12.2575 57.7593 12.2625 57.9743 12.2725C58.1893 12.2825 58.3343 12.295 58.4093 12.31C58.4193 12.57 58.4218 12.9 58.4168 13.3C58.4168 13.7 58.4093 14.1475 58.3943 14.6425C58.3843 15.1375 58.3693 15.6625 58.3493 16.2175C58.3293 16.7675 58.3068 17.32 58.2818 17.875C58.2668 18.17 58.2493 18.4575 58.2293 18.7375C58.2143 19.0125 58.1968 19.2475 58.1768 19.4425C58.5718 19.4175 58.9618 19.3975 59.3468 19.3825C59.7318 19.3675 60.1168 19.355 60.5018 19.345C60.8918 19.335 61.2818 19.33 61.6718 19.33C61.6918 19.46 61.7093 19.665 61.7243 19.945C61.7393 20.225 61.7518 20.525 61.7618 20.845C61.7718 21.16 61.7768 21.435 61.7768 21.67C61.1768 21.75 60.5693 21.81 59.9543 21.85C59.3443 21.885 58.7643 21.905 58.2143 21.91C57.7593 21.915 57.3193 21.91 56.8943 21.895C56.4743 21.875 56.0968 21.85 55.7618 21.82ZM66.7338 22.165C65.4088 22.165 64.4113 21.815 63.7413 21.115C63.0713 20.41 62.7363 19.3875 62.7363 18.0475C62.7363 17.1525 62.9088 16.41 63.2538 15.82C63.5988 15.225 64.0763 14.7775 64.6863 14.4775C65.3013 14.1775 66.0113 14.0275 66.8163 14.0275C67.6363 14.0275 68.3163 14.215 68.8563 14.59C69.4013 14.965 69.8088 15.4825 70.0788 16.1425C70.3488 16.8025 70.4838 17.565 70.4838 18.43C70.4838 19.185 70.3388 19.8425 70.0488 20.4025C69.7588 20.9625 69.3338 21.3975 68.7738 21.7075C68.2188 22.0125 67.5388 22.165 66.7338 22.165ZM66.6513 20.0125C66.9263 20.0125 67.1688 19.965 67.3788 19.87C67.5938 19.775 67.7738 19.64 67.9188 19.465C68.0688 19.285 68.1813 19.075 68.2563 18.835C68.3313 18.595 68.3688 18.3325 68.3688 18.0475C68.3688 17.6025 68.3038 17.21 68.1738 16.87C68.0488 16.525 67.8613 16.2575 67.6113 16.0675C67.3663 15.8725 67.0613 15.775 66.6963 15.775C66.3013 15.775 65.9788 15.875 65.7288 16.075C65.4788 16.275 65.2938 16.5375 65.1738 16.8625C65.0588 17.1825 65.0013 17.525 65.0013 17.89C65.0013 18.505 65.1413 19.0125 65.4213 19.4125C65.7063 19.8125 66.1163 20.0125 66.6513 20.0125ZM75.9279 20.0725C74.9079 20.0725 74.0979 19.9275 73.4979 19.6375C72.9029 19.3475 72.4779 18.975 72.2229 18.52C71.9679 18.06 71.8404 17.5775 71.8404 17.0725C71.8404 16.4225 72.0104 15.875 72.3504 15.43C72.6904 14.985 73.1529 14.65 73.7379 14.425C74.3229 14.195 74.9904 14.08 75.7404 14.08C76.9454 14.08 77.8454 14.345 78.4404 14.875C79.0404 15.405 79.3404 16.1075 79.3404 16.9825C79.3404 17.6625 79.1954 18.2325 78.9054 18.6925C78.6204 19.1475 78.2229 19.4925 77.7129 19.7275C77.2029 19.9575 76.6079 20.0725 75.9279 20.0725ZM75.5904 25.7425C74.8104 25.7425 74.1004 25.6675 73.4604 25.5175C72.8254 25.3725 72.3179 25.1125 71.9379 24.7375C71.5629 24.3675 71.3754 23.8475 71.3754 23.1775C71.3754 22.7625 71.5104 22.3775 71.7804 22.0225C72.0504 21.6725 72.4379 21.385 72.9429 21.16C73.4479 20.93 74.0454 20.795 74.7354 20.755C75.0454 20.735 75.3729 20.7225 75.7179 20.7175C76.0679 20.7075 76.4779 20.7025 76.9479 20.7025C77.7429 20.7025 78.3929 20.88 78.8979 21.235C79.4079 21.585 79.6629 22.1475 79.6629 22.9225C79.6629 23.6025 79.4829 24.15 79.1229 24.565C78.7679 24.98 78.2829 25.28 77.6679 25.465C77.0579 25.65 76.3654 25.7425 75.5904 25.7425ZM75.6579 24.2875C75.9979 24.2875 76.3004 24.2525 76.5654 24.1825C76.8304 24.1125 77.0404 24.0025 77.1954 23.8525C77.3504 23.7025 77.4279 23.505 77.4279 23.26C77.4279 23.045 77.3654 22.875 77.2404 22.75C77.1204 22.63 76.9654 22.545 76.7754 22.495C76.5904 22.445 76.3979 22.42 76.1979 22.42C76.0629 22.42 75.9079 22.42 75.7329 22.42C75.5579 22.42 75.3854 22.42 75.2154 22.42C75.0504 22.42 74.9129 22.42 74.8029 22.42C74.6179 22.42 74.4454 22.4425 74.2854 22.4875C74.1304 22.5375 74.0029 22.625 73.9029 22.75C73.8079 22.875 73.7604 23.0525 73.7604 23.2825C73.7604 23.5125 73.8429 23.7025 74.0079 23.8525C74.1729 24.0025 74.3979 24.1125 74.6829 24.1825C74.9679 24.2525 75.2929 24.2875 75.6579 24.2875ZM73.7979 21.5275C73.1179 21.3875 72.6429 21.195 72.3729 20.95C72.1079 20.705 71.9754 20.4325 71.9754 20.1325C71.9754 19.8975 72.0279 19.695 72.1329 19.525C72.2379 19.35 72.3629 19.21 72.5079 19.105C72.6579 18.995 72.8004 18.9225 72.9354 18.8875L74.4204 19.6375C74.2304 19.7025 74.0879 19.7875 73.9929 19.8925C73.9029 19.9925 73.8579 20.095 73.8579 20.2C73.8579 20.34 73.9329 20.4675 74.0829 20.5825C74.2379 20.6975 74.4554 20.755 74.7354 20.755L73.7979 21.5275ZM75.7254 18.2875C76.0454 18.2875 76.3154 18.2375 76.5354 18.1375C76.7554 18.0375 76.9204 17.89 77.0304 17.695C77.1454 17.5 77.2029 17.2625 77.2029 16.9825C77.2029 16.7525 77.1379 16.55 77.0079 16.375C76.8829 16.2 76.7154 16.065 76.5054 15.97C76.3004 15.87 76.0729 15.82 75.8229 15.82C75.4129 15.82 75.0454 15.9075 74.7204 16.0825C74.4004 16.2575 74.2404 16.5675 74.2404 17.0125C74.2404 17.4275 74.3804 17.745 74.6604 17.965C74.9454 18.18 75.3004 18.2875 75.7254 18.2875ZM78.7104 15.97L77.3904 14.86C77.4504 14.665 77.5629 14.4575 77.7279 14.2375C77.8979 14.0125 78.0904 13.805 78.3054 13.615C78.5254 13.42 78.7379 13.2725 78.9429 13.1725C79.0129 13.2775 79.1129 13.4225 79.2429 13.6075C79.3729 13.7925 79.5079 13.98 79.6479 14.17C79.7879 14.36 79.9079 14.5175 80.0079 14.6425C79.8929 14.6975 79.7679 14.7725 79.6329 14.8675C79.5029 14.9575 79.3754 15.0625 79.2504 15.1825C79.1254 15.2975 79.0154 15.4225 78.9204 15.5575C78.8254 15.6925 78.7554 15.83 78.7104 15.97ZM83.4689 21.985C83.3839 21.99 83.2214 22 82.9814 22.015C82.7464 22.035 82.4964 22.045 82.2314 22.045C82.0364 22.045 81.8389 22.0375 81.6389 22.0225C81.4439 22.0125 81.2514 21.9975 81.0614 21.9775C81.0864 21.8475 81.1139 21.5825 81.1439 21.1825C81.1789 20.7775 81.2114 20.3025 81.2414 19.7575C81.2764 19.2125 81.3089 18.65 81.3389 18.07C81.3739 17.485 81.3989 16.9375 81.4139 16.4275C81.4339 15.9175 81.4439 15.5075 81.4439 15.1975C81.5439 15.1925 81.6914 15.185 81.8864 15.175C82.0814 15.165 82.2914 15.1575 82.5164 15.1525C82.7414 15.1425 82.9564 15.135 83.1614 15.13C83.3664 15.12 83.5289 15.115 83.6489 15.115C83.6739 15.27 83.6939 15.52 83.7089 15.865C83.7239 16.21 83.7314 16.595 83.7314 17.02C83.7314 17.475 83.7239 17.9575 83.7089 18.4675C83.6989 18.9775 83.6814 19.4725 83.6564 19.9525C83.6364 20.4275 83.6089 20.8475 83.5739 21.2125C83.5389 21.5725 83.5039 21.83 83.4689 21.985ZM82.6289 14.1475C82.1789 14.1475 81.8014 14.0175 81.4964 13.7575C81.1914 13.4925 81.0389 13.145 81.0389 12.715C81.0389 12.42 81.1114 12.1675 81.2564 11.9575C81.4014 11.7475 81.5889 11.5875 81.8189 11.4775C82.0539 11.3625 82.3014 11.305 82.5614 11.305C82.9764 11.305 83.3189 11.44 83.5889 11.71C83.8639 11.98 84.0014 12.3275 84.0014 12.7525C84.0014 13.1475 83.8714 13.48 83.6114 13.75C83.3514 14.015 83.0239 14.1475 82.6289 14.1475ZM88.05 22.0975C87.9 22.1025 87.715 22.1025 87.495 22.0975C87.275 22.0975 87.05 22.095 86.82 22.09C86.635 22.085 86.4225 22.0775 86.1825 22.0675C85.9425 22.0575 85.775 22.0475 85.68 22.0375C85.725 21.6175 85.7625 21.1425 85.7925 20.6125C85.8275 20.0825 85.855 19.495 85.875 18.85C85.895 18.205 85.91 17.5 85.92 16.735C85.93 15.97 85.935 15.1425 85.935 14.2525C86.125 14.2275 86.35 14.2075 86.61 14.1925C86.87 14.1775 87.1325 14.17 87.3975 14.17C87.5825 14.17 87.76 14.175 87.93 14.185C88.105 14.19 88.26 14.205 88.395 14.23C88.395 14.275 88.395 14.3675 88.395 14.5075C88.4 14.6425 88.4 14.7925 88.395 14.9575C88.395 15.1175 88.3925 15.2625 88.3875 15.3925C88.5175 15.2025 88.73 15.005 89.025 14.8C89.32 14.59 89.6625 14.4125 90.0525 14.2675C90.4425 14.1225 90.845 14.05 91.26 14.05C92.025 14.05 92.61 14.205 93.015 14.515C93.42 14.82 93.6975 15.28 93.8475 15.895C93.9975 16.505 94.0725 17.27 94.0725 18.19C94.0725 18.51 94.0625 18.885 94.0425 19.315C94.0275 19.74 94.0025 20.1875 93.9675 20.6575C93.9325 21.1275 93.8875 21.5825 93.8325 22.0225C93.7325 22.0325 93.5725 22.04 93.3525 22.045C93.1375 22.055 92.91 22.06 92.67 22.06C92.415 22.06 92.1725 22.055 91.9425 22.045C91.7125 22.04 91.5425 22.0325 91.4325 22.0225C91.4875 21.7425 91.5475 21.3925 91.6125 20.9725C91.6775 20.5525 91.7325 20.105 91.7775 19.63C91.8225 19.15 91.845 18.6925 91.845 18.2575C91.845 17.8375 91.81 17.4725 91.74 17.1625C91.675 16.8525 91.5475 16.6125 91.3575 16.4425C91.1725 16.2675 90.8975 16.18 90.5325 16.18C90.2325 16.18 89.945 16.2325 89.67 16.3375C89.395 16.4425 89.145 16.5725 88.92 16.7275C88.695 16.8775 88.5025 17.025 88.3425 17.17C88.3375 17.96 88.3175 18.675 88.2825 19.315C88.2475 19.95 88.21 20.5025 88.17 20.9725C88.13 21.4375 88.09 21.8125 88.05 22.0975Z" fill="white"/>
</svg>
