<svg width="200" height="38" viewBox="0 0 200 38" fill="none" xmlns="http://www.w3.org/2000/svg">
<path d="M3.48096 32.7233C1.11762 29.9368 -0.654895 6.84935 3.48096 4.36149C7.61682 1.87363 74.3813 3.36635 109.241 4.36149C144.1 5.35663 190.185 3.8639 196.094 5.35663C202.002 6.84935 200.289 33.4199 196.98 36.2063C192.844 39.6893 119.285 37.2014 101.855 36.2063C84.4255 35.2111 6.43514 36.2063 3.48096 32.7233Z" fill="#214868"/>
<path d="M2.48096 29.7233C0.117618 26.9368 -1.65489 3.84935 2.48096 1.36149C6.61682 -1.12637 73.3813 0.366353 108.241 1.36149C143.1 2.35663 189.185 0.863904 195.094 2.35663C201.002 3.84935 199.289 30.4199 195.98 33.2063C191.844 36.6893 118.285 34.2014 100.855 33.2063C83.4255 32.2111 5.43514 33.2063 2.48096 29.7233Z" fill="#3387DC"/>
<path d="M59.784 22.12C59.409 22.12 59.0265 22.075 58.6365 21.985C58.2515 21.895 57.8765 21.7625 57.5115 21.5875C57.1515 21.4125 56.8215 21.1975 56.5215 20.9425C56.2215 20.6825 55.969 20.385 55.764 20.05C55.794 20 55.874 19.915 56.004 19.795C56.134 19.67 56.284 19.535 56.454 19.39C56.624 19.24 56.7915 19.1025 56.9565 18.9775C57.1265 18.8525 57.2665 18.7625 57.3765 18.7075C57.5365 18.8925 57.7065 19.0775 57.8865 19.2625C58.0715 19.4475 58.2665 19.615 58.4715 19.765C58.6815 19.91 58.9065 20.0275 59.1465 20.1175C59.3865 20.2075 59.6415 20.2525 59.9115 20.2525C60.2215 20.2525 60.4665 20.195 60.6465 20.08C60.8315 19.965 60.964 19.82 61.044 19.645C61.124 19.465 61.164 19.2825 61.164 19.0975C61.164 18.9475 61.1265 18.805 61.0515 18.67C60.9765 18.535 60.864 18.4075 60.714 18.2875C60.564 18.1625 60.3765 18.0425 60.1515 17.9275C59.9315 17.8075 59.6715 17.695 59.3715 17.59C58.7715 17.36 58.229 17.1175 57.744 16.8625C57.259 16.6025 56.8715 16.29 56.5815 15.925C56.2965 15.56 56.154 15.1025 56.154 14.5525C56.154 13.9675 56.3165 13.4775 56.6415 13.0825C56.9665 12.6875 57.3965 12.39 57.9315 12.19C58.4665 11.985 59.0415 11.8825 59.6565 11.8825C60.1215 11.8825 60.5715 11.935 61.0065 12.04C61.4465 12.14 61.8565 12.2925 62.2365 12.4975C62.6165 12.7025 62.944 12.96 63.219 13.27C63.144 13.38 63.0265 13.5275 62.8665 13.7125C62.7065 13.8975 62.5365 14.0825 62.3565 14.2675C62.1765 14.4525 62.024 14.6 61.899 14.71C61.699 14.515 61.4765 14.34 61.2315 14.185C60.9865 14.025 60.729 13.9 60.459 13.81C60.189 13.715 59.9165 13.6675 59.6415 13.6675C59.3215 13.6675 59.0515 13.7375 58.8315 13.8775C58.6115 14.0125 58.5015 14.2175 58.5015 14.4925C58.5015 14.6175 58.529 14.73 58.584 14.83C58.644 14.93 58.7265 15.02 58.8315 15.1C58.9365 15.18 59.0615 15.255 59.2065 15.325C59.3515 15.39 59.514 15.4525 59.694 15.5125C60.204 15.6825 60.689 15.86 61.149 16.045C61.614 16.23 62.024 16.445 62.379 16.69C62.739 16.93 63.0215 17.225 63.2265 17.575C63.4315 17.925 63.534 18.3525 63.534 18.8575C63.534 19.3325 63.4415 19.77 63.2565 20.17C63.0715 20.565 62.8115 20.91 62.4765 21.205C62.1465 21.495 61.7515 21.72 61.2915 21.88C60.8365 22.04 60.334 22.12 59.784 22.12ZM67.4441 21.985C67.3591 21.99 67.1966 22 66.9566 22.015C66.7216 22.035 66.4716 22.045 66.2066 22.045C66.0116 22.045 65.8141 22.0375 65.6141 22.0225C65.4191 22.0125 65.2266 21.9975 65.0366 21.9775C65.0616 21.8475 65.0891 21.5825 65.1191 21.1825C65.1541 20.7775 65.1866 20.3025 65.2166 19.7575C65.2516 19.2125 65.2841 18.65 65.3141 18.07C65.3491 17.485 65.3741 16.9375 65.3891 16.4275C65.4091 15.9175 65.4191 15.5075 65.4191 15.1975C65.5191 15.1925 65.6666 15.185 65.8616 15.175C66.0566 15.165 66.2666 15.1575 66.4916 15.1525C66.7166 15.1425 66.9316 15.135 67.1366 15.13C67.3416 15.12 67.5041 15.115 67.6241 15.115C67.6491 15.27 67.6691 15.52 67.6841 15.865C67.6991 16.21 67.7066 16.595 67.7066 17.02C67.7066 17.475 67.6991 17.9575 67.6841 18.4675C67.6741 18.9775 67.6566 19.4725 67.6316 19.9525C67.6116 20.4275 67.5841 20.8475 67.5491 21.2125C67.5141 21.5725 67.4791 21.83 67.4441 21.985ZM66.6041 14.1475C66.1541 14.1475 65.7766 14.0175 65.4716 13.7575C65.1666 13.4925 65.0141 13.145 65.0141 12.715C65.0141 12.42 65.0866 12.1675 65.2316 11.9575C65.3766 11.7475 65.5641 11.5875 65.7941 11.4775C66.0291 11.3625 66.2766 11.305 66.5366 11.305C66.9516 11.305 67.2941 11.44 67.5641 11.71C67.8391 11.98 67.9766 12.3275 67.9766 12.7525C67.9766 13.1475 67.8466 13.48 67.5866 13.75C67.3266 14.015 66.9991 14.1475 66.6041 14.1475ZM69.9777 22.06C69.9527 21.735 69.9277 21.32 69.9027 20.815C69.8827 20.31 69.8627 19.7625 69.8427 19.1725C69.8277 18.5775 69.8127 17.9875 69.7977 17.4025C69.7877 16.8175 69.7802 16.2775 69.7752 15.7825C69.7702 15.2825 69.7677 14.88 69.7677 14.575C69.8877 14.545 70.0477 14.515 70.2477 14.485C70.4477 14.45 70.6602 14.42 70.8852 14.395C71.1102 14.365 71.3227 14.3425 71.5227 14.3275C71.7277 14.3075 71.8927 14.2975 72.0177 14.2975C72.0227 14.3775 72.0277 14.48 72.0327 14.605C72.0377 14.725 72.0402 14.85 72.0402 14.98C72.0452 15.11 72.0477 15.2275 72.0477 15.3325C72.0477 15.4375 72.0477 15.5175 72.0477 15.5725C72.0777 15.4775 72.1477 15.355 72.2577 15.205C72.3677 15.055 72.5177 14.905 72.7077 14.755C72.9027 14.605 73.1377 14.48 73.4127 14.38C73.6877 14.275 74.0052 14.2225 74.3652 14.2225C74.7102 14.2225 75.0027 14.2875 75.2427 14.4175C75.4827 14.5475 75.6827 14.7175 75.8427 14.9275C76.0027 15.1375 76.1277 15.365 76.2177 15.61C76.2627 15.73 76.2977 15.8525 76.3227 15.9775C76.3527 16.1025 76.3752 16.225 76.3902 16.345C76.5002 15.98 76.6827 15.6325 76.9377 15.3025C77.1977 14.9675 77.5202 14.695 77.9052 14.485C78.2902 14.27 78.7327 14.1625 79.2327 14.1625C79.8327 14.1625 80.3252 14.27 80.7102 14.485C81.1002 14.7 81.4027 15.0175 81.6177 15.4375C81.8327 15.8575 81.9827 16.3725 82.0677 16.9825C82.1527 17.5925 82.1952 18.29 82.1952 19.075C82.1952 19.385 82.1877 19.71 82.1727 20.05C82.1627 20.39 82.1477 20.7325 82.1277 21.0775C82.1077 21.4225 82.0877 21.7575 82.0677 22.0825C81.8877 22.0925 81.7002 22.1 81.5052 22.105C81.3102 22.115 81.1152 22.12 80.9202 22.12C80.7252 22.12 80.5252 22.115 80.3202 22.105C80.1202 22.1 79.9177 22.09 79.7127 22.075C79.8127 21.33 79.8952 20.645 79.9602 20.02C80.0252 19.39 80.0577 18.8375 80.0577 18.3625C80.0577 17.6675 79.9777 17.1375 79.8177 16.7725C79.6627 16.4075 79.3952 16.225 79.0152 16.225C78.6702 16.225 78.3902 16.33 78.1752 16.54C77.9602 16.75 77.7927 17.04 77.6727 17.41C77.5527 17.78 77.4652 18.21 77.4102 18.7C77.3602 19.185 77.3252 19.705 77.3052 20.26C77.2952 20.54 77.2852 20.8325 77.2752 21.1375C77.2652 21.4425 77.2602 21.7525 77.2602 22.0675C77.1602 22.0725 77.0177 22.0775 76.8327 22.0825C76.6527 22.0925 76.4627 22.0975 76.2627 22.0975C76.0277 22.0975 75.8002 22.0925 75.5802 22.0825C75.3652 22.0775 75.2077 22.0675 75.1077 22.0525C75.1027 21.7125 75.1002 21.3925 75.1002 21.0925C75.1002 20.7925 75.1002 20.485 75.1002 20.17C75.1002 19.6 75.0852 19.075 75.0552 18.595C75.0302 18.11 74.9752 17.69 74.8902 17.335C74.8052 16.975 74.6777 16.695 74.5077 16.495C74.3427 16.295 74.1177 16.195 73.8327 16.195C73.6377 16.195 73.4477 16.2375 73.2627 16.3225C73.0777 16.4075 72.9077 16.5175 72.7527 16.6525C72.6027 16.7875 72.4752 16.9375 72.3702 17.1025C72.2702 17.2625 72.2002 17.4225 72.1602 17.5825C72.1902 18.3775 72.2227 19.1025 72.2577 19.7575C72.2927 20.4125 72.3252 20.9475 72.3552 21.3625C72.3852 21.7725 72.4052 22.02 72.4152 22.105C72.3602 22.11 72.2452 22.115 72.0702 22.12C71.8952 22.125 71.7427 22.1275 71.6127 22.1275C71.2977 22.1275 70.9827 22.12 70.6677 22.105C70.3527 22.09 70.1227 22.075 69.9777 22.06ZM83.3083 25.36C83.3683 24.545 83.4208 23.6875 83.4658 22.7875C83.5158 21.8875 83.5558 20.995 83.5858 20.11C83.6158 19.225 83.6408 18.3925 83.6608 17.6125C83.6858 16.8325 83.7008 16.15 83.7058 15.565C83.7158 14.975 83.7208 14.53 83.7208 14.23C84.0308 14.13 84.3883 14.06 84.7933 14.02C85.1983 13.975 85.5908 13.9525 85.9708 13.9525C85.9858 14.1125 85.9983 14.3025 86.0083 14.5225C86.0183 14.7375 86.0233 14.935 86.0233 15.115C86.1183 14.99 86.2833 14.8375 86.5183 14.6575C86.7533 14.4725 87.0483 14.31 87.4033 14.17C87.7583 14.03 88.1658 13.96 88.6258 13.96C89.6408 13.96 90.3908 14.2825 90.8758 14.9275C91.3658 15.5675 91.6108 16.46 91.6108 17.605C91.6108 18.41 91.4583 19.105 91.1533 19.69C90.8483 20.275 90.4333 20.725 89.9083 21.04C89.3833 21.35 88.7833 21.505 88.1083 21.505C87.8033 21.505 87.4933 21.4675 87.1783 21.3925C86.8683 21.3125 86.5908 21.215 86.3458 21.1C86.1058 20.98 85.9408 20.865 85.8508 20.755C85.8508 20.875 85.8433 21.075 85.8283 21.355C85.8183 21.635 85.8058 21.9525 85.7908 22.3075C85.7758 22.6675 85.7558 23.0325 85.7308 23.4025C85.7108 23.7725 85.6908 24.1125 85.6708 24.4225C85.6508 24.7375 85.6308 24.9825 85.6108 25.1575C85.3458 25.2125 85.0633 25.2525 84.7633 25.2775C84.4683 25.3075 84.1908 25.3275 83.9308 25.3375C83.6708 25.3525 83.4633 25.36 83.3083 25.36ZM87.7483 19.18C88.0933 19.18 88.3833 19.11 88.6183 18.97C88.8533 18.83 89.0308 18.63 89.1508 18.37C89.2708 18.105 89.3308 17.79 89.3308 17.425C89.3308 16.935 89.2158 16.5575 88.9858 16.2925C88.7608 16.0275 88.3958 15.895 87.8908 15.895C87.5858 15.895 87.3083 15.9425 87.0583 16.0375C86.8083 16.1325 86.5958 16.2475 86.4208 16.3825C86.2508 16.5125 86.1208 16.635 86.0308 16.75C86.0308 16.82 86.0283 16.9325 86.0233 17.0875C86.0183 17.2375 86.0133 17.405 86.0083 17.59C86.0033 17.77 85.9983 17.94 85.9933 18.1C85.9883 18.26 85.9858 18.385 85.9858 18.475C86.0708 18.56 86.1883 18.6575 86.3383 18.7675C86.4883 18.8775 86.6783 18.975 86.9083 19.06C87.1383 19.14 87.4183 19.18 87.7483 19.18ZM95.7957 22.1275C95.1807 22.1275 94.6182 22.045 94.1082 21.88C93.5982 21.71 93.1907 21.4375 92.8857 21.0625C92.5857 20.6825 92.4357 20.18 92.4357 19.555C92.4357 18.93 92.6107 18.4275 92.9607 18.0475C93.3157 17.6625 93.7807 17.385 94.3557 17.215C94.9357 17.04 95.5582 16.9525 96.2232 16.9525C96.4832 16.9525 96.7332 16.9725 96.9732 17.0125C97.2132 17.0525 97.4232 17.1 97.6032 17.155C97.7882 17.21 97.9207 17.2625 98.0007 17.3125C97.9957 17.1825 97.9682 17.045 97.9182 16.9C97.8732 16.755 97.8082 16.6325 97.7232 16.5325C97.5732 16.3275 97.3682 16.1575 97.1082 16.0225C96.8532 15.8825 96.5157 15.8125 96.0957 15.8125C95.6707 15.8125 95.2957 15.91 94.9707 16.105C94.6457 16.295 94.3982 16.51 94.2282 16.75L92.3982 15.5725C92.6232 15.2525 92.9257 14.9725 93.3057 14.7325C93.6907 14.4925 94.1257 14.305 94.6107 14.17C95.1007 14.035 95.6132 13.9675 96.1482 13.9675C97.0332 13.9675 97.7507 14.1125 98.3007 14.4025C98.8507 14.6925 99.2582 15.0975 99.5232 15.6175C99.6482 15.8675 99.7507 16.1425 99.8307 16.4425C99.9107 16.7425 99.9657 17.0875 99.9957 17.4775C100.016 17.8125 100.031 18.125 100.041 18.415C100.051 18.705 100.061 18.98 100.071 19.24C100.081 19.62 100.123 19.8675 100.198 19.9825C100.273 20.0975 100.381 20.155 100.521 20.155C100.651 20.155 100.766 20.12 100.866 20.05C100.971 19.975 101.038 19.8775 101.068 19.7575L101.848 21.25C101.793 21.48 101.638 21.6725 101.383 21.8275C101.128 21.9825 100.806 22.06 100.416 22.06C100.131 22.06 99.8607 22.0125 99.6057 21.9175C99.3507 21.8175 99.1407 21.685 98.9757 21.52C98.8107 21.35 98.7132 21.1575 98.6832 20.9425C98.6032 21.1325 98.4357 21.32 98.1807 21.505C97.9257 21.685 97.5982 21.835 97.1982 21.955C96.7982 22.07 96.3307 22.1275 95.7957 22.1275ZM96.2982 20.365C96.5332 20.365 96.7732 20.33 97.0182 20.26C97.2682 20.185 97.4932 20.0925 97.6932 19.9825C97.8982 19.8725 98.0557 19.76 98.1657 19.645C98.1557 19.49 98.1457 19.33 98.1357 19.165C98.1307 19 98.1307 18.86 98.1357 18.745C98.0257 18.7 97.8157 18.6525 97.5057 18.6025C97.2007 18.5475 96.8807 18.52 96.5457 18.52C96.2407 18.52 95.9557 18.5525 95.6907 18.6175C95.4257 18.6825 95.2082 18.7825 95.0382 18.9175C94.8732 19.0525 94.7907 19.2275 94.7907 19.4425C94.7907 19.6725 94.8532 19.855 94.9782 19.99C95.1032 20.125 95.2782 20.2225 95.5032 20.2825C95.7282 20.3375 95.9932 20.365 96.2982 20.365ZM104.735 22.0975C104.585 22.1025 104.4 22.1025 104.18 22.0975C103.96 22.0975 103.735 22.095 103.505 22.09C103.32 22.085 103.108 22.0775 102.868 22.0675C102.628 22.0575 102.46 22.0475 102.365 22.0375C102.41 21.6175 102.448 21.1425 102.478 20.6125C102.513 20.0825 102.54 19.495 102.56 18.85C102.58 18.205 102.595 17.5 102.605 16.735C102.615 15.97 102.62 15.1425 102.62 14.2525C102.81 14.2275 103.035 14.2075 103.295 14.1925C103.555 14.1775 103.818 14.17 104.083 14.17C104.268 14.17 104.445 14.175 104.615 14.185C104.79 14.19 104.945 14.205 105.08 14.23C105.08 14.275 105.08 14.3675 105.08 14.5075C105.085 14.6425 105.085 14.7925 105.08 14.9575C105.08 15.1175 105.078 15.2625 105.073 15.3925C105.203 15.2025 105.415 15.005 105.71 14.8C106.005 14.59 106.348 14.4125 106.738 14.2675C107.128 14.1225 107.53 14.05 107.945 14.05C108.71 14.05 109.295 14.205 109.7 14.515C110.105 14.82 110.383 15.28 110.533 15.895C110.683 16.505 110.758 17.27 110.758 18.19C110.758 18.51 110.748 18.885 110.728 19.315C110.713 19.74 110.688 20.1875 110.653 20.6575C110.618 21.1275 110.573 21.5825 110.518 22.0225C110.418 22.0325 110.258 22.04 110.038 22.045C109.823 22.055 109.595 22.06 109.355 22.06C109.1 22.06 108.858 22.055 108.628 22.045C108.398 22.04 108.228 22.0325 108.118 22.0225C108.173 21.7425 108.233 21.3925 108.298 20.9725C108.363 20.5525 108.418 20.105 108.463 19.63C108.508 19.15 108.53 18.6925 108.53 18.2575C108.53 17.8375 108.495 17.4725 108.425 17.1625C108.36 16.8525 108.233 16.6125 108.043 16.4425C107.858 16.2675 107.583 16.18 107.218 16.18C106.918 16.18 106.63 16.2325 106.355 16.3375C106.08 16.4425 105.83 16.5725 105.605 16.7275C105.38 16.8775 105.188 17.025 105.028 17.17C105.023 17.96 105.003 18.675 104.968 19.315C104.933 19.95 104.895 20.5025 104.855 20.9725C104.815 21.4375 104.775 21.8125 104.735 22.0975ZM120.375 22.69C119.615 22.69 118.947 22.565 118.372 22.315C117.797 22.07 117.35 21.705 117.03 21.22C116.715 20.73 116.557 20.1225 116.557 19.3975C116.557 18.9175 116.632 18.49 116.782 18.115C116.932 17.735 117.127 17.3975 117.367 17.1025C117.612 16.8025 117.875 16.54 118.155 16.315C118.44 16.09 118.715 15.8925 118.98 15.7225C118.87 15.6175 118.725 15.46 118.545 15.25C118.37 15.04 118.212 14.7875 118.072 14.4925C117.937 14.1975 117.87 13.875 117.87 13.525C117.87 13 118 12.5775 118.26 12.2575C118.52 11.9325 118.857 11.695 119.272 11.545C119.692 11.39 120.147 11.3125 120.637 11.3125C121.112 11.3125 121.537 11.405 121.912 11.59C122.287 11.77 122.585 12.02 122.805 12.34C123.025 12.66 123.135 13.03 123.135 13.45C123.135 13.825 123.077 14.15 122.962 14.425C122.847 14.7 122.682 14.96 122.467 15.205C122.257 15.445 122 15.695 121.695 15.955C121.82 16.095 121.97 16.2625 122.145 16.4575C122.32 16.6475 122.505 16.855 122.7 17.08C122.9 17.3 123.102 17.5275 123.307 17.7625C123.517 17.9975 123.722 18.2275 123.922 18.4525C123.982 18.3875 124.052 18.2975 124.132 18.1825C124.217 18.0675 124.302 17.945 124.387 17.815C124.472 17.68 124.55 17.5575 124.62 17.4475C124.69 17.3325 124.737 17.2475 124.762 17.1925C124.892 17.2525 125.047 17.3475 125.227 17.4775C125.407 17.6075 125.582 17.7475 125.752 17.8975C125.927 18.0425 126.075 18.1775 126.195 18.3025C126.155 18.4075 126.072 18.55 125.947 18.73C125.822 18.91 125.687 19.0925 125.542 19.2775C125.402 19.4575 125.272 19.6175 125.152 19.7575C125.287 19.8875 125.425 20.0275 125.565 20.1775C125.71 20.3275 125.855 20.4775 126 20.6275C126.145 20.7775 126.277 20.92 126.397 21.055C126.292 21.215 126.162 21.3825 126.007 21.5575C125.857 21.7325 125.697 21.8975 125.527 22.0525C125.362 22.2075 125.202 22.33 125.047 22.42C124.952 22.305 124.84 22.165 124.71 22C124.585 21.84 124.46 21.68 124.335 21.52C124.21 21.355 124.102 21.2175 124.012 21.1075C123.897 21.2425 123.735 21.4025 123.525 21.5875C123.315 21.7675 123.057 21.94 122.752 22.105C122.447 22.275 122.095 22.415 121.695 22.525C121.3 22.635 120.86 22.69 120.375 22.69ZM120.48 20.935C120.74 20.935 120.99 20.8975 121.23 20.8225C121.47 20.7425 121.69 20.6425 121.89 20.5225C122.095 20.4025 122.275 20.2775 122.43 20.1475C122.585 20.0125 122.705 19.8925 122.79 19.7875C122.6 19.5875 122.39 19.3625 122.16 19.1125C121.93 18.8625 121.695 18.6025 121.455 18.3325C121.22 18.0625 120.992 17.8025 120.772 17.5525C120.552 17.2975 120.36 17.07 120.195 16.87C119.99 17.015 119.797 17.175 119.617 17.35C119.437 17.52 119.277 17.7075 119.137 17.9125C119.002 18.1125 118.895 18.3325 118.815 18.5725C118.74 18.8125 118.702 19.075 118.702 19.36C118.702 19.7 118.777 19.9875 118.927 20.2225C119.082 20.4575 119.295 20.635 119.565 20.755C119.835 20.875 120.14 20.935 120.48 20.935ZM120.45 14.8675C120.66 14.7225 120.85 14.52 121.02 14.26C121.195 14 121.282 13.7275 121.282 13.4425C121.282 13.2325 121.217 13.0675 121.087 12.9475C120.962 12.8225 120.782 12.76 120.547 12.76C120.357 12.76 120.182 12.8225 120.022 12.9475C119.867 13.0675 119.79 13.2475 119.79 13.4875C119.79 13.7525 119.862 14.0125 120.007 14.2675C120.157 14.5175 120.305 14.7175 120.45 14.8675ZM131.878 22.0675C131.878 21.9425 131.881 21.705 131.886 21.355C131.891 21.005 131.898 20.58 131.908 20.08C131.918 19.58 131.931 19.04 131.946 18.46C131.966 17.88 131.983 17.2925 131.998 16.6975C132.018 16.1025 132.038 15.535 132.058 14.995C132.078 14.45 132.101 13.97 132.126 13.555C132.151 13.135 132.173 12.815 132.193 12.595C132.643 12.505 133.113 12.4375 133.603 12.3925C134.098 12.3475 134.616 12.325 135.156 12.325C135.816 12.325 136.393 12.4175 136.888 12.6025C137.388 12.7875 137.776 13.0775 138.051 13.4725C138.331 13.8675 138.471 14.3775 138.471 15.0025C138.471 15.6375 138.356 16.1875 138.126 16.6525C137.901 17.1175 137.556 17.475 137.091 17.725C136.631 17.975 136.051 18.1 135.351 18.1C135.211 18.1 135.043 18.09 134.848 18.07C134.658 18.045 134.511 18.0175 134.406 17.9875C134.401 18.1225 134.393 18.3625 134.383 18.7075C134.378 19.0525 134.368 19.4375 134.353 19.8625C134.343 20.2875 134.333 20.705 134.323 21.115C134.313 21.525 134.308 21.8625 134.308 22.1275C134.188 22.1275 134.021 22.1275 133.806 22.1275C133.591 22.1275 133.358 22.1225 133.108 22.1125C132.863 22.1075 132.631 22.1 132.411 22.09C132.191 22.085 132.013 22.0775 131.878 22.0675ZM134.361 16.0375C134.466 16.0575 134.586 16.075 134.721 16.09C134.861 16.1 134.996 16.105 135.126 16.105C135.366 16.105 135.588 16.0675 135.793 15.9925C135.998 15.9125 136.163 15.7925 136.288 15.6325C136.413 15.4675 136.476 15.2575 136.476 15.0025C136.476 14.6325 136.368 14.3825 136.153 14.2525C135.938 14.1175 135.651 14.05 135.291 14.05C135.151 14.05 135.003 14.0575 134.848 14.0725C134.693 14.0825 134.531 14.0975 134.361 14.1175C134.361 14.1475 134.361 14.2225 134.361 14.3425C134.361 14.4625 134.361 14.6075 134.361 14.7775C134.361 14.9425 134.361 15.11 134.361 15.28C134.361 15.45 134.361 15.605 134.361 15.745C134.361 15.885 134.361 15.9825 134.361 16.0375ZM144.424 14.665C144.549 14.62 144.726 14.5875 144.956 14.5675C145.191 14.5425 145.419 14.53 145.639 14.53C145.824 14.53 146.029 14.5375 146.254 14.5525C146.479 14.5675 146.661 14.585 146.801 14.605C146.866 15.01 146.916 15.42 146.951 15.835C146.986 16.245 147.004 16.65 147.004 17.05C147.004 17.785 146.939 18.4775 146.809 19.1275C146.684 19.7775 146.476 20.35 146.186 20.845C145.896 21.34 145.509 21.7275 145.024 22.0075C144.539 22.2925 143.941 22.435 143.231 22.435C142.476 22.435 141.854 22.2875 141.364 21.9925C140.874 21.6925 140.491 21.2775 140.216 20.7475C139.941 20.2125 139.749 19.59 139.639 18.88C139.534 18.165 139.481 17.395 139.481 16.57C139.481 16.205 139.489 15.835 139.504 15.46C139.524 15.08 139.549 14.7025 139.579 14.3275C139.709 14.3175 139.879 14.31 140.089 14.305C140.304 14.295 140.499 14.2925 140.674 14.2975C140.924 14.2975 141.174 14.3125 141.424 14.3425C141.679 14.3675 141.879 14.4025 142.024 14.4475C141.989 14.7875 141.959 15.155 141.934 15.55C141.909 15.94 141.896 16.3325 141.896 16.7275C141.896 17.3875 141.939 17.9825 142.024 18.5125C142.114 19.0425 142.261 19.4625 142.466 19.7725C142.671 20.0825 142.949 20.2375 143.299 20.2375C143.629 20.2375 143.891 20.0975 144.086 19.8175C144.286 19.5375 144.429 19.1625 144.514 18.6925C144.604 18.2175 144.649 17.6875 144.649 17.1025C144.649 16.6625 144.626 16.23 144.581 15.805C144.541 15.375 144.489 14.995 144.424 14.665ZM148.674 22.0525C148.659 21.8775 148.644 21.585 148.629 21.175C148.614 20.76 148.597 20.2725 148.577 19.7125C148.557 19.1475 148.537 18.5425 148.517 17.8975C148.497 17.2475 148.479 16.5975 148.464 15.9475C148.449 15.2925 148.434 14.6725 148.419 14.0875C148.404 13.5025 148.392 12.985 148.382 12.535C148.372 12.085 148.367 11.7475 148.367 11.5225C148.437 11.5075 148.677 11.465 149.087 11.395C149.502 11.32 150.009 11.2375 150.609 11.1475C150.609 11.4625 150.612 11.8925 150.617 12.4375C150.627 12.9825 150.642 13.5825 150.662 14.2375C150.682 14.8875 150.709 15.535 150.744 16.18C150.854 16.065 150.992 15.945 151.157 15.82C151.322 15.695 151.509 15.58 151.719 15.475C151.929 15.365 152.154 15.2775 152.394 15.2125C152.639 15.1425 152.892 15.1075 153.152 15.1075C153.737 15.1075 154.247 15.2425 154.682 15.5125C155.122 15.7825 155.462 16.185 155.702 16.72C155.947 17.25 156.069 17.905 156.069 18.685C156.069 19.7 155.799 20.505 155.259 21.1C154.724 21.69 153.999 21.985 153.084 21.985C152.724 21.985 152.402 21.9375 152.117 21.8425C151.837 21.7425 151.602 21.6275 151.412 21.4975C151.227 21.3625 151.094 21.245 151.014 21.145C151.019 21.24 151.024 21.36 151.029 21.505C151.039 21.65 151.047 21.7825 151.052 21.9025C151.062 22.0225 151.067 22.1025 151.067 22.1425C150.637 22.1475 150.209 22.1425 149.784 22.1275C149.359 22.1125 148.989 22.0875 148.674 22.0525ZM150.947 19.465C151.027 19.515 151.142 19.575 151.292 19.645C151.442 19.715 151.617 19.7775 151.817 19.8325C152.017 19.8825 152.224 19.9075 152.439 19.9075C152.959 19.9075 153.337 19.79 153.572 19.555C153.807 19.315 153.924 18.97 153.924 18.52C153.924 18.25 153.882 18.0025 153.797 17.7775C153.712 17.5475 153.579 17.365 153.399 17.23C153.219 17.095 152.984 17.0275 152.694 17.0275C152.374 17.0275 152.094 17.0825 151.854 17.1925C151.614 17.3025 151.412 17.435 151.247 17.59C151.087 17.745 150.959 17.885 150.864 18.01C150.864 18.05 150.867 18.12 150.872 18.22C150.877 18.315 150.882 18.425 150.887 18.55C150.897 18.675 150.904 18.8 150.909 18.925C150.919 19.05 150.927 19.16 150.932 19.255C150.937 19.35 150.942 19.42 150.947 19.465ZM161.599 21.6475C161.459 21.7975 161.196 21.9425 160.811 22.0825C160.431 22.2275 160.006 22.3 159.536 22.3C158.926 22.3 158.461 22.1575 158.141 21.8725C157.826 21.5875 157.614 21.185 157.504 20.665C157.394 20.14 157.339 19.53 157.339 18.835C157.339 18.29 157.344 17.7425 157.354 17.1925C157.364 16.6425 157.376 16.0975 157.391 15.5575C157.411 15.0175 157.431 14.495 157.451 13.99C157.476 13.48 157.499 12.9975 157.519 12.5425C157.544 12.0825 157.569 11.6625 157.594 11.2825C157.949 11.2575 158.276 11.245 158.576 11.245C158.771 11.245 158.964 11.25 159.154 11.26C159.344 11.27 159.554 11.285 159.784 11.305C159.759 11.74 159.729 12.2225 159.694 12.7525C159.664 13.2775 159.634 13.815 159.604 14.365C159.579 14.915 159.554 15.4475 159.529 15.9625C159.504 16.4775 159.484 16.945 159.469 17.365C159.459 17.78 159.454 18.1125 159.454 18.3625C159.454 18.6875 159.466 18.99 159.491 19.27C159.521 19.545 159.586 19.77 159.686 19.945C159.786 20.115 159.936 20.2 160.136 20.2C160.306 20.2 160.444 20.1625 160.549 20.0875C160.659 20.0075 160.749 19.9075 160.819 19.7875C160.854 19.8475 160.909 19.9675 160.984 20.1475C161.059 20.3225 161.141 20.5175 161.231 20.7325C161.321 20.9475 161.401 21.1425 161.471 21.3175C161.541 21.4875 161.584 21.5975 161.599 21.6475ZM164.798 21.985C164.713 21.99 164.55 22 164.31 22.015C164.075 22.035 163.825 22.045 163.56 22.045C163.365 22.045 163.168 22.0375 162.968 22.0225C162.773 22.0125 162.58 21.9975 162.39 21.9775C162.415 21.8475 162.443 21.5825 162.473 21.1825C162.508 20.7775 162.54 20.3025 162.57 19.7575C162.605 19.2125 162.638 18.65 162.668 18.07C162.703 17.485 162.728 16.9375 162.743 16.4275C162.763 15.9175 162.773 15.5075 162.773 15.1975C162.873 15.1925 163.02 15.185 163.215 15.175C163.41 15.165 163.62 15.1575 163.845 15.1525C164.07 15.1425 164.285 15.135 164.49 15.13C164.695 15.12 164.858 15.115 164.978 15.115C165.003 15.27 165.023 15.52 165.038 15.865C165.053 16.21 165.06 16.595 165.06 17.02C165.06 17.475 165.053 17.9575 165.038 18.4675C165.028 18.9775 165.01 19.4725 164.985 19.9525C164.965 20.4275 164.938 20.8475 164.903 21.2125C164.868 21.5725 164.833 21.83 164.798 21.985ZM163.958 14.1475C163.508 14.1475 163.13 14.0175 162.825 13.7575C162.52 13.4925 162.368 13.145 162.368 12.715C162.368 12.42 162.44 12.1675 162.585 11.9575C162.73 11.7475 162.918 11.5875 163.148 11.4775C163.383 11.3625 163.63 11.305 163.89 11.305C164.305 11.305 164.648 11.44 164.918 11.71C165.193 11.98 165.33 12.3275 165.33 12.7525C165.33 13.1475 165.2 13.48 164.94 13.75C164.68 14.015 164.353 14.1475 163.958 14.1475ZM169.848 22.5925C169.263 22.5925 168.725 22.52 168.235 22.375C167.75 22.235 167.338 22.07 166.998 21.88C166.663 21.685 166.42 21.51 166.27 21.355C166.3 21.26 166.358 21.1225 166.443 20.9425C166.533 20.7575 166.638 20.5575 166.758 20.3425C166.878 20.1275 166.998 19.9275 167.118 19.7425C167.238 19.5575 167.345 19.42 167.44 19.33C167.68 19.535 167.94 19.7375 168.22 19.9375C168.5 20.1325 168.788 20.2925 169.083 20.4175C169.378 20.5425 169.653 20.605 169.908 20.605C170.108 20.605 170.288 20.58 170.448 20.53C170.608 20.475 170.733 20.395 170.823 20.29C170.918 20.185 170.965 20.055 170.965 19.9C170.965 19.72 170.878 19.5475 170.703 19.3825C170.533 19.2125 170.313 19.0525 170.043 18.9025C169.773 18.7525 169.49 18.6175 169.195 18.4975C168.79 18.3325 168.413 18.14 168.063 17.92C167.713 17.695 167.43 17.42 167.215 17.095C167 16.765 166.893 16.355 166.893 15.865C166.893 15.365 167.04 14.945 167.335 14.605C167.63 14.265 168.015 14.0075 168.49 13.8325C168.97 13.6575 169.483 13.57 170.028 13.57C170.543 13.57 171.065 13.6425 171.595 13.7875C172.125 13.9275 172.558 14.13 172.893 14.395C172.863 14.49 172.798 14.635 172.698 14.83C172.603 15.025 172.485 15.235 172.345 15.46C172.21 15.68 172.065 15.8825 171.91 16.0675C171.705 15.8925 171.448 15.725 171.138 15.565C170.828 15.405 170.503 15.325 170.163 15.325C169.993 15.325 169.823 15.3425 169.653 15.3775C169.488 15.4125 169.35 15.475 169.24 15.565C169.135 15.655 169.083 15.7775 169.083 15.9325C169.083 16.0825 169.14 16.2175 169.255 16.3375C169.37 16.4525 169.538 16.565 169.758 16.675C169.983 16.785 170.245 16.9 170.545 17.02C170.845 17.14 171.15 17.2825 171.46 17.4475C171.77 17.6075 172.055 17.8 172.315 18.025C172.58 18.25 172.793 18.5125 172.953 18.8125C173.113 19.1075 173.193 19.4475 173.193 19.8325C173.193 20.4475 173.04 20.96 172.735 21.37C172.43 21.78 172.023 22.085 171.513 22.285C171.008 22.49 170.453 22.5925 169.848 22.5925ZM176.502 22.0825C176.387 22.1025 176.225 22.1175 176.015 22.1275C175.81 22.1375 175.597 22.1425 175.377 22.1425C175.117 22.1425 174.875 22.1325 174.65 22.1125C174.425 22.0975 174.26 22.07 174.155 22.03C174.195 21.73 174.23 21.34 174.26 20.86C174.295 20.375 174.322 19.8325 174.342 19.2325C174.367 18.6325 174.38 18.0025 174.38 17.3425C174.38 16.6675 174.367 15.98 174.342 15.28C174.322 14.58 174.295 13.905 174.26 13.255C174.225 12.6 174.192 12.0025 174.162 11.4625C174.197 11.4475 174.307 11.425 174.492 11.395C174.677 11.365 174.892 11.335 175.137 11.305C175.382 11.27 175.615 11.24 175.835 11.215C176.055 11.19 176.22 11.1775 176.33 11.1775C176.41 11.5525 176.48 12 176.54 12.52C176.6 13.04 176.65 13.61 176.69 14.23C176.73 14.845 176.757 15.49 176.772 16.165C176.942 15.975 177.157 15.805 177.417 15.655C177.677 15.5 177.96 15.38 178.265 15.295C178.575 15.205 178.882 15.16 179.187 15.16C179.797 15.16 180.265 15.2775 180.59 15.5125C180.915 15.7425 181.14 16.08 181.265 16.525C181.395 16.965 181.46 17.5025 181.46 18.1375C181.46 18.5375 181.442 18.9675 181.407 19.4275C181.377 19.8875 181.337 20.34 181.287 20.785C181.237 21.23 181.182 21.63 181.122 21.985C180.947 22.01 180.767 22.03 180.582 22.045C180.397 22.06 180.212 22.0675 180.027 22.0675C179.822 22.0675 179.62 22.0575 179.42 22.0375C179.225 22.0225 179.047 22 178.887 21.97C178.922 21.745 178.96 21.48 179 21.175C179.04 20.87 179.077 20.5575 179.112 20.2375C179.147 19.9125 179.175 19.605 179.195 19.315C179.22 19.02 179.232 18.77 179.232 18.565C179.232 18.27 179.202 18.02 179.142 17.815C179.087 17.61 178.995 17.455 178.865 17.35C178.74 17.24 178.57 17.185 178.355 17.185C178.17 17.185 177.995 17.22 177.83 17.29C177.665 17.355 177.512 17.44 177.372 17.545C177.237 17.645 177.117 17.75 177.012 17.86C176.907 17.965 176.825 18.0575 176.765 18.1375C176.765 18.6525 176.752 19.1675 176.727 19.6825C176.702 20.1925 176.67 20.6575 176.63 21.0775C176.59 21.4975 176.547 21.8325 176.502 22.0825Z" fill="white"/>
<path d="M36.7778 7L26.2222 7.00021M36.7778 7L37.6255 7.00021C38.8055 7.00021 39.3956 7.00021 39.8467 7.23011C40.2439 7.43246 40.5677 7.75566 40.7701 8.15286C41 8.604 41 9.19469 41 10.3747V19.435C41 19.9088 41 20.1468 40.9494 20.3728C40.9045 20.5745 40.8304 20.7682 40.7289 20.9482C40.6164 21.1479 40.4585 21.3234 40.1481 21.6683L37.2398 24.8997C36.8801 25.2994 36.6978 25.502 36.4788 25.6475C36.282 25.7783 36.0644 25.8748 35.8355 25.9336C35.5771 26 35.2998 26 34.7458 26H25.378C24.1957 26 23.604 26 23.1525 25.7699C22.7552 25.5675 22.4325 25.2448 22.2301 24.8476C22 24.396 22 23.8044 22 22.622V10.3777C22 9.19543 22 8.60506 22.2301 8.1535C22.4325 7.7563 22.7552 7.43246 23.1525 7.23011C23.6036 7.00021 24.1945 7.00021 25.3745 7.00021H26.2222M36.7778 7V11.0146C36.7778 12.1945 36.7778 12.7854 36.5479 13.2366C36.3455 13.6338 36.0217 13.9566 35.6245 14.1589C35.1729 14.389 34.5825 14.389 33.4002 14.389H29.6002C28.4179 14.389 27.8263 14.389 27.3747 14.1589C26.9774 13.9566 26.6547 13.6338 26.4523 13.2366C26.2222 12.785 26.2222 12.1934 26.2222 11.0111V7.00021M34.6667 21.7778H28.3333" stroke="white" stroke-width="2" stroke-linecap="round" stroke-linejoin="round"/>
</svg>
