<svg width="151" height="38" viewBox="0 0 151 38" fill="none" xmlns="http://www.w3.org/2000/svg">
<path d="M2.87007 32.7233C1.08866 29.9368 -0.247408 6.84935 2.87007 4.36149C5.98755 1.87363 56.3125 3.36635 82.5884 4.36149C108.864 5.35663 143.602 3.8639 148.055 5.35663C152.509 6.84935 151.217 33.4199 148.724 36.2063C145.606 39.6893 90.1594 37.2014 77.0215 36.2063C63.8836 35.2111 5.09684 36.2063 2.87007 32.7233Z" fill="#214868"/>
<path d="M1.87007 29.7233C0.0886566 26.9368 -1.24741 3.84935 1.87007 1.36149C4.98755 -1.12637 55.3125 0.366353 81.5884 1.36149C107.864 2.35663 142.602 0.863904 147.055 2.35663C151.509 3.84935 150.217 30.4199 147.724 33.2063C144.606 36.6893 89.1594 34.2014 76.0215 33.2063C62.8836 32.2111 4.09684 33.2063 1.87007 29.7233Z" fill="#3387DC"/>
<path d="M47.0684 22.1875C47.0384 21.6275 47.0009 20.9425 46.9559 20.1325C46.9159 19.3175 46.8709 18.4475 46.8209 17.5225C46.7759 16.5925 46.7309 15.67 46.6859 14.755C46.6409 13.835 46.6009 12.9925 46.5659 12.2275C46.7609 12.2075 47.0109 12.1875 47.3159 12.1675C47.6209 12.1475 47.9509 12.1275 48.3059 12.1075C48.6609 12.0875 49.0084 12.07 49.3484 12.055C49.6884 12.04 49.9909 12.0325 50.2559 12.0325C50.6409 12.0325 51.0259 12.07 51.4109 12.145C51.8009 12.215 52.1559 12.34 52.4759 12.52C52.8009 12.7 53.0609 12.9575 53.2559 13.2925C53.4509 13.6225 53.5484 14.05 53.5484 14.575C53.5484 15.09 53.4159 15.575 53.1509 16.03C52.8909 16.485 52.5434 16.815 52.1084 17.02C52.2234 17.235 52.3509 17.495 52.4909 17.8C52.6309 18.105 52.7709 18.4325 52.9109 18.7825C53.0559 19.1325 53.1934 19.48 53.3234 19.825C53.4534 20.165 53.5684 20.4775 53.6684 20.7625C53.7734 21.0475 53.8509 21.28 53.9009 21.46C53.7559 21.55 53.5609 21.635 53.3159 21.715C53.0759 21.795 52.8284 21.8675 52.5734 21.9325C52.3184 21.9925 52.0959 22.0425 51.9059 22.0825C51.7209 22.1225 51.6084 22.1425 51.5684 22.1425C51.5284 21.9425 51.4659 21.68 51.3809 21.355C51.2959 21.03 51.1984 20.6775 51.0884 20.2975C50.9784 19.9175 50.8659 19.545 50.7509 19.18C50.6409 18.81 50.5384 18.48 50.4434 18.19C50.3484 17.9 50.2734 17.685 50.2184 17.545C50.1034 17.57 49.9859 17.5925 49.8659 17.6125C49.7509 17.6325 49.6409 17.6475 49.5359 17.6575C49.4359 17.6675 49.3434 17.675 49.2584 17.68C49.2784 17.795 49.2984 17.985 49.3184 18.25C49.3434 18.51 49.3684 18.8125 49.3934 19.1575C49.4184 19.5025 49.4409 19.8575 49.4609 20.2225C49.4859 20.5825 49.5059 20.9225 49.5209 21.2425C49.5409 21.5625 49.5534 21.825 49.5584 22.03C49.3584 22.075 49.1134 22.1075 48.8234 22.1275C48.5384 22.1525 48.2409 22.1675 47.9309 22.1725C47.6259 22.1825 47.3384 22.1875 47.0684 22.1875ZM49.0559 15.88C49.2109 15.88 49.3684 15.875 49.5284 15.865C49.6934 15.85 49.8884 15.8225 50.1134 15.7825C50.4384 15.7275 50.6984 15.6525 50.8934 15.5575C51.0884 15.4575 51.2284 15.3325 51.3134 15.1825C51.4034 15.0275 51.4484 14.8475 51.4484 14.6425C51.4484 14.3675 51.3859 14.17 51.2609 14.05C51.1359 13.925 50.9634 13.845 50.7434 13.81C50.5284 13.775 50.2759 13.7575 49.9859 13.7575C49.9059 13.7575 49.8109 13.7625 49.7009 13.7725C49.5909 13.7775 49.4809 13.785 49.3709 13.795C49.2609 13.805 49.1609 13.815 49.0709 13.825C48.9809 13.83 48.9159 13.835 48.8759 13.84C48.8809 13.925 48.8909 14.0375 48.9059 14.1775C48.9209 14.3175 48.9359 14.4725 48.9509 14.6425C48.9659 14.8075 48.9784 14.9725 48.9884 15.1375C49.0034 15.2975 49.0159 15.445 49.0259 15.58C49.0409 15.71 49.0509 15.81 49.0559 15.88ZM61.856 20.6575C61.716 20.8275 61.541 20.995 61.331 21.16C61.121 21.325 60.8685 21.475 60.5735 21.61C60.2835 21.74 59.951 21.845 59.576 21.925C59.201 22 58.781 22.0375 58.316 22.0375C57.561 22.0375 56.891 21.895 56.306 21.61C55.721 21.32 55.2635 20.8925 54.9335 20.3275C54.6085 19.7575 54.446 19.05 54.446 18.205C54.446 17.36 54.616 16.625 54.956 16C55.296 15.37 55.771 14.8825 56.381 14.5375C56.991 14.1875 57.7035 14.0125 58.5185 14.0125C59.5485 14.0125 60.3585 14.3 60.9485 14.875C61.5435 15.445 61.8535 16.235 61.8785 17.245C61.8835 17.43 61.881 17.5975 61.871 17.7475C61.861 17.8975 61.841 18.0575 61.811 18.2275C61.736 18.2225 61.576 18.2175 61.331 18.2125C61.086 18.2075 60.8085 18.2025 60.4985 18.1975C60.1935 18.1875 59.9035 18.18 59.6285 18.175C59.3585 18.17 59.1585 18.1675 59.0285 18.1675C58.5935 18.1675 58.171 18.1875 57.761 18.2275C57.356 18.2675 57.016 18.31 56.741 18.355C56.741 18.445 56.746 18.535 56.756 18.625C56.771 18.71 56.791 18.7925 56.816 18.8725C56.881 19.0775 56.9935 19.2525 57.1535 19.3975C57.3185 19.5425 57.5135 19.655 57.7385 19.735C57.9685 19.81 58.211 19.8475 58.466 19.8475C58.696 19.8475 58.906 19.82 59.096 19.765C59.291 19.705 59.4685 19.6275 59.6285 19.5325C59.7885 19.4375 59.9335 19.335 60.0635 19.225C60.1985 19.11 60.3235 18.9975 60.4385 18.8875C60.4685 18.9125 60.546 18.9875 60.671 19.1125C60.796 19.2325 60.936 19.3825 61.091 19.5625C61.246 19.7375 61.3935 19.9225 61.5335 20.1175C61.6735 20.3125 61.781 20.4925 61.856 20.6575ZM56.8235 16.9525C57.0485 16.9175 57.326 16.885 57.656 16.855C57.986 16.825 58.3685 16.81 58.8035 16.81C59.0385 16.81 59.246 16.8125 59.426 16.8175C59.611 16.8225 59.741 16.8275 59.816 16.8325C59.816 16.7275 59.801 16.6125 59.771 16.4875C59.731 16.3175 59.651 16.155 59.531 16C59.416 15.845 59.266 15.72 59.081 15.625C58.901 15.53 58.6835 15.4825 58.4285 15.4825C58.1085 15.4825 57.8285 15.5525 57.5885 15.6925C57.3535 15.8325 57.171 16.015 57.041 16.24C56.911 16.465 56.8385 16.7025 56.8235 16.9525ZM67.2653 20.0725C66.2453 20.0725 65.4353 19.9275 64.8353 19.6375C64.2403 19.3475 63.8153 18.975 63.5603 18.52C63.3053 18.06 63.1778 17.5775 63.1778 17.0725C63.1778 16.4225 63.3478 15.875 63.6878 15.43C64.0278 14.985 64.4903 14.65 65.0753 14.425C65.6603 14.195 66.3278 14.08 67.0778 14.08C68.2828 14.08 69.1828 14.345 69.7778 14.875C70.3778 15.405 70.6778 16.1075 70.6778 16.9825C70.6778 17.6625 70.5328 18.2325 70.2428 18.6925C69.9578 19.1475 69.5603 19.4925 69.0503 19.7275C68.5403 19.9575 67.9453 20.0725 67.2653 20.0725ZM66.9278 25.7425C66.1478 25.7425 65.4378 25.6675 64.7978 25.5175C64.1628 25.3725 63.6553 25.1125 63.2753 24.7375C62.9003 24.3675 62.7128 23.8475 62.7128 23.1775C62.7128 22.7625 62.8478 22.3775 63.1178 22.0225C63.3878 21.6725 63.7753 21.385 64.2803 21.16C64.7853 20.93 65.3828 20.795 66.0728 20.755C66.3828 20.735 66.7103 20.7225 67.0553 20.7175C67.4053 20.7075 67.8153 20.7025 68.2853 20.7025C69.0803 20.7025 69.7303 20.88 70.2353 21.235C70.7453 21.585 71.0003 22.1475 71.0003 22.9225C71.0003 23.6025 70.8203 24.15 70.4603 24.565C70.1053 24.98 69.6203 25.28 69.0053 25.465C68.3953 25.65 67.7028 25.7425 66.9278 25.7425ZM66.9953 24.2875C67.3353 24.2875 67.6378 24.2525 67.9028 24.1825C68.1678 24.1125 68.3778 24.0025 68.5328 23.8525C68.6878 23.7025 68.7653 23.505 68.7653 23.26C68.7653 23.045 68.7028 22.875 68.5778 22.75C68.4578 22.63 68.3028 22.545 68.1128 22.495C67.9278 22.445 67.7353 22.42 67.5353 22.42C67.4003 22.42 67.2453 22.42 67.0703 22.42C66.8953 22.42 66.7228 22.42 66.5528 22.42C66.3878 22.42 66.2503 22.42 66.1403 22.42C65.9553 22.42 65.7828 22.4425 65.6228 22.4875C65.4678 22.5375 65.3403 22.625 65.2403 22.75C65.1453 22.875 65.0978 23.0525 65.0978 23.2825C65.0978 23.5125 65.1803 23.7025 65.3453 23.8525C65.5103 24.0025 65.7353 24.1125 66.0203 24.1825C66.3053 24.2525 66.6303 24.2875 66.9953 24.2875ZM65.1353 21.5275C64.4553 21.3875 63.9803 21.195 63.7103 20.95C63.4453 20.705 63.3128 20.4325 63.3128 20.1325C63.3128 19.8975 63.3653 19.695 63.4703 19.525C63.5753 19.35 63.7003 19.21 63.8453 19.105C63.9953 18.995 64.1378 18.9225 64.2728 18.8875L65.7578 19.6375C65.5678 19.7025 65.4253 19.7875 65.3303 19.8925C65.2403 19.9925 65.1953 20.095 65.1953 20.2C65.1953 20.34 65.2703 20.4675 65.4203 20.5825C65.5753 20.6975 65.7928 20.755 66.0728 20.755L65.1353 21.5275ZM67.0628 18.2875C67.3828 18.2875 67.6528 18.2375 67.8728 18.1375C68.0928 18.0375 68.2578 17.89 68.3678 17.695C68.4828 17.5 68.5403 17.2625 68.5403 16.9825C68.5403 16.7525 68.4753 16.55 68.3453 16.375C68.2203 16.2 68.0528 16.065 67.8428 15.97C67.6378 15.87 67.4103 15.82 67.1603 15.82C66.7503 15.82 66.3828 15.9075 66.0578 16.0825C65.7378 16.2575 65.5778 16.5675 65.5778 17.0125C65.5778 17.4275 65.7178 17.745 65.9978 17.965C66.2828 18.18 66.6378 18.2875 67.0628 18.2875ZM70.0478 15.97L68.7278 14.86C68.7878 14.665 68.9003 14.4575 69.0653 14.2375C69.2353 14.0125 69.4278 13.805 69.6428 13.615C69.8628 13.42 70.0753 13.2725 70.2803 13.1725C70.3503 13.2775 70.4503 13.4225 70.5803 13.6075C70.7103 13.7925 70.8453 13.98 70.9853 14.17C71.1253 14.36 71.2453 14.5175 71.3453 14.6425C71.2303 14.6975 71.1053 14.7725 70.9703 14.8675C70.8403 14.9575 70.7128 15.0625 70.5878 15.1825C70.4628 15.2975 70.3528 15.4225 70.2578 15.5575C70.1628 15.6925 70.0928 15.83 70.0478 15.97ZM74.8063 21.985C74.7213 21.99 74.5588 22 74.3188 22.015C74.0838 22.035 73.8338 22.045 73.5688 22.045C73.3738 22.045 73.1763 22.0375 72.9763 22.0225C72.7813 22.0125 72.5888 21.9975 72.3988 21.9775C72.4238 21.8475 72.4513 21.5825 72.4813 21.1825C72.5163 20.7775 72.5488 20.3025 72.5788 19.7575C72.6138 19.2125 72.6463 18.65 72.6763 18.07C72.7113 17.485 72.7363 16.9375 72.7513 16.4275C72.7713 15.9175 72.7813 15.5075 72.7813 15.1975C72.8813 15.1925 73.0288 15.185 73.2238 15.175C73.4188 15.165 73.6288 15.1575 73.8538 15.1525C74.0788 15.1425 74.2938 15.135 74.4988 15.13C74.7038 15.12 74.8663 15.115 74.9863 15.115C75.0113 15.27 75.0313 15.52 75.0463 15.865C75.0613 16.21 75.0688 16.595 75.0688 17.02C75.0688 17.475 75.0613 17.9575 75.0463 18.4675C75.0363 18.9775 75.0188 19.4725 74.9938 19.9525C74.9738 20.4275 74.9463 20.8475 74.9113 21.2125C74.8763 21.5725 74.8413 21.83 74.8063 21.985ZM73.9663 14.1475C73.5163 14.1475 73.1388 14.0175 72.8338 13.7575C72.5288 13.4925 72.3763 13.145 72.3763 12.715C72.3763 12.42 72.4488 12.1675 72.5938 11.9575C72.7388 11.7475 72.9263 11.5875 73.1563 11.4775C73.3913 11.3625 73.6388 11.305 73.8988 11.305C74.3138 11.305 74.6563 11.44 74.9263 11.71C75.2013 11.98 75.3388 12.3275 75.3388 12.7525C75.3388 13.1475 75.2088 13.48 74.9488 13.75C74.6888 14.015 74.3613 14.1475 73.9663 14.1475ZM79.8566 22.5925C79.2716 22.5925 78.7341 22.52 78.2441 22.375C77.7591 22.235 77.3466 22.07 77.0066 21.88C76.6716 21.685 76.4291 21.51 76.2791 21.355C76.3091 21.26 76.3666 21.1225 76.4516 20.9425C76.5416 20.7575 76.6466 20.5575 76.7666 20.3425C76.8866 20.1275 77.0066 19.9275 77.1266 19.7425C77.2466 19.5575 77.3541 19.42 77.4491 19.33C77.6891 19.535 77.9491 19.7375 78.2291 19.9375C78.5091 20.1325 78.7966 20.2925 79.0916 20.4175C79.3866 20.5425 79.6616 20.605 79.9166 20.605C80.1166 20.605 80.2966 20.58 80.4566 20.53C80.6166 20.475 80.7416 20.395 80.8316 20.29C80.9266 20.185 80.9741 20.055 80.9741 19.9C80.9741 19.72 80.8866 19.5475 80.7116 19.3825C80.5416 19.2125 80.3216 19.0525 80.0516 18.9025C79.7816 18.7525 79.4991 18.6175 79.2041 18.4975C78.7991 18.3325 78.4216 18.14 78.0716 17.92C77.7216 17.695 77.4391 17.42 77.2241 17.095C77.0091 16.765 76.9016 16.355 76.9016 15.865C76.9016 15.365 77.0491 14.945 77.3441 14.605C77.6391 14.265 78.0241 14.0075 78.4991 13.8325C78.9791 13.6575 79.4916 13.57 80.0366 13.57C80.5516 13.57 81.0741 13.6425 81.6041 13.7875C82.1341 13.9275 82.5666 14.13 82.9016 14.395C82.8716 14.49 82.8066 14.635 82.7066 14.83C82.6116 15.025 82.4941 15.235 82.3541 15.46C82.2191 15.68 82.0741 15.8825 81.9191 16.0675C81.7141 15.8925 81.4566 15.725 81.1466 15.565C80.8366 15.405 80.5116 15.325 80.1716 15.325C80.0016 15.325 79.8316 15.3425 79.6616 15.3775C79.4966 15.4125 79.3591 15.475 79.2491 15.565C79.1441 15.655 79.0916 15.7775 79.0916 15.9325C79.0916 16.0825 79.1491 16.2175 79.2641 16.3375C79.3791 16.4525 79.5466 16.565 79.7666 16.675C79.9916 16.785 80.2541 16.9 80.5541 17.02C80.8541 17.14 81.1591 17.2825 81.4691 17.4475C81.7791 17.6075 82.0641 17.8 82.3241 18.025C82.5891 18.25 82.8016 18.5125 82.9616 18.8125C83.1216 19.1075 83.2016 19.4475 83.2016 19.8325C83.2016 20.4475 83.0491 20.96 82.7441 21.37C82.4391 21.78 82.0316 22.085 81.5216 22.285C81.0166 22.49 80.4616 22.5925 79.8566 22.5925ZM90.2944 21.0175C90.1994 21.2025 90.0494 21.4 89.8444 21.61C89.6444 21.815 89.3819 21.99 89.0569 22.135C88.7369 22.285 88.3469 22.36 87.8869 22.36C87.2819 22.36 86.7869 22.2325 86.4019 21.9775C86.0219 21.7225 85.7394 21.3825 85.5544 20.9575C85.3744 20.5325 85.2844 20.0675 85.2844 19.5625C85.2844 19.2875 85.2869 18.995 85.2919 18.685C85.3019 18.37 85.3119 18.06 85.3219 17.755C85.3319 17.445 85.3419 17.1525 85.3519 16.8775C85.3669 16.5975 85.3794 16.3525 85.3894 16.1425C85.4044 15.9325 85.4144 15.77 85.4194 15.655C85.0244 15.695 84.6594 15.74 84.3244 15.79C83.9894 15.835 83.7569 15.8725 83.6269 15.9025C83.5769 15.6225 83.5394 15.3375 83.5144 15.0475C83.4894 14.7575 83.4694 14.505 83.4544 14.29C83.4444 14.075 83.4394 13.9425 83.4394 13.8925C83.7294 13.8525 84.0394 13.8175 84.3694 13.7875C84.6994 13.7525 85.0469 13.7275 85.4119 13.7125C85.4069 13.5925 85.4019 13.405 85.3969 13.15C85.3919 12.895 85.3844 12.665 85.3744 12.46C85.3694 12.275 85.3594 12.09 85.3444 11.905C85.3294 11.715 85.3169 11.5625 85.3069 11.4475L87.5269 11.2525C87.5269 11.3125 87.5269 11.4525 87.5269 11.6725C87.5319 11.8925 87.5344 12.1575 87.5344 12.4675C87.5344 12.6225 87.5369 12.8025 87.5419 13.0075C87.5469 13.2075 87.5519 13.405 87.5569 13.6C87.7219 13.59 87.9144 13.58 88.1344 13.57C88.3544 13.56 88.5294 13.5525 88.6594 13.5475C88.8694 13.5375 89.0594 13.5325 89.2294 13.5325C89.3994 13.5275 89.5394 13.525 89.6494 13.525C89.7644 13.525 89.8419 13.5275 89.8819 13.5325C89.9119 13.7675 89.9319 14.0675 89.9419 14.4325C89.9519 14.7925 89.9569 15.1125 89.9569 15.3925C89.9069 15.3875 89.7444 15.39 89.4694 15.4C89.1944 15.405 88.9244 15.415 88.6594 15.43C88.4744 15.435 88.2694 15.445 88.0444 15.46C87.8194 15.475 87.6419 15.49 87.5119 15.505C87.5069 15.61 87.4994 15.755 87.4894 15.94C87.4844 16.12 87.4769 16.325 87.4669 16.555C87.4619 16.78 87.4544 17.015 87.4444 17.26C87.4394 17.5 87.4344 17.7325 87.4294 17.9575C87.4244 18.1825 87.4219 18.3825 87.4219 18.5575C87.4219 18.8875 87.4369 19.185 87.4669 19.45C87.5019 19.71 87.5744 19.9175 87.6844 20.0725C87.7994 20.2225 87.9744 20.2975 88.2094 20.2975C88.3644 20.2975 88.4969 20.2525 88.6069 20.1625C88.7169 20.0725 88.8069 19.9675 88.8769 19.8475C88.9519 19.7225 89.0169 19.6125 89.0719 19.5175C89.1369 19.6075 89.2269 19.7275 89.3419 19.8775C89.4619 20.0225 89.5869 20.175 89.7169 20.335C89.8519 20.495 89.9719 20.6375 90.0769 20.7625C90.1869 20.8875 90.2594 20.9725 90.2944 21.0175ZM98.0084 20.6575C97.8684 20.8275 97.6934 20.995 97.4834 21.16C97.2734 21.325 97.0209 21.475 96.7259 21.61C96.4359 21.74 96.1034 21.845 95.7284 21.925C95.3534 22 94.9334 22.0375 94.4684 22.0375C93.7134 22.0375 93.0434 21.895 92.4584 21.61C91.8734 21.32 91.4159 20.8925 91.0859 20.3275C90.7609 19.7575 90.5984 19.05 90.5984 18.205C90.5984 17.36 90.7684 16.625 91.1084 16C91.4484 15.37 91.9234 14.8825 92.5334 14.5375C93.1434 14.1875 93.8559 14.0125 94.6709 14.0125C95.7009 14.0125 96.5109 14.3 97.1009 14.875C97.6959 15.445 98.0059 16.235 98.0309 17.245C98.0359 17.43 98.0334 17.5975 98.0234 17.7475C98.0134 17.8975 97.9934 18.0575 97.9634 18.2275C97.8884 18.2225 97.7284 18.2175 97.4834 18.2125C97.2384 18.2075 96.9609 18.2025 96.6509 18.1975C96.3459 18.1875 96.0559 18.18 95.7809 18.175C95.5109 18.17 95.3109 18.1675 95.1809 18.1675C94.7459 18.1675 94.3234 18.1875 93.9134 18.2275C93.5084 18.2675 93.1684 18.31 92.8934 18.355C92.8934 18.445 92.8984 18.535 92.9084 18.625C92.9234 18.71 92.9434 18.7925 92.9684 18.8725C93.0334 19.0775 93.1459 19.2525 93.3059 19.3975C93.4709 19.5425 93.6659 19.655 93.8909 19.735C94.1209 19.81 94.3634 19.8475 94.6184 19.8475C94.8484 19.8475 95.0584 19.82 95.2484 19.765C95.4434 19.705 95.6209 19.6275 95.7809 19.5325C95.9409 19.4375 96.0859 19.335 96.2159 19.225C96.3509 19.11 96.4759 18.9975 96.5909 18.8875C96.6209 18.9125 96.6984 18.9875 96.8234 19.1125C96.9484 19.2325 97.0884 19.3825 97.2434 19.5625C97.3984 19.7375 97.5459 19.9225 97.6859 20.1175C97.8259 20.3125 97.9334 20.4925 98.0084 20.6575ZM92.9759 16.9525C93.2009 16.9175 93.4784 16.885 93.8084 16.855C94.1384 16.825 94.5209 16.81 94.9559 16.81C95.1909 16.81 95.3984 16.8125 95.5784 16.8175C95.7634 16.8225 95.8934 16.8275 95.9684 16.8325C95.9684 16.7275 95.9534 16.6125 95.9234 16.4875C95.8834 16.3175 95.8034 16.155 95.6834 16C95.5684 15.845 95.4184 15.72 95.2334 15.625C95.0534 15.53 94.8359 15.4825 94.5809 15.4825C94.2609 15.4825 93.9809 15.5525 93.7409 15.6925C93.5059 15.8325 93.3234 16.015 93.1934 16.24C93.0634 16.465 92.9909 16.7025 92.9759 16.9525ZM101.205 15.28C101.32 15.055 101.495 14.84 101.73 14.635C101.97 14.43 102.253 14.2625 102.578 14.1325C102.908 14.0025 103.258 13.9375 103.628 13.9375C103.853 13.9375 104.08 13.96 104.31 14.005C104.54 14.05 104.708 14.11 104.813 14.185L104.348 16.57C104.238 16.525 104.095 16.475 103.92 16.42C103.745 16.365 103.545 16.3375 103.32 16.3375C103.09 16.3375 102.865 16.3775 102.645 16.4575C102.43 16.5325 102.23 16.64 102.045 16.78C101.86 16.92 101.698 17.0875 101.558 17.2825C101.608 17.5725 101.663 17.9425 101.723 18.3925C101.788 18.8425 101.848 19.305 101.903 19.78C101.958 20.255 102.003 20.6875 102.038 21.0775C102.073 21.4675 102.09 21.7525 102.09 21.9325C101.74 21.9775 101.335 22.0075 100.875 22.0225C100.415 22.0375 99.9726 22.0425 99.5476 22.0375C99.5476 21.6175 99.5351 21.14 99.5101 20.605C99.4901 20.07 99.4601 19.5125 99.4201 18.9325C99.3801 18.3475 99.3301 17.7725 99.2701 17.2075C99.2151 16.6375 99.1501 16.11 99.0751 15.625C99.0051 15.14 98.9301 14.7275 98.8501 14.3875C99.0901 14.3175 99.3551 14.2525 99.6451 14.1925C99.9351 14.1325 100.198 14.085 100.433 14.05C100.668 14.01 100.818 13.9875 100.883 13.9825C100.943 14.1225 101.01 14.33 101.085 14.605C101.16 14.875 101.2 15.1 101.205 15.28Z" fill="white"/>
</svg>
