<svg width="132" height="38" viewBox="0 0 132 38" fill="none" xmlns="http://www.w3.org/2000/svg">
<path d="M2.6332 32.7233C1.07743 29.9368 -0.0894032 6.84935 2.6332 4.36149C5.3558 1.87363 49.3063 3.36635 72.2539 4.36149C95.2015 5.35663 125.539 3.8639 129.428 5.35663C133.318 6.84935 132.19 33.4199 130.012 36.2063C127.289 39.6893 78.8659 37.2014 67.3921 36.2063C55.9183 35.2111 4.57791 36.2063 2.6332 32.7233Z" fill="#214868"/>
<path d="M1.6332 29.7233C0.0774268 26.9368 -1.0894 3.84935 1.6332 1.36149C4.3558 -1.12637 48.3063 0.366353 71.2539 1.36149C94.2015 2.35663 124.539 0.863904 128.428 2.35663C132.318 3.84935 131.19 30.4199 129.012 33.2063C126.289 36.6893 77.8659 34.2014 66.3921 33.2063C54.9183 32.2111 3.57791 33.2063 1.6332 29.7233Z" fill="#3387DC"/>
<path d="M59.2 22.12C58.825 22.12 58.4425 22.075 58.0525 21.985C57.6675 21.895 57.2925 21.7625 56.9275 21.5875C56.5675 21.4125 56.2375 21.1975 55.9375 20.9425C55.6375 20.6825 55.385 20.385 55.18 20.05C55.21 20 55.29 19.915 55.42 19.795C55.55 19.67 55.7 19.535 55.87 19.39C56.04 19.24 56.2075 19.1025 56.3725 18.9775C56.5425 18.8525 56.6825 18.7625 56.7925 18.7075C56.9525 18.8925 57.1225 19.0775 57.3025 19.2625C57.4875 19.4475 57.6825 19.615 57.8875 19.765C58.0975 19.91 58.3225 20.0275 58.5625 20.1175C58.8025 20.2075 59.0575 20.2525 59.3275 20.2525C59.6375 20.2525 59.8825 20.195 60.0625 20.08C60.2475 19.965 60.38 19.82 60.46 19.645C60.54 19.465 60.58 19.2825 60.58 19.0975C60.58 18.9475 60.5425 18.805 60.4675 18.67C60.3925 18.535 60.28 18.4075 60.13 18.2875C59.98 18.1625 59.7925 18.0425 59.5675 17.9275C59.3475 17.8075 59.0875 17.695 58.7875 17.59C58.1875 17.36 57.645 17.1175 57.16 16.8625C56.675 16.6025 56.2875 16.29 55.9975 15.925C55.7125 15.56 55.57 15.1025 55.57 14.5525C55.57 13.9675 55.7325 13.4775 56.0575 13.0825C56.3825 12.6875 56.8125 12.39 57.3475 12.19C57.8825 11.985 58.4575 11.8825 59.0725 11.8825C59.5375 11.8825 59.9875 11.935 60.4225 12.04C60.8625 12.14 61.2725 12.2925 61.6525 12.4975C62.0325 12.7025 62.36 12.96 62.635 13.27C62.56 13.38 62.4425 13.5275 62.2825 13.7125C62.1225 13.8975 61.9525 14.0825 61.7725 14.2675C61.5925 14.4525 61.44 14.6 61.315 14.71C61.115 14.515 60.8925 14.34 60.6475 14.185C60.4025 14.025 60.145 13.9 59.875 13.81C59.605 13.715 59.3325 13.6675 59.0575 13.6675C58.7375 13.6675 58.4675 13.7375 58.2475 13.8775C58.0275 14.0125 57.9175 14.2175 57.9175 14.4925C57.9175 14.6175 57.945 14.73 58 14.83C58.06 14.93 58.1425 15.02 58.2475 15.1C58.3525 15.18 58.4775 15.255 58.6225 15.325C58.7675 15.39 58.93 15.4525 59.11 15.5125C59.62 15.6825 60.105 15.86 60.565 16.045C61.03 16.23 61.44 16.445 61.795 16.69C62.155 16.93 62.4375 17.225 62.6425 17.575C62.8475 17.925 62.95 18.3525 62.95 18.8575C62.95 19.3325 62.8575 19.77 62.6725 20.17C62.4875 20.565 62.2275 20.91 61.8925 21.205C61.5625 21.495 61.1675 21.72 60.7075 21.88C60.2525 22.04 59.75 22.12 59.2 22.12ZM66.8601 21.985C66.7751 21.99 66.6126 22 66.3726 22.015C66.1376 22.035 65.8876 22.045 65.6226 22.045C65.4276 22.045 65.2301 22.0375 65.0301 22.0225C64.8351 22.0125 64.6426 21.9975 64.4526 21.9775C64.4776 21.8475 64.5051 21.5825 64.5351 21.1825C64.5701 20.7775 64.6026 20.3025 64.6326 19.7575C64.6676 19.2125 64.7001 18.65 64.7301 18.07C64.7651 17.485 64.7901 16.9375 64.8051 16.4275C64.8251 15.9175 64.8351 15.5075 64.8351 15.1975C64.9351 15.1925 65.0826 15.185 65.2776 15.175C65.4726 15.165 65.6826 15.1575 65.9076 15.1525C66.1326 15.1425 66.3476 15.135 66.5526 15.13C66.7576 15.12 66.9201 15.115 67.0401 15.115C67.0651 15.27 67.0851 15.52 67.1001 15.865C67.1151 16.21 67.1226 16.595 67.1226 17.02C67.1226 17.475 67.1151 17.9575 67.1001 18.4675C67.0901 18.9775 67.0726 19.4725 67.0476 19.9525C67.0276 20.4275 67.0001 20.8475 66.9651 21.2125C66.9301 21.5725 66.8951 21.83 66.8601 21.985ZM66.0201 14.1475C65.5701 14.1475 65.1926 14.0175 64.8876 13.7575C64.5826 13.4925 64.4301 13.145 64.4301 12.715C64.4301 12.42 64.5026 12.1675 64.6476 11.9575C64.7926 11.7475 64.9801 11.5875 65.2101 11.4775C65.4451 11.3625 65.6926 11.305 65.9526 11.305C66.3676 11.305 66.7101 11.44 66.9801 11.71C67.2551 11.98 67.3926 12.3275 67.3926 12.7525C67.3926 13.1475 67.2626 13.48 67.0026 13.75C66.7426 14.015 66.4151 14.1475 66.0201 14.1475ZM69.3937 22.06C69.3687 21.735 69.3437 21.32 69.3187 20.815C69.2987 20.31 69.2787 19.7625 69.2587 19.1725C69.2437 18.5775 69.2287 17.9875 69.2137 17.4025C69.2037 16.8175 69.1962 16.2775 69.1912 15.7825C69.1862 15.2825 69.1837 14.88 69.1837 14.575C69.3037 14.545 69.4637 14.515 69.6637 14.485C69.8637 14.45 70.0762 14.42 70.3012 14.395C70.5262 14.365 70.7387 14.3425 70.9387 14.3275C71.1437 14.3075 71.3087 14.2975 71.4337 14.2975C71.4387 14.3775 71.4437 14.48 71.4487 14.605C71.4537 14.725 71.4562 14.85 71.4562 14.98C71.4612 15.11 71.4637 15.2275 71.4637 15.3325C71.4637 15.4375 71.4637 15.5175 71.4637 15.5725C71.4937 15.4775 71.5637 15.355 71.6737 15.205C71.7837 15.055 71.9337 14.905 72.1237 14.755C72.3187 14.605 72.5537 14.48 72.8287 14.38C73.1037 14.275 73.4212 14.2225 73.7812 14.2225C74.1262 14.2225 74.4187 14.2875 74.6587 14.4175C74.8987 14.5475 75.0987 14.7175 75.2587 14.9275C75.4187 15.1375 75.5437 15.365 75.6337 15.61C75.6787 15.73 75.7137 15.8525 75.7387 15.9775C75.7687 16.1025 75.7912 16.225 75.8062 16.345C75.9162 15.98 76.0987 15.6325 76.3537 15.3025C76.6137 14.9675 76.9362 14.695 77.3212 14.485C77.7062 14.27 78.1487 14.1625 78.6487 14.1625C79.2487 14.1625 79.7412 14.27 80.1262 14.485C80.5162 14.7 80.8187 15.0175 81.0337 15.4375C81.2487 15.8575 81.3987 16.3725 81.4837 16.9825C81.5687 17.5925 81.6112 18.29 81.6112 19.075C81.6112 19.385 81.6037 19.71 81.5887 20.05C81.5787 20.39 81.5637 20.7325 81.5437 21.0775C81.5237 21.4225 81.5037 21.7575 81.4837 22.0825C81.3037 22.0925 81.1162 22.1 80.9212 22.105C80.7262 22.115 80.5312 22.12 80.3362 22.12C80.1412 22.12 79.9412 22.115 79.7362 22.105C79.5362 22.1 79.3337 22.09 79.1287 22.075C79.2287 21.33 79.3112 20.645 79.3762 20.02C79.4412 19.39 79.4737 18.8375 79.4737 18.3625C79.4737 17.6675 79.3937 17.1375 79.2337 16.7725C79.0787 16.4075 78.8112 16.225 78.4312 16.225C78.0862 16.225 77.8062 16.33 77.5912 16.54C77.3762 16.75 77.2087 17.04 77.0887 17.41C76.9687 17.78 76.8812 18.21 76.8262 18.7C76.7762 19.185 76.7412 19.705 76.7212 20.26C76.7112 20.54 76.7012 20.8325 76.6912 21.1375C76.6812 21.4425 76.6762 21.7525 76.6762 22.0675C76.5762 22.0725 76.4337 22.0775 76.2487 22.0825C76.0687 22.0925 75.8787 22.0975 75.6787 22.0975C75.4437 22.0975 75.2162 22.0925 74.9962 22.0825C74.7812 22.0775 74.6237 22.0675 74.5237 22.0525C74.5187 21.7125 74.5162 21.3925 74.5162 21.0925C74.5162 20.7925 74.5162 20.485 74.5162 20.17C74.5162 19.6 74.5012 19.075 74.4712 18.595C74.4462 18.11 74.3912 17.69 74.3062 17.335C74.2212 16.975 74.0937 16.695 73.9237 16.495C73.7587 16.295 73.5337 16.195 73.2487 16.195C73.0537 16.195 72.8637 16.2375 72.6787 16.3225C72.4937 16.4075 72.3237 16.5175 72.1687 16.6525C72.0187 16.7875 71.8912 16.9375 71.7862 17.1025C71.6862 17.2625 71.6162 17.4225 71.5762 17.5825C71.6062 18.3775 71.6387 19.1025 71.6737 19.7575C71.7087 20.4125 71.7412 20.9475 71.7712 21.3625C71.8012 21.7725 71.8212 22.02 71.8312 22.105C71.7762 22.11 71.6612 22.115 71.4862 22.12C71.3112 22.125 71.1587 22.1275 71.0287 22.1275C70.7137 22.1275 70.3987 22.12 70.0837 22.105C69.7687 22.09 69.5387 22.075 69.3937 22.06ZM82.7243 25.36C82.7843 24.545 82.8368 23.6875 82.8818 22.7875C82.9318 21.8875 82.9718 20.995 83.0018 20.11C83.0318 19.225 83.0568 18.3925 83.0768 17.6125C83.1018 16.8325 83.1168 16.15 83.1218 15.565C83.1318 14.975 83.1368 14.53 83.1368 14.23C83.4468 14.13 83.8043 14.06 84.2093 14.02C84.6143 13.975 85.0068 13.9525 85.3868 13.9525C85.4018 14.1125 85.4143 14.3025 85.4243 14.5225C85.4343 14.7375 85.4393 14.935 85.4393 15.115C85.5343 14.99 85.6993 14.8375 85.9343 14.6575C86.1693 14.4725 86.4643 14.31 86.8193 14.17C87.1743 14.03 87.5818 13.96 88.0418 13.96C89.0568 13.96 89.8068 14.2825 90.2918 14.9275C90.7818 15.5675 91.0268 16.46 91.0268 17.605C91.0268 18.41 90.8743 19.105 90.5693 19.69C90.2643 20.275 89.8493 20.725 89.3243 21.04C88.7993 21.35 88.1993 21.505 87.5243 21.505C87.2193 21.505 86.9093 21.4675 86.5943 21.3925C86.2843 21.3125 86.0068 21.215 85.7618 21.1C85.5218 20.98 85.3568 20.865 85.2668 20.755C85.2668 20.875 85.2593 21.075 85.2443 21.355C85.2343 21.635 85.2218 21.9525 85.2068 22.3075C85.1918 22.6675 85.1718 23.0325 85.1468 23.4025C85.1268 23.7725 85.1068 24.1125 85.0868 24.4225C85.0668 24.7375 85.0468 24.9825 85.0268 25.1575C84.7618 25.2125 84.4793 25.2525 84.1793 25.2775C83.8843 25.3075 83.6068 25.3275 83.3468 25.3375C83.0868 25.3525 82.8793 25.36 82.7243 25.36ZM87.1643 19.18C87.5093 19.18 87.7993 19.11 88.0343 18.97C88.2693 18.83 88.4468 18.63 88.5668 18.37C88.6868 18.105 88.7468 17.79 88.7468 17.425C88.7468 16.935 88.6318 16.5575 88.4018 16.2925C88.1768 16.0275 87.8118 15.895 87.3068 15.895C87.0018 15.895 86.7243 15.9425 86.4743 16.0375C86.2243 16.1325 86.0118 16.2475 85.8368 16.3825C85.6668 16.5125 85.5368 16.635 85.4468 16.75C85.4468 16.82 85.4443 16.9325 85.4393 17.0875C85.4343 17.2375 85.4293 17.405 85.4243 17.59C85.4193 17.77 85.4143 17.94 85.4093 18.1C85.4043 18.26 85.4018 18.385 85.4018 18.475C85.4868 18.56 85.6043 18.6575 85.7543 18.7675C85.9043 18.8775 86.0943 18.975 86.3243 19.06C86.5543 19.14 86.8343 19.18 87.1643 19.18ZM95.2117 22.1275C94.5967 22.1275 94.0342 22.045 93.5242 21.88C93.0142 21.71 92.6067 21.4375 92.3017 21.0625C92.0017 20.6825 91.8517 20.18 91.8517 19.555C91.8517 18.93 92.0267 18.4275 92.3767 18.0475C92.7317 17.6625 93.1967 17.385 93.7717 17.215C94.3517 17.04 94.9742 16.9525 95.6392 16.9525C95.8992 16.9525 96.1492 16.9725 96.3892 17.0125C96.6292 17.0525 96.8392 17.1 97.0192 17.155C97.2042 17.21 97.3367 17.2625 97.4167 17.3125C97.4117 17.1825 97.3842 17.045 97.3342 16.9C97.2892 16.755 97.2242 16.6325 97.1392 16.5325C96.9892 16.3275 96.7842 16.1575 96.5242 16.0225C96.2692 15.8825 95.9317 15.8125 95.5117 15.8125C95.0867 15.8125 94.7117 15.91 94.3867 16.105C94.0617 16.295 93.8142 16.51 93.6442 16.75L91.8142 15.5725C92.0392 15.2525 92.3417 14.9725 92.7217 14.7325C93.1067 14.4925 93.5417 14.305 94.0267 14.17C94.5167 14.035 95.0292 13.9675 95.5642 13.9675C96.4492 13.9675 97.1667 14.1125 97.7167 14.4025C98.2667 14.6925 98.6742 15.0975 98.9392 15.6175C99.0642 15.8675 99.1667 16.1425 99.2467 16.4425C99.3267 16.7425 99.3817 17.0875 99.4117 17.4775C99.4317 17.8125 99.4467 18.125 99.4567 18.415C99.4667 18.705 99.4767 18.98 99.4867 19.24C99.4967 19.62 99.5392 19.8675 99.6142 19.9825C99.6892 20.0975 99.7967 20.155 99.9367 20.155C100.067 20.155 100.182 20.12 100.282 20.05C100.387 19.975 100.454 19.8775 100.484 19.7575L101.264 21.25C101.209 21.48 101.054 21.6725 100.799 21.8275C100.544 21.9825 100.222 22.06 99.8317 22.06C99.5467 22.06 99.2767 22.0125 99.0217 21.9175C98.7667 21.8175 98.5567 21.685 98.3917 21.52C98.2267 21.35 98.1292 21.1575 98.0992 20.9425C98.0192 21.1325 97.8517 21.32 97.5967 21.505C97.3417 21.685 97.0142 21.835 96.6142 21.955C96.2142 22.07 95.7467 22.1275 95.2117 22.1275ZM95.7142 20.365C95.9492 20.365 96.1892 20.33 96.4342 20.26C96.6842 20.185 96.9092 20.0925 97.1092 19.9825C97.3142 19.8725 97.4717 19.76 97.5817 19.645C97.5717 19.49 97.5617 19.33 97.5517 19.165C97.5467 19 97.5467 18.86 97.5517 18.745C97.4417 18.7 97.2317 18.6525 96.9217 18.6025C96.6167 18.5475 96.2967 18.52 95.9617 18.52C95.6567 18.52 95.3717 18.5525 95.1067 18.6175C94.8417 18.6825 94.6242 18.7825 94.4542 18.9175C94.2892 19.0525 94.2067 19.2275 94.2067 19.4425C94.2067 19.6725 94.2692 19.855 94.3942 19.99C94.5192 20.125 94.6942 20.2225 94.9192 20.2825C95.1442 20.3375 95.4092 20.365 95.7142 20.365ZM104.151 22.0975C104.001 22.1025 103.816 22.1025 103.596 22.0975C103.376 22.0975 103.151 22.095 102.921 22.09C102.736 22.085 102.524 22.0775 102.284 22.0675C102.044 22.0575 101.876 22.0475 101.781 22.0375C101.826 21.6175 101.864 21.1425 101.894 20.6125C101.929 20.0825 101.956 19.495 101.976 18.85C101.996 18.205 102.011 17.5 102.021 16.735C102.031 15.97 102.036 15.1425 102.036 14.2525C102.226 14.2275 102.451 14.2075 102.711 14.1925C102.971 14.1775 103.234 14.17 103.499 14.17C103.684 14.17 103.861 14.175 104.031 14.185C104.206 14.19 104.361 14.205 104.496 14.23C104.496 14.275 104.496 14.3675 104.496 14.5075C104.501 14.6425 104.501 14.7925 104.496 14.9575C104.496 15.1175 104.494 15.2625 104.489 15.3925C104.619 15.2025 104.831 15.005 105.126 14.8C105.421 14.59 105.764 14.4125 106.154 14.2675C106.544 14.1225 106.946 14.05 107.361 14.05C108.126 14.05 108.711 14.205 109.116 14.515C109.521 14.82 109.799 15.28 109.949 15.895C110.099 16.505 110.174 17.27 110.174 18.19C110.174 18.51 110.164 18.885 110.144 19.315C110.129 19.74 110.104 20.1875 110.069 20.6575C110.034 21.1275 109.989 21.5825 109.934 22.0225C109.834 22.0325 109.674 22.04 109.454 22.045C109.239 22.055 109.011 22.06 108.771 22.06C108.516 22.06 108.274 22.055 108.044 22.045C107.814 22.04 107.644 22.0325 107.534 22.0225C107.589 21.7425 107.649 21.3925 107.714 20.9725C107.779 20.5525 107.834 20.105 107.879 19.63C107.924 19.15 107.946 18.6925 107.946 18.2575C107.946 17.8375 107.911 17.4725 107.841 17.1625C107.776 16.8525 107.649 16.6125 107.459 16.4425C107.274 16.2675 106.999 16.18 106.634 16.18C106.334 16.18 106.046 16.2325 105.771 16.3375C105.496 16.4425 105.246 16.5725 105.021 16.7275C104.796 16.8775 104.604 17.025 104.444 17.17C104.439 17.96 104.419 18.675 104.384 19.315C104.349 19.95 104.311 20.5025 104.271 20.9725C104.231 21.4375 104.191 21.8125 104.151 22.0975Z" fill="white"/>
<path d="M36.7778 7L26.2222 7.00021M36.7778 7L37.6255 7.00021C38.8055 7.00021 39.3956 7.00021 39.8467 7.23011C40.2439 7.43246 40.5677 7.75566 40.7701 8.15286C41 8.604 41 9.19469 41 10.3747V19.435C41 19.9088 41 20.1468 40.9494 20.3728C40.9045 20.5745 40.8304 20.7682 40.7289 20.9482C40.6164 21.1479 40.4585 21.3234 40.1481 21.6683L37.2398 24.8997C36.8801 25.2994 36.6978 25.502 36.4788 25.6475C36.282 25.7783 36.0644 25.8748 35.8355 25.9336C35.5771 26 35.2998 26 34.7458 26H25.378C24.1957 26 23.604 26 23.1525 25.7699C22.7552 25.5675 22.4325 25.2448 22.2301 24.8476C22 24.396 22 23.8044 22 22.622V10.3777C22 9.19543 22 8.60506 22.2301 8.1535C22.4325 7.7563 22.7552 7.43246 23.1525 7.23011C23.6036 7.00021 24.1945 7.00021 25.3745 7.00021H26.2222M36.7778 7V11.0146C36.7778 12.1945 36.7778 12.7854 36.5479 13.2366C36.3455 13.6338 36.0217 13.9566 35.6245 14.1589C35.1729 14.389 34.5825 14.389 33.4002 14.389H29.6002C28.4179 14.389 27.8263 14.389 27.3747 14.1589C26.9774 13.9566 26.6547 13.6338 26.4523 13.2366C26.2222 12.785 26.2222 12.1934 26.2222 11.0111V7.00021M34.6667 21.7778H28.3333" stroke="white" stroke-width="2" stroke-linecap="round" stroke-linejoin="round"/>
</svg>
