<svg width="151" height="38" viewBox="0 0 151 38" fill="none" xmlns="http://www.w3.org/2000/svg">
<path d="M2.87007 32.7233C1.08866 29.9368 -0.247408 6.84935 2.87007 4.36149C5.98755 1.87363 56.3125 3.36635 82.5884 4.36149C108.864 5.35663 143.602 3.8639 148.055 5.35663C152.509 6.84935 151.217 33.4199 148.724 36.2063C145.606 39.6893 90.1594 37.2014 77.0215 36.2063C63.8836 35.2111 5.09684 36.2063 2.87007 32.7233Z" fill="#214868"/>
<path d="M1.87007 29.7233C0.0886566 26.9368 -1.24741 3.84935 1.87007 1.36149C4.98755 -1.12637 55.3125 0.366353 81.5884 1.36149C107.864 2.35663 142.602 0.863904 147.055 2.35663C151.509 3.84935 150.217 30.4199 147.724 33.2063C144.606 36.6893 89.1594 34.2014 76.0215 33.2063C62.8836 32.2111 4.09684 33.2063 1.87007 29.7233Z" fill="#3387DC"/>
<path d="M53.3894 22.12C53.0144 22.12 52.6319 22.075 52.2419 21.985C51.8569 21.895 51.4819 21.7625 51.1169 21.5875C50.7569 21.4125 50.4269 21.1975 50.1269 20.9425C49.8269 20.6825 49.5744 20.385 49.3694 20.05C49.3994 20 49.4794 19.915 49.6094 19.795C49.7394 19.67 49.8894 19.535 50.0594 19.39C50.2294 19.24 50.3969 19.1025 50.5619 18.9775C50.7319 18.8525 50.8719 18.7625 50.9819 18.7075C51.1419 18.8925 51.3119 19.0775 51.4919 19.2625C51.6769 19.4475 51.8719 19.615 52.0769 19.765C52.2869 19.91 52.5119 20.0275 52.7519 20.1175C52.9919 20.2075 53.2469 20.2525 53.5169 20.2525C53.8269 20.2525 54.0719 20.195 54.2519 20.08C54.4369 19.965 54.5694 19.82 54.6494 19.645C54.7294 19.465 54.7694 19.2825 54.7694 19.0975C54.7694 18.9475 54.7319 18.805 54.6569 18.67C54.5819 18.535 54.4694 18.4075 54.3194 18.2875C54.1694 18.1625 53.9819 18.0425 53.7569 17.9275C53.5369 17.8075 53.2769 17.695 52.9769 17.59C52.3769 17.36 51.8344 17.1175 51.3494 16.8625C50.8644 16.6025 50.4769 16.29 50.1869 15.925C49.9019 15.56 49.7594 15.1025 49.7594 14.5525C49.7594 13.9675 49.9219 13.4775 50.2469 13.0825C50.5719 12.6875 51.0019 12.39 51.5369 12.19C52.0719 11.985 52.6469 11.8825 53.2619 11.8825C53.7269 11.8825 54.1769 11.935 54.6119 12.04C55.0519 12.14 55.4619 12.2925 55.8419 12.4975C56.2219 12.7025 56.5494 12.96 56.8244 13.27C56.7494 13.38 56.6319 13.5275 56.4719 13.7125C56.3119 13.8975 56.1419 14.0825 55.9619 14.2675C55.7819 14.4525 55.6294 14.6 55.5044 14.71C55.3044 14.515 55.0819 14.34 54.8369 14.185C54.5919 14.025 54.3344 13.9 54.0644 13.81C53.7944 13.715 53.5219 13.6675 53.2469 13.6675C52.9269 13.6675 52.6569 13.7375 52.4369 13.8775C52.2169 14.0125 52.1069 14.2175 52.1069 14.4925C52.1069 14.6175 52.1344 14.73 52.1894 14.83C52.2494 14.93 52.3319 15.02 52.4369 15.1C52.5419 15.18 52.6669 15.255 52.8119 15.325C52.9569 15.39 53.1194 15.4525 53.2994 15.5125C53.8094 15.6825 54.2944 15.86 54.7544 16.045C55.2194 16.23 55.6294 16.445 55.9844 16.69C56.3444 16.93 56.6269 17.225 56.8319 17.575C57.0369 17.925 57.1394 18.3525 57.1394 18.8575C57.1394 19.3325 57.0469 19.77 56.8619 20.17C56.6769 20.565 56.4169 20.91 56.0819 21.205C55.7519 21.495 55.3569 21.72 54.8969 21.88C54.4419 22.04 53.9394 22.12 53.3894 22.12ZM63.1465 14.665C63.2715 14.62 63.449 14.5875 63.679 14.5675C63.914 14.5425 64.1415 14.53 64.3615 14.53C64.5465 14.53 64.7515 14.5375 64.9765 14.5525C65.2015 14.5675 65.384 14.585 65.524 14.605C65.589 15.01 65.639 15.42 65.674 15.835C65.709 16.245 65.7265 16.65 65.7265 17.05C65.7265 17.785 65.6615 18.4775 65.5315 19.1275C65.4065 19.7775 65.199 20.35 64.909 20.845C64.619 21.34 64.2315 21.7275 63.7465 22.0075C63.2615 22.2925 62.664 22.435 61.954 22.435C61.199 22.435 60.5765 22.2875 60.0865 21.9925C59.5965 21.6925 59.214 21.2775 58.939 20.7475C58.664 20.2125 58.4715 19.59 58.3615 18.88C58.2565 18.165 58.204 17.395 58.204 16.57C58.204 16.205 58.2115 15.835 58.2265 15.46C58.2465 15.08 58.2715 14.7025 58.3015 14.3275C58.4315 14.3175 58.6015 14.31 58.8115 14.305C59.0265 14.295 59.2215 14.2925 59.3965 14.2975C59.6465 14.2975 59.8965 14.3125 60.1465 14.3425C60.4015 14.3675 60.6015 14.4025 60.7465 14.4475C60.7115 14.7875 60.6815 15.155 60.6565 15.55C60.6315 15.94 60.619 16.3325 60.619 16.7275C60.619 17.3875 60.6615 17.9825 60.7465 18.5125C60.8365 19.0425 60.984 19.4625 61.189 19.7725C61.394 20.0825 61.6715 20.2375 62.0215 20.2375C62.3515 20.2375 62.614 20.0975 62.809 19.8175C63.009 19.5375 63.1515 19.1625 63.2365 18.6925C63.3265 18.2175 63.3715 17.6875 63.3715 17.1025C63.3715 16.6625 63.349 16.23 63.304 15.805C63.264 15.375 63.2115 14.995 63.1465 14.665ZM67.397 22.0525C67.382 21.8775 67.367 21.585 67.352 21.175C67.337 20.76 67.3195 20.2725 67.2995 19.7125C67.2795 19.1475 67.2595 18.5425 67.2395 17.8975C67.2195 17.2475 67.202 16.5975 67.187 15.9475C67.172 15.2925 67.157 14.6725 67.142 14.0875C67.127 13.5025 67.1145 12.985 67.1045 12.535C67.0945 12.085 67.0895 11.7475 67.0895 11.5225C67.1595 11.5075 67.3995 11.465 67.8095 11.395C68.2245 11.32 68.732 11.2375 69.332 11.1475C69.332 11.4625 69.3345 11.8925 69.3395 12.4375C69.3495 12.9825 69.3645 13.5825 69.3845 14.2375C69.4045 14.8875 69.432 15.535 69.467 16.18C69.577 16.065 69.7145 15.945 69.8795 15.82C70.0445 15.695 70.232 15.58 70.442 15.475C70.652 15.365 70.877 15.2775 71.117 15.2125C71.362 15.1425 71.6145 15.1075 71.8745 15.1075C72.4595 15.1075 72.9695 15.2425 73.4045 15.5125C73.8445 15.7825 74.1845 16.185 74.4245 16.72C74.6695 17.25 74.792 17.905 74.792 18.685C74.792 19.7 74.522 20.505 73.982 21.1C73.447 21.69 72.722 21.985 71.807 21.985C71.447 21.985 71.1245 21.9375 70.8395 21.8425C70.5595 21.7425 70.3245 21.6275 70.1345 21.4975C69.9495 21.3625 69.817 21.245 69.737 21.145C69.742 21.24 69.747 21.36 69.752 21.505C69.762 21.65 69.7695 21.7825 69.7745 21.9025C69.7845 22.0225 69.7895 22.1025 69.7895 22.1425C69.3595 22.1475 68.932 22.1425 68.507 22.1275C68.082 22.1125 67.712 22.0875 67.397 22.0525ZM69.6695 19.465C69.7495 19.515 69.8645 19.575 70.0145 19.645C70.1645 19.715 70.3395 19.7775 70.5395 19.8325C70.7395 19.8825 70.947 19.9075 71.162 19.9075C71.682 19.9075 72.0595 19.79 72.2945 19.555C72.5295 19.315 72.647 18.97 72.647 18.52C72.647 18.25 72.6045 18.0025 72.5195 17.7775C72.4345 17.5475 72.302 17.365 72.122 17.23C71.942 17.095 71.707 17.0275 71.417 17.0275C71.097 17.0275 70.817 17.0825 70.577 17.1925C70.337 17.3025 70.1345 17.435 69.9695 17.59C69.8095 17.745 69.682 17.885 69.587 18.01C69.587 18.05 69.5895 18.12 69.5945 18.22C69.5995 18.315 69.6045 18.425 69.6095 18.55C69.6195 18.675 69.627 18.8 69.632 18.925C69.642 19.05 69.6495 19.16 69.6545 19.255C69.6595 19.35 69.6645 19.42 69.6695 19.465ZM76.4737 22.06C76.4487 21.735 76.4237 21.32 76.3987 20.815C76.3787 20.31 76.3587 19.7625 76.3387 19.1725C76.3237 18.5775 76.3087 17.9875 76.2937 17.4025C76.2837 16.8175 76.2762 16.2775 76.2712 15.7825C76.2662 15.2825 76.2637 14.88 76.2637 14.575C76.3837 14.545 76.5437 14.515 76.7437 14.485C76.9437 14.45 77.1562 14.42 77.3812 14.395C77.6062 14.365 77.8187 14.3425 78.0187 14.3275C78.2237 14.3075 78.3887 14.2975 78.5137 14.2975C78.5187 14.3775 78.5237 14.48 78.5287 14.605C78.5337 14.725 78.5362 14.85 78.5362 14.98C78.5412 15.11 78.5437 15.2275 78.5437 15.3325C78.5437 15.4375 78.5437 15.5175 78.5437 15.5725C78.5737 15.4775 78.6437 15.355 78.7537 15.205C78.8637 15.055 79.0137 14.905 79.2037 14.755C79.3987 14.605 79.6337 14.48 79.9087 14.38C80.1837 14.275 80.5012 14.2225 80.8612 14.2225C81.2062 14.2225 81.4987 14.2875 81.7387 14.4175C81.9787 14.5475 82.1787 14.7175 82.3387 14.9275C82.4987 15.1375 82.6237 15.365 82.7137 15.61C82.7587 15.73 82.7937 15.8525 82.8187 15.9775C82.8487 16.1025 82.8712 16.225 82.8862 16.345C82.9962 15.98 83.1787 15.6325 83.4337 15.3025C83.6937 14.9675 84.0162 14.695 84.4012 14.485C84.7862 14.27 85.2287 14.1625 85.7287 14.1625C86.3287 14.1625 86.8212 14.27 87.2062 14.485C87.5962 14.7 87.8987 15.0175 88.1137 15.4375C88.3287 15.8575 88.4787 16.3725 88.5637 16.9825C88.6487 17.5925 88.6912 18.29 88.6912 19.075C88.6912 19.385 88.6837 19.71 88.6687 20.05C88.6587 20.39 88.6437 20.7325 88.6237 21.0775C88.6037 21.4225 88.5837 21.7575 88.5637 22.0825C88.3837 22.0925 88.1962 22.1 88.0012 22.105C87.8062 22.115 87.6112 22.12 87.4162 22.12C87.2212 22.12 87.0212 22.115 86.8162 22.105C86.6162 22.1 86.4137 22.09 86.2087 22.075C86.3087 21.33 86.3912 20.645 86.4562 20.02C86.5212 19.39 86.5537 18.8375 86.5537 18.3625C86.5537 17.6675 86.4737 17.1375 86.3137 16.7725C86.1587 16.4075 85.8912 16.225 85.5112 16.225C85.1662 16.225 84.8862 16.33 84.6712 16.54C84.4562 16.75 84.2887 17.04 84.1687 17.41C84.0487 17.78 83.9612 18.21 83.9062 18.7C83.8562 19.185 83.8212 19.705 83.8012 20.26C83.7912 20.54 83.7812 20.8325 83.7712 21.1375C83.7612 21.4425 83.7562 21.7525 83.7562 22.0675C83.6562 22.0725 83.5137 22.0775 83.3287 22.0825C83.1487 22.0925 82.9587 22.0975 82.7587 22.0975C82.5237 22.0975 82.2962 22.0925 82.0762 22.0825C81.8612 22.0775 81.7037 22.0675 81.6037 22.0525C81.5987 21.7125 81.5962 21.3925 81.5962 21.0925C81.5962 20.7925 81.5962 20.485 81.5962 20.17C81.5962 19.6 81.5812 19.075 81.5512 18.595C81.5262 18.11 81.4712 17.69 81.3862 17.335C81.3012 16.975 81.1737 16.695 81.0037 16.495C80.8387 16.295 80.6137 16.195 80.3287 16.195C80.1337 16.195 79.9437 16.2375 79.7587 16.3225C79.5737 16.4075 79.4037 16.5175 79.2487 16.6525C79.0987 16.7875 78.9712 16.9375 78.8662 17.1025C78.7662 17.2625 78.6962 17.4225 78.6562 17.5825C78.6862 18.3775 78.7187 19.1025 78.7537 19.7575C78.7887 20.4125 78.8212 20.9475 78.8512 21.3625C78.8812 21.7725 78.9012 22.02 78.9112 22.105C78.8562 22.11 78.7412 22.115 78.5662 22.12C78.3912 22.125 78.2387 22.1275 78.1087 22.1275C77.7937 22.1275 77.4787 22.12 77.1637 22.105C76.8487 22.09 76.6187 22.075 76.4737 22.06ZM92.6169 21.985C92.5319 21.99 92.3694 22 92.1294 22.015C91.8944 22.035 91.6444 22.045 91.3794 22.045C91.1844 22.045 90.9869 22.0375 90.7869 22.0225C90.5919 22.0125 90.3994 21.9975 90.2094 21.9775C90.2344 21.8475 90.2619 21.5825 90.2919 21.1825C90.3269 20.7775 90.3594 20.3025 90.3894 19.7575C90.4244 19.2125 90.4569 18.65 90.4869 18.07C90.5219 17.485 90.5469 16.9375 90.5619 16.4275C90.5819 15.9175 90.5919 15.5075 90.5919 15.1975C90.6919 15.1925 90.8394 15.185 91.0344 15.175C91.2294 15.165 91.4394 15.1575 91.6644 15.1525C91.8894 15.1425 92.1044 15.135 92.3094 15.13C92.5144 15.12 92.6769 15.115 92.7969 15.115C92.8219 15.27 92.8419 15.52 92.8569 15.865C92.8719 16.21 92.8794 16.595 92.8794 17.02C92.8794 17.475 92.8719 17.9575 92.8569 18.4675C92.8469 18.9775 92.8294 19.4725 92.8044 19.9525C92.7844 20.4275 92.7569 20.8475 92.7219 21.2125C92.6869 21.5725 92.6519 21.83 92.6169 21.985ZM91.7769 14.1475C91.3269 14.1475 90.9494 14.0175 90.6444 13.7575C90.3394 13.4925 90.1869 13.145 90.1869 12.715C90.1869 12.42 90.2594 12.1675 90.4044 11.9575C90.5494 11.7475 90.7369 11.5875 90.9669 11.4775C91.2019 11.3625 91.4494 11.305 91.7094 11.305C92.1244 11.305 92.4669 11.44 92.7369 11.71C93.0119 11.98 93.1494 12.3275 93.1494 12.7525C93.1494 13.1475 93.0194 13.48 92.7594 13.75C92.4994 14.015 92.1719 14.1475 91.7769 14.1475ZM100.429 21.0175C100.334 21.2025 100.184 21.4 99.9792 21.61C99.7792 21.815 99.5167 21.99 99.1917 22.135C98.8717 22.285 98.4817 22.36 98.0217 22.36C97.4167 22.36 96.9217 22.2325 96.5367 21.9775C96.1567 21.7225 95.8742 21.3825 95.6892 20.9575C95.5092 20.5325 95.4192 20.0675 95.4192 19.5625C95.4192 19.2875 95.4217 18.995 95.4267 18.685C95.4367 18.37 95.4467 18.06 95.4567 17.755C95.4667 17.445 95.4767 17.1525 95.4867 16.8775C95.5017 16.5975 95.5142 16.3525 95.5242 16.1425C95.5392 15.9325 95.5492 15.77 95.5542 15.655C95.1592 15.695 94.7942 15.74 94.4592 15.79C94.1242 15.835 93.8917 15.8725 93.7617 15.9025C93.7117 15.6225 93.6742 15.3375 93.6492 15.0475C93.6242 14.7575 93.6042 14.505 93.5892 14.29C93.5792 14.075 93.5742 13.9425 93.5742 13.8925C93.8642 13.8525 94.1742 13.8175 94.5042 13.7875C94.8342 13.7525 95.1817 13.7275 95.5467 13.7125C95.5417 13.5925 95.5367 13.405 95.5317 13.15C95.5267 12.895 95.5192 12.665 95.5092 12.46C95.5042 12.275 95.4942 12.09 95.4792 11.905C95.4642 11.715 95.4517 11.5625 95.4417 11.4475L97.6617 11.2525C97.6617 11.3125 97.6617 11.4525 97.6617 11.6725C97.6667 11.8925 97.6692 12.1575 97.6692 12.4675C97.6692 12.6225 97.6717 12.8025 97.6767 13.0075C97.6817 13.2075 97.6867 13.405 97.6917 13.6C97.8567 13.59 98.0492 13.58 98.2692 13.57C98.4892 13.56 98.6642 13.5525 98.7942 13.5475C99.0042 13.5375 99.1942 13.5325 99.3642 13.5325C99.5342 13.5275 99.6742 13.525 99.7842 13.525C99.8992 13.525 99.9767 13.5275 100.017 13.5325C100.047 13.7675 100.067 14.0675 100.077 14.4325C100.087 14.7925 100.092 15.1125 100.092 15.3925C100.042 15.3875 99.8792 15.39 99.6042 15.4C99.3292 15.405 99.0592 15.415 98.7942 15.43C98.6092 15.435 98.4042 15.445 98.1792 15.46C97.9542 15.475 97.7767 15.49 97.6467 15.505C97.6417 15.61 97.6342 15.755 97.6242 15.94C97.6192 16.12 97.6117 16.325 97.6017 16.555C97.5967 16.78 97.5892 17.015 97.5792 17.26C97.5742 17.5 97.5692 17.7325 97.5642 17.9575C97.5592 18.1825 97.5567 18.3825 97.5567 18.5575C97.5567 18.8875 97.5717 19.185 97.6017 19.45C97.6367 19.71 97.7092 19.9175 97.8192 20.0725C97.9342 20.2225 98.1092 20.2975 98.3442 20.2975C98.4992 20.2975 98.6317 20.2525 98.7417 20.1625C98.8517 20.0725 98.9417 19.9675 99.0117 19.8475C99.0867 19.7225 99.1517 19.6125 99.2067 19.5175C99.2717 19.6075 99.3617 19.7275 99.4767 19.8775C99.5967 20.0225 99.7217 20.175 99.8517 20.335C99.9867 20.495 100.107 20.6375 100.212 20.7625C100.322 20.8875 100.394 20.9725 100.429 21.0175Z" fill="white"/>
</svg>
