<svg width="151" height="38" viewBox="0 0 151 38" fill="none" xmlns="http://www.w3.org/2000/svg">
<path d="M2.87007 32.7233C1.08866 29.9368 -0.247408 6.84935 2.87007 4.36149C5.98755 1.87363 56.3125 3.36635 82.5884 4.36149C108.864 5.35663 143.602 3.8639 148.055 5.35663C152.509 6.84935 151.217 33.4199 148.724 36.2063C145.606 39.6893 90.1594 37.2014 77.0215 36.2063C63.8836 35.2111 5.09684 36.2063 2.87007 32.7233Z" fill="#214868"/>
<path d="M1.87007 29.7233C0.0886566 26.9368 -1.24741 3.84935 1.87007 1.36149C4.98755 -1.12637 55.3125 0.366353 81.5884 1.36149C107.864 2.35663 142.602 0.863904 147.055 2.35663C151.509 3.84935 150.217 30.4199 147.724 33.2063C144.606 36.6893 89.1594 34.2014 76.0215 33.2063C62.8836 32.2111 4.09684 33.2063 1.87007 29.7233Z" fill="#3387DC"/>
<path d="M54.6042 14.2225C54.5792 14.1125 54.5567 13.9575 54.5367 13.7575C54.5217 13.5525 54.5067 13.34 54.4917 13.12C54.4817 12.895 54.4717 12.695 54.4617 12.52C54.4567 12.34 54.4542 12.2175 54.4542 12.1525C55.0142 12.1125 55.6517 12.0775 56.3667 12.0475C57.0867 12.0125 57.8142 11.995 58.5492 11.995C59.1042 11.995 59.6442 12.0075 60.1692 12.0325C60.6992 12.0525 61.1817 12.095 61.6167 12.16C61.6217 12.575 61.6092 12.9625 61.5792 13.3225C61.5492 13.6775 61.5142 13.945 61.4742 14.125C61.3792 14.125 61.2417 14.125 61.0617 14.125C60.8817 14.12 60.6817 14.1175 60.4617 14.1175C60.2467 14.1125 60.0342 14.11 59.8242 14.11C59.6142 14.105 59.4317 14.1 59.2767 14.095C59.2817 14.28 59.2917 14.555 59.3067 14.92C59.3217 15.28 59.3392 15.6925 59.3592 16.1575C59.3792 16.6225 59.4017 17.11 59.4267 17.62C59.4517 18.13 59.4742 18.63 59.4942 19.12C59.5192 19.61 59.5392 20.06 59.5542 20.47C59.5742 20.875 59.5892 21.21 59.5992 21.475C59.6142 21.735 59.6217 21.89 59.6217 21.94C59.4217 21.97 59.1617 21.9975 58.8417 22.0225C58.5217 22.0475 58.2017 22.0675 57.8817 22.0825C57.5667 22.0975 57.3092 22.105 57.1092 22.105C57.0942 21.81 57.0792 21.455 57.0642 21.04C57.0492 20.62 57.0367 20.1675 57.0267 19.6825C57.0167 19.1925 57.0067 18.6925 56.9967 18.1825C56.9867 17.6675 56.9792 17.165 56.9742 16.675C56.9692 16.185 56.9667 15.735 56.9667 15.325C56.9667 15.095 56.9667 14.88 56.9667 14.68C56.9667 14.48 56.9692 14.3 56.9742 14.14C56.8042 14.15 56.6192 14.16 56.4192 14.17C56.2192 14.175 56.0142 14.1825 55.8042 14.1925C55.5942 14.2025 55.3867 14.21 55.1817 14.215C54.9767 14.22 54.7842 14.2225 54.6042 14.2225ZM67.4972 14.665C67.6222 14.62 67.7997 14.5875 68.0297 14.5675C68.2647 14.5425 68.4922 14.53 68.7122 14.53C68.8972 14.53 69.1022 14.5375 69.3272 14.5525C69.5522 14.5675 69.7347 14.585 69.8747 14.605C69.9397 15.01 69.9897 15.42 70.0247 15.835C70.0597 16.245 70.0772 16.65 70.0772 17.05C70.0772 17.785 70.0122 18.4775 69.8822 19.1275C69.7572 19.7775 69.5497 20.35 69.2597 20.845C68.9697 21.34 68.5822 21.7275 68.0972 22.0075C67.6122 22.2925 67.0147 22.435 66.3047 22.435C65.5497 22.435 64.9272 22.2875 64.4372 21.9925C63.9472 21.6925 63.5647 21.2775 63.2897 20.7475C63.0147 20.2125 62.8222 19.59 62.7122 18.88C62.6072 18.165 62.5547 17.395 62.5547 16.57C62.5547 16.205 62.5622 15.835 62.5772 15.46C62.5972 15.08 62.6222 14.7025 62.6522 14.3275C62.7822 14.3175 62.9522 14.31 63.1622 14.305C63.3772 14.295 63.5722 14.2925 63.7472 14.2975C63.9972 14.2975 64.2472 14.3125 64.4972 14.3425C64.7522 14.3675 64.9522 14.4025 65.0972 14.4475C65.0622 14.7875 65.0322 15.155 65.0072 15.55C64.9822 15.94 64.9697 16.3325 64.9697 16.7275C64.9697 17.3875 65.0122 17.9825 65.0972 18.5125C65.1872 19.0425 65.3347 19.4625 65.5397 19.7725C65.7447 20.0825 66.0222 20.2375 66.3722 20.2375C66.7022 20.2375 66.9647 20.0975 67.1597 19.8175C67.3597 19.5375 67.5022 19.1625 67.5872 18.6925C67.6772 18.2175 67.7222 17.6875 67.7222 17.1025C67.7222 16.6625 67.6997 16.23 67.6547 15.805C67.6147 15.375 67.5622 14.995 67.4972 14.665ZM77.4165 21.0175C77.3215 21.2025 77.1715 21.4 76.9665 21.61C76.7665 21.815 76.504 21.99 76.179 22.135C75.859 22.285 75.469 22.36 75.009 22.36C74.404 22.36 73.909 22.2325 73.524 21.9775C73.144 21.7225 72.8615 21.3825 72.6765 20.9575C72.4965 20.5325 72.4065 20.0675 72.4065 19.5625C72.4065 19.2875 72.409 18.995 72.414 18.685C72.424 18.37 72.434 18.06 72.444 17.755C72.454 17.445 72.464 17.1525 72.474 16.8775C72.489 16.5975 72.5015 16.3525 72.5115 16.1425C72.5265 15.9325 72.5365 15.77 72.5415 15.655C72.1465 15.695 71.7815 15.74 71.4465 15.79C71.1115 15.835 70.879 15.8725 70.749 15.9025C70.699 15.6225 70.6615 15.3375 70.6365 15.0475C70.6115 14.7575 70.5915 14.505 70.5765 14.29C70.5665 14.075 70.5615 13.9425 70.5615 13.8925C70.8515 13.8525 71.1615 13.8175 71.4915 13.7875C71.8215 13.7525 72.169 13.7275 72.534 13.7125C72.529 13.5925 72.524 13.405 72.519 13.15C72.514 12.895 72.5065 12.665 72.4965 12.46C72.4915 12.275 72.4815 12.09 72.4665 11.905C72.4515 11.715 72.439 11.5625 72.429 11.4475L74.649 11.2525C74.649 11.3125 74.649 11.4525 74.649 11.6725C74.654 11.8925 74.6565 12.1575 74.6565 12.4675C74.6565 12.6225 74.659 12.8025 74.664 13.0075C74.669 13.2075 74.674 13.405 74.679 13.6C74.844 13.59 75.0365 13.58 75.2565 13.57C75.4765 13.56 75.6515 13.5525 75.7815 13.5475C75.9915 13.5375 76.1815 13.5325 76.3515 13.5325C76.5215 13.5275 76.6615 13.525 76.7715 13.525C76.8865 13.525 76.964 13.5275 77.004 13.5325C77.034 13.7675 77.054 14.0675 77.064 14.4325C77.074 14.7925 77.079 15.1125 77.079 15.3925C77.029 15.3875 76.8665 15.39 76.5915 15.4C76.3165 15.405 76.0465 15.415 75.7815 15.43C75.5965 15.435 75.3915 15.445 75.1665 15.46C74.9415 15.475 74.764 15.49 74.634 15.505C74.629 15.61 74.6215 15.755 74.6115 15.94C74.6065 16.12 74.599 16.325 74.589 16.555C74.584 16.78 74.5765 17.015 74.5665 17.26C74.5615 17.5 74.5565 17.7325 74.5515 17.9575C74.5465 18.1825 74.544 18.3825 74.544 18.5575C74.544 18.8875 74.559 19.185 74.589 19.45C74.624 19.71 74.6965 19.9175 74.8065 20.0725C74.9215 20.2225 75.0965 20.2975 75.3315 20.2975C75.4865 20.2975 75.619 20.2525 75.729 20.1625C75.839 20.0725 75.929 19.9675 75.999 19.8475C76.074 19.7225 76.139 19.6125 76.194 19.5175C76.259 19.6075 76.349 19.7275 76.464 19.8775C76.584 20.0225 76.709 20.175 76.839 20.335C76.974 20.495 77.094 20.6375 77.199 20.7625C77.309 20.8875 77.3815 20.9725 77.4165 21.0175ZM83.3029 14.665C83.4279 14.62 83.6054 14.5875 83.8354 14.5675C84.0704 14.5425 84.2979 14.53 84.5179 14.53C84.7029 14.53 84.9079 14.5375 85.1329 14.5525C85.3579 14.5675 85.5404 14.585 85.6804 14.605C85.7454 15.01 85.7954 15.42 85.8304 15.835C85.8654 16.245 85.8829 16.65 85.8829 17.05C85.8829 17.785 85.8179 18.4775 85.6879 19.1275C85.5629 19.7775 85.3554 20.35 85.0654 20.845C84.7754 21.34 84.3879 21.7275 83.9029 22.0075C83.4179 22.2925 82.8204 22.435 82.1104 22.435C81.3554 22.435 80.7329 22.2875 80.2429 21.9925C79.7529 21.6925 79.3704 21.2775 79.0954 20.7475C78.8204 20.2125 78.6279 19.59 78.5179 18.88C78.4129 18.165 78.3604 17.395 78.3604 16.57C78.3604 16.205 78.3679 15.835 78.3829 15.46C78.4029 15.08 78.4279 14.7025 78.4579 14.3275C78.5879 14.3175 78.7579 14.31 78.9679 14.305C79.1829 14.295 79.3779 14.2925 79.5529 14.2975C79.8029 14.2975 80.0529 14.3125 80.3029 14.3425C80.5579 14.3675 80.7579 14.4025 80.9029 14.4475C80.8679 14.7875 80.8379 15.155 80.8129 15.55C80.7879 15.94 80.7754 16.3325 80.7754 16.7275C80.7754 17.3875 80.8179 17.9825 80.9029 18.5125C80.9929 19.0425 81.1404 19.4625 81.3454 19.7725C81.5504 20.0825 81.8279 20.2375 82.1779 20.2375C82.5079 20.2375 82.7704 20.0975 82.9654 19.8175C83.1654 19.5375 83.3079 19.1625 83.3929 18.6925C83.4829 18.2175 83.5279 17.6875 83.5279 17.1025C83.5279 16.6625 83.5054 16.23 83.4604 15.805C83.4204 15.375 83.3679 14.995 83.3029 14.665ZM87.0359 25.36C87.0959 24.545 87.1484 23.6875 87.1934 22.7875C87.2434 21.8875 87.2834 20.995 87.3134 20.11C87.3434 19.225 87.3684 18.3925 87.3884 17.6125C87.4134 16.8325 87.4284 16.15 87.4334 15.565C87.4434 14.975 87.4484 14.53 87.4484 14.23C87.7584 14.13 88.1159 14.06 88.5209 14.02C88.9259 13.975 89.3184 13.9525 89.6984 13.9525C89.7134 14.1125 89.7259 14.3025 89.7359 14.5225C89.7459 14.7375 89.7509 14.935 89.7509 15.115C89.8459 14.99 90.0109 14.8375 90.2459 14.6575C90.4809 14.4725 90.7759 14.31 91.1309 14.17C91.4859 14.03 91.8934 13.96 92.3534 13.96C93.3684 13.96 94.1184 14.2825 94.6034 14.9275C95.0934 15.5675 95.3384 16.46 95.3384 17.605C95.3384 18.41 95.1859 19.105 94.8809 19.69C94.5759 20.275 94.1609 20.725 93.6359 21.04C93.1109 21.35 92.5109 21.505 91.8359 21.505C91.5309 21.505 91.2209 21.4675 90.9059 21.3925C90.5959 21.3125 90.3184 21.215 90.0734 21.1C89.8334 20.98 89.6684 20.865 89.5784 20.755C89.5784 20.875 89.5709 21.075 89.5559 21.355C89.5459 21.635 89.5334 21.9525 89.5184 22.3075C89.5034 22.6675 89.4834 23.0325 89.4584 23.4025C89.4384 23.7725 89.4184 24.1125 89.3984 24.4225C89.3784 24.7375 89.3584 24.9825 89.3384 25.1575C89.0734 25.2125 88.7909 25.2525 88.4909 25.2775C88.1959 25.3075 87.9184 25.3275 87.6584 25.3375C87.3984 25.3525 87.1909 25.36 87.0359 25.36ZM91.4759 19.18C91.8209 19.18 92.1109 19.11 92.3459 18.97C92.5809 18.83 92.7584 18.63 92.8784 18.37C92.9984 18.105 93.0584 17.79 93.0584 17.425C93.0584 16.935 92.9434 16.5575 92.7134 16.2925C92.4884 16.0275 92.1234 15.895 91.6184 15.895C91.3134 15.895 91.0359 15.9425 90.7859 16.0375C90.5359 16.1325 90.3234 16.2475 90.1484 16.3825C89.9784 16.5125 89.8484 16.635 89.7584 16.75C89.7584 16.82 89.7559 16.9325 89.7509 17.0875C89.7459 17.2375 89.7409 17.405 89.7359 17.59C89.7309 17.77 89.7259 17.94 89.7209 18.1C89.7159 18.26 89.7134 18.385 89.7134 18.475C89.7984 18.56 89.9159 18.6575 90.0659 18.7675C90.2159 18.8775 90.4059 18.975 90.6359 19.06C90.8659 19.14 91.1459 19.18 91.4759 19.18Z" fill="white"/>
</svg>
