<svg width="435" height="570" viewBox="0 0 435 570" fill="none" xmlns="http://www.w3.org/2000/svg">
<path d="M290.062 6.64124C267.98 6.64134 206.114 7.54721 125.908 13.5209C92.02 13.5209 21.4522 -8.64662 11.6848 6.64124C1.91736 21.9291 2.4699 172.288 1.91738 198.743C1.18069 264.453 7.95264 321.765 1.91738 456.2C-3.19147 570 1.02457 570 25.3915 570H156.585C185.868 570 245.718 561.166 271.134 561.166C296.549 561.166 390.058 566.287 414.645 561.166C434.315 557.07 431.474 543.01 434.536 515.084C428.546 368.438 440.062 350.857 432.049 41.4571C430.392 -22.5465 314.306 6.64114 290.062 6.64124Z" fill="#D0D05A"/>
</svg>
