<svg width="1440" height="145" viewBox="0 0 1440 145" fill="none" xmlns="http://www.w3.org/2000/svg">
<mask id="mask0_892_678" style="mask-type:alpha" maskUnits="userSpaceOnUse" x="0" y="0" width="1440" height="145">
<rect width="1440" height="145" fill="#214868"/>
</mask>
<g mask="url(#mask0_892_678)">
<rect width="1440" height="145" fill="#214868"/>
<path d="M4.19438 18.0363C4.33962 18.8907 4.31399 19.6255 4.04058 20.2578C3.22036 22.0947 0.84514 23.4874 -2 24.6323V0H1.24671C0.529016 2.46921 0.0505524 4.76752 0.0163765 6.55321C-0.0348873 9.44961 3.60484 14.5076 4.19438 18.0363Z" fill="#133142"/>
<path d="M154.953 0C151.826 6.77537 148.596 13.0894 146.084 17.4126C145.52 18.361 144.785 19.6682 143.888 21.0523C142.35 23.4532 140.454 26.0249 138.856 27.0929C133.14 30.7925 119.111 33.313 112.301 33.1335C105.782 32.9285 91.7274 30.6814 87.3444 25.8882C82.9955 21.1207 82.2949 8.67213 81.7139 0.00855231H102.877C103.578 0.965477 104.21 1.86258 104.637 2.56319C106.56 5.733 108.568 13.7814 111.883 15.4133C115.616 17.2844 124.681 14.9434 128.381 13.0124C130.602 11.859 133.832 7.89464 135.421 5.67321C135.455 5.67321 135.481 5.63902 135.481 5.61339C135.515 5.52795 135.575 5.46812 135.635 5.37414C136.575 4.03273 137.754 2.11891 138.924 0.00855231H154.953V0Z" fill="#133142"/>
<path d="M317.545 0C317.57 6.01495 318.758 14.0548 317.237 18.6515C317.083 19.0701 316.938 19.4802 316.733 19.8391C315.016 23.0601 308.531 27.5287 305.071 28.6907C300.098 30.3482 289.324 28.0157 284.138 28.6907C279.909 29.2546 271.886 33.4582 267.622 33.125C260.574 32.5354 246.186 27.0246 241.896 21.4368C238.496 17.0281 237.83 8.61232 237.419 0H252.679C253.166 5.246 253.952 10.1673 255.96 13.0039C258.181 16.1395 265.461 20.0185 269.254 20.6422C274.312 21.471 284.821 18.9847 289.358 16.618C293.707 14.3624 301.072 8.09114 304.396 3.20399C304.806 2.55465 305.19 1.93093 305.455 1.33286C305.643 0.922746 305.805 0.478462 305.942 0H317.545Z" fill="#133142"/>
<path d="M481.264 0C478.547 4.04984 469.379 6.34819 463.706 9.3642C462.262 10.1332 461.015 10.9619 460.186 11.8505C457.871 14.3709 456.606 20.4628 454.795 25.1193C453.906 27.4005 452.864 29.3229 451.505 30.2969C446.507 33.9025 433.153 33.1335 426.967 33.1335C421.995 33.1079 411.246 33.6718 407.248 30.707C403.813 28.1609 402.634 18.66 400.404 15.0203C397.849 10.8509 391.723 5.36562 386.828 0.00855231H405.923C408.059 5.15202 411.836 15.4902 416.509 17.4212C421.183 19.3777 431.871 15.2253 436.229 12.6023C438.091 11.4489 440.108 8.78322 442.124 6.05769V6.02349C443.799 3.70807 445.482 1.43539 447.054 0.00855231H481.264V0Z" fill="#133142"/>
<path d="M621.359 0C619.71 1.81986 618.249 3.51155 617.327 4.94694C614.576 9.21038 611.671 17.9167 608.176 24.0342C606.877 26.3496 605.51 28.2976 604.032 29.4852C601.512 31.5358 594.796 32.9797 591.567 33.125C584.697 33.424 570.369 31.5956 564.593 27.8961C557.416 23.2823 548.966 10.2955 543.216 0H559.091C563.149 3.47739 568.421 6.8779 571.437 8.97972C574.966 11.4062 582.066 17.0879 586.329 17.4126C590.294 17.7373 598.521 14.7212 601.221 11.7821C602.101 10.8081 602.964 9.38128 603.708 7.69812C604.716 5.42543 605.57 2.71698 606.177 0H621.359Z" fill="#133142"/>
<path d="M786.463 0C786.523 5.5194 786.42 10.8167 785.122 14.2172C784.447 16.0285 783.02 18.4806 781.337 20.8815C779.115 23.9829 776.424 26.9818 774.262 28.2805C770.059 30.7924 759.789 30.7668 754.927 31.5016C747.468 32.655 731.508 34.8765 724.759 31.5016C721.145 29.6988 716.377 22.445 715.104 18.6258C713.66 14.3111 714.66 6.79245 715.224 0H726.322C726.331 0.0427198 726.339 0.0854605 726.348 0.12818C727.057 3.55431 729.782 10.7825 732.807 12.5938C736.387 14.8152 745.623 13.7729 749.707 12.5938C754.389 11.2353 763.181 5.98933 766.205 2.14454C766.658 1.53792 767.103 0.820221 767.53 0H786.463Z" fill="#133142"/>
<path d="M955.497 0C953.993 4.75044 951.379 10.7568 948.978 14.6614V14.6871C948.534 15.3962 948.09 16.0456 947.679 16.618C945.099 20.0527 938.23 25.5293 934.411 27.4774C929.506 29.9978 918.544 32.4244 913.068 33.1335C907.805 33.817 896.193 36.0385 891.759 33.1335C887.521 30.3567 886.428 18.8394 883.711 14.6102C881.13 10.6458 875.808 4.95551 870.972 0.00855231H887.231C891.913 5.61339 897.808 11.5258 902.208 13.807C908.275 16.9512 923.696 21.9153 929.182 17.8313C930.54 16.8316 931.343 14.9349 931.813 12.6622C932.565 8.91136 932.445 4.04985 932.369 0.00855231H955.497V0Z" fill="#133142"/>
<path d="M966.775 43.0192V65.4898C962.152 67.6771 956.385 72.2994 951.413 77.3317C951.387 77.3574 951.353 77.3916 951.353 77.3916C947.064 81.7746 943.33 86.3884 941.527 90.0025C939.451 94.0865 940.169 103.707 939.366 108.235C938.537 113.028 937.947 122.384 935.726 128.126C935.256 129.399 934.692 130.467 934.009 131.295C930.574 135.619 919.475 139.438 914.144 140.95C906.89 143.026 891.349 146.162 884.095 144.06C875.064 141.394 858.873 128.963 854.609 120.581C851.918 115.31 854.908 102.699 853.516 96.9572C851.798 89.6778 846.262 75.136 841.204 69.5995C837.146 65.1566 826.286 57.7319 820.271 57.7917C817.785 57.8173 813.991 59.8337 810.95 62.1149C809.232 63.3624 807.72 64.7209 806.866 65.8487C800.765 73.692 799.971 95.0348 795.588 103.946C794.229 106.757 791.529 111.115 788.753 114.874C786.83 117.446 784.874 119.761 783.25 121.12C777.594 125.887 763.121 129.322 755.833 133.995C755.03 134.525 754.32 135.029 753.731 135.593C753.227 136.063 752.663 136.781 752.073 137.575V137.601C750.296 140.087 748.288 143.522 746.238 144.052C737.241 146.299 717.137 138.549 711.361 131.295C706.03 124.631 708.995 105.809 707.072 97.4869C705.381 90.3186 702.159 75.2214 697.392 69.5995C694.342 65.9854 685.251 62.0209 680.782 60.483C676.784 59.1245 668.257 56.9629 664.147 57.7917C658.312 59.0049 648.931 65.3958 643.189 70.4026C642.181 71.2314 641.267 72.0943 640.523 72.8291C638.396 74.9565 635.106 80.1683 634.098 83.0135C632.526 87.482 632.851 97.1623 631.937 101.785C630.903 107.142 628.921 118.095 626.041 122.717C625.272 123.99 624.204 125.443 622.965 127.006C622.965 127.032 622.94 127.066 622.88 127.126C617.523 133.901 608.671 142.403 602.451 144.06C595.403 145.923 581.109 139.327 574 137.755C569.856 136.806 560.355 137.045 557.365 133.995C551.145 127.63 553.161 107.56 550.41 99.1189C548.009 91.8052 544.284 74.8455 537.534 71.2057C534.424 69.5482 527.085 73.6664 523.565 73.3673C518.353 72.9487 508.938 65.3446 502.871 64.661C501.539 64.4816 500.385 64.661 499.437 65.3104C493.781 69.215 500.53 86.2687 498.369 92.8134C496.002 99.8878 485.373 111.021 481.469 117.352C478.743 121.76 476.112 131.056 472.557 137.575C470.84 140.625 468.943 143.078 466.696 144.06C457.016 148.383 435.818 136.507 425.395 134.525C420.063 133.517 407.666 135.234 403.932 131.295C397.268 124.281 403.309 101.955 400.173 92.8134C397.567 85.2605 388.536 71.6158 383 65.8401C378.916 61.6108 369.56 52.6653 363.699 52.4261C357.368 52.1868 346.824 58.2018 340.075 64.0288C338.033 65.7718 336.375 67.5233 335.247 69.0612C329.625 76.8447 328.199 97.0683 327.199 106.629C326.55 112.755 329.566 125.605 327.199 131.287C327.114 131.466 327.02 131.671 326.934 131.876C325.191 135.166 319.86 139.634 317.015 141.497C315.562 142.445 312.281 143.838 310.564 144.043C297.064 145.521 266.665 145.017 256.925 135.576C252.807 131.577 254.439 118.497 252.636 113.046C249.944 104.963 241.768 89.8914 237.624 82.4667C234.668 77.1951 228.653 66.6603 224.748 62.0722C222.083 58.9622 216.401 52.1868 212.402 51.3581C206.242 50.0594 193.751 54.2032 187.65 58.2872C187.061 58.6461 186.557 59.0305 186.113 59.415C179.833 64.6268 175.099 81.262 171.075 88.3705C168.674 92.634 163.556 100.922 160.891 105.006C157.516 110.158 151.954 119.599 146.947 126.229C145.435 128.245 143.991 129.988 142.658 131.295C138.514 135.354 129.099 143.727 123.323 144.052C118.974 144.291 111.72 137.985 107.781 136.114C102.869 133.833 90.8815 132.056 87.9167 127.528C84.3026 122.051 89.7537 107.543 87.9167 101.238C86.5838 96.6753 80.3126 89.1566 77.7323 85.1666C73.7337 78.9465 67.3685 65.0968 61.6269 60.4745C58.9356 58.3129 52.1858 55.5019 48.7512 55.6472C42.8302 55.8864 32.4066 62.8412 27.2887 65.8316C22.1367 68.8476 12.1915 73.5297 5.64686 78.7415C3.01532 80.8177 0.939129 82.9708 -0.0690589 85.1666C-2.05126 89.43 1.79353 99.2299 1.52867 103.938C1.28943 108.022 -0.513346 114.302 -1.96582 120.188V64.8575C-0.513346 63.8493 0.879319 63.0548 2.05839 62.6105C5.07441 61.4827 11.8583 63.5845 14.9341 62.6105C20.5561 60.8675 29.2026 52.221 34.2691 49.1965C37.8832 47.0349 45.1371 42.2075 49.2809 41.5582C55.4667 40.5842 68.5561 42.3015 73.9729 45.4371C77.6725 47.5987 82.7989 54.9978 84.6871 58.8768C87.9423 65.4214 86.6693 81.9369 91.676 87.294C94.7519 90.5834 105.765 89.5154 108.849 92.7963C114.89 99.2214 109.174 123.913 117.436 126.989C122.024 128.707 130.637 119.71 133.541 115.737C133.627 115.617 133.721 115.472 133.806 115.352C137.121 110.26 139.044 98.4524 140.496 92.7963C141.795 87.7041 142.419 76.9558 144.785 72.2822C146.323 69.2662 150.023 64.7892 153.517 61.3289C155.209 59.6372 156.866 58.2189 158.191 57.2449C163.163 53.665 174.826 49.2819 180.721 47.5902C184.899 46.377 193.631 45.6934 197.895 44.8988C201.833 44.1897 209.497 41.1993 213.47 41.5496C222.407 42.3527 241.298 47.9405 246.749 55.1089C251.072 60.7906 247.783 76.7166 249.944 83.5261C252.636 91.9932 262.641 106.971 267.118 114.643C269.578 118.872 272.714 129.715 277.328 131.278C281.651 132.756 289.973 125.562 294.501 124.853C297.816 124.324 305.309 127.519 307.915 125.383C309.428 124.136 310.461 122.153 311.145 119.701C313.571 111.055 311.794 96.7864 313.272 89.9768C314.725 83.2869 316.023 68.5998 320.791 63.687C321.44 63.0035 322.449 62.5336 323.662 62.1491C327.541 60.9017 333.462 60.7308 335.803 58.8597C337.136 57.8259 338.204 55.8095 339.203 53.5283C341.279 48.9402 343.082 43.1986 345.979 41.5411C346.508 41.242 347.072 40.9515 347.696 40.6867C358.948 35.7141 383.461 36.0644 393.201 41.5411C397.49 43.9419 400.78 54.1519 403.411 58.2958C405.897 62.2345 412.263 69.3944 413.596 73.8715C415.757 81.0655 410.725 96.9658 413.596 103.921C415.843 109.337 425.497 117.061 430.231 120.556C434.879 123.956 444.884 131.894 450.625 131.27C454.974 130.8 461.074 123.247 464.039 120.017C464.688 119.308 465.398 118.505 466.167 117.591C466.252 117.471 466.346 117.386 466.431 117.266C471.789 110.986 479.307 101.016 481.469 94.7956C484.1 87.1573 479.752 69.7191 483.545 62.5849C484.519 60.7223 486.561 58.6461 489.022 56.6895C493.14 53.3403 498.377 50.2645 501.573 48.6411C507.434 45.7105 520.284 40.8234 526.795 41.5325C533.015 42.2417 544.173 49.2563 548.787 53.4599C552.871 57.1594 559.33 66.5151 561.133 71.6927C562.876 76.6995 562.047 87.5333 562.731 92.7707C563.679 99.7853 563.559 115.122 568.122 120.539C570.343 123.144 577.563 124.922 580.997 125.366C588.397 126.28 605.69 127.707 610.662 122.136C611.576 121.102 612.14 119.735 612.439 118.138C614.011 109.696 608.441 94.6589 610.662 87.7896C613.678 78.4937 628.126 64.2509 633.577 56.1427C635.978 52.5628 638.849 43.472 642.693 41.5155C642.993 41.3702 643.317 41.2164 643.667 41.0968C651.545 38.1064 668.061 42.5749 675.964 43.7881C679.902 44.4118 687.541 47.1374 691.505 47.5475C695.769 47.9918 705.184 44.4973 708.679 47.0178C713.241 50.273 713.566 63.089 715.129 68.4802C716.641 73.8116 720.281 84.4062 721.025 89.9427C721.828 95.9234 718.453 108.62 721.025 114.071C723.152 118.659 731.713 125.588 736.566 126.947C740.351 128.015 748.553 126.417 752.142 124.819C758.003 122.188 768.546 114.225 772.417 108.21C772.656 107.851 772.886 107.466 773.066 107.116C776.201 101.05 775.253 86.5678 777.893 80.2623C779.431 76.6482 784.848 70.7016 787.01 67.3866C790.709 61.7646 795.058 47.6073 800.953 44.3264C801.039 44.3008 801.099 44.241 801.193 44.2068C809.574 39.8237 829.55 42.4296 838.521 44.8561C844.023 46.3684 855.515 51.1872 858.386 56.1342C861.137 60.8675 856.933 72.8291 858.386 78.1263C860.462 85.7903 870.253 98.76 874.457 105.484C878.575 112.054 884.163 129.253 891.63 131.236C895.979 132.389 903.857 125.494 907.736 123.187C912.948 120.077 924.166 114.25 927.566 109.243C927.951 108.714 928.276 108.056 928.575 107.381C931.445 100.93 931.864 88.6696 934.026 82.9537C936.273 77.0071 942.638 65.9341 945.842 60.4232C947.354 57.8173 949.926 52.1356 952.267 50.2388C952.891 49.7347 953.6 49.2306 954.429 48.7009C957.658 46.6589 962.357 44.4375 966.775 43.0192Z" fill="#133142"/>
<path d="M5.74083 0.12818C5.68102 3.7081 11.2175 10.5774 9.76504 13.8327C8.99609 15.5415 6.82592 16.9085 4.19438 18.0363C2.23781 18.8565 0.0505519 19.5401 -2 20.1979V0H5.74083C5.74083 0.0427198 5.74083 0.0854605 5.74083 0.12818Z" fill="#193D56"/>
<path d="M157.61 0C155.517 4.2549 153.5 8.07403 151.8 10.9875C150.296 13.6276 147.092 19.0103 144.572 20.6679C144.367 20.8216 144.136 20.9327 143.897 21.0523C137.822 24.5468 124.562 26.8879 118.026 26.7084C111.515 26.5034 97.4521 24.2563 93.069 19.4632C89.7112 15.7893 88.5322 7.56141 87.8999 0H112.156C113.609 3.55429 115.292 7.83483 117.624 8.97972C121.384 10.8508 130.415 8.5098 134.114 6.57886C134.524 6.37381 134.969 6.04913 135.439 5.66465C135.473 5.66465 135.498 5.63047 135.498 5.60484C137.275 4.15237 139.258 1.76006 140.591 0H157.61Z" fill="#193D56"/>
<path d="M323.525 0C323.807 5.14347 324.003 10.4322 322.44 13.414C321.586 15.0459 319.509 16.9683 317.237 18.66C314.981 20.2834 312.529 21.6846 310.777 22.2741C305.805 23.9317 295.031 21.5906 289.845 22.2741C285.615 22.838 277.593 27.0331 273.329 26.7084C266.306 26.1189 251.892 20.6081 247.603 15.0203C245.057 11.7223 244.04 6.18584 243.528 0.00855231H259.249C259.77 2.66573 260.513 4.96406 261.667 6.58742C263.888 9.72305 271.168 13.602 274.961 14.2257C280.019 15.0545 290.528 12.5682 295.065 10.2015C297.611 8.90281 301.191 6.20293 304.395 3.21254C305.506 2.17018 306.574 1.07655 307.522 0.00855231H323.525V0Z" fill="#193D56"/>
<path d="M476.077 0C471.951 1.68316 467.849 3.33213 465.901 5.4254C465.047 6.3396 464.338 7.74085 463.706 9.3642C461.723 14.3966 460.365 21.6162 457.221 23.8718C456.546 24.3418 455.751 24.7519 454.794 25.1107C448.754 27.2724 438.04 26.6999 432.682 26.6999C427.71 26.6743 416.97 27.2381 412.963 24.2734C409.528 21.7273 408.375 12.2264 406.119 8.58667C404.598 6.08329 401.788 3.11855 398.737 0H414.321C416.415 4.71627 419.115 9.71448 422.225 10.9875C426.898 12.9441 437.587 8.79171 441.944 6.16872C442.004 6.13454 442.064 6.10895 442.124 6.04914V6.01493C443.875 4.90422 445.729 2.49484 447.566 0H476.077Z" fill="#193D56"/>
<path d="M622.171 0C618.625 6.50196 614.755 19.0189 609.739 23.0687C609.329 23.4276 608.8 23.7522 608.176 24.0427C605.066 25.555 599.982 26.5974 597.282 26.7084C590.413 27.0075 576.085 25.1791 570.309 21.4795C564.568 17.7885 558.006 8.74049 552.674 0.00855231H573.428C574.837 0.97402 576.128 1.8455 577.153 2.56319C580.673 4.98968 587.773 10.6714 592.036 10.9961C594.941 11.2353 600.085 9.69742 603.699 7.70667C605.057 6.97189 606.185 6.17731 606.929 5.36564C608.039 4.1353 609.073 2.22143 609.945 0H622.171Z" fill="#193D56"/>
<path d="M792.111 0C791.965 3.04165 791.624 5.76717 790.846 7.79209C789.428 11.4575 785.011 17.8569 781.337 20.8815C780.867 21.2574 780.423 21.5821 779.978 21.8555C775.775 24.3674 765.505 24.3417 760.652 25.0765C753.193 26.23 737.233 28.4514 730.483 25.0765C726.869 23.2737 722.11 16.02 720.828 12.2008C719.829 9.21896 720 4.72481 720.384 0H734.191C735.37 2.66572 736.917 5.19471 738.532 6.16872C742.146 8.39015 751.356 7.34779 755.44 6.16872C758.49 5.28015 763.283 2.72553 767.085 0H792.111Z" fill="#193D56"/>
<path d="M958.82 0C957.137 3.99858 955.12 7.90316 953.386 10.1929C952.386 11.4916 950.806 13.0893 948.977 14.6614V14.6871C946.012 17.293 942.492 19.8391 940.126 21.0523C935.213 23.5728 924.251 25.9908 918.774 26.7084C913.511 27.392 901.9 29.6134 897.466 26.7084C893.236 23.9317 892.134 12.4144 889.417 8.18513C887.922 5.86972 885.496 2.99894 882.77 0.00855231H898.773C901.977 3.22963 905.232 5.98933 907.924 7.382C913.067 10.0477 925.003 14.0463 931.812 12.6622C933.026 12.4229 934.068 12.0384 934.897 11.4147C937.349 9.57777 937.998 4.88717 938.118 0.0171046H958.82V0Z" fill="#193D56"/>
<path d="M966.774 38.79V62.5593C961.358 66.4639 955.496 72.1542 951.412 77.3318C951.387 77.3574 951.352 77.3916 951.352 77.3916C949.575 79.6131 948.157 81.7405 947.234 83.5774C945.158 87.6615 945.876 97.2819 945.073 101.81C944.065 107.646 943.415 120.257 939.716 124.87C938.827 125.998 937.409 127.092 935.717 128.126C930.89 131.031 923.79 133.397 919.851 134.517C912.597 136.593 897.056 139.728 889.836 137.627C880.779 134.961 864.614 122.529 860.317 114.148C857.625 108.876 860.616 96.2652 859.223 90.5237C857.506 83.2442 851.969 68.7024 846.911 63.1659C842.853 58.723 831.993 51.2983 825.978 51.3581C822.074 51.4179 814.965 56.3308 812.564 59.4066C811.975 60.1755 811.411 61.0983 810.932 62.0979C806.285 71.3339 805.217 89.4813 801.278 97.5041C798.971 102.237 792.99 111.268 788.932 114.677C788.872 114.737 788.812 114.797 788.727 114.857C782.302 120.069 765.462 123.683 759.421 129.16C758.353 130.134 757.14 132.15 755.807 133.987C754.619 135.67 753.321 137.182 752.047 137.567V137.592C752.022 137.592 751.962 137.618 751.928 137.618C742.931 139.865 722.827 132.116 717.051 124.862C711.72 118.198 714.685 99.3752 712.762 91.0534C711.079 83.885 707.85 68.7878 703.082 63.1659C700.032 59.5518 690.941 55.5874 686.473 54.0495C682.474 52.691 673.947 50.4952 669.837 51.3581C662.968 52.7764 651.16 61.423 646.213 66.3955C645.299 67.3097 644.197 68.7622 643.163 70.3941C641.711 72.5557 640.352 74.9566 639.788 76.5799C638.216 81.0484 638.541 90.7287 637.627 95.351C636.593 100.708 634.611 111.661 631.731 116.284C629.929 119.214 626.699 123.213 622.94 126.998C622.94 127.024 622.914 127.058 622.854 127.118C618.061 132.005 612.465 136.473 608.141 137.627C601.093 139.489 586.799 132.893 579.69 131.321C575.546 130.373 566.045 130.612 563.055 127.562C556.835 121.197 558.851 101.127 556.1 92.6853C553.699 85.3717 549.974 68.4119 543.224 64.7722C540.114 63.1146 532.775 67.2329 529.255 66.9338C522.924 66.4041 510.364 55.2713 505.127 58.8854C503.555 59.979 502.965 62.0552 502.846 64.6611C502.521 71.4365 505.631 81.655 504.059 86.3884C501.692 93.4628 491.063 104.596 487.159 110.927C483.16 117.352 479.435 134.286 472.532 137.567C472.472 137.567 472.446 137.592 472.386 137.627C462.706 141.95 441.508 130.074 431.085 128.092C425.753 127.083 413.356 128.801 409.622 124.862C402.958 117.847 409.033 95.5219 405.863 86.3798C403.257 78.827 394.226 65.1823 388.69 59.4066C384.606 55.1773 375.25 46.2318 369.389 45.9926C361.161 45.6679 345.765 55.9377 340.937 62.6276C340.638 63.0463 340.348 63.5162 340.049 64.0203C335.162 72.607 333.829 91.1645 332.88 100.17C332.231 106.33 335.247 119.172 332.88 124.862C332.026 126.964 329.446 129.655 326.9 131.876C325.362 133.175 323.824 134.337 322.696 135.072C321.244 136.02 317.988 137.413 316.245 137.618C302.746 139.096 272.346 138.592 262.606 129.151C258.488 125.152 260.12 112.072 258.317 106.62C255.626 98.5379 247.449 83.4664 243.306 76.0417C240.349 70.77 234.334 60.2353 230.43 55.6472C227.764 52.5372 222.082 45.7619 218.084 44.9331C211.36 43.5148 197.066 48.5728 191.794 52.9815C190.316 54.1948 188.923 56.0573 187.616 58.2788C183.327 65.4984 179.832 76.486 176.748 81.9285C174.347 86.1919 169.229 94.4795 166.564 98.5635C162.181 105.253 154.038 119.257 148.331 124.853C147.912 125.263 147.442 125.708 146.913 126.212C142.324 130.535 134.182 137.31 129.004 137.61C124.655 137.849 117.402 131.543 113.463 129.672C108.55 127.391 96.5629 125.614 93.5982 121.085C89.9841 115.609 95.4351 101.101 93.5982 94.7957C92.2653 90.2332 85.9941 82.7145 83.4138 78.7245C79.4152 72.5045 73.0499 58.6547 67.3084 54.0324C64.6171 51.8708 57.8673 49.0598 54.4327 49.2051C48.5117 49.4443 38.0881 56.3991 32.9702 59.3895C25.7506 63.6187 9.14109 71.1118 5.61243 78.7245C3.63023 82.9879 7.47501 92.7878 7.21015 97.4955C6.82567 104.45 1.79328 117.89 1.85309 124.853C1.87872 128.109 6.58644 135.063 4.54444 137.61C3.51062 138.857 1.34899 139.472 -1.1373 139.651C-1.43634 139.677 -1.7012 139.677 -1.9917 139.677V63.089C1.26355 60.0388 4.99727 57.1937 7.74842 56.1598C10.7644 55.032 17.574 57.1339 20.6242 56.1598C26.2461 54.4169 34.8926 45.7704 39.9592 42.7459C43.5733 40.5842 50.8271 35.7569 54.9709 35.1075C61.1568 34.1335 74.2461 35.8509 79.663 38.9865C83.3625 41.1481 88.4889 48.5472 90.3771 52.4005C93.6324 58.9708 92.3593 75.4949 97.3661 80.8519C100.442 84.1413 111.455 83.0734 114.539 86.3542C120.58 92.7793 114.864 117.471 123.126 120.547C125.911 121.581 130.201 118.685 133.78 115.335C136.062 113.174 138.07 110.867 139.231 109.295C142.726 104.442 144.708 92.1556 146.186 86.3542C147.485 81.262 148.109 70.5137 150.475 65.8402C151.125 64.5415 152.193 62.9352 153.491 61.3119C156.601 57.3133 160.984 52.879 163.881 50.8028C168.853 47.2229 180.516 42.8398 186.411 41.1481C190.615 39.9348 199.321 39.2514 203.585 38.4568C207.523 37.7476 215.187 34.7572 219.16 35.1075C228.097 35.9107 246.988 41.4984 252.439 48.6668C256.762 54.3486 253.473 70.2745 255.634 77.084C258.36 85.5511 268.331 100.529 272.808 108.201C275.269 112.439 278.404 123.273 283.018 124.836C287.341 126.314 295.663 119.12 300.191 118.411C302.737 118.001 307.77 119.804 311.119 119.684C312.153 119.659 313.016 119.419 313.605 118.941C320.5 113.225 317.066 92.2667 318.962 83.5347C320.056 78.4169 321.09 68.6426 323.636 62.1321C324.405 60.1157 325.353 58.3984 326.481 57.2449C328.702 54.9381 335.187 54.8185 339.177 53.5112C340.126 53.2122 340.895 52.8619 341.484 52.3834C343.971 50.4012 345.662 44.9844 347.67 40.6611C348.824 38.1407 350.097 36.0132 351.694 35.099C361.939 29.2378 388.613 29.3233 398.883 35.099C403.172 37.4999 406.461 47.7099 409.093 51.8537C411.579 55.7925 417.944 62.9523 419.277 67.4293C421.439 74.6234 416.406 90.5237 419.277 97.4785C421.524 102.895 431.179 110.619 435.912 114.114C440.56 117.514 450.565 125.451 456.307 124.828C459.263 124.503 463.082 120.863 466.132 117.574C466.218 117.454 466.312 117.369 466.397 117.249C467.696 115.857 468.858 114.524 469.712 113.575C474.864 107.894 484.63 95.5731 487.15 88.3535C489.722 80.8946 485.638 64.1058 488.987 56.6811C489.047 56.5016 489.133 56.3222 489.227 56.1513C491.892 51.1189 502.162 44.7793 507.254 42.2076C513.115 39.277 525.966 34.3898 532.476 35.099C538.696 35.8081 549.855 42.8227 554.468 47.0263C558.552 50.7259 565.012 60.0815 566.814 65.2592C568.557 70.2659 567.729 81.0997 568.412 86.3371C569.36 93.3517 569.241 108.688 573.803 114.105C576.025 116.711 583.244 118.488 586.679 118.932C592.685 119.676 605.271 120.769 612.405 118.129C614.062 117.54 615.421 116.737 616.344 115.703C622.085 109.312 613.712 89.5326 616.344 81.3645C619.36 72.0687 633.808 57.8259 639.259 49.7177C640.557 47.7953 641.984 44.2666 643.642 41.1054C645.034 38.414 646.598 35.9876 648.375 35.099C655.808 31.3055 673.392 36.1072 681.654 37.3802C685.593 38.0039 693.231 40.7295 697.195 41.1396C701.459 41.5839 710.874 38.0894 714.369 40.6099C718.931 43.8651 719.256 56.6811 720.819 62.0723C722.332 67.4037 725.971 77.9982 726.715 83.5347C727.518 89.5155 724.143 102.212 726.715 107.663C728.876 112.251 737.403 119.18 742.29 120.539C746.05 121.607 754.252 120.009 757.832 118.411C761.736 116.668 767.717 112.55 772.399 108.227C775.244 105.655 777.577 102.989 778.764 100.708C781.9 94.6419 780.952 80.1599 783.592 73.8544C785.13 70.2403 790.547 64.2937 792.708 60.9786C795.169 57.2449 797.886 49.7861 801.175 44.2239C802.867 41.3788 804.67 39.0463 806.652 37.9185C814.88 33.356 835.163 35.9961 844.22 38.4482C849.722 39.9605 861.214 44.7793 864.084 49.7263C866.836 54.4596 862.632 66.4212 864.084 71.7184C866.161 79.3824 875.952 92.3521 880.156 99.0762C884.274 105.647 889.862 122.845 897.329 124.828C901.678 125.981 909.555 119.086 913.434 116.779C917.108 114.592 923.764 111.038 928.566 107.398C930.608 105.86 932.299 104.322 933.299 102.836C937.093 97.2392 937.323 82.8854 939.724 76.5458C941.971 70.5992 948.337 59.5262 951.532 54.0153C952.275 52.7166 953.275 50.6661 954.403 48.7181C955.531 46.7017 956.769 44.7793 957.957 43.8309C959.931 42.2503 963.186 40.3877 966.774 38.79Z" fill="#193D56"/>
<path d="M1311.45 0C1313.1 1.81986 1314.56 3.51155 1315.48 4.94694C1318.23 9.21038 1321.14 17.9167 1324.63 24.0342C1325.93 26.3496 1327.3 28.2976 1328.77 29.4852C1331.29 31.5358 1338.01 32.9797 1341.24 33.125C1348.11 33.424 1362.44 31.5956 1368.21 27.8961C1375.39 23.2823 1383.84 10.2955 1389.59 0H1373.72C1369.66 3.47739 1364.39 6.8779 1361.37 8.97972C1357.84 11.4062 1350.74 17.0879 1346.48 17.4126C1342.51 17.7373 1334.29 14.7212 1331.59 11.7821C1330.71 10.8081 1329.84 9.38128 1329.1 7.69812C1328.09 5.42543 1327.24 2.71698 1326.63 0H1311.45Z" fill="#133142"/>
<path d="M1146.34 0C1146.28 5.5194 1146.39 10.8167 1147.68 14.2172C1148.36 16.0285 1149.79 18.4806 1151.47 20.8815C1153.69 23.9829 1156.38 26.9818 1158.54 28.2805C1162.75 30.7924 1173.02 30.7668 1177.88 31.5016C1185.34 32.655 1201.3 34.8765 1208.05 31.5016C1211.66 29.6988 1216.43 22.445 1217.7 18.6258C1219.15 14.3111 1218.15 6.79245 1217.58 0H1206.48C1206.48 0.0427198 1206.47 0.0854605 1206.46 0.12818C1205.75 3.55431 1203.02 10.7825 1200 12.5938C1196.42 14.8152 1187.18 13.7729 1183.1 12.5938C1178.42 11.2353 1169.63 5.98933 1166.6 2.14454C1166.15 1.53792 1165.7 0.820221 1165.28 0H1146.34Z" fill="#133142"/>
<path d="M977.31 0C978.813 4.75044 981.428 10.7568 983.829 14.6614V14.6871C984.273 15.3962 984.717 16.0456 985.127 16.618C987.708 20.0527 994.577 25.5293 998.396 27.4774C1003.3 29.9978 1014.26 32.4244 1019.74 33.1335C1025.01 33.817 1036.61 36.0385 1041.05 33.1335C1045.29 30.3567 1046.38 18.8394 1049.1 14.6102C1051.68 10.6458 1057 4.95551 1061.84 0.00855231H1045.58C1040.89 5.61339 1035 11.5258 1030.6 13.807C1024.53 16.9512 1009.11 21.9153 1003.63 17.8313C1002.27 16.8316 1001.46 14.9349 1000.99 12.6622C1000.24 8.91136 1000.36 4.04985 1000.44 0.00855231H977.31V0Z" fill="#133142"/>
<path d="M966.04 43.0192V65.4898C970.662 67.6771 976.429 72.2994 981.402 77.3317C981.428 77.3574 981.462 77.3916 981.462 77.3916C985.751 81.7746 989.485 86.3884 991.287 90.0025C993.364 94.0865 992.646 103.707 993.449 108.235C994.278 113.028 994.867 122.384 997.089 128.126C997.559 129.399 998.123 130.467 998.806 131.295C1002.24 135.619 1013.34 139.438 1018.67 140.95C1025.92 143.026 1041.47 146.162 1048.72 144.06C1057.75 141.394 1073.94 128.963 1078.21 120.581C1080.9 115.31 1077.91 102.699 1079.3 96.9572C1081.02 89.6778 1086.55 75.136 1091.61 69.5995C1095.67 65.1566 1106.53 57.7319 1112.54 57.7917C1115.03 57.8173 1118.82 59.8337 1121.86 62.1149C1123.58 63.3624 1125.09 64.7209 1125.95 65.8487C1132.05 73.692 1132.84 95.0348 1137.23 103.946C1138.59 106.757 1141.29 111.115 1144.06 114.874C1145.98 117.446 1147.94 119.761 1149.56 121.12C1155.22 125.887 1169.69 129.322 1176.98 133.995C1177.79 134.525 1178.49 135.029 1179.08 135.593C1179.59 136.063 1180.15 136.781 1180.74 137.575V137.601C1182.52 140.087 1184.53 143.522 1186.58 144.052C1195.57 146.299 1215.68 138.549 1221.45 131.295C1226.78 124.631 1223.82 105.809 1225.74 97.4869C1227.43 90.3186 1230.66 75.2214 1235.42 69.5995C1238.47 65.9854 1247.56 62.0209 1252.03 60.483C1256.03 59.1245 1264.56 56.9629 1268.67 57.7917C1274.5 59.0049 1283.88 65.3958 1289.63 70.4026C1290.63 71.2314 1291.55 72.0943 1292.29 72.8291C1294.42 74.9565 1297.71 80.1683 1298.72 83.0135C1300.29 87.482 1299.96 97.1623 1300.88 101.785C1301.91 107.142 1303.89 118.095 1306.77 122.717C1307.54 123.99 1308.61 125.443 1309.85 127.006C1309.85 127.032 1309.87 127.066 1309.93 127.126C1315.29 133.901 1324.14 142.403 1330.36 144.06C1337.41 145.923 1351.71 139.327 1358.81 137.755C1362.96 136.806 1372.46 137.045 1375.45 133.995C1381.67 127.63 1379.65 107.56 1382.4 99.1189C1384.81 91.8052 1388.53 74.8455 1395.28 71.2057C1398.39 69.5482 1405.73 73.6664 1409.25 73.3673C1414.46 72.9487 1423.88 65.3446 1429.94 64.661C1431.28 64.4816 1432.43 64.661 1433.38 65.3104C1439.03 69.215 1432.28 86.2687 1434.45 92.8134C1436.81 99.8878 1447.44 111.021 1451.35 117.352C1454.07 121.76 1456.7 131.056 1460.26 137.575C1461.97 140.625 1463.87 143.078 1466.12 144.06C1475.8 148.383 1497 136.507 1507.42 134.525C1512.75 133.517 1525.15 135.234 1528.88 131.295C1535.55 124.281 1529.51 101.955 1532.64 92.8134C1535.25 85.2605 1544.28 71.6158 1549.82 65.8401C1553.9 61.6108 1563.25 52.6653 1569.12 52.4261C1575.46 52.1868 1585.99 58.2018 1592.74 64.0288C1594.78 65.7718 1596.44 67.5233 1597.57 69.0612C1603.19 76.8447 1604.62 97.0683 1605.62 106.629C1606.26 112.755 1603.25 125.605 1605.62 131.287C1605.7 131.466 1605.8 131.671 1605.88 131.876C1607.62 135.166 1612.95 139.634 1615.8 141.497C1617.25 142.445 1620.53 143.838 1622.25 144.043C1635.75 145.521 1666.15 145.017 1675.89 135.576C1680.01 131.577 1678.38 118.497 1680.18 113.046C1682.87 104.963 1691.05 89.8914 1695.19 82.4667C1698.15 77.1951 1704.16 66.6603 1708.07 62.0722C1710.73 58.9622 1716.41 52.1868 1720.41 51.3581C1726.57 50.0594 1739.06 54.2032 1745.16 58.2872C1745.75 58.6461 1746.26 59.0305 1746.7 59.415C1752.98 64.6268 1757.72 81.262 1761.74 88.3705C1764.14 92.634 1769.26 100.922 1771.92 105.006C1775.3 110.158 1780.86 119.599 1785.87 126.229C1787.38 128.245 1788.82 129.988 1790.16 131.295C1794.3 135.354 1803.72 143.727 1809.49 144.052C1813.84 144.291 1821.09 137.985 1825.03 136.114C1829.95 133.833 1841.93 132.056 1844.9 127.528C1848.51 122.051 1843.06 107.543 1844.9 101.238C1846.23 96.6753 1852.5 89.1566 1855.08 85.1666C1859.08 78.9465 1865.45 65.0968 1871.19 60.4745C1873.88 58.3129 1880.63 55.5019 1884.06 55.6472C1889.98 55.8864 1900.41 62.8412 1905.53 65.8316C1910.68 68.8476 1920.62 73.5297 1927.17 78.7415C1929.8 80.8177 1931.88 82.9708 1932.88 85.1666C1934.87 89.43 1931.02 99.2299 1931.29 103.938C1931.53 108.022 1933.33 114.302 1934.78 120.188V64.8575C1933.33 63.8493 1931.94 63.0548 1930.76 62.6105C1927.74 61.4827 1920.96 63.5845 1917.88 62.6105C1912.26 60.8675 1903.61 52.221 1898.55 49.1965C1894.93 47.0349 1887.68 42.2075 1883.53 41.5582C1877.35 40.5842 1864.26 42.3015 1858.84 45.4371C1855.14 47.5987 1850.02 54.9978 1848.13 58.8768C1844.87 65.4214 1846.15 81.9369 1841.14 87.294C1838.06 90.5834 1827.05 89.5154 1823.97 92.7963C1817.92 99.2214 1823.64 123.913 1815.38 126.989C1810.79 128.707 1802.18 119.71 1799.27 115.737C1799.19 115.617 1799.09 115.472 1799.01 115.352C1795.69 110.26 1793.77 98.4524 1792.32 92.7963C1791.02 87.7041 1790.4 76.9558 1788.03 72.2822C1786.49 69.2662 1782.79 64.7892 1779.3 61.3289C1777.61 59.6372 1775.95 58.2189 1774.62 57.2449C1769.65 53.665 1757.99 49.2819 1752.09 47.5902C1747.92 46.377 1739.18 45.6934 1734.92 44.8988C1730.98 44.1897 1723.32 41.1993 1719.34 41.5496C1710.41 42.3527 1691.52 47.9405 1686.07 55.1089C1681.74 60.7906 1685.03 76.7166 1682.87 83.5261C1680.18 91.9932 1670.17 106.971 1665.7 114.643C1663.24 118.872 1660.1 129.715 1655.49 131.278C1651.16 132.756 1642.84 125.562 1638.31 124.853C1635 124.324 1627.51 127.519 1624.9 125.383C1623.39 124.136 1622.35 122.153 1621.67 119.701C1619.24 111.055 1621.02 96.7864 1619.54 89.9768C1618.09 83.2869 1616.79 68.5998 1612.02 63.687C1611.37 63.0035 1610.37 62.5336 1609.15 62.1491C1605.27 60.9017 1599.35 60.7308 1597.01 58.8597C1595.68 57.8259 1594.61 55.8095 1593.61 53.5283C1591.54 48.9402 1589.73 43.1986 1586.84 41.5411C1586.31 41.242 1585.74 40.9515 1585.12 40.6867C1573.87 35.7141 1549.35 36.0644 1539.61 41.5411C1535.32 43.9419 1532.04 54.1519 1529.4 58.2958C1526.92 62.2345 1520.55 69.3944 1519.22 73.8715C1517.06 81.0655 1522.09 96.9658 1519.22 103.921C1516.97 109.337 1507.32 117.061 1502.58 120.556C1497.94 123.956 1487.93 131.894 1482.19 131.27C1477.84 130.8 1471.74 123.247 1468.78 120.017C1468.13 119.308 1467.42 118.505 1466.65 117.591C1466.56 117.471 1466.47 117.386 1466.38 117.266C1461.03 110.986 1453.51 101.016 1451.35 94.7956C1448.71 87.1573 1453.06 69.7191 1449.27 62.5849C1448.3 60.7223 1446.25 58.6461 1443.79 56.6895C1439.67 53.3403 1434.44 50.2645 1431.24 48.6411C1425.38 45.7105 1412.53 40.8234 1406.02 41.5325C1399.8 42.2417 1388.64 49.2563 1384.03 53.4599C1379.94 57.1594 1373.48 66.5151 1371.68 71.6927C1369.94 76.6995 1370.77 87.5333 1370.08 92.7707C1369.14 99.7853 1369.26 115.122 1364.69 120.539C1362.47 123.144 1355.25 124.922 1351.82 125.366C1344.42 126.28 1327.13 127.707 1322.15 122.136C1321.24 121.102 1320.67 119.735 1320.38 118.138C1318.8 109.696 1324.37 94.6589 1322.15 87.7896C1319.14 78.4937 1304.69 64.2509 1299.24 56.1427C1296.84 52.5628 1293.97 43.472 1290.12 41.5155C1289.82 41.3702 1289.5 41.2164 1289.15 41.0968C1281.27 38.1064 1264.75 42.5749 1256.85 43.7881C1252.91 44.4118 1245.27 47.1374 1241.31 47.5475C1237.05 47.9918 1227.63 44.4973 1224.14 47.0178C1219.57 50.273 1219.25 63.089 1217.69 68.4802C1216.17 73.8116 1212.53 84.4062 1211.79 89.9427C1210.99 95.9234 1214.36 108.62 1211.79 114.071C1209.66 118.659 1201.1 125.588 1196.25 126.947C1192.46 128.015 1184.26 126.417 1180.67 124.819C1174.81 122.188 1164.27 114.225 1160.4 108.21C1160.16 107.851 1159.93 107.466 1159.75 107.116C1156.61 101.05 1157.56 86.5678 1154.92 80.2623C1153.38 76.6482 1147.97 70.7016 1145.8 67.3866C1142.11 61.7646 1137.76 47.6073 1131.86 44.3264C1131.78 44.3008 1131.72 44.241 1131.62 44.2068C1123.24 39.8237 1103.26 42.4296 1094.29 44.8561C1088.79 46.3684 1077.3 51.1872 1074.43 56.1342C1071.68 60.8675 1075.88 72.8291 1074.43 78.1263C1072.35 85.7903 1062.56 98.76 1058.36 105.484C1054.24 112.054 1048.65 129.253 1041.18 131.236C1036.84 132.389 1028.96 125.494 1025.08 123.187C1019.87 120.077 1008.65 114.25 1005.25 109.243C1004.86 108.714 1004.54 108.056 1004.24 107.381C1001.37 100.93 1000.95 88.6696 998.789 82.9537C996.542 77.0071 990.177 65.9341 986.981 60.4232C985.469 57.8173 982.897 52.1356 980.556 50.2388C979.933 49.7347 979.223 49.2306 978.395 48.7009C975.156 46.6589 970.449 44.4375 966.04 43.0192Z" fill="#133142"/>
<path d="M1310.64 0C1314.18 6.50196 1318.05 19.0189 1323.07 23.0687C1323.48 23.4276 1324.01 23.7522 1324.63 24.0427C1327.74 25.555 1332.82 26.5974 1335.52 26.7084C1342.39 27.0075 1356.72 25.1791 1362.5 21.4795C1368.24 17.7885 1374.8 8.74049 1380.13 0.00855231H1359.38C1357.97 0.97402 1356.68 1.8455 1355.65 2.56319C1352.13 4.98968 1345.03 10.6714 1340.77 10.9961C1337.86 11.2353 1332.72 9.69742 1329.11 7.70667C1327.75 6.97189 1326.62 6.17731 1325.88 5.36564C1324.77 4.1353 1323.73 2.22143 1322.86 0H1310.64Z" fill="#193D56"/>
<path d="M1140.7 0C1140.85 3.04165 1141.19 5.76717 1141.97 7.79209C1143.39 11.4575 1147.8 17.8569 1151.48 20.8815C1151.95 21.2574 1152.39 21.5821 1152.84 21.8555C1157.04 24.3674 1167.31 24.3417 1172.16 25.0765C1179.62 26.23 1195.58 28.4514 1202.33 25.0765C1205.95 23.2737 1210.71 16.02 1211.99 12.2008C1212.99 9.21896 1212.82 4.72481 1212.43 0H1198.62C1197.45 2.66572 1195.9 5.19471 1194.28 6.16872C1190.67 8.39015 1181.46 7.34779 1177.38 6.16872C1174.33 5.28015 1169.53 2.72553 1165.73 0H1140.7Z" fill="#193D56"/>
<path d="M973.986 0C975.669 3.99858 977.685 7.90316 979.42 10.1929C980.419 11.4916 982 13.0893 983.829 14.6614V14.6871C986.793 17.293 990.313 19.8391 992.68 21.0523C997.593 23.5728 1008.55 25.9908 1014.03 26.7084C1019.29 27.392 1030.91 29.6134 1035.34 26.7084C1039.57 23.9317 1040.67 12.4144 1043.39 8.18513C1044.88 5.86972 1047.31 2.99894 1050.04 0.00855231H1034.03C1030.83 3.22963 1027.57 5.98933 1024.88 7.382C1019.74 10.0477 1007.8 14.0463 1000.99 12.6622C999.78 12.4229 998.738 12.0384 997.909 11.4147C995.457 9.57777 994.807 4.88717 994.688 0.0171046H973.986V0Z" fill="#193D56"/>
<path d="M966.04 38.79V62.5593C971.457 66.4639 977.318 72.1542 981.402 77.3318C981.428 77.3574 981.462 77.3916 981.462 77.3916C983.239 79.6131 984.657 81.7405 985.58 83.5774C987.656 87.6615 986.938 97.2819 987.742 101.81C988.75 107.646 989.399 120.257 993.099 124.87C993.987 125.998 995.406 127.092 997.097 128.126C1001.92 131.031 1009.02 133.397 1012.96 134.517C1020.22 136.593 1035.76 139.728 1042.98 137.627C1052.03 134.961 1068.2 122.529 1072.5 114.148C1075.19 108.876 1072.2 96.2652 1073.59 90.5237C1075.31 83.2442 1080.85 68.7024 1085.9 63.1659C1089.96 58.723 1100.82 51.2983 1106.84 51.3581C1110.74 51.4179 1117.85 56.3308 1120.25 59.4066C1120.84 60.1755 1121.4 61.0983 1121.88 62.0979C1126.53 71.3339 1127.6 89.4813 1131.54 97.5041C1133.84 102.237 1139.82 111.268 1143.88 114.677C1143.94 114.737 1144 114.797 1144.09 114.857C1150.51 120.069 1167.35 123.683 1173.39 129.16C1174.46 130.134 1175.67 132.15 1177.01 133.987C1178.2 135.67 1179.49 137.182 1180.77 137.567V137.592C1180.79 137.592 1180.85 137.618 1180.89 137.618C1189.88 139.865 1209.99 132.116 1215.76 124.862C1221.09 118.198 1218.13 99.3752 1220.05 91.0534C1221.74 83.885 1224.96 68.7878 1229.73 63.1659C1232.78 59.5518 1241.87 55.5874 1246.34 54.0495C1250.34 52.691 1258.87 50.4952 1262.98 51.3581C1269.85 52.7764 1281.65 61.423 1286.6 66.3955C1287.52 67.3097 1288.62 68.7622 1289.65 70.3941C1291.1 72.5557 1292.46 74.9566 1293.03 76.5799C1294.6 81.0484 1294.27 90.7287 1295.19 95.351C1296.22 100.708 1298.2 111.661 1301.08 116.284C1302.89 119.214 1306.12 123.213 1309.87 126.998C1309.87 127.024 1309.9 127.058 1309.96 127.118C1314.75 132.005 1320.35 136.473 1324.67 137.627C1331.72 139.489 1346.02 132.893 1353.12 131.321C1357.27 130.373 1366.77 130.612 1369.76 127.562C1375.98 121.197 1373.96 101.127 1376.71 92.6853C1379.12 85.3717 1382.84 68.4119 1389.59 64.7722C1392.7 63.1146 1400.04 67.2329 1403.56 66.9338C1409.89 66.4041 1422.45 55.2713 1427.69 58.8854C1429.26 59.979 1429.85 62.0552 1429.97 64.6611C1430.29 71.4365 1427.18 81.655 1428.76 86.3884C1431.12 93.4628 1441.75 104.596 1445.66 110.927C1449.65 117.352 1453.38 134.286 1460.28 137.567C1460.34 137.567 1460.37 137.592 1460.43 137.627C1470.11 141.95 1491.31 130.074 1501.73 128.092C1507.06 127.083 1519.46 128.801 1523.19 124.862C1529.86 117.847 1523.78 95.5219 1526.95 86.3798C1529.56 78.827 1538.59 65.1823 1544.12 59.4066C1548.21 55.1773 1557.56 46.2318 1563.43 45.9926C1571.65 45.6679 1587.05 55.9377 1591.88 62.6276C1592.18 63.0463 1592.47 63.5162 1592.77 64.0203C1597.65 72.607 1598.99 91.1645 1599.93 100.17C1600.58 106.33 1597.57 119.172 1599.93 124.862C1600.8 126.964 1603.37 129.655 1605.91 131.876C1607.45 133.175 1608.99 134.337 1610.12 135.072C1611.57 136.02 1614.83 137.413 1616.57 137.618C1630.07 139.096 1660.47 138.592 1670.21 129.151C1674.33 125.152 1672.69 112.072 1674.5 106.62C1677.19 98.5379 1685.37 83.4664 1689.51 76.0417C1692.47 70.77 1698.48 60.2353 1702.38 55.6472C1705.05 52.5372 1710.73 45.7619 1714.73 44.9331C1721.45 43.5148 1735.75 48.5728 1741.02 52.9815C1742.5 54.1948 1743.89 56.0573 1745.2 58.2788C1749.49 65.4984 1752.98 76.486 1756.07 81.9285C1758.47 86.1919 1763.59 94.4795 1766.25 98.5635C1770.63 105.253 1778.78 119.257 1784.48 124.853C1784.9 125.263 1785.37 125.708 1785.9 126.212C1790.49 130.535 1798.63 137.31 1803.81 137.61C1808.16 137.849 1815.41 131.543 1819.35 129.672C1824.26 127.391 1836.25 125.614 1839.22 121.085C1842.83 115.609 1837.38 101.101 1839.22 94.7957C1840.55 90.2332 1846.82 82.7145 1849.4 78.7245C1853.4 72.5045 1859.76 58.6547 1865.51 54.0324C1868.2 51.8708 1874.95 49.0598 1878.38 49.2051C1884.3 49.4443 1894.73 56.3991 1899.84 59.3895C1907.06 63.6187 1923.67 71.1118 1927.2 78.7245C1929.18 82.9879 1925.34 92.7878 1925.6 97.4955C1925.99 104.45 1931.02 117.89 1930.96 124.853C1930.94 128.109 1926.23 135.063 1928.27 137.61C1929.3 138.857 1931.47 139.472 1933.95 139.651C1934.25 139.677 1934.52 139.677 1934.81 139.677V63.089C1931.55 60.0388 1927.82 57.1937 1925.07 56.1598C1922.05 55.032 1915.24 57.1339 1912.19 56.1598C1906.57 54.4169 1897.92 45.7704 1892.86 42.7459C1889.24 40.5842 1881.99 35.7569 1877.84 35.1075C1871.66 34.1335 1858.57 35.8509 1853.15 38.9865C1849.45 41.1481 1844.33 48.5472 1842.44 52.4005C1839.18 58.9708 1840.46 75.4949 1835.45 80.8519C1832.37 84.1413 1821.36 83.0734 1818.27 86.3542C1812.23 92.7793 1817.95 117.471 1809.69 120.547C1806.9 121.581 1802.61 118.685 1799.03 115.335C1796.75 113.174 1794.74 110.867 1793.58 109.295C1790.09 104.442 1788.11 92.1556 1786.63 86.3542C1785.33 81.262 1784.71 70.5137 1782.34 65.8402C1781.69 64.5415 1780.62 62.9352 1779.32 61.3119C1776.21 57.3133 1771.83 52.879 1768.93 50.8028C1763.96 47.2229 1752.3 42.8398 1746.4 41.1481C1742.2 39.9348 1733.49 39.2514 1729.23 38.4568C1725.29 37.7476 1717.63 34.7572 1713.65 35.1075C1704.72 35.9107 1685.83 41.4984 1680.38 48.6668C1676.05 54.3486 1679.34 70.2745 1677.18 77.084C1674.45 85.5511 1664.48 100.529 1660.01 108.201C1657.55 112.439 1654.41 123.273 1649.8 124.836C1645.47 126.314 1637.15 119.12 1632.62 118.411C1630.08 118.001 1625.04 119.804 1621.7 119.684C1620.66 119.659 1619.8 119.419 1619.21 118.941C1612.31 113.225 1615.75 92.2667 1613.85 83.5347C1612.76 78.4169 1611.72 68.6426 1609.18 62.1321C1608.41 60.1157 1607.46 58.3984 1606.33 57.2449C1604.11 54.9381 1597.63 54.8185 1593.64 53.5112C1592.69 53.2122 1591.92 52.8619 1591.33 52.3834C1588.84 50.4012 1587.15 44.9844 1585.14 40.6611C1583.99 38.1407 1582.72 36.0132 1581.12 35.099C1570.88 29.2378 1544.2 29.3233 1533.93 35.099C1529.64 37.4999 1526.35 47.7099 1523.72 51.8537C1521.24 55.7925 1514.87 62.9523 1513.54 67.4293C1511.38 74.6234 1516.41 90.5237 1513.54 97.4785C1511.29 102.895 1501.64 110.619 1496.9 114.114C1492.25 117.514 1482.25 125.451 1476.51 124.828C1473.55 124.503 1469.73 120.863 1466.68 117.574C1466.6 117.454 1466.5 117.369 1466.42 117.249C1465.12 115.857 1463.96 114.524 1463.1 113.575C1457.95 107.894 1448.18 95.5731 1445.66 88.3535C1443.09 80.8946 1447.18 64.1058 1443.83 56.6811C1443.77 56.5016 1443.68 56.3222 1443.59 56.1513C1440.92 51.1189 1430.65 44.7793 1425.56 42.2076C1419.7 39.277 1406.85 34.3898 1400.34 35.099C1394.12 35.8081 1382.96 42.8227 1378.35 47.0263C1374.26 50.7259 1367.81 60.0815 1366 65.2592C1364.26 70.2659 1365.09 81.0997 1364.4 86.3371C1363.45 93.3517 1363.57 108.688 1359.01 114.105C1356.79 116.711 1349.57 118.488 1346.14 118.932C1340.13 119.676 1327.54 120.769 1320.41 118.129C1318.75 117.54 1317.39 116.737 1316.47 115.703C1310.73 109.312 1319.1 89.5326 1316.47 81.3645C1313.45 72.0687 1299.01 57.8259 1293.56 49.7177C1292.26 47.7953 1290.83 44.2666 1289.17 41.1054C1287.78 38.414 1286.22 35.9876 1284.44 35.099C1277.01 31.3055 1259.42 36.1072 1251.16 37.3802C1247.22 38.0039 1239.58 40.7295 1235.62 41.1396C1231.36 41.5839 1221.94 38.0894 1218.45 40.6099C1213.88 43.8651 1213.56 56.6811 1212 62.0723C1210.48 67.4037 1206.84 77.9982 1206.1 83.5347C1205.3 89.5155 1208.67 102.212 1206.1 107.663C1203.94 112.251 1195.41 119.18 1190.52 120.539C1186.76 121.607 1178.56 120.009 1174.98 118.411C1171.08 116.668 1165.1 112.55 1160.42 108.227C1157.57 105.655 1155.24 102.989 1154.05 100.708C1150.91 94.6419 1151.86 80.1599 1149.22 73.8544C1147.68 70.2403 1142.27 64.2937 1140.11 60.9786C1137.65 57.2449 1134.93 49.7861 1131.64 44.2239C1129.96 41.3788 1128.14 39.0463 1126.16 37.9185C1117.93 33.356 1097.65 35.9961 1088.59 38.4482C1083.09 39.9605 1071.6 44.7793 1068.73 49.7263C1065.98 54.4596 1070.18 66.4212 1068.73 71.7184C1066.65 79.3824 1056.86 92.3521 1052.66 99.0762C1048.54 105.647 1042.95 122.845 1035.49 124.828C1031.14 125.981 1023.26 119.086 1019.38 116.779C1015.71 114.592 1009.05 111.038 1004.25 107.398C1002.21 105.86 1000.51 104.322 999.515 102.836C995.73 97.2392 995.491 82.8854 993.09 76.5458C990.843 70.5992 984.478 59.5262 981.282 54.0153C980.539 52.7166 979.539 50.6661 978.412 48.7181C977.284 46.7017 976.045 44.7793 974.857 43.8309C972.875 42.2503 969.62 40.3877 966.04 38.79Z" fill="#193D56"/>
</g>
</svg>
