<svg width="1440" height="120" viewBox="0 0 1440 120" fill="none" xmlns="http://www.w3.org/2000/svg">
<mask id="mask0_1240_1801" style="mask-type:alpha" maskUnits="userSpaceOnUse" x="0" y="0" width="1440" height="120">
<rect width="1440" height="120" fill="#214868"/>
</mask>
<g mask="url(#mask0_1240_1801)">
<rect width="1440" height="120" fill="#214868"/>
<path d="M2.92847 14.3503C3.04403 15.0301 3.02364 15.6148 2.80611 16.1178C2.15351 17.5794 0.263697 18.6874 -2 19.5983V0H0.5832C0.0121774 1.96459 -0.368506 3.79321 -0.395698 5.21397C-0.436485 7.51846 2.45942 11.5428 2.92847 14.3503Z" fill="#133142"/>
<path d="M122.877 0C120.389 5.39073 117.82 10.4144 115.821 13.8541C115.373 14.6087 114.788 15.6488 114.074 16.75C112.851 18.6602 111.341 20.7064 110.07 21.5561C105.522 24.4996 94.3603 26.505 88.9424 26.3622C83.7556 26.1991 72.5731 24.4112 69.0858 20.5976C65.6256 16.8044 65.0682 6.89987 64.606 0.00680453H81.4443C82.0018 0.768168 82.5048 1.48194 82.8447 2.03937C84.3742 4.56138 85.9717 10.965 88.6093 12.2634C91.58 13.7521 98.7926 11.8895 101.736 10.3532C103.503 9.43546 106.073 6.28126 107.337 4.51381C107.365 4.51381 107.385 4.48661 107.385 4.46622C107.412 4.39824 107.46 4.35063 107.507 4.27586C108.255 3.20859 109.193 1.68588 110.125 0.00680453H122.877V0Z" fill="#133142"/>
<path d="M252.241 0C252.262 4.78571 253.207 11.1825 251.997 14.8398C251.874 15.1729 251.759 15.4992 251.596 15.7847C250.229 18.3475 245.07 21.9028 242.316 22.8273C238.36 24.1461 229.788 22.2903 225.662 22.8273C222.297 23.276 215.913 26.6206 212.521 26.3554C206.913 25.8864 195.465 21.5017 192.053 17.0559C189.347 13.5482 188.817 6.85227 188.491 0H200.632C201.019 4.1739 201.645 8.08947 203.242 10.3464C205.01 12.8412 210.801 15.9274 213.82 16.4237C217.844 17.0831 226.205 15.1049 229.815 13.2219C233.275 11.4273 239.135 6.4376 241.779 2.54921C242.106 2.03257 242.412 1.53632 242.622 1.06047C242.772 0.73417 242.901 0.380682 243.01 0H252.241Z" fill="#133142"/>
<path d="M382.502 0C380.341 3.2222 373.046 5.05085 368.533 7.4505C367.384 8.06231 366.391 8.72169 365.732 9.42867C363.89 11.434 362.884 16.281 361.442 19.9858C360.735 21.8008 359.906 23.3304 358.825 24.1053C354.849 26.974 344.223 26.3622 339.302 26.3622C335.345 26.3418 326.794 26.7905 323.612 24.4316C320.879 22.4058 319.941 14.8466 318.167 11.9507C316.135 8.63333 311.26 4.26908 307.365 0.00680453H322.559C324.258 4.09913 327.263 12.3246 330.981 13.8609C334.7 15.4176 343.204 12.1138 346.671 10.0269C348.153 9.10917 349.757 6.98825 351.361 4.81972V4.7925C352.694 2.95028 354.033 1.14205 355.284 0.00680453H382.502V0Z" fill="#133142"/>
<path d="M493.967 0C492.655 1.44795 491.493 2.79392 490.759 3.93596C488.57 7.32811 486.259 14.2552 483.478 19.1225C482.445 20.9647 481.357 22.5146 480.181 23.4595C478.176 25.091 472.833 26.2399 470.263 26.3554C464.798 26.5934 453.398 25.1386 448.802 22.1951C443.092 18.5243 436.369 8.19146 431.794 0H444.424C447.653 2.76674 451.848 5.47231 454.247 7.14459C457.055 9.07519 462.704 13.5958 466.096 13.8541C469.25 14.1124 475.797 11.7127 477.945 9.37427C478.645 8.59932 479.332 7.46409 479.923 6.12491C480.725 4.31667 481.405 2.16173 481.888 0H493.967Z" fill="#133142"/>
<path d="M625.33 0C625.378 4.39144 625.296 8.60614 624.263 11.3117C623.726 12.7529 622.591 14.7038 621.251 16.614C619.484 19.0817 617.343 21.4677 615.623 22.501C612.278 24.4996 604.107 24.4792 600.239 25.0638C594.305 25.9815 581.606 27.749 576.236 25.0638C573.36 23.6295 569.567 17.858 568.554 14.8194C567.405 11.3865 568.201 5.40432 568.649 0H577.48C577.487 0.0339894 577.493 0.0679955 577.5 0.101985C578.064 2.82794 580.233 8.57893 582.639 10.0201C585.488 11.7875 592.836 10.9582 596.086 10.0201C599.811 8.93922 606.806 4.76533 609.212 1.70628C609.573 1.22363 609.926 0.652597 610.266 0H625.33Z" fill="#133142"/>
<path d="M759.819 0C758.623 3.77963 756.543 8.55852 754.633 11.6652V11.6856C754.279 12.2498 753.926 12.7664 753.599 13.2219C751.546 15.9547 746.081 20.3121 743.042 21.862C739.14 23.8674 730.419 25.798 726.061 26.3622C721.874 26.9061 712.635 28.6735 709.107 26.3622C705.735 24.1529 704.865 14.9893 702.704 11.6244C700.651 8.47015 696.415 3.94278 692.568 0.00680453H705.504C709.23 4.46622 713.92 9.17033 717.421 10.9854C722.247 13.487 734.518 17.4366 738.882 14.1872C739.963 13.3918 740.602 11.8827 740.976 10.0745C741.574 7.0902 741.479 3.22221 741.417 0.00680453H759.819V0Z" fill="#133142"/>
<path d="M768.793 34.2275V52.1059C765.115 53.8462 760.526 57.5238 756.57 61.5278C756.55 61.5482 756.522 61.5754 756.522 61.5754C753.11 65.0627 750.139 68.7336 748.705 71.6091C747.053 74.8585 747.624 82.5129 746.985 86.1158C746.325 89.9294 745.857 97.373 744.089 101.941C743.715 102.954 743.267 103.804 742.723 104.463C739.99 107.903 731.159 110.942 726.918 112.145C721.146 113.797 708.781 116.292 703.009 114.619C695.824 112.498 682.942 102.607 679.55 95.9387C677.408 91.7444 679.788 81.7107 678.68 77.1425C677.313 71.3507 672.908 59.7808 668.884 55.3757C665.655 51.8408 657.015 45.9334 652.229 45.981C650.251 46.0014 647.233 47.6057 644.813 49.4208C643.446 50.4133 642.243 51.4941 641.563 52.3914C636.709 58.6319 636.077 75.613 632.59 82.7032C631.509 84.9397 629.361 88.4067 627.152 91.3977C625.622 93.4439 624.065 95.2861 622.774 96.367C618.274 100.16 606.758 102.893 600.959 106.611C600.32 107.033 599.756 107.434 599.287 107.883C598.886 108.256 598.437 108.828 597.968 109.46V109.48C596.554 111.458 594.957 114.191 593.325 114.613C586.167 116.4 570.172 110.235 565.576 104.463C561.335 99.1609 563.693 84.1851 562.164 77.564C560.818 71.8606 558.255 59.8487 554.462 55.3757C552.035 52.5002 544.802 49.346 541.247 48.1223C538.065 47.0415 531.281 45.3216 528.011 45.981C523.368 46.9463 515.904 52.0312 511.336 56.0147C510.534 56.6741 509.806 57.3607 509.215 57.9453C507.522 59.638 504.905 63.7847 504.103 66.0484C502.852 69.6037 503.111 77.3057 502.383 80.9834C501.561 85.2456 499.984 93.9605 497.693 97.6382C497.081 98.6511 496.231 99.8067 495.245 101.051C495.245 101.071 495.225 101.098 495.177 101.146C490.915 106.537 483.873 113.301 478.924 114.619C473.315 116.101 461.943 110.853 456.287 109.602C452.99 108.848 445.43 109.038 443.051 106.611C438.102 101.547 439.707 85.5787 437.518 78.8624C435.608 73.0434 432.644 59.5496 427.273 56.6537C424.799 55.3349 418.959 58.6115 416.159 58.3736C412.012 58.0405 404.521 51.9904 399.694 51.4465C398.634 51.3038 397.716 51.4465 396.962 51.9632C392.461 55.0698 397.832 68.6384 396.112 73.8456C394.229 79.4742 385.772 88.3319 382.666 93.3691C380.497 96.8768 378.403 104.273 375.575 109.46C374.209 111.887 372.7 113.838 370.912 114.619C363.21 118.059 346.344 108.61 338.051 107.033C333.809 106.231 323.945 107.597 320.975 104.463C315.672 98.8822 320.478 81.1193 317.984 73.8456C315.91 67.8362 308.725 56.98 304.32 52.3846C301.07 49.0197 293.627 41.9023 288.963 41.7119C283.926 41.5216 275.538 46.3073 270.167 50.9435C268.543 52.3303 267.224 53.7238 266.326 54.9474C261.853 61.1403 260.718 77.2309 259.923 84.8378C259.406 89.7118 261.806 99.9359 259.923 104.456C259.855 104.599 259.78 104.762 259.712 104.926C258.325 107.543 254.083 111.098 251.82 112.58C250.664 113.335 248.054 114.443 246.687 114.606C235.947 115.782 211.76 115.381 204.01 107.869C200.734 104.688 202.032 94.28 200.598 89.943C198.456 83.5122 191.951 71.5207 188.654 65.6133C186.302 61.419 181.516 53.0372 178.409 49.3868C176.288 46.9123 171.768 41.5216 168.586 40.8622C163.685 39.8289 153.747 43.1259 148.893 46.3753C148.424 46.6608 148.023 46.9667 147.669 47.2726C142.673 51.4193 138.907 64.6548 135.705 70.3107C133.795 73.7028 129.723 80.2968 127.602 83.5462C124.917 87.6453 120.491 95.157 116.508 100.432C115.305 102.036 114.156 103.423 113.095 104.463C109.798 107.692 102.307 114.354 97.7116 114.613C94.2515 114.803 88.4801 109.786 85.3462 108.297C81.4375 106.482 71.9 105.068 69.5412 101.465C66.6656 97.108 71.0027 85.5651 69.5412 80.5483C68.4807 76.9182 63.491 70.9361 61.4381 67.7615C58.2567 62.8126 53.1922 51.7932 48.624 48.1156C46.4827 46.3957 41.1124 44.1592 38.3796 44.2748C33.6687 44.4651 25.3753 49.9986 21.3033 52.3778C17.2042 54.7775 9.29145 58.5027 4.08427 62.6494C1.99052 64.3013 0.338627 66.0144 -0.463524 67.7615C-2.04063 71.1536 1.01842 78.9508 0.807683 82.6964C0.617343 85.9458 -0.817015 90.9423 -1.97266 95.626V51.6029C-0.817015 50.8007 0.291041 50.1685 1.22915 49.815C3.6288 48.9177 9.02633 50.59 11.4736 49.815C15.9466 48.4283 22.826 41.5488 26.8572 39.1424C29.7327 37.4225 35.5041 33.5817 38.8011 33.065C43.7228 32.2901 54.1371 33.6564 58.447 36.1513C61.3905 37.8711 65.4692 43.7581 66.9715 46.8443C69.5615 52.0515 68.5487 65.1918 72.5322 69.4541C74.9795 72.0713 83.7419 71.2216 86.196 73.832C91.0021 78.944 86.4543 98.5899 93.0279 101.037C96.6783 102.404 103.531 95.2453 105.842 92.0843C105.91 91.9892 105.985 91.8736 106.053 91.7784C108.69 87.7269 110.22 78.3322 111.375 73.832C112.409 69.7804 112.905 61.2287 114.788 57.5102C116.012 55.1106 118.955 51.5485 121.735 48.7954C123.081 47.4494 124.4 46.3209 125.454 45.546C129.41 42.6976 138.689 39.2103 143.38 37.8643C146.704 36.899 153.651 36.3552 157.044 35.723C160.177 35.1588 166.275 32.7795 169.436 33.0582C176.547 33.6972 191.577 38.1431 195.914 43.8465C199.354 48.3671 196.736 61.0384 198.456 66.4563C200.598 73.193 208.558 85.1097 212.12 91.2142C214.078 94.5791 216.573 103.206 220.244 104.45C223.683 105.626 230.304 99.9019 233.907 99.3377C236.545 98.9162 242.507 101.459 244.58 99.7591C245.783 98.7666 246.606 97.1895 247.15 95.2385C249.08 88.3591 247.666 77.0066 248.842 71.5887C249.998 66.2659 251.031 54.5803 254.824 50.6715C255.341 50.1277 256.143 49.7538 257.109 49.4479C260.195 48.4554 264.906 48.3195 266.768 46.8308C267.829 46.0082 268.679 44.4039 269.474 42.5889C271.126 38.9384 272.56 34.3702 274.865 33.0514C275.286 32.8135 275.735 32.5824 276.231 32.3716C285.184 28.4153 304.687 28.694 312.437 33.0514C315.849 34.9616 318.466 43.0851 320.56 46.3821C322.538 49.5159 327.603 55.2126 328.663 58.7747C330.383 64.4985 326.379 77.1493 328.663 82.6828C330.451 86.9927 338.133 93.138 341.899 95.9183C345.597 98.6239 353.557 104.939 358.125 104.443C361.585 104.069 366.439 98.0596 368.798 95.49C369.314 94.9258 369.879 94.2868 370.491 93.5595C370.558 93.4643 370.633 93.3963 370.701 93.3011C374.964 88.3047 380.946 80.3716 382.666 75.4227C384.759 69.3454 381.299 55.4709 384.317 49.7946C385.092 48.3127 386.717 46.6608 388.675 45.1041C391.951 42.4393 396.119 39.9921 398.661 38.7005C403.324 36.3688 413.548 32.4804 418.728 33.0446C423.677 33.6088 432.555 39.1899 436.226 42.5345C439.476 45.478 444.615 52.9216 446.049 57.0412C447.436 61.0247 446.776 69.6445 447.32 73.8116C448.075 79.3927 447.98 91.5948 451.61 95.9047C453.377 97.9781 459.121 99.392 461.854 99.7455C467.741 100.473 481.5 101.608 485.456 97.1759C486.184 96.3534 486.632 95.2657 486.87 93.9945C488.121 87.2782 483.689 75.3139 485.456 69.8484C487.856 62.4523 499.351 51.1202 503.688 44.669C505.599 41.8207 507.883 34.5878 510.942 33.0311C511.18 32.9155 511.438 32.7931 511.717 32.6979C517.984 30.3187 531.125 33.874 537.413 34.8393C540.547 35.3355 546.624 37.5041 549.778 37.8304C553.17 38.1839 560.662 35.4035 563.442 37.4089C567.072 39.9989 567.33 50.1957 568.574 54.4852C569.777 58.7271 572.673 67.1565 573.265 71.5615C573.904 76.32 571.219 86.4217 573.265 90.7587C574.957 94.4092 581.769 99.9222 585.63 101.003C588.642 101.853 595.168 100.582 598.023 99.3104C602.686 97.2167 611.075 90.8811 614.154 86.0954C614.344 85.8099 614.528 85.504 614.671 85.2252C617.166 80.3987 616.411 68.8763 618.512 63.8595C619.735 60.984 624.045 56.2526 625.765 53.615C628.708 49.142 632.168 37.8779 636.859 35.2675C636.927 35.2472 636.975 35.1996 637.049 35.1724C643.718 31.685 659.612 33.7584 666.749 35.689C671.127 36.8922 680.27 40.7263 682.555 44.6622C684.743 48.4283 681.399 57.9453 682.555 62.16C684.206 68.2577 691.997 78.5769 695.341 83.9269C698.618 89.1544 703.064 102.839 709.005 104.416C712.465 105.333 718.733 99.8475 721.819 98.0121C725.966 95.5377 734.891 90.9015 737.597 86.9179C737.903 86.4964 738.161 85.973 738.399 85.436C740.683 80.3036 741.016 70.5486 742.736 66.0008C744.524 61.2695 749.589 52.4594 752.138 48.0747C753.341 46.0014 755.387 41.4808 757.25 39.9717C757.746 39.5706 758.31 39.1695 758.97 38.7481C761.539 37.1234 765.278 35.3559 768.793 34.2275Z" fill="#133142"/>
<path d="M4.15889 0.101985C4.1113 2.9503 8.51634 8.41579 7.3607 11.0058C6.74889 12.3654 5.02222 13.453 2.92847 14.3503C1.37175 15.0029 -0.368506 15.5468 -2 16.0702V0H4.15889C4.15889 0.0339895 4.15889 0.0679955 4.15889 0.101985Z" fill="#193D56"/>
<path d="M124.992 0C123.326 3.38535 121.722 6.424 120.369 8.74208C119.173 10.8426 116.624 15.1253 114.618 16.4441C114.455 16.5665 114.272 16.6548 114.081 16.75C109.248 19.5303 98.6976 21.393 93.4972 21.2502C88.3172 21.0871 77.1279 19.2992 73.6406 15.4856C70.969 12.5625 70.0309 6.01613 69.5278 0H88.827C89.9827 2.82792 91.3219 6.23367 93.1777 7.14459C96.1688 8.63333 103.354 6.77071 106.298 5.23438C106.624 5.07123 106.977 4.81291 107.351 4.507C107.378 4.507 107.399 4.47981 107.399 4.45941C108.813 3.30377 110.39 1.40037 111.45 0H124.992Z" fill="#193D56"/>
<path d="M257 0C257.224 4.09233 257.38 8.30023 256.136 10.6727C255.457 11.9711 253.805 13.5006 251.996 14.8466C250.202 16.1382 248.251 17.253 246.857 17.7221C242.901 19.0409 234.329 17.1783 230.202 17.7221C226.837 18.1708 220.454 21.5085 217.062 21.2502C211.474 20.7812 200.006 16.3965 196.594 11.9507C194.568 9.32672 193.759 4.92168 193.351 0.00680453H205.859C206.274 2.12095 206.865 3.94959 207.783 5.24119C209.55 7.73601 215.342 10.8223 218.361 11.3185C222.385 11.9779 230.746 9.9997 234.356 8.11668C236.382 7.0834 239.23 4.93527 241.779 2.55601C242.663 1.72667 243.513 0.856541 244.267 0.00680453H257V0Z" fill="#193D56"/>
<path d="M378.376 0C375.092 1.33918 371.829 2.65116 370.28 4.31664C369.6 5.04402 369.035 6.1589 368.532 7.4505C366.955 11.4545 365.874 17.1987 363.373 18.9933C362.836 19.3672 362.204 19.6935 361.442 19.979C356.636 21.6989 348.112 21.2434 343.849 21.2434C339.893 21.223 331.348 21.6717 328.16 19.3128C325.427 17.287 324.509 9.72777 322.715 6.83187C321.505 4.84009 319.268 2.48123 316.841 0H329.241C330.906 3.75243 333.054 7.72919 335.529 8.74208C339.247 10.2988 347.751 6.99501 351.218 4.90806C351.266 4.88086 351.313 4.8605 351.361 4.81292V4.7857C352.755 3.90197 354.23 1.98498 355.691 0H378.376Z" fill="#193D56"/>
<path d="M494.613 0C491.792 5.17319 488.712 15.1321 484.722 18.3543C484.396 18.6398 483.974 18.8981 483.478 19.1293C481.004 20.3325 476.959 21.1618 474.811 21.2502C469.345 21.4881 457.945 20.0334 453.35 17.0899C448.782 14.1532 443.561 6.95425 439.319 0.00680453H455.831C456.953 0.774966 457.979 1.46834 458.795 2.03937C461.596 3.96997 467.245 8.49056 470.637 8.74888C472.948 8.93922 477.04 7.71562 479.916 6.13171C480.997 5.54709 481.894 4.91489 482.485 4.26909C483.369 3.2902 484.192 1.76745 484.885 0H494.613Z" fill="#193D56"/>
<path d="M629.823 0C629.708 2.42005 629.436 4.58857 628.817 6.19967C627.689 9.11597 624.174 14.2076 621.251 16.614C620.877 16.9132 620.524 17.1715 620.17 17.389C616.826 19.3876 608.655 19.3672 604.793 19.9518C598.859 20.8695 586.16 22.637 580.79 19.9518C577.915 18.5174 574.128 12.7461 573.108 9.70741C572.313 7.33494 572.449 3.75923 572.755 0H583.74C584.678 2.12094 585.909 4.1331 587.194 4.90806C590.069 6.67551 597.397 5.84617 600.647 4.90806C603.074 4.20108 606.887 2.16853 609.912 0H629.823Z" fill="#193D56"/>
<path d="M762.463 0C761.124 3.18141 759.52 6.28804 758.14 8.10988C757.344 9.14316 756.087 10.4143 754.632 11.6652V11.6856C752.273 13.7589 749.472 15.7847 747.589 16.75C743.681 18.7554 734.959 20.6792 730.601 21.2502C726.414 21.794 717.176 23.5615 713.647 21.2502C710.283 19.0409 709.406 9.87735 707.244 6.51239C706.054 4.67016 704.124 2.38607 701.955 0.00680453H714.688C717.237 2.56961 719.827 4.76533 721.968 5.87339C726.06 7.99433 735.557 11.1757 740.975 10.0745C741.94 9.88414 742.77 9.57822 743.429 9.08197C745.38 7.62042 745.897 3.88841 745.992 0.0136091H762.463V0Z" fill="#193D56"/>
<path d="M768.792 30.8624V49.7741C764.483 52.8807 759.819 57.4081 756.57 61.5276C756.549 61.548 756.522 61.5752 756.522 61.5752C755.108 63.3427 753.98 65.0354 753.246 66.4969C751.594 69.7463 752.165 77.4007 751.526 81.0036C750.724 85.6465 750.207 95.6803 747.263 99.3511C746.556 100.248 745.428 101.119 744.082 101.941C740.241 104.252 734.592 106.135 731.458 107.026C725.687 108.678 713.322 111.173 707.577 109.5C700.372 107.379 687.51 97.4885 684.091 90.8197C681.949 86.6254 684.329 76.5918 683.221 72.0236C681.854 66.2318 677.449 54.6618 673.425 50.2567C670.196 46.7218 661.556 40.8145 656.77 40.862C653.663 40.9096 648.008 44.8184 646.097 47.2657C645.628 47.8775 645.18 48.6116 644.799 49.407C641.101 56.7555 640.251 71.1942 637.117 77.5775C635.282 81.3435 630.523 88.5288 627.294 91.2412C627.247 91.2888 627.199 91.3364 627.131 91.384C622.019 95.5307 608.621 98.4062 603.814 102.764C602.965 103.539 601.999 105.143 600.939 106.604C599.994 107.944 598.961 109.147 597.948 109.453V109.473C597.927 109.473 597.88 109.494 597.853 109.494C590.694 111.281 574.699 105.116 570.104 99.3443C565.862 94.042 568.221 79.0662 566.691 72.4451C565.352 66.7416 562.782 54.7297 558.989 50.2567C556.562 47.3812 549.329 44.227 545.774 43.0034C542.593 41.9225 535.808 40.1755 532.539 40.862C527.073 41.9905 517.678 48.87 513.742 52.8264C513.015 53.5537 512.138 54.7094 511.316 56.0078C510.16 57.7276 509.079 59.6378 508.63 60.9294C507.38 64.4847 507.638 72.1867 506.91 75.8644C506.088 80.1267 504.511 88.8415 502.22 92.5192C500.786 94.8509 498.216 98.0323 495.225 101.044C495.225 101.064 495.205 101.091 495.157 101.139C491.343 105.027 486.891 108.583 483.451 109.5C477.843 110.982 466.47 105.734 460.814 104.483C457.517 103.729 449.958 103.919 447.579 101.492C442.63 96.428 444.234 80.4598 442.045 73.7434C440.135 67.9244 437.171 54.4306 431.801 51.5347C429.326 50.216 423.487 53.4926 420.686 53.2546C415.649 52.8332 405.656 43.9755 401.489 46.851C400.238 47.7211 399.769 49.373 399.674 51.4464C399.415 56.8371 401.89 64.9674 400.639 68.7334C398.756 74.362 390.299 83.2197 387.193 88.257C384.011 93.369 381.048 106.842 375.555 109.453C375.507 109.453 375.487 109.473 375.439 109.5C367.737 112.94 350.872 103.491 342.578 101.914C338.336 101.112 328.473 102.478 325.502 99.3443C320.2 93.7632 325.033 76.0003 322.511 68.7266C320.438 62.7173 313.252 51.8611 308.847 47.2657C305.598 43.9007 298.154 36.7833 293.491 36.593C286.944 36.3347 274.695 44.5057 270.854 49.8285C270.616 50.1616 270.385 50.5354 270.147 50.9365C266.258 57.7684 265.198 72.5334 264.443 79.6984C263.927 84.5997 266.326 94.8169 264.443 99.3443C263.764 101.017 261.711 103.158 259.685 104.925C258.461 105.959 257.238 106.883 256.34 107.468C255.185 108.222 252.595 109.33 251.208 109.494C240.467 110.67 216.28 110.269 208.531 102.757C205.254 99.5755 206.552 89.1678 205.118 84.8308C202.977 78.4 196.471 66.4085 193.174 60.5012C190.822 56.3069 186.036 47.9251 182.93 44.2746C180.809 41.8002 176.288 36.4095 173.107 35.7501C167.757 34.6216 156.384 38.646 152.19 42.1537C151.014 43.119 149.906 44.6009 148.866 46.3684C145.453 52.1126 142.673 60.8547 140.219 65.1849C138.308 68.5771 134.237 75.171 132.116 78.4204C128.628 83.7431 122.15 94.8849 117.609 99.3375C117.276 99.6638 116.902 100.017 116.48 100.418C112.83 103.858 106.352 109.249 102.232 109.487C98.7719 109.677 93.0006 104.66 89.8667 103.172C85.9579 101.356 76.4205 99.9425 74.0616 96.3396C71.1861 91.9822 75.5232 80.4394 74.0616 75.4225C73.0012 71.7925 68.0115 65.8103 65.9585 62.6357C62.7771 57.6868 57.7127 46.6674 53.1445 42.9898C51.0032 41.2699 45.6329 39.0334 42.9001 39.149C38.1892 39.3393 29.8957 44.8728 25.8238 47.2521C20.0796 50.617 6.86449 56.5788 4.05696 62.6357C2.47985 66.0279 5.5389 73.825 5.32816 77.5707C5.02226 83.1041 1.0183 93.7972 1.06589 99.3375C1.08628 101.928 4.83192 107.461 3.20722 109.487C2.38468 110.479 0.664811 110.969 -1.31338 111.111C-1.5513 111.132 -1.76204 111.132 -1.99316 111.132V50.1956C0.596832 47.7687 3.56751 45.505 5.75643 44.6825C8.15609 43.7851 13.574 45.4574 16.0008 44.6825C20.4739 43.2957 27.3533 36.4163 31.3845 34.0098C34.26 32.2899 40.0314 28.4491 43.3284 27.9325C48.25 27.1575 58.6644 28.5239 62.9743 31.0187C65.9178 32.7386 69.9965 38.6256 71.4988 41.6914C74.0888 46.919 73.0759 60.0661 77.0595 64.3284C79.5067 66.9456 88.2692 66.0958 90.7232 68.7062C95.5294 73.8182 90.9816 93.4641 97.5551 95.9113C99.7713 96.7339 103.184 94.4294 106.032 91.7646C107.847 90.0448 109.445 88.2093 110.369 86.9585C113.149 83.0973 114.727 73.322 115.903 68.7062C116.936 64.6547 117.432 56.1029 119.315 52.3845C119.832 51.3512 120.682 50.0732 121.715 48.7816C124.189 45.6002 127.677 42.0721 129.981 40.4202C133.937 37.5719 143.217 34.0845 147.907 32.7386C151.252 31.7733 158.179 31.2295 161.571 30.5972C164.705 30.033 170.802 27.6538 173.963 27.9325C181.074 28.5715 196.104 33.0173 200.441 38.7207C203.881 43.2413 201.264 55.9126 202.984 61.3305C205.152 68.0672 213.085 79.9839 216.647 86.0884C218.605 89.4602 221.1 98.0799 224.771 99.3239C228.211 100.5 234.832 94.7761 238.435 94.2119C240.46 93.8856 244.464 95.3199 247.129 95.2248C247.952 95.2044 248.638 95.014 249.107 94.6333C254.593 90.0855 251.86 73.4104 253.37 66.4629C254.24 62.391 255.062 54.6142 257.088 49.4342C257.7 47.8299 258.454 46.4635 259.352 45.5458C261.119 43.7104 266.279 43.6152 269.453 42.5751C270.208 42.3372 270.82 42.0585 271.289 41.6778C273.267 40.1007 274.613 35.7908 276.21 32.3511C277.128 30.3457 278.141 28.6531 279.412 27.9257C287.563 23.2623 308.786 23.3303 316.957 27.9257C320.37 29.8359 322.987 37.9594 325.081 41.2563C327.059 44.3902 332.123 50.0868 333.184 53.6489C334.903 59.3727 330.899 72.0236 333.184 77.5571C334.971 81.8669 342.653 88.0122 346.419 90.7926C350.117 93.4981 358.077 99.8133 362.646 99.3171C364.998 99.0588 368.036 96.1629 370.463 93.5457C370.531 93.4505 370.606 93.3825 370.674 93.2874C371.707 92.1793 372.632 91.1189 373.312 90.3643C377.411 85.8437 385.181 76.0411 387.186 70.2969C389.232 64.3623 385.983 51.0045 388.648 45.0972C388.695 44.9544 388.763 44.8116 388.838 44.6757C390.959 40.6717 399.13 35.6277 403.181 33.5815C407.845 31.2499 418.069 27.3615 423.249 27.9257C428.198 28.4899 437.076 34.0709 440.747 37.4155C443.996 40.359 449.135 47.8027 450.57 51.9222C451.956 55.9058 451.297 64.5255 451.841 68.6926C452.595 74.2737 452.5 86.4759 456.13 90.7858C457.898 92.8591 463.642 94.273 466.375 94.6265C471.154 95.218 481.167 96.0881 486.843 93.9876C488.162 93.5185 489.243 92.8795 489.977 92.057C494.545 86.9721 487.883 71.235 489.977 64.7362C492.377 57.3401 503.872 46.0081 508.209 39.5569C509.242 38.0273 510.377 35.2198 511.696 32.7046C512.804 30.5632 514.048 28.6327 515.462 27.9257C521.376 24.9074 535.366 28.7278 541.94 29.7407C545.074 30.237 551.151 32.4055 554.305 32.7318C557.698 33.0853 565.189 30.305 567.969 32.3103C571.599 34.9003 571.858 45.0972 573.102 49.3866C574.305 53.6285 577.201 62.0579 577.792 66.4629C578.431 71.2214 575.746 81.3231 577.792 85.6602C579.512 89.3106 586.296 94.8237 590.185 95.9045C593.176 96.7543 599.702 95.4831 602.55 94.2119C605.657 92.8251 610.415 89.5485 614.14 86.1088C616.404 84.0626 618.26 81.9417 619.205 80.1267C621.7 75.3002 620.945 63.7777 623.046 58.7609C624.269 55.8854 628.579 51.1541 630.299 48.5165C632.257 45.5458 634.418 39.6113 637.036 35.1858C638.382 32.9221 639.816 31.0663 641.393 30.169C647.94 26.5389 664.078 28.6394 671.283 30.5904C675.661 31.7937 684.804 35.6277 687.089 39.5637C689.277 43.3297 685.933 52.8467 687.089 57.0614C688.74 63.1591 696.531 73.4783 699.875 78.8283C703.152 84.0559 707.598 97.74 713.539 99.3171C716.999 100.235 723.267 94.749 726.353 92.9135C729.276 91.1733 734.572 88.3453 738.392 85.4494C740.017 84.2258 741.363 83.0022 742.158 81.8193C745.176 77.3667 745.36 65.9463 747.27 60.9023C749.058 56.1709 754.123 47.3608 756.665 42.9762C757.256 41.9429 758.052 40.3114 758.949 38.7615C759.846 37.1572 760.832 35.6277 761.777 34.8731C763.347 33.6155 765.937 32.1336 768.792 30.8624Z" fill="#193D56"/>
<path d="M1414.12 0C1416.6 5.39073 1419.17 10.4144 1421.17 13.8541C1421.62 14.6087 1422.21 15.6488 1422.92 16.75C1424.14 18.6602 1425.65 20.7064 1426.92 21.5561C1431.47 24.4996 1442.63 26.505 1448.05 26.3622C1453.24 26.1991 1464.42 24.4112 1467.91 20.5976C1471.37 16.8044 1471.93 6.89987 1472.39 0.00680453H1455.55C1454.99 0.768168 1454.49 1.48194 1454.16 2.03937C1452.63 4.56138 1451.03 10.965 1448.39 12.2634C1445.42 13.7521 1438.21 11.8895 1435.26 10.3532C1433.5 9.43546 1430.93 6.28126 1429.66 4.51381C1429.64 4.51381 1429.62 4.48661 1429.62 4.46622C1429.59 4.39824 1429.54 4.35063 1429.49 4.27586C1428.75 3.20859 1427.81 1.68588 1426.88 0.00680453H1414.12V0Z" fill="#133142"/>
<path d="M1284.76 0C1284.74 4.78571 1283.79 11.1825 1285 14.8398C1285.13 15.1729 1285.24 15.4992 1285.4 15.7847C1286.77 18.3475 1291.93 21.9028 1294.68 22.8273C1298.64 24.1461 1307.21 22.2903 1311.34 22.8273C1314.7 23.276 1321.09 26.6206 1324.48 26.3554C1330.09 25.8864 1341.53 21.5017 1344.95 17.0559C1347.65 13.5482 1348.18 6.85227 1348.51 0H1336.37C1335.98 4.1739 1335.36 8.08947 1333.76 10.3464C1331.99 12.8412 1326.2 15.9274 1323.18 16.4237C1319.16 17.0831 1310.79 15.1049 1307.19 13.2219C1303.73 11.4273 1297.87 6.4376 1295.22 2.54921C1294.89 2.03257 1294.59 1.53632 1294.38 1.06047C1294.23 0.73417 1294.1 0.380682 1293.99 0H1284.76Z" fill="#133142"/>
<path d="M1154.49 0C1156.65 3.2222 1163.95 5.05085 1168.46 7.4505C1169.61 8.06231 1170.6 8.72169 1171.26 9.42867C1173.1 11.434 1174.11 16.281 1175.55 19.9858C1176.26 21.8008 1177.09 23.3304 1178.17 24.1053C1182.14 26.974 1192.77 26.3622 1197.69 26.3622C1201.65 26.3418 1210.2 26.7905 1213.38 24.4316C1216.11 22.4058 1217.05 14.8466 1218.83 11.9507C1220.86 8.63333 1225.73 4.26908 1229.63 0.00680453H1214.43C1212.73 4.09913 1209.73 12.3246 1206.01 13.8609C1202.29 15.4176 1193.79 12.1138 1190.32 10.0269C1188.84 9.10917 1187.24 6.98825 1185.63 4.81972V4.7925C1184.3 2.95028 1182.96 1.14205 1181.71 0.00680453H1154.49V0Z" fill="#133142"/>
<path d="M1043.03 0C1044.34 1.44795 1045.5 2.79392 1046.23 3.93596C1048.42 7.32811 1050.74 14.2552 1053.52 19.1225C1054.55 20.9647 1055.64 22.5146 1056.81 23.4595C1058.82 25.091 1064.16 26.2399 1066.73 26.3554C1072.2 26.5934 1083.6 25.1386 1088.19 22.1951C1093.9 18.5243 1100.62 8.19146 1105.2 0H1092.57C1089.34 2.76674 1085.15 5.47231 1082.75 7.14459C1079.94 9.07519 1074.29 13.5958 1070.9 13.8541C1067.74 14.1124 1061.2 11.7127 1059.05 9.37427C1058.35 8.59932 1057.66 7.46409 1057.07 6.12491C1056.27 4.31667 1055.59 2.16173 1055.11 0H1043.03Z" fill="#133142"/>
<path d="M911.664 0C911.616 4.39144 911.698 8.60614 912.731 11.3117C913.268 12.7529 914.403 14.7038 915.742 16.614C917.51 19.0817 919.651 21.4677 921.371 22.501C924.715 24.4996 932.887 24.4792 936.755 25.0638C942.689 25.9815 955.388 27.749 960.758 25.0638C963.633 23.6295 967.427 17.858 968.44 14.8194C969.588 11.3865 968.793 5.40432 968.344 0H959.514C959.507 0.0339894 959.5 0.0679955 959.494 0.101985C958.929 2.82794 956.761 8.57893 954.354 10.0201C951.506 11.7875 944.157 10.9582 940.908 10.0201C937.183 8.93922 930.188 4.76533 927.781 1.70628C927.421 1.22363 927.068 0.652597 926.728 0H911.664Z" fill="#133142"/>
<path d="M777.174 0C778.371 3.77963 780.451 8.55852 782.361 11.6652V11.6856C782.715 12.2498 783.068 12.7664 783.394 13.2219C785.447 15.9547 790.913 20.3121 793.952 21.862C797.854 23.8674 806.575 25.798 810.933 26.3622C815.127 26.9061 824.358 28.6735 827.887 26.3622C831.258 24.1529 832.128 14.9893 834.29 11.6244C836.343 8.47015 840.578 3.94278 844.426 0.00680453H831.489C827.764 4.46622 823.074 9.17033 819.573 10.9854C814.746 13.487 802.476 17.4366 798.112 14.1872C797.031 13.3918 796.392 11.8827 796.018 10.0745C795.42 7.0902 795.515 3.22221 795.576 0.00680453H777.174V0Z" fill="#133142"/>
<path d="M768.208 34.2275V52.1059C771.886 53.8462 776.474 57.5238 780.431 61.5278C780.451 61.5482 780.478 61.5754 780.478 61.5754C783.891 65.0627 786.861 68.7336 788.296 71.6091C789.948 74.8585 789.377 82.5129 790.016 86.1158C790.675 89.9294 791.144 97.373 792.912 101.941C793.285 102.954 793.734 103.804 794.278 104.463C797.011 107.903 805.841 110.942 810.083 112.145C815.854 113.797 828.22 116.292 833.991 114.619C841.177 112.498 854.058 102.607 857.451 95.9387C859.592 91.7444 857.213 81.7107 858.321 77.1425C859.687 71.3507 864.092 59.7808 868.117 55.3757C871.346 51.8408 879.986 45.9334 884.771 45.981C886.75 46.0014 889.768 47.6057 892.188 49.4208C893.554 50.4133 894.757 51.4941 895.437 52.3914C900.291 58.6319 900.923 75.613 904.411 82.7032C905.491 84.9397 907.64 88.4067 909.849 91.3977C911.378 93.4439 912.935 95.2861 914.227 96.367C918.727 100.16 930.243 102.893 936.041 106.611C936.68 107.033 937.244 107.434 937.713 107.883C938.114 108.256 938.563 108.828 939.032 109.46V109.48C940.446 111.458 942.044 114.191 943.675 114.613C950.833 116.4 966.829 110.235 971.424 104.463C975.666 99.1609 973.307 84.1851 974.837 77.564C976.176 71.8606 978.745 59.8487 982.539 55.3757C984.965 52.5002 992.198 49.346 995.754 48.1223C998.935 47.0415 1005.72 45.3216 1008.99 45.981C1013.63 46.9463 1021.1 52.0312 1025.66 56.0147C1026.47 56.6741 1027.19 57.3607 1027.79 57.9453C1029.48 59.638 1032.1 63.7847 1032.9 66.0484C1034.15 69.6037 1033.89 77.3057 1034.62 80.9834C1035.44 85.2456 1037.02 93.9605 1039.31 97.6382C1039.92 98.6511 1040.77 99.8067 1041.76 101.051C1041.76 101.071 1041.78 101.098 1041.82 101.146C1046.09 106.537 1053.13 113.301 1058.08 114.619C1063.69 116.101 1075.06 110.853 1080.71 109.602C1084.01 108.848 1091.57 109.038 1093.95 106.611C1098.9 101.547 1097.29 85.5787 1099.48 78.8624C1101.39 73.0434 1104.36 59.5496 1109.73 56.6537C1112.2 55.3349 1118.04 58.6115 1120.84 58.3736C1124.99 58.0405 1132.48 51.9904 1137.31 51.4465C1138.37 51.3038 1139.28 51.4465 1140.04 51.9632C1144.54 55.0698 1139.17 68.6384 1140.89 73.8456C1142.77 79.4742 1151.23 88.3319 1154.33 93.3691C1156.5 96.8768 1158.6 104.273 1161.43 109.46C1162.79 111.887 1164.3 113.838 1166.09 114.619C1173.79 118.059 1190.66 108.61 1198.95 107.033C1203.19 106.231 1213.06 107.597 1216.03 104.463C1221.33 98.8822 1216.52 81.1193 1219.02 73.8456C1221.09 67.8362 1228.28 56.98 1232.68 52.3846C1235.93 49.0197 1243.37 41.9023 1248.04 41.7119C1253.08 41.5216 1261.46 46.3073 1266.83 50.9435C1268.46 52.3303 1269.78 53.7238 1270.67 54.9474C1275.15 61.1403 1276.28 77.2309 1277.08 84.8378C1277.59 89.7118 1275.19 99.9359 1277.08 104.456C1277.15 104.599 1277.22 104.762 1277.29 104.926C1278.68 107.543 1282.92 111.098 1285.18 112.58C1286.34 113.335 1288.95 114.443 1290.31 114.606C1301.05 115.782 1325.24 115.381 1332.99 107.869C1336.27 104.688 1334.97 94.28 1336.4 89.943C1338.54 83.5122 1345.05 71.5207 1348.35 65.6133C1350.7 61.419 1355.48 53.0372 1358.59 49.3868C1360.71 46.9123 1365.23 41.5216 1368.41 40.8622C1373.32 39.8289 1383.25 43.1259 1388.11 46.3753C1388.58 46.6608 1388.98 46.9667 1389.33 47.2726C1394.33 51.4193 1398.09 64.6548 1401.3 70.3107C1403.21 73.7028 1407.28 80.2968 1409.4 83.5462C1412.08 87.6453 1416.51 95.157 1420.49 100.432C1421.7 102.036 1422.84 103.423 1423.91 104.463C1427.2 107.692 1434.69 114.354 1439.29 114.613C1442.75 114.803 1448.52 109.786 1451.65 108.297C1455.56 106.482 1465.1 105.068 1467.46 101.465C1470.33 97.108 1466 85.5651 1467.46 80.5483C1468.52 76.9182 1473.51 70.9361 1475.56 67.7615C1478.74 62.8126 1483.81 51.7932 1488.38 48.1156C1490.52 46.3957 1495.89 44.1592 1498.62 44.2748C1503.33 44.4651 1511.63 49.9986 1515.7 52.3778C1519.8 54.7775 1527.71 58.5027 1532.92 62.6494C1535.01 64.3013 1536.66 66.0144 1537.46 67.7615C1539.04 71.1536 1535.98 78.9508 1536.19 82.6964C1536.38 85.9458 1537.82 90.9423 1538.97 95.626V51.6029C1537.82 50.8007 1536.71 50.1685 1535.77 49.815C1533.37 48.9177 1527.97 50.59 1525.53 49.815C1521.05 48.4283 1514.17 41.5488 1510.14 39.1424C1507.27 37.4225 1501.5 33.5817 1498.2 33.065C1493.28 32.2901 1482.86 33.6564 1478.55 36.1513C1475.61 37.8711 1471.53 43.7581 1470.03 46.8443C1467.44 52.0515 1468.45 65.1918 1464.47 69.4541C1462.02 72.0713 1453.26 71.2216 1450.8 73.832C1446 78.944 1450.55 98.5899 1443.97 101.037C1440.32 102.404 1433.47 95.2453 1431.16 92.0843C1431.09 91.9892 1431.02 91.8736 1430.95 91.7784C1428.31 87.7269 1426.78 78.3322 1425.63 73.832C1424.59 69.7804 1424.1 61.2287 1422.21 57.5102C1420.99 55.1106 1418.05 51.5485 1415.27 48.7954C1413.92 47.4494 1412.6 46.3209 1411.55 45.546C1407.59 42.6976 1398.31 39.2103 1393.62 37.8643C1390.3 36.899 1383.35 36.3552 1379.96 35.723C1376.82 35.1588 1370.73 32.7795 1367.56 33.0582C1360.45 33.6972 1345.42 38.1431 1341.09 43.8465C1337.65 48.3671 1340.26 61.0384 1338.54 66.4563C1336.4 73.193 1328.44 85.1097 1324.88 91.2142C1322.92 94.5791 1320.43 103.206 1316.76 104.45C1313.32 105.626 1306.7 99.9019 1303.09 99.3377C1300.46 98.9162 1294.49 101.459 1292.42 99.7591C1291.22 98.7666 1290.39 97.1895 1289.85 95.2385C1287.92 88.3591 1289.33 77.0066 1288.16 71.5887C1287 66.2659 1285.97 54.5803 1282.18 50.6715C1281.66 50.1277 1280.86 49.7538 1279.89 49.4479C1276.81 48.4554 1272.09 48.3195 1270.23 46.8308C1269.17 46.0082 1268.32 44.4039 1267.53 42.5889C1265.87 38.9384 1264.44 34.3702 1262.14 33.0514C1261.71 32.8135 1261.27 32.5824 1260.77 32.3716C1251.82 28.4153 1232.31 28.694 1224.56 33.0514C1221.15 34.9616 1218.53 43.0851 1216.44 46.3821C1214.46 49.5159 1209.4 55.2126 1208.34 58.7747C1206.62 64.4985 1210.62 77.1493 1208.34 82.6828C1206.55 86.9927 1198.87 93.138 1195.1 95.9183C1191.4 98.6239 1183.44 104.939 1178.88 104.443C1175.42 104.069 1170.56 98.0596 1168.2 95.49C1167.69 94.9258 1167.12 94.2868 1166.51 93.5595C1166.44 93.4643 1166.37 93.3963 1166.3 93.3011C1162.04 88.3047 1156.05 80.3716 1154.33 75.4227C1152.24 69.3454 1155.7 55.4709 1152.68 49.7946C1151.91 48.3127 1150.28 46.6608 1148.33 45.1041C1145.05 42.4393 1140.88 39.9921 1138.34 38.7005C1133.68 36.3688 1123.45 32.4804 1118.27 33.0446C1113.32 33.6088 1104.45 39.1899 1100.77 42.5345C1097.52 45.478 1092.39 52.9216 1090.95 57.0412C1089.56 61.0247 1090.22 69.6445 1089.68 73.8116C1088.93 79.3927 1089.02 91.5948 1085.39 95.9047C1083.62 97.9781 1077.88 99.392 1075.15 99.7455C1069.26 100.473 1055.5 101.608 1051.54 97.1759C1050.82 96.3534 1050.37 95.2657 1050.13 93.9945C1048.88 87.2782 1053.31 75.3139 1051.54 69.8484C1049.14 62.4523 1037.65 51.1202 1033.31 44.669C1031.4 41.8207 1029.12 34.5878 1026.06 33.0311C1025.82 32.9155 1025.56 32.7931 1025.28 32.6979C1019.02 30.3187 1005.88 33.874 999.588 34.8393C996.454 35.3355 990.377 37.5041 987.222 37.8304C983.83 38.1839 976.339 35.4035 973.559 37.4089C969.929 39.9989 969.67 50.1957 968.426 54.4852C967.223 58.7271 964.327 67.1565 963.736 71.5615C963.097 76.32 965.782 86.4217 963.736 90.7587C962.043 94.4092 955.232 99.9222 951.37 101.003C948.359 101.853 941.833 100.582 938.978 99.3104C934.314 97.2167 925.926 90.8811 922.846 86.0954C922.656 85.8099 922.473 85.504 922.33 85.2252C919.835 80.3987 920.589 68.8763 918.489 63.8595C917.265 60.984 912.955 56.2526 911.236 53.615C908.292 49.142 904.832 37.8779 900.141 35.2675C900.073 35.2472 900.026 35.1996 899.951 35.1724C893.282 31.685 877.389 33.7584 870.251 35.689C865.873 36.8922 856.73 40.7263 854.446 44.6622C852.257 48.4283 855.602 57.9453 854.446 62.16C852.794 68.2577 845.004 78.5769 841.659 83.9269C838.383 89.1544 833.937 102.839 827.995 104.416C824.535 105.333 818.268 99.8475 815.181 98.0121C811.035 95.5377 802.109 90.9015 799.404 86.9179C799.098 86.4964 798.839 85.973 798.601 85.436C796.317 80.3036 795.984 70.5486 794.264 66.0008C792.476 61.2695 787.412 52.4594 784.87 48.0747C783.666 46.0014 781.62 41.4808 779.758 39.9717C779.261 39.5706 778.697 39.1695 778.038 38.7481C775.461 37.1234 771.716 35.3559 768.208 34.2275Z" fill="#133142"/>
<path d="M1412 0C1413.67 3.38535 1415.27 6.424 1416.62 8.74208C1417.82 10.8426 1420.37 15.1253 1422.38 16.4441C1422.54 16.5665 1422.72 16.6548 1422.91 16.75C1427.75 19.5303 1438.29 21.393 1443.5 21.2502C1448.68 21.0871 1459.87 19.2992 1463.35 15.4856C1466.02 12.5625 1466.96 6.01613 1467.47 0H1448.17C1447.01 2.82792 1445.67 6.23367 1443.82 7.14459C1440.82 8.63333 1433.64 6.77071 1430.7 5.23438C1430.37 5.07123 1430.02 4.81291 1429.64 4.507C1429.62 4.507 1429.59 4.47981 1429.59 4.45941C1428.18 3.30377 1426.6 1.40037 1425.54 0H1412Z" fill="#193D56"/>
<path d="M1279.99 0C1279.77 4.09233 1279.61 8.30023 1280.86 10.6727C1281.54 11.9711 1283.19 13.5006 1285 14.8466C1286.79 16.1382 1288.74 17.253 1290.14 17.7221C1294.09 19.0409 1302.66 17.1783 1306.79 17.7221C1310.16 18.1708 1316.54 21.5085 1319.93 21.2502C1325.52 20.7812 1336.99 16.3965 1340.4 11.9507C1342.43 9.32672 1343.23 4.92168 1343.64 0.00680453H1331.13C1330.72 2.12095 1330.13 3.94959 1329.21 5.24119C1327.44 7.73601 1321.65 10.8223 1318.63 11.3185C1314.61 11.9779 1306.25 9.9997 1302.64 8.11668C1300.61 7.0834 1297.76 4.93527 1295.21 2.55601C1294.33 1.72667 1293.48 0.856541 1292.73 0.00680453H1279.99V0Z" fill="#193D56"/>
<path d="M1158.62 0C1161.91 1.33918 1165.17 2.65116 1166.72 4.31664C1167.4 5.04402 1167.96 6.1589 1168.47 7.4505C1170.04 11.4545 1171.13 17.1987 1173.63 18.9933C1174.16 19.3672 1174.8 19.6935 1175.56 19.979C1180.36 21.6989 1188.89 21.2434 1193.15 21.2434C1197.11 21.223 1205.65 21.6717 1208.84 19.3128C1211.57 17.287 1212.49 9.72777 1214.29 6.83187C1215.5 4.84009 1217.73 2.48123 1220.16 0H1207.76C1206.09 3.75243 1203.95 7.72919 1201.47 8.74208C1197.75 10.2988 1189.25 6.99501 1185.78 4.90806C1185.73 4.88086 1185.69 4.8605 1185.64 4.81292V4.7857C1184.24 3.90197 1182.77 1.98498 1181.31 0H1158.62Z" fill="#193D56"/>
<path d="M1042.38 0C1045.2 5.17319 1048.28 15.1321 1052.27 18.3543C1052.6 18.6398 1053.02 18.8981 1053.52 19.1293C1055.99 20.3325 1060.03 21.1618 1062.18 21.2502C1067.65 21.4881 1079.05 20.0334 1083.64 17.0899C1088.21 14.1532 1093.43 6.95425 1097.67 0.00680453H1081.16C1080.04 0.774966 1079.01 1.46834 1078.2 2.03937C1075.4 3.96997 1069.75 8.49056 1066.36 8.74888C1064.05 8.93922 1059.95 7.71562 1057.08 6.13171C1056 5.54709 1055.1 4.91489 1054.51 4.26909C1053.62 3.2902 1052.8 1.76745 1052.11 0H1042.38Z" fill="#193D56"/>
<path d="M907.177 0C907.293 2.42005 907.565 4.58857 908.183 6.19967C909.312 9.11597 912.826 14.2076 915.749 16.614C916.123 16.9132 916.477 17.1715 916.83 17.389C920.175 19.3876 928.346 19.3672 932.207 19.9518C938.142 20.8695 950.84 22.637 956.21 19.9518C959.086 18.5174 962.872 12.7461 963.892 9.70741C964.687 7.33494 964.551 3.75923 964.246 0H953.26C952.322 2.12094 951.092 4.1331 949.807 4.90806C946.931 6.67551 939.603 5.84617 936.354 4.90806C933.927 4.20108 930.113 2.16853 927.088 0H907.177Z" fill="#193D56"/>
<path d="M774.53 0C775.869 3.18141 777.473 6.28804 778.853 8.10988C779.649 9.14316 780.906 10.4143 782.361 11.6652V11.6856C784.72 13.7589 787.521 15.7847 789.404 16.75C793.312 18.7554 802.034 20.6792 806.391 21.2502C810.579 21.794 819.817 23.5615 823.345 21.2502C826.71 19.0409 827.587 9.87735 829.749 6.51239C830.939 4.67016 832.869 2.38607 835.038 0.00680453H822.305C819.756 2.56961 817.166 4.76533 815.025 5.87339C810.933 7.99433 801.436 11.1757 796.018 10.0745C795.053 9.88414 794.223 9.57822 793.564 9.08197C791.613 7.62042 791.096 3.88841 791.001 0.0136091H774.53V0Z" fill="#193D56"/>
<path d="M768.208 30.8624V49.7741C772.518 52.8807 777.181 57.4081 780.431 61.5276C780.451 61.548 780.478 61.5752 780.478 61.5752C781.892 63.3427 783.021 65.0354 783.755 66.4969C785.407 69.7463 784.836 77.4007 785.475 81.0036C786.277 85.6465 786.793 95.6803 789.737 99.3511C790.444 100.248 791.572 101.119 792.918 101.941C796.759 104.252 802.408 106.135 805.542 107.026C811.313 108.678 823.679 111.173 829.423 109.5C836.629 107.379 849.49 97.4885 852.91 90.8197C855.051 86.6254 852.672 76.5918 853.78 72.0236C855.146 66.2318 859.551 54.6618 863.576 50.2567C866.805 46.7218 875.445 40.8145 880.23 40.862C883.337 40.9096 888.993 44.8184 890.903 47.2657C891.372 47.8775 891.821 48.6116 892.201 49.407C895.9 56.7555 896.749 71.1942 899.883 77.5775C901.719 81.3435 906.477 88.5288 909.706 91.2412C909.754 91.2888 909.801 91.3364 909.869 91.384C914.981 95.5307 928.38 98.4062 933.186 102.764C934.036 103.539 935.001 105.143 936.061 106.604C937.006 107.944 938.04 109.147 939.053 109.453V109.473C939.073 109.473 939.121 109.494 939.148 109.494C946.306 111.281 962.301 105.116 966.897 99.3443C971.139 94.042 968.78 79.0662 970.309 72.4451C971.648 66.7416 974.218 54.7297 978.011 50.2567C980.438 47.3812 987.671 44.227 991.226 43.0034C994.408 41.9225 1001.19 40.1755 1004.46 40.862C1009.93 41.9905 1019.32 48.87 1023.26 52.8264C1023.99 53.5537 1024.86 54.7094 1025.68 56.0078C1026.84 57.7276 1027.92 59.6378 1028.37 60.9294C1029.62 64.4847 1029.36 72.1867 1030.09 75.8644C1030.91 80.1267 1032.49 88.8415 1034.78 92.5192C1036.21 94.8509 1038.78 98.0323 1041.78 101.044C1041.78 101.064 1041.8 101.091 1041.84 101.139C1045.66 105.027 1050.11 108.583 1053.55 109.5C1059.16 110.982 1070.53 105.734 1076.19 104.483C1079.48 103.729 1087.04 103.919 1089.42 101.492C1094.37 96.428 1092.77 80.4598 1094.96 73.7434C1096.87 67.9244 1099.83 54.4306 1105.2 51.5347C1107.67 50.216 1113.51 53.4926 1116.31 53.2546C1121.35 52.8332 1131.34 43.9755 1135.51 46.851C1136.76 47.7211 1137.23 49.373 1137.33 51.4464C1137.58 56.8371 1135.11 64.9674 1136.36 68.7334C1138.24 74.362 1146.7 83.2197 1149.81 88.257C1152.99 93.369 1155.95 106.842 1161.45 109.453C1161.49 109.453 1161.51 109.473 1161.56 109.5C1169.26 112.94 1186.13 103.491 1194.42 101.914C1198.66 101.112 1208.53 102.478 1211.5 99.3443C1216.8 93.7632 1211.97 76.0003 1214.49 68.7266C1216.56 62.7173 1223.75 51.8611 1228.15 47.2657C1231.4 43.9007 1238.85 36.7833 1243.51 36.593C1250.06 36.3347 1262.31 44.5057 1266.15 49.8285C1266.38 50.1616 1266.62 50.5354 1266.85 50.9365C1270.74 57.7684 1271.8 72.5334 1272.56 79.6984C1273.07 84.5997 1270.67 94.8169 1272.56 99.3443C1273.24 101.017 1275.29 103.158 1277.32 104.925C1278.54 105.959 1279.76 106.883 1280.66 107.468C1281.82 108.222 1284.41 109.33 1285.79 109.494C1296.53 110.67 1320.72 110.269 1328.47 102.757C1331.75 99.5755 1330.45 89.1678 1331.88 84.8308C1334.02 78.4 1340.53 66.4085 1343.83 60.5012C1346.18 56.3069 1350.96 47.9251 1354.07 44.2746C1356.19 41.8002 1360.71 36.4095 1363.89 35.7501C1369.24 34.6216 1380.62 38.646 1384.81 42.1537C1385.99 43.119 1387.09 44.6009 1388.13 46.3684C1391.55 52.1126 1394.33 60.8547 1396.78 65.1849C1398.69 68.5771 1402.76 75.171 1404.88 78.4204C1408.37 83.7431 1414.85 94.8849 1419.39 99.3375C1419.72 99.6638 1420.1 100.017 1420.52 100.418C1424.17 103.858 1430.65 109.249 1434.77 109.487C1438.23 109.677 1444 104.66 1447.13 103.172C1451.04 101.356 1460.58 99.9425 1462.94 96.3396C1465.81 91.9822 1461.48 80.4394 1462.94 75.4225C1464 71.7925 1468.99 65.8103 1471.04 62.6357C1474.22 57.6868 1479.29 46.6674 1483.86 42.9898C1486 41.2699 1491.37 39.0334 1494.1 39.149C1498.81 39.3393 1507.1 44.8728 1511.18 47.2521C1516.92 50.617 1530.14 56.5788 1532.94 62.6357C1534.52 66.0279 1531.46 73.825 1531.67 77.5707C1531.98 83.1041 1535.98 93.7972 1535.93 99.3375C1535.91 101.928 1532.17 107.461 1533.79 109.487C1534.62 110.479 1536.34 110.969 1538.31 111.111C1538.55 111.132 1538.76 111.132 1538.99 111.132V50.1956C1536.4 47.7687 1533.43 45.505 1531.24 44.6825C1528.84 43.7851 1523.43 45.4574 1521 44.6825C1516.53 43.2957 1509.65 36.4163 1505.62 34.0098C1502.74 32.2899 1496.97 28.4491 1493.67 27.9325C1488.75 27.1575 1478.34 28.5239 1474.03 31.0187C1471.08 32.7386 1467 38.6256 1465.5 41.6914C1462.91 46.919 1463.92 60.0661 1459.94 64.3284C1457.49 66.9456 1448.73 66.0958 1446.28 68.7062C1441.47 73.8182 1446.02 93.4641 1439.45 95.9113C1437.23 96.7339 1433.82 94.4294 1430.97 91.7646C1429.15 90.0448 1427.56 88.2093 1426.63 86.9585C1423.85 83.0973 1422.27 73.322 1421.1 68.7062C1420.06 64.6547 1419.57 56.1029 1417.69 52.3845C1417.17 51.3512 1416.32 50.0732 1415.29 48.7816C1412.81 45.6002 1409.32 42.0721 1407.02 40.4202C1403.06 37.5719 1393.78 34.0845 1389.09 32.7386C1385.75 31.7733 1378.82 31.2295 1375.43 30.5972C1372.3 30.033 1366.2 27.6538 1363.04 27.9325C1355.93 28.5715 1340.9 33.0173 1336.56 38.7207C1333.12 43.2413 1335.74 55.9126 1334.02 61.3305C1331.85 68.0672 1323.92 79.9839 1320.35 86.0884C1318.4 89.4602 1315.9 98.0799 1312.23 99.3239C1308.79 100.5 1302.17 94.7761 1298.57 94.2119C1296.54 93.8856 1292.54 95.3199 1289.87 95.2248C1289.05 95.2044 1288.36 95.014 1287.89 94.6333C1282.41 90.0855 1285.14 73.4104 1283.63 66.4629C1282.76 62.391 1281.94 54.6142 1279.91 49.4342C1279.3 47.8299 1278.55 46.4635 1277.65 45.5458C1275.88 43.7104 1270.72 43.6152 1267.55 42.5751C1266.79 42.3372 1266.18 42.0585 1265.71 41.6778C1263.73 40.1007 1262.39 35.7908 1260.79 32.3511C1259.87 30.3457 1258.86 28.6531 1257.59 27.9257C1249.44 23.2623 1228.21 23.3303 1220.04 27.9257C1216.63 29.8359 1214.01 37.9594 1211.92 41.2563C1209.94 44.3902 1204.88 50.0868 1203.82 53.6489C1202.1 59.3727 1206.1 72.0236 1203.82 77.5571C1202.03 81.8669 1194.35 88.0122 1190.58 90.7926C1186.88 93.4981 1178.92 99.8133 1174.35 99.3171C1172 99.0588 1168.96 96.1629 1166.54 93.5457C1166.47 93.4505 1166.39 93.3825 1166.33 93.2874C1165.29 92.1793 1164.37 91.1189 1163.69 90.3643C1159.59 85.8437 1151.82 76.0411 1149.81 70.2969C1147.77 64.3623 1151.02 51.0045 1148.35 45.0972C1148.31 44.9544 1148.24 44.8116 1148.16 44.6757C1146.04 40.6717 1137.87 35.6277 1133.82 33.5815C1129.16 31.2499 1118.93 27.3615 1113.75 27.9257C1108.8 28.4899 1099.92 34.0709 1096.25 37.4155C1093 40.359 1087.87 47.8027 1086.43 51.9222C1085.04 55.9058 1085.7 64.5255 1085.16 68.6926C1084.41 74.2737 1084.5 86.4759 1080.87 90.7858C1079.1 92.8591 1073.36 94.273 1070.63 94.6265C1065.85 95.218 1055.83 96.0881 1050.16 93.9876C1048.84 93.5185 1047.76 92.8795 1047.02 92.057C1042.46 86.9721 1049.12 71.235 1047.02 64.7362C1044.62 57.3401 1033.13 46.0081 1028.79 39.5569C1027.76 38.0273 1026.62 35.2198 1025.3 32.7046C1024.2 30.5632 1022.95 28.6327 1021.54 27.9257C1015.62 24.9074 1001.63 28.7278 995.06 29.7407C991.927 30.237 985.849 32.4055 982.695 32.7318C979.303 33.0853 971.812 30.305 969.031 32.3103C965.401 34.9003 965.143 45.0972 963.899 49.3866C962.696 53.6285 959.8 62.0579 959.208 66.4629C958.569 71.2214 961.254 81.3231 959.208 85.6602C957.488 89.3106 950.704 94.8237 946.816 95.9045C943.825 96.7543 937.299 95.4831 934.45 94.2119C931.344 92.8251 926.585 89.5485 922.86 86.1088C920.596 84.0626 918.74 81.9417 917.796 80.1267C915.301 75.3002 916.055 63.7777 913.955 58.7609C912.731 55.8854 908.421 51.1541 906.701 48.5165C904.744 45.5458 902.582 39.6113 899.965 35.1858C898.625 32.9221 897.184 31.0663 895.607 30.169C889.061 26.5389 872.923 28.6394 865.717 30.5904C861.339 31.7937 852.196 35.6277 849.912 39.5637C847.723 43.3297 851.067 52.8467 849.912 57.0614C848.26 63.1591 840.47 73.4783 837.125 78.8283C833.848 84.0559 829.403 97.74 823.461 99.3171C820.001 100.235 813.733 94.749 810.647 92.9135C807.724 91.1733 802.429 88.3453 798.608 85.4494C796.983 84.2258 795.637 83.0022 794.842 81.8193C791.831 77.3667 791.64 65.9463 789.73 60.9023C787.942 56.1709 782.878 47.3608 780.335 42.9762C779.744 41.9429 778.949 40.3114 778.051 38.7615C777.154 37.1572 776.168 35.6277 775.223 34.8731C773.646 33.6155 771.056 32.1336 768.208 30.8624Z" fill="#193D56"/>
</g>
</svg>
