<svg width="294" height="165" viewBox="0 0 294 165" fill="none" xmlns="http://www.w3.org/2000/svg">
<path d="M195.867 2.46876C180.998 2.46879 139.34 2.73013 85.333 4.45356C62.5147 4.45356 14.9976 -1.94185 8.42071 2.46876C1.84379 6.87938 2.21585 50.2584 1.84381 57.8907C1.34776 76.8484 5.90767 93.3832 1.84381 132.168C-1.59626 165 1.24263 165 17.6502 165H105.989C125.707 165 166.008 162.451 183.121 162.451C200.235 162.451 263.2 163.929 279.755 162.451C293 161.27 291.087 157.213 293.149 149.156C289.116 106.849 296.87 101.776 291.475 12.5133C290.358 -5.95201 212.192 2.46873 195.867 2.46876Z" fill="#214868"/>
</svg>
