<svg width="1000" height="560" viewBox="0 0 1000 560" fill="none" xmlns="http://www.w3.org/2000/svg">
<path d="M666.809 6.51819C616.046 6.51829 473.826 7.40738 289.443 13.2704C211.54 13.2704 49.3153 -8.48642 26.8615 6.51819C4.40772 21.5228 5.67793 169.096 4.40777 195.06C2.71424 259.553 18.2819 315.803 4.40777 447.748C-7.33672 559.439 2.35534 559.439 58.3713 559.439H359.964C427.282 559.439 564.869 550.769 623.296 550.769C681.722 550.769 896.686 555.794 953.207 550.769C998.425 546.749 991.894 532.949 998.933 505.54C985.164 361.612 1011.64 344.356 993.217 40.689C989.407 -22.1287 722.543 6.51809 666.809 6.51819Z" fill="#214868"/>
</svg>
