<svg width="151" height="38" viewBox="0 0 151 38" fill="none" xmlns="http://www.w3.org/2000/svg">
<path d="M2.87007 32.7233C1.08866 29.9368 -0.247408 6.84935 2.87007 4.36149C5.98755 1.87363 56.3125 3.36635 82.5884 4.36149C108.864 5.35663 143.602 3.8639 148.055 5.35663C152.509 6.84935 151.217 33.4199 148.724 36.2063C145.606 39.6893 90.1594 37.2014 77.0215 36.2063C63.8836 35.2111 5.09684 36.2063 2.87007 32.7233Z" fill="#214868"/>
<path d="M1.87007 29.7233C0.0886566 26.9368 -1.24741 3.84935 1.87007 1.36149C4.98755 -1.12637 55.3125 0.366353 81.5884 1.36149C107.864 2.35663 142.602 0.863904 147.055 2.35663C151.509 3.84935 150.217 30.4199 147.724 33.2063C144.606 36.6893 89.1594 34.2014 76.0215 33.2063C62.8836 32.2111 4.09684 33.2063 1.87007 29.7233Z" fill="#3387DC"/>
<path d="M24.2275 20.245C23.9775 20.56 23.67 20.8575 23.305 21.1375C22.945 21.4175 22.535 21.6475 22.075 21.8275C21.615 22.0025 21.1125 22.09 20.5675 22.09C19.8725 22.09 19.2575 21.9675 18.7225 21.7225C18.1875 21.4725 17.7375 21.12 17.3725 20.665C17.0075 20.21 16.73 19.675 16.54 19.06C16.355 18.44 16.2625 17.7625 16.2625 17.0275C16.2625 16.0725 16.4275 15.22 16.7575 14.47C17.0875 13.72 17.5675 13.13 18.1975 12.7C18.8275 12.27 19.5975 12.055 20.5075 12.055C21.2475 12.055 21.9325 12.2125 22.5625 12.5275C23.1975 12.8375 23.695 13.305 24.055 13.93C23.92 14.08 23.74 14.2475 23.515 14.4325C23.295 14.6125 23.07 14.7875 22.84 14.9575C22.615 15.1225 22.42 15.2575 22.255 15.3625C22.235 15.3075 22.185 15.215 22.105 15.085C22.03 14.955 21.925 14.8175 21.79 14.6725C21.655 14.5275 21.485 14.405 21.28 14.305C21.075 14.2 20.835 14.1475 20.56 14.1475C20.3 14.1475 20.065 14.2125 19.855 14.3425C19.645 14.4675 19.465 14.65 19.315 14.89C19.165 15.13 19.05 15.415 18.97 15.745C18.89 16.075 18.85 16.4425 18.85 16.8475C18.85 17.2325 18.885 17.595 18.955 17.935C19.025 18.275 19.1275 18.5775 19.2625 18.8425C19.3975 19.1025 19.57 19.305 19.78 19.45C19.995 19.595 20.2425 19.6675 20.5225 19.6675C20.7975 19.6675 21.055 19.6175 21.295 19.5175C21.535 19.4125 21.76 19.275 21.97 19.105C22.18 18.935 22.3725 18.7525 22.5475 18.5575C22.7275 18.6825 22.9275 18.8425 23.1475 19.0375C23.3675 19.2325 23.575 19.4375 23.77 19.6525C23.97 19.8675 24.1225 20.065 24.2275 20.245ZM28.3504 22.1275C27.7354 22.1275 27.1729 22.045 26.6629 21.88C26.1529 21.71 25.7454 21.4375 25.4404 21.0625C25.1404 20.6825 24.9904 20.18 24.9904 19.555C24.9904 18.93 25.1654 18.4275 25.5154 18.0475C25.8704 17.6625 26.3354 17.385 26.9104 17.215C27.4904 17.04 28.1129 16.9525 28.7779 16.9525C29.0379 16.9525 29.2879 16.9725 29.5279 17.0125C29.7679 17.0525 29.9779 17.1 30.1579 17.155C30.3429 17.21 30.4754 17.2625 30.5554 17.3125C30.5504 17.1825 30.5229 17.045 30.4729 16.9C30.4279 16.755 30.3629 16.6325 30.2779 16.5325C30.1279 16.3275 29.9229 16.1575 29.6629 16.0225C29.4079 15.8825 29.0704 15.8125 28.6504 15.8125C28.2254 15.8125 27.8504 15.91 27.5254 16.105C27.2004 16.295 26.9529 16.51 26.7829 16.75L24.9529 15.5725C25.1779 15.2525 25.4804 14.9725 25.8604 14.7325C26.2454 14.4925 26.6804 14.305 27.1654 14.17C27.6554 14.035 28.1679 13.9675 28.7029 13.9675C29.5879 13.9675 30.3054 14.1125 30.8554 14.4025C31.4054 14.6925 31.8129 15.0975 32.0779 15.6175C32.2029 15.8675 32.3054 16.1425 32.3854 16.4425C32.4654 16.7425 32.5204 17.0875 32.5504 17.4775C32.5704 17.8125 32.5854 18.125 32.5954 18.415C32.6054 18.705 32.6154 18.98 32.6254 19.24C32.6354 19.62 32.6779 19.8675 32.7529 19.9825C32.8279 20.0975 32.9354 20.155 33.0754 20.155C33.2054 20.155 33.3204 20.12 33.4204 20.05C33.5254 19.975 33.5929 19.8775 33.6229 19.7575L34.4029 21.25C34.3479 21.48 34.1929 21.6725 33.9379 21.8275C33.6829 21.9825 33.3604 22.06 32.9704 22.06C32.6854 22.06 32.4154 22.0125 32.1604 21.9175C31.9054 21.8175 31.6954 21.685 31.5304 21.52C31.3654 21.35 31.2679 21.1575 31.2379 20.9425C31.1579 21.1325 30.9904 21.32 30.7354 21.505C30.4804 21.685 30.1529 21.835 29.7529 21.955C29.3529 22.07 28.8854 22.1275 28.3504 22.1275ZM28.8529 20.365C29.0879 20.365 29.3279 20.33 29.5729 20.26C29.8229 20.185 30.0479 20.0925 30.2479 19.9825C30.4529 19.8725 30.6104 19.76 30.7204 19.645C30.7104 19.49 30.7004 19.33 30.6904 19.165C30.6854 19 30.6854 18.86 30.6904 18.745C30.5804 18.7 30.3704 18.6525 30.0604 18.6025C29.7554 18.5475 29.4354 18.52 29.1004 18.52C28.7954 18.52 28.5104 18.5525 28.2454 18.6175C27.9804 18.6825 27.7629 18.7825 27.5929 18.9175C27.4279 19.0525 27.3454 19.2275 27.3454 19.4425C27.3454 19.6725 27.4079 19.855 27.5329 19.99C27.6579 20.125 27.8329 20.2225 28.0579 20.2825C28.2829 20.3375 28.5479 20.365 28.8529 20.365ZM36.9298 15.28C37.0448 15.055 37.2198 14.84 37.4548 14.635C37.6948 14.43 37.9773 14.2625 38.3023 14.1325C38.6323 14.0025 38.9823 13.9375 39.3523 13.9375C39.5773 13.9375 39.8048 13.96 40.0348 14.005C40.2648 14.05 40.4323 14.11 40.5373 14.185L40.0723 16.57C39.9623 16.525 39.8198 16.475 39.6448 16.42C39.4698 16.365 39.2698 16.3375 39.0448 16.3375C38.8148 16.3375 38.5898 16.3775 38.3698 16.4575C38.1548 16.5325 37.9548 16.64 37.7698 16.78C37.5848 16.92 37.4223 17.0875 37.2823 17.2825C37.3323 17.5725 37.3873 17.9425 37.4473 18.3925C37.5123 18.8425 37.5723 19.305 37.6273 19.78C37.6823 20.255 37.7273 20.6875 37.7623 21.0775C37.7973 21.4675 37.8148 21.7525 37.8148 21.9325C37.4648 21.9775 37.0598 22.0075 36.5998 22.0225C36.1398 22.0375 35.6973 22.0425 35.2723 22.0375C35.2723 21.6175 35.2598 21.14 35.2348 20.605C35.2148 20.07 35.1848 19.5125 35.1448 18.9325C35.1048 18.3475 35.0548 17.7725 34.9948 17.2075C34.9398 16.6375 34.8748 16.11 34.7998 15.625C34.7298 15.14 34.6548 14.7275 34.5748 14.3875C34.8148 14.3175 35.0798 14.2525 35.3698 14.1925C35.6598 14.1325 35.9223 14.085 36.1573 14.05C36.3923 14.01 36.5423 13.9875 36.6073 13.9825C36.6673 14.1225 36.7348 14.33 36.8098 14.605C36.8848 14.875 36.9248 15.1 36.9298 15.28ZM44.0466 21.985C43.9616 21.99 43.7991 22 43.5591 22.015C43.3241 22.035 43.0741 22.045 42.8091 22.045C42.6141 22.045 42.4166 22.0375 42.2166 22.0225C42.0216 22.0125 41.8291 21.9975 41.6391 21.9775C41.6641 21.8475 41.6916 21.5825 41.7216 21.1825C41.7566 20.7775 41.7891 20.3025 41.8191 19.7575C41.8541 19.2125 41.8866 18.65 41.9166 18.07C41.9516 17.485 41.9766 16.9375 41.9916 16.4275C42.0116 15.9175 42.0216 15.5075 42.0216 15.1975C42.1216 15.1925 42.2691 15.185 42.4641 15.175C42.6591 15.165 42.8691 15.1575 43.0941 15.1525C43.3191 15.1425 43.5341 15.135 43.7391 15.13C43.9441 15.12 44.1066 15.115 44.2266 15.115C44.2516 15.27 44.2716 15.52 44.2866 15.865C44.3016 16.21 44.3091 16.595 44.3091 17.02C44.3091 17.475 44.3016 17.9575 44.2866 18.4675C44.2766 18.9775 44.2591 19.4725 44.2341 19.9525C44.2141 20.4275 44.1866 20.8475 44.1516 21.2125C44.1166 21.5725 44.0816 21.83 44.0466 21.985ZM43.2066 14.1475C42.7566 14.1475 42.3791 14.0175 42.0741 13.7575C41.7691 13.4925 41.6166 13.145 41.6166 12.715C41.6166 12.42 41.6891 12.1675 41.8341 11.9575C41.9791 11.7475 42.1666 11.5875 42.3966 11.4775C42.6316 11.3625 42.8791 11.305 43.1391 11.305C43.5541 11.305 43.8966 11.44 44.1666 11.71C44.4416 11.98 44.5791 12.3275 44.5791 12.7525C44.5791 13.1475 44.4491 13.48 44.1891 13.75C43.9291 14.015 43.6016 14.1475 43.2066 14.1475ZM50.4187 14.2225C50.3937 14.1125 50.3712 13.9575 50.3512 13.7575C50.3362 13.5525 50.3212 13.34 50.3062 13.12C50.2962 12.895 50.2862 12.695 50.2762 12.52C50.2712 12.34 50.2687 12.2175 50.2687 12.1525C50.8287 12.1125 51.4662 12.0775 52.1812 12.0475C52.9012 12.0125 53.6287 11.995 54.3637 11.995C54.9187 11.995 55.4587 12.0075 55.9837 12.0325C56.5137 12.0525 56.9962 12.095 57.4312 12.16C57.4362 12.575 57.4237 12.9625 57.3937 13.3225C57.3637 13.6775 57.3287 13.945 57.2887 14.125C57.1937 14.125 57.0562 14.125 56.8762 14.125C56.6962 14.12 56.4962 14.1175 56.2762 14.1175C56.0612 14.1125 55.8487 14.11 55.6387 14.11C55.4287 14.105 55.2462 14.1 55.0912 14.095C55.0962 14.28 55.1062 14.555 55.1212 14.92C55.1362 15.28 55.1537 15.6925 55.1737 16.1575C55.1937 16.6225 55.2162 17.11 55.2412 17.62C55.2662 18.13 55.2887 18.63 55.3087 19.12C55.3337 19.61 55.3537 20.06 55.3687 20.47C55.3887 20.875 55.4037 21.21 55.4137 21.475C55.4287 21.735 55.4362 21.89 55.4362 21.94C55.2362 21.97 54.9762 21.9975 54.6562 22.0225C54.3362 22.0475 54.0162 22.0675 53.6962 22.0825C53.3812 22.0975 53.1237 22.105 52.9237 22.105C52.9087 21.81 52.8937 21.455 52.8787 21.04C52.8637 20.62 52.8512 20.1675 52.8412 19.6825C52.8312 19.1925 52.8212 18.6925 52.8112 18.1825C52.8012 17.6675 52.7937 17.165 52.7887 16.675C52.7837 16.185 52.7812 15.735 52.7812 15.325C52.7812 15.095 52.7812 14.88 52.7812 14.68C52.7812 14.48 52.7837 14.3 52.7887 14.14C52.6187 14.15 52.4337 14.16 52.2337 14.17C52.0337 14.175 51.8287 14.1825 51.6187 14.1925C51.4087 14.2025 51.2012 14.21 50.9962 14.215C50.7912 14.22 50.5987 14.2225 50.4187 14.2225ZM61.368 22.1275C60.753 22.1275 60.1905 22.045 59.6805 21.88C59.1705 21.71 58.763 21.4375 58.458 21.0625C58.158 20.6825 58.008 20.18 58.008 19.555C58.008 18.93 58.183 18.4275 58.533 18.0475C58.888 17.6625 59.353 17.385 59.928 17.215C60.508 17.04 61.1305 16.9525 61.7955 16.9525C62.0555 16.9525 62.3055 16.9725 62.5455 17.0125C62.7855 17.0525 62.9955 17.1 63.1755 17.155C63.3605 17.21 63.493 17.2625 63.573 17.3125C63.568 17.1825 63.5405 17.045 63.4905 16.9C63.4455 16.755 63.3805 16.6325 63.2955 16.5325C63.1455 16.3275 62.9405 16.1575 62.6805 16.0225C62.4255 15.8825 62.088 15.8125 61.668 15.8125C61.243 15.8125 60.868 15.91 60.543 16.105C60.218 16.295 59.9705 16.51 59.8005 16.75L57.9705 15.5725C58.1955 15.2525 58.498 14.9725 58.878 14.7325C59.263 14.4925 59.698 14.305 60.183 14.17C60.673 14.035 61.1855 13.9675 61.7205 13.9675C62.6055 13.9675 63.323 14.1125 63.873 14.4025C64.423 14.6925 64.8305 15.0975 65.0955 15.6175C65.2205 15.8675 65.323 16.1425 65.403 16.4425C65.483 16.7425 65.538 17.0875 65.568 17.4775C65.588 17.8125 65.603 18.125 65.613 18.415C65.623 18.705 65.633 18.98 65.643 19.24C65.653 19.62 65.6955 19.8675 65.7705 19.9825C65.8455 20.0975 65.953 20.155 66.093 20.155C66.223 20.155 66.338 20.12 66.438 20.05C66.543 19.975 66.6105 19.8775 66.6405 19.7575L67.4205 21.25C67.3655 21.48 67.2105 21.6725 66.9555 21.8275C66.7005 21.9825 66.378 22.06 65.988 22.06C65.703 22.06 65.433 22.0125 65.178 21.9175C64.923 21.8175 64.713 21.685 64.548 21.52C64.383 21.35 64.2855 21.1575 64.2555 20.9425C64.1755 21.1325 64.008 21.32 63.753 21.505C63.498 21.685 63.1705 21.835 62.7705 21.955C62.3705 22.07 61.903 22.1275 61.368 22.1275ZM61.8705 20.365C62.1055 20.365 62.3455 20.33 62.5905 20.26C62.8405 20.185 63.0655 20.0925 63.2655 19.9825C63.4705 19.8725 63.628 19.76 63.738 19.645C63.728 19.49 63.718 19.33 63.708 19.165C63.703 19 63.703 18.86 63.708 18.745C63.598 18.7 63.388 18.6525 63.078 18.6025C62.773 18.5475 62.453 18.52 62.118 18.52C61.813 18.52 61.528 18.5525 61.263 18.6175C60.998 18.6825 60.7805 18.7825 60.6105 18.9175C60.4455 19.0525 60.363 19.2275 60.363 19.4425C60.363 19.6725 60.4255 19.855 60.5505 19.99C60.6755 20.125 60.8505 20.2225 61.0755 20.2825C61.3005 20.3375 61.5655 20.365 61.8705 20.365ZM70.1799 22.0825C70.0649 22.1025 69.9024 22.1175 69.6924 22.1275C69.4874 22.1375 69.2749 22.1425 69.0549 22.1425C68.7949 22.1425 68.5524 22.1325 68.3274 22.1125C68.1024 22.0975 67.9374 22.07 67.8324 22.03C67.8724 21.73 67.9074 21.34 67.9374 20.86C67.9724 20.375 67.9999 19.8325 68.0199 19.2325C68.0449 18.6325 68.0574 18.0025 68.0574 17.3425C68.0574 16.6675 68.0449 15.98 68.0199 15.28C67.9999 14.58 67.9724 13.905 67.9374 13.255C67.9024 12.6 67.8699 12.0025 67.8399 11.4625C67.8749 11.4475 67.9849 11.425 68.1699 11.395C68.3549 11.365 68.5699 11.335 68.8149 11.305C69.0599 11.27 69.2924 11.24 69.5124 11.215C69.7324 11.19 69.8974 11.1775 70.0074 11.1775C70.0874 11.5525 70.1574 12 70.2174 12.52C70.2774 13.04 70.3274 13.61 70.3674 14.23C70.4074 14.845 70.4349 15.49 70.4499 16.165C70.6199 15.975 70.8349 15.805 71.0949 15.655C71.3549 15.5 71.6374 15.38 71.9424 15.295C72.2524 15.205 72.5599 15.16 72.8649 15.16C73.4749 15.16 73.9424 15.2775 74.2674 15.5125C74.5924 15.7425 74.8174 16.08 74.9424 16.525C75.0724 16.965 75.1374 17.5025 75.1374 18.1375C75.1374 18.5375 75.1199 18.9675 75.0849 19.4275C75.0549 19.8875 75.0149 20.34 74.9649 20.785C74.9149 21.23 74.8599 21.63 74.7999 21.985C74.6249 22.01 74.4449 22.03 74.2599 22.045C74.0749 22.06 73.8899 22.0675 73.7049 22.0675C73.4999 22.0675 73.2974 22.0575 73.0974 22.0375C72.9024 22.0225 72.7249 22 72.5649 21.97C72.5999 21.745 72.6374 21.48 72.6774 21.175C72.7174 20.87 72.7549 20.5575 72.7899 20.2375C72.8249 19.9125 72.8524 19.605 72.8724 19.315C72.8974 19.02 72.9099 18.77 72.9099 18.565C72.9099 18.27 72.8799 18.02 72.8199 17.815C72.7649 17.61 72.6724 17.455 72.5424 17.35C72.4174 17.24 72.2474 17.185 72.0324 17.185C71.8474 17.185 71.6724 17.22 71.5074 17.29C71.3424 17.355 71.1899 17.44 71.0499 17.545C70.9149 17.645 70.7949 17.75 70.6899 17.86C70.5849 17.965 70.5024 18.0575 70.4424 18.1375C70.4424 18.6525 70.4299 19.1675 70.4049 19.6825C70.3799 20.1925 70.3474 20.6575 70.3074 21.0775C70.2674 21.4975 70.2249 21.8325 70.1799 22.0825ZM81.1827 14.665C81.3077 14.62 81.4852 14.5875 81.7152 14.5675C81.9502 14.5425 82.1777 14.53 82.3977 14.53C82.5827 14.53 82.7877 14.5375 83.0127 14.5525C83.2377 14.5675 83.4202 14.585 83.5602 14.605C83.6252 15.01 83.6752 15.42 83.7102 15.835C83.7452 16.245 83.7627 16.65 83.7627 17.05C83.7627 17.785 83.6977 18.4775 83.5677 19.1275C83.4427 19.7775 83.2352 20.35 82.9452 20.845C82.6552 21.34 82.2677 21.7275 81.7827 22.0075C81.2977 22.2925 80.7002 22.435 79.9902 22.435C79.2352 22.435 78.6127 22.2875 78.1227 21.9925C77.6327 21.6925 77.2502 21.2775 76.9752 20.7475C76.7002 20.2125 76.5077 19.59 76.3977 18.88C76.2927 18.165 76.2402 17.395 76.2402 16.57C76.2402 16.205 76.2477 15.835 76.2627 15.46C76.2827 15.08 76.3077 14.7025 76.3377 14.3275C76.4677 14.3175 76.6377 14.31 76.8477 14.305C77.0627 14.295 77.2577 14.2925 77.4327 14.2975C77.6827 14.2975 77.9327 14.3125 78.1827 14.3425C78.4377 14.3675 78.6377 14.4025 78.7827 14.4475C78.7477 14.7875 78.7177 15.155 78.6927 15.55C78.6677 15.94 78.6552 16.3325 78.6552 16.7275C78.6552 17.3875 78.6977 17.9825 78.7827 18.5125C78.8727 19.0425 79.0202 19.4625 79.2252 19.7725C79.4302 20.0825 79.7077 20.2375 80.0577 20.2375C80.3877 20.2375 80.6502 20.0975 80.8452 19.8175C81.0452 19.5375 81.1877 19.1625 81.2727 18.6925C81.3627 18.2175 81.4077 17.6875 81.4077 17.1025C81.4077 16.6625 81.3852 16.23 81.3402 15.805C81.3002 15.375 81.2477 14.995 81.1827 14.665ZM90.3775 22.24C90.3475 22.005 90.3125 21.6675 90.2725 21.2275C90.2375 20.7825 90.195 20.275 90.145 19.705C90.095 19.13 90.045 18.53 89.995 17.905C89.945 17.275 89.895 16.6525 89.845 16.0375C89.795 15.4225 89.75 14.855 89.71 14.335C89.675 13.81 89.6425 13.365 89.6125 13C89.5875 12.63 89.57 12.3825 89.56 12.2575C89.765 12.2325 90.0275 12.205 90.3475 12.175C90.6675 12.145 91.01 12.12 91.375 12.1C91.74 12.075 92.0825 12.0625 92.4025 12.0625C93.3225 12.0625 94.1025 12.165 94.7425 12.37C95.3825 12.57 95.8975 12.8825 96.2875 13.3075C96.6775 13.7275 96.96 14.2625 97.135 14.9125C97.31 15.5625 97.3975 16.33 97.3975 17.215C97.3975 18.24 97.26 19.08 96.985 19.735C96.715 20.385 96.2925 20.8925 95.7175 21.2575C95.1475 21.6175 94.42 21.8675 93.535 22.0075C92.655 22.1525 91.6025 22.23 90.3775 22.24ZM92.62 19.7575C93.215 19.7375 93.6825 19.635 94.0225 19.45C94.3675 19.265 94.61 19 94.75 18.655C94.895 18.305 94.9675 17.88 94.9675 17.38C94.9675 16.82 94.8975 16.2925 94.7575 15.7975C94.6225 15.3025 94.395 14.9025 94.075 14.5975C93.76 14.2925 93.33 14.14 92.785 14.14C92.695 14.14 92.5975 14.14 92.4925 14.14C92.3925 14.14 92.3025 14.145 92.2225 14.155C92.2625 14.7 92.3025 15.3025 92.3425 15.9625C92.3875 16.6175 92.435 17.275 92.485 17.935C92.535 18.59 92.58 19.1975 92.62 19.7575ZM101.322 21.985C101.237 21.99 101.074 22 100.834 22.015C100.599 22.035 100.349 22.045 100.084 22.045C99.8895 22.045 99.692 22.0375 99.492 22.0225C99.297 22.0125 99.1045 21.9975 98.9145 21.9775C98.9395 21.8475 98.967 21.5825 98.997 21.1825C99.032 20.7775 99.0645 20.3025 99.0945 19.7575C99.1295 19.2125 99.162 18.65 99.192 18.07C99.227 17.485 99.252 16.9375 99.267 16.4275C99.287 15.9175 99.297 15.5075 99.297 15.1975C99.397 15.1925 99.5445 15.185 99.7395 15.175C99.9345 15.165 100.144 15.1575 100.369 15.1525C100.594 15.1425 100.809 15.135 101.014 15.13C101.219 15.12 101.382 15.115 101.502 15.115C101.527 15.27 101.547 15.52 101.562 15.865C101.577 16.21 101.584 16.595 101.584 17.02C101.584 17.475 101.577 17.9575 101.562 18.4675C101.552 18.9775 101.534 19.4725 101.509 19.9525C101.489 20.4275 101.462 20.8475 101.427 21.2125C101.392 21.5725 101.357 21.83 101.322 21.985ZM100.482 14.1475C100.032 14.1475 99.6545 14.0175 99.3495 13.7575C99.0445 13.4925 98.892 13.145 98.892 12.715C98.892 12.42 98.9645 12.1675 99.1095 11.9575C99.2545 11.7475 99.442 11.5875 99.672 11.4775C99.907 11.3625 100.154 11.305 100.414 11.305C100.829 11.305 101.172 11.44 101.442 11.71C101.717 11.98 101.854 12.3275 101.854 12.7525C101.854 13.1475 101.724 13.48 101.464 13.75C101.204 14.015 100.877 14.1475 100.482 14.1475ZM106.372 22.5925C105.787 22.5925 105.25 22.52 104.76 22.375C104.275 22.235 103.862 22.07 103.522 21.88C103.187 21.685 102.945 21.51 102.795 21.355C102.825 21.26 102.882 21.1225 102.967 20.9425C103.057 20.7575 103.162 20.5575 103.282 20.3425C103.402 20.1275 103.522 19.9275 103.642 19.7425C103.762 19.5575 103.87 19.42 103.965 19.33C104.205 19.535 104.465 19.7375 104.745 19.9375C105.025 20.1325 105.312 20.2925 105.607 20.4175C105.902 20.5425 106.177 20.605 106.432 20.605C106.632 20.605 106.812 20.58 106.972 20.53C107.132 20.475 107.257 20.395 107.347 20.29C107.442 20.185 107.49 20.055 107.49 19.9C107.49 19.72 107.402 19.5475 107.227 19.3825C107.057 19.2125 106.837 19.0525 106.567 18.9025C106.297 18.7525 106.015 18.6175 105.72 18.4975C105.315 18.3325 104.937 18.14 104.587 17.92C104.237 17.695 103.955 17.42 103.74 17.095C103.525 16.765 103.417 16.355 103.417 15.865C103.417 15.365 103.565 14.945 103.86 14.605C104.155 14.265 104.54 14.0075 105.015 13.8325C105.495 13.6575 106.007 13.57 106.552 13.57C107.067 13.57 107.59 13.6425 108.12 13.7875C108.65 13.9275 109.082 14.13 109.417 14.395C109.387 14.49 109.322 14.635 109.222 14.83C109.127 15.025 109.01 15.235 108.87 15.46C108.735 15.68 108.59 15.8825 108.435 16.0675C108.23 15.8925 107.972 15.725 107.662 15.565C107.352 15.405 107.027 15.325 106.687 15.325C106.517 15.325 106.347 15.3425 106.177 15.3775C106.012 15.4125 105.875 15.475 105.765 15.565C105.66 15.655 105.607 15.7775 105.607 15.9325C105.607 16.0825 105.665 16.2175 105.78 16.3375C105.895 16.4525 106.062 16.565 106.282 16.675C106.507 16.785 106.77 16.9 107.07 17.02C107.37 17.14 107.675 17.2825 107.985 17.4475C108.295 17.6075 108.58 17.8 108.84 18.025C109.105 18.25 109.317 18.5125 109.477 18.8125C109.637 19.1075 109.717 19.4475 109.717 19.8325C109.717 20.4475 109.565 20.96 109.26 21.37C108.955 21.78 108.547 22.085 108.037 22.285C107.532 22.49 106.977 22.5925 106.372 22.5925ZM113.319 21.985C113.234 21.99 113.072 22 112.832 22.015C112.597 22.035 112.347 22.045 112.082 22.045C111.887 22.045 111.689 22.0375 111.489 22.0225C111.294 22.0125 111.102 21.9975 110.912 21.9775C110.937 21.8475 110.964 21.5825 110.994 21.1825C111.029 20.7775 111.062 20.3025 111.092 19.7575C111.127 19.2125 111.159 18.65 111.189 18.07C111.224 17.485 111.249 16.9375 111.264 16.4275C111.284 15.9175 111.294 15.5075 111.294 15.1975C111.394 15.1925 111.542 15.185 111.737 15.175C111.932 15.165 112.142 15.1575 112.367 15.1525C112.592 15.1425 112.807 15.135 113.012 15.13C113.217 15.12 113.379 15.115 113.499 15.115C113.524 15.27 113.544 15.52 113.559 15.865C113.574 16.21 113.582 16.595 113.582 17.02C113.582 17.475 113.574 17.9575 113.559 18.4675C113.549 18.9775 113.532 19.4725 113.507 19.9525C113.487 20.4275 113.459 20.8475 113.424 21.2125C113.389 21.5725 113.354 21.83 113.319 21.985ZM112.479 14.1475C112.029 14.1475 111.652 14.0175 111.347 13.7575C111.042 13.4925 110.889 13.145 110.889 12.715C110.889 12.42 110.962 12.1675 111.107 11.9575C111.252 11.7475 111.439 11.5875 111.669 11.4775C111.904 11.3625 112.152 11.305 112.412 11.305C112.827 11.305 113.169 11.44 113.439 11.71C113.714 11.98 113.852 12.3275 113.852 12.7525C113.852 13.1475 113.722 13.48 113.462 13.75C113.202 14.015 112.874 14.1475 112.479 14.1475ZM117.9 22.0975C117.75 22.1025 117.565 22.1025 117.345 22.0975C117.125 22.0975 116.9 22.095 116.67 22.09C116.485 22.085 116.273 22.0775 116.033 22.0675C115.793 22.0575 115.625 22.0475 115.53 22.0375C115.575 21.6175 115.613 21.1425 115.643 20.6125C115.678 20.0825 115.705 19.495 115.725 18.85C115.745 18.205 115.76 17.5 115.77 16.735C115.78 15.97 115.785 15.1425 115.785 14.2525C115.975 14.2275 116.2 14.2075 116.46 14.1925C116.72 14.1775 116.983 14.17 117.248 14.17C117.433 14.17 117.61 14.175 117.78 14.185C117.955 14.19 118.11 14.205 118.245 14.23C118.245 14.275 118.245 14.3675 118.245 14.5075C118.25 14.6425 118.25 14.7925 118.245 14.9575C118.245 15.1175 118.243 15.2625 118.238 15.3925C118.368 15.2025 118.58 15.005 118.875 14.8C119.17 14.59 119.513 14.4125 119.903 14.2675C120.293 14.1225 120.695 14.05 121.11 14.05C121.875 14.05 122.46 14.205 122.865 14.515C123.27 14.82 123.548 15.28 123.698 15.895C123.848 16.505 123.923 17.27 123.923 18.19C123.923 18.51 123.913 18.885 123.893 19.315C123.878 19.74 123.853 20.1875 123.818 20.6575C123.783 21.1275 123.738 21.5825 123.683 22.0225C123.583 22.0325 123.423 22.04 123.203 22.045C122.988 22.055 122.76 22.06 122.52 22.06C122.265 22.06 122.023 22.055 121.793 22.045C121.563 22.04 121.393 22.0325 121.283 22.0225C121.338 21.7425 121.398 21.3925 121.463 20.9725C121.528 20.5525 121.583 20.105 121.628 19.63C121.673 19.15 121.695 18.6925 121.695 18.2575C121.695 17.8375 121.66 17.4725 121.59 17.1625C121.525 16.8525 121.398 16.6125 121.208 16.4425C121.023 16.2675 120.748 16.18 120.383 16.18C120.083 16.18 119.795 16.2325 119.52 16.3375C119.245 16.4425 118.995 16.5725 118.77 16.7275C118.545 16.8775 118.353 17.025 118.193 17.17C118.188 17.96 118.168 18.675 118.133 19.315C118.098 19.95 118.06 20.5025 118.02 20.9725C117.98 21.4375 117.94 21.8125 117.9 22.0975ZM128.041 21.985C127.956 21.99 127.793 22 127.553 22.015C127.318 22.035 127.068 22.045 126.803 22.045C126.608 22.045 126.411 22.0375 126.211 22.0225C126.016 22.0125 125.823 21.9975 125.633 21.9775C125.658 21.8475 125.686 21.5825 125.716 21.1825C125.751 20.7775 125.783 20.3025 125.813 19.7575C125.848 19.2125 125.881 18.65 125.911 18.07C125.946 17.485 125.971 16.9375 125.986 16.4275C126.006 15.9175 126.016 15.5075 126.016 15.1975C126.116 15.1925 126.263 15.185 126.458 15.175C126.653 15.165 126.863 15.1575 127.088 15.1525C127.313 15.1425 127.528 15.135 127.733 15.13C127.938 15.12 128.101 15.115 128.221 15.115C128.246 15.27 128.266 15.52 128.281 15.865C128.296 16.21 128.303 16.595 128.303 17.02C128.303 17.475 128.296 17.9575 128.281 18.4675C128.271 18.9775 128.253 19.4725 128.228 19.9525C128.208 20.4275 128.181 20.8475 128.146 21.2125C128.111 21.5725 128.076 21.83 128.041 21.985ZM127.201 14.1475C126.751 14.1475 126.373 14.0175 126.068 13.7575C125.763 13.4925 125.611 13.145 125.611 12.715C125.611 12.42 125.683 12.1675 125.828 11.9575C125.973 11.7475 126.161 11.5875 126.391 11.4775C126.626 11.3625 126.873 11.305 127.133 11.305C127.548 11.305 127.891 11.44 128.161 11.71C128.436 11.98 128.573 12.3275 128.573 12.7525C128.573 13.1475 128.443 13.48 128.183 13.75C127.923 14.015 127.596 14.1475 127.201 14.1475ZM132.739 18.7225C132.594 18.7225 132.391 18.72 132.131 18.715C131.871 18.705 131.609 18.6925 131.344 18.6775C131.084 18.6575 130.871 18.6375 130.706 18.6175C130.676 18.1475 130.649 17.6525 130.624 17.1325C130.599 16.6075 130.576 16.0775 130.556 15.5425C130.541 15.0025 130.529 14.465 130.519 13.93C130.509 13.395 130.501 12.8775 130.496 12.3775C130.496 11.8725 130.501 11.3975 130.511 10.9525L133.279 11.0725C133.254 11.2725 133.221 11.605 133.181 12.07C133.141 12.53 133.096 13.06 133.046 13.66C133.001 14.26 132.956 14.8775 132.911 15.5125C132.871 16.1475 132.834 16.7475 132.799 17.3125C132.769 17.8725 132.749 18.3425 132.739 18.7225ZM131.816 22.195C131.356 22.195 130.971 22.055 130.661 21.775C130.356 21.495 130.204 21.1375 130.204 20.7025C130.204 20.2725 130.359 19.935 130.669 19.69C130.984 19.44 131.356 19.315 131.786 19.315C132.221 19.315 132.591 19.445 132.896 19.705C133.206 19.965 133.361 20.2925 133.361 20.6875C133.361 21.1475 133.211 21.515 132.911 21.79C132.616 22.06 132.251 22.195 131.816 22.195Z" fill="white"/>
</svg>
