<svg width="593" height="332" viewBox="0 0 593 332" fill="none" xmlns="http://www.w3.org/2000/svg">
<path d="M395.418 3.86823C365.315 3.86829 280.979 4.39592 171.639 7.87532C125.443 7.87532 29.244 -5.03628 15.9289 3.86823C2.61378 12.7728 3.36701 100.35 2.61381 115.759C1.60954 154.032 10.8412 187.414 2.61381 265.717C-4.35068 332 1.39672 332 34.6142 332H213.459C253.378 332 334.967 326.855 369.614 326.855C404.261 326.855 531.735 329.837 565.252 326.855C592.066 324.469 588.193 316.279 592.367 300.014C584.202 214.599 599.901 204.359 588.978 24.1469C586.718 -13.1323 428.468 3.86817 395.418 3.86823Z" fill="#214868"/>
</svg>
