<svg width="291" height="38" viewBox="0 0 291 38" fill="none" xmlns="http://www.w3.org/2000/svg">
<path d="M5.60301 32.7233C2.17081 29.9368 -0.40334 6.84935 5.60301 4.36149C11.6094 1.87363 108.569 3.36635 159.194 4.36149C209.819 5.35663 276.746 3.8639 285.327 5.35663C293.907 6.84935 291.419 33.4199 286.614 36.2063C280.608 39.6893 173.781 37.2014 148.468 36.2063C123.156 35.2111 9.89325 36.2063 5.60301 32.7233Z" fill="#214868"/>
<path d="M3.60301 29.7233C0.170812 26.9368 -2.40334 3.84935 3.60301 1.36149C9.60935 -1.12637 106.569 0.366353 157.194 1.36149C207.819 2.35663 274.746 0.863904 283.327 2.35663C291.907 3.84935 289.419 30.4199 284.614 33.2063C278.608 36.6893 171.781 34.2014 146.468 33.2063C121.156 32.2111 7.89325 33.2063 3.60301 29.7233Z" fill="#3387DC"/>
<path d="M15.3992 22.12C15.0242 22.12 14.6417 22.075 14.2517 21.985C13.8667 21.895 13.4917 21.7625 13.1267 21.5875C12.7667 21.4125 12.4367 21.1975 12.1367 20.9425C11.8367 20.6825 11.5842 20.385 11.3792 20.05C11.4092 20 11.4892 19.915 11.6192 19.795C11.7492 19.67 11.8992 19.535 12.0692 19.39C12.2392 19.24 12.4067 19.1025 12.5717 18.9775C12.7417 18.8525 12.8817 18.7625 12.9917 18.7075C13.1517 18.8925 13.3217 19.0775 13.5017 19.2625C13.6867 19.4475 13.8817 19.615 14.0867 19.765C14.2967 19.91 14.5217 20.0275 14.7617 20.1175C15.0017 20.2075 15.2567 20.2525 15.5267 20.2525C15.8367 20.2525 16.0817 20.195 16.2617 20.08C16.4467 19.965 16.5792 19.82 16.6592 19.645C16.7392 19.465 16.7792 19.2825 16.7792 19.0975C16.7792 18.9475 16.7417 18.805 16.6667 18.67C16.5917 18.535 16.4792 18.4075 16.3292 18.2875C16.1792 18.1625 15.9917 18.0425 15.7667 17.9275C15.5467 17.8075 15.2867 17.695 14.9867 17.59C14.3867 17.36 13.8442 17.1175 13.3592 16.8625C12.8742 16.6025 12.4867 16.29 12.1967 15.925C11.9117 15.56 11.7692 15.1025 11.7692 14.5525C11.7692 13.9675 11.9317 13.4775 12.2567 13.0825C12.5817 12.6875 13.0117 12.39 13.5467 12.19C14.0817 11.985 14.6567 11.8825 15.2717 11.8825C15.7367 11.8825 16.1867 11.935 16.6217 12.04C17.0617 12.14 17.4717 12.2925 17.8517 12.4975C18.2317 12.7025 18.5592 12.96 18.8342 13.27C18.7592 13.38 18.6417 13.5275 18.4817 13.7125C18.3217 13.8975 18.1517 14.0825 17.9717 14.2675C17.7917 14.4525 17.6392 14.6 17.5142 14.71C17.3142 14.515 17.0917 14.34 16.8467 14.185C16.6017 14.025 16.3442 13.9 16.0742 13.81C15.8042 13.715 15.5317 13.6675 15.2567 13.6675C14.9367 13.6675 14.6667 13.7375 14.4467 13.8775C14.2267 14.0125 14.1167 14.2175 14.1167 14.4925C14.1167 14.6175 14.1442 14.73 14.1992 14.83C14.2592 14.93 14.3417 15.02 14.4467 15.1C14.5517 15.18 14.6767 15.255 14.8217 15.325C14.9667 15.39 15.1292 15.4525 15.3092 15.5125C15.8192 15.6825 16.3042 15.86 16.7642 16.045C17.2292 16.23 17.6392 16.445 17.9942 16.69C18.3542 16.93 18.6367 17.225 18.8417 17.575C19.0467 17.925 19.1492 18.3525 19.1492 18.8575C19.1492 19.3325 19.0567 19.77 18.8717 20.17C18.6867 20.565 18.4267 20.91 18.0917 21.205C17.7617 21.495 17.3667 21.72 16.9067 21.88C16.4517 22.04 15.9492 22.12 15.3992 22.12ZM27.7018 20.6575C27.5618 20.8275 27.3868 20.995 27.1768 21.16C26.9668 21.325 26.7143 21.475 26.4193 21.61C26.1293 21.74 25.7968 21.845 25.4218 21.925C25.0468 22 24.6268 22.0375 24.1618 22.0375C23.4068 22.0375 22.7368 21.895 22.1518 21.61C21.5668 21.32 21.1093 20.8925 20.7793 20.3275C20.4543 19.7575 20.2918 19.05 20.2918 18.205C20.2918 17.36 20.4618 16.625 20.8018 16C21.1418 15.37 21.6168 14.8825 22.2268 14.5375C22.8368 14.1875 23.5493 14.0125 24.3643 14.0125C25.3943 14.0125 26.2043 14.3 26.7943 14.875C27.3893 15.445 27.6993 16.235 27.7243 17.245C27.7293 17.43 27.7268 17.5975 27.7168 17.7475C27.7068 17.8975 27.6868 18.0575 27.6568 18.2275C27.5818 18.2225 27.4218 18.2175 27.1768 18.2125C26.9318 18.2075 26.6543 18.2025 26.3443 18.1975C26.0393 18.1875 25.7493 18.18 25.4743 18.175C25.2043 18.17 25.0043 18.1675 24.8743 18.1675C24.4393 18.1675 24.0168 18.1875 23.6068 18.2275C23.2018 18.2675 22.8618 18.31 22.5868 18.355C22.5868 18.445 22.5918 18.535 22.6018 18.625C22.6168 18.71 22.6368 18.7925 22.6618 18.8725C22.7268 19.0775 22.8393 19.2525 22.9993 19.3975C23.1643 19.5425 23.3593 19.655 23.5843 19.735C23.8143 19.81 24.0568 19.8475 24.3118 19.8475C24.5418 19.8475 24.7518 19.82 24.9418 19.765C25.1368 19.705 25.3143 19.6275 25.4743 19.5325C25.6343 19.4375 25.7793 19.335 25.9093 19.225C26.0443 19.11 26.1693 18.9975 26.2843 18.8875C26.3143 18.9125 26.3918 18.9875 26.5168 19.1125C26.6418 19.2325 26.7818 19.3825 26.9368 19.5625C27.0918 19.7375 27.2393 19.9225 27.3793 20.1175C27.5193 20.3125 27.6268 20.4925 27.7018 20.6575ZM22.6693 16.9525C22.8943 16.9175 23.1718 16.885 23.5018 16.855C23.8318 16.825 24.2143 16.81 24.6493 16.81C24.8843 16.81 25.0918 16.8125 25.2718 16.8175C25.4568 16.8225 25.5868 16.8275 25.6618 16.8325C25.6618 16.7275 25.6468 16.6125 25.6168 16.4875C25.5768 16.3175 25.4968 16.155 25.3768 16C25.2618 15.845 25.1118 15.72 24.9268 15.625C24.7468 15.53 24.5293 15.4825 24.2743 15.4825C23.9543 15.4825 23.6743 15.5525 23.4343 15.6925C23.1993 15.8325 23.0168 16.015 22.8868 16.24C22.7568 16.465 22.6843 16.7025 22.6693 16.9525ZM29.1286 22.0525C29.1136 21.8775 29.0986 21.585 29.0836 21.175C29.0686 20.76 29.0511 20.2725 29.0311 19.7125C29.0111 19.1475 28.9911 18.5425 28.9711 17.8975C28.9511 17.2475 28.9336 16.5975 28.9186 15.9475C28.9036 15.2925 28.8886 14.6725 28.8736 14.0875C28.8586 13.5025 28.8461 12.985 28.8361 12.535C28.8261 12.085 28.8211 11.7475 28.8211 11.5225C28.8911 11.5075 29.1311 11.465 29.5411 11.395C29.9561 11.32 30.4636 11.2375 31.0636 11.1475C31.0636 11.4625 31.0661 11.8925 31.0711 12.4375C31.0811 12.9825 31.0961 13.5825 31.1161 14.2375C31.1361 14.8875 31.1636 15.535 31.1986 16.18C31.3086 16.065 31.4461 15.945 31.6111 15.82C31.7761 15.695 31.9636 15.58 32.1736 15.475C32.3836 15.365 32.6086 15.2775 32.8486 15.2125C33.0936 15.1425 33.3461 15.1075 33.6061 15.1075C34.1911 15.1075 34.7011 15.2425 35.1361 15.5125C35.5761 15.7825 35.9161 16.185 36.1561 16.72C36.4011 17.25 36.5236 17.905 36.5236 18.685C36.5236 19.7 36.2536 20.505 35.7136 21.1C35.1786 21.69 34.4536 21.985 33.5386 21.985C33.1786 21.985 32.8561 21.9375 32.5711 21.8425C32.2911 21.7425 32.0561 21.6275 31.8661 21.4975C31.6811 21.3625 31.5486 21.245 31.4686 21.145C31.4736 21.24 31.4786 21.36 31.4836 21.505C31.4936 21.65 31.5011 21.7825 31.5061 21.9025C31.5161 22.0225 31.5211 22.1025 31.5211 22.1425C31.0911 22.1475 30.6636 22.1425 30.2386 22.1275C29.8136 22.1125 29.4436 22.0875 29.1286 22.0525ZM31.4011 19.465C31.4811 19.515 31.5961 19.575 31.7461 19.645C31.8961 19.715 32.0711 19.7775 32.2711 19.8325C32.4711 19.8825 32.6786 19.9075 32.8936 19.9075C33.4136 19.9075 33.7911 19.79 34.0261 19.555C34.2611 19.315 34.3786 18.97 34.3786 18.52C34.3786 18.25 34.3361 18.0025 34.2511 17.7775C34.1661 17.5475 34.0336 17.365 33.8536 17.23C33.6736 17.095 33.4386 17.0275 33.1486 17.0275C32.8286 17.0275 32.5486 17.0825 32.3086 17.1925C32.0686 17.3025 31.8661 17.435 31.7011 17.59C31.5411 17.745 31.4136 17.885 31.3186 18.01C31.3186 18.05 31.3211 18.12 31.3261 18.22C31.3311 18.315 31.3361 18.425 31.3411 18.55C31.3511 18.675 31.3586 18.8 31.3636 18.925C31.3736 19.05 31.3811 19.16 31.3861 19.255C31.3911 19.35 31.3961 19.42 31.4011 19.465ZM40.9227 22.1275C40.3077 22.1275 39.7452 22.045 39.2352 21.88C38.7252 21.71 38.3177 21.4375 38.0127 21.0625C37.7127 20.6825 37.5627 20.18 37.5627 19.555C37.5627 18.93 37.7377 18.4275 38.0877 18.0475C38.4427 17.6625 38.9077 17.385 39.4827 17.215C40.0627 17.04 40.6852 16.9525 41.3502 16.9525C41.6102 16.9525 41.8602 16.9725 42.1002 17.0125C42.3402 17.0525 42.5502 17.1 42.7302 17.155C42.9152 17.21 43.0477 17.2625 43.1277 17.3125C43.1227 17.1825 43.0952 17.045 43.0452 16.9C43.0002 16.755 42.9352 16.6325 42.8502 16.5325C42.7002 16.3275 42.4952 16.1575 42.2352 16.0225C41.9802 15.8825 41.6427 15.8125 41.2227 15.8125C40.7977 15.8125 40.4227 15.91 40.0977 16.105C39.7727 16.295 39.5252 16.51 39.3552 16.75L37.5252 15.5725C37.7502 15.2525 38.0527 14.9725 38.4327 14.7325C38.8177 14.4925 39.2527 14.305 39.7377 14.17C40.2277 14.035 40.7402 13.9675 41.2752 13.9675C42.1602 13.9675 42.8777 14.1125 43.4277 14.4025C43.9777 14.6925 44.3852 15.0975 44.6502 15.6175C44.7752 15.8675 44.8777 16.1425 44.9577 16.4425C45.0377 16.7425 45.0927 17.0875 45.1227 17.4775C45.1427 17.8125 45.1577 18.125 45.1677 18.415C45.1777 18.705 45.1877 18.98 45.1977 19.24C45.2077 19.62 45.2502 19.8675 45.3252 19.9825C45.4002 20.0975 45.5077 20.155 45.6477 20.155C45.7777 20.155 45.8927 20.12 45.9927 20.05C46.0977 19.975 46.1652 19.8775 46.1952 19.7575L46.9752 21.25C46.9202 21.48 46.7652 21.6725 46.5102 21.8275C46.2552 21.9825 45.9327 22.06 45.5427 22.06C45.2577 22.06 44.9877 22.0125 44.7327 21.9175C44.4777 21.8175 44.2677 21.685 44.1027 21.52C43.9377 21.35 43.8402 21.1575 43.8102 20.9425C43.7302 21.1325 43.5627 21.32 43.3077 21.505C43.0527 21.685 42.7252 21.835 42.3252 21.955C41.9252 22.07 41.4577 22.1275 40.9227 22.1275ZM41.4252 20.365C41.6602 20.365 41.9002 20.33 42.1452 20.26C42.3952 20.185 42.6202 20.0925 42.8202 19.9825C43.0252 19.8725 43.1827 19.76 43.2927 19.645C43.2827 19.49 43.2727 19.33 43.2627 19.165C43.2577 19 43.2577 18.86 43.2627 18.745C43.1527 18.7 42.9427 18.6525 42.6327 18.6025C42.3277 18.5475 42.0077 18.52 41.6727 18.52C41.3677 18.52 41.0827 18.5525 40.8177 18.6175C40.5527 18.6825 40.3352 18.7825 40.1652 18.9175C40.0002 19.0525 39.9177 19.2275 39.9177 19.4425C39.9177 19.6725 39.9802 19.855 40.1052 19.99C40.2302 20.125 40.4052 20.2225 40.6302 20.2825C40.8552 20.3375 41.1202 20.365 41.4252 20.365ZM49.5021 15.28C49.6171 15.055 49.7921 14.84 50.0271 14.635C50.2671 14.43 50.5496 14.2625 50.8746 14.1325C51.2046 14.0025 51.5546 13.9375 51.9246 13.9375C52.1496 13.9375 52.3771 13.96 52.6071 14.005C52.8371 14.05 53.0046 14.11 53.1096 14.185L52.6446 16.57C52.5346 16.525 52.3921 16.475 52.2171 16.42C52.0421 16.365 51.8421 16.3375 51.6171 16.3375C51.3871 16.3375 51.1621 16.3775 50.9421 16.4575C50.7271 16.5325 50.5271 16.64 50.3421 16.78C50.1571 16.92 49.9946 17.0875 49.8546 17.2825C49.9046 17.5725 49.9596 17.9425 50.0196 18.3925C50.0846 18.8425 50.1446 19.305 50.1996 19.78C50.2546 20.255 50.2996 20.6875 50.3346 21.0775C50.3696 21.4675 50.3871 21.7525 50.3871 21.9325C50.0371 21.9775 49.6321 22.0075 49.1721 22.0225C48.7121 22.0375 48.2696 22.0425 47.8446 22.0375C47.8446 21.6175 47.8321 21.14 47.8071 20.605C47.7871 20.07 47.7571 19.5125 47.7171 18.9325C47.6771 18.3475 47.6271 17.7725 47.5671 17.2075C47.5121 16.6375 47.4471 16.11 47.3721 15.625C47.3021 15.14 47.2271 14.7275 47.1471 14.3875C47.3871 14.3175 47.6521 14.2525 47.9421 14.1925C48.2321 14.1325 48.4946 14.085 48.7296 14.05C48.9646 14.01 49.1146 13.9875 49.1796 13.9825C49.2396 14.1225 49.3071 14.33 49.3821 14.605C49.4571 14.875 49.4971 15.1 49.5021 15.28ZM59.6564 22.39C59.5864 22.24 59.4764 22.0475 59.3264 21.8125C59.1814 21.5725 59.0139 21.32 58.8239 21.055C58.6389 20.785 58.4439 20.5225 58.2389 20.2675C58.0389 20.0125 57.8464 19.79 57.6614 19.6C57.4764 19.405 57.3164 19.2675 57.1814 19.1875C57.1114 19.2325 57.0239 19.2975 56.9189 19.3825C56.8139 19.4625 56.7164 19.54 56.6264 19.615C56.5364 19.69 56.4739 19.745 56.4389 19.78C56.4339 19.995 56.4264 20.22 56.4164 20.455C56.4064 20.69 56.3964 20.92 56.3864 21.145C56.3764 21.365 56.3639 21.5675 56.3489 21.7525C56.3389 21.9325 56.3289 22.075 56.3189 22.18C56.1339 22.2 55.9489 22.215 55.7639 22.225C55.5789 22.235 55.3939 22.24 55.2089 22.24C54.9689 22.24 54.7414 22.23 54.5264 22.21C54.3114 22.195 54.1239 22.18 53.9639 22.165C53.9689 22.045 53.9814 21.7825 54.0014 21.3775C54.0264 20.9675 54.0514 20.465 54.0764 19.87C54.1064 19.27 54.1364 18.62 54.1664 17.92C54.2014 17.215 54.2339 16.5075 54.2639 15.7975C54.2989 15.0825 54.3289 14.41 54.3539 13.78C54.3839 13.145 54.4064 12.5975 54.4214 12.1375C54.4364 11.6725 54.4439 11.3425 54.4439 11.1475C54.6039 11.1325 54.7689 11.12 54.9389 11.11C55.1089 11.1 55.2764 11.095 55.4414 11.095C55.6764 11.095 55.9039 11.1075 56.1239 11.1325C56.3489 11.1575 56.5564 11.1975 56.7464 11.2525C56.7464 11.6425 56.7414 12.07 56.7314 12.535C56.7264 13 56.7139 13.4725 56.6939 13.9525C56.6789 14.4325 56.6614 14.89 56.6414 15.325C56.6214 15.76 56.6014 16.1475 56.5814 16.4875C56.5664 16.8225 56.5514 17.0775 56.5364 17.2525C56.7914 16.9875 57.0889 16.7175 57.4289 16.4425C57.7689 16.1675 58.1214 15.9025 58.4864 15.6475C58.8514 15.3875 59.2039 15.145 59.5439 14.92C59.8889 14.69 60.1889 14.49 60.4439 14.32C60.5239 14.395 60.6239 14.5075 60.7439 14.6575C60.8639 14.8025 60.9864 14.965 61.1114 15.145C61.2414 15.32 61.3614 15.49 61.4714 15.655C61.5814 15.82 61.6689 15.9575 61.7339 16.0675C61.5339 16.1925 61.2989 16.3425 61.0289 16.5175C60.7589 16.6875 60.4814 16.865 60.1964 17.05C59.9164 17.235 59.6564 17.41 59.4164 17.575C59.1764 17.74 58.9889 17.8725 58.8539 17.9725C58.9839 18.0575 59.1414 18.1875 59.3264 18.3625C59.5114 18.5375 59.7114 18.7425 59.9264 18.9775C60.1464 19.2125 60.3689 19.47 60.5939 19.75C60.8189 20.025 61.0414 20.315 61.2614 20.62C61.4814 20.92 61.6814 21.2225 61.8614 21.5275C61.7864 21.5725 61.6514 21.6375 61.4564 21.7225C61.2614 21.8025 61.0439 21.89 60.8039 21.985C60.5639 22.08 60.3389 22.165 60.1289 22.24C59.9189 22.315 59.7614 22.365 59.6564 22.39ZM65.4002 22.1275C64.7852 22.1275 64.2227 22.045 63.7127 21.88C63.2027 21.71 62.7952 21.4375 62.4902 21.0625C62.1902 20.6825 62.0402 20.18 62.0402 19.555C62.0402 18.93 62.2152 18.4275 62.5652 18.0475C62.9202 17.6625 63.3852 17.385 63.9602 17.215C64.5402 17.04 65.1627 16.9525 65.8277 16.9525C66.0877 16.9525 66.3377 16.9725 66.5777 17.0125C66.8177 17.0525 67.0277 17.1 67.2077 17.155C67.3927 17.21 67.5252 17.2625 67.6052 17.3125C67.6002 17.1825 67.5727 17.045 67.5227 16.9C67.4777 16.755 67.4127 16.6325 67.3277 16.5325C67.1777 16.3275 66.9727 16.1575 66.7127 16.0225C66.4577 15.8825 66.1202 15.8125 65.7002 15.8125C65.2752 15.8125 64.9002 15.91 64.5752 16.105C64.2502 16.295 64.0027 16.51 63.8327 16.75L62.0027 15.5725C62.2277 15.2525 62.5302 14.9725 62.9102 14.7325C63.2952 14.4925 63.7302 14.305 64.2152 14.17C64.7052 14.035 65.2177 13.9675 65.7527 13.9675C66.6377 13.9675 67.3552 14.1125 67.9052 14.4025C68.4552 14.6925 68.8627 15.0975 69.1277 15.6175C69.2527 15.8675 69.3552 16.1425 69.4352 16.4425C69.5152 16.7425 69.5702 17.0875 69.6002 17.4775C69.6202 17.8125 69.6352 18.125 69.6452 18.415C69.6552 18.705 69.6652 18.98 69.6752 19.24C69.6852 19.62 69.7277 19.8675 69.8027 19.9825C69.8777 20.0975 69.9852 20.155 70.1252 20.155C70.2552 20.155 70.3702 20.12 70.4702 20.05C70.5752 19.975 70.6427 19.8775 70.6727 19.7575L71.4527 21.25C71.3977 21.48 71.2427 21.6725 70.9877 21.8275C70.7327 21.9825 70.4102 22.06 70.0202 22.06C69.7352 22.06 69.4652 22.0125 69.2102 21.9175C68.9552 21.8175 68.7452 21.685 68.5802 21.52C68.4152 21.35 68.3177 21.1575 68.2877 20.9425C68.2077 21.1325 68.0402 21.32 67.7852 21.505C67.5302 21.685 67.2027 21.835 66.8027 21.955C66.4027 22.07 65.9352 22.1275 65.4002 22.1275ZM65.9027 20.365C66.1377 20.365 66.3777 20.33 66.6227 20.26C66.8727 20.185 67.0977 20.0925 67.2977 19.9825C67.5027 19.8725 67.6602 19.76 67.7702 19.645C67.7602 19.49 67.7502 19.33 67.7402 19.165C67.7352 19 67.7352 18.86 67.7402 18.745C67.6302 18.7 67.4202 18.6525 67.1102 18.6025C66.8052 18.5475 66.4852 18.52 66.1502 18.52C65.8452 18.52 65.5602 18.5525 65.2952 18.6175C65.0302 18.6825 64.8127 18.7825 64.6427 18.9175C64.4777 19.0525 64.3952 19.2275 64.3952 19.4425C64.3952 19.6725 64.4577 19.855 64.5827 19.99C64.7077 20.125 64.8827 20.2225 65.1077 20.2825C65.3327 20.3375 65.5977 20.365 65.9027 20.365ZM74.3396 22.0975C74.1896 22.1025 74.0046 22.1025 73.7846 22.0975C73.5646 22.0975 73.3396 22.095 73.1096 22.09C72.9246 22.085 72.7121 22.0775 72.4721 22.0675C72.2321 22.0575 72.0646 22.0475 71.9696 22.0375C72.0146 21.6175 72.0521 21.1425 72.0821 20.6125C72.1171 20.0825 72.1446 19.495 72.1646 18.85C72.1846 18.205 72.1996 17.5 72.2096 16.735C72.2196 15.97 72.2246 15.1425 72.2246 14.2525C72.4146 14.2275 72.6396 14.2075 72.8996 14.1925C73.1596 14.1775 73.4221 14.17 73.6871 14.17C73.8721 14.17 74.0496 14.175 74.2196 14.185C74.3946 14.19 74.5496 14.205 74.6846 14.23C74.6846 14.275 74.6846 14.3675 74.6846 14.5075C74.6896 14.6425 74.6896 14.7925 74.6846 14.9575C74.6846 15.1175 74.6821 15.2625 74.6771 15.3925C74.8071 15.2025 75.0196 15.005 75.3146 14.8C75.6096 14.59 75.9521 14.4125 76.3421 14.2675C76.7321 14.1225 77.1346 14.05 77.5496 14.05C78.3146 14.05 78.8996 14.205 79.3046 14.515C79.7096 14.82 79.9871 15.28 80.1371 15.895C80.2871 16.505 80.3621 17.27 80.3621 18.19C80.3621 18.51 80.3521 18.885 80.3321 19.315C80.3171 19.74 80.2921 20.1875 80.2571 20.6575C80.2221 21.1275 80.1771 21.5825 80.1221 22.0225C80.0221 22.0325 79.8621 22.04 79.6421 22.045C79.4271 22.055 79.1996 22.06 78.9596 22.06C78.7046 22.06 78.4621 22.055 78.2321 22.045C78.0021 22.04 77.8321 22.0325 77.7221 22.0225C77.7771 21.7425 77.8371 21.3925 77.9021 20.9725C77.9671 20.5525 78.0221 20.105 78.0671 19.63C78.1121 19.15 78.1346 18.6925 78.1346 18.2575C78.1346 17.8375 78.0996 17.4725 78.0296 17.1625C77.9646 16.8525 77.8371 16.6125 77.6471 16.4425C77.4621 16.2675 77.1871 16.18 76.8221 16.18C76.5221 16.18 76.2346 16.2325 75.9596 16.3375C75.6846 16.4425 75.4346 16.5725 75.2096 16.7275C74.9846 16.8775 74.7921 17.025 74.6321 17.17C74.6271 17.96 74.6071 18.675 74.5721 19.315C74.5371 19.95 74.4996 20.5025 74.4596 20.9725C74.4196 21.4375 74.3796 21.8125 74.3396 22.0975ZM86.6645 22C86.6645 21.615 86.667 21.1325 86.672 20.5525C86.677 19.9725 86.6845 19.34 86.6945 18.655C86.7045 17.965 86.717 17.26 86.732 16.54C86.747 15.82 86.7645 15.125 86.7845 14.455C86.8045 13.785 86.8295 13.1825 86.8595 12.6475C87.0995 12.6225 87.382 12.6025 87.707 12.5875C88.037 12.5725 88.3595 12.5625 88.6745 12.5575C88.9945 12.5475 89.2645 12.5425 89.4845 12.5425C89.7045 12.5375 89.827 12.535 89.852 12.535C89.862 12.555 89.897 12.675 89.957 12.895C90.022 13.115 90.102 13.4 90.197 13.75C90.297 14.1 90.4045 14.485 90.5195 14.905C90.6345 15.325 90.7495 15.7525 90.8645 16.1875C90.9845 16.6225 91.097 17.035 91.202 17.425C91.307 17.81 91.392 18.1425 91.457 18.4225C91.527 18.7025 91.572 18.895 91.592 19L91.3145 19.0375C91.3645 18.8975 91.4395 18.6675 91.5395 18.3475C91.6395 18.0275 91.752 17.6575 91.877 17.2375C92.007 16.8125 92.137 16.3675 92.267 15.9025C92.402 15.4325 92.532 14.9775 92.657 14.5375C92.782 14.0975 92.8895 13.705 92.9795 13.36C93.0745 13.01 93.142 12.745 93.182 12.565C93.392 12.565 93.6595 12.57 93.9845 12.58C94.3145 12.59 94.647 12.605 94.982 12.625C95.317 12.645 95.5945 12.675 95.8145 12.715C95.9145 13.165 95.9845 13.7475 96.0245 14.4625C96.0645 15.1725 96.0845 15.925 96.0845 16.72C96.0845 17.36 96.0745 18.01 96.0545 18.67C96.0395 19.325 96.017 19.94 95.987 20.515C95.957 21.09 95.9245 21.575 95.8895 21.97C95.6445 21.97 95.3795 21.965 95.0945 21.955C94.8095 21.945 94.537 21.9325 94.277 21.9175C94.022 21.8975 93.8195 21.8825 93.6695 21.8725C93.6945 21.5475 93.717 21.13 93.737 20.62C93.762 20.11 93.782 19.5825 93.797 19.0375C93.812 18.7025 93.822 18.365 93.827 18.025C93.837 17.685 93.8445 17.375 93.8495 17.095C93.8595 16.815 93.867 16.5975 93.872 16.4425C93.817 16.6375 93.7395 16.8925 93.6395 17.2075C93.5445 17.5175 93.4345 17.86 93.3095 18.235C93.1895 18.61 93.062 18.99 92.927 19.375C92.797 19.755 92.6695 20.1175 92.5445 20.4625C92.4245 20.8075 92.317 21.105 92.222 21.355C92.132 21.605 92.062 21.78 92.012 21.88C91.942 21.885 91.8345 21.89 91.6895 21.895C91.5495 21.895 91.442 21.895 91.367 21.895C91.232 21.895 91.092 21.89 90.947 21.88C90.807 21.865 90.652 21.8475 90.482 21.8275C90.467 21.7625 90.4345 21.6275 90.3845 21.4225C90.3395 21.2175 90.2795 20.965 90.2045 20.665C90.1295 20.365 90.047 20.0375 89.957 19.6825C89.872 19.3225 89.7845 18.9575 89.6945 18.5875C89.6045 18.2125 89.5145 17.85 89.4245 17.5C89.3345 17.15 89.252 16.8325 89.177 16.5475C89.107 16.2625 89.047 16.0325 88.997 15.8575C89.002 16.3325 89.0045 16.8375 89.0045 17.3725C89.0095 17.9075 89.012 18.4325 89.012 18.9475C89.012 19.4625 89.012 19.9375 89.012 20.3725C89.017 20.8025 89.0195 21.16 89.0195 21.445C89.0195 21.73 89.0195 21.9025 89.0195 21.9625C88.8445 21.9675 88.622 21.975 88.352 21.985C88.082 21.99 87.7995 21.995 87.5045 22C87.2095 22 86.9295 22 86.6645 22ZM102.368 14.665C102.493 14.62 102.671 14.5875 102.901 14.5675C103.136 14.5425 103.363 14.53 103.583 14.53C103.768 14.53 103.973 14.5375 104.198 14.5525C104.423 14.5675 104.606 14.585 104.746 14.605C104.811 15.01 104.861 15.42 104.896 15.835C104.931 16.245 104.948 16.65 104.948 17.05C104.948 17.785 104.883 18.4775 104.753 19.1275C104.628 19.7775 104.421 20.35 104.131 20.845C103.841 21.34 103.453 21.7275 102.968 22.0075C102.483 22.2925 101.886 22.435 101.176 22.435C100.421 22.435 99.7983 22.2875 99.3083 21.9925C98.8183 21.6925 98.4358 21.2775 98.1608 20.7475C97.8858 20.2125 97.6933 19.59 97.5833 18.88C97.4783 18.165 97.4258 17.395 97.4258 16.57C97.4258 16.205 97.4333 15.835 97.4483 15.46C97.4683 15.08 97.4933 14.7025 97.5233 14.3275C97.6533 14.3175 97.8233 14.31 98.0333 14.305C98.2483 14.295 98.4433 14.2925 98.6183 14.2975C98.8683 14.2975 99.1183 14.3125 99.3683 14.3425C99.6233 14.3675 99.8233 14.4025 99.9683 14.4475C99.9333 14.7875 99.9033 15.155 99.8783 15.55C99.8533 15.94 99.8408 16.3325 99.8408 16.7275C99.8408 17.3875 99.8833 17.9825 99.9683 18.5125C100.058 19.0425 100.206 19.4625 100.411 19.7725C100.616 20.0825 100.893 20.2375 101.243 20.2375C101.573 20.2375 101.836 20.0975 102.031 19.8175C102.231 19.5375 102.373 19.1625 102.458 18.6925C102.548 18.2175 102.593 17.6875 102.593 17.1025C102.593 16.6625 102.571 16.23 102.526 15.805C102.486 15.375 102.433 14.995 102.368 14.665ZM109.394 22.5925C108.809 22.5925 108.271 22.52 107.781 22.375C107.296 22.235 106.884 22.07 106.544 21.88C106.209 21.685 105.966 21.51 105.816 21.355C105.846 21.26 105.904 21.1225 105.989 20.9425C106.079 20.7575 106.184 20.5575 106.304 20.3425C106.424 20.1275 106.544 19.9275 106.664 19.7425C106.784 19.5575 106.891 19.42 106.986 19.33C107.226 19.535 107.486 19.7375 107.766 19.9375C108.046 20.1325 108.334 20.2925 108.629 20.4175C108.924 20.5425 109.199 20.605 109.454 20.605C109.654 20.605 109.834 20.58 109.994 20.53C110.154 20.475 110.279 20.395 110.369 20.29C110.464 20.185 110.511 20.055 110.511 19.9C110.511 19.72 110.424 19.5475 110.249 19.3825C110.079 19.2125 109.859 19.0525 109.589 18.9025C109.319 18.7525 109.036 18.6175 108.741 18.4975C108.336 18.3325 107.959 18.14 107.609 17.92C107.259 17.695 106.976 17.42 106.761 17.095C106.546 16.765 106.439 16.355 106.439 15.865C106.439 15.365 106.586 14.945 106.881 14.605C107.176 14.265 107.561 14.0075 108.036 13.8325C108.516 13.6575 109.029 13.57 109.574 13.57C110.089 13.57 110.611 13.6425 111.141 13.7875C111.671 13.9275 112.104 14.13 112.439 14.395C112.409 14.49 112.344 14.635 112.244 14.83C112.149 15.025 112.031 15.235 111.891 15.46C111.756 15.68 111.611 15.8825 111.456 16.0675C111.251 15.8925 110.994 15.725 110.684 15.565C110.374 15.405 110.049 15.325 109.709 15.325C109.539 15.325 109.369 15.3425 109.199 15.3775C109.034 15.4125 108.896 15.475 108.786 15.565C108.681 15.655 108.629 15.7775 108.629 15.9325C108.629 16.0825 108.686 16.2175 108.801 16.3375C108.916 16.4525 109.084 16.565 109.304 16.675C109.529 16.785 109.791 16.9 110.091 17.02C110.391 17.14 110.696 17.2825 111.006 17.4475C111.316 17.6075 111.601 17.8 111.861 18.025C112.126 18.25 112.339 18.5125 112.499 18.8125C112.659 19.1075 112.739 19.4475 112.739 19.8325C112.739 20.4475 112.586 20.96 112.281 21.37C111.976 21.78 111.569 22.085 111.059 22.285C110.554 22.49 109.999 22.5925 109.394 22.5925ZM116.341 21.985C116.256 21.99 116.093 22 115.853 22.015C115.618 22.035 115.368 22.045 115.103 22.045C114.908 22.045 114.711 22.0375 114.511 22.0225C114.316 22.0125 114.123 21.9975 113.933 21.9775C113.958 21.8475 113.986 21.5825 114.016 21.1825C114.051 20.7775 114.083 20.3025 114.113 19.7575C114.148 19.2125 114.181 18.65 114.211 18.07C114.246 17.485 114.271 16.9375 114.286 16.4275C114.306 15.9175 114.316 15.5075 114.316 15.1975C114.416 15.1925 114.563 15.185 114.758 15.175C114.953 15.165 115.163 15.1575 115.388 15.1525C115.613 15.1425 115.828 15.135 116.033 15.13C116.238 15.12 116.401 15.115 116.521 15.115C116.546 15.27 116.566 15.52 116.581 15.865C116.596 16.21 116.603 16.595 116.603 17.02C116.603 17.475 116.596 17.9575 116.581 18.4675C116.571 18.9775 116.553 19.4725 116.528 19.9525C116.508 20.4275 116.481 20.8475 116.446 21.2125C116.411 21.5725 116.376 21.83 116.341 21.985ZM115.501 14.1475C115.051 14.1475 114.673 14.0175 114.368 13.7575C114.063 13.4925 113.911 13.145 113.911 12.715C113.911 12.42 113.983 12.1675 114.128 11.9575C114.273 11.7475 114.461 11.5875 114.691 11.4775C114.926 11.3625 115.173 11.305 115.433 11.305C115.848 11.305 116.191 11.44 116.461 11.71C116.736 11.98 116.873 12.3275 116.873 12.7525C116.873 13.1475 116.743 13.48 116.483 13.75C116.223 14.015 115.896 14.1475 115.501 14.1475ZM123.948 22.39C123.878 22.24 123.768 22.0475 123.618 21.8125C123.473 21.5725 123.306 21.32 123.116 21.055C122.931 20.785 122.736 20.5225 122.531 20.2675C122.331 20.0125 122.138 19.79 121.953 19.6C121.768 19.405 121.608 19.2675 121.473 19.1875C121.403 19.2325 121.316 19.2975 121.211 19.3825C121.106 19.4625 121.008 19.54 120.918 19.615C120.828 19.69 120.766 19.745 120.731 19.78C120.726 19.995 120.718 20.22 120.708 20.455C120.698 20.69 120.688 20.92 120.678 21.145C120.668 21.365 120.656 21.5675 120.641 21.7525C120.631 21.9325 120.621 22.075 120.611 22.18C120.426 22.2 120.241 22.215 120.056 22.225C119.871 22.235 119.686 22.24 119.501 22.24C119.261 22.24 119.033 22.23 118.818 22.21C118.603 22.195 118.416 22.18 118.256 22.165C118.261 22.045 118.273 21.7825 118.293 21.3775C118.318 20.9675 118.343 20.465 118.368 19.87C118.398 19.27 118.428 18.62 118.458 17.92C118.493 17.215 118.526 16.5075 118.556 15.7975C118.591 15.0825 118.621 14.41 118.646 13.78C118.676 13.145 118.698 12.5975 118.713 12.1375C118.728 11.6725 118.736 11.3425 118.736 11.1475C118.896 11.1325 119.061 11.12 119.231 11.11C119.401 11.1 119.568 11.095 119.733 11.095C119.968 11.095 120.196 11.1075 120.416 11.1325C120.641 11.1575 120.848 11.1975 121.038 11.2525C121.038 11.6425 121.033 12.07 121.023 12.535C121.018 13 121.006 13.4725 120.986 13.9525C120.971 14.4325 120.953 14.89 120.933 15.325C120.913 15.76 120.893 16.1475 120.873 16.4875C120.858 16.8225 120.843 17.0775 120.828 17.2525C121.083 16.9875 121.381 16.7175 121.721 16.4425C122.061 16.1675 122.413 15.9025 122.778 15.6475C123.143 15.3875 123.496 15.145 123.836 14.92C124.181 14.69 124.481 14.49 124.736 14.32C124.816 14.395 124.916 14.5075 125.036 14.6575C125.156 14.8025 125.278 14.965 125.403 15.145C125.533 15.32 125.653 15.49 125.763 15.655C125.873 15.82 125.961 15.9575 126.026 16.0675C125.826 16.1925 125.591 16.3425 125.321 16.5175C125.051 16.6875 124.773 16.865 124.488 17.05C124.208 17.235 123.948 17.41 123.708 17.575C123.468 17.74 123.281 17.8725 123.146 17.9725C123.276 18.0575 123.433 18.1875 123.618 18.3625C123.803 18.5375 124.003 18.7425 124.218 18.9775C124.438 19.2125 124.661 19.47 124.886 19.75C125.111 20.025 125.333 20.315 125.553 20.62C125.773 20.92 125.973 21.2225 126.153 21.5275C126.078 21.5725 125.943 21.6375 125.748 21.7225C125.553 21.8025 125.336 21.89 125.096 21.985C124.856 22.08 124.631 22.165 124.421 22.24C124.211 22.315 124.053 22.365 123.948 22.39ZM131.714 21.82C131.729 21.545 131.744 21.1725 131.759 20.7025C131.774 20.2275 131.787 19.695 131.797 19.105C131.807 18.51 131.812 17.8975 131.812 17.2675C131.812 16.6375 131.807 16.015 131.797 15.4C131.787 14.78 131.774 14.2075 131.759 13.6825C131.744 13.1575 131.729 12.7175 131.714 12.3625C131.859 12.3425 132.087 12.32 132.397 12.295C132.707 12.27 133.029 12.2575 133.364 12.2575C133.524 12.2575 133.712 12.2625 133.927 12.2725C134.142 12.2825 134.287 12.295 134.362 12.31C134.372 12.57 134.374 12.9 134.369 13.3C134.369 13.7 134.362 14.1475 134.347 14.6425C134.337 15.1375 134.322 15.6625 134.302 16.2175C134.282 16.7675 134.259 17.32 134.234 17.875C134.219 18.17 134.202 18.4575 134.182 18.7375C134.167 19.0125 134.149 19.2475 134.129 19.4425C134.524 19.4175 134.914 19.3975 135.299 19.3825C135.684 19.3675 136.069 19.355 136.454 19.345C136.844 19.335 137.234 19.33 137.624 19.33C137.644 19.46 137.662 19.665 137.677 19.945C137.692 20.225 137.704 20.525 137.714 20.845C137.724 21.16 137.729 21.435 137.729 21.67C137.129 21.75 136.522 21.81 135.907 21.85C135.297 21.885 134.717 21.905 134.167 21.91C133.712 21.915 133.272 21.91 132.847 21.895C132.427 21.875 132.049 21.85 131.714 21.82ZM142.687 22.165C141.362 22.165 140.364 21.815 139.694 21.115C139.024 20.41 138.689 19.3875 138.689 18.0475C138.689 17.1525 138.862 16.41 139.207 15.82C139.552 15.225 140.029 14.7775 140.639 14.4775C141.254 14.1775 141.964 14.0275 142.769 14.0275C143.589 14.0275 144.269 14.215 144.809 14.59C145.354 14.965 145.762 15.4825 146.032 16.1425C146.302 16.8025 146.437 17.565 146.437 18.43C146.437 19.185 146.292 19.8425 146.002 20.4025C145.712 20.9625 145.287 21.3975 144.727 21.7075C144.172 22.0125 143.492 22.165 142.687 22.165ZM142.604 20.0125C142.879 20.0125 143.122 19.965 143.332 19.87C143.547 19.775 143.727 19.64 143.872 19.465C144.022 19.285 144.134 19.075 144.209 18.835C144.284 18.595 144.322 18.3325 144.322 18.0475C144.322 17.6025 144.257 17.21 144.127 16.87C144.002 16.525 143.814 16.2575 143.564 16.0675C143.319 15.8725 143.014 15.775 142.649 15.775C142.254 15.775 141.932 15.875 141.682 16.075C141.432 16.275 141.247 16.5375 141.127 16.8625C141.012 17.1825 140.954 17.525 140.954 17.89C140.954 18.505 141.094 19.0125 141.374 19.4125C141.659 19.8125 142.069 20.0125 142.604 20.0125ZM152.864 22.39C152.794 22.24 152.684 22.0475 152.534 21.8125C152.389 21.5725 152.222 21.32 152.032 21.055C151.847 20.785 151.652 20.5225 151.447 20.2675C151.247 20.0125 151.054 19.79 150.869 19.6C150.684 19.405 150.524 19.2675 150.389 19.1875C150.319 19.2325 150.232 19.2975 150.127 19.3825C150.022 19.4625 149.924 19.54 149.834 19.615C149.744 19.69 149.682 19.745 149.647 19.78C149.642 19.995 149.634 20.22 149.624 20.455C149.614 20.69 149.604 20.92 149.594 21.145C149.584 21.365 149.572 21.5675 149.557 21.7525C149.547 21.9325 149.537 22.075 149.527 22.18C149.342 22.2 149.157 22.215 148.972 22.225C148.787 22.235 148.602 22.24 148.417 22.24C148.177 22.24 147.949 22.23 147.734 22.21C147.519 22.195 147.332 22.18 147.172 22.165C147.177 22.045 147.189 21.7825 147.209 21.3775C147.234 20.9675 147.259 20.465 147.284 19.87C147.314 19.27 147.344 18.62 147.374 17.92C147.409 17.215 147.442 16.5075 147.472 15.7975C147.507 15.0825 147.537 14.41 147.562 13.78C147.592 13.145 147.614 12.5975 147.629 12.1375C147.644 11.6725 147.652 11.3425 147.652 11.1475C147.812 11.1325 147.977 11.12 148.147 11.11C148.317 11.1 148.484 11.095 148.649 11.095C148.884 11.095 149.112 11.1075 149.332 11.1325C149.557 11.1575 149.764 11.1975 149.954 11.2525C149.954 11.6425 149.949 12.07 149.939 12.535C149.934 13 149.922 13.4725 149.902 13.9525C149.887 14.4325 149.869 14.89 149.849 15.325C149.829 15.76 149.809 16.1475 149.789 16.4875C149.774 16.8225 149.759 17.0775 149.744 17.2525C149.999 16.9875 150.297 16.7175 150.637 16.4425C150.977 16.1675 151.329 15.9025 151.694 15.6475C152.059 15.3875 152.412 15.145 152.752 14.92C153.097 14.69 153.397 14.49 153.652 14.32C153.732 14.395 153.832 14.5075 153.952 14.6575C154.072 14.8025 154.194 14.965 154.319 15.145C154.449 15.32 154.569 15.49 154.679 15.655C154.789 15.82 154.877 15.9575 154.942 16.0675C154.742 16.1925 154.507 16.3425 154.237 16.5175C153.967 16.6875 153.689 16.865 153.404 17.05C153.124 17.235 152.864 17.41 152.624 17.575C152.384 17.74 152.197 17.8725 152.062 17.9725C152.192 18.0575 152.349 18.1875 152.534 18.3625C152.719 18.5375 152.919 18.7425 153.134 18.9775C153.354 19.2125 153.577 19.47 153.802 19.75C154.027 20.025 154.249 20.315 154.469 20.62C154.689 20.92 154.889 21.2225 155.069 21.5275C154.994 21.5725 154.859 21.6375 154.664 21.7225C154.469 21.8025 154.252 21.89 154.012 21.985C153.772 22.08 153.547 22.165 153.337 22.24C153.127 22.315 152.969 22.365 152.864 22.39ZM158.608 22.1275C157.993 22.1275 157.431 22.045 156.921 21.88C156.411 21.71 156.003 21.4375 155.698 21.0625C155.398 20.6825 155.248 20.18 155.248 19.555C155.248 18.93 155.423 18.4275 155.773 18.0475C156.128 17.6625 156.593 17.385 157.168 17.215C157.748 17.04 158.371 16.9525 159.036 16.9525C159.296 16.9525 159.546 16.9725 159.786 17.0125C160.026 17.0525 160.236 17.1 160.416 17.155C160.601 17.21 160.733 17.2625 160.813 17.3125C160.808 17.1825 160.781 17.045 160.731 16.9C160.686 16.755 160.621 16.6325 160.536 16.5325C160.386 16.3275 160.181 16.1575 159.921 16.0225C159.666 15.8825 159.328 15.8125 158.908 15.8125C158.483 15.8125 158.108 15.91 157.783 16.105C157.458 16.295 157.211 16.51 157.041 16.75L155.211 15.5725C155.436 15.2525 155.738 14.9725 156.118 14.7325C156.503 14.4925 156.938 14.305 157.423 14.17C157.913 14.035 158.426 13.9675 158.961 13.9675C159.846 13.9675 160.563 14.1125 161.113 14.4025C161.663 14.6925 162.071 15.0975 162.336 15.6175C162.461 15.8675 162.563 16.1425 162.643 16.4425C162.723 16.7425 162.778 17.0875 162.808 17.4775C162.828 17.8125 162.843 18.125 162.853 18.415C162.863 18.705 162.873 18.98 162.883 19.24C162.893 19.62 162.936 19.8675 163.011 19.9825C163.086 20.0975 163.193 20.155 163.333 20.155C163.463 20.155 163.578 20.12 163.678 20.05C163.783 19.975 163.851 19.8775 163.881 19.7575L164.661 21.25C164.606 21.48 164.451 21.6725 164.196 21.8275C163.941 21.9825 163.618 22.06 163.228 22.06C162.943 22.06 162.673 22.0125 162.418 21.9175C162.163 21.8175 161.953 21.685 161.788 21.52C161.623 21.35 161.526 21.1575 161.496 20.9425C161.416 21.1325 161.248 21.32 160.993 21.505C160.738 21.685 160.411 21.835 160.011 21.955C159.611 22.07 159.143 22.1275 158.608 22.1275ZM159.111 20.365C159.346 20.365 159.586 20.33 159.831 20.26C160.081 20.185 160.306 20.0925 160.506 19.9825C160.711 19.8725 160.868 19.76 160.978 19.645C160.968 19.49 160.958 19.33 160.948 19.165C160.943 19 160.943 18.86 160.948 18.745C160.838 18.7 160.628 18.6525 160.318 18.6025C160.013 18.5475 159.693 18.52 159.358 18.52C159.053 18.52 158.768 18.5525 158.503 18.6175C158.238 18.6825 158.021 18.7825 157.851 18.9175C157.686 19.0525 157.603 19.2275 157.603 19.4425C157.603 19.6725 157.666 19.855 157.791 19.99C157.916 20.125 158.091 20.2225 158.316 20.2825C158.541 20.3375 158.806 20.365 159.111 20.365ZM169.348 21.6475C169.208 21.7975 168.945 21.9425 168.56 22.0825C168.18 22.2275 167.755 22.3 167.285 22.3C166.675 22.3 166.21 22.1575 165.89 21.8725C165.575 21.5875 165.363 21.185 165.253 20.665C165.143 20.14 165.088 19.53 165.088 18.835C165.088 18.29 165.093 17.7425 165.103 17.1925C165.113 16.6425 165.125 16.0975 165.14 15.5575C165.16 15.0175 165.18 14.495 165.2 13.99C165.225 13.48 165.248 12.9975 165.268 12.5425C165.293 12.0825 165.318 11.6625 165.343 11.2825C165.698 11.2575 166.025 11.245 166.325 11.245C166.52 11.245 166.713 11.25 166.903 11.26C167.093 11.27 167.303 11.285 167.533 11.305C167.508 11.74 167.478 12.2225 167.443 12.7525C167.413 13.2775 167.383 13.815 167.353 14.365C167.328 14.915 167.303 15.4475 167.278 15.9625C167.253 16.4775 167.233 16.945 167.218 17.365C167.208 17.78 167.203 18.1125 167.203 18.3625C167.203 18.6875 167.215 18.99 167.24 19.27C167.27 19.545 167.335 19.77 167.435 19.945C167.535 20.115 167.685 20.2 167.885 20.2C168.055 20.2 168.193 20.1625 168.298 20.0875C168.408 20.0075 168.498 19.9075 168.568 19.7875C168.603 19.8475 168.658 19.9675 168.733 20.1475C168.808 20.3225 168.89 20.5175 168.98 20.7325C169.07 20.9475 169.15 21.1425 169.22 21.3175C169.29 21.4875 169.333 21.5975 169.348 21.6475ZM170.334 22.06C170.309 21.735 170.284 21.32 170.259 20.815C170.239 20.31 170.219 19.7625 170.199 19.1725C170.184 18.5775 170.169 17.9875 170.154 17.4025C170.144 16.8175 170.137 16.2775 170.132 15.7825C170.127 15.2825 170.124 14.88 170.124 14.575C170.244 14.545 170.404 14.515 170.604 14.485C170.804 14.45 171.017 14.42 171.242 14.395C171.467 14.365 171.679 14.3425 171.879 14.3275C172.084 14.3075 172.249 14.2975 172.374 14.2975C172.379 14.3775 172.384 14.48 172.389 14.605C172.394 14.725 172.397 14.85 172.397 14.98C172.402 15.11 172.404 15.2275 172.404 15.3325C172.404 15.4375 172.404 15.5175 172.404 15.5725C172.434 15.4775 172.504 15.355 172.614 15.205C172.724 15.055 172.874 14.905 173.064 14.755C173.259 14.605 173.494 14.48 173.769 14.38C174.044 14.275 174.362 14.2225 174.722 14.2225C175.067 14.2225 175.359 14.2875 175.599 14.4175C175.839 14.5475 176.039 14.7175 176.199 14.9275C176.359 15.1375 176.484 15.365 176.574 15.61C176.619 15.73 176.654 15.8525 176.679 15.9775C176.709 16.1025 176.732 16.225 176.747 16.345C176.857 15.98 177.039 15.6325 177.294 15.3025C177.554 14.9675 177.877 14.695 178.262 14.485C178.647 14.27 179.089 14.1625 179.589 14.1625C180.189 14.1625 180.682 14.27 181.067 14.485C181.457 14.7 181.759 15.0175 181.974 15.4375C182.189 15.8575 182.339 16.3725 182.424 16.9825C182.509 17.5925 182.552 18.29 182.552 19.075C182.552 19.385 182.544 19.71 182.529 20.05C182.519 20.39 182.504 20.7325 182.484 21.0775C182.464 21.4225 182.444 21.7575 182.424 22.0825C182.244 22.0925 182.057 22.1 181.862 22.105C181.667 22.115 181.472 22.12 181.277 22.12C181.082 22.12 180.882 22.115 180.677 22.105C180.477 22.1 180.274 22.09 180.069 22.075C180.169 21.33 180.252 20.645 180.317 20.02C180.382 19.39 180.414 18.8375 180.414 18.3625C180.414 17.6675 180.334 17.1375 180.174 16.7725C180.019 16.4075 179.752 16.225 179.372 16.225C179.027 16.225 178.747 16.33 178.532 16.54C178.317 16.75 178.149 17.04 178.029 17.41C177.909 17.78 177.822 18.21 177.767 18.7C177.717 19.185 177.682 19.705 177.662 20.26C177.652 20.54 177.642 20.8325 177.632 21.1375C177.622 21.4425 177.617 21.7525 177.617 22.0675C177.517 22.0725 177.374 22.0775 177.189 22.0825C177.009 22.0925 176.819 22.0975 176.619 22.0975C176.384 22.0975 176.157 22.0925 175.937 22.0825C175.722 22.0775 175.564 22.0675 175.464 22.0525C175.459 21.7125 175.457 21.3925 175.457 21.0925C175.457 20.7925 175.457 20.485 175.457 20.17C175.457 19.6 175.442 19.075 175.412 18.595C175.387 18.11 175.332 17.69 175.247 17.335C175.162 16.975 175.034 16.695 174.864 16.495C174.699 16.295 174.474 16.195 174.189 16.195C173.994 16.195 173.804 16.2375 173.619 16.3225C173.434 16.4075 173.264 16.5175 173.109 16.6525C172.959 16.7875 172.832 16.9375 172.727 17.1025C172.627 17.2625 172.557 17.4225 172.517 17.5825C172.547 18.3775 172.579 19.1025 172.614 19.7575C172.649 20.4125 172.682 20.9475 172.712 21.3625C172.742 21.7725 172.762 22.02 172.772 22.105C172.717 22.11 172.602 22.115 172.427 22.12C172.252 22.125 172.099 22.1275 171.969 22.1275C171.654 22.1275 171.339 22.12 171.024 22.105C170.709 22.09 170.479 22.075 170.334 22.06ZM188.765 14.665C188.89 14.62 189.067 14.5875 189.297 14.5675C189.532 14.5425 189.76 14.53 189.98 14.53C190.165 14.53 190.37 14.5375 190.595 14.5525C190.82 14.5675 191.002 14.585 191.142 14.605C191.207 15.01 191.257 15.42 191.292 15.835C191.327 16.245 191.345 16.65 191.345 17.05C191.345 17.785 191.28 18.4775 191.15 19.1275C191.025 19.7775 190.817 20.35 190.527 20.845C190.237 21.34 189.85 21.7275 189.365 22.0075C188.88 22.2925 188.282 22.435 187.572 22.435C186.817 22.435 186.195 22.2875 185.705 21.9925C185.215 21.6925 184.832 21.2775 184.557 20.7475C184.282 20.2125 184.09 19.59 183.98 18.88C183.875 18.165 183.822 17.395 183.822 16.57C183.822 16.205 183.83 15.835 183.845 15.46C183.865 15.08 183.89 14.7025 183.92 14.3275C184.05 14.3175 184.22 14.31 184.43 14.305C184.645 14.295 184.84 14.2925 185.015 14.2975C185.265 14.2975 185.515 14.3125 185.765 14.3425C186.02 14.3675 186.22 14.4025 186.365 14.4475C186.33 14.7875 186.3 15.155 186.275 15.55C186.25 15.94 186.237 16.3325 186.237 16.7275C186.237 17.3875 186.28 17.9825 186.365 18.5125C186.455 19.0425 186.602 19.4625 186.807 19.7725C187.012 20.0825 187.29 20.2375 187.64 20.2375C187.97 20.2375 188.232 20.0975 188.427 19.8175C188.627 19.5375 188.77 19.1625 188.855 18.6925C188.945 18.2175 188.99 17.6875 188.99 17.1025C188.99 16.6625 188.967 16.23 188.922 15.805C188.882 15.375 188.83 14.995 188.765 14.665ZM200.907 22.12C200.532 22.12 200.15 22.075 199.76 21.985C199.375 21.895 199 21.7625 198.635 21.5875C198.275 21.4125 197.945 21.1975 197.645 20.9425C197.345 20.6825 197.092 20.385 196.887 20.05C196.917 20 196.997 19.915 197.127 19.795C197.257 19.67 197.407 19.535 197.577 19.39C197.747 19.24 197.915 19.1025 198.08 18.9775C198.25 18.8525 198.39 18.7625 198.5 18.7075C198.66 18.8925 198.83 19.0775 199.01 19.2625C199.195 19.4475 199.39 19.615 199.595 19.765C199.805 19.91 200.03 20.0275 200.27 20.1175C200.51 20.2075 200.765 20.2525 201.035 20.2525C201.345 20.2525 201.59 20.195 201.77 20.08C201.955 19.965 202.087 19.82 202.167 19.645C202.247 19.465 202.287 19.2825 202.287 19.0975C202.287 18.9475 202.25 18.805 202.175 18.67C202.1 18.535 201.987 18.4075 201.837 18.2875C201.687 18.1625 201.5 18.0425 201.275 17.9275C201.055 17.8075 200.795 17.695 200.495 17.59C199.895 17.36 199.352 17.1175 198.867 16.8625C198.382 16.6025 197.995 16.29 197.705 15.925C197.42 15.56 197.277 15.1025 197.277 14.5525C197.277 13.9675 197.44 13.4775 197.765 13.0825C198.09 12.6875 198.52 12.39 199.055 12.19C199.59 11.985 200.165 11.8825 200.78 11.8825C201.245 11.8825 201.695 11.935 202.13 12.04C202.57 12.14 202.98 12.2925 203.36 12.4975C203.74 12.7025 204.067 12.96 204.342 13.27C204.267 13.38 204.15 13.5275 203.99 13.7125C203.83 13.8975 203.66 14.0825 203.48 14.2675C203.3 14.4525 203.147 14.6 203.022 14.71C202.822 14.515 202.6 14.34 202.355 14.185C202.11 14.025 201.852 13.9 201.582 13.81C201.312 13.715 201.04 13.6675 200.765 13.6675C200.445 13.6675 200.175 13.7375 199.955 13.8775C199.735 14.0125 199.625 14.2175 199.625 14.4925C199.625 14.6175 199.652 14.73 199.707 14.83C199.767 14.93 199.85 15.02 199.955 15.1C200.06 15.18 200.185 15.255 200.33 15.325C200.475 15.39 200.637 15.4525 200.817 15.5125C201.327 15.6825 201.812 15.86 202.272 16.045C202.737 16.23 203.147 16.445 203.502 16.69C203.862 16.93 204.145 17.225 204.35 17.575C204.555 17.925 204.657 18.3525 204.657 18.8575C204.657 19.3325 204.565 19.77 204.38 20.17C204.195 20.565 203.935 20.91 203.6 21.205C203.27 21.495 202.875 21.72 202.415 21.88C201.96 22.04 201.457 22.12 200.907 22.12ZM213.21 20.6575C213.07 20.8275 212.895 20.995 212.685 21.16C212.475 21.325 212.222 21.475 211.927 21.61C211.637 21.74 211.305 21.845 210.93 21.925C210.555 22 210.135 22.0375 209.67 22.0375C208.915 22.0375 208.245 21.895 207.66 21.61C207.075 21.32 206.617 20.8925 206.287 20.3275C205.962 19.7575 205.8 19.05 205.8 18.205C205.8 17.36 205.97 16.625 206.31 16C206.65 15.37 207.125 14.8825 207.735 14.5375C208.345 14.1875 209.057 14.0125 209.872 14.0125C210.902 14.0125 211.712 14.3 212.302 14.875C212.897 15.445 213.207 16.235 213.232 17.245C213.237 17.43 213.235 17.5975 213.225 17.7475C213.215 17.8975 213.195 18.0575 213.165 18.2275C213.09 18.2225 212.93 18.2175 212.685 18.2125C212.44 18.2075 212.162 18.2025 211.852 18.1975C211.547 18.1875 211.257 18.18 210.982 18.175C210.712 18.17 210.512 18.1675 210.382 18.1675C209.947 18.1675 209.525 18.1875 209.115 18.2275C208.71 18.2675 208.37 18.31 208.095 18.355C208.095 18.445 208.1 18.535 208.11 18.625C208.125 18.71 208.145 18.7925 208.17 18.8725C208.235 19.0775 208.347 19.2525 208.507 19.3975C208.672 19.5425 208.867 19.655 209.092 19.735C209.322 19.81 209.565 19.8475 209.82 19.8475C210.05 19.8475 210.26 19.82 210.45 19.765C210.645 19.705 210.822 19.6275 210.982 19.5325C211.142 19.4375 211.287 19.335 211.417 19.225C211.552 19.11 211.677 18.9975 211.792 18.8875C211.822 18.9125 211.9 18.9875 212.025 19.1125C212.15 19.2325 212.29 19.3825 212.445 19.5625C212.6 19.7375 212.747 19.9225 212.887 20.1175C213.027 20.3125 213.135 20.4925 213.21 20.6575ZM208.177 16.9525C208.402 16.9175 208.68 16.885 209.01 16.855C209.34 16.825 209.722 16.81 210.157 16.81C210.392 16.81 210.6 16.8125 210.78 16.8175C210.965 16.8225 211.095 16.8275 211.17 16.8325C211.17 16.7275 211.155 16.6125 211.125 16.4875C211.085 16.3175 211.005 16.155 210.885 16C210.77 15.845 210.62 15.72 210.435 15.625C210.255 15.53 210.037 15.4825 209.782 15.4825C209.462 15.4825 209.182 15.5525 208.942 15.6925C208.707 15.8325 208.525 16.015 208.395 16.24C208.265 16.465 208.192 16.7025 208.177 16.9525ZM219.969 22.39C219.899 22.24 219.789 22.0475 219.639 21.8125C219.494 21.5725 219.326 21.32 219.136 21.055C218.951 20.785 218.756 20.5225 218.551 20.2675C218.351 20.0125 218.159 19.79 217.974 19.6C217.789 19.405 217.629 19.2675 217.494 19.1875C217.424 19.2325 217.336 19.2975 217.231 19.3825C217.126 19.4625 217.029 19.54 216.939 19.615C216.849 19.69 216.786 19.745 216.751 19.78C216.746 19.995 216.739 20.22 216.729 20.455C216.719 20.69 216.709 20.92 216.699 21.145C216.689 21.365 216.676 21.5675 216.661 21.7525C216.651 21.9325 216.641 22.075 216.631 22.18C216.446 22.2 216.261 22.215 216.076 22.225C215.891 22.235 215.706 22.24 215.521 22.24C215.281 22.24 215.054 22.23 214.839 22.21C214.624 22.195 214.436 22.18 214.276 22.165C214.281 22.045 214.294 21.7825 214.314 21.3775C214.339 20.9675 214.364 20.465 214.389 19.87C214.419 19.27 214.449 18.62 214.479 17.92C214.514 17.215 214.546 16.5075 214.576 15.7975C214.611 15.0825 214.641 14.41 214.666 13.78C214.696 13.145 214.719 12.5975 214.734 12.1375C214.749 11.6725 214.756 11.3425 214.756 11.1475C214.916 11.1325 215.081 11.12 215.251 11.11C215.421 11.1 215.589 11.095 215.754 11.095C215.989 11.095 216.216 11.1075 216.436 11.1325C216.661 11.1575 216.869 11.1975 217.059 11.2525C217.059 11.6425 217.054 12.07 217.044 12.535C217.039 13 217.026 13.4725 217.006 13.9525C216.991 14.4325 216.974 14.89 216.954 15.325C216.934 15.76 216.914 16.1475 216.894 16.4875C216.879 16.8225 216.864 17.0775 216.849 17.2525C217.104 16.9875 217.401 16.7175 217.741 16.4425C218.081 16.1675 218.434 15.9025 218.799 15.6475C219.164 15.3875 219.516 15.145 219.856 14.92C220.201 14.69 220.501 14.49 220.756 14.32C220.836 14.395 220.936 14.5075 221.056 14.6575C221.176 14.8025 221.299 14.965 221.424 15.145C221.554 15.32 221.674 15.49 221.784 15.655C221.894 15.82 221.981 15.9575 222.046 16.0675C221.846 16.1925 221.611 16.3425 221.341 16.5175C221.071 16.6875 220.794 16.865 220.509 17.05C220.229 17.235 219.969 17.41 219.729 17.575C219.489 17.74 219.301 17.8725 219.166 17.9725C219.296 18.0575 219.454 18.1875 219.639 18.3625C219.824 18.5375 220.024 18.7425 220.239 18.9775C220.459 19.2125 220.681 19.47 220.906 19.75C221.131 20.025 221.354 20.315 221.574 20.62C221.794 20.92 221.994 21.2225 222.174 21.5275C222.099 21.5725 221.964 21.6375 221.769 21.7225C221.574 21.8025 221.356 21.89 221.116 21.985C220.876 22.08 220.651 22.165 220.441 22.24C220.231 22.315 220.074 22.365 219.969 22.39ZM225.713 22.1275C225.098 22.1275 224.535 22.045 224.025 21.88C223.515 21.71 223.108 21.4375 222.803 21.0625C222.503 20.6825 222.353 20.18 222.353 19.555C222.353 18.93 222.528 18.4275 222.878 18.0475C223.233 17.6625 223.698 17.385 224.273 17.215C224.853 17.04 225.475 16.9525 226.14 16.9525C226.4 16.9525 226.65 16.9725 226.89 17.0125C227.13 17.0525 227.34 17.1 227.52 17.155C227.705 17.21 227.838 17.2625 227.918 17.3125C227.913 17.1825 227.885 17.045 227.835 16.9C227.79 16.755 227.725 16.6325 227.64 16.5325C227.49 16.3275 227.285 16.1575 227.025 16.0225C226.77 15.8825 226.433 15.8125 226.013 15.8125C225.588 15.8125 225.213 15.91 224.888 16.105C224.563 16.295 224.315 16.51 224.145 16.75L222.315 15.5725C222.54 15.2525 222.843 14.9725 223.223 14.7325C223.608 14.4925 224.043 14.305 224.528 14.17C225.018 14.035 225.53 13.9675 226.065 13.9675C226.95 13.9675 227.668 14.1125 228.218 14.4025C228.768 14.6925 229.175 15.0975 229.44 15.6175C229.565 15.8675 229.668 16.1425 229.748 16.4425C229.828 16.7425 229.883 17.0875 229.913 17.4775C229.933 17.8125 229.948 18.125 229.958 18.415C229.968 18.705 229.978 18.98 229.988 19.24C229.998 19.62 230.04 19.8675 230.115 19.9825C230.19 20.0975 230.298 20.155 230.438 20.155C230.568 20.155 230.683 20.12 230.783 20.05C230.888 19.975 230.955 19.8775 230.985 19.7575L231.765 21.25C231.71 21.48 231.555 21.6725 231.3 21.8275C231.045 21.9825 230.723 22.06 230.333 22.06C230.048 22.06 229.778 22.0125 229.523 21.9175C229.268 21.8175 229.058 21.685 228.893 21.52C228.728 21.35 228.63 21.1575 228.6 20.9425C228.52 21.1325 228.353 21.32 228.098 21.505C227.843 21.685 227.515 21.835 227.115 21.955C226.715 22.07 226.248 22.1275 225.713 22.1275ZM226.215 20.365C226.45 20.365 226.69 20.33 226.935 20.26C227.185 20.185 227.41 20.0925 227.61 19.9825C227.815 19.8725 227.973 19.76 228.083 19.645C228.073 19.49 228.063 19.33 228.053 19.165C228.048 19 228.048 18.86 228.053 18.745C227.943 18.7 227.733 18.6525 227.423 18.6025C227.118 18.5475 226.798 18.52 226.463 18.52C226.158 18.52 225.873 18.5525 225.608 18.6175C225.343 18.6825 225.125 18.7825 224.955 18.9175C224.79 19.0525 224.708 19.2275 224.708 19.4425C224.708 19.6725 224.77 19.855 224.895 19.99C225.02 20.125 225.195 20.2225 225.42 20.2825C225.645 20.3375 225.91 20.365 226.215 20.365ZM234.292 15.28C234.407 15.055 234.582 14.84 234.817 14.635C235.057 14.43 235.34 14.2625 235.665 14.1325C235.995 14.0025 236.345 13.9375 236.715 13.9375C236.94 13.9375 237.167 13.96 237.397 14.005C237.627 14.05 237.795 14.11 237.9 14.185L237.435 16.57C237.325 16.525 237.182 16.475 237.007 16.42C236.832 16.365 236.632 16.3375 236.407 16.3375C236.177 16.3375 235.952 16.3775 235.732 16.4575C235.517 16.5325 235.317 16.64 235.132 16.78C234.947 16.92 234.785 17.0875 234.645 17.2825C234.695 17.5725 234.75 17.9425 234.81 18.3925C234.875 18.8425 234.935 19.305 234.99 19.78C235.045 20.255 235.09 20.6875 235.125 21.0775C235.16 21.4675 235.177 21.7525 235.177 21.9325C234.827 21.9775 234.422 22.0075 233.962 22.0225C233.502 22.0375 233.06 22.0425 232.635 22.0375C232.635 21.6175 232.622 21.14 232.597 20.605C232.577 20.07 232.547 19.5125 232.507 18.9325C232.467 18.3475 232.417 17.7725 232.357 17.2075C232.302 16.6375 232.237 16.11 232.162 15.625C232.092 15.14 232.017 14.7275 231.937 14.3875C232.177 14.3175 232.442 14.2525 232.732 14.1925C233.022 14.1325 233.285 14.085 233.52 14.05C233.755 14.01 233.905 13.9875 233.97 13.9825C234.03 14.1225 234.097 14.33 234.172 14.605C234.247 14.875 234.287 15.1 234.292 15.28ZM241.826 22.1275C241.211 22.1275 240.648 22.045 240.138 21.88C239.628 21.71 239.221 21.4375 238.916 21.0625C238.616 20.6825 238.466 20.18 238.466 19.555C238.466 18.93 238.641 18.4275 238.991 18.0475C239.346 17.6625 239.811 17.385 240.386 17.215C240.966 17.04 241.588 16.9525 242.253 16.9525C242.513 16.9525 242.763 16.9725 243.003 17.0125C243.243 17.0525 243.453 17.1 243.633 17.155C243.818 17.21 243.951 17.2625 244.031 17.3125C244.026 17.1825 243.998 17.045 243.948 16.9C243.903 16.755 243.838 16.6325 243.753 16.5325C243.603 16.3275 243.398 16.1575 243.138 16.0225C242.883 15.8825 242.546 15.8125 242.126 15.8125C241.701 15.8125 241.326 15.91 241.001 16.105C240.676 16.295 240.428 16.51 240.258 16.75L238.428 15.5725C238.653 15.2525 238.956 14.9725 239.336 14.7325C239.721 14.4925 240.156 14.305 240.641 14.17C241.131 14.035 241.643 13.9675 242.178 13.9675C243.063 13.9675 243.781 14.1125 244.331 14.4025C244.881 14.6925 245.288 15.0975 245.553 15.6175C245.678 15.8675 245.781 16.1425 245.861 16.4425C245.941 16.7425 245.996 17.0875 246.026 17.4775C246.046 17.8125 246.061 18.125 246.071 18.415C246.081 18.705 246.091 18.98 246.101 19.24C246.111 19.62 246.153 19.8675 246.228 19.9825C246.303 20.0975 246.411 20.155 246.551 20.155C246.681 20.155 246.796 20.12 246.896 20.05C247.001 19.975 247.068 19.8775 247.098 19.7575L247.878 21.25C247.823 21.48 247.668 21.6725 247.413 21.8275C247.158 21.9825 246.836 22.06 246.446 22.06C246.161 22.06 245.891 22.0125 245.636 21.9175C245.381 21.8175 245.171 21.685 245.006 21.52C244.841 21.35 244.743 21.1575 244.713 20.9425C244.633 21.1325 244.466 21.32 244.211 21.505C243.956 21.685 243.628 21.835 243.228 21.955C242.828 22.07 242.361 22.1275 241.826 22.1275ZM242.328 20.365C242.563 20.365 242.803 20.33 243.048 20.26C243.298 20.185 243.523 20.0925 243.723 19.9825C243.928 19.8725 244.086 19.76 244.196 19.645C244.186 19.49 244.176 19.33 244.166 19.165C244.161 19 244.161 18.86 244.166 18.745C244.056 18.7 243.846 18.6525 243.536 18.6025C243.231 18.5475 242.911 18.52 242.576 18.52C242.271 18.52 241.986 18.5525 241.721 18.6175C241.456 18.6825 241.238 18.7825 241.068 18.9175C240.903 19.0525 240.821 19.2275 240.821 19.4425C240.821 19.6725 240.883 19.855 241.008 19.99C241.133 20.125 241.308 20.2225 241.533 20.2825C241.758 20.3375 242.023 20.365 242.328 20.365ZM250.765 22.0975C250.615 22.1025 250.43 22.1025 250.21 22.0975C249.99 22.0975 249.765 22.095 249.535 22.09C249.35 22.085 249.138 22.0775 248.898 22.0675C248.658 22.0575 248.49 22.0475 248.395 22.0375C248.44 21.6175 248.478 21.1425 248.508 20.6125C248.543 20.0825 248.57 19.495 248.59 18.85C248.61 18.205 248.625 17.5 248.635 16.735C248.645 15.97 248.65 15.1425 248.65 14.2525C248.84 14.2275 249.065 14.2075 249.325 14.1925C249.585 14.1775 249.848 14.17 250.113 14.17C250.298 14.17 250.475 14.175 250.645 14.185C250.82 14.19 250.975 14.205 251.11 14.23C251.11 14.275 251.11 14.3675 251.11 14.5075C251.115 14.6425 251.115 14.7925 251.11 14.9575C251.11 15.1175 251.108 15.2625 251.103 15.3925C251.233 15.2025 251.445 15.005 251.74 14.8C252.035 14.59 252.378 14.4125 252.768 14.2675C253.158 14.1225 253.56 14.05 253.975 14.05C254.74 14.05 255.325 14.205 255.73 14.515C256.135 14.82 256.413 15.28 256.563 15.895C256.713 16.505 256.788 17.27 256.788 18.19C256.788 18.51 256.778 18.885 256.758 19.315C256.743 19.74 256.718 20.1875 256.683 20.6575C256.648 21.1275 256.603 21.5825 256.548 22.0225C256.448 22.0325 256.288 22.04 256.068 22.045C255.853 22.055 255.625 22.06 255.385 22.06C255.13 22.06 254.888 22.055 254.658 22.045C254.428 22.04 254.258 22.0325 254.148 22.0225C254.203 21.7425 254.263 21.3925 254.328 20.9725C254.393 20.5525 254.448 20.105 254.493 19.63C254.538 19.15 254.56 18.6925 254.56 18.2575C254.56 17.8375 254.525 17.4725 254.455 17.1625C254.39 16.8525 254.263 16.6125 254.073 16.4425C253.888 16.2675 253.613 16.18 253.248 16.18C252.948 16.18 252.66 16.2325 252.385 16.3375C252.11 16.4425 251.86 16.5725 251.635 16.7275C251.41 16.8775 251.218 17.025 251.058 17.17C251.053 17.96 251.033 18.675 250.998 19.315C250.963 19.95 250.925 20.5025 250.885 20.9725C250.845 21.4375 250.805 21.8125 250.765 22.0975ZM262.593 20.0725C261.573 20.0725 260.763 19.9275 260.163 19.6375C259.568 19.3475 259.143 18.975 258.888 18.52C258.633 18.06 258.506 17.5775 258.506 17.0725C258.506 16.4225 258.676 15.875 259.016 15.43C259.356 14.985 259.818 14.65 260.403 14.425C260.988 14.195 261.656 14.08 262.406 14.08C263.611 14.08 264.511 14.345 265.106 14.875C265.706 15.405 266.006 16.1075 266.006 16.9825C266.006 17.6625 265.861 18.2325 265.571 18.6925C265.286 19.1475 264.888 19.4925 264.378 19.7275C263.868 19.9575 263.273 20.0725 262.593 20.0725ZM262.256 25.7425C261.476 25.7425 260.766 25.6675 260.126 25.5175C259.491 25.3725 258.983 25.1125 258.603 24.7375C258.228 24.3675 258.041 23.8475 258.041 23.1775C258.041 22.7625 258.176 22.3775 258.446 22.0225C258.716 21.6725 259.103 21.385 259.608 21.16C260.113 20.93 260.711 20.795 261.401 20.755C261.711 20.735 262.038 20.7225 262.383 20.7175C262.733 20.7075 263.143 20.7025 263.613 20.7025C264.408 20.7025 265.058 20.88 265.563 21.235C266.073 21.585 266.328 22.1475 266.328 22.9225C266.328 23.6025 266.148 24.15 265.788 24.565C265.433 24.98 264.948 25.28 264.333 25.465C263.723 25.65 263.031 25.7425 262.256 25.7425ZM262.323 24.2875C262.663 24.2875 262.966 24.2525 263.231 24.1825C263.496 24.1125 263.706 24.0025 263.861 23.8525C264.016 23.7025 264.093 23.505 264.093 23.26C264.093 23.045 264.031 22.875 263.906 22.75C263.786 22.63 263.631 22.545 263.441 22.495C263.256 22.445 263.063 22.42 262.863 22.42C262.728 22.42 262.573 22.42 262.398 22.42C262.223 22.42 262.051 22.42 261.881 22.42C261.716 22.42 261.578 22.42 261.468 22.42C261.283 22.42 261.111 22.4425 260.951 22.4875C260.796 22.5375 260.668 22.625 260.568 22.75C260.473 22.875 260.426 23.0525 260.426 23.2825C260.426 23.5125 260.508 23.7025 260.673 23.8525C260.838 24.0025 261.063 24.1125 261.348 24.1825C261.633 24.2525 261.958 24.2875 262.323 24.2875ZM260.463 21.5275C259.783 21.3875 259.308 21.195 259.038 20.95C258.773 20.705 258.641 20.4325 258.641 20.1325C258.641 19.8975 258.693 19.695 258.798 19.525C258.903 19.35 259.028 19.21 259.173 19.105C259.323 18.995 259.466 18.9225 259.601 18.8875L261.086 19.6375C260.896 19.7025 260.753 19.7875 260.658 19.8925C260.568 19.9925 260.523 20.095 260.523 20.2C260.523 20.34 260.598 20.4675 260.748 20.5825C260.903 20.6975 261.121 20.755 261.401 20.755L260.463 21.5275ZM262.391 18.2875C262.711 18.2875 262.981 18.2375 263.201 18.1375C263.421 18.0375 263.586 17.89 263.696 17.695C263.811 17.5 263.868 17.2625 263.868 16.9825C263.868 16.7525 263.803 16.55 263.673 16.375C263.548 16.2 263.381 16.065 263.171 15.97C262.966 15.87 262.738 15.82 262.488 15.82C262.078 15.82 261.711 15.9075 261.386 16.0825C261.066 16.2575 260.906 16.5675 260.906 17.0125C260.906 17.4275 261.046 17.745 261.326 17.965C261.611 18.18 261.966 18.2875 262.391 18.2875ZM265.376 15.97L264.056 14.86C264.116 14.665 264.228 14.4575 264.393 14.2375C264.563 14.0125 264.756 13.805 264.971 13.615C265.191 13.42 265.403 13.2725 265.608 13.1725C265.678 13.2775 265.778 13.4225 265.908 13.6075C266.038 13.7925 266.173 13.98 266.313 14.17C266.453 14.36 266.573 14.5175 266.673 14.6425C266.558 14.6975 266.433 14.7725 266.298 14.8675C266.168 14.9575 266.041 15.0625 265.916 15.1825C265.791 15.2975 265.681 15.4225 265.586 15.5575C265.491 15.6925 265.421 15.83 265.376 15.97ZM270.262 18.7225C270.117 18.7225 269.914 18.72 269.654 18.715C269.394 18.705 269.132 18.6925 268.867 18.6775C268.607 18.6575 268.394 18.6375 268.229 18.6175C268.199 18.1475 268.172 17.6525 268.147 17.1325C268.122 16.6075 268.099 16.0775 268.079 15.5425C268.064 15.0025 268.052 14.465 268.042 13.93C268.032 13.395 268.024 12.8775 268.019 12.3775C268.019 11.8725 268.024 11.3975 268.034 10.9525L270.802 11.0725C270.777 11.2725 270.744 11.605 270.704 12.07C270.664 12.53 270.619 13.06 270.569 13.66C270.524 14.26 270.479 14.8775 270.434 15.5125C270.394 16.1475 270.357 16.7475 270.322 17.3125C270.292 17.8725 270.272 18.3425 270.262 18.7225ZM269.339 22.195C268.879 22.195 268.494 22.055 268.184 21.775C267.879 21.495 267.727 21.1375 267.727 20.7025C267.727 20.2725 267.882 19.935 268.192 19.69C268.507 19.44 268.879 19.315 269.309 19.315C269.744 19.315 270.114 19.445 270.419 19.705C270.729 19.965 270.884 20.2925 270.884 20.6875C270.884 21.1475 270.734 21.515 270.434 21.79C270.139 22.06 269.774 22.195 269.339 22.195Z" fill="white"/>
</svg>
