<svg xmlns="http://www.w3.org/2000/svg" viewBox="0 0 347.98 58.37"><defs><style>.cls-1,.cls-2{fill:#fff;}.cls-2{fill-rule:evenodd;}</style></defs><g id="Layer_2" data-name="Layer 2"><g id="Layer_1-2" data-name="Layer 1"><path class="cls-1" d="M348,30.17a25.85,25.85,0,0,0-26-25.59h-1.19L315.41,19h4.65c2.77,0,4.25,2,3.27,4.67l-6.54,17.71h-5.54l7.12-19h-4.15l-7,19h-5.54L310,19l5-13.43a25.67,25.67,0,0,0-19,24.62,25.75,25.75,0,0,0,20,24.91l4.85-13L329.27,19h10.19c2.77,0,4.26,2,3.27,4.67L337,39.22a3.6,3.6,0,0,1-3.17,2.14h-7.33l-5.34,14.4h.79A25.73,25.73,0,0,0,348,30.17Z"/><path class="cls-1" d="M337.7,22.34h-4.16L327.79,38H332Z"/><rect class="cls-1" x="261.53" y="2.67" width="2" height="55"/><path class="cls-2" d="M53.17,0c.2.08.48.09.67.18-.68,8.52-6,12.76-15.59,12.12V50.06c6.92-1.62,11.26-6.08,14.5-11.48l.81.33c-2.11,8.81-6.86,15.52-15.07,18.24a31,31,0,0,1-14.8.6,26.41,26.41,0,0,1-11.34-5.3C7.8,48.75,4.52,43.54,4,35.84a25.91,25.91,0,0,1,.6-7.6,27.48,27.48,0,0,1,5.55-11.12,44.28,44.28,0,0,1,8.65-8c-4-.81-8.43-.52-11.4,1a16.52,16.52,0,0,0-6,5.67c-.2.29-.52.88-.73.93s-.45,0-.66,0C.82,11.1,3.16,7,7,4.21S16.08.05,22.6.48C30,1,36.25,3.22,43.22,4.25a15.67,15.67,0,0,0,4.47.15C50.51,4,51.86,2.18,53.11.09,53.14.06,53.13,0,53.17,0ZM12.63,26.58c-.71,8.67,2.31,14.58,6.75,18.42a7.89,7.89,0,0,0,2.05-2.69,10.38,10.38,0,0,0,.64-4.12V9.64a8,8,0,0,1-1-.15C16.85,13.6,13.26,18.85,12.63,26.58ZM30.78,11.15V22.3c0,3.76.22,7.54-.37,10.83-1.13,6.36-5.19,9.72-9.13,13.22,3.31,2.93,8.48,4.56,14.92,4.08V12.17c-1.8-.35-3.57-.74-5.39-1.08C30.8,11,30.76,11.09,30.78,11.15Z"/><path class="cls-2" d="M61.61,2.5a3,3,0,0,1,3.1,2C65.66,7,65,11,63,11.87a3.63,3.63,0,0,1-4.16-1.11A5.79,5.79,0,0,1,58,7.5C58,4.72,58.73,2.51,61.61,2.5Z"/><path class="cls-2" d="M74.75,17.24c.69-1.16,1.26-2.43,2.44-3.11a3.39,3.39,0,0,1,3.41.34A6.44,6.44,0,0,1,82.44,17c1.73,3.89,2.1,10.49.93,15.41-.55,2.34-1.68,4.54-3.37,5.4a3.52,3.52,0,0,1-3.86-.55,7.42,7.42,0,0,1-1.66-3.5c-.07,1.41,0,2.93,0,4.38a63,63,0,0,0-7.41-.7V36.35h1.38c.07-10.44,0-21,0-31.5H67V3.76A54.24,54.24,0,0,0,74.51,3c.26,0,.22,0,.24.3.14,2.24,0,4.54,0,6.75Zm0,3.68c-.07,1.54,0,3.32,0,5.27,0,1.73,0,3.54,0,5.25a13.08,13.08,0,0,0,.28,2.38c.15.66.5,1.53,1.17,1.47s.75-1,.84-1.71a60,60,0,0,0,.15-7.6V20.83a16,16,0,0,0-.12-2.44c-.13-.9-.32-1.71-1-1.57C74.88,17,74.84,19.56,74.78,20.92Z"/><path class="cls-2" d="M198.94,13.35c.07,2.82.14,5.8.15,8.59h-.57c-.69-2.35-1.55-4.9-3.25-6.42-.86-.76-2.81-1.59-3.41-.12a3.34,3.34,0,0,0,.72,3.62,10.78,10.78,0,0,0,1.11.75,22,22,0,0,1,3.2,2.41,9.51,9.51,0,0,1,2.53,4.92,18.65,18.65,0,0,1-.09,6.81c-.44,1.93-1.37,3.75-3.22,4.36a5.69,5.69,0,0,1-1.66.34,3.71,3.71,0,0,1-2-.72c-.58-.34-1.11-.64-1.66-1-.55.39-1.1.86-1.68,1.33a1.37,1.37,0,0,1-1.3.42c0-3.08-.17-6.22-.15-9.26h.42c.33.92.58,1.83.94,2.69a10.86,10.86,0,0,0,3,4.25,5,5,0,0,0,1.11.69,3.42,3.42,0,0,0,1.45.37,1.82,1.82,0,0,0,1.51-1.78c.19-2.15-1.05-2.92-2.33-3.8-.88-.62-1.77-1.29-2.68-1.93a10,10,0,0,1-.9-.61,7.47,7.47,0,0,1-1.48-2.07,14.18,14.18,0,0,1-.57-9.08c.48-1.74,1.28-3.53,2.8-4.28a4.3,4.3,0,0,1,3-.15,9,9,0,0,1,2.32,1.2c.71-.47,1.37-1,2.08-1.5Z"/><path class="cls-2" d="M142.45,36.59a13.74,13.74,0,0,0,1.45,0v1.15h-8.69V36.62h.91V21.22a24,24,0,0,0,0-2.53C136,18,135.83,17,135.21,17s-1,.84-1.2,1.44a12.58,12.58,0,0,0-.39,2.26c-.14,1.68,0,3.59,0,5.28V36.59a6.05,6.05,0,0,0,1,0v1.15h-8.75V36.62h1.33V15.31h-1.33V14c2.7,0,5-.47,7.75-.51.07,1.47,0,3.06,0,4.58.83-2,1.81-4.48,4.28-4.67,3.13-.24,4,2.41,4.37,5.09a47.3,47.3,0,0,1,.21,5.88Z"/><path class="cls-2" d="M160,27.49h-8.47c0,2.83-.11,6.16.9,8.08a2,2,0,0,0,1.36,1.11,3.06,3.06,0,0,0,.63.18c1.33.09,2.47-1.09,3.11-2a13.32,13.32,0,0,0,1.68-3.35c.17.26.5.4.52.67a2.41,2.41,0,0,1-.28.66c-1.24,2.74-2.69,5.73-6.48,5.73a6.82,6.82,0,0,1-4.31-1.45c-2.07-1.68-3.18-4.53-3.62-7.89a23.59,23.59,0,0,1,1-10.19c1-2.68,2.51-5.4,6-5.64a5.32,5.32,0,0,1,4.07,1.45,10,10,0,0,1,2.23,3.28A21.82,21.82,0,0,1,160,27.49ZM153.82,17c0-1-.16-2.06-.79-2.35-1.13-.54-1.34,1.26-1.42,2.25-.22,3,0,6.61-.08,9.41h2.29C153.71,23.39,154,20.05,153.82,17Z"/><path class="cls-2" d="M48.29,13.86v4.85c.89-2.13,1.75-5,4.79-4.67a2.65,2.65,0,0,1,1.36.64c2,1.89,2.23,7.78.24,9.76a2.25,2.25,0,0,1-1.72.67A2.9,2.9,0,0,1,51,24a7.18,7.18,0,0,1-1.09-4.22c0-.42.11-.95.16-1.41s.19-1-.21-1.21c-.56.32-.7,1.07-.85,1.72a34,34,0,0,0-.45,7.23V36.32c.57.07,1.27,0,1.9,0v1.11H40.66V36.35H42c.07-6.85,0-13.81,0-20.71H40.66v-1.2C43.2,14.24,45.72,14,48.29,13.86Z"/><path class="cls-2" d="M64.83,13.86c.15,7.36,0,15,.07,22.46a14.13,14.13,0,0,0,1.47,0v1.11H57V36.35h1.32c.07-6.83,0-13.79,0-20.68H57V14.44C59.77,14.42,62.23,14.08,64.83,13.86Z"/><path class="cls-2" d="M95.4,15.67H94V14.44c2.74,0,5.06-.48,7.81-.48V36.35h1.51v1.11a54,54,0,0,0-7.6.73c-.07-1.46,0-3,0-4.55-1,2-2,4.28-4.58,4.52-3,.27-3.88-2.12-4.34-4.68a52.1,52.1,0,0,1-.36-8.73V15.67H85V14.44c2.46-.09,5.21-.23,7.51-.55.19,0,.27-.16.3.21.13,1.56,0,3.58,0,5v13.5c0,1.08,0,2.48,1.17,2.23,1-.2,1.29-2.6,1.36-3.8.11-1.85,0-3.64,0-5.12Z"/><path class="cls-2" d="M121,36.35h1.45v1.11h-8.71V36.35h.87c.05-4.7,0-9.92,0-14.86,0-.73,0-1.64-.06-2.41s-.21-1.72-.84-1.78-1.07.77-1.24,1.36c-.59,2-.42,4.81-.42,7.35V36.35h1v1.11h-8.77V36.35h1.33V15.67h-1.33V14.44c2.72,0,5-.48,7.81-.48v4.43c.82-2,1.76-4.1,4.07-4.5a3.67,3.67,0,0,1,2.62.52c1.13.73,1.68,2.41,2,4.1a36,36,0,0,1,.27,5.75Z"/><path class="cls-2" d="M161.17,14h8.68v1.27H169c1.07,5.31,2.19,10.57,3.31,15.83.36-1.72.71-3.41,1.06-5.16a4.42,4.42,0,0,0,.15-.72,8.2,8.2,0,0,0-.27-1.24c-.58-2.88-1.15-5.86-1.72-8.71h-1.15V14h9v1.27H177.9c1,5.13,2.1,10.22,3.14,15.34.7-3.24,1.44-6.94,2.14-10.39a13.37,13.37,0,0,0,.42-3.74c0-.76-.29-1.33-1.21-1.21V14h4.1v1.27a1.35,1.35,0,0,0-.6.15c-1.33.68-1.63,3.3-2,5-1.15,5.75-2.32,11.72-3.47,17.33h-4.34Q175,32.57,174,27.34c-.78,3.42-1.46,7-2.2,10.43h-4.58c-1.56-7.51-3.17-15-4.73-22.46h-1.3V14.13S161.14,14.05,161.17,14Z"/><path class="cls-2" d="M210.39,26.62v1.74c-.11,0-.25-.09-.35-.15a2.71,2.71,0,0,0-2.69-.15c-2.08,1.4-2.11,7.62,1.05,7.66a3.77,3.77,0,0,0,2-.67v1.72a4,4,0,0,1-4.34-.21c-2-1.79-2-7.18-.15-9.28A3.39,3.39,0,0,1,208,26.13,4.21,4.21,0,0,1,210.39,26.62Z"/><path class="cls-2" d="M214.52,26.31a3.26,3.26,0,0,1,1.45.24c3.09,1.41,2.94,9.29-.15,10.77a3.18,3.18,0,0,1-3.17-.43c-1.89-1.6-2-7-.45-9.19A3,3,0,0,1,214.52,26.31Zm-.63,1.75c-1.9,1-2,7.08.18,7.84a2.43,2.43,0,0,0,1.24,0c1.68-.69,2-5.1,1-7a1.85,1.85,0,0,0-1.93-1A2.21,2.21,0,0,0,213.89,28.06Z"/><path class="cls-2" d="M224.68,28.6a6.48,6.48,0,0,1,1.12-1.9,1.73,1.73,0,0,1,2.65.52c.56,1.13.36,3.13.36,4.9v5.25h-1.56V29.78c0-.75,0-1.91-.61-1.93s-.87.73-1,1.08-.23.51-.34.73a3.78,3.78,0,0,0-.33.72,11.22,11.22,0,0,0,0,1.74v5.25h-1.6V29.78c0-.78.07-1.9-.57-1.93s-1.15,1.29-1.38,1.81a3.52,3.52,0,0,0-.33.72,10.1,10.1,0,0,0,0,1.74v5.25h-1.6V26.49h1.32c0,.67.07,1.3.06,2,.56-.86.81-2.12,2.08-2.2S224.68,27.22,224.68,28.6Z"/><path class="cls-2" d="M201.65,33c2.22-.41,2.4,3.66.64,4.12-1.13.3-1.84-.81-1.93-1.72A2.59,2.59,0,0,1,201,33.3,1.27,1.27,0,0,1,201.65,33Z"/><path class="cls-1" d="M59.74,46.68l-1.86-5.37h0c0,.8.08,1.54.08,2.24v3.13H57V40.25h1.48l1.78,5.11h0l1.83-5.11h1.49v6.43h-1V43.5c0-.32,0-.74,0-1.25s0-.82,0-.93h0l-1.93,5.36Z"/><path class="cls-1" d="M68.2,46.68,68,46h0a1.82,1.82,0,0,1-.71.6,2.15,2.15,0,0,1-.91.16,1.54,1.54,0,0,1-1.12-.38,1.44,1.44,0,0,1-.4-1.1,1.26,1.26,0,0,1,.56-1.13,3.23,3.23,0,0,1,1.7-.42l.84,0v-.26a1,1,0,0,0-.22-.7.92.92,0,0,0-.68-.23,2.45,2.45,0,0,0-.71.11,4.77,4.77,0,0,0-.66.26l-.34-.74a3.6,3.6,0,0,1,.87-.31,3.55,3.55,0,0,1,.89-.11,2.11,2.11,0,0,1,1.4.4,1.61,1.61,0,0,1,.47,1.27v3.28ZM66.66,46a1.29,1.29,0,0,0,.91-.31,1.16,1.16,0,0,0,.34-.88v-.42l-.63,0a2.11,2.11,0,0,0-1.06.25.73.73,0,0,0-.33.66.66.66,0,0,0,.19.51A.89.89,0,0,0,66.66,46Z"/><path class="cls-1" d="M72.19,45.93a2.51,2.51,0,0,0,.76-.12v.78a2,2,0,0,1-.44.12,2.59,2.59,0,0,1-.56,0c-1,0-1.47-.51-1.47-1.54V42.6h-.67v-.46l.72-.38.35-1h.64v1.08H72.9v.78H71.52v2.6a.74.74,0,0,0,.18.55A.69.69,0,0,0,72.19,45.93Z"/><path class="cls-1" d="M77,46.68,76.75,46h0a1.89,1.89,0,0,1-.71.6,2.18,2.18,0,0,1-.91.16A1.54,1.54,0,0,1,74,46.38a1.44,1.44,0,0,1-.4-1.1,1.27,1.27,0,0,1,.55-1.13,3.27,3.27,0,0,1,1.71-.42l.84,0v-.26a1,1,0,0,0-.22-.7.92.92,0,0,0-.68-.23,2.4,2.4,0,0,0-.71.11,4.77,4.77,0,0,0-.66.26l-.34-.74a3.6,3.6,0,0,1,.87-.31,3.55,3.55,0,0,1,.89-.11,2.11,2.11,0,0,1,1.4.4,1.61,1.61,0,0,1,.47,1.27v3.28ZM75.42,46a1.29,1.29,0,0,0,.91-.31,1.16,1.16,0,0,0,.34-.88v-.42l-.63,0a2.11,2.11,0,0,0-1.06.25.73.73,0,0,0-.33.66.66.66,0,0,0,.19.51A.87.87,0,0,0,75.42,46Z"/><path class="cls-1" d="M81.59,46.68V40.25h1v5.53h2.72v.9Z"/><path class="cls-1" d="M90.67,44.24a2.7,2.7,0,0,1-.61,1.86,2.21,2.21,0,0,1-1.7.66,2.39,2.39,0,0,1-1.21-.3,2,2,0,0,1-.8-.89,3,3,0,0,1-.28-1.33,2.66,2.66,0,0,1,.6-1.85,2.22,2.22,0,0,1,1.71-.66,2.11,2.11,0,0,1,1.67.68A2.62,2.62,0,0,1,90.67,44.24Zm-3.54,0c0,1.12.41,1.68,1.24,1.68s1.23-.56,1.23-1.68-.41-1.67-1.24-1.67a1.08,1.08,0,0,0-.94.43A2.25,2.25,0,0,0,87.13,44.24Z"/><path class="cls-1" d="M92.85,44.11l.59-.73,1.46-1.56h1.2l-2,2.08,2.08,2.78H95l-1.56-2.13-.57.46v1.67h-1V39.84h1v3.33l0,.94Z"/><path class="cls-1" d="M100,46.68,99.83,46h0a1.82,1.82,0,0,1-.71.6,2.18,2.18,0,0,1-.91.16,1.54,1.54,0,0,1-1.12-.38,1.44,1.44,0,0,1-.4-1.1,1.26,1.26,0,0,1,.56-1.13,3.2,3.2,0,0,1,1.7-.42l.84,0v-.26a1,1,0,0,0-.22-.7.92.92,0,0,0-.68-.23,2.4,2.4,0,0,0-.71.11,4.77,4.77,0,0,0-.66.26l-.34-.74a3.6,3.6,0,0,1,.87-.31,3.55,3.55,0,0,1,.89-.11,2.11,2.11,0,0,1,1.4.4,1.61,1.61,0,0,1,.47,1.27v3.28ZM98.5,46a1.29,1.29,0,0,0,.91-.31,1.16,1.16,0,0,0,.34-.88v-.42l-.63,0a2.11,2.11,0,0,0-1.06.25.73.73,0,0,0-.33.66.66.66,0,0,0,.19.51A.89.89,0,0,0,98.5,46Z"/><path class="cls-1" d="M103.25,46.68h-1V39.84h1Z"/><path class="cls-1" d="M110,46.68l-1.87-5.37h0c0,.8.07,1.54.07,2.24v3.13h-.95V40.25h1.48l1.78,5.11h0l1.84-5.11h1.48v6.43h-1V43.5c0-.32,0-.74,0-1.25s0-.82,0-.93h0l-1.93,5.36Z"/><path class="cls-1" d="M117.5,46.76a2.37,2.37,0,0,1-1.78-.66,2.52,2.52,0,0,1-.64-1.82,2.73,2.73,0,0,1,.6-1.87,2.05,2.05,0,0,1,1.63-.68,2,2,0,0,1,1.52.58,2.25,2.25,0,0,1,.56,1.61v.56h-3.24a1.6,1.6,0,0,0,.38,1.09,1.35,1.35,0,0,0,1,.38,4.09,4.09,0,0,0,.8-.08,5.29,5.29,0,0,0,.79-.27v.84a3.08,3.08,0,0,1-.76.25A4.69,4.69,0,0,1,117.5,46.76Zm-.19-4.25a1,1,0,0,0-.79.31,1.43,1.43,0,0,0-.35.91h2.2a1.31,1.31,0,0,0-.29-.91A1,1,0,0,0,117.31,42.51Z"/><path class="cls-1" d="M124.84,46.68h-1v-3a1.3,1.3,0,0,0-.23-.84.86.86,0,0,0-.72-.28,1.13,1.13,0,0,0-.95.39,2.09,2.09,0,0,0-.31,1.3v2.42h-1V41.82h.81l.14.63h.06a1.35,1.35,0,0,1,.62-.53,2,2,0,0,1,.9-.19,1.56,1.56,0,0,1,1.75,1.78Z"/><path class="cls-1" d="M125.78,48.84a2.48,2.48,0,0,1-.78-.11v-.82a2.55,2.55,0,0,0,.61.08q.66,0,.66-.75V41.82h1v5.49a1.38,1.38,0,0,1-1.53,1.53Zm.43-8.31a.58.58,0,0,1,.15-.43.6.6,0,0,1,.44-.15.57.57,0,0,1,.42.15.58.58,0,0,1,.15.43.56.56,0,0,1-.15.41.54.54,0,0,1-.42.16.57.57,0,0,1-.44-.16A.56.56,0,0,1,126.21,40.53Z"/><path class="cls-1" d="M131.82,46.68l-.2-.68h0a1.82,1.82,0,0,1-.71.6,2.15,2.15,0,0,1-.91.16,1.54,1.54,0,0,1-1.12-.38,1.44,1.44,0,0,1-.4-1.1,1.28,1.28,0,0,1,.56-1.13,3.23,3.23,0,0,1,1.7-.42l.84,0v-.26a1,1,0,0,0-.22-.7.89.89,0,0,0-.67-.23,2.46,2.46,0,0,0-.72.11,4.77,4.77,0,0,0-.66.26l-.33-.74a3.38,3.38,0,0,1,.86-.31,3.61,3.61,0,0,1,.89-.11,2.11,2.11,0,0,1,1.4.4,1.61,1.61,0,0,1,.47,1.27v3.28ZM130.29,46a1.28,1.28,0,0,0,.9-.31,1.12,1.12,0,0,0,.34-.88v-.42l-.63,0a2.11,2.11,0,0,0-1.06.25.73.73,0,0,0-.33.66.66.66,0,0,0,.2.51A.85.85,0,0,0,130.29,46Z"/><path class="cls-1" d="M138.28,46.68h-1v-3a1.3,1.3,0,0,0-.22-.84.87.87,0,0,0-.72-.28,1.13,1.13,0,0,0-1,.39,2.16,2.16,0,0,0-.3,1.3v2.42h-1V41.82h.81l.15.63h0a1.4,1.4,0,0,1,.62-.53,2,2,0,0,1,.9-.19,1.56,1.56,0,0,1,1.75,1.78Z"/><path class="cls-1" d="M143.82,41.82v.56l-.83.16a1.23,1.23,0,0,1,.19.38,1.41,1.41,0,0,1,.07.47,1.47,1.47,0,0,1-.51,1.18,2.18,2.18,0,0,1-1.43.43,2.58,2.58,0,0,1-.42,0,.58.58,0,0,0-.34.48.26.26,0,0,0,.16.25,1.26,1.26,0,0,0,.57.08h.85a1.87,1.87,0,0,1,1.22.35,1.21,1.21,0,0,1,.42,1,1.44,1.44,0,0,1-.68,1.27,3.59,3.59,0,0,1-2,.45,2.78,2.78,0,0,1-1.52-.35,1.14,1.14,0,0,1-.52-1,1.08,1.08,0,0,1,.28-.76,1.57,1.57,0,0,1,.8-.42.82.82,0,0,1-.35-.29.76.76,0,0,1-.13-.41.73.73,0,0,1,.15-.46,2.05,2.05,0,0,1,.46-.37,1.41,1.41,0,0,1-.61-.53,1.72,1.72,0,0,1,.26-2.09,2.1,2.1,0,0,1,1.42-.43l.44,0,.34.06ZM140,47.43a.57.57,0,0,0,.3.52,1.68,1.68,0,0,0,.85.18,2.6,2.6,0,0,0,1.26-.24.75.75,0,0,0,.41-.65.49.49,0,0,0-.23-.45,1.81,1.81,0,0,0-.84-.13H141a1.11,1.11,0,0,0-.71.21A.7.7,0,0,0,140,47.43Zm.45-4a1,1,0,0,0,.23.7.88.88,0,0,0,.68.25c.59,0,.89-.32.89-1a1.06,1.06,0,0,0-.22-.73.84.84,0,0,0-.67-.26.87.87,0,0,0-.68.26A1,1,0,0,0,140.45,43.39Z"/><path class="cls-1" d="M145.72,44.11l.58-.73,1.47-1.56H149l-2,2.08,2.08,2.78h-1.22l-1.56-2.13-.56.46v1.67h-1V39.84h1v3.33l-.06.94Z"/><path class="cls-1" d="M152.91,46.68,152.7,46h0a1.89,1.89,0,0,1-.71.6,2.18,2.18,0,0,1-.91.16,1.54,1.54,0,0,1-1.12-.38,1.44,1.44,0,0,1-.4-1.1,1.27,1.27,0,0,1,.55-1.13,3.25,3.25,0,0,1,1.7-.42l.84,0v-.26a1,1,0,0,0-.21-.7.92.92,0,0,0-.68-.23,2.35,2.35,0,0,0-.71.11,4.77,4.77,0,0,0-.66.26l-.34-.74a3.45,3.45,0,0,1,.87-.31,3.55,3.55,0,0,1,.89-.11,2.08,2.08,0,0,1,1.39.4,1.58,1.58,0,0,1,.48,1.27v3.28ZM151.37,46a1.25,1.25,0,0,0,.9-.31,1.12,1.12,0,0,0,.34-.88v-.42l-.62,0a2.08,2.08,0,0,0-1.06.25.73.73,0,0,0-.33.66.66.66,0,0,0,.19.51A.87.87,0,0,0,151.37,46Z"/><path class="cls-1" d="M158.52,46.68l-.15-.64h-.05a1.44,1.44,0,0,1-.61.53,2.06,2.06,0,0,1-.91.19,1.79,1.79,0,0,1-1.32-.43A1.85,1.85,0,0,1,155,45V41.82h1.05v3a1.32,1.32,0,0,0,.22.84.89.89,0,0,0,.72.28,1.16,1.16,0,0,0,1-.39,2.16,2.16,0,0,0,.3-1.3V41.82h1v4.86Z"/><path class="cls-1" d="M163.25,46.68V40.25h1.05v6.43Z"/><path class="cls-1" d="M170.16,46.68h-1v-3a1.3,1.3,0,0,0-.23-.84.86.86,0,0,0-.72-.28,1.13,1.13,0,0,0-1,.39,2.16,2.16,0,0,0-.3,1.3v2.42h-1V41.82h.8l.15.63h0a1.43,1.43,0,0,1,.63-.53,2,2,0,0,1,.89-.19,1.56,1.56,0,0,1,1.75,1.78Z"/><path class="cls-1" d="M173.24,46.76a1.71,1.71,0,0,1-1.42-.65,3.62,3.62,0,0,1,0-3.72,1.71,1.71,0,0,1,1.43-.66,1.68,1.68,0,0,1,1.46.71h.05a6.43,6.43,0,0,1-.08-.83V39.84h1v6.84h-.81l-.18-.64h-.05A1.64,1.64,0,0,1,173.24,46.76Zm.28-.83a1.11,1.11,0,0,0,.92-.36,1.79,1.79,0,0,0,.3-1.16v-.15a2.16,2.16,0,0,0-.3-1.3,1.1,1.1,0,0,0-.93-.39.94.94,0,0,0-.84.44,2.8,2.8,0,0,0,0,2.5A1,1,0,0,0,173.52,45.93Z"/><path class="cls-1" d="M181.52,44.24a2.7,2.7,0,0,1-.61,1.86,2.21,2.21,0,0,1-1.7.66,2.39,2.39,0,0,1-1.21-.3,2,2,0,0,1-.8-.89,3,3,0,0,1-.28-1.33,2.66,2.66,0,0,1,.6-1.85,2.22,2.22,0,0,1,1.71-.66,2.11,2.11,0,0,1,1.67.68A2.62,2.62,0,0,1,181.52,44.24Zm-3.54,0c0,1.12.41,1.68,1.24,1.68s1.23-.56,1.23-1.68-.41-1.67-1.23-1.67a1.09,1.09,0,0,0-.95.43A2.25,2.25,0,0,0,178,44.24Z"/><path class="cls-1" d="M187,46.68h-1v-3a1.3,1.3,0,0,0-.22-.84.86.86,0,0,0-.72-.28,1.13,1.13,0,0,0-1,.39,2.16,2.16,0,0,0-.3,1.3v2.42h-1V41.82h.81l.15.63h.05a1.43,1.43,0,0,1,.63-.53,2,2,0,0,1,.89-.19A1.56,1.56,0,0,1,187,43.51Z"/><path class="cls-1" d="M190.54,46.76a2.33,2.33,0,0,1-1.77-.66,2.48,2.48,0,0,1-.64-1.82,2.78,2.78,0,0,1,.59-1.87,2.07,2.07,0,0,1,1.63-.68,2,2,0,0,1,1.52.58,2.25,2.25,0,0,1,.56,1.61v.56h-3.24a1.65,1.65,0,0,0,.38,1.09,1.35,1.35,0,0,0,1,.38,4,4,0,0,0,.8-.08,5.39,5.39,0,0,0,.8-.27v.84a3.15,3.15,0,0,1-.77.25A4.61,4.61,0,0,1,190.54,46.76Zm-.19-4.25a1,1,0,0,0-.79.31,1.49,1.49,0,0,0-.35.91h2.2a1.31,1.31,0,0,0-.29-.91A1,1,0,0,0,190.35,42.51Z"/><path class="cls-1" d="M196.87,45.29a1.25,1.25,0,0,1-.52,1.09,2.45,2.45,0,0,1-1.49.38,3.5,3.5,0,0,1-1.56-.29v-.89a3.93,3.93,0,0,0,1.6.39c.64,0,.95-.19.95-.57a.45.45,0,0,0-.1-.31,1.17,1.17,0,0,0-.35-.25,5.07,5.07,0,0,0-.67-.3,3.31,3.31,0,0,1-1.14-.65,1.2,1.2,0,0,1-.29-.85,1.1,1.1,0,0,1,.5-1,2.37,2.37,0,0,1,1.37-.34,3.75,3.75,0,0,1,1.62.35l-.33.77a3.77,3.77,0,0,0-1.33-.32c-.54,0-.81.15-.81.46a.46.46,0,0,0,.21.39,4.54,4.54,0,0,0,.93.44,3.92,3.92,0,0,1,.87.42,1.34,1.34,0,0,1,.41.45A1.4,1.4,0,0,1,196.87,45.29Z"/><path class="cls-1" d="M197.92,40.53a.54.54,0,0,1,.16-.43.58.58,0,0,1,.43-.15.57.57,0,0,1,.42.15.58.58,0,0,1,.15.43.56.56,0,0,1-.15.41.54.54,0,0,1-.42.16.54.54,0,0,1-.43-.16A.53.53,0,0,1,197.92,40.53Zm1.1,6.15h-1V41.82h1Z"/><path class="cls-1" d="M203.54,46.68l-.21-.68h0a1.87,1.87,0,0,1-.7.6,2.23,2.23,0,0,1-.92.16,1.54,1.54,0,0,1-1.12-.38,1.48,1.48,0,0,1-.4-1.1,1.28,1.28,0,0,1,.56-1.13,3.23,3.23,0,0,1,1.7-.42l.84,0v-.26a1,1,0,0,0-.22-.7.89.89,0,0,0-.67-.23,2.46,2.46,0,0,0-.72.11,4.77,4.77,0,0,0-.66.26l-.33-.74a3.38,3.38,0,0,1,.86-.31,3.61,3.61,0,0,1,.89-.11,2.09,2.09,0,0,1,1.4.4,1.58,1.58,0,0,1,.47,1.27v3.28ZM202,46a1.28,1.28,0,0,0,.9-.31,1.12,1.12,0,0,0,.34-.88v-.42l-.62,0a2.08,2.08,0,0,0-1.06.25.71.71,0,0,0-.34.66.66.66,0,0,0,.2.51A.87.87,0,0,0,202,46Z"/></g></g></svg>