<svg width="130" height="56" viewBox="0 0 130 56" fill="none" xmlns="http://www.w3.org/2000/svg">
<path d="M1.27844 2.86136C2.11329 1.46792 5.65234 0.548365 7.26155 0.318478C7.8524 0.233782 9.25995 0.134976 9.63302 0.6008C11.5124 2.95008 8.83244 9.59462 8.39889 12.5731C8.09237 14.6763 6.87438 18.8042 6.81792 20.9317C6.77355 22.6417 6.38637 26.6547 7.73141 27.7093C9.38296 29.0039 13.9888 26.9995 16.0779 26.8039C17.3463 26.6849 20.0183 25.842 21.1596 26.4086C22.0469 26.8482 23.1399 28.764 23.3052 29.74C23.521 30.9983 23.15 33.9566 22.1195 34.7088C21.1939 35.3863 18.6914 34.4305 17.546 34.37C15.971 34.2873 12.8172 34.126 11.2422 34.1804C9.28214 34.249 5.14418 35.9248 3.44019 34.9568C2.33714 34.3297 1.52648 31.6053 1.28248 30.3611C0.447623 26.1021 2.2605 17.3664 2.18185 13.0268C2.13547 10.4759 -0.0323201 5.04932 1.27844 2.86136Z" fill="#FF440D"/>
<path d="M27.778 1.11703C25.5961 -0.631321 19.1169 -0.0888687 16.5942 1.11703C14.4022 2.16362 11.3492 6.40443 10.4861 8.67506C9.43143 11.4498 8.38282 18.0036 9.9275 20.5384C11.0749 22.4199 15.7432 24.0573 17.9413 24.2086C19.4113 24.3094 22.4584 23.4584 23.5876 22.5126C26.2313 20.2965 29.3792 13.6197 29.8067 10.1976C30.093 7.89064 29.5929 2.57298 27.778 1.11703ZM22.9726 14.1561C22.1821 15.6503 19.5767 18.6126 17.8848 18.6147C16.8544 18.6147 15.2835 16.8018 14.7793 15.9024C14.0796 14.6541 13.4403 11.6374 13.8194 10.256C14.1381 9.09653 15.8662 7.14048 16.937 6.59197C17.9937 6.04952 20.6072 5.67646 21.6739 6.19874C22.4604 6.58189 23.388 8.27579 23.5876 9.12677C23.874 10.3589 23.5634 13.0369 22.9726 14.1561Z" fill="#DCB268"/>
<path d="M32.1419 12.6293C33.5192 11.5827 37.1652 10.6551 38.8631 10.9919C41.0228 11.4214 45.5198 14.0329 45.9795 16.1865C46.2578 17.4912 44.4994 20.1833 43.3257 20.8165C42.4586 21.2864 40.3291 20.877 39.3874 20.5846C38.2803 20.2418 36.5058 17.7857 35.4188 18.191C33.7854 18.802 33.4144 23.0892 33.2732 24.8275C33.1885 25.866 33.1684 28.2012 33.8943 28.9493C34.9933 30.0826 38.5586 30.3911 40.1053 30.0786C41.0148 29.8951 42.2872 28.1286 43.2108 28.0459C43.8682 27.9874 45.2173 28.5722 45.6407 29.0804C46.1671 29.7095 46.7236 31.5406 46.3728 32.2827C45.794 33.5107 42.8398 34.4142 41.5169 34.7106C38.1835 35.4587 30.4339 36.6404 27.8527 34.4021C26.3544 33.1034 26.5037 28.5621 26.5521 26.5798C26.5924 24.9182 27.3748 21.6393 27.9636 20.0845C28.7219 18.0861 30.442 13.9219 32.1419 12.6293Z" fill="#3387DC"/>
<path d="M66.3385 20.4818C66.282 17.9812 66.4534 12.9217 65.8868 10.4857C65.4794 8.73735 64.1162 5.31727 63.0112 3.90165C62.1057 2.74415 59.7766 0.657016 58.3448 0.318235C56.0097 -0.236317 51.3071 1.92543 48.9134 2.12103C46.1124 2.35092 40.1757 0.552155 37.6792 1.84275C36.4552 2.47595 35.0053 5.1015 34.602 6.42033C34.4205 7.01319 34.1946 8.43486 34.602 8.9027C35.8038 10.284 40.0265 9.87267 41.8575 9.91905C44.9751 9.9977 51.1679 8.6103 54.2795 8.81801C55.5297 8.90069 58.2884 9.02572 59.1676 9.91905C59.8492 10.6127 60.5711 12.9782 59.9541 13.7323C58.2662 15.7973 51.4704 12.1735 49.2845 13.7041C47.6128 14.8737 46.8444 19.3686 46.5157 21.3811C46.302 22.6919 46.3161 25.4001 46.6307 26.6907C47.0764 28.5157 48.4416 32.3129 49.9499 33.432C51.8556 34.8436 57.268 36.1564 59.3128 34.9566C60.8595 34.0491 59.9722 28.1386 61.7629 28.2152C63.0293 28.2697 62.0855 32.327 63.0837 33.1074C63.725 33.6075 65.7537 33.7406 66.3344 33.1719C68.603 30.9517 66.409 23.6538 66.3385 20.4818ZM54.6969 29.6611C53.247 29.5764 51.1135 26.8379 50.694 25.4465C50.3169 24.1983 50.9663 21.4517 51.5954 20.3083C52.1843 19.2395 54.0314 17.346 55.2091 17.0314C56.534 16.6765 59.6556 17.1726 60.5751 18.1909C61.5915 19.3142 61.8194 22.8048 61.2547 24.2083C60.4622 26.1886 56.8264 29.7881 54.6969 29.6611Z" fill="#01AB66"/>
<path d="M69.1817 3.42379C68.5525 5.87592 68.4779 11.002 68.5606 13.5328C68.6412 15.9788 69.7241 20.7984 69.8028 23.2465C69.8814 25.7067 67.8245 31.0183 69.1817 33.0732C69.8592 34.0976 72.5937 34.5654 73.8117 34.7106C76.9676 35.0877 83.7633 35.0938 86.4615 33.4119C87.1391 32.9885 88.2824 31.4902 88.1554 30.7017C87.9295 29.2861 85.1306 27.4147 83.7513 27.0316C81.771 26.479 77.2438 29.5361 75.6185 28.2738C73.4568 26.594 74.6284 20.1108 74.5457 17.3743C74.4247 13.3069 77.7238 4.27477 75.1668 1.1108C74.4469 0.21948 71.6681 -0.208026 70.6497 0.320311C69.8875 0.713539 69.3954 2.59297 69.1817 3.42379Z" fill="#3387DC"/>
<path d="M79.1617 2.45186C78.0405 4.12963 78.3632 8.46522 78.3592 10.4838C78.3531 12.7524 79.2585 17.2513 79.2202 19.52C79.2 20.7017 78.0486 23.1699 78.6152 24.2064C79.1698 25.2208 81.6381 26.1504 82.7935 26.1826C83.6163 26.2048 85.3526 25.6019 85.8426 24.9405C86.7702 23.6862 86.4314 20.2883 86.4072 18.7295C86.3749 16.6242 85.3183 12.4761 85.3909 10.3709C85.4171 9.62272 85.2396 7.65054 85.9555 7.43476C86.746 7.19479 87.9297 9.03994 88.2765 9.7901C89.2768 11.9559 89.067 16.9085 89.1175 19.2921C89.1659 21.4962 88.087 25.9911 88.7222 28.1024C89.0751 29.274 90.525 31.4781 91.6018 32.0549C92.2996 32.4279 94.2012 32.7425 94.7638 32.1859C98.198 28.7941 91.8721 17.1122 94.1992 12.8815C94.7053 11.9599 96.863 10.2862 97.8128 10.7359C99.3293 11.4538 98.7203 15.6966 98.8292 17.3723C99.0349 20.5282 97.8874 26.9288 98.5469 30.0222C98.8312 31.3571 99.6681 34.3396 100.886 34.9567C102.013 35.5274 105.089 35.0111 105.851 34.0028C108.136 30.978 104.732 22.6819 104.534 18.8968C104.363 15.6119 105.333 8.86449 104.308 5.73884C103.79 4.15988 101.997 0.965655 100.469 0.318342C99.2728 -0.18983 96.4496 0.451443 95.3304 1.10884C93.9431 1.92353 92.9791 6.02519 91.378 6.19054C89.8333 6.35187 87.9196 3.0528 86.6351 2.18165C85.8143 1.62508 84.1245 0.316325 83.1343 0.318342C82.003 0.320358 79.7869 1.51416 79.1617 2.45186Z" fill="#FF440D"/>
<path d="M110.001 0.685338C108.952 1.23384 108.131 3.7626 107.883 4.9201C107.214 8.03164 108.422 14.4564 108.392 17.6385C108.371 19.8002 107.734 24.1116 107.883 26.2673C108.025 28.3141 107.968 32.9421 109.493 34.3154C110.773 35.4689 114.631 34.9788 116.355 34.9587C119.19 34.9264 125.508 35.5273 127.621 33.6378C128.319 33.0147 128.801 30.8691 128.468 29.9959C128.063 28.9312 125.855 27.6144 124.742 27.3704C122.007 26.7715 116.065 30.9478 113.729 29.4031C112.027 28.2778 111.63 23.4542 111.951 21.4397C112.074 20.6613 112.858 19.0864 113.56 18.7295C116.175 17.3985 122.647 21.1856 125.25 19.8305C126.2 19.3364 127.204 17.1626 127.367 16.1039C127.46 15.505 127.343 14.0974 126.859 13.7324C125.605 12.7867 122.161 14.1902 120.592 14.1559C118.418 14.1095 113.191 14.9807 111.951 13.196C111.108 11.9821 112.322 8.48335 113.391 7.46499C114.955 5.97476 119.702 5.78319 121.862 5.77109C123.348 5.76302 126.24 7.11411 127.706 6.87212C128.089 6.80961 128.851 6.43655 129.061 6.10987C129.6 5.26897 130.344 3.03866 129.823 2.18565C129.223 1.19956 126.484 1.20964 125.335 1.11285C123.199 0.931356 118.92 1.76219 116.778 1.67749C115.066 1.60691 111.519 -0.107167 110.001 0.685338Z" fill="#FF440D"/>
<path d="M1.35915 52.4767H5.03936V53.8117H0V46.5178H1.35714V52.4767H1.35915Z" fill="#3D89AA"/>
<path d="M6.66081 53.0556C6.08811 52.4083 5.80176 51.6319 5.80176 50.7285C5.80176 49.825 6.08811 49.0487 6.66081 48.4054C7.23351 47.7621 7.94737 47.4395 8.80441 47.4395C9.66144 47.4395 10.3753 47.7621 10.948 48.4054C11.5207 49.0487 11.8071 49.823 11.8071 50.7285C11.8071 51.6339 11.5207 52.4103 10.948 53.0556C10.3753 53.7029 9.66144 54.0255 8.80441 54.0255C7.94737 54.0255 7.23351 53.7029 6.66081 53.0556ZM7.62069 49.3027C7.31418 49.6919 7.16091 50.1658 7.16091 50.7285C7.16091 51.2891 7.31418 51.765 7.62069 52.1542C7.92721 52.5433 8.32245 52.7369 8.80441 52.7369C9.28838 52.7369 9.68564 52.5433 10.0002 52.1542C10.3148 51.765 10.4721 51.2891 10.4721 50.7285C10.4721 50.1679 10.3148 49.6919 10.0002 49.3027C9.68564 48.9136 9.28838 48.72 8.80441 48.72C8.32245 48.718 7.92721 48.9136 7.62069 49.3027Z" fill="#3D89AA"/>
<path d="M18.5724 52.1844C18.3929 52.7228 18.0541 53.1645 17.556 53.5093C17.0579 53.8541 16.5114 54.0255 15.9125 54.0255C15.0535 54.0255 14.3174 53.7029 13.7084 53.0556C13.0994 52.4083 12.7949 51.6359 12.7949 50.7385C12.7949 50.1396 12.9139 49.5911 13.1539 49.0951C13.3938 48.599 13.7447 48.1977 14.2085 47.8952C14.6723 47.5907 15.2047 47.4395 15.8016 47.4395C16.58 47.4395 17.2253 47.6915 17.7375 48.1977C18.2497 48.7038 18.5058 49.2806 18.5058 49.9319C18.5058 50.2082 18.4534 50.5046 18.3485 50.8192L17.0136 50.5046C17.1325 50.3252 17.193 50.1316 17.193 49.9218C17.193 49.6234 17.064 49.3471 16.8058 49.0971C16.5477 48.847 16.213 48.722 15.8016 48.722C15.3156 48.722 14.9184 48.9176 14.6118 49.3108C14.3053 49.704 14.1521 50.1799 14.1521 50.7426C14.1521 51.2971 14.3194 51.767 14.6562 52.1562C14.993 52.5454 15.4124 52.739 15.9125 52.739C16.2271 52.739 16.5074 52.6321 16.7554 52.4204C17.0015 52.2066 17.189 51.9243 17.316 51.5734L18.5724 52.1844Z" fill="#3D89AA"/>
<path d="M19.8974 50.1214C19.8369 49.8976 19.8066 49.7 19.8066 49.5266C19.8066 48.8833 20.0647 48.363 20.581 47.9657C21.0972 47.5705 21.7183 47.3708 22.4443 47.3708C23.2368 47.3708 23.8801 47.6048 24.3741 48.0726C24.8682 48.5404 25.1142 49.1071 25.1142 49.7726V53.8117H23.9022L23.7792 52.017C23.6139 52.7046 23.3376 53.2128 22.9484 53.5375C22.5592 53.8621 22.0934 54.0255 21.5509 54.0255C21.0085 54.0255 20.5407 53.8742 20.1474 53.5717C19.7542 53.2693 19.5586 52.8639 19.5586 52.3537C19.5586 52.0916 19.5989 51.8557 19.6755 51.6459C19.7542 51.4362 19.853 51.2648 19.974 51.1297C20.093 50.9946 20.2462 50.8756 20.4338 50.7708C20.6213 50.6659 20.7967 50.5832 20.9621 50.5227C21.1275 50.4622 21.3251 50.4037 21.557 50.3432L23.7571 49.7706C23.7208 49.4197 23.5756 49.1394 23.3255 48.9296C23.0755 48.7199 22.7669 48.6151 22.3999 48.6151C22.0188 48.6151 21.7103 48.6977 21.4743 48.8611C21.2384 49.0264 21.1214 49.2543 21.1214 49.5467C21.1214 49.7121 21.1476 49.8714 21.2001 50.0287L19.8974 50.1214ZM23.7692 50.7264C23.755 50.7264 23.0634 50.92 21.6921 51.3092C21.438 51.3838 21.2424 51.4806 21.1093 51.5996C20.9742 51.7185 20.9077 51.892 20.9077 52.1158C20.9077 52.3094 21.0004 52.4707 21.188 52.5978C21.3755 52.7248 21.5953 52.7893 21.8494 52.7893C22.3656 52.7893 22.8133 52.6098 23.1965 52.2509C23.5776 51.894 23.7692 51.3858 23.7692 50.7264Z" fill="#3D89AA"/>
<path d="M27.9533 53.8118H26.5962V45.9573H27.9533V53.8118Z" fill="#3D89AA"/>
<path d="M36.3807 50.7727L38.0625 46.5198H39.9359V53.8136H38.5888V48.5404L36.8728 52.5795H35.8625L34.1565 48.5404V53.8136H32.7993V46.5198H34.6747L36.3807 50.7727Z" fill="#3D89AA"/>
<path d="M46.6247 53.8118H45.2898L45.5136 51.8819C45.4753 52.1219 45.4128 52.3578 45.322 52.5877C45.2313 52.8196 45.1083 53.0475 44.953 53.2734C44.7957 53.4972 44.592 53.6767 44.342 53.8118C44.0919 53.9469 43.8056 54.0134 43.4829 54.0134C42.878 54.0134 42.3819 53.7755 41.9967 53.2955C41.6116 52.8176 41.418 52.2409 41.418 51.5674V47.6411H42.7751V51.3556C42.7751 51.7751 42.882 52.1179 43.0957 52.382C43.3095 52.6482 43.5878 52.7813 43.9306 52.7813C44.2976 52.7813 44.6142 52.6422 44.8784 52.3599C45.1425 52.0796 45.2756 51.7448 45.2756 51.3556V47.6411H46.6227V53.8118H46.6247Z" fill="#3D89AA"/>
<path d="M48.0724 49.3915C48.0724 48.8369 48.2982 48.3731 48.752 48.0001C49.2037 47.627 49.7945 47.4395 50.5245 47.4395C51.2545 47.4395 51.8454 47.625 52.2971 47.994C52.7508 48.3651 52.9767 48.8349 52.9767 49.4016C52.9767 49.6496 52.9343 49.8916 52.8536 50.1316L51.563 49.817C51.6457 49.6597 51.6881 49.5105 51.6881 49.3673C51.6881 49.1576 51.5832 48.9902 51.3735 48.8611C51.1638 48.7341 50.8835 48.6716 50.5306 48.6716C50.1857 48.6716 49.9155 48.7401 49.7179 48.8793C49.5203 49.0184 49.4195 49.1919 49.4195 49.3996C49.4195 49.8029 49.8611 50.0892 50.7443 50.2526C51.0347 50.3131 51.2828 50.3695 51.4844 50.4219C51.6861 50.4744 51.9039 50.549 52.1358 50.6458C52.3677 50.7426 52.5532 50.8555 52.6964 50.9826C52.8375 51.1096 52.9565 51.2749 53.0492 51.4766C53.142 51.6783 53.1884 51.9102 53.1884 52.1723C53.1884 52.7773 52.9625 53.2391 52.5108 53.5516C52.0571 53.8662 51.4542 54.0235 50.698 54.0235C50.0849 54.0235 49.5283 53.8723 49.0303 53.5698C48.5322 53.2673 48.143 52.8055 47.8586 52.1844L48.9254 51.5674C49.2702 52.3901 49.8651 52.8015 50.7101 52.8015C51.069 52.8015 51.3473 52.741 51.5469 52.622C51.7445 52.503 51.8454 52.3236 51.8454 52.0836C51.8454 52.009 51.8312 51.9384 51.801 51.8759C51.7708 51.8134 51.7163 51.7569 51.6377 51.7065C51.559 51.6581 51.4884 51.6157 51.4239 51.5835C51.3614 51.5492 51.2606 51.5169 51.1255 51.4827C50.9904 51.4484 50.8875 51.4262 50.8169 51.4101C50.7464 51.3959 50.6294 51.3677 50.464 51.3314C50.1273 51.2709 49.8308 51.1963 49.5707 51.1076C49.3126 51.0168 49.0645 50.8999 48.8246 50.7547C48.5846 50.6095 48.4011 50.4199 48.27 50.188C48.1369 49.9561 48.0724 49.692 48.0724 49.3915Z" fill="#3D89AA"/>
<path d="M55.78 46.9454H54.4229V45.6548H55.78V46.9454ZM55.78 53.8118H54.4229V47.6411H55.78V53.8118Z" fill="#3D89AA"/>
<path d="M62.7955 52.1844C62.616 52.7228 62.2772 53.1645 61.7791 53.5093C61.2811 53.8541 60.7346 54.0255 60.1356 54.0255C59.2766 54.0255 58.5406 53.7029 57.9316 53.0556C57.3226 52.4083 57.0181 51.6359 57.0181 50.7385C57.0181 50.1396 57.137 49.5911 57.377 49.0951C57.617 48.599 57.9679 48.1977 58.4317 47.8952C58.8955 47.5907 59.4278 47.4395 60.0247 47.4395C60.8031 47.4395 61.4484 47.6915 61.9606 48.1977C62.4728 48.7038 62.7289 49.2806 62.7289 49.9319C62.7289 50.2082 62.6765 50.5046 62.5716 50.8192L61.2367 50.5046C61.3557 50.3252 61.4162 50.1316 61.4162 49.9218C61.4162 49.6234 61.2871 49.3471 61.029 49.0971C60.7709 48.847 60.4361 48.722 60.0247 48.722C59.5388 48.722 59.1415 48.9176 58.835 49.3108C58.5285 49.704 58.3752 50.1799 58.3752 50.7426C58.3752 51.2971 58.5426 51.767 58.8793 52.1562C59.2161 52.5454 59.6355 52.739 60.1356 52.739C60.4502 52.739 60.7305 52.6321 60.9786 52.4204C61.2246 52.2066 61.4121 51.9243 61.5392 51.5734L62.7955 52.1844Z" fill="#3D89AA"/>
<path d="M68.7525 50.5247V52.4767H72.4327V53.8117H67.3933V46.5178H72.4327V47.8528H68.7525V49.2321H71.9164V50.5227H68.7525V50.5247Z" fill="#3D89AA"/>
<path d="M73.4209 53.8118L75.3951 50.7264L73.4209 47.6411H74.9575L76.2602 50.0207L77.573 47.6411H79.0995L77.1354 50.7264L79.0995 53.8118H77.573L76.2602 51.4322L74.9575 53.8118H73.4209Z" fill="#3D89AA"/>
<path d="M81.8013 47.6412L81.4766 49.7505C81.6118 49.0548 81.8719 48.4962 82.2611 48.0727C82.6503 47.6492 83.1443 47.4375 83.7432 47.4375C84.4611 47.4375 85.0722 47.7622 85.5783 48.4135C86.0845 49.0649 86.3345 49.8392 86.3345 50.7366C86.3345 51.634 86.0824 52.4063 85.5783 53.0536C85.0722 53.7009 84.4611 54.0236 83.7432 54.0236C83.1222 54.0236 82.612 53.7937 82.2127 53.3339C81.8114 52.8741 81.5553 52.2732 81.4444 51.5331L81.6904 53.8118V55.7195H80.3333V47.6412H81.8013ZM82.1502 49.3129C81.8437 49.7021 81.6904 50.178 81.6904 50.7386C81.6904 51.2992 81.8437 51.7751 82.1502 52.1643C82.4567 52.5535 82.8519 52.7471 83.3339 52.7471C83.8158 52.7471 84.2151 52.5535 84.5297 52.1643C84.8443 51.7751 84.9996 51.2992 84.9996 50.7386C84.9996 50.178 84.8423 49.7021 84.5297 49.3129C84.2151 48.9257 83.8158 48.7301 83.3339 48.7301C82.8519 48.7301 82.4567 48.9237 82.1502 49.3129Z" fill="#3D89AA"/>
<path d="M87.5708 47.6412H88.9279L88.6819 49.5811C88.7182 49.3048 88.7868 49.0467 88.8836 48.8067C88.9804 48.5668 89.1074 48.3409 89.2647 48.1272C89.422 47.9134 89.6216 47.746 89.8656 47.623C90.1076 47.498 90.3839 47.4375 90.6904 47.4375C91.1401 47.4375 91.493 47.6089 91.7511 47.9477C92.0092 48.2885 92.1383 48.7583 92.1383 49.3552C92.1383 49.4904 92.1262 49.6255 92.104 49.7586L90.757 49.9723C90.7872 49.8372 90.8013 49.7021 90.8013 49.569C90.8013 48.9701 90.5513 48.6716 90.0492 48.6716C89.7648 48.6716 89.5067 48.8229 89.2748 49.1254C89.0429 49.4278 88.9279 49.7848 88.9279 50.1982V53.8118H87.5708V47.6412Z" fill="#3D89AA"/>
<path d="M98.7808 52.1845C98.6155 52.7451 98.2848 53.1928 97.7887 53.5255C97.2906 53.8582 96.736 54.0236 96.121 54.0236C95.2619 54.0236 94.5259 53.6989 93.9169 53.0476C93.3079 52.3962 93.0034 51.6219 93.0034 50.7245C93.0034 49.8029 93.2797 49.0266 93.8342 48.3914C94.3888 47.7561 95.1147 47.4375 96.0121 47.4375C96.4013 47.4375 96.7744 47.5162 97.1273 47.6734C97.4822 47.8307 97.7847 48.0344 98.0307 48.2845C98.2767 48.5345 98.4723 48.8229 98.6135 49.1496C98.7546 49.4742 98.8272 49.8049 98.8272 50.1417C98.8272 50.539 98.7445 50.8677 98.5812 51.1298H94.3726C94.4029 51.5795 94.5844 51.9586 94.9171 52.2692C95.2499 52.5797 95.6511 52.735 96.123 52.735C96.4457 52.735 96.728 52.6382 96.97 52.4446C97.2119 52.251 97.3975 51.9869 97.5245 51.6582L98.7808 52.1845ZM97.4902 50.1437C97.5124 50.0469 97.5205 49.9421 97.5124 49.8292C97.4822 49.5226 97.3309 49.2605 97.0587 49.0427C96.7865 48.8269 96.4356 48.718 96.0101 48.718C95.5765 48.718 95.2095 48.8531 94.9091 49.1213C94.6086 49.3895 94.4352 49.7303 94.3827 50.1417H97.4902V50.1437Z" fill="#3D89AA"/>
<path d="M99.9587 49.3915C99.9587 48.8369 100.185 48.3731 100.638 48.0001C101.09 47.627 101.681 47.4395 102.411 47.4395C103.141 47.4395 103.732 47.625 104.183 47.994C104.637 48.3651 104.863 48.8349 104.863 49.4016C104.863 49.6496 104.821 49.8916 104.74 50.1316L103.449 49.817C103.532 49.6597 103.574 49.5105 103.574 49.3673C103.574 49.1576 103.47 48.9902 103.26 48.8611C103.05 48.7341 102.77 48.6716 102.417 48.6716C102.072 48.6716 101.802 48.7401 101.604 48.8793C101.407 49.0184 101.306 49.1919 101.306 49.3996C101.306 49.8029 101.747 50.0892 102.631 50.2526C102.921 50.3131 103.169 50.3695 103.371 50.4219C103.572 50.4744 103.79 50.549 104.022 50.6458C104.254 50.7426 104.439 50.8555 104.583 50.9826C104.724 51.1096 104.843 51.2749 104.936 51.4766C105.028 51.6783 105.075 51.9102 105.075 52.1723C105.075 52.7773 104.849 53.2391 104.395 53.5516C103.941 53.8662 103.338 54.0235 102.582 54.0235C101.969 54.0235 101.413 53.8723 100.915 53.5698C100.416 53.2673 100.027 52.8055 99.7429 52.1844L100.81 51.5674C101.155 52.3901 101.749 52.8015 102.594 52.8015C102.953 52.8015 103.232 52.741 103.431 52.622C103.629 52.503 103.73 52.3236 103.73 52.0836C103.73 52.009 103.716 51.9384 103.685 51.8759C103.655 51.8134 103.601 51.7569 103.522 51.7065C103.443 51.6581 103.373 51.6157 103.308 51.5835C103.246 51.5492 103.145 51.5169 103.01 51.4827C102.875 51.4484 102.772 51.4262 102.701 51.4101C102.631 51.3959 102.514 51.3677 102.348 51.3314C102.012 51.2709 101.715 51.1963 101.455 51.1076C101.197 51.0168 100.949 50.8999 100.709 50.7547C100.469 50.6095 100.285 50.4199 100.154 50.188C100.025 49.9561 99.9587 49.692 99.9587 49.3915Z" fill="#3D89AA"/>
<path d="M106.275 49.3915C106.275 48.8369 106.5 48.3731 106.954 48.0001C107.406 47.627 107.997 47.4395 108.727 47.4395C109.457 47.4395 110.048 47.625 110.499 47.994C110.953 48.3651 111.179 48.8349 111.179 49.4016C111.179 49.6496 111.136 49.8916 111.056 50.1316L109.765 49.817C109.848 49.6597 109.89 49.5105 109.89 49.3673C109.89 49.1576 109.785 48.9902 109.576 48.8611C109.366 48.7341 109.086 48.6716 108.733 48.6716C108.388 48.6716 108.118 48.7401 107.92 48.8793C107.722 49.0184 107.622 49.1919 107.622 49.3996C107.622 49.8029 108.063 50.0892 108.946 50.2526C109.237 50.3131 109.485 50.3695 109.687 50.4219C109.888 50.4744 110.106 50.549 110.338 50.6458C110.57 50.7426 110.755 50.8555 110.898 50.9826C111.04 51.1096 111.159 51.2749 111.251 51.4766C111.344 51.6783 111.391 51.9102 111.391 52.1723C111.391 52.7773 111.165 53.2391 110.713 53.5516C110.259 53.8662 109.656 54.0235 108.9 54.0235C108.287 54.0235 107.73 53.8723 107.232 53.5698C106.734 53.2673 106.345 52.8055 106.061 52.1844L107.128 51.5674C107.472 52.3901 108.067 52.8015 108.912 52.8015C109.271 52.8015 109.549 52.741 109.749 52.622C109.947 52.503 110.048 52.3236 110.048 52.0836C110.048 52.009 110.033 51.9384 110.003 51.8759C109.973 51.8134 109.918 51.7569 109.84 51.7065C109.761 51.6581 109.691 51.6157 109.626 51.5835C109.564 51.5492 109.463 51.5169 109.328 51.4827C109.192 51.4484 109.09 51.4262 109.019 51.4101C108.948 51.3959 108.832 51.3677 108.666 51.3314C108.329 51.2709 108.033 51.1963 107.773 51.1076C107.515 51.0168 107.267 50.8999 107.027 50.7547C106.787 50.6095 106.603 50.4199 106.472 50.188C106.341 49.9561 106.275 49.692 106.275 49.3915Z" fill="#3D89AA"/>
<path d="M113.984 46.9454H112.626V45.6548H113.984V46.9454ZM113.984 53.8118H112.626V47.6411H113.984V53.8118Z" fill="#3D89AA"/>
<path d="M116.077 53.0556C115.504 52.4083 115.218 51.6319 115.218 50.7285C115.218 49.825 115.504 49.0487 116.077 48.4054C116.65 47.7621 117.363 47.4395 118.22 47.4395C119.077 47.4395 119.791 47.7621 120.364 48.4054C120.937 49.0487 121.223 49.823 121.223 50.7285C121.223 51.6339 120.937 52.4103 120.364 53.0556C119.791 53.7029 119.077 54.0255 118.22 54.0255C117.363 54.0255 116.65 53.7029 116.077 53.0556ZM117.037 49.3027C116.73 49.6919 116.577 50.1658 116.577 50.7285C116.577 51.2891 116.73 51.765 117.037 52.1542C117.343 52.5433 117.738 52.7369 118.22 52.7369C118.704 52.7369 119.102 52.5433 119.416 52.1542C119.731 51.765 119.888 51.2891 119.888 50.7285C119.888 50.1679 119.731 49.6919 119.416 49.3027C119.102 48.9136 118.704 48.72 118.22 48.72C117.738 48.718 117.343 48.9136 117.037 49.3027Z" fill="#3D89AA"/>
<path d="M122.455 47.6412H123.812L123.554 49.6376C123.591 49.3915 123.653 49.1496 123.74 48.9136C123.827 48.6777 123.948 48.4438 124.105 48.2119C124.262 47.98 124.47 47.7924 124.728 47.6513C124.986 47.5101 125.276 47.4375 125.597 47.4375C126.21 47.4375 126.708 47.6775 127.089 48.1554C127.47 48.6333 127.662 49.2101 127.662 49.8836V53.8098H126.315V50.0953C126.315 49.6759 126.206 49.3331 125.99 49.0689C125.773 48.8047 125.496 48.6716 125.16 48.6716C124.786 48.6716 124.468 48.8108 124.206 49.0931C123.944 49.3734 123.812 49.7082 123.812 50.0973V53.8118H122.455V47.6412Z" fill="#3D89AA"/>
</svg>
