<svg width="366" height="112" viewBox="0 0 366 112" fill="none" xmlns="http://www.w3.org/2000/svg">
<path d="M142.041 101.094L141.536 104H140.209L141.568 96.1797L144.275 96.1851C145.091 96.1851 145.732 96.4089 146.198 96.8564C146.663 97.3005 146.866 97.8895 146.805 98.6235C146.74 99.3826 146.431 99.986 145.875 100.434C145.32 100.878 144.594 101.1 143.695 101.1L142.041 101.094ZM142.229 100.004L143.749 100.015C144.228 100.015 144.62 99.8929 144.925 99.6494C145.233 99.4059 145.417 99.0658 145.478 98.6289C145.528 98.2314 145.453 97.9128 145.252 97.6729C145.056 97.4294 144.757 97.2987 144.355 97.2808L142.701 97.2754L142.229 100.004ZM150.763 99.3809C150.598 99.3451 150.432 99.3271 150.264 99.3271C149.705 99.3128 149.261 99.5438 148.932 100.02L148.233 104H146.96L147.965 98.1885L149.173 98.1831L149.044 98.8438C149.442 98.3174 149.9 98.0596 150.419 98.0703C150.538 98.0703 150.701 98.0972 150.908 98.1509L150.763 99.3809ZM153.288 104.107C152.783 104.097 152.344 103.97 151.972 103.726C151.603 103.483 151.329 103.15 151.15 102.727C150.974 102.305 150.908 101.834 150.951 101.314L150.967 101.094C151.032 100.503 151.204 99.9735 151.483 99.5044C151.766 99.0317 152.117 98.6737 152.536 98.4302C152.955 98.1867 153.409 98.0703 153.9 98.0811C154.627 98.0954 155.171 98.3657 155.533 98.8921C155.898 99.4185 156.036 100.104 155.946 100.949L155.871 101.508H152.213C152.181 101.97 152.274 102.342 152.493 102.625C152.711 102.908 153.012 103.053 153.395 103.06C153.943 103.078 154.448 102.84 154.91 102.346L155.554 103.022C155.311 103.37 154.99 103.64 154.593 103.833C154.195 104.023 153.76 104.115 153.288 104.107ZM153.83 99.123C153.157 99.1016 152.652 99.5778 152.315 100.552L154.727 100.557L154.749 100.444C154.774 100.28 154.775 100.118 154.754 99.9609C154.715 99.7067 154.614 99.5062 154.453 99.3594C154.292 99.2126 154.084 99.1338 153.83 99.123ZM159.91 102.389C159.971 102.034 159.74 101.789 159.217 101.653C158.698 101.513 158.344 101.402 158.154 101.32C157.416 101.005 157.06 100.525 157.085 99.8804C157.103 99.3576 157.339 98.9261 157.794 98.5859C158.252 98.2422 158.8 98.0739 159.438 98.0811C160.053 98.0882 160.555 98.2619 160.941 98.6021C161.332 98.9422 161.523 99.388 161.516 99.9395L160.254 99.9341C160.261 99.6655 160.188 99.4561 160.034 99.3057C159.88 99.1517 159.668 99.0711 159.4 99.064C159.117 99.064 158.874 99.1338 158.669 99.2734C158.469 99.4131 158.353 99.5957 158.32 99.8213C158.27 100.147 158.499 100.375 159.008 100.503C159.516 100.629 159.892 100.745 160.136 100.853C160.845 101.164 161.187 101.651 161.162 102.313C161.144 102.682 161.022 103.005 160.796 103.28C160.574 103.552 160.275 103.762 159.899 103.909C159.523 104.052 159.124 104.118 158.702 104.107C158.068 104.1 157.542 103.916 157.123 103.554C156.707 103.193 156.503 102.729 156.51 102.163L157.74 102.168C157.747 102.48 157.84 102.716 158.02 102.877C158.199 103.039 158.444 103.121 158.755 103.125C159.07 103.125 159.332 103.06 159.54 102.931C159.751 102.799 159.874 102.618 159.91 102.389ZM164.631 104.107C164.126 104.097 163.688 103.97 163.315 103.726C162.947 103.483 162.673 103.15 162.494 102.727C162.318 102.305 162.252 101.834 162.295 101.314L162.311 101.094C162.375 100.503 162.547 99.9735 162.827 99.5044C163.11 99.0317 163.46 98.6737 163.879 98.4302C164.298 98.1867 164.753 98.0703 165.244 98.0811C165.971 98.0954 166.515 98.3657 166.876 98.8921C167.242 99.4185 167.38 100.104 167.29 100.949L167.215 101.508H163.557C163.525 101.97 163.618 102.342 163.836 102.625C164.055 102.908 164.356 103.053 164.739 103.06C165.287 103.078 165.792 102.84 166.253 102.346L166.898 103.022C166.654 103.37 166.334 103.64 165.937 103.833C165.539 104.023 165.104 104.115 164.631 104.107ZM165.174 99.123C164.501 99.1016 163.996 99.5778 163.659 100.552L166.071 100.557L166.092 100.444C166.117 100.28 166.119 100.118 166.098 99.9609C166.058 99.7067 165.958 99.5062 165.797 99.3594C165.636 99.2126 165.428 99.1338 165.174 99.123ZM169.965 98.1831L169.836 98.8652C170.334 98.3281 170.908 98.0667 171.56 98.0811C172.104 98.0918 172.507 98.2869 172.769 98.6665C173.03 99.0425 173.127 99.5688 173.059 100.246L172.43 104H171.157L171.791 100.229C171.809 100.076 171.811 99.9323 171.796 99.7998C171.75 99.3737 171.496 99.1553 171.034 99.1445C170.55 99.1374 170.126 99.3755 169.761 99.8589L169.036 104H167.763L168.767 98.1885L169.965 98.1831ZM176.625 96.7759L176.378 98.1885H177.372L177.205 99.1553H176.206L175.658 102.41C175.647 102.5 175.646 102.58 175.653 102.652C175.674 102.885 175.818 103.006 176.083 103.017C176.215 103.017 176.365 103.001 176.534 102.969L176.448 103.989C176.183 104.064 175.916 104.102 175.647 104.102C175.203 104.095 174.87 103.944 174.648 103.651C174.43 103.354 174.344 102.962 174.391 102.475L174.933 99.1553H174.004L174.176 98.1885H175.1L175.347 96.7759H176.625ZM180.014 104.107C179.509 104.097 179.071 103.97 178.698 103.726C178.329 103.483 178.056 103.15 177.876 102.727C177.701 102.305 177.635 101.834 177.678 101.314L177.694 101.094C177.758 100.503 177.93 99.9735 178.209 99.5044C178.492 99.0317 178.843 98.6737 179.262 98.4302C179.681 98.1867 180.136 98.0703 180.626 98.0811C181.353 98.0954 181.898 98.3657 182.259 98.8921C182.625 99.4185 182.762 100.104 182.673 100.949L182.598 101.508H178.94C178.908 101.97 179.001 102.342 179.219 102.625C179.438 102.908 179.738 103.053 180.122 103.06C180.669 103.078 181.174 102.84 181.636 102.346L182.281 103.022C182.037 103.37 181.717 103.64 181.319 103.833C180.922 104.023 180.487 104.115 180.014 104.107ZM180.557 99.123C179.883 99.1016 179.379 99.5778 179.042 100.552L181.454 100.557L181.475 100.444C181.5 100.28 181.502 100.118 181.48 99.9609C181.441 99.7067 181.341 99.5062 181.18 99.3594C181.019 99.2126 180.811 99.1338 180.557 99.123ZM183.441 101.089C183.513 100.491 183.674 99.9538 183.924 99.4775C184.175 99.0013 184.485 98.6468 184.854 98.4141C185.222 98.1777 185.632 98.0649 186.083 98.0757C186.674 98.09 187.136 98.3102 187.469 98.7363L188.028 95.75H189.306L187.872 104H186.733L186.819 103.398C186.368 103.889 185.838 104.127 185.229 104.113C184.689 104.106 184.256 103.898 183.93 103.49C183.607 103.078 183.434 102.532 183.409 101.852C183.398 101.63 183.403 101.413 183.425 101.202L183.441 101.089ZM184.676 101.588C184.651 102.032 184.719 102.385 184.88 102.646C185.045 102.908 185.289 103.042 185.611 103.049C186.101 103.064 186.526 102.826 186.884 102.335L187.319 99.8374C187.151 99.3898 186.825 99.1589 186.341 99.1445C185.854 99.1302 185.462 99.3451 185.165 99.7891C184.868 100.233 184.705 100.833 184.676 101.588ZM197.411 101.121C197.34 101.712 197.18 102.247 196.933 102.727C196.69 103.203 196.385 103.556 196.02 103.785C195.658 104.014 195.25 104.124 194.795 104.113C194.147 104.098 193.659 103.85 193.329 103.366L193.125 104H191.959L193.388 95.75H194.667L194.086 98.7524C194.52 98.2905 195.034 98.0667 195.628 98.0811C196.19 98.0954 196.629 98.3013 196.944 98.6987C197.263 99.0962 197.431 99.6405 197.449 100.332C197.452 100.546 197.44 100.81 197.411 101.121ZM196.187 100.401C196.187 100.011 196.106 99.7067 195.945 99.4883C195.784 99.2663 195.551 99.1517 195.247 99.1445C194.735 99.1302 194.301 99.3773 193.947 99.8857L193.528 102.292C193.685 102.779 194.024 103.031 194.543 103.049C194.973 103.06 195.325 102.895 195.601 102.555C195.88 102.215 196.059 101.735 196.138 101.116C196.167 100.811 196.183 100.573 196.187 100.401ZM200.231 102.12L202.057 98.1885H203.464L200.021 105.004C199.542 105.921 198.91 106.374 198.125 106.363C197.932 106.356 197.712 106.32 197.465 106.256L197.572 105.246L197.803 105.268C198.111 105.278 198.365 105.219 198.566 105.09C198.766 104.965 198.935 104.768 199.071 104.5L199.377 103.898L198.405 98.1885H199.726L200.231 102.12ZM206.069 103.372C206.069 103.153 206.137 102.976 206.273 102.84C206.413 102.7 206.59 102.627 206.805 102.62C207.016 102.612 207.192 102.677 207.332 102.813C207.475 102.945 207.546 103.117 207.546 103.329C207.546 103.536 207.478 103.71 207.342 103.85C207.206 103.986 207.029 104.057 206.811 104.064C206.599 104.072 206.422 104.009 206.279 103.876C206.139 103.744 206.069 103.576 206.069 103.372ZM206.854 98.8115C206.854 98.5931 206.922 98.4159 207.058 98.2798C207.197 98.1401 207.375 98.0667 207.589 98.0596C207.801 98.0524 207.976 98.1169 208.116 98.2529C208.259 98.3854 208.331 98.5573 208.331 98.7686C208.331 98.9762 208.263 99.1499 208.126 99.2896C207.99 99.4256 207.813 99.4972 207.595 99.5044C207.383 99.5116 207.206 99.4489 207.063 99.3164C206.923 99.1839 206.854 99.0156 206.854 98.8115Z" fill="#333333"/>
<path fill-rule="evenodd" clip-rule="evenodd" d="M40.7774 82.5871V82.6249H28.6807V98.0656L37.3624 109.646H106.816L107.101 109.425L101.352 102.63L99.4145 82.5871H40.7774ZM50.592 6.42022L66.5204 13.4377L77.1287 33.481L90.719 77.2921L106.197 74.5698V97.6196L111.197 106.238L120.41 98.0656L119.12 40.6335L121.7 8.00087L90.719 5.42096H48.6291L50.592 6.42022Z" fill="#00529D"/>
<path d="M23.8589 40.2228L11.5691 16.0572L51.3333 22.2381L74.448 65.4331L65.7338 71.2181L51.4264 67.9902L34.4366 56.8712L37.196 43.0768L23.8589 40.2228Z" fill="#EF232E"/>
<path d="M60.5745 39.5591L78.2366 77.484L83.4113 78.2283L85.4806 77.4883L69.6411 32.773L59.0603 16.1111L43.5411 10.1163L21.256 10.6531L11.5803 16.0607L31.7008 21.5467L50.2421 25.2795L60.5745 39.5591Z" fill="#FF9D42"/>
<path d="M38.8174 76.5542V64.7766L46.1784 71.2007L58.4466 76.5542H38.8174Z" fill="#FF9D42"/>
<path d="M147.76 5.41464H136.723V43.6988H158.994V34.5343H147.76V5.41464Z" fill="#333333"/>
<path d="M176.057 12.0378H173.889C172.164 12.0378 170.538 12.3827 169.06 13.0232C167.582 13.6637 166.252 14.5506 165.168 15.6346C164.034 16.7678 163.147 18.0982 162.507 19.5763C161.866 21.0545 161.571 22.6805 161.571 24.3557V29.9727C161.571 31.6972 161.866 33.3232 162.507 34.8013C163.147 36.2795 164.034 37.6098 165.168 38.6938C166.252 39.8271 167.582 40.7139 169.06 41.3545C170.538 41.995 172.164 42.2906 173.889 42.2906H176.057C177.732 42.2906 179.358 41.995 180.836 41.3545C182.314 40.7139 183.645 39.8271 184.778 38.6938C185.862 37.6098 186.749 36.2795 187.389 34.8013C188.03 33.3232 188.375 31.6972 188.375 29.9727V24.3557C188.375 22.6805 188.03 21.0545 187.389 19.5763C186.749 18.0982 185.862 16.7678 184.778 15.6346C183.645 14.5506 182.314 13.6637 180.836 13.0232C179.358 12.3827 177.732 12.0378 176.057 12.0378ZM177.091 20.9067L177.436 33.3232V33.6681H172.509L172.558 33.3232L173.002 20.8574V20.6603H177.091V20.9067Z" fill="#333333"/>
<path d="M208.943 19.7242L212.984 14.1564L217.714 7.70183H208.746L207.859 8.93363L203.031 15.5361V8.14528H194.31V37.9547H203.031V27.854L203.474 27.2135L209.14 35.9839L209.288 36.2302L209.485 36.5258L210.421 37.9547H220.818L216.778 31.7465L208.943 19.7242Z" fill="#333333"/>
<path d="M252.252 37.0678L245.452 14.797L244.368 11.2987H235.204L233.775 15.9795L229.094 31.303L225.99 41.5516H237.372L239.293 35.294H245.6L246.487 38.0533L247.522 41.5516H253.582L252.252 37.0678ZM238.751 29.48L241.313 21.153L243.875 29.48H238.751Z" fill="#333333"/>
<path d="M267.883 13.1217H259.162V43.3746H276.752V36.1317H267.883V13.1217Z" fill="#333333"/>
<path d="M241.917 68.6247H231.866V71.6303H226.938L226.988 71.2854L227.431 58.8197V58.6226H232.309L232.161 59.7558L231.915 61.3818V61.6774H241.917C241.818 60.1007 241.424 58.5733 240.734 57.1444C240.045 55.7155 239.158 54.4837 238.074 53.3998C236.99 52.3651 235.709 51.5274 234.231 50.9362C232.752 50.3449 231.225 50 229.599 50H228.318C226.593 50 224.967 50.3449 223.489 50.9854C222.011 51.6752 220.681 52.5621 219.597 53.6461C218.464 54.7794 217.577 56.1097 216.936 57.5879C216.296 59.066 216 60.692 216 62.3672V67.9349C216 69.6595 216.296 71.2854 216.936 72.7636C217.577 74.2417 218.464 75.5721 219.597 76.6561C220.681 77.7893 222.011 78.6762 223.489 79.3167C224.967 80.0065 226.593 80.3022 228.318 80.3022H229.599C231.225 80.3022 232.752 80.0065 234.231 79.4153C235.709 78.824 236.99 77.9864 238.074 76.9024C239.158 75.8677 240.045 74.6359 240.734 73.207C241.424 71.8274 241.818 70.3 241.917 68.6247Z" fill="#333333"/>
<path d="M257.256 68.7726H260.902V61.5296H257.256V57.243H265.485V50H246.958V57.243H248.584V80.3022H266.569V71.5811H257.256V68.7726Z" fill="#333333"/>
<path d="M293.455 74.4388L290.351 68.2306C291.632 67.3437 292.617 66.2104 293.406 64.8308C294.194 63.4512 294.588 61.8745 294.588 60.1993C294.588 58.8689 294.293 57.5879 293.8 56.4053C293.307 55.2228 292.617 54.1881 291.73 53.3012C290.843 52.4143 289.809 51.7245 288.626 51.2318C287.444 50.7391 286.163 50.4435 284.832 50.4435H272.662V61.234H271.036V69.9551H272.662V80.7456H281.383V69.9551H281.482L285.621 78.3313L286.852 80.7456H296.608L293.455 74.4388ZM281.728 64.0425V57.5879H285.029L285.177 58.7211L285.374 60.5442L285.719 63.599L285.769 64.0425H281.728Z" fill="#333333"/>
<path d="M302.716 83.4556H311.438V53.1534H302.716V83.4556Z" fill="#333333"/>
<path d="M337.86 50.4435H317.363V59.1646H323.522V80.7456H332.243V56.2575H337.86V50.4435Z" fill="#333333"/>
<path d="M363.902 79.1689L357.102 56.8981L356.018 53.3998H346.854L345.425 58.0806L340.744 73.4041L337.64 83.6527H349.022L350.943 77.3951H357.25L358.137 80.1544L359.172 83.6527H365.232L363.902 79.1689ZM350.401 71.5811L352.963 63.2541L355.525 71.5811H350.401Z" fill="#333333"/>
<path d="M163.36 57.9383C163.36 56.4602 163.065 55.0313 162.474 53.701C161.882 52.4199 161.143 51.2374 160.158 50.2519C159.172 49.2665 157.99 48.5274 156.659 47.9362C155.329 47.3449 153.9 47.0493 152.422 47.0493H150.057V47H139.02V47.0493H137V58.0369H139.02V85.3335H152.816C154.689 85.3335 156.462 84.9886 158.138 84.2495C159.813 83.5597 161.242 82.5743 162.474 81.2932C163.705 80.0614 164.691 78.6325 165.43 76.9573C166.12 75.282 166.514 73.5082 166.514 71.5866C166.514 69.7143 166.169 67.9898 165.479 66.3638C164.789 64.7378 163.804 63.309 162.621 62.0279C163.114 60.7468 163.36 59.4165 163.36 57.9383ZM155.674 68.4332L155.625 74.3951H149.416V74.2966L149.614 68.8767L149.712 66.1667H155.674V68.4332ZM153.063 54.6371V61.2396H150.156L150.205 59.9585L150.254 57.8891L150.402 54.6371H153.063Z" fill="#00529D"/>
<path d="M192.043 74.5429L188.939 68.3347C190.22 67.4478 191.205 66.3145 191.993 64.9349C192.782 63.5553 193.176 61.9786 193.176 60.3034C193.176 58.973 192.88 57.692 192.388 56.5095C191.895 55.3269 191.205 54.2922 190.318 53.4053C189.431 52.5184 188.397 51.8286 187.214 51.3359C186.032 50.8432 184.75 50.5476 183.42 50.5476H171.25V61.3381H169.624V70.0592H171.25V80.8497H179.971V70.0592H180.07L184.208 78.4354L185.44 80.8497H195.196L192.043 74.5429ZM180.316 64.1466V57.692H183.617L183.765 58.8252L183.962 60.6483L184.307 63.7031L184.356 64.1466H180.316Z" fill="#00529D"/>
<path d="M201.304 83.5597H210.025V53.2575H201.304V83.5597Z" fill="#00529D"/>
<path fill-rule="evenodd" clip-rule="evenodd" d="M234.968 89.0019C235.061 88.9928 235.154 89.0166 235.231 89.0692C234.962 92.4272 232.888 94.1032 229.114 93.8463V108.74C231.842 108.098 233.555 106.343 234.833 104.214L235.151 104.342C234.289 107.847 232.417 110.465 229.175 111.517C227.278 112.067 225.276 112.148 223.34 111.756C221.715 111.426 220.19 110.716 218.893 109.682C217.905 108.891 217.099 107.896 216.529 106.766C215.96 105.636 215.639 104.396 215.59 103.131C215.525 102.126 215.607 101.116 215.835 100.134C216.223 98.5251 216.971 97.0253 218.025 95.7485C219.01 94.5573 220.145 93.4985 221.401 92.5985C219.9 92.2524 218.327 92.3939 216.912 93.0022C215.948 93.5386 215.134 94.3084 214.544 95.2409C214.471 95.351 214.343 95.5895 214.263 95.6079C214.176 95.6191 214.088 95.6211 214 95.614C214.088 94.6425 214.378 93.7001 214.85 92.847C215.323 91.9938 215.969 91.2488 216.746 90.6595C218.57 89.4718 220.749 88.953 222.912 89.1915C225.848 89.3811 228.295 90.268 231.041 90.6717C231.622 90.7807 232.216 90.8014 232.802 90.7329C233.916 90.5616 234.448 89.8582 234.943 89.0325C234.956 89.0264 234.949 89.0019 234.968 89.0019ZM218.979 99.4797C218.698 102.899 219.89 105.229 221.64 106.746C221.981 106.453 222.258 106.093 222.453 105.688C222.643 105.165 222.728 104.61 222.704 104.055V92.8003C222.566 92.7894 222.429 92.7689 222.294 92.7392C220.381 94.4897 219.198 96.8961 218.979 99.4797ZM226.135 93.3998V97.7915C226.208 99.2201 226.161 100.652 225.995 102.073C225.542 104.581 223.946 105.908 222.392 107.291C223.695 108.459 225.738 109.071 228.276 108.881V93.779C227.561 93.6444 226.869 93.4854 226.148 93.3569C226.141 93.3508 226.129 93.3753 226.135 93.3998Z" fill="#0066B3"/>
<path fill-rule="evenodd" clip-rule="evenodd" d="M238.295 89.9866C238.559 89.9596 238.825 90.0237 239.047 90.1683C239.27 90.313 239.436 90.5295 239.519 90.7818C239.892 91.7605 239.647 93.3324 238.827 93.6811C238.543 93.7932 238.23 93.8108 237.935 93.7315C237.64 93.6522 237.378 93.4802 237.188 93.2407C236.956 92.8494 236.846 92.3982 236.87 91.944C236.87 90.8613 237.158 89.9866 238.295 89.9866Z" fill="#0066B2"/>
<path fill-rule="evenodd" clip-rule="evenodd" d="M243.476 95.7974C243.681 95.3095 244.015 94.8867 244.442 94.5741C244.66 94.4683 244.903 94.4248 245.143 94.4486C245.384 94.4723 245.614 94.5624 245.806 94.7087C246.128 94.9776 246.379 95.3223 246.534 95.7118C247.232 97.6602 247.36 99.7673 246.901 101.786C246.836 102.213 246.684 102.622 246.455 102.988C246.225 103.354 245.924 103.669 245.568 103.914C245.321 104.033 245.045 104.077 244.774 104.039C244.503 104 244.249 103.883 244.045 103.7C243.702 103.315 243.466 102.847 243.36 102.342V104.061C242.391 103.913 241.415 103.823 240.436 103.792V103.351H240.98V90.9286H240.424V90.5004C241.408 90.4637 242.389 90.3595 243.36 90.1885C243.464 90.1885 243.452 90.1885 243.458 90.3047C243.513 91.1855 243.458 92.0969 243.458 92.9654L243.476 95.7974ZM243.476 97.2471V101.394C243.486 101.713 243.527 102.031 243.598 102.342C243.66 102.605 243.794 102.954 244.057 102.954C244.32 102.954 244.357 102.55 244.394 102.275C244.473 101.278 244.491 100.277 244.449 99.2778V97.2104C244.456 96.8815 244.441 96.5526 244.406 96.2256C244.351 95.8708 244.277 95.5528 243.99 95.6139C243.525 95.7179 243.513 96.7149 243.488 97.2471H243.476Z" fill="#0066B2"/>
<path fill-rule="evenodd" clip-rule="evenodd" d="M292.446 94.2621C292.476 95.3754 292.501 96.5559 292.507 97.6507H292.293C292.095 96.7082 291.652 95.8346 291.008 95.1185C290.672 94.8188 289.901 94.5068 289.663 95.0757C289.566 95.3153 289.542 95.578 289.593 95.8313C289.644 96.0847 289.768 96.3174 289.95 96.5008C290.079 96.6109 290.25 96.6966 290.391 96.7944C290.848 97.0738 291.28 97.3931 291.681 97.7486C292.2 98.281 292.547 98.9563 292.678 99.6876C292.831 100.577 292.819 101.488 292.642 102.373C292.597 102.745 292.456 103.099 292.233 103.401C292.01 103.702 291.712 103.94 291.369 104.092C291.161 104.167 290.942 104.212 290.721 104.226C290.44 104.206 290.171 104.106 289.944 103.939C289.718 103.804 289.51 103.688 289.296 103.535C289.076 103.688 288.855 103.871 288.629 104.055C288.567 104.127 288.486 104.182 288.396 104.212C288.305 104.242 288.208 104.247 288.115 104.226C288.115 103.003 288.048 101.779 288.054 100.556H288.225C288.354 100.917 288.452 101.278 288.592 101.614C288.843 102.26 289.246 102.835 289.767 103.29C289.901 103.4 290.049 103.493 290.207 103.566C290.383 103.658 290.578 103.706 290.776 103.706C290.945 103.684 291.1 103.601 291.213 103.473C291.326 103.344 291.388 103.18 291.388 103.009C291.467 102.159 290.978 101.859 290.476 101.51C290.128 101.266 289.773 100.997 289.418 100.746C289.296 100.672 289.18 100.593 289.063 100.507C288.812 100.273 288.605 99.9952 288.452 99.6876C287.987 98.5517 287.907 97.2947 288.225 96.1094C288.285 95.7673 288.414 95.4411 288.604 95.1508C288.795 94.8604 289.042 94.6121 289.332 94.4212C289.694 94.2868 290.09 94.276 290.458 94.3906C290.784 94.5005 291.091 94.6593 291.369 94.8616C291.651 94.672 291.914 94.464 292.189 94.2499L292.446 94.2621Z" fill="#DB1F26"/>
<path fill-rule="evenodd" clip-rule="evenodd" d="M270.175 103.431H270.744V103.878H267.318V103.443H267.679V97.3694C267.698 97.0374 267.698 96.7045 267.679 96.3724C267.679 96.0788 267.575 95.718 267.337 95.6996C267.098 95.6813 266.927 96.036 266.86 96.2746C266.781 96.5648 266.73 96.8617 266.707 97.1615C266.652 97.8282 266.707 98.5805 266.707 99.2411V103.431H267.086V103.878H263.612V103.443H264.156V95.0329H263.636V94.5374C264.701 94.5374 265.624 94.3478 266.695 94.3356C266.695 94.9167 266.695 95.5589 266.695 96.14C267.019 95.3632 267.41 94.3784 268.383 94.305C269.606 94.2071 269.967 95.2592 270.108 96.3113C270.182 97.0816 270.211 97.8557 270.193 98.6295L270.175 103.431Z" fill="#DB1F26"/>
<path d="M237.355 108.018L236.614 105.905H236.602C236.627 106.217 236.627 106.517 236.627 106.792V108.018H236.25V105.492H236.84L237.543 107.505H237.556L238.284 105.492H238.875V108.018H238.473V106.767C238.473 106.642 238.473 106.48 238.485 106.28C238.498 106.08 238.498 105.955 238.498 105.917H238.485L237.719 108.03H237.355V108.018Z" fill="#0066B2"/>
<path d="M240.696 108.017L240.621 107.755H240.608C240.52 107.867 240.42 107.955 240.332 107.992C240.244 108.03 240.118 108.055 239.968 108.055C239.779 108.055 239.628 108.005 239.528 107.905C239.428 107.805 239.365 107.655 239.365 107.48C239.365 107.28 239.44 107.13 239.591 107.03C239.741 106.93 239.968 106.88 240.269 106.867L240.595 106.855V106.755C240.595 106.63 240.57 106.542 240.508 106.479C240.445 106.417 240.357 106.392 240.244 106.392C240.143 106.392 240.055 106.404 239.955 106.429C239.867 106.454 239.779 106.492 239.691 106.529L239.553 106.242C239.654 106.192 239.767 106.142 239.892 106.117C240.018 106.092 240.131 106.079 240.244 106.079C240.482 106.079 240.671 106.129 240.796 106.242C240.922 106.342 240.985 106.517 240.985 106.742V108.03H240.696V108.017ZM240.093 107.742C240.244 107.742 240.357 107.705 240.445 107.617C240.533 107.53 240.583 107.417 240.583 107.267V107.105L240.332 107.117C240.143 107.13 240.005 107.155 239.917 107.217C239.829 107.28 239.792 107.367 239.792 107.48C239.792 107.567 239.817 107.63 239.867 107.68C239.905 107.717 239.98 107.742 240.093 107.742Z" fill="#0066B2"/>
<path d="M242.278 107.717C242.379 107.717 242.479 107.705 242.58 107.667V107.967C242.529 107.992 242.479 108.005 242.404 108.017C242.329 108.03 242.253 108.042 242.178 108.042C241.789 108.042 241.6 107.842 241.6 107.43V106.404H241.336V106.229L241.613 106.079L241.751 105.679H242.002V106.104H242.555V106.417H242.002V107.442C242.002 107.542 242.027 107.617 242.077 107.655C242.128 107.692 242.19 107.717 242.278 107.717Z" fill="#0066B2"/>
<path d="M244.162 108.017L244.087 107.755H244.074C243.986 107.867 243.886 107.955 243.798 107.992C243.71 108.03 243.585 108.055 243.434 108.055C243.245 108.055 243.095 108.005 242.994 107.905C242.894 107.805 242.831 107.655 242.831 107.48C242.831 107.28 242.906 107.13 243.057 107.03C243.208 106.93 243.434 106.88 243.735 106.867L244.062 106.855V106.755C244.062 106.63 244.037 106.542 243.974 106.479C243.911 106.417 243.823 106.392 243.71 106.392C243.61 106.392 243.522 106.404 243.421 106.429C243.333 106.454 243.245 106.492 243.158 106.529L243.019 106.242C243.12 106.192 243.233 106.142 243.358 106.117C243.484 106.092 243.597 106.079 243.71 106.079C243.949 106.079 244.137 106.129 244.263 106.242C244.388 106.342 244.451 106.517 244.451 106.742V108.03H244.162V108.017ZM243.547 107.742C243.698 107.742 243.811 107.705 243.898 107.617C243.986 107.53 244.037 107.417 244.037 107.267V107.105L243.785 107.117C243.597 107.13 243.459 107.155 243.371 107.217C243.283 107.28 243.245 107.367 243.245 107.48C243.245 107.567 243.271 107.63 243.321 107.68C243.371 107.717 243.446 107.742 243.547 107.742Z" fill="#0066B2"/>
<path d="M245.983 108.017V105.492H246.397V107.667H247.477V108.017H245.983Z" fill="#0066B2"/>
<path d="M249.575 107.054C249.575 107.367 249.499 107.605 249.336 107.78C249.173 107.955 248.947 108.042 248.658 108.042C248.482 108.042 248.319 108.005 248.181 107.917C248.043 107.842 247.942 107.717 247.867 107.567C247.792 107.417 247.754 107.242 247.754 107.042C247.754 106.729 247.829 106.492 247.993 106.317C248.156 106.142 248.382 106.054 248.671 106.054C248.947 106.054 249.173 106.142 249.336 106.317C249.499 106.492 249.575 106.754 249.575 107.054ZM248.181 107.054C248.181 107.492 248.344 107.717 248.671 107.717C248.997 107.717 249.16 107.492 249.16 107.054C249.16 106.617 248.997 106.404 248.671 106.404C248.495 106.404 248.369 106.467 248.294 106.579C248.219 106.692 248.181 106.842 248.181 107.054Z" fill="#0066B2"/>
<path d="M250.442 107.005L250.668 106.717L251.245 106.104H251.71L250.932 106.93L251.748 108.017H251.271L250.655 107.18L250.429 107.367V108.017H250.027V105.329H250.429V106.642L250.442 107.005Z" fill="#0066B2"/>
<path d="M253.279 108.017L253.204 107.755H253.192C253.104 107.867 253.003 107.955 252.915 107.992C252.827 108.03 252.702 108.055 252.551 108.055C252.363 108.055 252.212 108.005 252.111 107.905C252.011 107.805 251.948 107.655 251.948 107.48C251.948 107.28 252.024 107.13 252.174 107.03C252.325 106.93 252.551 106.88 252.852 106.867L253.179 106.855V106.755C253.179 106.63 253.154 106.542 253.091 106.479C253.028 106.417 252.94 106.392 252.827 106.392C252.727 106.392 252.639 106.404 252.538 106.429C252.451 106.454 252.363 106.492 252.275 106.529L252.137 106.242C252.237 106.192 252.35 106.142 252.476 106.117C252.601 106.092 252.714 106.079 252.827 106.079C253.066 106.079 253.254 106.129 253.38 106.242C253.505 106.342 253.568 106.517 253.568 106.742V108.03H253.279V108.017ZM252.677 107.742C252.827 107.742 252.94 107.705 253.028 107.617C253.116 107.53 253.166 107.417 253.166 107.267V107.105L252.915 107.117C252.727 107.13 252.589 107.155 252.501 107.217C252.413 107.28 252.375 107.367 252.375 107.48C252.375 107.567 252.4 107.63 252.451 107.68C252.488 107.717 252.564 107.742 252.677 107.742Z" fill="#0066B2"/>
<path d="M254.547 108.017H254.146V105.329H254.547V108.017Z" fill="#0066B2"/>
<path d="M257.198 108.017L256.457 105.904H256.444C256.47 106.217 256.47 106.517 256.47 106.792V108.017H256.093V105.492H256.683L257.386 107.505H257.399L258.127 105.492H258.717V108.017H258.316V106.767C258.316 106.642 258.316 106.479 258.328 106.279C258.341 106.079 258.341 105.954 258.341 105.917H258.328L257.562 108.03H257.198V108.017Z" fill="#0066B2"/>
<path d="M260.174 108.055C259.872 108.055 259.646 107.967 259.47 107.792C259.307 107.617 259.219 107.38 259.219 107.08C259.219 106.767 259.295 106.517 259.458 106.342C259.609 106.167 259.835 106.079 260.098 106.079C260.349 106.079 260.55 106.154 260.701 106.304C260.852 106.454 260.927 106.667 260.927 106.942V107.167H259.646C259.646 107.355 259.696 107.492 259.797 107.592C259.897 107.692 260.023 107.742 260.199 107.742C260.312 107.742 260.412 107.73 260.513 107.705C260.613 107.68 260.714 107.642 260.827 107.592V107.917C260.726 107.967 260.626 107.992 260.525 108.017C260.425 108.042 260.312 108.055 260.174 108.055ZM260.098 106.379C259.973 106.379 259.86 106.417 259.784 106.504C259.709 106.592 259.659 106.705 259.646 106.867H260.513C260.513 106.705 260.475 106.592 260.4 106.504C260.337 106.417 260.236 106.379 260.098 106.379Z" fill="#0066B2"/>
<path d="M263.075 108.017H262.661V106.842C262.661 106.692 262.636 106.579 262.573 106.517C262.51 106.442 262.422 106.404 262.284 106.404C262.108 106.404 261.983 106.454 261.907 106.554C261.832 106.654 261.782 106.83 261.782 107.067V108.017H261.38V106.104H261.694L261.757 106.354H261.782C261.845 106.267 261.92 106.192 262.033 106.142C262.133 106.092 262.259 106.067 262.385 106.067C262.849 106.067 263.075 106.304 263.075 106.767V108.017Z" fill="#0066B2"/>
<path d="M263.451 108.868C263.326 108.868 263.225 108.855 263.15 108.83V108.505C263.225 108.53 263.313 108.53 263.389 108.53C263.564 108.53 263.652 108.43 263.652 108.23V106.092H264.054V108.255C264.054 108.455 264.004 108.605 263.903 108.705C263.79 108.818 263.64 108.868 263.451 108.868ZM263.627 105.592C263.627 105.517 263.652 105.466 263.69 105.429C263.728 105.391 263.79 105.366 263.866 105.366C263.941 105.366 263.991 105.391 264.029 105.429C264.067 105.466 264.092 105.529 264.092 105.592C264.092 105.667 264.067 105.717 264.029 105.754C263.991 105.792 263.929 105.817 263.866 105.817C263.79 105.817 263.74 105.792 263.69 105.754C263.64 105.717 263.627 105.667 263.627 105.592Z" fill="#0066B2"/>
<path d="M265.837 108.017L265.761 107.755H265.749C265.661 107.867 265.56 107.955 265.472 107.992C265.384 108.03 265.259 108.055 265.108 108.055C264.92 108.055 264.769 108.005 264.669 107.905C264.568 107.805 264.505 107.655 264.505 107.48C264.505 107.28 264.581 107.13 264.731 107.03C264.882 106.93 265.108 106.88 265.41 106.867L265.736 106.855V106.755C265.736 106.63 265.711 106.542 265.648 106.479C265.585 106.417 265.497 106.392 265.384 106.392C265.284 106.392 265.196 106.404 265.096 106.429C265.008 106.454 264.92 106.492 264.832 106.529L264.694 106.242C264.794 106.192 264.907 106.142 265.033 106.117C265.158 106.092 265.271 106.079 265.384 106.079C265.623 106.079 265.811 106.129 265.937 106.242C266.063 106.342 266.125 106.517 266.125 106.742V108.03H265.837V108.017ZM265.234 107.742C265.384 107.742 265.497 107.705 265.585 107.617C265.673 107.53 265.724 107.417 265.724 107.267V107.105L265.472 107.117C265.284 107.13 265.146 107.155 265.058 107.217C264.97 107.28 264.932 107.367 264.932 107.48C264.932 107.567 264.957 107.63 265.008 107.68C265.058 107.717 265.133 107.742 265.234 107.742Z" fill="#0066B2"/>
<path d="M268.387 108.017H267.972V106.842C267.972 106.692 267.947 106.579 267.884 106.517C267.822 106.442 267.734 106.404 267.596 106.404C267.42 106.404 267.294 106.454 267.219 106.554C267.143 106.654 267.093 106.83 267.093 107.067V108.017H266.691V106.104H267.005L267.068 106.354H267.093C267.156 106.267 267.231 106.192 267.344 106.142C267.445 106.092 267.57 106.067 267.696 106.067C268.161 106.067 268.387 106.304 268.387 106.767V108.017Z" fill="#0066B2"/>
<path d="M270.584 106.104V106.329L270.258 106.392C270.283 106.429 270.308 106.479 270.333 106.542C270.358 106.604 270.358 106.667 270.358 106.729C270.358 106.929 270.295 107.079 270.157 107.192C270.019 107.305 269.831 107.367 269.592 107.367C269.529 107.367 269.479 107.367 269.429 107.355C269.341 107.405 269.291 107.467 269.291 107.542C269.291 107.592 269.316 107.617 269.353 107.642C269.391 107.667 269.466 107.68 269.579 107.68H269.918C270.132 107.68 270.295 107.73 270.396 107.817C270.509 107.905 270.559 108.042 270.559 108.205C270.559 108.417 270.471 108.592 270.295 108.705C270.119 108.818 269.856 108.88 269.517 108.88C269.253 108.88 269.052 108.83 268.914 108.743C268.776 108.655 268.713 108.517 268.713 108.342C268.713 108.23 268.751 108.13 268.826 108.042C268.901 107.967 269.002 107.905 269.14 107.88C269.09 107.855 269.039 107.817 269.002 107.767C268.964 107.717 268.951 107.667 268.951 107.605C268.951 107.53 268.977 107.467 269.014 107.417C269.052 107.367 269.115 107.317 269.19 107.267C269.09 107.23 269.014 107.155 268.951 107.054C268.889 106.954 268.864 106.842 268.864 106.717C268.864 106.504 268.926 106.354 269.065 106.229C269.19 106.117 269.378 106.054 269.63 106.054C269.68 106.054 269.743 106.054 269.805 106.067C269.868 106.079 269.906 106.079 269.944 106.092H270.584V106.104ZM269.065 108.317C269.065 108.405 269.102 108.467 269.178 108.517C269.253 108.567 269.366 108.592 269.517 108.592C269.743 108.592 269.906 108.555 270.019 108.492C270.132 108.43 270.182 108.342 270.182 108.242C270.182 108.155 270.157 108.105 270.094 108.067C270.032 108.03 269.918 108.017 269.768 108.017H269.454C269.341 108.017 269.24 108.042 269.178 108.105C269.102 108.142 269.065 108.217 269.065 108.317ZM269.24 106.717C269.24 106.842 269.265 106.929 269.328 106.992C269.391 107.054 269.479 107.092 269.592 107.092C269.831 107.092 269.944 106.967 269.944 106.717C269.944 106.592 269.918 106.492 269.856 106.429C269.793 106.367 269.705 106.329 269.592 106.329C269.479 106.329 269.378 106.367 269.328 106.429C269.278 106.492 269.24 106.592 269.24 106.717Z" fill="#0066B2"/>
<path d="M271.326 107.005L271.552 106.717L272.13 106.104H272.594L271.816 106.93L272.632 108.017H272.155L271.54 107.18L271.313 107.367V108.017H270.912V105.329H271.313V106.642L271.326 107.005Z" fill="#0066B2"/>
<path d="M274.176 108.017L274.101 107.755H274.088C274 107.867 273.9 107.955 273.812 107.992C273.724 108.03 273.598 108.055 273.448 108.055C273.259 108.055 273.108 108.005 273.008 107.905C272.908 107.805 272.845 107.655 272.845 107.48C272.845 107.28 272.92 107.13 273.071 107.03C273.221 106.93 273.448 106.88 273.749 106.867L274.075 106.855V106.755C274.075 106.63 274.05 106.542 273.988 106.479C273.925 106.417 273.837 106.392 273.724 106.392C273.623 106.392 273.535 106.404 273.435 106.429C273.347 106.454 273.259 106.492 273.171 106.529L273.033 106.242C273.134 106.192 273.247 106.142 273.372 106.117C273.498 106.092 273.611 106.079 273.724 106.079C273.962 106.079 274.151 106.129 274.276 106.242C274.402 106.342 274.465 106.517 274.465 106.742V108.03H274.176V108.017ZM273.561 107.742C273.711 107.742 273.824 107.705 273.912 107.617C274 107.53 274.05 107.417 274.05 107.267V107.105L273.799 107.117C273.611 107.13 273.473 107.155 273.385 107.217C273.297 107.28 273.259 107.367 273.259 107.48C273.259 107.567 273.284 107.63 273.334 107.68C273.385 107.717 273.46 107.742 273.561 107.742Z" fill="#0066B2"/>
<path d="M276.387 108.017L276.324 107.767H276.312C276.249 107.855 276.173 107.93 276.073 107.98C275.972 108.03 275.847 108.055 275.709 108.055C275.47 108.055 275.307 107.992 275.194 107.88C275.081 107.767 275.018 107.592 275.018 107.355V106.104H275.432V107.28C275.432 107.43 275.458 107.53 275.52 107.605C275.583 107.68 275.671 107.717 275.809 107.717C275.985 107.717 276.111 107.667 276.186 107.567C276.261 107.467 276.312 107.292 276.312 107.054V106.104H276.726V108.017H276.387Z" fill="#0066B2"/>
<path d="M278.257 108.017V105.492H278.672V108.017H278.257Z" fill="#0066B2"/>
<path d="M280.994 108.017H280.58V106.842C280.58 106.692 280.555 106.579 280.492 106.517C280.429 106.442 280.341 106.404 280.203 106.404C280.027 106.404 279.902 106.454 279.826 106.554C279.751 106.654 279.701 106.83 279.701 107.067V108.017H279.299V106.104H279.613L279.676 106.354H279.701C279.763 106.267 279.839 106.192 279.952 106.142C280.052 106.092 280.178 106.067 280.303 106.067C280.768 106.067 280.994 106.304 280.994 106.767V108.017Z" fill="#0066B2"/>
<path d="M282.202 108.055C281.963 108.055 281.775 107.967 281.637 107.792C281.499 107.617 281.436 107.38 281.436 107.067C281.436 106.754 281.499 106.504 281.637 106.329C281.775 106.154 281.963 106.067 282.202 106.067C282.453 106.067 282.642 106.154 282.78 106.342H282.805C282.78 106.204 282.78 106.092 282.78 106.017V105.316H283.194V108.005H282.88L282.805 107.755H282.78C282.654 107.955 282.466 108.055 282.202 108.055ZM282.315 107.717C282.478 107.717 282.604 107.667 282.679 107.58C282.755 107.48 282.792 107.33 282.792 107.117V107.067C282.792 106.829 282.755 106.654 282.679 106.554C282.604 106.454 282.478 106.404 282.315 106.404C282.177 106.404 282.064 106.467 281.989 106.579C281.913 106.692 281.876 106.854 281.876 107.08C281.876 107.292 281.913 107.455 281.989 107.567C282.051 107.667 282.164 107.717 282.315 107.717Z" fill="#0066B2"/>
<path d="M285.478 107.054C285.478 107.367 285.402 107.605 285.239 107.78C285.076 107.955 284.85 108.042 284.561 108.042C284.385 108.042 284.222 108.005 284.084 107.917C283.946 107.842 283.845 107.717 283.77 107.567C283.694 107.417 283.657 107.242 283.657 107.042C283.657 106.729 283.732 106.492 283.895 106.317C284.059 106.142 284.285 106.054 284.573 106.054C284.85 106.054 285.076 106.142 285.239 106.317C285.402 106.492 285.478 106.754 285.478 107.054ZM284.084 107.054C284.084 107.492 284.247 107.717 284.573 107.717C284.9 107.717 285.063 107.492 285.063 107.054C285.063 106.617 284.9 106.404 284.573 106.404C284.398 106.404 284.272 106.467 284.197 106.579C284.121 106.692 284.084 106.842 284.084 107.054Z" fill="#0066B2"/>
<path d="M287.639 108.017H287.224V106.842C287.224 106.692 287.199 106.579 287.136 106.517C287.074 106.442 286.986 106.404 286.848 106.404C286.672 106.404 286.546 106.454 286.471 106.554C286.395 106.654 286.345 106.83 286.345 107.067V108.017H285.943V106.104H286.257L286.32 106.354H286.345C286.408 106.267 286.483 106.192 286.596 106.142C286.697 106.092 286.822 106.067 286.948 106.067C287.413 106.067 287.639 106.304 287.639 106.767V108.017Z" fill="#0066B2"/>
<path d="M289.045 108.055C288.743 108.055 288.517 107.967 288.341 107.792C288.166 107.617 288.09 107.38 288.09 107.08C288.09 106.767 288.166 106.517 288.329 106.342C288.48 106.167 288.706 106.079 288.969 106.079C289.221 106.079 289.421 106.154 289.572 106.304C289.723 106.454 289.798 106.667 289.798 106.942V107.167H288.517C288.517 107.355 288.568 107.492 288.668 107.592C288.768 107.692 288.894 107.742 289.07 107.742C289.183 107.742 289.283 107.73 289.384 107.705C289.484 107.68 289.585 107.642 289.698 107.592V107.917C289.597 107.967 289.497 107.992 289.396 108.017C289.296 108.042 289.17 108.055 289.045 108.055ZM288.969 106.379C288.844 106.379 288.731 106.417 288.655 106.504C288.58 106.592 288.53 106.705 288.517 106.867H289.384C289.384 106.705 289.346 106.592 289.271 106.504C289.195 106.417 289.095 106.379 288.969 106.379Z" fill="#0066B2"/>
<path d="M291.544 107.467C291.544 107.655 291.481 107.792 291.343 107.892C291.205 107.992 291.016 108.042 290.753 108.042C290.501 108.042 290.288 108.005 290.137 107.93V107.58C290.363 107.68 290.577 107.73 290.765 107.73C291.016 107.73 291.142 107.655 291.142 107.505C291.142 107.455 291.129 107.417 291.104 107.38C291.079 107.342 291.029 107.317 290.966 107.28C290.903 107.242 290.815 107.205 290.702 107.167C290.476 107.08 290.326 106.992 290.25 106.917C290.175 106.83 290.137 106.717 290.137 106.579C290.137 106.417 290.2 106.292 290.338 106.204C290.476 106.117 290.652 106.067 290.878 106.067C291.104 106.067 291.318 106.117 291.519 106.204L291.38 106.504C291.167 106.417 291.004 106.379 290.853 106.379C290.64 106.379 290.527 106.442 290.527 106.567C290.527 106.629 290.552 106.679 290.614 106.717C290.665 106.755 290.79 106.817 290.979 106.892C291.142 106.955 291.255 107.005 291.33 107.055C291.406 107.105 291.456 107.167 291.493 107.23C291.531 107.292 291.544 107.38 291.544 107.467Z" fill="#0066B2"/>
<path d="M291.958 105.592C291.958 105.517 291.983 105.466 292.021 105.429C292.058 105.391 292.121 105.366 292.197 105.366C292.272 105.366 292.322 105.391 292.36 105.429C292.398 105.466 292.423 105.529 292.423 105.592C292.423 105.667 292.398 105.717 292.36 105.754C292.322 105.792 292.259 105.817 292.197 105.817C292.121 105.817 292.071 105.792 292.021 105.754C291.983 105.717 291.958 105.667 291.958 105.592ZM292.398 108.017H291.996V106.104H292.398V108.017Z" fill="#0066B2"/>
<path d="M294.181 108.017L294.105 107.755H294.093C294.005 107.867 293.904 107.955 293.817 107.992C293.729 108.03 293.603 108.055 293.452 108.055C293.264 108.055 293.113 108.005 293.013 107.905C292.912 107.805 292.85 107.655 292.85 107.48C292.85 107.28 292.925 107.13 293.076 107.03C293.226 106.93 293.452 106.88 293.754 106.867L294.08 106.855V106.755C294.08 106.63 294.055 106.542 293.992 106.479C293.93 106.417 293.842 106.392 293.729 106.392C293.628 106.392 293.54 106.404 293.44 106.429C293.352 106.454 293.264 106.492 293.176 106.529L293.038 106.242C293.138 106.192 293.251 106.142 293.377 106.117C293.503 106.092 293.616 106.079 293.729 106.079C293.967 106.079 294.156 106.129 294.281 106.242C294.407 106.342 294.47 106.517 294.47 106.742V108.03H294.181V108.017ZM293.565 107.742C293.716 107.742 293.829 107.705 293.917 107.617C294.005 107.53 294.055 107.417 294.055 107.267V107.105L293.804 107.117C293.616 107.13 293.478 107.155 293.39 107.217C293.302 107.28 293.264 107.367 293.264 107.48C293.264 107.567 293.289 107.63 293.339 107.68C293.39 107.717 293.465 107.742 293.565 107.742Z" fill="#0066B2"/>
<path fill-rule="evenodd" clip-rule="evenodd" d="M277.105 99.8407H273.76C273.76 100.954 273.723 102.287 274.12 103.027C274.171 103.136 274.245 103.232 274.337 103.308C274.429 103.384 274.537 103.439 274.653 103.468C274.734 103.497 274.818 103.519 274.903 103.535C275.154 103.514 275.396 103.433 275.609 103.299C275.822 103.165 275.999 102.981 276.127 102.764C276.409 102.357 276.633 101.912 276.793 101.443C276.861 101.541 276.989 101.596 276.995 101.706C276.974 101.8 276.937 101.889 276.885 101.969C276.396 103.046 275.827 104.226 274.335 104.226C273.718 104.239 273.116 104.036 272.634 103.651C271.779 102.833 271.269 101.72 271.209 100.538C271.037 99.1869 271.167 97.8145 271.588 96.5194C271.967 95.4673 272.573 94.3908 273.943 94.2991C274.236 94.2776 274.529 94.3176 274.805 94.4167C275.081 94.5157 275.334 94.6715 275.546 94.874C275.924 95.24 276.223 95.6791 276.426 96.1646C276.916 97.3264 277.148 98.5806 277.105 99.8407ZM274.659 95.6998C274.659 95.3205 274.598 94.8924 274.353 94.7761C273.906 94.5621 273.821 95.2777 273.79 95.6631C273.698 96.8313 273.79 98.2687 273.79 99.3758H274.689C274.61 98.2198 274.689 96.9292 274.653 95.7059L274.659 95.6998Z" fill="#DB1F26"/>
<path fill-rule="evenodd" clip-rule="evenodd" d="M233.041 94.4641V96.3786C233.389 95.5407 233.732 94.4091 234.931 94.5436C235.132 94.5695 235.32 94.6571 235.469 94.7944C236.258 95.5407 236.344 97.8527 235.561 98.6479C235.471 98.7349 235.365 98.8027 235.248 98.8469C235.131 98.8911 235.006 98.9108 234.882 98.9048C234.731 98.8854 234.586 98.8353 234.455 98.7574C234.325 98.6795 234.212 98.5756 234.123 98.4522C233.809 97.9563 233.66 97.3742 233.695 96.7884C233.706 96.602 233.726 96.4162 233.756 96.2318C233.756 96.0667 233.83 95.8465 233.671 95.7547C233.45 95.8832 233.395 96.1768 233.34 96.4337C233.18 97.3748 233.121 98.3303 233.163 99.284V103.321H233.909V103.761H230.031V103.321H230.557V95.1553H230.019V94.6904C231.034 94.617 232.031 94.5314 233.041 94.4641Z" fill="#0066B2"/>
<path fill-rule="evenodd" clip-rule="evenodd" d="M239.567 94.4641C239.622 97.3695 239.567 100.373 239.567 103.321H240.179V103.761H236.509V103.321H237.035C237.066 100.63 237.035 97.8833 237.035 95.1675H236.448V94.6782C237.567 94.6843 238.54 94.5498 239.567 94.4641Z" fill="#0066B2"/>
<path fill-rule="evenodd" clip-rule="evenodd" d="M251.617 95.1797H251.048V94.6904C252.125 94.6904 253.042 94.5069 254.107 94.5008V103.333H254.718V103.774C253.716 103.797 252.716 103.891 251.727 104.055V102.263C251.33 103.07 250.95 103.951 249.892 104.043C248.706 104.153 248.363 103.211 248.186 102.208C248.039 101.066 247.99 99.914 248.039 98.764V95.1797H247.519V94.6904C248.509 94.671 249.497 94.5995 250.479 94.4763C250.553 94.4763 250.583 94.4151 250.596 94.5619C250.645 95.1736 250.596 95.9687 250.596 96.5498V101.871C250.596 102.293 250.596 102.85 251.061 102.752C251.525 102.654 251.568 101.724 251.593 101.254C251.636 100.526 251.593 99.8161 251.593 99.2289L251.617 95.1797Z" fill="#0066B2"/>
<path fill-rule="evenodd" clip-rule="evenodd" d="M261.709 103.333H262.278V103.774H258.847V103.333H259.189V96.5193C259.189 96.2134 259.11 95.8464 258.859 95.822C258.608 95.7975 258.437 96.1278 258.37 96.3541C258.186 97.3191 258.126 98.3038 258.192 99.284V103.364H258.572V103.804H255.116V103.364H255.636V95.1797H255.116V94.6904C256.186 94.6904 257.104 94.5008 258.174 94.5008V96.2257C258.498 95.4427 258.865 94.6109 259.777 94.4519C260.134 94.3913 260.502 94.463 260.81 94.6537C261.27 95.0724 261.549 95.6539 261.587 96.2746C261.689 97.0347 261.73 97.8017 261.709 98.5683V103.333Z" fill="#0066B2"/>
<path fill-rule="evenodd" clip-rule="evenodd" d="M277.552 94.5374H280.977V95.0329H280.635C281.057 97.1309 281.497 99.2044 281.937 101.278C282.078 100.605 282.219 99.9323 282.353 99.2411C282.383 99.1496 282.404 99.0553 282.415 98.9597C282.392 98.7943 282.358 98.6307 282.311 98.4704C282.078 97.3327 281.858 96.1583 281.632 95.0329H281.179V94.5374H284.733V95.0329H284.121C284.525 97.0575 284.947 99.0698 285.344 101.088C285.62 99.81 285.913 98.3481 286.189 96.9841C286.313 96.5031 286.369 96.0067 286.354 95.51C286.354 95.2164 286.244 94.9901 285.883 95.0329V94.5374H287.497V95.0329C287.415 95.0369 287.333 95.0577 287.259 95.094C286.733 95.3632 286.647 96.3969 286.482 97.0575C286.029 99.3267 285.571 101.682 285.118 103.89H283.405C283.112 102.526 282.831 101.156 282.549 99.7794C282.243 101.131 281.974 102.526 281.687 103.89H279.852C279.24 100.929 278.628 97.9933 278.017 95.0329H277.503V94.5741C277.503 94.5741 277.54 94.5374 277.552 94.5374Z" fill="#DB1F26"/>
<path fill-rule="evenodd" clip-rule="evenodd" d="M296.966 99.498V100.183C296.913 100.174 296.862 100.154 296.819 100.122C296.663 100.021 296.483 99.9621 296.297 99.9524C296.112 99.9427 295.926 99.9822 295.761 100.067C294.941 100.617 294.929 103.07 296.177 103.082C296.459 103.07 296.732 102.979 296.966 102.819V103.498C296.703 103.652 296.402 103.726 296.098 103.711C295.794 103.697 295.501 103.596 295.253 103.419C294.446 102.709 294.476 100.581 295.192 99.7488C295.403 99.4976 295.699 99.3322 296.024 99.2839C296.352 99.2648 296.678 99.339 296.966 99.498Z" fill="#DB1F26"/>
<path fill-rule="evenodd" clip-rule="evenodd" d="M298.593 99.3756C298.787 99.3632 298.982 99.3945 299.162 99.4674C300.385 100.024 300.318 103.137 299.101 103.712C298.901 103.796 298.682 103.824 298.467 103.795C298.252 103.766 298.049 103.681 297.878 103.547C297.131 102.936 297.107 100.789 297.7 99.92C297.797 99.7661 297.927 99.6368 298.082 99.5423C298.237 99.4478 298.412 99.3907 298.593 99.3756ZM298.342 100.067C297.59 100.458 297.547 102.856 298.416 103.125C298.574 103.168 298.741 103.168 298.899 103.125C299.56 102.856 299.7 101.113 299.284 100.379C299.212 100.244 299.1 100.135 298.963 100.067C298.826 99.9986 298.671 99.9752 298.52 99.9995C298.458 100.013 298.398 100.035 298.342 100.067Z" fill="#DB1F26"/>
<path fill-rule="evenodd" clip-rule="evenodd" d="M302.599 100.281C302.699 100.005 302.848 99.7503 303.04 99.5287C303.181 99.412 303.363 99.3561 303.545 99.3733C303.727 99.3905 303.895 99.4794 304.012 99.6205C304.041 99.6542 304.066 99.6912 304.086 99.7306C304.248 100.363 304.296 101.02 304.226 101.67V103.737H303.615V100.746C303.615 100.446 303.615 99.9936 303.376 99.9813C303.138 99.9691 303.034 100.269 302.96 100.41C302.912 100.503 302.869 100.599 302.832 100.697C302.775 100.785 302.73 100.879 302.697 100.978C302.679 101.208 302.679 101.439 302.697 101.67V103.737H302.086V100.746C302.086 100.434 302.086 99.9936 301.859 99.9813C301.633 99.9691 301.407 100.489 301.315 100.697C301.26 100.785 301.217 100.879 301.186 100.978C301.168 101.208 301.168 101.439 301.186 101.67V103.737H300.575V99.4553H301.095C301.11 99.7181 301.11 99.9816 301.095 100.244C301.315 99.9018 301.413 99.4064 301.914 99.3758C302.416 99.3452 302.593 99.7367 302.599 100.281Z" fill="#DB1F26"/>
<path fill-rule="evenodd" clip-rule="evenodd" d="M293.516 102.006C294.391 101.841 294.458 103.449 293.767 103.627C293.32 103.749 293.039 103.309 293.002 102.954C292.984 102.806 292.997 102.657 293.04 102.514C293.083 102.372 293.156 102.241 293.253 102.128C293.33 102.067 293.42 102.025 293.516 102.006Z" fill="#DB1F26"/>
</svg>
